M48
;Layer_Color=9474304
;FILE_FORMAT=2:3
INCH,LZ
;TYPE=PLATED
T1F00S00C0.012
T2F00S00C0.035
T3F00S00C0.059
T4F00S00C0.065
T5F00S00C0.083
;TYPE=NON_PLATED
T6F00S00C0.063
T7F00S00C0.071
T8F00S00C0.128
%
T01
X00464Y-01416
X00622Y-01417
X00768Y-01511
X0085Y-01716
X01026Y-01769
X0105Y-01684
X01168Y-0172
X01173Y-01453
X01136Y-01397
X00999Y-01399
X01381Y-01374
X01385Y-01435
X01359Y-01481
X01458Y-01558
X0139Y-01686
X01641Y-01745
X01822Y-01643
X01926Y-01696
X02176Y-0165
X01605Y-01467
X01481Y-01181
X02979Y-01042
X02984Y-00847
X03007Y-00181
X02671Y-00161
X02616Y-00261
X02448Y-00252
X02346Y-0025
X0221Y-00159
X02041Y-00191
X02072Y-0029
X02011Y-00305
X0201Y-00353
X0202Y-00406
X02083Y-00411
X02035Y-00466
X01853Y-00498
X01857Y-00602
X01802Y-00659
X01759Y-00806
X01673Y-00803
X01662Y-00904
X01758Y-00905
X01526Y-00853
X01473Y-00856
X01467Y-00747
X01536Y-00754
X01498Y-00576
Y-00499
X01519Y-00461
X01499Y-0042
X01449Y-0035
X01386Y-00269
X01485Y-00188
X01583Y-00213
X01788Y-00162
X0176Y-00409
X0166Y-00503
X02126Y-00341
X02377Y-00725
X02868Y-00752
X02902Y-00946
X02086Y-00999
X01292Y-00891
X01333Y-00791
X01242Y-00793
X01233Y-00725
X01339Y-00653
X01322Y-00617
X01321Y-00531
X01261Y-00475
X01201Y-00484
X01132Y-00488
X01043Y-00469
X01009Y-00418
X00996Y-00585
X00884Y-0055
X00784Y-0052
X00623Y-00423
X00614Y-00176
X00748Y-00248
X0088Y-00293
X01073Y-00226
X01117Y-00192
X01145Y-00244
X01205Y-0027
X0127Y-00247
X01326Y-00295
X01272Y-00399
X01136Y-00821
T02
X02597Y-01594
Y-01494
Y-01394
Y-01294
X02697Y-01344
Y-01444
Y-01544
Y-01644
T03
X00171Y-01209
X00421
X00671
Y-0076
X00421
X00171
T04
X03066Y-01776
Y-01162
T05
X00853Y-00984
T06
X03071Y-00406
T07
X02894Y-00406
T08
X02947Y-01694
Y-01244
M30
