M48
;Layer_Color=9474304
;FILE_FORMAT=2:3
INCH,LZ
;TYPE=PLATED
T1F00S00C0.012
T2F00S00C0.020
T3F00S00C0.028
T4F00S00C0.035
T5F00S00C0.059
T6F00S00C0.065
T7F00S00C0.122
;TYPE=NON_PLATED
T8F00S00C0.038
T9F00S00C0.047
T10F00S00C0.128
%
T01
X05287Y-07695
X05569Y-07785
X06033Y-0754
X-00542Y-07704
X-00527Y-07839
X-00666Y-07826
X-0084Y-07928
X-00836Y-0808
X-00426Y-08066
X-0035Y-07929
X-00858Y-07522
X-00639Y-07484
X-00548Y-0735
X-00464Y-07354
X-00427Y-07363
X-00395Y-07371
X-00374Y-07344
X-00371Y-07274
X-00361Y-07226
X-0031Y-07259
X-00285Y-07344
X-00328Y-07486
X-00135Y-07452
X-00033Y-07216
X-00069Y-0712
X-00068Y-07071
X-00066Y-07001
X-00067Y-06927
X-0016Y-06895
X-00205Y-06929
X-002Y-07048
X-00128Y-06766
X-00065Y-06763
X-00064Y-06579
X-00002Y-06401
X-00091Y-06322
X-00117Y-06243
X-0007Y-06215
X00043Y-06182
X00058Y-0615
Y-06118
X00043Y-06086
X-00041Y-06077
X-00017Y-05942
X-00079Y-0593
X-00224Y-05957
Y-06043
X-0029Y-06285
X-00443Y-06262
X-00402Y-06407
X-00369Y-06487
X-00513Y-06488
X-00512Y-06591
X-00467Y-06582
X-00566
X-00586Y-06534
X-00673Y-06563
X-00746Y-06675
X-00723Y-06698
X-00597Y-0668
X-00479Y-06685
X-00403Y-0662
X-00382Y-06751
X-00411Y-0678
X-00527Y-06782
X-00656Y-06911
X-00657Y-06988
Y-0707
X-00776Y-07079
Y-06994
Y-06914
X-00546Y-07215
X-00466Y-07218
X-0027Y-06652
X-00586Y-06387
X-00634Y-06335
X00081Y-0627
X0014Y-06289
X00218Y-06244
X00209Y-06379
X00176Y-06403
X00114Y-06419
X00125Y-06542
X00164Y-06574
X00151Y-06633
X00146Y-06718
X00232Y-06715
X00219Y-06544
X00283Y-0652
X00351Y-06647
X00509Y-06649
X00474Y-06243
X00554Y-0617
X00607Y-06067
X00623Y-06014
X00716Y-05974
X00772Y-05934
X00824Y-05933
X00795Y-0601
X00897Y-05995
X01002Y-05933
X01057Y-06033
X01096Y-06082
X01027Y-06128
X00933Y-06154
X00799Y-06183
X00749Y-06143
X00695Y-06129
X00697Y-06314
X01032Y-06252
X01101Y-06288
X01193Y-06366
X01239Y-06362
X01366Y-06295
X01291Y-06059
X01289Y-05997
X01242Y-05997
X01192Y-06002
X01142Y-05998
X01243Y-06089
X01374Y-0593
X00505Y-05983
X00452Y-05956
X00473Y-06089
X00312Y-06012
X00311Y-05931
X0028Y-05961
X00146Y-06085
X05308Y-07355
X0553Y-07356
X04404Y-05266
X04322Y-0503
X0429Y-05033
X02596Y-05465
X0248Y-05567
X02213Y-04667
X02092Y-04662
X0184Y-04641
X01442Y-04651
X01033Y-04693
X00682Y-04656
X00626Y-04765
X00643Y-04448
X00572Y-05734
X00519Y-05769
X00518Y-05882
X00448Y-05911
X00649Y-05915
X00639Y-05857
X00677Y-05858
X00771Y-05848
X00902Y-05879
X00355Y-0577
X00233Y-05814
X00238Y-05874
X00228Y-05728
X01585Y-05596
X00079Y-05813
X00085Y-05886
X-00311Y-05868
X-00261Y-05808
X-00302Y-056
X-00324Y-05578
X00029Y-05262
X00408Y-0413
X0043Y-03618
X00278Y-0355
X00176Y-03552
X00438Y-03196
X00743Y-02942
X01393Y-03659
X02348Y-036
X02413Y-03343
X0214Y-03028
X02991Y-03
X02926Y-03543
X03112Y-03571
X02587Y-0391
X02493Y-03909
X02455Y-0402
X02144Y-04329
X03338Y-03661
X03386Y-03606
X03353Y-03543
X03478Y-03519
X03468Y-03442
X03564Y-03434
X03544Y-03398
X03426Y-03377
X03385Y-03413
X03311Y-03409
X03545Y-03565
X03767Y-03579
X03711Y-03656
X03804Y-03721
X03922Y-03873
X04005Y-03822
X04082Y-03671
X04084Y-03559
X04061Y-03536
X04039Y-03514
X04016Y-03491
X0399Y-03455
X03947Y-03509
X03882Y-03486
X03903Y-03439
X03934Y-03365
X03778Y-03171
X03651Y-03155
X03621Y-03185
X03494Y-02992
X03663Y-02854
X0382Y-02993
X03834Y-03047
X03973Y-02957
X04027Y-02867
X04077Y-02899
X04195Y-02813
X0435Y-02959
X04368Y-03021
X04519Y-0312
X04556Y-03181
X04504Y-03261
X04477Y-03317
X0466Y-03448
X047Y-02985
X04722Y-02818
X0453Y-02812
X03333Y-02806
X03311Y-02828
X03289Y-02857
X04185Y-04189
X04222Y-0416
X04997Y-03062
Y-0303
Y-02998
X05087Y-02263
X0511Y-0224
X05132Y-02218
X04708Y-02322
X04663Y-02327
X04604Y-02397
X04657Y-02454
X04741Y-02413
X04541Y-02488
X04462Y-02516
X04499Y-02554
X04495Y-02622
X04471Y-02645
X04525Y-02665
X04466Y-02737
X04325Y-0274
X04288Y-02706
X04292Y-02668
X04223Y-02643
X04348Y-02621
X04336Y-02492
X04229Y-02454
X04171Y-02497
X04103Y-02616
X03996Y-02582
X03917Y-02654
X03857Y-02681
X03848Y-02733
X03853Y-02519
X03876Y-02458
X03898Y-02376
X03967Y-0234
X03969Y-02416
X04012Y-02436
X04069Y-02248
X04168Y-0226
X04143Y-02315
X04141Y-02163
X04148Y-02117
X04242Y-02101
X04313Y-02039
X04131Y-02009
X04098Y-01936
X04092Y-01686
X0421Y-01689
X04242Y-01744
X04333Y-01693
X03972Y-01691
X04005Y-01738
X04016Y-02133
X03937Y-021
X03909Y-02165
X03867Y-02158
X03797Y-02147
X03832Y-02097
X03833Y-02308
X03731Y-02322
X0369Y-02363
X03701Y-024
X03575Y-02401
X03554Y-02308
X03668Y-02277
X03734Y-02516
X03562Y-02667
X03533Y-02715
X03401Y-02738
X03379Y-0276
X03356Y-02783
X03352Y-02464
X03238Y-02521
X03232Y-02401
X03225Y-02208
X03356Y-02187
X03359Y-02256
X03433Y-02141
X03463Y-02013
X03398Y-01961
X03305Y-01946
X03238Y-01866
X03287Y-01792
X03339Y-01727
X03223
X03231Y-01671
X03266Y-01612
X03351Y-01512
X0339Y-01318
X03511Y-01242
X03641Y-01318
X03764Y-0124
X03896Y-01319
X04153Y-01316
X04408Y-01325
X04535Y-01246
X04663Y-01322
X04784Y-01242
X04431Y-02315
X04408Y-02338
X04322Y-02268
X04722Y-0269
Y-02722
Y-02754
Y-02786
X04027Y-02798
X03263Y-02072
X03431Y-01852
X03182Y-0182
X0313Y-0179
X03047Y-01895
X03087Y-01969
X03157Y-02063
X03167Y-0212
X03149Y-02439
X03159Y-01543
X03142Y-01412
X02344Y-01334
Y-0158
X02033Y-02759
X01839Y-02686
X0144Y-02703
X0119Y-0255
X01213Y-02448
X01033Y-02669
X0146Y-01389
X01438Y-01367
X01415Y-01344
X01483Y-01412
X-00063Y-02003
X-00489Y-00567
X-00323Y-00319
X-00782Y-00113
X00353Y-00345
X00483Y-00545
X00264Y-01227
X01333Y-00763
X01314Y-00342
X01567Y-00107
X01517Y00105
X0147Y00317
X01355Y00234
X01716Y00303
X01768Y00109
X01817Y00115
X0192Y00104
X02019Y-00036
X02107Y-00038
X02036Y-00128
X022Y-0026
X02165Y00157
X02138Y00201
X02115Y00322
X02272Y00236
X02326Y00231
X0238Y00193
X02417Y00135
X02425Y0029
X01717Y-00051
Y-00135
X03414Y-00929
X03466Y-00947
X03413Y-01105
X03511Y-01182
X03668Y-01107
X03763Y-01183
X03923Y-01107
X04024Y-0118
X04025Y-01238
X04276Y-01238
X04275Y-01182
X04178Y-01107
X04176Y-00933
X04232Y-00952
X04432Y-00939
X04485Y-00955
X04531Y-00956
X04691Y-0094
X0474Y-00953
X04688Y-01112
X04784Y-01187
X04535Y-01187
X04433Y-01112
X03972Y-0095
X03925Y-0093
X0372Y-00949
X03669Y-0093
X03931Y-00575
X0401Y-00575
X04091Y-00575
X04168Y-00576
X04244Y-00573
X0433
X02062Y00471
X02018Y00473
X01967Y00476
X01916Y00475
X01818Y00467
X01768Y0047
X01718Y00564
X01665Y00324
X01515Y00461
X00588Y00451
X00351Y00346
X005Y00821
Y00853
X00172Y00912
X-00347Y00345
X-00613Y00481
T02
X-0041Y-07797
X-00382Y-07816
X-00348Y-07823
X-00314Y-07816
X-00286Y-07797
X-00267Y-07769
X-0026Y-07735
X-00267Y-07701
X-00286Y-07673
X-00314Y-07654
X-00348Y-07647
X-00382Y-07654
X-0041Y-07673
X-00429Y-07701
X-00436Y-07735
X-00429Y-07769
X02473Y-06495
X02501Y-06514
X02535Y-06521
X02569Y-06514
X02597Y-06495
X02616Y-06467
X02623Y-06433
X02616Y-06399
X02597Y-06371
X02569Y-06352
X02535Y-06345
X02501Y-06352
X02473Y-06371
X02454Y-06399
X02447Y-06433
X02454Y-06467
X05835Y-07034
X05816Y-07062
X05809Y-07096
X05816Y-0713
X05835Y-07158
X05863Y-07177
X05897Y-07184
X05931Y-07177
X05959Y-07158
X05978Y-0713
X05985Y-07096
X05978Y-07062
X05959Y-07034
X05931Y-07015
X05897Y-07008
X05863Y-07015
X05859Y-04598
X05893Y-04591
X05921Y-04572
X0594Y-04544
X05947Y-0451
X0594Y-04476
X05921Y-04448
X05893Y-04429
X05859Y-04422
X05825Y-04429
X05797Y-04448
X05778Y-04476
X05771Y-0451
X05778Y-04544
X05797Y-04572
X05825Y-04591
X00042Y-04904
X00014Y-04885
X-0002Y-04878
X-00054Y-04885
X-00082Y-04904
X-00101Y-04932
X-00108Y-04966
X-00101Y-05
X-00082Y-05028
X-00054Y-05047
X-0002Y-05054
X00014Y-05047
X00042Y-05028
X00061Y-05
X00068Y-04966
X00061Y-04932
X06785Y-0157
X06813Y-01589
X06847Y-01596
X06881Y-01589
X06909Y-0157
X06928Y-01542
X06935Y-01508
X06928Y-01474
X06909Y-01446
X06881Y-01427
X06847Y-0142
X06813Y-01427
X06785Y-01446
X06766Y-01474
X06759Y-01508
X06766Y-01542
X-00041Y-02234
X-00069Y-02215
X-00103Y-02208
X-00137Y-02215
X-00165Y-02234
X-00184Y-02262
X-00191Y-02296
X-00184Y-0233
X-00165Y-02358
X-00137Y-02377
X-00103Y-02384
X-00069Y-02377
X-00041Y-02358
X-00022Y-0233
X-00015Y-02296
X-00022Y-02262
X05652Y00471
X0568Y00452
X05714Y00445
X05748Y00452
X05776Y00471
X05795Y00499
X05802Y00533
X05795Y00567
X05776Y00595
X05748Y00614
X05714Y00621
X0568Y00614
X05652Y00595
X05633Y00567
X05626Y00533
X05633Y00499
X02544Y00516
X02537Y0055
X02518Y00578
X0249Y00597
X02456Y00604
X02422Y00597
X02394Y00578
X02375Y0055
X02368Y00516
X02375Y00482
X02394Y00454
X02422Y00435
X02456Y00428
X0249Y00435
X02518Y00454
X02537Y00482
X-0133Y00752
X-01311Y0078
X-01304Y00814
X-01311Y00848
X-0133Y00876
X-01358Y00895
X-01392Y00902
X-01426Y00895
X-01454Y00876
Y00752
X-01426Y00733
X-01392Y00726
X-01358Y00733
X-01473Y0078
X-0148Y00814
X-01473Y00848
T03
X-00512Y-07093
Y-07004
Y-06905
X-00424Y-06905
X-00324
X-00324Y-07003
X-00324Y-07093
X-00415Y-07093
T04
X-01073Y01399
X-01108Y01505
X-01038Y01575
X-00932Y0154
X-00861Y01611
X-00896Y01717
X-00967Y01646
X-01002Y01469
T05
X-00689Y-08029
X-00515
X-00419Y-06999
T06
X-01498Y01637
X-01064Y02071
T07
X-00348Y-07735
X02535Y-06433
X05897Y-07096
X05859Y-0451
X-0002Y-04966
X06847Y-01508
X-00103Y-02296
X05714Y00533
X02456Y00516
X-01392Y00814
T08
X01167Y-06214
X01317
T09
X03971Y-00651
X04286
T10
X-01356Y01611
X-01038Y01929
M30
