%FSLAX23Y23*%
%MOIN*%
G70*
G01*
G75*
G04 Layer_Color=32896*
%ADD10C,0.450*%
%ADD11R,0.031X0.033*%
%ADD12R,0.217X0.059*%
%ADD13R,0.033X0.031*%
%ADD14R,0.043X0.105*%
%ADD15R,0.043X0.059*%
%ADD16R,0.105X0.043*%
G04:AMPARAMS|DCode=17|XSize=33mil|YSize=31mil|CornerRadius=0mil|HoleSize=0mil|Usage=FLASHONLY|Rotation=292.500|XOffset=0mil|YOffset=0mil|HoleType=Round|Shape=Rectangle|*
%AMROTATEDRECTD17*
4,1,4,-0.021,0.009,0.008,0.021,0.021,-0.009,-0.008,-0.021,-0.021,0.009,0.0*
%
%ADD17ROTATEDRECTD17*%

G04:AMPARAMS|DCode=18|XSize=33mil|YSize=31mil|CornerRadius=0mil|HoleSize=0mil|Usage=FLASHONLY|Rotation=337.500|XOffset=0mil|YOffset=0mil|HoleType=Round|Shape=Rectangle|*
%AMROTATEDRECTD18*
4,1,4,-0.021,-0.008,-0.009,0.021,0.021,0.008,0.009,-0.021,-0.021,-0.008,0.0*
%
%ADD18ROTATEDRECTD18*%

G04:AMPARAMS|DCode=19|XSize=33mil|YSize=31mil|CornerRadius=0mil|HoleSize=0mil|Usage=FLASHONLY|Rotation=22.500|XOffset=0mil|YOffset=0mil|HoleType=Round|Shape=Rectangle|*
%AMROTATEDRECTD19*
4,1,4,-0.009,-0.021,-0.021,0.008,0.009,0.021,0.021,-0.008,-0.009,-0.021,0.0*
%
%ADD19ROTATEDRECTD19*%

G04:AMPARAMS|DCode=20|XSize=33mil|YSize=31mil|CornerRadius=0mil|HoleSize=0mil|Usage=FLASHONLY|Rotation=67.500|XOffset=0mil|YOffset=0mil|HoleType=Round|Shape=Rectangle|*
%AMROTATEDRECTD20*
4,1,4,0.008,-0.021,-0.021,-0.009,-0.008,0.021,0.021,0.009,0.008,-0.021,0.0*
%
%ADD20ROTATEDRECTD20*%

G04:AMPARAMS|DCode=21|XSize=59mil|YSize=43mil|CornerRadius=0mil|HoleSize=0mil|Usage=FLASHONLY|Rotation=112.500|XOffset=0mil|YOffset=0mil|HoleType=Round|Shape=Rectangle|*
%AMROTATEDRECTD21*
4,1,4,0.031,-0.019,-0.009,-0.036,-0.031,0.019,0.009,0.036,0.031,-0.019,0.0*
%
%ADD21ROTATEDRECTD21*%

G04:AMPARAMS|DCode=22|XSize=59mil|YSize=43mil|CornerRadius=0mil|HoleSize=0mil|Usage=FLASHONLY|Rotation=157.500|XOffset=0mil|YOffset=0mil|HoleType=Round|Shape=Rectangle|*
%AMROTATEDRECTD22*
4,1,4,0.036,0.009,0.019,-0.031,-0.036,-0.009,-0.019,0.031,0.036,0.009,0.0*
%
%ADD22ROTATEDRECTD22*%

G04:AMPARAMS|DCode=23|XSize=59mil|YSize=43mil|CornerRadius=0mil|HoleSize=0mil|Usage=FLASHONLY|Rotation=202.500|XOffset=0mil|YOffset=0mil|HoleType=Round|Shape=Rectangle|*
%AMROTATEDRECTD23*
4,1,4,0.019,0.031,0.036,-0.009,-0.019,-0.031,-0.036,0.009,0.019,0.031,0.0*
%
%ADD23ROTATEDRECTD23*%

G04:AMPARAMS|DCode=24|XSize=59mil|YSize=43mil|CornerRadius=0mil|HoleSize=0mil|Usage=FLASHONLY|Rotation=247.500|XOffset=0mil|YOffset=0mil|HoleType=Round|Shape=Rectangle|*
%AMROTATEDRECTD24*
4,1,4,-0.009,0.036,0.031,0.019,0.009,-0.036,-0.031,-0.019,-0.009,0.036,0.0*
%
%ADD24ROTATEDRECTD24*%

G04:AMPARAMS|DCode=25|XSize=33mil|YSize=31mil|CornerRadius=0mil|HoleSize=0mil|Usage=FLASHONLY|Rotation=292.850|XOffset=0mil|YOffset=0mil|HoleType=Round|Shape=Rectangle|*
%AMROTATEDRECTD25*
4,1,4,-0.021,0.009,0.008,0.022,0.021,-0.009,-0.008,-0.022,-0.021,0.009,0.0*
%
%ADD25ROTATEDRECTD25*%

G04:AMPARAMS|DCode=26|XSize=33mil|YSize=31mil|CornerRadius=0mil|HoleSize=0mil|Usage=FLASHONLY|Rotation=315.000|XOffset=0mil|YOffset=0mil|HoleType=Round|Shape=Rectangle|*
%AMROTATEDRECTD26*
4,1,4,-0.023,0.001,-0.001,0.023,0.023,-0.001,0.001,-0.023,-0.023,0.001,0.0*
%
%ADD26ROTATEDRECTD26*%

G04:AMPARAMS|DCode=27|XSize=33mil|YSize=31mil|CornerRadius=0mil|HoleSize=0mil|Usage=FLASHONLY|Rotation=45.000|XOffset=0mil|YOffset=0mil|HoleType=Round|Shape=Rectangle|*
%AMROTATEDRECTD27*
4,1,4,-0.001,-0.023,-0.023,-0.001,0.001,0.023,0.023,0.001,-0.001,-0.023,0.0*
%
%ADD27ROTATEDRECTD27*%

G04:AMPARAMS|DCode=28|XSize=59mil|YSize=43mil|CornerRadius=0mil|HoleSize=0mil|Usage=FLASHONLY|Rotation=135.000|XOffset=0mil|YOffset=0mil|HoleType=Round|Shape=Rectangle|*
%AMROTATEDRECTD28*
4,1,4,0.036,-0.006,0.006,-0.036,-0.036,0.006,-0.006,0.036,0.036,-0.006,0.0*
%
%ADD28ROTATEDRECTD28*%

%ADD29R,0.059X0.043*%
G04:AMPARAMS|DCode=30|XSize=59mil|YSize=43mil|CornerRadius=0mil|HoleSize=0mil|Usage=FLASHONLY|Rotation=225.000|XOffset=0mil|YOffset=0mil|HoleType=Round|Shape=Rectangle|*
%AMROTATEDRECTD30*
4,1,4,0.006,0.036,0.036,0.006,-0.006,-0.036,-0.036,-0.006,0.006,0.036,0.0*
%
%ADD30ROTATEDRECTD30*%

G04:AMPARAMS|DCode=31|XSize=10mil|YSize=59mil|CornerRadius=0mil|HoleSize=0mil|Usage=FLASHONLY|Rotation=225.000|XOffset=0mil|YOffset=0mil|HoleType=Round|Shape=Rectangle|*
%AMROTATEDRECTD31*
4,1,4,-0.017,0.024,0.024,-0.017,0.017,-0.024,-0.024,0.017,-0.017,0.024,0.0*
%
%ADD31ROTATEDRECTD31*%

G04:AMPARAMS|DCode=32|XSize=10mil|YSize=59mil|CornerRadius=0mil|HoleSize=0mil|Usage=FLASHONLY|Rotation=315.000|XOffset=0mil|YOffset=0mil|HoleType=Round|Shape=Rectangle|*
%AMROTATEDRECTD32*
4,1,4,-0.024,-0.017,0.017,0.024,0.024,0.017,-0.017,-0.024,-0.024,-0.017,0.0*
%
%ADD32ROTATEDRECTD32*%

%ADD33R,0.026X0.014*%
%ADD34R,0.049X0.014*%
%ADD35R,0.033X0.024*%
%ADD36R,0.047X0.024*%
G04:AMPARAMS|DCode=37|XSize=24mil|YSize=33mil|CornerRadius=0mil|HoleSize=0mil|Usage=FLASHONLY|Rotation=225.000|XOffset=0mil|YOffset=0mil|HoleType=Round|Shape=Rectangle|*
%AMROTATEDRECTD37*
4,1,4,-0.003,0.020,0.020,-0.003,0.003,-0.020,-0.020,0.003,-0.003,0.020,0.0*
%
%ADD37ROTATEDRECTD37*%

%ADD38R,0.035X0.012*%
%ADD39C,0.039*%
%ADD40R,0.055X0.043*%
%ADD41R,0.024X0.033*%
%ADD42R,0.043X0.055*%
%ADD43R,0.024X0.081*%
%ADD44R,0.069X0.039*%
%ADD45R,0.035X0.049*%
%ADD46R,0.020X0.093*%
%ADD47R,0.079X0.098*%
%ADD48R,0.029X0.110*%
%ADD49R,0.024X0.079*%
%ADD50R,0.094X0.079*%
%ADD51R,0.110X0.050*%
%ADD52R,0.051X0.022*%
%ADD53R,0.022X0.051*%
%ADD54R,0.024X0.089*%
%ADD55R,0.033X0.010*%
%ADD56R,0.010X0.033*%
%ADD57R,0.240X0.240*%
%ADD58R,0.150X0.050*%
%ADD59C,0.008*%
%ADD60C,0.007*%
%ADD61C,0.010*%
%ADD62C,0.006*%
%ADD63C,0.012*%
%ADD64C,0.020*%
%ADD65C,0.059*%
%ADD66P,0.084X4X90.0*%
%ADD67C,0.100*%
%ADD68C,0.116*%
%ADD69C,0.030*%
%ADD70C,0.230*%
%ADD71C,0.018*%
%ADD72C,0.026*%
%ADD73C,0.050*%
%ADD74C,0.087*%
%ADD75C,0.040*%
%ADD76C,0.075*%
%ADD77C,0.105*%
%ADD78C,0.168*%
%ADD79C,0.060*%
%ADD80C,0.162*%
%ADD81C,0.087*%
%ADD82C,0.099*%
%ADD83C,0.078*%
G04:AMPARAMS|DCode=84|XSize=72mil|YSize=72mil|CornerRadius=0mil|HoleSize=0mil|Usage=FLASHONLY|Rotation=0.000|XOffset=0mil|YOffset=0mil|HoleType=Round|Shape=Relief|Width=10mil|Gap=10mil|Entries=4|*
%AMTHD84*
7,0,0,0.072,0.052,0.010,45*
%
%ADD84THD84*%
%ADD85C,0.052*%
G04:AMPARAMS|DCode=86|XSize=88mil|YSize=88mil|CornerRadius=0mil|HoleSize=0mil|Usage=FLASHONLY|Rotation=0.000|XOffset=0mil|YOffset=0mil|HoleType=Round|Shape=Relief|Width=10mil|Gap=10mil|Entries=4|*
%AMTHD86*
7,0,0,0.088,0.068,0.010,45*
%
%ADD86THD86*%
G04:AMPARAMS|DCode=87|XSize=119.055mil|YSize=119.055mil|CornerRadius=0mil|HoleSize=0mil|Usage=FLASHONLY|Rotation=0.000|XOffset=0mil|YOffset=0mil|HoleType=Round|Shape=Relief|Width=10mil|Gap=10mil|Entries=4|*
%AMTHD87*
7,0,0,0.119,0.099,0.010,45*
%
%ADD87THD87*%
%ADD88R,0.049X0.035*%
%ADD89R,0.050X0.050*%
%ADD90R,0.035X0.083*%
%ADD91R,0.130X0.083*%
%ADD92R,0.031X0.118*%
%ADD93R,0.038X0.035*%
%ADD94R,0.038X0.026*%
%ADD95R,0.039X0.079*%
G04:AMPARAMS|DCode=96|XSize=120mil|YSize=50mil|CornerRadius=0mil|HoleSize=0mil|Usage=FLASHONLY|Rotation=135.000|XOffset=0mil|YOffset=0mil|HoleType=Round|Shape=Rectangle|*
%AMROTATEDRECTD96*
4,1,4,0.060,-0.025,0.025,-0.060,-0.060,0.025,-0.025,0.060,0.060,-0.025,0.0*
%
%ADD96ROTATEDRECTD96*%

%ADD97C,0.050*%
%ADD98C,0.030*%
%ADD99C,0.024*%
%ADD100C,0.010*%
%ADD101C,0.008*%
%ADD102C,0.005*%
%ADD103C,0.004*%
%ADD104R,0.024X0.047*%
%ADD105R,0.025X0.025*%
%ADD106R,0.039X0.041*%
%ADD107R,0.225X0.067*%
%ADD108R,0.041X0.039*%
%ADD109R,0.051X0.113*%
%ADD110R,0.051X0.067*%
%ADD111R,0.113X0.051*%
G04:AMPARAMS|DCode=112|XSize=41mil|YSize=39mil|CornerRadius=0mil|HoleSize=0mil|Usage=FLASHONLY|Rotation=292.500|XOffset=0mil|YOffset=0mil|HoleType=Round|Shape=Rectangle|*
%AMROTATEDRECTD112*
4,1,4,-0.026,0.012,0.010,0.027,0.026,-0.012,-0.010,-0.027,-0.026,0.012,0.0*
%
%ADD112ROTATEDRECTD112*%

G04:AMPARAMS|DCode=113|XSize=41mil|YSize=39mil|CornerRadius=0mil|HoleSize=0mil|Usage=FLASHONLY|Rotation=337.500|XOffset=0mil|YOffset=0mil|HoleType=Round|Shape=Rectangle|*
%AMROTATEDRECTD113*
4,1,4,-0.027,-0.010,-0.012,0.026,0.027,0.010,0.012,-0.026,-0.027,-0.010,0.0*
%
%ADD113ROTATEDRECTD113*%

G04:AMPARAMS|DCode=114|XSize=41mil|YSize=39mil|CornerRadius=0mil|HoleSize=0mil|Usage=FLASHONLY|Rotation=22.500|XOffset=0mil|YOffset=0mil|HoleType=Round|Shape=Rectangle|*
%AMROTATEDRECTD114*
4,1,4,-0.012,-0.026,-0.027,0.010,0.012,0.026,0.027,-0.010,-0.012,-0.026,0.0*
%
%ADD114ROTATEDRECTD114*%

G04:AMPARAMS|DCode=115|XSize=41mil|YSize=39mil|CornerRadius=0mil|HoleSize=0mil|Usage=FLASHONLY|Rotation=67.500|XOffset=0mil|YOffset=0mil|HoleType=Round|Shape=Rectangle|*
%AMROTATEDRECTD115*
4,1,4,0.010,-0.027,-0.026,-0.012,-0.010,0.027,0.026,0.012,0.010,-0.027,0.0*
%
%ADD115ROTATEDRECTD115*%

G04:AMPARAMS|DCode=116|XSize=67mil|YSize=51mil|CornerRadius=0mil|HoleSize=0mil|Usage=FLASHONLY|Rotation=112.500|XOffset=0mil|YOffset=0mil|HoleType=Round|Shape=Rectangle|*
%AMROTATEDRECTD116*
4,1,4,0.037,-0.021,-0.011,-0.041,-0.037,0.021,0.011,0.041,0.037,-0.021,0.0*
%
%ADD116ROTATEDRECTD116*%

G04:AMPARAMS|DCode=117|XSize=67mil|YSize=51mil|CornerRadius=0mil|HoleSize=0mil|Usage=FLASHONLY|Rotation=157.500|XOffset=0mil|YOffset=0mil|HoleType=Round|Shape=Rectangle|*
%AMROTATEDRECTD117*
4,1,4,0.041,0.011,0.021,-0.037,-0.041,-0.011,-0.021,0.037,0.041,0.011,0.0*
%
%ADD117ROTATEDRECTD117*%

G04:AMPARAMS|DCode=118|XSize=67mil|YSize=51mil|CornerRadius=0mil|HoleSize=0mil|Usage=FLASHONLY|Rotation=202.500|XOffset=0mil|YOffset=0mil|HoleType=Round|Shape=Rectangle|*
%AMROTATEDRECTD118*
4,1,4,0.021,0.037,0.041,-0.011,-0.021,-0.037,-0.041,0.011,0.021,0.037,0.0*
%
%ADD118ROTATEDRECTD118*%

G04:AMPARAMS|DCode=119|XSize=67mil|YSize=51mil|CornerRadius=0mil|HoleSize=0mil|Usage=FLASHONLY|Rotation=247.500|XOffset=0mil|YOffset=0mil|HoleType=Round|Shape=Rectangle|*
%AMROTATEDRECTD119*
4,1,4,-0.011,0.041,0.037,0.021,0.011,-0.041,-0.037,-0.021,-0.011,0.041,0.0*
%
%ADD119ROTATEDRECTD119*%

G04:AMPARAMS|DCode=120|XSize=41mil|YSize=39mil|CornerRadius=0mil|HoleSize=0mil|Usage=FLASHONLY|Rotation=292.850|XOffset=0mil|YOffset=0mil|HoleType=Round|Shape=Rectangle|*
%AMROTATEDRECTD120*
4,1,4,-0.026,0.011,0.010,0.027,0.026,-0.011,-0.010,-0.027,-0.026,0.011,0.0*
%
%ADD120ROTATEDRECTD120*%

G04:AMPARAMS|DCode=121|XSize=41mil|YSize=39mil|CornerRadius=0mil|HoleSize=0mil|Usage=FLASHONLY|Rotation=315.000|XOffset=0mil|YOffset=0mil|HoleType=Round|Shape=Rectangle|*
%AMROTATEDRECTD121*
4,1,4,-0.029,0.001,-0.001,0.029,0.029,-0.001,0.001,-0.029,-0.029,0.001,0.0*
%
%ADD121ROTATEDRECTD121*%

G04:AMPARAMS|DCode=122|XSize=41mil|YSize=39mil|CornerRadius=0mil|HoleSize=0mil|Usage=FLASHONLY|Rotation=45.000|XOffset=0mil|YOffset=0mil|HoleType=Round|Shape=Rectangle|*
%AMROTATEDRECTD122*
4,1,4,-0.001,-0.029,-0.029,-0.001,0.001,0.029,0.029,0.001,-0.001,-0.029,0.0*
%
%ADD122ROTATEDRECTD122*%

G04:AMPARAMS|DCode=123|XSize=67mil|YSize=51mil|CornerRadius=0mil|HoleSize=0mil|Usage=FLASHONLY|Rotation=135.000|XOffset=0mil|YOffset=0mil|HoleType=Round|Shape=Rectangle|*
%AMROTATEDRECTD123*
4,1,4,0.042,-0.006,0.006,-0.042,-0.042,0.006,-0.006,0.042,0.042,-0.006,0.0*
%
%ADD123ROTATEDRECTD123*%

%ADD124R,0.067X0.051*%
G04:AMPARAMS|DCode=125|XSize=67mil|YSize=51mil|CornerRadius=0mil|HoleSize=0mil|Usage=FLASHONLY|Rotation=225.000|XOffset=0mil|YOffset=0mil|HoleType=Round|Shape=Rectangle|*
%AMROTATEDRECTD125*
4,1,4,0.006,0.042,0.042,0.006,-0.006,-0.042,-0.042,-0.006,0.006,0.042,0.0*
%
%ADD125ROTATEDRECTD125*%

G04:AMPARAMS|DCode=126|XSize=18mil|YSize=67mil|CornerRadius=0mil|HoleSize=0mil|Usage=FLASHONLY|Rotation=225.000|XOffset=0mil|YOffset=0mil|HoleType=Round|Shape=Rectangle|*
%AMROTATEDRECTD126*
4,1,4,-0.017,0.030,0.030,-0.017,0.017,-0.030,-0.030,0.017,-0.017,0.030,0.0*
%
%ADD126ROTATEDRECTD126*%

G04:AMPARAMS|DCode=127|XSize=18mil|YSize=67mil|CornerRadius=0mil|HoleSize=0mil|Usage=FLASHONLY|Rotation=315.000|XOffset=0mil|YOffset=0mil|HoleType=Round|Shape=Rectangle|*
%AMROTATEDRECTD127*
4,1,4,-0.030,-0.017,0.017,0.030,0.030,0.017,-0.017,-0.030,-0.030,-0.017,0.0*
%
%ADD127ROTATEDRECTD127*%

%ADD128R,0.034X0.022*%
%ADD129R,0.057X0.022*%
%ADD130R,0.041X0.032*%
%ADD131R,0.055X0.032*%
G04:AMPARAMS|DCode=132|XSize=32mil|YSize=41mil|CornerRadius=0mil|HoleSize=0mil|Usage=FLASHONLY|Rotation=225.000|XOffset=0mil|YOffset=0mil|HoleType=Round|Shape=Rectangle|*
%AMROTATEDRECTD132*
4,1,4,-0.003,0.026,0.026,-0.003,0.003,-0.026,-0.026,0.003,-0.003,0.026,0.0*
%
%ADD132ROTATEDRECTD132*%

%ADD133R,0.043X0.020*%
%ADD134R,0.063X0.051*%
%ADD135R,0.032X0.041*%
%ADD136R,0.051X0.063*%
%ADD137R,0.032X0.089*%
%ADD138R,0.077X0.047*%
%ADD139R,0.043X0.057*%
%ADD140R,0.028X0.101*%
%ADD141R,0.087X0.106*%
%ADD142R,0.037X0.118*%
%ADD143R,0.032X0.087*%
%ADD144R,0.102X0.087*%
%ADD145R,0.118X0.058*%
%ADD146R,0.059X0.030*%
%ADD147R,0.030X0.059*%
%ADD148R,0.032X0.097*%
%ADD149R,0.041X0.018*%
%ADD150R,0.018X0.041*%
%ADD151R,0.248X0.248*%
%ADD152R,0.158X0.058*%
%ADD153C,0.067*%
%ADD154P,0.095X4X90.0*%
%ADD155C,0.108*%
%ADD156C,0.124*%
%ADD157C,0.038*%
%ADD158C,0.238*%
%ADD159C,0.008*%
%ADD160C,0.026*%
%ADD161R,0.008X0.008*%
%ADD162R,0.057X0.043*%
%ADD163R,0.058X0.058*%
%ADD164R,0.043X0.091*%
%ADD165R,0.138X0.091*%
%ADD166R,0.039X0.126*%
%ADD167R,0.046X0.043*%
%ADD168R,0.046X0.034*%
%ADD169R,0.047X0.087*%
G04:AMPARAMS|DCode=170|XSize=128mil|YSize=58mil|CornerRadius=0mil|HoleSize=0mil|Usage=FLASHONLY|Rotation=135.000|XOffset=0mil|YOffset=0mil|HoleType=Round|Shape=Rectangle|*
%AMROTATEDRECTD170*
4,1,4,0.066,-0.025,0.025,-0.066,-0.066,0.025,-0.025,0.066,0.066,-0.025,0.0*
%
%ADD170ROTATEDRECTD170*%

%ADD171C,0.004*%
G36*
X5044Y1794D02*
X4818D01*
Y1848D01*
X4979D01*
Y2112D01*
X5044D01*
Y1794D01*
D02*
G37*
G36*
X3827D02*
X3762D01*
Y1928D01*
X3741D01*
X3735Y1927D01*
X3729Y1926D01*
X3725Y1926D01*
X3721Y1925D01*
X3719Y1924D01*
X3717Y1924D01*
X3717D01*
X3713Y1922D01*
X3709Y1920D01*
X3706Y1918D01*
X3703Y1916D01*
X3701Y1914D01*
X3699Y1912D01*
X3698Y1911D01*
X3697Y1911D01*
X3695Y1909D01*
X3693Y1906D01*
X3691Y1903D01*
X3688Y1899D01*
X3682Y1891D01*
X3677Y1884D01*
X3671Y1876D01*
X3669Y1873D01*
X3667Y1869D01*
X3666Y1867D01*
X3664Y1865D01*
X3664Y1864D01*
X3663Y1864D01*
X3616Y1794D01*
X3539D01*
X3578Y1856D01*
X3582Y1863D01*
X3586Y1869D01*
X3590Y1875D01*
X3594Y1880D01*
X3597Y1885D01*
X3600Y1889D01*
X3603Y1893D01*
X3605Y1896D01*
X3608Y1899D01*
X3610Y1901D01*
X3613Y1905D01*
X3614Y1907D01*
X3615Y1908D01*
X3621Y1914D01*
X3626Y1919D01*
X3632Y1923D01*
X3637Y1927D01*
X3642Y1931D01*
X3646Y1933D01*
X3649Y1935D01*
X3649Y1935D01*
X3650D01*
X3642Y1936D01*
X3635Y1938D01*
X3628Y1940D01*
X3622Y1942D01*
X3616Y1945D01*
X3611Y1947D01*
X3606Y1950D01*
X3602Y1952D01*
X3598Y1955D01*
X3595Y1957D01*
X3592Y1959D01*
X3590Y1961D01*
X3588Y1963D01*
X3587Y1964D01*
X3586Y1964D01*
X3586Y1965D01*
X3582Y1969D01*
X3579Y1974D01*
X3576Y1979D01*
X3574Y1984D01*
X3570Y1994D01*
X3567Y2004D01*
X3566Y2008D01*
X3566Y2012D01*
X3566Y2015D01*
X3565Y2019D01*
X3565Y2021D01*
Y2023D01*
Y2024D01*
Y2024D01*
X3565Y2035D01*
X3567Y2044D01*
X3569Y2053D01*
X3572Y2060D01*
X3574Y2066D01*
X3576Y2069D01*
X3577Y2071D01*
X3578Y2073D01*
X3579Y2074D01*
X3579Y2074D01*
Y2075D01*
X3585Y2082D01*
X3591Y2089D01*
X3597Y2094D01*
X3603Y2099D01*
X3608Y2102D01*
X3613Y2104D01*
X3614Y2105D01*
X3615Y2105D01*
X3616Y2106D01*
X3616D01*
X3621Y2107D01*
X3626Y2109D01*
X3632Y2110D01*
X3638Y2111D01*
X3650Y2112D01*
X3662Y2113D01*
X3668Y2114D01*
X3674Y2114D01*
X3679D01*
X3683Y2114D01*
X3827D01*
Y1794D01*
D02*
G37*
G36*
X5172D02*
X5107D01*
Y2114D01*
X5172D01*
Y1794D01*
D02*
G37*
G36*
X6882Y2060D02*
X6787D01*
Y1794D01*
X6722D01*
Y2060D01*
X6628D01*
Y2114D01*
X6882D01*
Y2060D01*
D02*
G37*
G36*
X6608D02*
X6513D01*
Y1794D01*
X6449D01*
Y2060D01*
X6354D01*
Y2114D01*
X6608D01*
Y2060D01*
D02*
G37*
G36*
X3504Y1794D02*
X3260D01*
Y1848D01*
X3439D01*
Y1935D01*
X3279D01*
Y1989D01*
X3439D01*
Y2060D01*
X3267D01*
Y2114D01*
X3504D01*
Y1794D01*
D02*
G37*
G36*
X5370Y2120D02*
X5382Y2119D01*
X5392Y2116D01*
X5397Y2116D01*
X5401Y2115D01*
X5405Y2114D01*
X5409Y2113D01*
X5412Y2111D01*
X5415Y2111D01*
X5417Y2110D01*
X5418Y2109D01*
X5419Y2109D01*
X5419D01*
X5428Y2104D01*
X5436Y2099D01*
X5443Y2094D01*
X5449Y2088D01*
X5453Y2084D01*
X5456Y2080D01*
X5458Y2077D01*
X5459Y2076D01*
Y2076D01*
X5463Y2068D01*
X5467Y2060D01*
X5469Y2052D01*
X5471Y2045D01*
X5472Y2039D01*
X5472Y2035D01*
X5472Y2033D01*
Y2032D01*
Y2031D01*
Y2031D01*
X5472Y2024D01*
X5471Y2017D01*
X5470Y2010D01*
X5468Y2004D01*
X5463Y1993D01*
X5460Y1988D01*
X5458Y1984D01*
X5455Y1980D01*
X5452Y1976D01*
X5450Y1973D01*
X5448Y1970D01*
X5446Y1969D01*
X5444Y1967D01*
X5444Y1966D01*
X5443Y1966D01*
X5439Y1962D01*
X5434Y1959D01*
X5429Y1956D01*
X5423Y1953D01*
X5411Y1947D01*
X5399Y1943D01*
X5393Y1941D01*
X5388Y1939D01*
X5383Y1938D01*
X5379Y1936D01*
X5375Y1935D01*
X5372Y1934D01*
X5371Y1934D01*
X5370D01*
X5363Y1932D01*
X5357Y1931D01*
X5351Y1929D01*
X5345Y1928D01*
X5340Y1926D01*
X5336Y1925D01*
X5332Y1924D01*
X5330Y1923D01*
X5327Y1922D01*
X5325Y1921D01*
X5322Y1921D01*
X5321Y1921D01*
X5319Y1920D01*
X5319Y1920D01*
X5313Y1918D01*
X5308Y1915D01*
X5304Y1913D01*
X5301Y1911D01*
X5298Y1909D01*
X5297Y1907D01*
X5296Y1906D01*
X5295Y1906D01*
X5293Y1903D01*
X5292Y1900D01*
X5290Y1896D01*
X5290Y1893D01*
X5289Y1891D01*
X5289Y1889D01*
Y1887D01*
Y1886D01*
X5290Y1880D01*
X5291Y1874D01*
X5294Y1869D01*
X5297Y1864D01*
X5300Y1861D01*
X5302Y1858D01*
X5304Y1856D01*
X5305Y1856D01*
X5312Y1851D01*
X5319Y1848D01*
X5327Y1846D01*
X5335Y1844D01*
X5341Y1844D01*
X5344Y1843D01*
X5347D01*
X5349Y1843D01*
X5352D01*
X5362Y1844D01*
X5372Y1845D01*
X5380Y1847D01*
X5386Y1850D01*
X5392Y1853D01*
X5395Y1855D01*
X5398Y1857D01*
X5399Y1857D01*
X5405Y1864D01*
X5410Y1871D01*
X5414Y1879D01*
X5417Y1886D01*
X5419Y1893D01*
X5420Y1896D01*
X5420Y1899D01*
X5421Y1901D01*
X5421Y1903D01*
X5422Y1904D01*
Y1904D01*
X5484Y1898D01*
X5483Y1888D01*
X5481Y1879D01*
X5479Y1870D01*
X5476Y1862D01*
X5473Y1855D01*
X5469Y1848D01*
X5466Y1842D01*
X5463Y1837D01*
X5459Y1832D01*
X5456Y1828D01*
X5454Y1824D01*
X5451Y1821D01*
X5449Y1819D01*
X5447Y1817D01*
X5446Y1816D01*
X5446Y1816D01*
X5440Y1811D01*
X5432Y1807D01*
X5425Y1803D01*
X5417Y1800D01*
X5410Y1797D01*
X5402Y1795D01*
X5387Y1791D01*
X5380Y1791D01*
X5373Y1790D01*
X5367Y1789D01*
X5362Y1789D01*
X5358Y1788D01*
X5352D01*
X5337Y1789D01*
X5324Y1790D01*
X5318Y1791D01*
X5312Y1792D01*
X5307Y1793D01*
X5302Y1794D01*
X5298Y1795D01*
X5294Y1796D01*
X5291Y1797D01*
X5288Y1798D01*
X5286Y1799D01*
X5284Y1799D01*
X5283Y1800D01*
X5283D01*
X5273Y1805D01*
X5264Y1810D01*
X5257Y1816D01*
X5251Y1822D01*
X5246Y1827D01*
X5242Y1831D01*
X5241Y1833D01*
X5240Y1834D01*
X5240Y1835D01*
Y1835D01*
X5235Y1844D01*
X5231Y1854D01*
X5228Y1862D01*
X5226Y1870D01*
X5225Y1877D01*
X5225Y1880D01*
Y1883D01*
X5224Y1884D01*
Y1886D01*
Y1887D01*
Y1887D01*
X5225Y1898D01*
X5226Y1908D01*
X5228Y1917D01*
X5230Y1924D01*
X5233Y1930D01*
X5234Y1932D01*
X5235Y1934D01*
X5236Y1936D01*
X5237Y1937D01*
X5237Y1938D01*
Y1938D01*
X5242Y1946D01*
X5248Y1952D01*
X5254Y1958D01*
X5260Y1962D01*
X5265Y1966D01*
X5269Y1969D01*
X5270Y1970D01*
X5272Y1971D01*
X5272Y1971D01*
X5272D01*
X5277Y1973D01*
X5282Y1976D01*
X5293Y1980D01*
X5305Y1984D01*
X5316Y1987D01*
X5321Y1989D01*
X5326Y1990D01*
X5330Y1991D01*
X5334Y1992D01*
X5337Y1993D01*
X5340Y1994D01*
X5342Y1994D01*
X5342D01*
X5350Y1996D01*
X5358Y1999D01*
X5365Y2001D01*
X5371Y2002D01*
X5377Y2004D01*
X5382Y2006D01*
X5386Y2008D01*
X5389Y2009D01*
X5392Y2011D01*
X5395Y2012D01*
X5397Y2013D01*
X5399Y2014D01*
X5400Y2015D01*
X5401Y2015D01*
X5401Y2016D01*
X5405Y2019D01*
X5407Y2022D01*
X5408Y2026D01*
X5410Y2029D01*
X5410Y2031D01*
X5411Y2034D01*
Y2035D01*
Y2035D01*
X5410Y2040D01*
X5409Y2044D01*
X5407Y2047D01*
X5406Y2050D01*
X5404Y2052D01*
X5402Y2054D01*
X5401Y2055D01*
X5401Y2055D01*
X5395Y2059D01*
X5387Y2062D01*
X5380Y2064D01*
X5373Y2066D01*
X5366Y2066D01*
X5364D01*
X5361Y2067D01*
X5357D01*
X5347Y2066D01*
X5339Y2065D01*
X5332Y2064D01*
X5326Y2061D01*
X5322Y2059D01*
X5318Y2058D01*
X5317Y2056D01*
X5316Y2056D01*
X5311Y2051D01*
X5307Y2046D01*
X5304Y2040D01*
X5302Y2034D01*
X5300Y2029D01*
X5299Y2025D01*
X5298Y2023D01*
X5298Y2022D01*
Y2021D01*
Y2021D01*
X5233Y2023D01*
X5234Y2031D01*
X5235Y2039D01*
X5237Y2046D01*
X5239Y2053D01*
X5242Y2059D01*
X5244Y2065D01*
X5247Y2070D01*
X5250Y2075D01*
X5253Y2079D01*
X5256Y2083D01*
X5258Y2086D01*
X5260Y2089D01*
X5262Y2091D01*
X5264Y2092D01*
X5265Y2093D01*
X5265Y2094D01*
X5271Y2098D01*
X5278Y2102D01*
X5285Y2106D01*
X5292Y2109D01*
X5300Y2111D01*
X5307Y2114D01*
X5322Y2117D01*
X5329Y2118D01*
X5335Y2119D01*
X5341Y2119D01*
X5346Y2120D01*
X5350Y2120D01*
X5356D01*
X5370Y2120D01*
D02*
G37*
G36*
X4351D02*
X4363Y2119D01*
X4373Y2116D01*
X4378Y2116D01*
X4382Y2115D01*
X4386Y2114D01*
X4390Y2113D01*
X4393Y2111D01*
X4396Y2111D01*
X4398Y2110D01*
X4399Y2109D01*
X4400Y2109D01*
X4400D01*
X4409Y2104D01*
X4417Y2099D01*
X4424Y2094D01*
X4430Y2088D01*
X4434Y2084D01*
X4437Y2080D01*
X4439Y2077D01*
X4440Y2076D01*
Y2076D01*
X4444Y2068D01*
X4448Y2060D01*
X4450Y2052D01*
X4452Y2045D01*
X4453Y2039D01*
X4453Y2035D01*
X4453Y2033D01*
Y2032D01*
Y2031D01*
Y2031D01*
X4453Y2024D01*
X4452Y2017D01*
X4451Y2010D01*
X4449Y2004D01*
X4444Y1993D01*
X4441Y1988D01*
X4439Y1984D01*
X4436Y1980D01*
X4433Y1976D01*
X4431Y1973D01*
X4429Y1970D01*
X4427Y1969D01*
X4425Y1967D01*
X4425Y1966D01*
X4424Y1966D01*
X4420Y1962D01*
X4415Y1959D01*
X4410Y1956D01*
X4404Y1953D01*
X4392Y1947D01*
X4380Y1943D01*
X4374Y1941D01*
X4369Y1939D01*
X4364Y1938D01*
X4360Y1936D01*
X4356Y1935D01*
X4353Y1934D01*
X4352Y1934D01*
X4351D01*
X4344Y1932D01*
X4338Y1931D01*
X4332Y1929D01*
X4326Y1928D01*
X4321Y1926D01*
X4317Y1925D01*
X4313Y1924D01*
X4311Y1923D01*
X4308Y1922D01*
X4306Y1921D01*
X4303Y1921D01*
X4302Y1921D01*
X4300Y1920D01*
X4300Y1920D01*
X4294Y1918D01*
X4289Y1915D01*
X4285Y1913D01*
X4282Y1911D01*
X4279Y1909D01*
X4278Y1907D01*
X4277Y1906D01*
X4276Y1906D01*
X4274Y1903D01*
X4273Y1900D01*
X4271Y1896D01*
X4271Y1893D01*
X4270Y1891D01*
X4270Y1889D01*
Y1887D01*
Y1886D01*
X4271Y1880D01*
X4272Y1874D01*
X4275Y1869D01*
X4278Y1864D01*
X4281Y1861D01*
X4283Y1858D01*
X4285Y1856D01*
X4286Y1856D01*
X4293Y1851D01*
X4300Y1848D01*
X4308Y1846D01*
X4316Y1844D01*
X4322Y1844D01*
X4325Y1843D01*
X4328D01*
X4330Y1843D01*
X4333D01*
X4343Y1844D01*
X4353Y1845D01*
X4361Y1847D01*
X4367Y1850D01*
X4373Y1853D01*
X4376Y1855D01*
X4379Y1857D01*
X4380Y1857D01*
X4386Y1864D01*
X4391Y1871D01*
X4395Y1879D01*
X4398Y1886D01*
X4400Y1893D01*
X4401Y1896D01*
X4401Y1899D01*
X4402Y1901D01*
X4402Y1903D01*
X4403Y1904D01*
Y1904D01*
X4465Y1898D01*
X4464Y1888D01*
X4462Y1879D01*
X4460Y1870D01*
X4457Y1862D01*
X4454Y1855D01*
X4450Y1848D01*
X4447Y1842D01*
X4444Y1837D01*
X4440Y1832D01*
X4437Y1828D01*
X4435Y1824D01*
X4432Y1821D01*
X4430Y1819D01*
X4428Y1817D01*
X4427Y1816D01*
X4427Y1816D01*
X4420Y1811D01*
X4413Y1807D01*
X4406Y1803D01*
X4398Y1800D01*
X4391Y1797D01*
X4383Y1795D01*
X4368Y1791D01*
X4361Y1791D01*
X4354Y1790D01*
X4348Y1789D01*
X4343Y1789D01*
X4339Y1788D01*
X4333D01*
X4318Y1789D01*
X4305Y1790D01*
X4299Y1791D01*
X4293Y1792D01*
X4288Y1793D01*
X4283Y1794D01*
X4279Y1795D01*
X4275Y1796D01*
X4272Y1797D01*
X4269Y1798D01*
X4267Y1799D01*
X4265Y1799D01*
X4264Y1800D01*
X4264D01*
X4254Y1805D01*
X4245Y1810D01*
X4238Y1816D01*
X4232Y1822D01*
X4227Y1827D01*
X4223Y1831D01*
X4222Y1833D01*
X4221Y1834D01*
X4221Y1835D01*
Y1835D01*
X4216Y1844D01*
X4212Y1854D01*
X4209Y1862D01*
X4207Y1870D01*
X4206Y1877D01*
X4206Y1880D01*
Y1883D01*
X4205Y1884D01*
Y1886D01*
Y1887D01*
Y1887D01*
X4206Y1898D01*
X4207Y1908D01*
X4209Y1917D01*
X4211Y1924D01*
X4214Y1930D01*
X4215Y1932D01*
X4216Y1934D01*
X4217Y1936D01*
X4218Y1937D01*
X4218Y1938D01*
Y1938D01*
X4223Y1946D01*
X4229Y1952D01*
X4235Y1958D01*
X4241Y1962D01*
X4246Y1966D01*
X4250Y1969D01*
X4251Y1970D01*
X4253Y1971D01*
X4253Y1971D01*
X4253D01*
X4258Y1973D01*
X4263Y1976D01*
X4274Y1980D01*
X4286Y1984D01*
X4297Y1987D01*
X4302Y1989D01*
X4307Y1990D01*
X4311Y1991D01*
X4315Y1992D01*
X4318Y1993D01*
X4321Y1994D01*
X4323Y1994D01*
X4323D01*
X4331Y1996D01*
X4339Y1999D01*
X4346Y2001D01*
X4352Y2002D01*
X4358Y2004D01*
X4363Y2006D01*
X4367Y2008D01*
X4370Y2009D01*
X4373Y2011D01*
X4376Y2012D01*
X4378Y2013D01*
X4380Y2014D01*
X4381Y2015D01*
X4382Y2015D01*
X4382Y2016D01*
X4386Y2019D01*
X4388Y2022D01*
X4389Y2026D01*
X4391Y2029D01*
X4391Y2031D01*
X4392Y2034D01*
Y2035D01*
Y2035D01*
X4391Y2040D01*
X4390Y2044D01*
X4388Y2047D01*
X4387Y2050D01*
X4385Y2052D01*
X4383Y2054D01*
X4382Y2055D01*
X4382Y2055D01*
X4376Y2059D01*
X4368Y2062D01*
X4361Y2064D01*
X4354Y2066D01*
X4347Y2066D01*
X4345D01*
X4342Y2067D01*
X4338D01*
X4328Y2066D01*
X4320Y2065D01*
X4313Y2064D01*
X4307Y2061D01*
X4303Y2059D01*
X4299Y2058D01*
X4298Y2056D01*
X4297Y2056D01*
X4292Y2051D01*
X4288Y2046D01*
X4285Y2040D01*
X4283Y2034D01*
X4281Y2029D01*
X4280Y2025D01*
X4279Y2023D01*
X4279Y2022D01*
Y2021D01*
Y2021D01*
X4214Y2023D01*
X4215Y2031D01*
X4216Y2039D01*
X4218Y2046D01*
X4220Y2053D01*
X4223Y2059D01*
X4225Y2065D01*
X4228Y2070D01*
X4231Y2075D01*
X4234Y2079D01*
X4237Y2083D01*
X4239Y2086D01*
X4241Y2089D01*
X4243Y2091D01*
X4245Y2092D01*
X4246Y2093D01*
X4246Y2094D01*
X4252Y2098D01*
X4259Y2102D01*
X4266Y2106D01*
X4273Y2109D01*
X4281Y2111D01*
X4288Y2114D01*
X4303Y2117D01*
X4310Y2118D01*
X4316Y2119D01*
X4322Y2119D01*
X4327Y2120D01*
X4331Y2120D01*
X4337D01*
X4351Y2120D01*
D02*
G37*
G36*
X6185D02*
X6199Y2118D01*
X6210Y2116D01*
X6216Y2115D01*
X6220Y2114D01*
X6225Y2113D01*
X6229Y2111D01*
X6232Y2110D01*
X6235Y2109D01*
X6237Y2109D01*
X6239Y2108D01*
X6240Y2107D01*
X6240D01*
X6249Y2103D01*
X6256Y2099D01*
X6263Y2094D01*
X6269Y2089D01*
X6274Y2085D01*
X6278Y2081D01*
X6281Y2079D01*
X6281Y2079D01*
X6281Y2078D01*
X6288Y2071D01*
X6294Y2063D01*
X6299Y2056D01*
X6303Y2049D01*
X6306Y2043D01*
X6309Y2039D01*
X6310Y2037D01*
X6311Y2036D01*
X6311Y2035D01*
Y2034D01*
X6316Y2021D01*
X6319Y2007D01*
X6322Y1994D01*
X6324Y1981D01*
X6324Y1975D01*
X6325Y1969D01*
X6325Y1964D01*
Y1960D01*
X6326Y1956D01*
Y1954D01*
Y1952D01*
Y1952D01*
X6325Y1938D01*
X6324Y1925D01*
X6322Y1912D01*
X6319Y1901D01*
X6316Y1890D01*
X6312Y1880D01*
X6309Y1871D01*
X6304Y1863D01*
X6301Y1856D01*
X6297Y1849D01*
X6293Y1844D01*
X6290Y1839D01*
X6287Y1836D01*
X6285Y1834D01*
X6284Y1832D01*
X6284Y1831D01*
X6275Y1824D01*
X6266Y1817D01*
X6257Y1811D01*
X6248Y1806D01*
X6239Y1802D01*
X6229Y1799D01*
X6220Y1796D01*
X6211Y1794D01*
X6203Y1792D01*
X6195Y1791D01*
X6188Y1789D01*
X6182Y1789D01*
X6177Y1789D01*
X6174Y1788D01*
X6170D01*
X6157Y1789D01*
X6145Y1790D01*
X6134Y1792D01*
X6123Y1795D01*
X6113Y1798D01*
X6104Y1802D01*
X6095Y1806D01*
X6088Y1810D01*
X6081Y1814D01*
X6075Y1818D01*
X6070Y1822D01*
X6065Y1825D01*
X6062Y1828D01*
X6060Y1830D01*
X6058Y1831D01*
X6058Y1832D01*
X6050Y1841D01*
X6044Y1850D01*
X6038Y1859D01*
X6033Y1869D01*
X6029Y1879D01*
X6026Y1890D01*
X6023Y1899D01*
X6021Y1909D01*
X6019Y1918D01*
X6017Y1926D01*
X6016Y1934D01*
X6016Y1941D01*
X6016Y1946D01*
X6015Y1950D01*
Y1953D01*
Y1953D01*
Y1954D01*
X6016Y1968D01*
X6017Y1981D01*
X6019Y1994D01*
X6022Y2006D01*
X6025Y2017D01*
X6029Y2027D01*
X6032Y2036D01*
X6036Y2044D01*
X6040Y2051D01*
X6044Y2058D01*
X6048Y2064D01*
X6051Y2068D01*
X6054Y2071D01*
X6056Y2074D01*
X6057Y2076D01*
X6058Y2076D01*
X6066Y2084D01*
X6075Y2091D01*
X6084Y2096D01*
X6093Y2101D01*
X6103Y2106D01*
X6112Y2109D01*
X6121Y2112D01*
X6130Y2115D01*
X6139Y2116D01*
X6146Y2118D01*
X6153Y2119D01*
X6159Y2119D01*
X6164Y2120D01*
X6168Y2120D01*
X6171D01*
X6185Y2120D01*
D02*
G37*
G36*
X3205Y1794D02*
X2962D01*
Y1848D01*
X3141D01*
Y1935D01*
X2980D01*
Y1989D01*
X3141D01*
Y2060D01*
X2968D01*
Y2114D01*
X3205D01*
Y1794D01*
D02*
G37*
G36*
X7080Y2120D02*
X7093Y2118D01*
X7105Y2116D01*
X7110Y2115D01*
X7115Y2114D01*
X7119Y2113D01*
X7123Y2111D01*
X7126Y2110D01*
X7129Y2109D01*
X7132Y2109D01*
X7133Y2108D01*
X7134Y2107D01*
X7135D01*
X7143Y2103D01*
X7150Y2099D01*
X7158Y2094D01*
X7164Y2089D01*
X7169Y2085D01*
X7173Y2081D01*
X7175Y2079D01*
X7175Y2079D01*
X7176Y2078D01*
X7183Y2071D01*
X7188Y2063D01*
X7193Y2056D01*
X7198Y2049D01*
X7201Y2043D01*
X7203Y2039D01*
X7204Y2037D01*
X7205Y2036D01*
X7205Y2035D01*
Y2034D01*
X7210Y2021D01*
X7214Y2007D01*
X7216Y1994D01*
X7218Y1981D01*
X7219Y1975D01*
X7219Y1969D01*
X7220Y1964D01*
Y1960D01*
X7220Y1956D01*
Y1954D01*
Y1952D01*
Y1952D01*
X7220Y1938D01*
X7218Y1925D01*
X7216Y1912D01*
X7213Y1901D01*
X7210Y1890D01*
X7207Y1880D01*
X7203Y1871D01*
X7199Y1863D01*
X7195Y1856D01*
X7191Y1849D01*
X7188Y1844D01*
X7185Y1839D01*
X7182Y1836D01*
X7180Y1834D01*
X7178Y1832D01*
X7178Y1831D01*
X7170Y1824D01*
X7161Y1817D01*
X7152Y1811D01*
X7143Y1806D01*
X7133Y1802D01*
X7124Y1799D01*
X7114Y1796D01*
X7105Y1794D01*
X7097Y1792D01*
X7089Y1791D01*
X7083Y1789D01*
X7076Y1789D01*
X7071Y1789D01*
X7068Y1788D01*
X7065D01*
X7052Y1789D01*
X7040Y1790D01*
X7028Y1792D01*
X7017Y1795D01*
X7007Y1798D01*
X6998Y1802D01*
X6990Y1806D01*
X6982Y1810D01*
X6975Y1814D01*
X6969Y1818D01*
X6964Y1822D01*
X6960Y1825D01*
X6956Y1828D01*
X6954Y1830D01*
X6953Y1831D01*
X6952Y1832D01*
X6945Y1841D01*
X6938Y1850D01*
X6933Y1859D01*
X6928Y1869D01*
X6923Y1879D01*
X6920Y1890D01*
X6917Y1899D01*
X6915Y1909D01*
X6913Y1918D01*
X6912Y1926D01*
X6911Y1934D01*
X6911Y1941D01*
X6910Y1946D01*
X6910Y1950D01*
Y1953D01*
Y1953D01*
Y1954D01*
X6910Y1968D01*
X6911Y1981D01*
X6913Y1994D01*
X6916Y2006D01*
X6920Y2017D01*
X6923Y2027D01*
X6927Y2036D01*
X6931Y2044D01*
X6935Y2051D01*
X6939Y2058D01*
X6942Y2064D01*
X6946Y2068D01*
X6948Y2071D01*
X6951Y2074D01*
X6952Y2076D01*
X6952Y2076D01*
X6961Y2084D01*
X6969Y2091D01*
X6978Y2096D01*
X6988Y2101D01*
X6997Y2106D01*
X7007Y2109D01*
X7016Y2112D01*
X7025Y2115D01*
X7033Y2116D01*
X7041Y2118D01*
X7048Y2119D01*
X7054Y2119D01*
X7059Y2120D01*
X7062Y2120D01*
X7065D01*
X7080Y2120D01*
D02*
G37*
G36*
X7530Y1794D02*
X7410D01*
X7400Y1794D01*
X7383D01*
X7376Y1795D01*
X7364D01*
X7359Y1795D01*
X7355D01*
X7352Y1796D01*
X7347D01*
X7345Y1796D01*
X7343D01*
X7334Y1798D01*
X7326Y1800D01*
X7318Y1802D01*
X7312Y1805D01*
X7307Y1807D01*
X7303Y1809D01*
X7301Y1811D01*
X7300Y1811D01*
X7294Y1816D01*
X7288Y1821D01*
X7283Y1827D01*
X7279Y1832D01*
X7276Y1837D01*
X7274Y1841D01*
X7273Y1843D01*
X7272Y1844D01*
Y1844D01*
X7269Y1852D01*
X7266Y1859D01*
X7264Y1866D01*
X7263Y1873D01*
X7262Y1879D01*
X7262Y1883D01*
Y1884D01*
Y1886D01*
Y1886D01*
Y1886D01*
X7263Y1896D01*
X7264Y1906D01*
X7267Y1914D01*
X7270Y1921D01*
X7273Y1927D01*
X7275Y1931D01*
X7276Y1933D01*
X7277Y1934D01*
X7278Y1934D01*
Y1935D01*
X7284Y1942D01*
X7291Y1948D01*
X7299Y1953D01*
X7306Y1957D01*
X7313Y1960D01*
X7315Y1961D01*
X7318Y1962D01*
X7320Y1963D01*
X7321Y1964D01*
X7322Y1964D01*
X7323D01*
X7315Y1968D01*
X7309Y1972D01*
X7303Y1977D01*
X7298Y1982D01*
X7295Y1986D01*
X7292Y1989D01*
X7290Y1991D01*
X7290Y1992D01*
X7285Y1999D01*
X7283Y2006D01*
X7280Y2014D01*
X7279Y2020D01*
X7278Y2026D01*
X7278Y2030D01*
Y2031D01*
Y2033D01*
Y2033D01*
Y2034D01*
X7278Y2041D01*
X7279Y2048D01*
X7281Y2054D01*
X7283Y2060D01*
X7284Y2065D01*
X7286Y2068D01*
X7287Y2070D01*
X7288Y2071D01*
X7291Y2077D01*
X7295Y2082D01*
X7300Y2087D01*
X7303Y2091D01*
X7307Y2094D01*
X7310Y2096D01*
X7311Y2097D01*
X7312Y2098D01*
X7318Y2101D01*
X7323Y2104D01*
X7329Y2106D01*
X7334Y2108D01*
X7339Y2109D01*
X7342Y2110D01*
X7345Y2111D01*
X7345D01*
X7349Y2111D01*
X7353Y2112D01*
X7362Y2113D01*
X7372Y2114D01*
X7381Y2114D01*
X7389Y2114D01*
X7530D01*
Y1794D01*
D02*
G37*
G36*
X4772D02*
X4707D01*
Y1891D01*
X4655Y1944D01*
X4566Y1794D01*
X4483D01*
X4610Y1990D01*
X4489Y2114D01*
X4576D01*
X4707Y1972D01*
Y2114D01*
X4772D01*
Y1794D01*
D02*
G37*
G36*
X2907D02*
X2847D01*
Y2004D01*
X2717Y1794D01*
X2652D01*
Y2114D01*
X2712D01*
Y1900D01*
X2845Y2114D01*
X2907D01*
Y1794D01*
D02*
G37*
G36*
X4981Y-3053D02*
X4966Y-3073D01*
X4946Y-3092D01*
X4938Y-3096D01*
X4926Y-3104D01*
X4918D01*
X4914Y-3108D01*
X4895Y-3112D01*
X4855D01*
X4851Y-3108D01*
X4836D01*
X4820Y-3100D01*
X4812Y-3092D01*
X4804D01*
X4792Y-3081D01*
X4792D01*
X4781Y-3069D01*
Y-3065D01*
X4769Y-3053D01*
Y-3049D01*
X4981D01*
Y-3053D01*
D02*
G37*
G36*
X4691D02*
X4676Y-3073D01*
X4656Y-3092D01*
X4648Y-3096D01*
X4636Y-3104D01*
X4628D01*
X4624Y-3108D01*
X4605Y-3112D01*
X4565D01*
X4561Y-3108D01*
X4546D01*
X4530Y-3100D01*
X4522Y-3092D01*
X4514D01*
X4502Y-3081D01*
X4502D01*
X4491Y-3069D01*
Y-3065D01*
X4479Y-3053D01*
Y-3049D01*
X4691D01*
Y-3053D01*
D02*
G37*
G36*
X5966Y1794D02*
X5906D01*
Y2046D01*
X5843Y1794D01*
X5780D01*
X5717Y2046D01*
X5717Y1794D01*
X5657D01*
Y2114D01*
X5754D01*
X5811Y1896D01*
X5869Y2114D01*
X5966D01*
Y1794D01*
D02*
G37*
G36*
X4024Y2120D02*
X4036Y2118D01*
X4047Y2116D01*
X4058Y2113D01*
X4067Y2110D01*
X4076Y2106D01*
X4084Y2102D01*
X4091Y2098D01*
X4098Y2094D01*
X4104Y2090D01*
X4109Y2086D01*
X4113Y2083D01*
X4116Y2080D01*
X4118Y2078D01*
X4120Y2076D01*
X4121Y2076D01*
X4128Y2067D01*
X4134Y2058D01*
X4140Y2048D01*
X4144Y2038D01*
X4148Y2027D01*
X4152Y2017D01*
X4154Y2007D01*
X4157Y1997D01*
X4158Y1988D01*
X4160Y1979D01*
X4161Y1971D01*
X4161Y1965D01*
X4161Y1959D01*
X4162Y1955D01*
Y1954D01*
Y1952D01*
Y1952D01*
Y1951D01*
X4161Y1938D01*
X4160Y1924D01*
X4158Y1912D01*
X4156Y1901D01*
X4152Y1890D01*
X4149Y1880D01*
X4145Y1871D01*
X4141Y1863D01*
X4138Y1856D01*
X4134Y1850D01*
X4131Y1844D01*
X4127Y1840D01*
X4125Y1836D01*
X4123Y1834D01*
X4121Y1832D01*
X4121Y1832D01*
X4113Y1824D01*
X4105Y1818D01*
X4096Y1812D01*
X4087Y1807D01*
X4078Y1803D01*
X4070Y1799D01*
X4061Y1796D01*
X4053Y1794D01*
X4045Y1792D01*
X4038Y1791D01*
X4032Y1790D01*
X4026Y1789D01*
X4022Y1789D01*
X4019Y1789D01*
X4016D01*
X4006Y1789D01*
X3998Y1790D01*
X3989Y1791D01*
X3981Y1793D01*
X3973Y1794D01*
X3966Y1796D01*
X3960Y1799D01*
X3954Y1801D01*
X3949Y1804D01*
X3944Y1806D01*
X3940Y1808D01*
X3937Y1810D01*
X3934Y1811D01*
X3933Y1813D01*
X3931Y1814D01*
X3931Y1814D01*
X3925Y1819D01*
X3919Y1825D01*
X3914Y1831D01*
X3909Y1837D01*
X3905Y1844D01*
X3901Y1850D01*
X3894Y1863D01*
X3891Y1869D01*
X3889Y1875D01*
X3887Y1880D01*
X3886Y1884D01*
X3884Y1888D01*
X3884Y1890D01*
X3883Y1892D01*
Y1893D01*
X3946Y1912D01*
X3947Y1906D01*
X3949Y1900D01*
X3951Y1894D01*
X3953Y1889D01*
X3956Y1884D01*
X3958Y1880D01*
X3960Y1876D01*
X3962Y1873D01*
X3966Y1867D01*
X3970Y1864D01*
X3972Y1861D01*
X3972Y1861D01*
X3973Y1860D01*
X3980Y1855D01*
X3987Y1851D01*
X3995Y1848D01*
X4001Y1846D01*
X4008Y1845D01*
X4013Y1844D01*
X4014Y1844D01*
X4017D01*
X4023Y1844D01*
X4029Y1845D01*
X4035Y1846D01*
X4041Y1848D01*
X4050Y1852D01*
X4058Y1857D01*
X4062Y1859D01*
X4065Y1861D01*
X4067Y1864D01*
X4070Y1866D01*
X4071Y1867D01*
X4073Y1868D01*
X4073Y1869D01*
X4073Y1869D01*
X4077Y1875D01*
X4081Y1881D01*
X4083Y1887D01*
X4086Y1894D01*
X4090Y1908D01*
X4092Y1922D01*
X4093Y1929D01*
X4094Y1936D01*
X4094Y1941D01*
X4095Y1946D01*
X4095Y1950D01*
Y1954D01*
Y1955D01*
Y1956D01*
X4095Y1966D01*
X4094Y1976D01*
X4093Y1985D01*
X4092Y1993D01*
X4090Y2001D01*
X4088Y2008D01*
X4086Y2014D01*
X4084Y2019D01*
X4082Y2024D01*
X4080Y2028D01*
X4078Y2031D01*
X4076Y2034D01*
X4075Y2036D01*
X4074Y2038D01*
X4073Y2039D01*
X4073Y2039D01*
X4069Y2044D01*
X4064Y2047D01*
X4060Y2051D01*
X4055Y2054D01*
X4050Y2056D01*
X4045Y2059D01*
X4036Y2061D01*
X4028Y2064D01*
X4024Y2064D01*
X4021Y2064D01*
X4019Y2065D01*
X4016D01*
X4006Y2064D01*
X3998Y2063D01*
X3990Y2060D01*
X3984Y2058D01*
X3979Y2055D01*
X3975Y2053D01*
X3973Y2051D01*
X3972Y2050D01*
X3966Y2044D01*
X3960Y2038D01*
X3956Y2031D01*
X3953Y2025D01*
X3951Y2020D01*
X3949Y2015D01*
X3948Y2014D01*
X3948Y2012D01*
X3948Y2011D01*
Y2011D01*
X3884Y2026D01*
X3886Y2034D01*
X3888Y2040D01*
X3891Y2046D01*
X3893Y2052D01*
X3896Y2057D01*
X3899Y2062D01*
X3901Y2066D01*
X3904Y2070D01*
X3907Y2074D01*
X3909Y2077D01*
X3911Y2079D01*
X3913Y2081D01*
X3914Y2083D01*
X3916Y2084D01*
X3916Y2085D01*
X3916Y2085D01*
X3923Y2091D01*
X3931Y2097D01*
X3939Y2101D01*
X3947Y2106D01*
X3955Y2109D01*
X3963Y2112D01*
X3971Y2114D01*
X3978Y2116D01*
X3985Y2117D01*
X3991Y2119D01*
X3997Y2119D01*
X4002Y2120D01*
X4006D01*
X4010Y2120D01*
X4012D01*
X4024Y2120D01*
D02*
G37*
%LPC*%
G36*
X7068Y2065D02*
X7065D01*
X7057Y2064D01*
X7050Y2064D01*
X7044Y2062D01*
X7038Y2061D01*
X7032Y2059D01*
X7027Y2056D01*
X7022Y2054D01*
X7018Y2051D01*
X7014Y2049D01*
X7010Y2046D01*
X7007Y2044D01*
X7005Y2041D01*
X7003Y2040D01*
X7002Y2039D01*
X7001Y2038D01*
X7001Y2037D01*
X6996Y2032D01*
X6993Y2026D01*
X6989Y2020D01*
X6986Y2013D01*
X6984Y2006D01*
X6982Y1999D01*
X6979Y1986D01*
X6978Y1980D01*
X6978Y1974D01*
X6977Y1969D01*
X6977Y1964D01*
X6976Y1961D01*
Y1958D01*
Y1956D01*
Y1955D01*
X6977Y1945D01*
X6978Y1936D01*
X6979Y1927D01*
X6980Y1919D01*
X6982Y1911D01*
X6984Y1904D01*
X6986Y1898D01*
X6989Y1892D01*
X6991Y1888D01*
X6993Y1883D01*
X6996Y1880D01*
X6998Y1877D01*
X6999Y1874D01*
X7000Y1873D01*
X7001Y1872D01*
X7001Y1871D01*
X7006Y1866D01*
X7011Y1862D01*
X7016Y1859D01*
X7022Y1855D01*
X7027Y1853D01*
X7032Y1850D01*
X7042Y1847D01*
X7047Y1846D01*
X7051Y1845D01*
X7055Y1844D01*
X7058Y1844D01*
X7061Y1844D01*
X7065D01*
X7072Y1844D01*
X7078Y1845D01*
X7085Y1846D01*
X7091Y1848D01*
X7097Y1850D01*
X7102Y1852D01*
X7107Y1855D01*
X7111Y1858D01*
X7115Y1860D01*
X7118Y1863D01*
X7121Y1865D01*
X7124Y1867D01*
X7126Y1869D01*
X7127Y1870D01*
X7128Y1871D01*
X7128Y1871D01*
X7133Y1877D01*
X7137Y1883D01*
X7140Y1890D01*
X7143Y1896D01*
X7145Y1903D01*
X7147Y1910D01*
X7150Y1924D01*
X7151Y1930D01*
X7152Y1936D01*
X7153Y1941D01*
X7153Y1946D01*
X7153Y1949D01*
Y1952D01*
Y1954D01*
Y1954D01*
X7153Y1964D01*
X7152Y1974D01*
X7151Y1983D01*
X7150Y1991D01*
X7148Y1998D01*
X7146Y2005D01*
X7143Y2011D01*
X7141Y2016D01*
X7139Y2021D01*
X7137Y2026D01*
X7135Y2029D01*
X7133Y2032D01*
X7131Y2034D01*
X7130Y2036D01*
X7130Y2037D01*
X7129Y2037D01*
X7125Y2042D01*
X7119Y2046D01*
X7114Y2050D01*
X7109Y2053D01*
X7103Y2056D01*
X7098Y2058D01*
X7088Y2061D01*
X7083Y2063D01*
X7078Y2064D01*
X7075Y2064D01*
X7071Y2064D01*
X7068Y2065D01*
D02*
G37*
G36*
X6174D02*
X6170D01*
X6163Y2064D01*
X6156Y2064D01*
X6149Y2062D01*
X6143Y2061D01*
X6138Y2059D01*
X6132Y2056D01*
X6127Y2054D01*
X6123Y2051D01*
X6119Y2049D01*
X6116Y2046D01*
X6113Y2044D01*
X6111Y2041D01*
X6109Y2040D01*
X6107Y2039D01*
X6106Y2038D01*
X6106Y2037D01*
X6102Y2032D01*
X6098Y2026D01*
X6095Y2020D01*
X6092Y2013D01*
X6090Y2006D01*
X6088Y1999D01*
X6085Y1986D01*
X6084Y1980D01*
X6083Y1974D01*
X6083Y1969D01*
X6082Y1964D01*
X6082Y1961D01*
Y1958D01*
Y1956D01*
Y1955D01*
X6082Y1945D01*
X6083Y1936D01*
X6084Y1927D01*
X6086Y1919D01*
X6088Y1911D01*
X6090Y1904D01*
X6092Y1898D01*
X6094Y1892D01*
X6097Y1888D01*
X6099Y1883D01*
X6101Y1880D01*
X6103Y1877D01*
X6104Y1874D01*
X6106Y1873D01*
X6106Y1872D01*
X6107Y1871D01*
X6111Y1866D01*
X6116Y1862D01*
X6122Y1859D01*
X6127Y1855D01*
X6132Y1853D01*
X6138Y1850D01*
X6148Y1847D01*
X6152Y1846D01*
X6156Y1845D01*
X6161Y1844D01*
X6164Y1844D01*
X6166Y1844D01*
X6170D01*
X6177Y1844D01*
X6184Y1845D01*
X6191Y1846D01*
X6196Y1848D01*
X6202Y1850D01*
X6207Y1852D01*
X6212Y1855D01*
X6216Y1858D01*
X6221Y1860D01*
X6224Y1863D01*
X6227Y1865D01*
X6229Y1867D01*
X6231Y1869D01*
X6233Y1870D01*
X6234Y1871D01*
X6234Y1871D01*
X6239Y1877D01*
X6242Y1883D01*
X6246Y1890D01*
X6249Y1896D01*
X6251Y1903D01*
X6253Y1910D01*
X6256Y1924D01*
X6257Y1930D01*
X6258Y1936D01*
X6258Y1941D01*
X6259Y1946D01*
X6259Y1949D01*
Y1952D01*
Y1954D01*
Y1954D01*
X6259Y1964D01*
X6258Y1974D01*
X6257Y1983D01*
X6255Y1991D01*
X6254Y1998D01*
X6251Y2005D01*
X6249Y2011D01*
X6247Y2016D01*
X6245Y2021D01*
X6242Y2026D01*
X6240Y2029D01*
X6239Y2032D01*
X6237Y2034D01*
X6236Y2036D01*
X6235Y2037D01*
X6235Y2037D01*
X6230Y2042D01*
X6225Y2046D01*
X6220Y2050D01*
X6214Y2053D01*
X6209Y2056D01*
X6204Y2058D01*
X6193Y2061D01*
X6189Y2063D01*
X6184Y2064D01*
X6180Y2064D01*
X6177Y2064D01*
X6174Y2065D01*
D02*
G37*
G36*
X7465Y2061D02*
X7400D01*
X7395Y2061D01*
X7384D01*
X7381Y2060D01*
X7375D01*
X7374Y2060D01*
X7373D01*
X7368Y2059D01*
X7363Y2057D01*
X7358Y2055D01*
X7355Y2054D01*
X7352Y2051D01*
X7350Y2050D01*
X7349Y2049D01*
X7349Y2049D01*
X7346Y2045D01*
X7344Y2041D01*
X7343Y2037D01*
X7341Y2033D01*
X7341Y2030D01*
X7340Y2027D01*
Y2025D01*
Y2024D01*
X7341Y2019D01*
X7342Y2014D01*
X7343Y2010D01*
X7345Y2006D01*
X7347Y2003D01*
X7348Y2001D01*
X7350Y2000D01*
X7350Y1999D01*
X7354Y1996D01*
X7358Y1994D01*
X7363Y1991D01*
X7367Y1990D01*
X7370Y1989D01*
X7373Y1988D01*
X7375Y1988D01*
X7378D01*
X7381Y1987D01*
X7395D01*
X7403Y1987D01*
X7465D01*
Y2061D01*
D02*
G37*
G36*
Y1934D02*
X7398D01*
X7392Y1933D01*
X7386Y1933D01*
X7380Y1932D01*
X7376D01*
X7372Y1932D01*
X7368Y1931D01*
X7365Y1931D01*
X7363Y1931D01*
X7360Y1930D01*
X7359Y1930D01*
X7357Y1929D01*
X7356Y1929D01*
X7351Y1927D01*
X7347Y1925D01*
X7343Y1922D01*
X7340Y1920D01*
X7338Y1918D01*
X7337Y1916D01*
X7336Y1914D01*
X7335Y1914D01*
X7333Y1910D01*
X7331Y1906D01*
X7330Y1902D01*
X7329Y1898D01*
X7329Y1895D01*
X7328Y1892D01*
Y1891D01*
Y1890D01*
X7329Y1884D01*
X7330Y1878D01*
X7331Y1874D01*
X7333Y1870D01*
X7335Y1866D01*
X7336Y1864D01*
X7337Y1863D01*
X7338Y1862D01*
X7341Y1859D01*
X7345Y1856D01*
X7349Y1854D01*
X7353Y1852D01*
X7356Y1851D01*
X7359Y1850D01*
X7360Y1850D01*
X7361D01*
X7363Y1849D01*
X7366D01*
X7369Y1849D01*
X7372D01*
X7379Y1849D01*
X7387D01*
X7394Y1848D01*
X7465D01*
Y1934D01*
D02*
G37*
G36*
X3762Y2060D02*
X3688D01*
X3684Y2060D01*
X3674D01*
X3671Y2059D01*
X3666D01*
X3665Y2059D01*
X3665D01*
X3659Y2058D01*
X3654Y2056D01*
X3650Y2054D01*
X3646Y2052D01*
X3644Y2050D01*
X3642Y2048D01*
X3641Y2047D01*
X3640Y2046D01*
X3637Y2042D01*
X3635Y2038D01*
X3634Y2034D01*
X3633Y2030D01*
X3632Y2026D01*
X3631Y2023D01*
Y2021D01*
Y2020D01*
X3632Y2015D01*
X3632Y2011D01*
X3634Y2006D01*
X3635Y2003D01*
X3636Y2000D01*
X3637Y1998D01*
X3638Y1996D01*
X3638Y1996D01*
X3641Y1993D01*
X3644Y1990D01*
X3647Y1988D01*
X3650Y1986D01*
X3652Y1984D01*
X3654Y1984D01*
X3656Y1983D01*
X3656D01*
X3659Y1982D01*
X3662Y1981D01*
X3666Y1981D01*
X3670Y1981D01*
X3680Y1980D01*
X3690Y1979D01*
X3699D01*
X3703Y1979D01*
X3762D01*
Y2060D01*
D02*
G37*
%LPD*%
D59*
X4393Y-2763D02*
Y-2715D01*
X4361Y-731D02*
Y-572D01*
X3893D02*
X4361D01*
X3893Y-731D02*
Y-572D01*
Y-731D02*
X4361D01*
X4691Y-3141D02*
X4696Y-3136D01*
X4707D01*
X4712Y-3141D01*
Y-3163D01*
X4707Y-3168D01*
X4696D01*
X4691Y-3163D01*
X4680Y-3168D02*
X4669D01*
X4675D01*
Y-3136D01*
X4680Y-3141D01*
X4653Y-3168D02*
X4643D01*
X4648D01*
Y-3136D01*
X4653Y-3141D01*
X4627D02*
X4621Y-3136D01*
X4611D01*
X4605Y-3141D01*
Y-3147D01*
X4611Y-3152D01*
X4605Y-3157D01*
Y-3163D01*
X4611Y-3168D01*
X4621D01*
X4627Y-3163D01*
Y-3157D01*
X4621Y-3152D01*
X4627Y-3147D01*
Y-3141D01*
X4621Y-3152D02*
X4611D01*
X4981Y-3139D02*
X4986Y-3134D01*
X4997D01*
X5002Y-3139D01*
Y-3161D01*
X4997Y-3166D01*
X4986D01*
X4981Y-3161D01*
X4970Y-3166D02*
X4959D01*
X4965D01*
Y-3134D01*
X4970Y-3139D01*
X4943Y-3166D02*
X4933D01*
X4938D01*
Y-3134D01*
X4943Y-3139D01*
X4917Y-3134D02*
X4895D01*
Y-3139D01*
X4917Y-3161D01*
Y-3166D01*
X3933Y-2811D02*
X3938Y-2816D01*
Y-2827D01*
X3933Y-2832D01*
X3911D01*
X3906Y-2827D01*
Y-2816D01*
X3911Y-2811D01*
X3906Y-2800D02*
Y-2789D01*
Y-2795D01*
X3938D01*
X3933Y-2800D01*
Y-2773D02*
X3938Y-2768D01*
Y-2757D01*
X3933Y-2752D01*
X3927D01*
X3922Y-2757D01*
X3917Y-2752D01*
X3911D01*
X3906Y-2757D01*
Y-2768D01*
X3911Y-2773D01*
X3917D01*
X3922Y-2768D01*
X3927Y-2773D01*
X3933D01*
X3922Y-2768D02*
Y-2757D01*
X4072Y-2804D02*
X4077Y-2809D01*
Y-2820D01*
X4072Y-2825D01*
X4050D01*
X4045Y-2820D01*
Y-2809D01*
X4050Y-2804D01*
X4045Y-2793D02*
Y-2782D01*
Y-2788D01*
X4077D01*
X4072Y-2793D01*
X4077Y-2766D02*
Y-2745D01*
X4072D01*
X4050Y-2766D01*
X4045D01*
X4480Y-2873D02*
X4485Y-2878D01*
Y-2889D01*
X4480Y-2894D01*
X4458D01*
X4453Y-2889D01*
Y-2878D01*
X4458Y-2873D01*
X4453Y-2862D02*
Y-2851D01*
Y-2857D01*
X4485D01*
X4480Y-2862D01*
X4485Y-2814D02*
X4480Y-2825D01*
X4469Y-2835D01*
X4458D01*
X4453Y-2830D01*
Y-2819D01*
X4458Y-2814D01*
X4464D01*
X4469Y-2819D01*
Y-2835D01*
X3669Y-2800D02*
X3674Y-2795D01*
X3685D01*
X3690Y-2800D01*
Y-2822D01*
X3685Y-2827D01*
X3674D01*
X3669Y-2822D01*
X3658Y-2827D02*
X3647D01*
X3653D01*
Y-2795D01*
X3658Y-2800D01*
X3615Y-2827D02*
Y-2795D01*
X3631Y-2811D01*
X3610D01*
X4121Y-2638D02*
Y-2606D01*
X4100Y-2638D01*
Y-2606D01*
X4089D02*
X4068D01*
X4078D01*
Y-2638D01*
X4036D02*
X4057D01*
X4036Y-2617D01*
Y-2611D01*
X4041Y-2606D01*
X4052D01*
X4057Y-2611D01*
X3860Y-2690D02*
Y-2658D01*
X3839Y-2690D01*
Y-2658D01*
X3828D02*
X3807D01*
X3817D01*
Y-2690D01*
X3796D02*
X3785D01*
X3791D01*
Y-2658D01*
X3796Y-2663D01*
X4592Y-1244D02*
X4597Y-1249D01*
Y-1260D01*
X4592Y-1265D01*
X4570D01*
X4565Y-1260D01*
Y-1249D01*
X4570Y-1244D01*
X4565Y-1233D02*
Y-1222D01*
Y-1228D01*
X4597D01*
X4592Y-1233D01*
Y-1206D02*
X4597Y-1201D01*
Y-1190D01*
X4592Y-1185D01*
X4570D01*
X4565Y-1190D01*
Y-1201D01*
X4570Y-1206D01*
X4592D01*
X4565Y-1158D02*
X4597D01*
X4581Y-1174D01*
Y-1153D01*
X4327Y-1244D02*
X4332Y-1249D01*
Y-1260D01*
X4327Y-1265D01*
X4305D01*
X4300Y-1260D01*
Y-1249D01*
X4305Y-1244D01*
X4300Y-1233D02*
Y-1222D01*
Y-1228D01*
X4332D01*
X4327Y-1233D01*
Y-1206D02*
X4332Y-1201D01*
Y-1190D01*
X4327Y-1185D01*
X4305D01*
X4300Y-1190D01*
Y-1201D01*
X4305Y-1206D01*
X4327D01*
Y-1174D02*
X4332Y-1169D01*
Y-1158D01*
X4327Y-1153D01*
X4321D01*
X4316Y-1158D01*
Y-1164D01*
Y-1158D01*
X4311Y-1153D01*
X4305D01*
X4300Y-1158D01*
Y-1169D01*
X4305Y-1174D01*
X4842Y-1234D02*
X4847Y-1239D01*
Y-1250D01*
X4842Y-1255D01*
X4820D01*
X4815Y-1250D01*
Y-1239D01*
X4820Y-1234D01*
X4815Y-1223D02*
Y-1212D01*
Y-1218D01*
X4847D01*
X4842Y-1223D01*
Y-1196D02*
X4847Y-1191D01*
Y-1180D01*
X4842Y-1175D01*
X4820D01*
X4815Y-1180D01*
Y-1191D01*
X4820Y-1196D01*
X4842D01*
X4815Y-1143D02*
Y-1164D01*
X4836Y-1143D01*
X4842D01*
X4847Y-1148D01*
Y-1159D01*
X4842Y-1164D01*
X3571Y-1236D02*
X3576Y-1241D01*
Y-1252D01*
X3571Y-1257D01*
X3549D01*
X3544Y-1252D01*
Y-1241D01*
X3549Y-1236D01*
X3544Y-1225D02*
Y-1214D01*
Y-1220D01*
X3576D01*
X3571Y-1225D01*
Y-1198D02*
X3576Y-1193D01*
Y-1182D01*
X3571Y-1177D01*
X3549D01*
X3544Y-1182D01*
Y-1193D01*
X3549Y-1198D01*
X3571D01*
X3544Y-1166D02*
Y-1156D01*
Y-1161D01*
X3576D01*
X3571Y-1166D01*
X3822Y-1224D02*
X3827Y-1229D01*
Y-1240D01*
X3822Y-1245D01*
X3800D01*
X3795Y-1240D01*
Y-1229D01*
X3800Y-1224D01*
X3795Y-1213D02*
Y-1202D01*
Y-1208D01*
X3827D01*
X3822Y-1213D01*
Y-1186D02*
X3827Y-1181D01*
Y-1170D01*
X3822Y-1165D01*
X3800D01*
X3795Y-1170D01*
Y-1181D01*
X3800Y-1186D01*
X3822D01*
Y-1154D02*
X3827Y-1149D01*
Y-1138D01*
X3822Y-1133D01*
X3800D01*
X3795Y-1138D01*
Y-1149D01*
X3800Y-1154D01*
X3822D01*
X4082Y-1229D02*
X4087Y-1234D01*
Y-1245D01*
X4082Y-1250D01*
X4060D01*
X4055Y-1245D01*
Y-1234D01*
X4060Y-1229D01*
Y-1218D02*
X4055Y-1213D01*
Y-1202D01*
X4060Y-1197D01*
X4082D01*
X4087Y-1202D01*
Y-1213D01*
X4082Y-1218D01*
X4076D01*
X4071Y-1213D01*
Y-1197D01*
X4060Y-1186D02*
X4055Y-1181D01*
Y-1170D01*
X4060Y-1165D01*
X4082D01*
X4087Y-1170D01*
Y-1181D01*
X4082Y-1186D01*
X4076D01*
X4071Y-1181D01*
Y-1165D01*
X3650Y-2640D02*
Y-2672D01*
X3634D01*
X3629Y-2667D01*
Y-2645D01*
X3634Y-2640D01*
X3650D01*
X3618Y-2672D02*
X3607D01*
X3613D01*
Y-2640D01*
X3618Y-2645D01*
X4336Y-469D02*
X4346D01*
X4341D01*
Y-496D01*
X4346Y-501D01*
X4352D01*
X4357Y-496D01*
X4325Y-501D02*
X4314D01*
X4320D01*
Y-469D01*
X4325Y-474D01*
X4192Y-2797D02*
X4197Y-2802D01*
Y-2813D01*
X4192Y-2818D01*
X4170D01*
X4165Y-2813D01*
Y-2802D01*
X4170Y-2797D01*
X4165Y-2786D02*
Y-2775D01*
Y-2781D01*
X4197D01*
X4192Y-2786D01*
Y-2759D02*
X4197Y-2754D01*
Y-2743D01*
X4192Y-2738D01*
X4186D01*
X4181Y-2743D01*
Y-2749D01*
Y-2743D01*
X4176Y-2738D01*
X4170D01*
X4165Y-2743D01*
Y-2754D01*
X4170Y-2759D01*
X3697Y-2432D02*
X3702Y-2427D01*
X3713D01*
X3718Y-2432D01*
Y-2454D01*
X3713Y-2459D01*
X3702D01*
X3697Y-2454D01*
X3670Y-2459D02*
Y-2427D01*
X3686Y-2443D01*
X3665D01*
X3654Y-2427D02*
X3633D01*
Y-2432D01*
X3654Y-2454D01*
Y-2459D01*
X4227Y-1774D02*
X4232Y-1769D01*
X4243D01*
X4248Y-1774D01*
Y-1796D01*
X4243Y-1801D01*
X4232D01*
X4227Y-1796D01*
X4195Y-1769D02*
X4205Y-1774D01*
X4216Y-1785D01*
Y-1796D01*
X4211Y-1801D01*
X4200D01*
X4195Y-1796D01*
Y-1790D01*
X4200Y-1785D01*
X4216D01*
X4184Y-1801D02*
X4173D01*
X4179D01*
Y-1769D01*
X4184Y-1774D01*
X4039Y-1978D02*
X4044Y-1973D01*
X4055D01*
X4060Y-1978D01*
Y-2000D01*
X4055Y-2005D01*
X4044D01*
X4039Y-2000D01*
X4007Y-1973D02*
X4017Y-1978D01*
X4028Y-1989D01*
Y-2000D01*
X4023Y-2005D01*
X4012D01*
X4007Y-2000D01*
Y-1994D01*
X4012Y-1989D01*
X4028D01*
X3980Y-2005D02*
Y-1973D01*
X3996Y-1989D01*
X3975D01*
X3918Y-2189D02*
X3923Y-2184D01*
X3934D01*
X3939Y-2189D01*
Y-2211D01*
X3934Y-2216D01*
X3923D01*
X3918Y-2211D01*
X3886Y-2184D02*
X3896Y-2189D01*
X3907Y-2200D01*
Y-2211D01*
X3902Y-2216D01*
X3891D01*
X3886Y-2211D01*
Y-2205D01*
X3891Y-2200D01*
X3907D01*
X3854Y-2184D02*
X3864Y-2189D01*
X3875Y-2200D01*
Y-2211D01*
X3870Y-2216D01*
X3859D01*
X3854Y-2211D01*
Y-2205D01*
X3859Y-2200D01*
X3875D01*
X4239Y-2142D02*
X4244Y-2137D01*
X4255D01*
X4260Y-2142D01*
Y-2164D01*
X4255Y-2169D01*
X4244D01*
X4239Y-2164D01*
X4207Y-2137D02*
X4217Y-2142D01*
X4228Y-2153D01*
Y-2164D01*
X4223Y-2169D01*
X4212D01*
X4207Y-2164D01*
Y-2158D01*
X4212Y-2153D01*
X4228D01*
X4175Y-2137D02*
X4196D01*
Y-2153D01*
X4185Y-2148D01*
X4180D01*
X4175Y-2153D01*
Y-2164D01*
X4180Y-2169D01*
X4191D01*
X4196Y-2164D01*
X4246Y-2288D02*
X4251Y-2283D01*
X4262D01*
X4267Y-2288D01*
Y-2310D01*
X4262Y-2315D01*
X4251D01*
X4246Y-2310D01*
X4214Y-2283D02*
X4224Y-2288D01*
X4235Y-2299D01*
Y-2310D01*
X4230Y-2315D01*
X4219D01*
X4214Y-2310D01*
Y-2304D01*
X4219Y-2299D01*
X4235D01*
X4203Y-2283D02*
X4182D01*
Y-2288D01*
X4203Y-2310D01*
Y-2315D01*
X3993Y-1770D02*
X3998Y-1765D01*
X4009D01*
X4014Y-1770D01*
Y-1792D01*
X4009Y-1797D01*
X3998D01*
X3993Y-1792D01*
X3961Y-1765D02*
X3971Y-1770D01*
X3982Y-1781D01*
Y-1792D01*
X3977Y-1797D01*
X3966D01*
X3961Y-1792D01*
Y-1786D01*
X3966Y-1781D01*
X3982D01*
X3950Y-1770D02*
X3945Y-1765D01*
X3934D01*
X3929Y-1770D01*
Y-1776D01*
X3934Y-1781D01*
X3939D01*
X3934D01*
X3929Y-1786D01*
Y-1792D01*
X3934Y-1797D01*
X3945D01*
X3950Y-1792D01*
X4414Y-2671D02*
X4419Y-2666D01*
X4430D01*
X4435Y-2671D01*
Y-2693D01*
X4430Y-2698D01*
X4419D01*
X4414Y-2693D01*
X4387Y-2698D02*
Y-2666D01*
X4403Y-2682D01*
X4382D01*
X4371Y-2671D02*
X4366Y-2666D01*
X4355D01*
X4350Y-2671D01*
Y-2677D01*
X4355Y-2682D01*
X4360D01*
X4355D01*
X4350Y-2687D01*
Y-2693D01*
X4355Y-2698D01*
X4366D01*
X4371Y-2693D01*
X4611Y-2664D02*
X4616Y-2659D01*
X4627D01*
X4632Y-2664D01*
Y-2686D01*
X4627Y-2691D01*
X4616D01*
X4611Y-2686D01*
X4579Y-2659D02*
X4600D01*
Y-2675D01*
X4589Y-2670D01*
X4584D01*
X4579Y-2675D01*
Y-2686D01*
X4584Y-2691D01*
X4595D01*
X4600Y-2686D01*
X4568Y-2664D02*
X4563Y-2659D01*
X4552D01*
X4547Y-2664D01*
Y-2670D01*
X4552Y-2675D01*
X4547Y-2680D01*
Y-2686D01*
X4552Y-2691D01*
X4563D01*
X4568Y-2686D01*
Y-2680D01*
X4563Y-2675D01*
X4568Y-2670D01*
Y-2664D01*
X4563Y-2675D02*
X4552D01*
X4298Y-2718D02*
X4266D01*
Y-2697D01*
Y-2686D02*
Y-2675D01*
Y-2681D01*
X4298D01*
X4293Y-2686D01*
X4114Y-3086D02*
Y-3113D01*
X4109Y-3118D01*
X4098D01*
X4093Y-3113D01*
Y-3086D01*
X4061D02*
X4071Y-3091D01*
X4082Y-3102D01*
Y-3113D01*
X4077Y-3118D01*
X4066D01*
X4061Y-3113D01*
Y-3107D01*
X4066Y-3102D01*
X4082D01*
X-267Y1429D02*
Y1402D01*
X-272Y1397D01*
X-283D01*
X-288Y1402D01*
Y1429D01*
X-299Y1397D02*
X-310D01*
X-304D01*
Y1429D01*
X-299Y1424D01*
X-347Y1397D02*
X-326D01*
X-347Y1418D01*
Y1424D01*
X-342Y1429D01*
X-331D01*
X-326Y1424D01*
X3792Y-3089D02*
Y-3116D01*
X3787Y-3121D01*
X3776D01*
X3771Y-3116D01*
Y-3089D01*
X3760Y-3116D02*
X3755Y-3121D01*
X3744D01*
X3739Y-3116D01*
Y-3094D01*
X3744Y-3089D01*
X3755D01*
X3760Y-3094D01*
Y-3100D01*
X3755Y-3105D01*
X3739D01*
D61*
X3629Y-2688D02*
X3668D01*
X3652Y-2743D02*
Y-2688D01*
X3668Y-2699D02*
Y-2688D01*
Y-2743D02*
Y-2699D01*
X3629Y-2743D02*
X3668D01*
X3645Y-2743D02*
Y-2688D01*
X3589D02*
X3645D01*
X3589Y-2743D02*
X3629D01*
X3605D02*
X3645D01*
X3589D02*
Y-2688D01*
D63*
X-325Y1024D02*
G03*
X-325Y1059I-18J18D01*
G01*
X-573Y1307D02*
G03*
X-608Y1307I-18J-18D01*
G01*
X-597Y1332D02*
G03*
X-633Y1332I-18J-18D01*
G01*
X-661Y724D02*
G03*
X-626Y724I18J18D01*
G01*
X-633Y695D02*
G03*
X-597Y695I18J18D01*
G01*
X-908Y1006D02*
G03*
X-908Y971I18J-18D01*
G01*
X-933Y1031D02*
G03*
X-933Y996I18J-18D01*
G01*
X-597Y1332D02*
X-307Y1042D01*
X-311Y982D02*
X-307Y1042D01*
X-597Y695D02*
X-311Y982D01*
X-626Y724D02*
X-325Y1024D01*
X-933Y1031D02*
X-633Y1332D01*
X-908Y1006D02*
X-608Y1307D01*
X-933Y996D02*
X-633Y695D01*
X-908Y971D02*
X-661Y724D01*
D98*
X2611Y631D02*
G03*
X2580Y662I-31J0D01*
G01*
X-556Y-8822D02*
X-526Y-8827D01*
X-577Y-8811D02*
X-556Y-8822D01*
X-599Y-8797D02*
X-577Y-8811D01*
X-626Y-8767D02*
X-599Y-8797D01*
X-651Y-8727D02*
X-626Y-8767D01*
X-677Y-8684D02*
X-651Y-8727D01*
X-719Y-8596D02*
X-677Y-8684D01*
X-769Y-8481D02*
X-719Y-8596D01*
X-799Y-8398D02*
X-769Y-8481D01*
X-825Y-8318D02*
X-799Y-8398D01*
X-844Y-8257D02*
X-825Y-8318D01*
X-864Y-8187D02*
X-844Y-8257D01*
X-885Y-8106D02*
X-864Y-8187D01*
X-900Y-8024D02*
X-885Y-8106D01*
X-909Y-7979D02*
X-900Y-8024D01*
X-926Y-7887D02*
X-909Y-7979D01*
X-938Y-7772D02*
X-926Y-7887D01*
X-943Y-7705D02*
X-938Y-7772D01*
X-947Y-7648D02*
X-943Y-7705D01*
X-949Y-7449D02*
X-947Y-7648D01*
X-949Y-7449D02*
X-943Y-7355D01*
X-932Y-7214D01*
X-912Y-7072D01*
X-887Y-6943D01*
X-852Y-6789D01*
X-804Y-6629D01*
X-719Y-6364D01*
X-633Y-6125D01*
X-519Y-5835D01*
X-458Y-5691D01*
X-398Y-5529D01*
X-297Y-5290D01*
X-212Y-5072D01*
X-143Y-4891D01*
X-88Y-4731D01*
X-51Y-4603D01*
X5Y-4358D01*
X47Y-4075D01*
X62Y-3906D01*
X64Y-3758D01*
Y-3648D01*
Y-3555D01*
X48Y-3365D02*
X64Y-3555D01*
X27Y-3240D02*
X48Y-3365D01*
X-14Y-3048D02*
X27Y-3240D01*
X-59Y-2859D02*
X-14Y-3048D01*
X-111Y-2709D02*
X-59Y-2859D01*
X-180Y-2523D02*
X-111Y-2709D01*
X-243Y-2368D02*
X-180Y-2523D01*
X-279Y-2282D02*
X-243Y-2368D01*
X-363Y-2084D02*
X-279Y-2282D01*
X-449Y-1883D02*
X-363Y-2084D01*
X-533Y-1693D02*
X-449Y-1883D01*
X-686Y-1345D02*
X-533Y-1693D01*
X-779Y-1156D02*
X-686Y-1345D01*
X-929Y-844D02*
X-779Y-1156D01*
X-1039Y-603D02*
X-929Y-844D01*
X-1141Y-345D02*
X-1039Y-603D01*
X-1199Y-194D02*
X-1141Y-345D01*
X-1350Y177D02*
X-1199Y-194D01*
X-1487Y579D02*
X-1350Y177D01*
X-1572Y881D02*
X-1487Y579D01*
X-1679Y1281D02*
X-1572Y881D01*
X-1708Y1446D02*
X-1679Y1281D01*
X-1727Y1619D02*
X-1708Y1446D01*
X-1727Y1619D02*
X-1724Y1752D01*
X-1712Y1872D01*
X-1688Y1978D01*
X-1652Y2070D01*
X-1619Y2124D01*
X-1587Y2168D01*
X-1519Y2229D01*
X-1466Y2262D01*
X-1422Y2288D01*
X-1359Y2307D01*
X-1299Y2321D01*
X-1245Y2326D01*
X-1185Y2329D01*
X-1115Y2321D01*
X-1077Y2311D01*
X-1012Y2289D01*
X-917Y2241D01*
X-814Y2179D01*
X-729Y2120D01*
X-650Y2062D01*
X-497Y1937D01*
X-376Y1840D01*
X-95Y1602D01*
X48Y1476D01*
X124Y1414D01*
X230Y1329D01*
X338Y1245D01*
X439Y1169D01*
X435Y1172D02*
X572Y1080D01*
X706Y996D01*
X848Y919D01*
X852Y916D02*
X979Y859D01*
X1116Y807D01*
X1192Y782D01*
X1290Y754D01*
X1408Y725D01*
X1523Y701D01*
X1722Y674D01*
X1868Y661D01*
X1986Y660D01*
X2176Y661D01*
X2528Y662D01*
X2576D01*
X2580D01*
X2611Y248D02*
Y631D01*
Y248D02*
X2613Y220D01*
X2619Y205D01*
X2633Y181D01*
X2646Y162D01*
X2658Y150D01*
X2675Y134D01*
X2696Y120D01*
X2715Y111D01*
X2741Y102D01*
X2773Y96D01*
X2806Y94D01*
X2837Y92D01*
X2859D01*
X4227D01*
X5310D01*
X5411D01*
X5457Y93D01*
X5471Y96D01*
X5490Y104D01*
X5509Y118D01*
X5523Y130D01*
X5540Y150D01*
X5554Y174D01*
X5564Y195D01*
X5570Y222D01*
X5573Y275D01*
X5574Y313D01*
X5577Y410D01*
X5578Y669D01*
X5634D01*
X5725Y666D01*
X5776Y661D01*
X5825Y655D01*
X5886Y644D01*
X5954Y627D01*
X6004Y612D01*
X6059Y593D01*
X6112Y572D01*
X6180Y541D01*
X6230Y514D01*
X6300Y474D01*
X6354Y436D01*
X6419Y386D01*
X6476Y330D01*
X6524Y286D01*
X6593Y211D01*
X6679Y96D01*
X6720Y32D01*
X6740Y-3D01*
X6786Y-95D01*
X6833Y-203D01*
X6861Y-278D01*
X6891Y-372D01*
X6923Y-463D01*
X6934Y-505D01*
X6943Y-565D01*
X6948Y-626D01*
X6953Y-695D01*
X6965Y-899D01*
X6983Y-1120D01*
X6989Y-1242D01*
X6992Y-1410D01*
X6991Y-1520D02*
X6992Y-1410D01*
X6984Y-1623D02*
X6991Y-1520D01*
X6960Y-1759D02*
X6984Y-1623D01*
X6914Y-1964D02*
X6960Y-1759D01*
X6880Y-2078D02*
X6914Y-1964D01*
X6836Y-2233D02*
X6880Y-2078D01*
X6796Y-2335D02*
X6836Y-2233D01*
X6746Y-2476D02*
X6796Y-2335D01*
X6700Y-2591D02*
X6746Y-2476D01*
X6651Y-2729D02*
X6700Y-2591D01*
X6603Y-2844D02*
X6651Y-2729D01*
X6531Y-3021D02*
X6603Y-2844D01*
X6486Y-3133D02*
X6531Y-3021D01*
X6396Y-3353D02*
X6486Y-3133D01*
X6327Y-3533D02*
X6396Y-3353D01*
X6255Y-3727D02*
X6327Y-3533D01*
X6187Y-3905D02*
X6255Y-3727D01*
X6140Y-4039D02*
X6187Y-3905D01*
X6106Y-4159D02*
X6140Y-4039D01*
X6085Y-4246D02*
X6106Y-4159D01*
X6047Y-4396D02*
X6085Y-4246D01*
X6022Y-4493D02*
X6047Y-4396D01*
X5992Y-4637D02*
X6022Y-4493D01*
X5950Y-4899D02*
X5992Y-4637D01*
X5939Y-4984D02*
X5950Y-4899D01*
X5912Y-5238D02*
X5939Y-4984D01*
X5902Y-5380D02*
X5912Y-5238D01*
X5892Y-5526D02*
X5902Y-5380D01*
X5888Y-5740D02*
X5892Y-5526D01*
X5888Y-5740D02*
X5891Y-5855D01*
Y-6023D02*
Y-5855D01*
Y-6023D02*
X5902Y-6167D01*
X5923Y-6387D01*
X5953Y-6624D01*
X5995Y-6853D01*
X6060Y-7144D01*
X6116Y-7367D01*
X6150Y-7507D01*
X6159Y-7555D01*
X6169Y-7609D01*
X6175Y-7650D01*
X6178Y-7694D01*
X6174Y-7745D02*
X6178Y-7694D01*
X6160Y-7797D02*
X6174Y-7745D01*
X6145Y-7828D02*
X6160Y-7797D01*
X6117Y-7873D02*
X6145Y-7828D01*
X6067Y-7928D02*
X6117Y-7873D01*
X6021Y-7963D02*
X6067Y-7928D01*
X5974Y-7993D02*
X6021Y-7963D01*
X5928Y-8007D02*
X5974Y-7993D01*
X5883Y-8019D02*
X5928Y-8007D01*
X5823Y-8026D02*
X5883Y-8019D01*
X5763Y-8025D02*
X5823Y-8026D01*
X5711Y-8016D02*
X5763Y-8025D01*
X5637Y-7991D02*
X5711Y-8016D01*
X5307Y-7857D02*
X5637Y-7991D01*
X5130Y-7784D02*
X5307Y-7857D01*
X5126Y-7713D02*
X5130Y-7784D01*
X5126Y-7713D02*
Y-7586D01*
X5130Y-6811D01*
X5121Y-6770D02*
X5130Y-6811D01*
X5109Y-6735D02*
X5121Y-6770D01*
X5089Y-6699D02*
X5109Y-6735D01*
X5060Y-6662D02*
X5089Y-6699D01*
X5012Y-6625D02*
X5060Y-6662D01*
X4966Y-6603D02*
X5012Y-6625D01*
X4920Y-6592D02*
X4966Y-6603D01*
X4879Y-6587D02*
X4920Y-6592D01*
X4818Y-6578D02*
X4879Y-6587D01*
X4768Y-6572D02*
X4818Y-6578D01*
X4669Y-6560D02*
X4768Y-6572D01*
X4567Y-6550D02*
X4669Y-6560D01*
X4482Y-6541D02*
X4567Y-6550D01*
X4381Y-6533D02*
X4482Y-6541D01*
X4268Y-6527D02*
X4381Y-6533D01*
X4088Y-6522D02*
X4268Y-6527D01*
X3982Y-6523D02*
X4088Y-6522D01*
X3777Y-6529D02*
X3982Y-6523D01*
X3581Y-6544D02*
X3777Y-6529D01*
X3478Y-6553D02*
X3581Y-6544D01*
X3388Y-6563D02*
X3478Y-6553D01*
X3258Y-6582D02*
X3388Y-6563D01*
X3182Y-6593D02*
X3258Y-6582D01*
X3083Y-6609D02*
X3182Y-6593D01*
X3030Y-6628D02*
X3083Y-6609D01*
X3007Y-6642D02*
X3030Y-6628D01*
X2981Y-6663D02*
X3007Y-6642D01*
X2957Y-6688D02*
X2981Y-6663D01*
X2938Y-6718D02*
X2957Y-6688D01*
X2919Y-6749D02*
X2938Y-6718D01*
X2907Y-6777D02*
X2919Y-6749D01*
X2828Y-6736D02*
X2907Y-6777D01*
X2702Y-6680D02*
X2828Y-6736D01*
X2614Y-6642D02*
X2702Y-6680D01*
X2456Y-6574D02*
X2614Y-6642D01*
X2345Y-6531D02*
X2456Y-6574D01*
X2227Y-6490D02*
X2345Y-6531D01*
X2139Y-6462D02*
X2227Y-6490D01*
X2027Y-6435D02*
X2139Y-6462D01*
X1938Y-6419D02*
X2027Y-6435D01*
X1841Y-6408D02*
X1938Y-6419D01*
X1741Y-6396D02*
X1841Y-6408D01*
X1685Y-6391D02*
X1741Y-6396D01*
X1548Y-6390D02*
X1685Y-6391D01*
X1454Y-6394D02*
X1548Y-6390D01*
X1395Y-6403D02*
X1454Y-6394D01*
X1280Y-6418D02*
X1395Y-6403D01*
X1211Y-6433D02*
X1280Y-6418D01*
X1144Y-6450D02*
X1211Y-6433D01*
X998Y-6492D02*
X1144Y-6450D01*
X920Y-6524D02*
X998Y-6492D01*
X784Y-6600D02*
X920Y-6524D01*
X726Y-6634D02*
X784Y-6600D01*
X646Y-6681D02*
X726Y-6634D01*
X534Y-6755D02*
X646Y-6681D01*
X455Y-6815D02*
X534Y-6755D01*
X378Y-6881D02*
X455Y-6815D01*
X309Y-6944D02*
X378Y-6881D01*
X230Y-7026D02*
X309Y-6944D01*
X180Y-7087D02*
X230Y-7026D01*
X117Y-7162D02*
X180Y-7087D01*
X25Y-7298D02*
X117Y-7162D01*
X-10Y-7348D02*
X25Y-7298D01*
X-37Y-7397D02*
X-10Y-7348D01*
X-83Y-7483D02*
X-37Y-7397D01*
X-112Y-7547D02*
X-83Y-7483D01*
X-177Y-7687D02*
X-112Y-7547D01*
X-212Y-7783D02*
X-177Y-7687D01*
X-236Y-7859D02*
X-212Y-7783D01*
X-282Y-7994D02*
X-236Y-7859D01*
X-323Y-8149D02*
X-282Y-7994D01*
X-358Y-8285D02*
X-323Y-8149D01*
X-389Y-8447D02*
X-358Y-8285D01*
X-407Y-8556D02*
X-389Y-8447D01*
X-421Y-8661D02*
X-407Y-8556D01*
X-427Y-8695D02*
X-421Y-8661D01*
X-433Y-8741D02*
X-427Y-8695D01*
X-442Y-8776D02*
X-433Y-8741D01*
X-450Y-8797D02*
X-442Y-8776D01*
X-462Y-8810D02*
X-450Y-8797D01*
X-474Y-8821D02*
X-462Y-8810D01*
X-488Y-8826D02*
X-474Y-8821D01*
X-503Y-8828D02*
X-488Y-8826D01*
X-526Y-8827D02*
X-503Y-8828D01*
D100*
X4078Y-2899D02*
G03*
X4078Y-2899I-5J0D01*
G01*
X3755Y-2903D02*
G03*
X3755Y-2903I-5J0D01*
G01*
D101*
X3523Y-1214D02*
Y-1206D01*
X3497Y-1214D02*
Y-1206D01*
X4110Y-1989D02*
Y-1981D01*
X4084Y-1989D02*
Y-1981D01*
X3891Y-2148D02*
X3899D01*
X3891Y-2173D02*
X3899D01*
X4158Y-2150D02*
Y-2142D01*
X4132Y-2150D02*
Y-2142D01*
X4163Y-2295D02*
Y-2287D01*
X4137Y-2295D02*
Y-2287D01*
X3671Y-2388D02*
X3679D01*
X3671Y-2413D02*
X3679D01*
X3706Y-2821D02*
Y-2805D01*
X3748Y-2821D02*
Y-2805D01*
X3948Y-2804D02*
Y-2788D01*
X3990Y-2804D02*
Y-2788D01*
X4092Y-2796D02*
Y-2780D01*
X4134Y-2796D02*
Y-2780D01*
X4335Y-3067D02*
Y-2956D01*
X4071D02*
X4335D01*
X4071Y-3067D02*
Y-2956D01*
Y-3067D02*
X4335D01*
X4391Y-2869D02*
Y-2853D01*
X4433Y-2869D02*
Y-2853D01*
X4602Y-2767D02*
X4602Y-2751D01*
X4560Y-2767D02*
X4560Y-2751D01*
X4012Y-3071D02*
Y-2960D01*
X3748D02*
X4012D01*
X3748Y-3071D02*
Y-2960D01*
Y-3071D02*
X4012D01*
X4238Y-2785D02*
Y-2777D01*
X4212Y-2785D02*
Y-2777D01*
X4798Y-1219D02*
Y-1211D01*
X4772Y-1219D02*
Y-1211D01*
X4548Y-1219D02*
Y-1211D01*
X4522Y-1219D02*
Y-1211D01*
X4288Y-1214D02*
Y-1206D01*
X4262Y-1214D02*
Y-1206D01*
X4038Y-1214D02*
Y-1206D01*
X4012Y-1214D02*
Y-1206D01*
X3778Y-1214D02*
Y-1206D01*
X3752Y-1214D02*
Y-1206D01*
X4225Y-1723D02*
Y-1715D01*
X4199Y-1723D02*
Y-1715D01*
X3985Y-1723D02*
Y-1715D01*
X3959Y-1723D02*
Y-1715D01*
X4306Y-2793D02*
Y-2778D01*
X4264Y-2793D02*
Y-2778D01*
D171*
X4998Y-2990D02*
G03*
X4998Y-2990I-123J0D01*
G01*
X4708D02*
G03*
X4708Y-2990I-123J0D01*
G01*
X4745Y-2919D02*
X4804Y-2860D01*
X4950D02*
X5005Y-2915D01*
X4950Y-2860D02*
X5005Y-2915D01*
Y-2919D02*
Y-2915D01*
X4745Y-2919D02*
X4804Y-2860D01*
X4745Y-2919D02*
X4745D01*
X4875Y-3120D02*
X5005D01*
Y-2915D01*
X4804Y-2860D02*
X4950D01*
X4745Y-3120D02*
Y-2919D01*
Y-3120D02*
X4875D01*
X4455Y-2919D02*
X4514Y-2860D01*
X4660D02*
X4715Y-2915D01*
X4660Y-2860D02*
X4715Y-2915D01*
Y-2919D02*
Y-2915D01*
X4455Y-2919D02*
X4514Y-2860D01*
X4455Y-2919D02*
X4455D01*
X4585Y-3120D02*
X4715D01*
Y-2915D01*
X4514Y-2860D02*
X4660D01*
X4455Y-3120D02*
Y-2919D01*
Y-3120D02*
X4585D01*
M02*
