%FSLAX23Y23*%
%MOIN*%
G70*
G01*
G75*
G04 Layer_Physical_Order=1*
G04 Layer_Color=255*
%ADD10C,0.450*%
%ADD11R,0.031X0.033*%
%ADD12R,0.217X0.059*%
%ADD13R,0.033X0.031*%
%ADD14R,0.043X0.105*%
%ADD15R,0.043X0.059*%
%ADD16R,0.105X0.043*%
G04:AMPARAMS|DCode=17|XSize=33mil|YSize=31mil|CornerRadius=0mil|HoleSize=0mil|Usage=FLASHONLY|Rotation=292.500|XOffset=0mil|YOffset=0mil|HoleType=Round|Shape=Rectangle|*
%AMROTATEDRECTD17*
4,1,4,-0.021,0.009,0.008,0.021,0.021,-0.009,-0.008,-0.021,-0.021,0.009,0.0*
%
%ADD17ROTATEDRECTD17*%

G04:AMPARAMS|DCode=18|XSize=33mil|YSize=31mil|CornerRadius=0mil|HoleSize=0mil|Usage=FLASHONLY|Rotation=337.500|XOffset=0mil|YOffset=0mil|HoleType=Round|Shape=Rectangle|*
%AMROTATEDRECTD18*
4,1,4,-0.021,-0.008,-0.009,0.021,0.021,0.008,0.009,-0.021,-0.021,-0.008,0.0*
%
%ADD18ROTATEDRECTD18*%

G04:AMPARAMS|DCode=19|XSize=33mil|YSize=31mil|CornerRadius=0mil|HoleSize=0mil|Usage=FLASHONLY|Rotation=22.500|XOffset=0mil|YOffset=0mil|HoleType=Round|Shape=Rectangle|*
%AMROTATEDRECTD19*
4,1,4,-0.009,-0.021,-0.021,0.008,0.009,0.021,0.021,-0.008,-0.009,-0.021,0.0*
%
%ADD19ROTATEDRECTD19*%

G04:AMPARAMS|DCode=20|XSize=33mil|YSize=31mil|CornerRadius=0mil|HoleSize=0mil|Usage=FLASHONLY|Rotation=67.500|XOffset=0mil|YOffset=0mil|HoleType=Round|Shape=Rectangle|*
%AMROTATEDRECTD20*
4,1,4,0.008,-0.021,-0.021,-0.009,-0.008,0.021,0.021,0.009,0.008,-0.021,0.0*
%
%ADD20ROTATEDRECTD20*%

G04:AMPARAMS|DCode=21|XSize=59mil|YSize=43mil|CornerRadius=0mil|HoleSize=0mil|Usage=FLASHONLY|Rotation=112.500|XOffset=0mil|YOffset=0mil|HoleType=Round|Shape=Rectangle|*
%AMROTATEDRECTD21*
4,1,4,0.031,-0.019,-0.009,-0.036,-0.031,0.019,0.009,0.036,0.031,-0.019,0.0*
%
%ADD21ROTATEDRECTD21*%

G04:AMPARAMS|DCode=22|XSize=59mil|YSize=43mil|CornerRadius=0mil|HoleSize=0mil|Usage=FLASHONLY|Rotation=157.500|XOffset=0mil|YOffset=0mil|HoleType=Round|Shape=Rectangle|*
%AMROTATEDRECTD22*
4,1,4,0.036,0.009,0.019,-0.031,-0.036,-0.009,-0.019,0.031,0.036,0.009,0.0*
%
%ADD22ROTATEDRECTD22*%

G04:AMPARAMS|DCode=23|XSize=59mil|YSize=43mil|CornerRadius=0mil|HoleSize=0mil|Usage=FLASHONLY|Rotation=202.500|XOffset=0mil|YOffset=0mil|HoleType=Round|Shape=Rectangle|*
%AMROTATEDRECTD23*
4,1,4,0.019,0.031,0.036,-0.009,-0.019,-0.031,-0.036,0.009,0.019,0.031,0.0*
%
%ADD23ROTATEDRECTD23*%

G04:AMPARAMS|DCode=24|XSize=59mil|YSize=43mil|CornerRadius=0mil|HoleSize=0mil|Usage=FLASHONLY|Rotation=247.500|XOffset=0mil|YOffset=0mil|HoleType=Round|Shape=Rectangle|*
%AMROTATEDRECTD24*
4,1,4,-0.009,0.036,0.031,0.019,0.009,-0.036,-0.031,-0.019,-0.009,0.036,0.0*
%
%ADD24ROTATEDRECTD24*%

G04:AMPARAMS|DCode=25|XSize=33mil|YSize=31mil|CornerRadius=0mil|HoleSize=0mil|Usage=FLASHONLY|Rotation=292.850|XOffset=0mil|YOffset=0mil|HoleType=Round|Shape=Rectangle|*
%AMROTATEDRECTD25*
4,1,4,-0.021,0.009,0.008,0.022,0.021,-0.009,-0.008,-0.022,-0.021,0.009,0.0*
%
%ADD25ROTATEDRECTD25*%

G04:AMPARAMS|DCode=26|XSize=33mil|YSize=31mil|CornerRadius=0mil|HoleSize=0mil|Usage=FLASHONLY|Rotation=315.000|XOffset=0mil|YOffset=0mil|HoleType=Round|Shape=Rectangle|*
%AMROTATEDRECTD26*
4,1,4,-0.023,0.001,-0.001,0.023,0.023,-0.001,0.001,-0.023,-0.023,0.001,0.0*
%
%ADD26ROTATEDRECTD26*%

G04:AMPARAMS|DCode=27|XSize=33mil|YSize=31mil|CornerRadius=0mil|HoleSize=0mil|Usage=FLASHONLY|Rotation=45.000|XOffset=0mil|YOffset=0mil|HoleType=Round|Shape=Rectangle|*
%AMROTATEDRECTD27*
4,1,4,-0.001,-0.023,-0.023,-0.001,0.001,0.023,0.023,0.001,-0.001,-0.023,0.0*
%
%ADD27ROTATEDRECTD27*%

G04:AMPARAMS|DCode=28|XSize=59mil|YSize=43mil|CornerRadius=0mil|HoleSize=0mil|Usage=FLASHONLY|Rotation=135.000|XOffset=0mil|YOffset=0mil|HoleType=Round|Shape=Rectangle|*
%AMROTATEDRECTD28*
4,1,4,0.036,-0.006,0.006,-0.036,-0.036,0.006,-0.006,0.036,0.036,-0.006,0.0*
%
%ADD28ROTATEDRECTD28*%

%ADD29R,0.059X0.043*%
G04:AMPARAMS|DCode=30|XSize=59mil|YSize=43mil|CornerRadius=0mil|HoleSize=0mil|Usage=FLASHONLY|Rotation=225.000|XOffset=0mil|YOffset=0mil|HoleType=Round|Shape=Rectangle|*
%AMROTATEDRECTD30*
4,1,4,0.006,0.036,0.036,0.006,-0.006,-0.036,-0.036,-0.006,0.006,0.036,0.0*
%
%ADD30ROTATEDRECTD30*%

G04:AMPARAMS|DCode=31|XSize=10mil|YSize=59mil|CornerRadius=0mil|HoleSize=0mil|Usage=FLASHONLY|Rotation=225.000|XOffset=0mil|YOffset=0mil|HoleType=Round|Shape=Rectangle|*
%AMROTATEDRECTD31*
4,1,4,-0.017,0.024,0.024,-0.017,0.017,-0.024,-0.024,0.017,-0.017,0.024,0.0*
%
%ADD31ROTATEDRECTD31*%

G04:AMPARAMS|DCode=32|XSize=10mil|YSize=59mil|CornerRadius=0mil|HoleSize=0mil|Usage=FLASHONLY|Rotation=315.000|XOffset=0mil|YOffset=0mil|HoleType=Round|Shape=Rectangle|*
%AMROTATEDRECTD32*
4,1,4,-0.024,-0.017,0.017,0.024,0.024,0.017,-0.017,-0.024,-0.024,-0.017,0.0*
%
%ADD32ROTATEDRECTD32*%

%ADD33R,0.026X0.014*%
%ADD34R,0.049X0.014*%
%ADD35R,0.033X0.024*%
%ADD36R,0.047X0.024*%
G04:AMPARAMS|DCode=37|XSize=24mil|YSize=33mil|CornerRadius=0mil|HoleSize=0mil|Usage=FLASHONLY|Rotation=225.000|XOffset=0mil|YOffset=0mil|HoleType=Round|Shape=Rectangle|*
%AMROTATEDRECTD37*
4,1,4,-0.003,0.020,0.020,-0.003,0.003,-0.020,-0.020,0.003,-0.003,0.020,0.0*
%
%ADD37ROTATEDRECTD37*%

%ADD38R,0.035X0.012*%
%ADD39C,0.039*%
%ADD40R,0.055X0.043*%
%ADD41R,0.024X0.033*%
%ADD42R,0.043X0.055*%
%ADD43R,0.024X0.081*%
%ADD44R,0.069X0.039*%
%ADD45R,0.035X0.049*%
%ADD46R,0.020X0.093*%
%ADD47R,0.079X0.098*%
%ADD48R,0.029X0.110*%
%ADD49R,0.024X0.079*%
%ADD50R,0.094X0.079*%
%ADD51R,0.110X0.050*%
%ADD52R,0.051X0.022*%
%ADD53R,0.022X0.051*%
%ADD54R,0.024X0.089*%
%ADD55R,0.033X0.010*%
%ADD56R,0.010X0.033*%
%ADD57R,0.240X0.240*%
%ADD58R,0.150X0.050*%
%ADD59C,0.008*%
%ADD60C,0.007*%
%ADD61C,0.010*%
%ADD62C,0.006*%
%ADD63C,0.012*%
%ADD64C,0.020*%
%ADD65C,0.059*%
%ADD66P,0.084X4X90.0*%
%ADD67C,0.100*%
%ADD68C,0.116*%
%ADD69C,0.030*%
%ADD70C,0.230*%
%ADD71C,0.018*%
%ADD72C,0.026*%
%ADD73C,0.050*%
%ADD74C,0.087*%
G36*
X6910Y1750D02*
X6845D01*
Y2070D01*
X6910D01*
Y1750D01*
D02*
G37*
G36*
X6026Y2070D02*
X6038D01*
X6052Y2069D01*
X6064Y2068D01*
X6070Y2068D01*
X6075Y2067D01*
X6080Y2066D01*
X6084Y2065D01*
X6084D01*
X6085Y2065D01*
X6086Y2065D01*
X6088Y2064D01*
X6090Y2063D01*
X6093Y2062D01*
X6099Y2059D01*
X6107Y2055D01*
X6114Y2049D01*
X6122Y2042D01*
X6129Y2034D01*
X6130Y2034D01*
X6130Y2033D01*
X6131Y2032D01*
X6132Y2030D01*
X6134Y2027D01*
X6135Y2025D01*
X6137Y2021D01*
X6139Y2017D01*
X6141Y2013D01*
X6142Y2008D01*
X6144Y2003D01*
X6145Y1997D01*
X6147Y1985D01*
X6148Y1979D01*
Y1972D01*
Y1971D01*
Y1970D01*
Y1969D01*
Y1967D01*
X6148Y1964D01*
Y1961D01*
X6147Y1955D01*
X6146Y1947D01*
X6144Y1938D01*
X6141Y1930D01*
X6137Y1922D01*
Y1922D01*
X6137Y1921D01*
X6135Y1919D01*
X6133Y1915D01*
X6130Y1911D01*
X6126Y1905D01*
X6121Y1900D01*
X6116Y1895D01*
X6110Y1890D01*
X6109Y1890D01*
X6107Y1889D01*
X6104Y1887D01*
X6099Y1884D01*
X6094Y1882D01*
X6089Y1879D01*
X6083Y1877D01*
X6077Y1875D01*
X6075D01*
X6074Y1875D01*
X6072Y1875D01*
X6070Y1874D01*
X6067D01*
X6064Y1874D01*
X6059Y1873D01*
X6055Y1873D01*
X6050Y1872D01*
X6045Y1872D01*
X6039Y1872D01*
X6032Y1871D01*
X6025D01*
X6018Y1871D01*
X5968D01*
Y1750D01*
X5903D01*
Y2070D01*
X6021D01*
X6026Y2070D01*
D02*
G37*
G36*
X7307Y1750D02*
X7243D01*
Y2070D01*
X7307D01*
Y1750D01*
D02*
G37*
G36*
X7203Y2016D02*
X7108D01*
Y1750D01*
X7044D01*
Y2016D01*
X6949D01*
Y2070D01*
X7203D01*
Y2016D01*
D02*
G37*
G36*
X5331Y2070D02*
X5336D01*
X5341Y2070D01*
X5347Y2069D01*
X5359Y2068D01*
X5372Y2067D01*
X5377Y2066D01*
X5383Y2065D01*
X5388Y2063D01*
X5393Y2062D01*
X5393D01*
X5394Y2061D01*
X5395Y2061D01*
X5397Y2060D01*
X5401Y2058D01*
X5406Y2055D01*
X5412Y2050D01*
X5419Y2045D01*
X5425Y2038D01*
X5430Y2031D01*
Y2030D01*
X5431Y2030D01*
X5432Y2029D01*
X5432Y2027D01*
X5434Y2025D01*
X5435Y2022D01*
X5437Y2016D01*
X5440Y2009D01*
X5442Y2000D01*
X5444Y1991D01*
X5445Y1980D01*
Y1980D01*
Y1979D01*
Y1977D01*
X5444Y1975D01*
X5444Y1971D01*
X5443Y1968D01*
X5443Y1964D01*
X5442Y1960D01*
X5440Y1950D01*
X5436Y1940D01*
X5433Y1935D01*
X5430Y1930D01*
X5427Y1925D01*
X5423Y1921D01*
X5423Y1920D01*
X5422Y1920D01*
X5421Y1919D01*
X5419Y1917D01*
X5417Y1915D01*
X5415Y1913D01*
X5411Y1911D01*
X5407Y1908D01*
X5403Y1906D01*
X5398Y1903D01*
X5393Y1901D01*
X5387Y1898D01*
X5381Y1896D01*
X5375Y1894D01*
X5367Y1892D01*
X5360Y1891D01*
X5360D01*
X5360Y1891D01*
X5363Y1889D01*
X5367Y1887D01*
X5372Y1883D01*
X5377Y1879D01*
X5383Y1875D01*
X5389Y1870D01*
X5394Y1864D01*
X5395Y1863D01*
X5397Y1861D01*
X5400Y1857D01*
X5402Y1855D01*
X5404Y1852D01*
X5407Y1849D01*
X5409Y1845D01*
X5412Y1841D01*
X5416Y1836D01*
X5419Y1831D01*
X5423Y1825D01*
X5427Y1819D01*
X5431Y1812D01*
X5470Y1750D01*
X5393D01*
X5346Y1820D01*
X5346Y1820D01*
X5345Y1821D01*
X5344Y1823D01*
X5342Y1825D01*
X5340Y1829D01*
X5338Y1832D01*
X5332Y1840D01*
X5327Y1847D01*
X5321Y1855D01*
X5319Y1859D01*
X5316Y1862D01*
X5314Y1865D01*
X5312Y1867D01*
X5312Y1867D01*
X5310Y1868D01*
X5309Y1870D01*
X5306Y1872D01*
X5303Y1874D01*
X5300Y1876D01*
X5296Y1878D01*
X5292Y1880D01*
X5292D01*
X5290Y1880D01*
X5288Y1881D01*
X5285Y1882D01*
X5280Y1882D01*
X5275Y1883D01*
X5268Y1884D01*
X5247D01*
Y1750D01*
X5182D01*
Y2070D01*
X5327D01*
X5331Y2070D01*
D02*
G37*
G36*
X4411D02*
X4423D01*
X4436Y2069D01*
X4448Y2068D01*
X4454Y2068D01*
X4460Y2067D01*
X4464Y2066D01*
X4468Y2065D01*
X4468D01*
X4469Y2065D01*
X4471Y2065D01*
X4473Y2064D01*
X4475Y2063D01*
X4478Y2062D01*
X4484Y2059D01*
X4491Y2055D01*
X4499Y2049D01*
X4506Y2042D01*
X4514Y2034D01*
X4514Y2034D01*
X4515Y2033D01*
X4516Y2032D01*
X4517Y2030D01*
X4518Y2027D01*
X4520Y2025D01*
X4521Y2021D01*
X4523Y2017D01*
X4525Y2013D01*
X4527Y2008D01*
X4528Y2003D01*
X4530Y1997D01*
X4532Y1985D01*
X4533Y1979D01*
Y1972D01*
Y1971D01*
Y1970D01*
Y1969D01*
Y1967D01*
X4532Y1964D01*
Y1961D01*
X4531Y1955D01*
X4530Y1947D01*
X4528Y1938D01*
X4526Y1930D01*
X4522Y1922D01*
Y1922D01*
X4521Y1921D01*
X4520Y1919D01*
X4518Y1915D01*
X4514Y1911D01*
X4510Y1905D01*
X4506Y1900D01*
X4500Y1895D01*
X4494Y1890D01*
X4493Y1890D01*
X4491Y1889D01*
X4488Y1887D01*
X4484Y1884D01*
X4479Y1882D01*
X4473Y1879D01*
X4467Y1877D01*
X4461Y1875D01*
X4460D01*
X4458Y1875D01*
X4457Y1875D01*
X4454Y1874D01*
X4451D01*
X4448Y1874D01*
X4444Y1873D01*
X4440Y1873D01*
X4435Y1872D01*
X4429Y1872D01*
X4423Y1872D01*
X4417Y1871D01*
X4410D01*
X4402Y1871D01*
X4352D01*
Y1750D01*
X4288D01*
Y2070D01*
X4405D01*
X4411Y2070D01*
D02*
G37*
G36*
X3317D02*
X3329D01*
X3342Y2069D01*
X3355Y2068D01*
X3361Y2068D01*
X3366Y2067D01*
X3371Y2066D01*
X3374Y2065D01*
X3375D01*
X3376Y2065D01*
X3377Y2065D01*
X3379Y2064D01*
X3381Y2063D01*
X3384Y2062D01*
X3390Y2059D01*
X3397Y2055D01*
X3405Y2049D01*
X3413Y2042D01*
X3420Y2034D01*
X3421Y2034D01*
X3421Y2033D01*
X3422Y2032D01*
X3423Y2030D01*
X3424Y2027D01*
X3426Y2025D01*
X3428Y2021D01*
X3430Y2017D01*
X3432Y2013D01*
X3433Y2008D01*
X3435Y2003D01*
X3436Y1997D01*
X3438Y1985D01*
X3439Y1979D01*
Y1972D01*
Y1971D01*
Y1970D01*
Y1969D01*
Y1967D01*
X3439Y1964D01*
Y1961D01*
X3438Y1955D01*
X3437Y1947D01*
X3434Y1938D01*
X3432Y1930D01*
X3428Y1922D01*
Y1922D01*
X3428Y1921D01*
X3426Y1919D01*
X3424Y1915D01*
X3421Y1911D01*
X3417Y1905D01*
X3412Y1900D01*
X3407Y1895D01*
X3401Y1890D01*
X3400Y1890D01*
X3398Y1889D01*
X3395Y1887D01*
X3390Y1884D01*
X3385Y1882D01*
X3380Y1879D01*
X3374Y1877D01*
X3367Y1875D01*
X3366D01*
X3365Y1875D01*
X3363Y1875D01*
X3361Y1874D01*
X3358D01*
X3354Y1874D01*
X3350Y1873D01*
X3346Y1873D01*
X3341Y1872D01*
X3336Y1872D01*
X3329Y1872D01*
X3323Y1871D01*
X3316D01*
X3309Y1871D01*
X3259D01*
Y1750D01*
X3194D01*
Y2070D01*
X3312D01*
X3317Y2070D01*
D02*
G37*
G36*
X5121Y2016D02*
X4949D01*
Y1945D01*
X5109D01*
Y1891D01*
X4949D01*
Y1804D01*
X5128D01*
Y1750D01*
X4884D01*
Y2070D01*
X5121D01*
Y2016D01*
D02*
G37*
G36*
X4709Y2070D02*
X4721D01*
X4734Y2069D01*
X4747Y2068D01*
X4753Y2068D01*
X4758Y2067D01*
X4763Y2066D01*
X4766Y2065D01*
X4767D01*
X4768Y2065D01*
X4769Y2065D01*
X4771Y2064D01*
X4773Y2063D01*
X4776Y2062D01*
X4782Y2059D01*
X4789Y2055D01*
X4797Y2049D01*
X4805Y2042D01*
X4812Y2034D01*
X4813Y2034D01*
X4813Y2033D01*
X4814Y2032D01*
X4815Y2030D01*
X4816Y2027D01*
X4818Y2025D01*
X4820Y2021D01*
X4822Y2017D01*
X4823Y2013D01*
X4825Y2008D01*
X4827Y2003D01*
X4828Y1997D01*
X4830Y1985D01*
X4831Y1979D01*
Y1972D01*
Y1971D01*
Y1970D01*
Y1969D01*
Y1967D01*
X4830Y1964D01*
Y1961D01*
X4830Y1955D01*
X4828Y1947D01*
X4826Y1938D01*
X4824Y1930D01*
X4820Y1922D01*
Y1922D01*
X4820Y1921D01*
X4818Y1919D01*
X4816Y1915D01*
X4813Y1911D01*
X4808Y1905D01*
X4804Y1900D01*
X4798Y1895D01*
X4793Y1890D01*
X4792Y1890D01*
X4790Y1889D01*
X4787Y1887D01*
X4782Y1884D01*
X4777Y1882D01*
X4772Y1879D01*
X4765Y1877D01*
X4759Y1875D01*
X4758D01*
X4757Y1875D01*
X4755Y1875D01*
X4753Y1874D01*
X4750D01*
X4746Y1874D01*
X4742Y1873D01*
X4738Y1873D01*
X4733Y1872D01*
X4728Y1872D01*
X4721Y1872D01*
X4715Y1871D01*
X4708D01*
X4700Y1871D01*
X4650D01*
Y1750D01*
X4586D01*
Y2070D01*
X4703D01*
X4709Y2070D01*
D02*
G37*
G36*
X7520Y1750D02*
X7450D01*
X7336Y2070D01*
X7406D01*
X7487Y1833D01*
X7566Y2070D01*
X7635D01*
X7520Y1750D01*
D02*
G37*
G36*
X10519D02*
X10458D01*
Y1981D01*
X10457Y1981D01*
X10456Y1980D01*
X10455Y1978D01*
X10452Y1976D01*
X10449Y1974D01*
X10445Y1970D01*
X10440Y1967D01*
X10435Y1964D01*
X10430Y1960D01*
X10424Y1956D01*
X10417Y1952D01*
X10410Y1949D01*
X10395Y1941D01*
X10379Y1935D01*
Y1991D01*
X10379D01*
X10380Y1991D01*
X10381Y1992D01*
X10383Y1992D01*
X10385Y1993D01*
X10388Y1995D01*
X10394Y1997D01*
X10402Y2001D01*
X10410Y2007D01*
X10420Y2013D01*
X10430Y2020D01*
X10431Y2021D01*
X10432Y2021D01*
X10433Y2022D01*
X10435Y2024D01*
X10437Y2026D01*
X10440Y2029D01*
X10446Y2035D01*
X10452Y2043D01*
X10459Y2052D01*
X10465Y2061D01*
X10467Y2067D01*
X10469Y2072D01*
X10519D01*
Y1750D01*
D02*
G37*
G36*
X9968Y1835D02*
X9847D01*
Y1897D01*
X9968D01*
Y1835D01*
D02*
G37*
G36*
X5743D02*
X5622D01*
Y1897D01*
X5743D01*
Y1835D01*
D02*
G37*
G36*
X9431Y2070D02*
X9436D01*
X9442Y2070D01*
X9448Y2069D01*
X9460Y2068D01*
X9472Y2067D01*
X9478Y2066D01*
X9484Y2065D01*
X9489Y2063D01*
X9493Y2062D01*
X9494D01*
X9495Y2061D01*
X9496Y2061D01*
X9497Y2060D01*
X9502Y2058D01*
X9507Y2055D01*
X9513Y2050D01*
X9519Y2045D01*
X9525Y2038D01*
X9531Y2031D01*
Y2030D01*
X9531Y2030D01*
X9532Y2029D01*
X9533Y2027D01*
X9534Y2025D01*
X9536Y2022D01*
X9538Y2016D01*
X9541Y2009D01*
X9543Y2000D01*
X9545Y1991D01*
X9545Y1980D01*
Y1980D01*
Y1979D01*
Y1977D01*
X9545Y1975D01*
X9544Y1971D01*
X9544Y1968D01*
X9543Y1964D01*
X9543Y1960D01*
X9540Y1950D01*
X9536Y1940D01*
X9534Y1935D01*
X9531Y1930D01*
X9528Y1925D01*
X9524Y1921D01*
X9523Y1920D01*
X9523Y1920D01*
X9522Y1919D01*
X9520Y1917D01*
X9518Y1915D01*
X9515Y1913D01*
X9512Y1911D01*
X9508Y1908D01*
X9504Y1906D01*
X9499Y1903D01*
X9494Y1901D01*
X9488Y1898D01*
X9482Y1896D01*
X9475Y1894D01*
X9468Y1892D01*
X9460Y1891D01*
X9461D01*
X9461Y1891D01*
X9464Y1889D01*
X9468Y1887D01*
X9473Y1883D01*
X9478Y1879D01*
X9484Y1875D01*
X9489Y1870D01*
X9495Y1864D01*
X9496Y1863D01*
X9497Y1861D01*
X9500Y1857D01*
X9502Y1855D01*
X9505Y1852D01*
X9507Y1849D01*
X9510Y1845D01*
X9513Y1841D01*
X9516Y1836D01*
X9520Y1831D01*
X9523Y1825D01*
X9528Y1819D01*
X9532Y1812D01*
X9571Y1750D01*
X9493D01*
X9447Y1820D01*
X9446Y1820D01*
X9446Y1821D01*
X9444Y1823D01*
X9443Y1825D01*
X9441Y1829D01*
X9438Y1832D01*
X9433Y1840D01*
X9428Y1847D01*
X9422Y1855D01*
X9419Y1859D01*
X9417Y1862D01*
X9415Y1865D01*
X9413Y1867D01*
X9412Y1867D01*
X9411Y1868D01*
X9409Y1870D01*
X9407Y1872D01*
X9404Y1874D01*
X9401Y1876D01*
X9397Y1878D01*
X9393Y1880D01*
X9393D01*
X9391Y1880D01*
X9389Y1881D01*
X9385Y1882D01*
X9381Y1882D01*
X9375Y1883D01*
X9368Y1884D01*
X9348D01*
Y1750D01*
X9283D01*
Y2070D01*
X9427D01*
X9431Y2070D01*
D02*
G37*
G36*
X8156Y1804D02*
X8317D01*
Y1750D01*
X8091D01*
Y2068D01*
X8156D01*
Y1804D01*
D02*
G37*
G36*
X7905Y2016D02*
X7732D01*
Y1945D01*
X7892D01*
Y1891D01*
X7732D01*
Y1804D01*
X7911D01*
Y1750D01*
X7668D01*
Y2070D01*
X7905D01*
Y2016D01*
D02*
G37*
G36*
X9222D02*
X9049D01*
Y1945D01*
X9210D01*
Y1891D01*
X9049D01*
Y1804D01*
X9228D01*
Y1750D01*
X8985D01*
Y2070D01*
X9222D01*
Y2016D01*
D02*
G37*
G36*
X8652Y1750D02*
X8582D01*
X8553Y1823D01*
X8425D01*
X8399Y1750D01*
X8330D01*
X8455Y2070D01*
X8524D01*
X8652Y1750D01*
D02*
G37*
G36*
X2804Y2016D02*
X2710D01*
Y1750D01*
X2645D01*
Y2016D01*
X2550D01*
Y2070D01*
X2804D01*
Y2016D01*
D02*
G37*
G36*
X3564Y-4592D02*
X3542D01*
Y-4562D01*
X3564D01*
Y-4592D01*
D02*
G37*
G36*
X3558Y-4694D02*
X3514D01*
Y-4735D01*
X3558D01*
Y-4765D01*
X3438D01*
Y-4735D01*
X3491D01*
Y-4694D01*
X3438D01*
Y-4663D01*
X3558D01*
Y-4694D01*
D02*
G37*
G36*
X3564Y-4542D02*
X3438D01*
Y-4513D01*
X3564D01*
Y-4542D01*
D02*
G37*
G36*
X3529Y-4592D02*
X3438D01*
Y-4563D01*
X3529D01*
Y-4592D01*
D02*
G37*
G36*
Y-4816D02*
X3480D01*
X3478Y-4816D01*
X3474D01*
X3472Y-4816D01*
X3471D01*
X3471Y-4817D01*
X3469Y-4817D01*
X3467Y-4817D01*
X3465Y-4818D01*
X3464D01*
X3464Y-4818D01*
X3464Y-4819D01*
X3463Y-4819D01*
X3462Y-4820D01*
X3460Y-4822D01*
Y-4822D01*
X3460Y-4823D01*
X3460Y-4823D01*
X3460Y-4824D01*
X3459Y-4825D01*
X3459Y-4826D01*
X3459Y-4828D01*
Y-4830D01*
Y-4830D01*
Y-4830D01*
Y-4831D01*
X3459Y-4832D01*
X3459Y-4833D01*
X3459Y-4834D01*
X3460Y-4837D01*
Y-4837D01*
X3461Y-4837D01*
X3461Y-4838D01*
X3461Y-4839D01*
X3463Y-4842D01*
X3464Y-4844D01*
X3529D01*
Y-4873D01*
X3438D01*
Y-4844D01*
X3448D01*
X3448Y-4844D01*
X3447Y-4843D01*
X3446Y-4842D01*
X3444Y-4840D01*
X3443Y-4838D01*
X3441Y-4835D01*
X3440Y-4833D01*
X3439Y-4831D01*
X3438Y-4830D01*
X3438Y-4830D01*
X3438Y-4828D01*
X3437Y-4827D01*
X3437Y-4825D01*
X3436Y-4822D01*
X3436Y-4819D01*
X3436Y-4816D01*
Y-4816D01*
Y-4816D01*
Y-4815D01*
X3436Y-4814D01*
X3436Y-4813D01*
X3436Y-4812D01*
X3437Y-4809D01*
X3438Y-4805D01*
X3439Y-4802D01*
X3440Y-4800D01*
X3441Y-4798D01*
X3442Y-4797D01*
X3444Y-4795D01*
X3444D01*
X3444Y-4795D01*
X3445Y-4795D01*
X3446Y-4794D01*
X3446Y-4794D01*
X3448Y-4793D01*
X3449Y-4792D01*
X3450Y-4792D01*
X3452Y-4791D01*
X3454Y-4790D01*
X3456Y-4789D01*
X3458Y-4789D01*
X3461Y-4788D01*
X3464Y-4788D01*
X3466Y-4788D01*
X3470Y-4788D01*
X3529D01*
Y-4816D01*
D02*
G37*
G36*
X3485Y-5098D02*
X3486D01*
X3488Y-5098D01*
X3490Y-5099D01*
X3493Y-5099D01*
X3496Y-5100D01*
X3498Y-5100D01*
X3501Y-5101D01*
X3504Y-5102D01*
X3507Y-5103D01*
X3510Y-5105D01*
X3513Y-5106D01*
X3516Y-5108D01*
X3518Y-5111D01*
X3518Y-5111D01*
X3519Y-5111D01*
X3519Y-5112D01*
X3520Y-5113D01*
X3521Y-5114D01*
X3522Y-5116D01*
X3524Y-5118D01*
X3525Y-5120D01*
X3526Y-5122D01*
X3527Y-5125D01*
X3528Y-5128D01*
X3530Y-5131D01*
X3530Y-5135D01*
X3531Y-5138D01*
X3531Y-5142D01*
X3532Y-5146D01*
Y-5147D01*
Y-5147D01*
Y-5148D01*
X3531Y-5150D01*
X3531Y-5152D01*
X3531Y-5154D01*
X3531Y-5156D01*
X3530Y-5158D01*
X3529Y-5163D01*
X3528Y-5166D01*
X3527Y-5168D01*
X3526Y-5171D01*
X3524Y-5173D01*
X3522Y-5176D01*
X3520Y-5178D01*
X3520Y-5178D01*
X3520Y-5178D01*
X3519Y-5179D01*
X3518Y-5179D01*
X3517Y-5180D01*
X3516Y-5181D01*
X3514Y-5182D01*
X3512Y-5183D01*
X3510Y-5184D01*
X3507Y-5185D01*
X3505Y-5186D01*
X3502Y-5187D01*
X3499Y-5187D01*
X3495Y-5188D01*
X3492Y-5188D01*
X3488Y-5188D01*
X3478D01*
Y-5126D01*
X3478D01*
X3477Y-5126D01*
X3476D01*
X3474Y-5127D01*
X3472Y-5127D01*
X3471Y-5127D01*
X3469Y-5128D01*
X3467Y-5129D01*
X3467Y-5129D01*
X3466Y-5129D01*
X3466Y-5130D01*
X3465Y-5130D01*
X3464Y-5131D01*
X3463Y-5132D01*
X3460Y-5135D01*
X3460Y-5135D01*
X3460Y-5136D01*
X3460Y-5136D01*
X3459Y-5137D01*
X3458Y-5138D01*
X3458Y-5140D01*
X3457Y-5142D01*
X3457Y-5143D01*
Y-5143D01*
X3457Y-5144D01*
X3456Y-5145D01*
X3456Y-5146D01*
X3456Y-5148D01*
X3456Y-5150D01*
X3456Y-5154D01*
Y-5154D01*
Y-5155D01*
Y-5156D01*
X3456Y-5157D01*
Y-5158D01*
X3456Y-5160D01*
X3457Y-5164D01*
Y-5164D01*
X3457Y-5164D01*
X3457Y-5165D01*
X3458Y-5167D01*
X3458Y-5168D01*
X3458Y-5169D01*
X3460Y-5172D01*
Y-5173D01*
X3460Y-5173D01*
X3460Y-5174D01*
X3461Y-5175D01*
X3462Y-5177D01*
X3463Y-5179D01*
X3463Y-5179D01*
X3463Y-5179D01*
X3464Y-5180D01*
X3464Y-5181D01*
X3465Y-5182D01*
X3466Y-5184D01*
Y-5187D01*
X3443D01*
Y-5187D01*
X3443Y-5186D01*
X3442Y-5185D01*
X3442Y-5185D01*
X3441Y-5183D01*
X3440Y-5180D01*
Y-5180D01*
X3440Y-5180D01*
X3440Y-5179D01*
X3440Y-5178D01*
X3439Y-5177D01*
X3439Y-5176D01*
X3438Y-5174D01*
X3438Y-5172D01*
Y-5172D01*
X3438Y-5172D01*
X3438Y-5171D01*
X3438Y-5169D01*
X3437Y-5168D01*
X3437Y-5166D01*
X3436Y-5163D01*
Y-5163D01*
X3436Y-5162D01*
X3436Y-5161D01*
Y-5160D01*
X3436Y-5158D01*
X3436Y-5156D01*
X3436Y-5153D01*
Y-5151D01*
Y-5151D01*
Y-5150D01*
X3436Y-5148D01*
Y-5147D01*
X3436Y-5145D01*
X3436Y-5142D01*
X3437Y-5139D01*
X3437Y-5136D01*
X3438Y-5133D01*
X3438Y-5130D01*
X3439Y-5127D01*
X3441Y-5124D01*
X3442Y-5120D01*
X3444Y-5117D01*
X3445Y-5114D01*
X3448Y-5112D01*
X3448Y-5111D01*
X3448Y-5111D01*
X3449Y-5110D01*
X3450Y-5109D01*
X3451Y-5108D01*
X3453Y-5107D01*
X3455Y-5106D01*
X3457Y-5105D01*
X3459Y-5103D01*
X3462Y-5102D01*
X3464Y-5101D01*
X3468Y-5100D01*
X3471Y-5099D01*
X3475Y-5099D01*
X3479Y-5098D01*
X3483Y-5098D01*
X3484D01*
X3485Y-5098D01*
D02*
G37*
G36*
X3467Y-5199D02*
Y-5199D01*
X3466Y-5200D01*
X3466Y-5201D01*
X3464Y-5202D01*
X3463Y-5204D01*
Y-5204D01*
X3463Y-5204D01*
X3462Y-5205D01*
X3462Y-5206D01*
X3461Y-5207D01*
X3461Y-5208D01*
X3460Y-5209D01*
X3459Y-5211D01*
Y-5211D01*
X3459Y-5212D01*
X3459Y-5212D01*
X3458Y-5214D01*
X3458Y-5215D01*
X3457Y-5216D01*
X3456Y-5220D01*
Y-5220D01*
X3456Y-5221D01*
X3456Y-5222D01*
X3455Y-5223D01*
X3455Y-5225D01*
X3455Y-5227D01*
X3455Y-5229D01*
Y-5231D01*
Y-5231D01*
Y-5232D01*
X3455Y-5233D01*
Y-5234D01*
X3455Y-5236D01*
X3456Y-5238D01*
X3456Y-5240D01*
X3457Y-5241D01*
X3457Y-5241D01*
X3457Y-5242D01*
X3457Y-5243D01*
X3458Y-5244D01*
X3459Y-5244D01*
X3460Y-5245D01*
X3461Y-5246D01*
X3463Y-5246D01*
X3463D01*
X3464Y-5246D01*
X3464Y-5246D01*
X3466Y-5245D01*
X3467Y-5244D01*
X3467Y-5244D01*
Y-5244D01*
X3468Y-5243D01*
X3468Y-5243D01*
X3468Y-5242D01*
X3469Y-5241D01*
X3469Y-5239D01*
X3470Y-5238D01*
X3470Y-5236D01*
Y-5235D01*
X3471Y-5235D01*
X3471Y-5234D01*
X3471Y-5233D01*
X3471Y-5232D01*
X3471Y-5231D01*
X3472Y-5229D01*
X3472Y-5227D01*
Y-5227D01*
X3472Y-5226D01*
X3472Y-5226D01*
X3473Y-5224D01*
X3473Y-5223D01*
X3473Y-5222D01*
X3474Y-5219D01*
Y-5218D01*
X3474Y-5218D01*
X3475Y-5218D01*
X3475Y-5217D01*
X3476Y-5215D01*
X3477Y-5213D01*
X3478Y-5210D01*
X3480Y-5207D01*
X3482Y-5205D01*
X3484Y-5203D01*
X3484Y-5202D01*
X3485Y-5202D01*
X3487Y-5201D01*
X3489Y-5200D01*
X3491Y-5199D01*
X3494Y-5198D01*
X3497Y-5197D01*
X3501Y-5197D01*
X3502D01*
X3503Y-5197D01*
X3505Y-5198D01*
X3507Y-5198D01*
X3509Y-5198D01*
X3511Y-5199D01*
X3513Y-5200D01*
X3513Y-5200D01*
X3513Y-5200D01*
X3515Y-5201D01*
X3516Y-5202D01*
X3517Y-5203D01*
X3519Y-5205D01*
X3521Y-5206D01*
X3522Y-5208D01*
X3522Y-5209D01*
X3523Y-5209D01*
X3524Y-5210D01*
X3525Y-5212D01*
X3526Y-5214D01*
X3527Y-5216D01*
X3528Y-5219D01*
X3529Y-5222D01*
Y-5222D01*
X3529Y-5222D01*
Y-5222D01*
X3529Y-5223D01*
X3530Y-5225D01*
X3530Y-5227D01*
X3530Y-5229D01*
X3531Y-5233D01*
X3531Y-5236D01*
X3531Y-5240D01*
Y-5240D01*
Y-5240D01*
Y-5241D01*
Y-5241D01*
X3531Y-5243D01*
Y-5245D01*
X3531Y-5248D01*
X3530Y-5251D01*
X3530Y-5254D01*
X3529Y-5257D01*
Y-5257D01*
Y-5257D01*
X3529Y-5258D01*
X3529Y-5260D01*
X3528Y-5262D01*
X3527Y-5264D01*
X3527Y-5266D01*
X3526Y-5268D01*
X3525Y-5271D01*
X3502D01*
Y-5268D01*
X3502Y-5268D01*
X3503Y-5267D01*
X3503Y-5266D01*
X3505Y-5264D01*
X3505Y-5263D01*
X3505Y-5263D01*
X3505Y-5262D01*
X3506Y-5262D01*
X3507Y-5260D01*
X3508Y-5257D01*
Y-5257D01*
X3508Y-5257D01*
X3509Y-5256D01*
X3509Y-5255D01*
X3509Y-5254D01*
X3510Y-5253D01*
X3511Y-5249D01*
Y-5249D01*
X3511Y-5249D01*
X3511Y-5248D01*
X3511Y-5247D01*
X3512Y-5245D01*
X3512Y-5244D01*
X3512Y-5241D01*
Y-5240D01*
Y-5240D01*
X3512Y-5238D01*
X3512Y-5237D01*
X3511Y-5235D01*
X3511Y-5234D01*
X3510Y-5232D01*
X3510Y-5230D01*
X3510Y-5230D01*
X3509Y-5230D01*
X3509Y-5229D01*
X3508Y-5228D01*
X3507Y-5227D01*
X3506Y-5227D01*
X3505Y-5226D01*
X3504Y-5226D01*
X3504D01*
X3503Y-5226D01*
X3502Y-5226D01*
X3501Y-5227D01*
X3500Y-5227D01*
X3499Y-5228D01*
Y-5228D01*
X3499Y-5229D01*
X3499Y-5229D01*
X3498Y-5230D01*
X3498Y-5231D01*
X3497Y-5233D01*
X3496Y-5235D01*
X3496Y-5237D01*
Y-5237D01*
X3496Y-5238D01*
X3495Y-5239D01*
X3495Y-5240D01*
X3495Y-5241D01*
X3495Y-5242D01*
X3494Y-5246D01*
Y-5246D01*
X3494Y-5246D01*
X3494Y-5247D01*
X3493Y-5248D01*
X3493Y-5250D01*
X3493Y-5251D01*
X3492Y-5255D01*
Y-5255D01*
X3492Y-5255D01*
X3491Y-5256D01*
X3491Y-5256D01*
X3490Y-5258D01*
X3489Y-5260D01*
X3488Y-5263D01*
X3486Y-5265D01*
X3485Y-5267D01*
X3482Y-5269D01*
X3482Y-5270D01*
X3481Y-5270D01*
X3480Y-5271D01*
X3478Y-5272D01*
X3476Y-5273D01*
X3473Y-5274D01*
X3470Y-5274D01*
X3466Y-5275D01*
X3465D01*
X3464Y-5274D01*
X3462Y-5274D01*
X3461Y-5274D01*
X3458Y-5273D01*
X3456Y-5273D01*
X3454Y-5272D01*
X3454Y-5271D01*
X3453Y-5271D01*
X3452Y-5270D01*
X3451Y-5269D01*
X3449Y-5268D01*
X3447Y-5267D01*
X3446Y-5265D01*
X3444Y-5263D01*
X3444Y-5263D01*
X3444Y-5262D01*
X3443Y-5261D01*
X3442Y-5259D01*
X3441Y-5257D01*
X3440Y-5255D01*
X3439Y-5252D01*
X3438Y-5249D01*
Y-5249D01*
X3438Y-5249D01*
Y-5248D01*
X3438Y-5248D01*
X3437Y-5246D01*
X3437Y-5244D01*
X3436Y-5241D01*
X3436Y-5238D01*
X3436Y-5235D01*
X3436Y-5231D01*
Y-5230D01*
Y-5230D01*
Y-5230D01*
Y-5229D01*
Y-5228D01*
X3436Y-5227D01*
X3436Y-5224D01*
X3436Y-5222D01*
X3437Y-5218D01*
X3437Y-5215D01*
X3438Y-5212D01*
Y-5211D01*
X3438Y-5211D01*
Y-5211D01*
X3438Y-5210D01*
X3438Y-5208D01*
X3439Y-5206D01*
X3440Y-5204D01*
X3441Y-5202D01*
X3442Y-5199D01*
X3443Y-5197D01*
X3467D01*
Y-5199D01*
D02*
G37*
G36*
X3488Y-4888D02*
X3489D01*
X3492Y-4888D01*
X3495Y-4888D01*
X3498Y-4889D01*
X3501Y-4889D01*
X3505Y-4890D01*
X3505D01*
X3505Y-4891D01*
X3506Y-4891D01*
X3506Y-4891D01*
X3508Y-4892D01*
X3510Y-4893D01*
X3512Y-4894D01*
X3514Y-4895D01*
X3517Y-4897D01*
X3519Y-4899D01*
X3520Y-4899D01*
X3520Y-4900D01*
X3521Y-4901D01*
X3522Y-4902D01*
X3524Y-4904D01*
X3525Y-4906D01*
X3527Y-4908D01*
X3528Y-4911D01*
Y-4911D01*
X3528Y-4911D01*
X3529Y-4912D01*
X3529Y-4914D01*
X3530Y-4915D01*
X3530Y-4918D01*
X3531Y-4920D01*
X3531Y-4923D01*
X3531Y-4926D01*
Y-4926D01*
Y-4927D01*
X3531Y-4928D01*
Y-4930D01*
X3531Y-4932D01*
X3530Y-4934D01*
X3530Y-4936D01*
X3529Y-4938D01*
Y-4939D01*
X3529Y-4939D01*
X3529Y-4940D01*
X3528Y-4942D01*
X3527Y-4943D01*
X3527Y-4945D01*
X3525Y-4948D01*
X3529Y-4949D01*
Y-4977D01*
X3446D01*
X3445Y-4977D01*
X3444D01*
X3441Y-4976D01*
X3438Y-4976D01*
X3434Y-4975D01*
X3431Y-4974D01*
X3427Y-4973D01*
X3427D01*
X3427Y-4973D01*
X3426Y-4973D01*
X3426Y-4973D01*
X3424Y-4972D01*
X3422Y-4971D01*
X3420Y-4969D01*
X3418Y-4967D01*
X3415Y-4966D01*
X3413Y-4963D01*
X3413Y-4963D01*
X3413Y-4962D01*
X3412Y-4961D01*
X3411Y-4959D01*
X3409Y-4957D01*
X3408Y-4954D01*
X3407Y-4951D01*
X3406Y-4948D01*
Y-4948D01*
X3406Y-4948D01*
Y-4947D01*
X3406Y-4947D01*
X3406Y-4946D01*
X3406Y-4945D01*
X3405Y-4942D01*
X3405Y-4939D01*
X3404Y-4936D01*
X3404Y-4932D01*
X3404Y-4928D01*
Y-4928D01*
Y-4928D01*
Y-4928D01*
Y-4927D01*
Y-4925D01*
X3404Y-4923D01*
X3404Y-4920D01*
X3404Y-4917D01*
X3405Y-4911D01*
Y-4911D01*
Y-4911D01*
X3405Y-4910D01*
X3406Y-4908D01*
X3406Y-4906D01*
X3406Y-4904D01*
X3407Y-4902D01*
X3407Y-4899D01*
X3408Y-4897D01*
X3431D01*
Y-4900D01*
Y-4900D01*
X3430Y-4901D01*
X3430Y-4901D01*
X3430Y-4902D01*
X3430Y-4903D01*
X3429Y-4905D01*
Y-4905D01*
X3429Y-4906D01*
X3429Y-4906D01*
X3428Y-4907D01*
X3428Y-4909D01*
X3427Y-4911D01*
Y-4911D01*
X3427Y-4912D01*
X3427Y-4912D01*
X3427Y-4913D01*
X3426Y-4915D01*
X3426Y-4918D01*
Y-4918D01*
X3426Y-4918D01*
Y-4919D01*
X3425Y-4920D01*
X3425Y-4922D01*
X3425Y-4925D01*
Y-4925D01*
Y-4925D01*
Y-4926D01*
X3425Y-4927D01*
Y-4929D01*
X3425Y-4931D01*
X3426Y-4933D01*
X3426Y-4935D01*
X3427Y-4937D01*
Y-4937D01*
X3427Y-4938D01*
X3427Y-4939D01*
X3428Y-4940D01*
X3429Y-4942D01*
X3430Y-4943D01*
X3431Y-4944D01*
X3431Y-4944D01*
X3431Y-4944D01*
X3432Y-4945D01*
X3433Y-4945D01*
X3434Y-4946D01*
X3435Y-4947D01*
X3437Y-4948D01*
X3438D01*
X3438Y-4948D01*
X3439Y-4948D01*
X3440Y-4948D01*
X3441Y-4948D01*
X3443Y-4948D01*
X3445Y-4949D01*
X3448D01*
X3448Y-4948D01*
X3448Y-4948D01*
X3447Y-4947D01*
X3446Y-4945D01*
X3445Y-4944D01*
X3444Y-4942D01*
X3443Y-4940D01*
X3442Y-4937D01*
X3442Y-4937D01*
X3441Y-4936D01*
X3441Y-4935D01*
X3441Y-4933D01*
X3440Y-4931D01*
X3440Y-4929D01*
X3439Y-4927D01*
X3439Y-4924D01*
Y-4924D01*
Y-4924D01*
Y-4923D01*
X3439Y-4922D01*
X3440Y-4920D01*
X3440Y-4918D01*
X3440Y-4916D01*
X3441Y-4914D01*
X3442Y-4910D01*
X3443Y-4908D01*
X3444Y-4905D01*
X3445Y-4903D01*
X3447Y-4901D01*
X3449Y-4899D01*
X3451Y-4897D01*
X3451Y-4897D01*
X3451Y-4897D01*
X3452Y-4896D01*
X3453Y-4896D01*
X3454Y-4895D01*
X3455Y-4894D01*
X3457Y-4893D01*
X3459Y-4892D01*
X3462Y-4891D01*
X3464Y-4891D01*
X3467Y-4890D01*
X3470Y-4889D01*
X3474Y-4888D01*
X3477Y-4888D01*
X3481Y-4888D01*
X3486Y-4888D01*
X3487D01*
X3488Y-4888D01*
D02*
G37*
G36*
X3564Y-5027D02*
X3519D01*
X3519Y-5027D01*
X3520Y-5028D01*
X3521Y-5029D01*
X3522Y-5031D01*
X3524Y-5033D01*
X3525Y-5035D01*
X3527Y-5038D01*
X3528Y-5040D01*
X3528Y-5041D01*
X3528Y-5041D01*
X3529Y-5043D01*
X3530Y-5045D01*
X3530Y-5047D01*
X3531Y-5049D01*
X3531Y-5052D01*
X3531Y-5055D01*
Y-5055D01*
Y-5056D01*
Y-5056D01*
X3531Y-5057D01*
X3531Y-5058D01*
X3531Y-5060D01*
X3530Y-5063D01*
X3529Y-5066D01*
X3528Y-5070D01*
X3527Y-5071D01*
X3525Y-5073D01*
X3524Y-5075D01*
X3522Y-5076D01*
X3522Y-5076D01*
X3522Y-5076D01*
X3521Y-5077D01*
X3521Y-5077D01*
X3520Y-5078D01*
X3519Y-5078D01*
X3517Y-5079D01*
X3516Y-5080D01*
X3514Y-5081D01*
X3512Y-5081D01*
X3510Y-5082D01*
X3508Y-5082D01*
X3505Y-5083D01*
X3503Y-5083D01*
X3500Y-5084D01*
X3438D01*
Y-5055D01*
X3486D01*
X3488Y-5055D01*
X3490D01*
X3494Y-5055D01*
X3494D01*
X3495Y-5055D01*
X3496D01*
X3497Y-5054D01*
X3500Y-5054D01*
X3501Y-5053D01*
X3502Y-5053D01*
X3502D01*
X3502Y-5053D01*
X3503Y-5052D01*
X3504Y-5052D01*
X3505Y-5051D01*
X3506Y-5049D01*
Y-5049D01*
X3506Y-5048D01*
X3507Y-5048D01*
X3507Y-5047D01*
X3507Y-5046D01*
X3508Y-5045D01*
X3508Y-5043D01*
Y-5041D01*
Y-5041D01*
Y-5041D01*
Y-5040D01*
X3508Y-5039D01*
X3507Y-5038D01*
X3507Y-5037D01*
X3506Y-5034D01*
Y-5034D01*
X3506Y-5034D01*
X3506Y-5033D01*
X3505Y-5032D01*
X3505Y-5031D01*
X3504Y-5030D01*
X3502Y-5027D01*
X3438D01*
Y-4999D01*
X3564D01*
Y-5027D01*
D02*
G37*
G36*
X2994Y2076D02*
X2999Y2075D01*
X3005Y2075D01*
X3012Y2074D01*
X3020Y2072D01*
X3028Y2071D01*
X3037Y2068D01*
X3046Y2065D01*
X3056Y2062D01*
X3065Y2057D01*
X3074Y2052D01*
X3084Y2047D01*
X3092Y2040D01*
X3101Y2032D01*
X3101Y2032D01*
X3102Y2030D01*
X3104Y2027D01*
X3107Y2024D01*
X3111Y2020D01*
X3114Y2014D01*
X3118Y2007D01*
X3122Y2000D01*
X3126Y1992D01*
X3130Y1983D01*
X3133Y1973D01*
X3137Y1962D01*
X3139Y1950D01*
X3142Y1937D01*
X3143Y1924D01*
X3143Y1910D01*
Y1909D01*
Y1909D01*
Y1906D01*
X3143Y1902D01*
X3142Y1897D01*
X3142Y1890D01*
X3141Y1882D01*
X3139Y1874D01*
X3138Y1865D01*
X3136Y1855D01*
X3133Y1846D01*
X3129Y1835D01*
X3125Y1825D01*
X3120Y1815D01*
X3115Y1806D01*
X3108Y1797D01*
X3101Y1788D01*
X3100Y1787D01*
X3099Y1786D01*
X3097Y1784D01*
X3093Y1781D01*
X3089Y1778D01*
X3084Y1774D01*
X3078Y1770D01*
X3071Y1766D01*
X3063Y1762D01*
X3055Y1758D01*
X3046Y1754D01*
X3036Y1751D01*
X3025Y1748D01*
X3013Y1746D01*
X3001Y1745D01*
X2988Y1744D01*
X2985D01*
X2982Y1745D01*
X2977Y1745D01*
X2970Y1745D01*
X2964Y1747D01*
X2956Y1748D01*
X2947Y1750D01*
X2939Y1752D01*
X2929Y1755D01*
X2920Y1758D01*
X2910Y1762D01*
X2901Y1767D01*
X2892Y1773D01*
X2883Y1780D01*
X2875Y1787D01*
X2875Y1788D01*
X2873Y1790D01*
X2871Y1792D01*
X2868Y1795D01*
X2865Y1800D01*
X2862Y1805D01*
X2858Y1812D01*
X2854Y1819D01*
X2850Y1827D01*
X2846Y1836D01*
X2842Y1846D01*
X2840Y1857D01*
X2837Y1868D01*
X2835Y1881D01*
X2833Y1894D01*
X2833Y1908D01*
Y1908D01*
Y1910D01*
Y1912D01*
X2833Y1916D01*
Y1920D01*
X2834Y1925D01*
X2834Y1931D01*
X2835Y1937D01*
X2837Y1950D01*
X2839Y1963D01*
X2842Y1977D01*
X2847Y1990D01*
Y1991D01*
X2848Y1992D01*
X2849Y1993D01*
X2850Y1995D01*
X2852Y1999D01*
X2855Y2005D01*
X2860Y2012D01*
X2865Y2019D01*
X2870Y2027D01*
X2877Y2034D01*
X2877Y2035D01*
X2878Y2035D01*
X2880Y2037D01*
X2884Y2041D01*
X2889Y2045D01*
X2895Y2050D01*
X2902Y2055D01*
X2910Y2059D01*
X2918Y2063D01*
X2919D01*
X2920Y2064D01*
X2921Y2065D01*
X2924Y2065D01*
X2927Y2066D01*
X2930Y2067D01*
X2934Y2069D01*
X2938Y2070D01*
X2943Y2071D01*
X2948Y2072D01*
X2960Y2074D01*
X2973Y2076D01*
X2987Y2076D01*
X2991D01*
X2994Y2076D01*
D02*
G37*
G36*
X3654Y-4413D02*
X3654Y-4414D01*
X3655Y-4415D01*
X3657Y-4417D01*
X3661Y-4421D01*
X3666Y-4427D01*
X3673Y-4435D01*
X3681Y-4443D01*
X3690Y-4451D01*
X3699Y-4461D01*
X3709Y-4471D01*
X3720Y-4481D01*
X3731Y-4491D01*
X3741Y-4500D01*
X3752Y-4509D01*
X3762Y-4517D01*
X3772Y-4525D01*
X3781Y-4531D01*
X3781Y-4531D01*
X3782Y-4532D01*
X3784Y-4533D01*
X3787Y-4534D01*
X3790Y-4535D01*
X3793Y-4537D01*
X3802Y-4541D01*
X3811Y-4544D01*
X3822Y-4547D01*
X3833Y-4550D01*
X3838Y-4550D01*
X3846D01*
X3848Y-4550D01*
X3853Y-4550D01*
X3859Y-4549D01*
X3865Y-4546D01*
X3872Y-4544D01*
X3880Y-4540D01*
X3886Y-4534D01*
X3887Y-4534D01*
X3889Y-4532D01*
X3891Y-4528D01*
X3894Y-4524D01*
X3897Y-4518D01*
X3900Y-4512D01*
X3902Y-4505D01*
X3902Y-4497D01*
Y-4496D01*
Y-4494D01*
X3902Y-4490D01*
X3901Y-4485D01*
X3900Y-4479D01*
X3897Y-4473D01*
X3895Y-4467D01*
X3891Y-4461D01*
X3890Y-4461D01*
X3888Y-4458D01*
X3885Y-4456D01*
X3881Y-4452D01*
X3876Y-4448D01*
X3869Y-4444D01*
X3862Y-4440D01*
X3853Y-4437D01*
Y-4421D01*
X3853D01*
X3855Y-4422D01*
X3858D01*
X3860Y-4423D01*
X3864Y-4423D01*
X3869Y-4424D01*
X3874Y-4425D01*
X3879Y-4427D01*
X3890Y-4431D01*
X3901Y-4436D01*
X3912Y-4442D01*
X3917Y-4446D01*
X3921Y-4450D01*
X3922Y-4451D01*
X3922Y-4451D01*
X3924Y-4452D01*
X3925Y-4454D01*
X3927Y-4457D01*
X3929Y-4459D01*
X3933Y-4466D01*
X3937Y-4475D01*
X3940Y-4485D01*
X3943Y-4496D01*
X3944Y-4502D01*
X3944Y-4509D01*
Y-4509D01*
Y-4511D01*
Y-4512D01*
X3944Y-4515D01*
X3943Y-4518D01*
X3943Y-4522D01*
X3941Y-4530D01*
X3938Y-4540D01*
X3934Y-4551D01*
X3931Y-4556D01*
X3928Y-4561D01*
X3924Y-4566D01*
X3920Y-4571D01*
X3919Y-4572D01*
X3919Y-4572D01*
X3918Y-4573D01*
X3916Y-4575D01*
X3913Y-4577D01*
X3911Y-4579D01*
X3904Y-4584D01*
X3896Y-4589D01*
X3886Y-4592D01*
X3875Y-4595D01*
X3869Y-4596D01*
X3863Y-4596D01*
X3859D01*
X3855Y-4596D01*
X3849Y-4595D01*
X3842Y-4594D01*
X3836Y-4592D01*
X3828Y-4589D01*
X3820Y-4585D01*
X3820D01*
X3819Y-4584D01*
X3817Y-4583D01*
X3814Y-4582D01*
X3810Y-4580D01*
X3806Y-4578D01*
X3801Y-4576D01*
X3796Y-4572D01*
X3790Y-4569D01*
X3784Y-4565D01*
X3771Y-4556D01*
X3764Y-4550D01*
X3756Y-4545D01*
X3749Y-4539D01*
X3742Y-4532D01*
X3741Y-4532D01*
X3739Y-4530D01*
X3736Y-4527D01*
X3732Y-4524D01*
X3728Y-4520D01*
X3723Y-4515D01*
X3712Y-4505D01*
X3701Y-4494D01*
X3696Y-4488D01*
X3691Y-4483D01*
X3687Y-4478D01*
X3683Y-4474D01*
X3681Y-4470D01*
X3679Y-4468D01*
Y-4539D01*
Y-4539D01*
Y-4540D01*
Y-4542D01*
Y-4544D01*
X3680Y-4549D01*
Y-4556D01*
X3680Y-4562D01*
X3681Y-4569D01*
X3682Y-4575D01*
X3683Y-4578D01*
X3684Y-4580D01*
X3684Y-4580D01*
X3685Y-4582D01*
X3686Y-4583D01*
X3688Y-4586D01*
X3691Y-4589D01*
X3694Y-4592D01*
X3698Y-4595D01*
X3703Y-4599D01*
Y-4614D01*
X3638Y-4592D01*
Y-4413D01*
X3653D01*
X3654Y-4413D01*
D02*
G37*
G36*
X6349Y2076D02*
X6354Y2075D01*
X6361Y2075D01*
X6367Y2074D01*
X6375Y2072D01*
X6384Y2071D01*
X6392Y2068D01*
X6401Y2065D01*
X6411Y2062D01*
X6421Y2057D01*
X6430Y2052D01*
X6439Y2047D01*
X6448Y2040D01*
X6456Y2032D01*
X6456Y2032D01*
X6458Y2030D01*
X6460Y2027D01*
X6463Y2024D01*
X6466Y2020D01*
X6469Y2014D01*
X6474Y2007D01*
X6477Y2000D01*
X6481Y1992D01*
X6485Y1983D01*
X6489Y1973D01*
X6492Y1962D01*
X6495Y1950D01*
X6497Y1937D01*
X6498Y1924D01*
X6499Y1910D01*
Y1909D01*
Y1909D01*
Y1906D01*
X6498Y1902D01*
X6498Y1897D01*
X6497Y1890D01*
X6496Y1882D01*
X6495Y1874D01*
X6493Y1865D01*
X6491Y1855D01*
X6488Y1846D01*
X6485Y1835D01*
X6481Y1825D01*
X6476Y1815D01*
X6470Y1806D01*
X6464Y1797D01*
X6456Y1788D01*
X6456Y1787D01*
X6454Y1786D01*
X6452Y1784D01*
X6449Y1781D01*
X6444Y1778D01*
X6439Y1774D01*
X6433Y1770D01*
X6426Y1766D01*
X6419Y1762D01*
X6410Y1758D01*
X6401Y1754D01*
X6391Y1751D01*
X6380Y1748D01*
X6369Y1746D01*
X6356Y1745D01*
X6344Y1744D01*
X6340D01*
X6337Y1745D01*
X6332Y1745D01*
X6326Y1745D01*
X6319Y1747D01*
X6311Y1748D01*
X6303Y1750D01*
X6294Y1752D01*
X6284Y1755D01*
X6275Y1758D01*
X6266Y1762D01*
X6256Y1767D01*
X6247Y1773D01*
X6239Y1780D01*
X6230Y1787D01*
X6230Y1788D01*
X6229Y1790D01*
X6226Y1792D01*
X6224Y1795D01*
X6221Y1800D01*
X6217Y1805D01*
X6213Y1812D01*
X6209Y1819D01*
X6205Y1827D01*
X6201Y1836D01*
X6198Y1846D01*
X6195Y1857D01*
X6192Y1868D01*
X6190Y1881D01*
X6189Y1894D01*
X6188Y1908D01*
Y1908D01*
Y1910D01*
Y1912D01*
X6189Y1916D01*
Y1920D01*
X6189Y1925D01*
X6189Y1931D01*
X6190Y1937D01*
X6192Y1950D01*
X6194Y1963D01*
X6198Y1977D01*
X6203Y1990D01*
Y1991D01*
X6203Y1992D01*
X6204Y1993D01*
X6205Y1995D01*
X6207Y1999D01*
X6211Y2005D01*
X6215Y2012D01*
X6220Y2019D01*
X6226Y2027D01*
X6232Y2034D01*
X6233Y2035D01*
X6233Y2035D01*
X6236Y2037D01*
X6239Y2041D01*
X6244Y2045D01*
X6251Y2050D01*
X6258Y2055D01*
X6265Y2059D01*
X6274Y2063D01*
X6274D01*
X6275Y2064D01*
X6276Y2065D01*
X6279Y2065D01*
X6282Y2066D01*
X6285Y2067D01*
X6289Y2069D01*
X6294Y2070D01*
X6298Y2071D01*
X6304Y2072D01*
X6315Y2074D01*
X6329Y2076D01*
X6343Y2076D01*
X6346D01*
X6349Y2076D01*
D02*
G37*
G36*
X4088D02*
X4093Y2075D01*
X4099Y2075D01*
X4106Y2074D01*
X4114Y2072D01*
X4122Y2071D01*
X4131Y2068D01*
X4140Y2065D01*
X4149Y2062D01*
X4159Y2057D01*
X4168Y2052D01*
X4177Y2047D01*
X4186Y2040D01*
X4194Y2032D01*
X4195Y2032D01*
X4196Y2030D01*
X4198Y2027D01*
X4201Y2024D01*
X4204Y2020D01*
X4208Y2014D01*
X4212Y2007D01*
X4216Y2000D01*
X4220Y1992D01*
X4223Y1983D01*
X4227Y1973D01*
X4230Y1962D01*
X4233Y1950D01*
X4235Y1937D01*
X4236Y1924D01*
X4237Y1910D01*
Y1909D01*
Y1909D01*
Y1906D01*
X4236Y1902D01*
X4236Y1897D01*
X4236Y1890D01*
X4235Y1882D01*
X4233Y1874D01*
X4231Y1865D01*
X4229Y1855D01*
X4226Y1846D01*
X4223Y1835D01*
X4219Y1825D01*
X4214Y1815D01*
X4208Y1806D01*
X4202Y1797D01*
X4194Y1788D01*
X4194Y1787D01*
X4192Y1786D01*
X4190Y1784D01*
X4187Y1781D01*
X4182Y1778D01*
X4177Y1774D01*
X4171Y1770D01*
X4164Y1766D01*
X4157Y1762D01*
X4148Y1758D01*
X4139Y1754D01*
X4129Y1751D01*
X4118Y1748D01*
X4107Y1746D01*
X4095Y1745D01*
X4082Y1744D01*
X4079D01*
X4075Y1745D01*
X4070Y1745D01*
X4064Y1745D01*
X4057Y1747D01*
X4049Y1748D01*
X4041Y1750D01*
X4032Y1752D01*
X4023Y1755D01*
X4014Y1758D01*
X4004Y1762D01*
X3995Y1767D01*
X3986Y1773D01*
X3977Y1780D01*
X3969Y1787D01*
X3968Y1788D01*
X3967Y1790D01*
X3965Y1792D01*
X3962Y1795D01*
X3959Y1800D01*
X3955Y1805D01*
X3951Y1812D01*
X3948Y1819D01*
X3944Y1827D01*
X3940Y1836D01*
X3936Y1846D01*
X3933Y1857D01*
X3930Y1868D01*
X3928Y1881D01*
X3927Y1894D01*
X3926Y1908D01*
Y1908D01*
Y1910D01*
Y1912D01*
X3927Y1916D01*
Y1920D01*
X3927Y1925D01*
X3928Y1931D01*
X3928Y1937D01*
X3930Y1950D01*
X3933Y1963D01*
X3936Y1977D01*
X3941Y1990D01*
Y1991D01*
X3941Y1992D01*
X3942Y1993D01*
X3943Y1995D01*
X3946Y1999D01*
X3949Y2005D01*
X3953Y2012D01*
X3958Y2019D01*
X3964Y2027D01*
X3971Y2034D01*
X3971Y2035D01*
X3971Y2035D01*
X3974Y2037D01*
X3978Y2041D01*
X3983Y2045D01*
X3989Y2050D01*
X3996Y2055D01*
X4004Y2059D01*
X4012Y2063D01*
X4012D01*
X4013Y2064D01*
X4015Y2065D01*
X4017Y2065D01*
X4020Y2066D01*
X4024Y2067D01*
X4027Y2069D01*
X4032Y2070D01*
X4036Y2071D01*
X4042Y2072D01*
X4054Y2074D01*
X4067Y2076D01*
X4081Y2076D01*
X4084D01*
X4088Y2076D01*
D02*
G37*
G36*
X3775Y-4640D02*
X3777Y-4641D01*
X3780Y-4642D01*
X3784Y-4644D01*
X3788Y-4645D01*
X3797Y-4649D01*
X3807Y-4653D01*
X3816Y-4658D01*
X3825Y-4664D01*
X3829Y-4666D01*
X3832Y-4670D01*
X3832Y-4670D01*
X3834Y-4672D01*
X3836Y-4675D01*
X3838Y-4679D01*
X3840Y-4685D01*
X3842Y-4691D01*
X3843Y-4699D01*
X3844Y-4707D01*
Y-4863D01*
X3804D01*
Y-4810D01*
X3803D01*
X3802Y-4810D01*
X3799D01*
X3796Y-4809D01*
X3792Y-4809D01*
X3787Y-4808D01*
X3782Y-4808D01*
X3776Y-4807D01*
X3769Y-4806D01*
X3762Y-4806D01*
X3747Y-4804D01*
X3731Y-4804D01*
X3714Y-4803D01*
X3711D01*
X3707Y-4804D01*
X3703Y-4804D01*
X3693Y-4806D01*
X3688Y-4808D01*
X3685Y-4810D01*
X3684Y-4810D01*
X3683Y-4811D01*
X3682Y-4813D01*
X3681Y-4814D01*
X3678Y-4820D01*
X3677Y-4823D01*
X3677Y-4826D01*
Y-4826D01*
Y-4827D01*
X3677Y-4829D01*
Y-4831D01*
X3679Y-4835D01*
X3680Y-4836D01*
X3682Y-4839D01*
X3682Y-4839D01*
X3683Y-4840D01*
X3685Y-4841D01*
X3687Y-4842D01*
X3689Y-4843D01*
X3693Y-4844D01*
X3698Y-4846D01*
X3703Y-4847D01*
Y-4863D01*
X3701D01*
X3699Y-4863D01*
X3696Y-4862D01*
X3693Y-4862D01*
X3689Y-4861D01*
X3681Y-4859D01*
X3671Y-4857D01*
X3662Y-4854D01*
X3654Y-4850D01*
X3650Y-4848D01*
X3647Y-4846D01*
X3646Y-4845D01*
X3644Y-4843D01*
X3642Y-4840D01*
X3639Y-4836D01*
X3636Y-4832D01*
X3634Y-4826D01*
X3632Y-4820D01*
X3632Y-4814D01*
Y-4813D01*
X3632Y-4811D01*
X3632Y-4807D01*
X3634Y-4803D01*
X3636Y-4798D01*
X3638Y-4792D01*
X3643Y-4787D01*
X3648Y-4782D01*
X3649Y-4782D01*
X3651Y-4781D01*
X3653Y-4780D01*
X3656Y-4778D01*
X3659Y-4777D01*
X3662Y-4776D01*
X3666Y-4775D01*
X3670Y-4774D01*
X3675Y-4773D01*
X3681Y-4772D01*
X3687Y-4771D01*
X3693Y-4770D01*
X3700Y-4770D01*
X3713D01*
X3716Y-4770D01*
X3720D01*
X3725Y-4771D01*
X3730D01*
X3736Y-4771D01*
X3743Y-4772D01*
X3751Y-4773D01*
X3760Y-4774D01*
X3770Y-4775D01*
X3780Y-4776D01*
X3792Y-4777D01*
X3804Y-4778D01*
Y-4732D01*
X3801D01*
X3799Y-4731D01*
X3794D01*
X3786Y-4731D01*
X3777Y-4730D01*
X3768Y-4729D01*
X3757Y-4728D01*
X3745Y-4727D01*
X3721Y-4725D01*
X3709Y-4723D01*
X3698Y-4722D01*
X3687Y-4721D01*
X3678Y-4719D01*
X3670Y-4717D01*
X3663Y-4715D01*
X3662D01*
X3661Y-4715D01*
X3660Y-4714D01*
X3658Y-4713D01*
X3653Y-4711D01*
X3647Y-4708D01*
X3642Y-4703D01*
X3637Y-4698D01*
X3634Y-4695D01*
X3633Y-4692D01*
X3632Y-4689D01*
X3632Y-4685D01*
Y-4685D01*
Y-4684D01*
X3632Y-4682D01*
X3632Y-4680D01*
X3634Y-4674D01*
X3636Y-4672D01*
X3638Y-4669D01*
X3638Y-4669D01*
X3639Y-4668D01*
X3641Y-4667D01*
X3643Y-4666D01*
X3648Y-4664D01*
X3650Y-4663D01*
X3654Y-4663D01*
X3655D01*
X3658Y-4663D01*
X3661Y-4664D01*
X3665Y-4665D01*
X3665D01*
X3666Y-4666D01*
X3668Y-4666D01*
X3670Y-4668D01*
X3672Y-4669D01*
X3676Y-4671D01*
X3680Y-4675D01*
X3684Y-4678D01*
X3685Y-4679D01*
X3687Y-4680D01*
X3690Y-4682D01*
X3694Y-4684D01*
X3699Y-4686D01*
X3705Y-4688D01*
X3711Y-4691D01*
X3718Y-4693D01*
X3719D01*
X3720Y-4693D01*
X3721Y-4694D01*
X3724Y-4694D01*
X3727Y-4695D01*
X3731Y-4696D01*
X3736Y-4697D01*
X3741Y-4698D01*
X3747Y-4699D01*
X3753Y-4699D01*
X3760Y-4701D01*
X3768Y-4702D01*
X3776Y-4702D01*
X3785Y-4703D01*
X3794Y-4704D01*
X3804Y-4704D01*
Y-4699D01*
Y-4699D01*
Y-4697D01*
Y-4694D01*
X3803Y-4691D01*
X3802Y-4685D01*
X3801Y-4682D01*
X3799Y-4679D01*
X3799Y-4678D01*
X3798Y-4677D01*
X3796Y-4674D01*
X3793Y-4671D01*
X3790Y-4668D01*
X3785Y-4664D01*
X3780Y-4660D01*
X3773Y-4655D01*
Y-4640D01*
X3774D01*
X3775Y-4640D01*
D02*
G37*
G36*
X4032Y-5205D02*
Y-5212D01*
X3901D01*
X3898Y-5212D01*
X3896D01*
X3894Y-5212D01*
X3893Y-5212D01*
X3892D01*
X3892Y-5212D01*
X3891Y-5213D01*
X3890Y-5214D01*
X3889Y-5216D01*
Y-5216D01*
X3888Y-5216D01*
X3888Y-5217D01*
X3888Y-5218D01*
X3888Y-5220D01*
X3887Y-5223D01*
X3887Y-5226D01*
X3887Y-5230D01*
X3879D01*
Y-5171D01*
X3887D01*
Y-5171D01*
Y-5171D01*
Y-5172D01*
X3887Y-5174D01*
Y-5177D01*
X3887Y-5179D01*
X3888Y-5182D01*
X3888Y-5183D01*
X3888Y-5185D01*
Y-5185D01*
X3889Y-5185D01*
X3890Y-5186D01*
X3891Y-5187D01*
X3893Y-5188D01*
X3893D01*
X3893Y-5189D01*
X3894D01*
X3895Y-5189D01*
X3897Y-5189D01*
X3900D01*
X3903Y-5189D01*
X3991D01*
X3994Y-5189D01*
X3997D01*
X4001Y-5189D01*
X4003Y-5189D01*
X4005Y-5188D01*
X4005Y-5188D01*
X4006D01*
X4006Y-5188D01*
X4007Y-5188D01*
X4008Y-5187D01*
X4009Y-5186D01*
X4009Y-5186D01*
X4010Y-5185D01*
X4010Y-5184D01*
X4010Y-5183D01*
Y-5182D01*
Y-5182D01*
X4010Y-5181D01*
X4010Y-5180D01*
X4010Y-5178D01*
X4009Y-5176D01*
X4008Y-5174D01*
X4007Y-5171D01*
X4013Y-5168D01*
X4032Y-5205D01*
D02*
G37*
G36*
X3558Y-4494D02*
X3535D01*
Y-4443D01*
X3514D01*
Y-4490D01*
X3491D01*
Y-4443D01*
X3461D01*
Y-4494D01*
X3438D01*
Y-4413D01*
X3558D01*
Y-4494D01*
D02*
G37*
G36*
X3846Y-4984D02*
X3861Y-4980D01*
X3861D01*
X3862Y-4980D01*
X3864D01*
X3866Y-4979D01*
X3871Y-4978D01*
X3878Y-4976D01*
X3885Y-4974D01*
X3892Y-4971D01*
X3898Y-4968D01*
X3900Y-4966D01*
X3902Y-4964D01*
X3903Y-4963D01*
X3904Y-4962D01*
X3906Y-4960D01*
X3907Y-4958D01*
X3909Y-4955D01*
X3911Y-4951D01*
X3912Y-4947D01*
X3913Y-4943D01*
Y-4943D01*
Y-4941D01*
X3912Y-4940D01*
X3912Y-4937D01*
X3911Y-4934D01*
X3909Y-4931D01*
X3907Y-4928D01*
X3905Y-4925D01*
X3904Y-4924D01*
X3903Y-4924D01*
X3901Y-4922D01*
X3898Y-4921D01*
X3894Y-4919D01*
X3889Y-4917D01*
X3883Y-4916D01*
X3875Y-4914D01*
Y-4898D01*
X3879D01*
X3882Y-4898D01*
X3885D01*
X3889Y-4899D01*
X3898Y-4900D01*
X3907Y-4902D01*
X3918Y-4905D01*
X3927Y-4910D01*
X3936Y-4915D01*
X3937Y-4916D01*
X3939Y-4918D01*
X3941Y-4920D01*
X3944Y-4924D01*
X3947Y-4929D01*
X3950Y-4934D01*
X3951Y-4940D01*
X3952Y-4946D01*
Y-4947D01*
Y-4949D01*
X3952Y-4952D01*
X3951Y-4956D01*
X3949Y-4961D01*
X3947Y-4965D01*
X3944Y-4970D01*
X3940Y-4975D01*
X3939Y-4976D01*
X3938Y-4976D01*
X3936Y-4978D01*
X3934Y-4979D01*
X3931Y-4980D01*
X3929Y-4982D01*
X3925Y-4984D01*
X3921Y-4986D01*
X3917Y-4988D01*
X3912Y-4990D01*
X3906Y-4992D01*
X3901Y-4995D01*
X3894Y-4996D01*
X3887Y-4998D01*
X3880Y-5000D01*
X3725Y-5035D01*
X3724D01*
X3723Y-5036D01*
X3721Y-5036D01*
X3719Y-5037D01*
X3714Y-5038D01*
X3707Y-5040D01*
X3700Y-5043D01*
X3693Y-5046D01*
X3687Y-5049D01*
X3684Y-5050D01*
X3682Y-5052D01*
X3682Y-5053D01*
X3681Y-5054D01*
X3680Y-5056D01*
X3678Y-5058D01*
X3676Y-5061D01*
X3675Y-5064D01*
X3674Y-5067D01*
X3674Y-5072D01*
Y-5072D01*
Y-5073D01*
X3674Y-5075D01*
X3675Y-5078D01*
X3676Y-5080D01*
X3676Y-5083D01*
X3678Y-5086D01*
X3681Y-5089D01*
X3681Y-5089D01*
X3682Y-5090D01*
X3684Y-5091D01*
X3687Y-5093D01*
X3691Y-5094D01*
X3696Y-5095D01*
X3702Y-5097D01*
X3709Y-5098D01*
Y-5115D01*
X3691D01*
X3686Y-5114D01*
X3679Y-5113D01*
X3671Y-5111D01*
X3663Y-5108D01*
X3655Y-5105D01*
X3648Y-5100D01*
X3648Y-5099D01*
X3646Y-5097D01*
X3644Y-5095D01*
X3641Y-5091D01*
X3638Y-5087D01*
X3636Y-5082D01*
X3634Y-5076D01*
X3634Y-5069D01*
Y-5068D01*
X3634Y-5066D01*
X3635Y-5063D01*
X3636Y-5059D01*
X3637Y-5054D01*
X3640Y-5049D01*
X3643Y-5044D01*
X3648Y-5039D01*
X3649Y-5038D01*
X3650Y-5036D01*
X3652Y-5035D01*
X3654Y-5034D01*
X3657Y-5033D01*
X3660Y-5031D01*
X3664Y-5029D01*
X3668Y-5027D01*
X3673Y-5025D01*
X3679Y-5023D01*
X3685Y-5021D01*
X3692Y-5019D01*
X3700Y-5017D01*
X3708Y-5015D01*
X3788Y-4999D01*
X3638Y-4931D01*
Y-4886D01*
X3846Y-4984D01*
D02*
G37*
G36*
X3945Y-5141D02*
X3930D01*
Y-5023D01*
X3945D01*
Y-5141D01*
D02*
G37*
G36*
X1779Y-3170D02*
X1779Y-3170D01*
X1779Y-3170D01*
X1779Y-3170D01*
D02*
G37*
G36*
X1545Y-3216D02*
X1545Y-3215D01*
X1545Y-3215D01*
X1545Y-3216D01*
D02*
G37*
G36*
X878Y-3054D02*
X878Y-3054D01*
X878Y-3054D01*
X878Y-3054D01*
X878Y-3054D01*
X858Y-3082D01*
X832Y-3126D01*
X809Y-3173D01*
X789Y-3220D01*
X773Y-3269D01*
X760Y-3319D01*
X751Y-3370D01*
X745Y-3422D01*
X744Y-3473D01*
X745Y-3525D01*
X751Y-3576D01*
X755Y-3599D01*
X755Y-3599D01*
X755Y-3599D01*
X755Y-3599D01*
X761Y-3586D01*
X784Y-3544D01*
X811Y-3504D01*
X841Y-3467D01*
X873Y-3431D01*
X908Y-3399D01*
X946Y-3369D01*
X986Y-3342D01*
X1028Y-3319D01*
X1072Y-3299D01*
X1079Y-3296D01*
X1079Y-3296D01*
X1074Y-3305D01*
X1059Y-3336D01*
X1048Y-3369D01*
X1039Y-3403D01*
X1034Y-3438D01*
X1032Y-3473D01*
X1034Y-3508D01*
X1039Y-3543D01*
X1048Y-3577D01*
X1059Y-3610D01*
X1068Y-3629D01*
X1068Y-3629D01*
X1067Y-3659D01*
X1069Y-3694D01*
X1074Y-3729D01*
X1084Y-3763D01*
X1098Y-3796D01*
X1115Y-3827D01*
X1135Y-3856D01*
X1159Y-3882D01*
X1182Y-3903D01*
X1159Y-3899D01*
X1126Y-3891D01*
X1094Y-3880D01*
X1063Y-3865D01*
X1034Y-3848D01*
X1007Y-3827D01*
X982Y-3805D01*
X959Y-3780D01*
X939Y-3752D01*
X921Y-3723D01*
X912Y-3703D01*
X912Y-3703D01*
X912Y-3703D01*
D01*
X906Y-3733D01*
X900Y-3782D01*
X898Y-3831D01*
X900Y-3880D01*
X906Y-3929D01*
X915Y-3977D01*
X928Y-4024D01*
X945Y-4070D01*
X966Y-4114D01*
X985Y-4148D01*
X985Y-4148D01*
X985Y-4148D01*
X985Y-4148D01*
X972Y-4143D01*
X926Y-4120D01*
X882Y-4094D01*
X841Y-4065D01*
X801Y-4033D01*
X764Y-3998D01*
X729Y-3961D01*
X697Y-3922D01*
X668Y-3880D01*
X642Y-3836D01*
X620Y-3791D01*
X600Y-3744D01*
X598Y-3738D01*
X599Y-3738D01*
X596Y-3711D01*
X594Y-3659D01*
X596Y-3607D01*
X601Y-3556D01*
X609Y-3505D01*
X621Y-3455D01*
X636Y-3406D01*
X654Y-3358D01*
X675Y-3311D01*
X700Y-3265D01*
X727Y-3221D01*
X757Y-3179D01*
X790Y-3140D01*
X825Y-3102D01*
X863Y-3067D01*
X878Y-3054D01*
X878Y-3054D01*
X878Y-3054D01*
D02*
G37*
G36*
X1434Y-2873D02*
X1485Y-2878D01*
X1536Y-2886D01*
X1586Y-2898D01*
X1635Y-2913D01*
X1653Y-2920D01*
X1654Y-2920D01*
X1654Y-2920D01*
X1653Y-2920D01*
X1637Y-2918D01*
X1586Y-2916D01*
X1534Y-2918D01*
X1483Y-2924D01*
X1432Y-2933D01*
X1382Y-2946D01*
X1333Y-2962D01*
X1285Y-2982D01*
X1239Y-3005D01*
X1194Y-3031D01*
X1152Y-3061D01*
X1121Y-3086D01*
X1121Y-3086D01*
X1120Y-3086D01*
X1121Y-3086D01*
X1166Y-3084D01*
X1214Y-3086D01*
X1262Y-3091D01*
X1309Y-3101D01*
X1355Y-3114D01*
X1401Y-3130D01*
X1444Y-3150D01*
X1486Y-3174D01*
X1526Y-3201D01*
X1545Y-3215D01*
X1512Y-3217D01*
X1477Y-3222D01*
X1443Y-3231D01*
X1410Y-3242D01*
X1378Y-3257D01*
X1348Y-3275D01*
X1320Y-3296D01*
X1294Y-3320D01*
X1270Y-3346D01*
X1251Y-3372D01*
X1251Y-3372D01*
X1245Y-3375D01*
X1214Y-3392D01*
X1185Y-3412D01*
X1159Y-3436D01*
X1135Y-3462D01*
X1115Y-3491D01*
X1098Y-3522D01*
X1084Y-3555D01*
X1074Y-3589D01*
X1071Y-3608D01*
X1071Y-3608D01*
X1070Y-3607D01*
X1059Y-3575D01*
X1050Y-3542D01*
X1045Y-3508D01*
X1044Y-3474D01*
X1045Y-3441D01*
X1050Y-3407D01*
X1059Y-3374D01*
X1070Y-3342D01*
X1085Y-3311D01*
X1102Y-3282D01*
X1109Y-3274D01*
X1108Y-3273D01*
X1064Y-3290D01*
X1020Y-3310D01*
X977Y-3334D01*
X936Y-3361D01*
X898Y-3392D01*
X862Y-3425D01*
X829Y-3461D01*
X798Y-3499D01*
X771Y-3540D01*
X760Y-3560D01*
X760Y-3560D01*
X757Y-3528D01*
X755Y-3478D01*
X757Y-3427D01*
X762Y-3376D01*
X771Y-3326D01*
X784Y-3277D01*
X800Y-3229D01*
X819Y-3182D01*
X842Y-3136D01*
X868Y-3093D01*
X897Y-3051D01*
X922Y-3020D01*
X922Y-3020D01*
X944Y-3004D01*
X988Y-2977D01*
X1034Y-2952D01*
X1081Y-2931D01*
X1129Y-2913D01*
X1178Y-2898D01*
X1228Y-2886D01*
X1279Y-2878D01*
X1330Y-2873D01*
X1382Y-2871D01*
X1434Y-2873D01*
D02*
G37*
G36*
X1654Y-2920D02*
X1654Y-2920D01*
X1654Y-2920D01*
X1654Y-2920D01*
D02*
G37*
G36*
X606Y-3793D02*
X606Y-3793D01*
X606Y-3793D01*
X606Y-3793D01*
D02*
G37*
G36*
X606Y-3795D02*
X606Y-3794D01*
X606Y-3793D01*
X606Y-3795D01*
D02*
G37*
G36*
X1792Y-3175D02*
X1838Y-3198D01*
X1882Y-3224D01*
X1923Y-3253D01*
X1963Y-3285D01*
X2000Y-3320D01*
X2035Y-3357D01*
X2067Y-3396D01*
X2096Y-3438D01*
X2122Y-3482D01*
X2144Y-3527D01*
X2164Y-3574D01*
X2166Y-3580D01*
X2165Y-3580D01*
X2168Y-3607D01*
X2170Y-3659D01*
X2168Y-3711D01*
X2163Y-3762D01*
X2155Y-3813D01*
X2143Y-3863D01*
X2128Y-3912D01*
X2110Y-3960D01*
X2089Y-4007D01*
X2064Y-4053D01*
X2037Y-4097D01*
X2007Y-4139D01*
X1974Y-4178D01*
X1939Y-4216D01*
X1901Y-4251D01*
X1886Y-4264D01*
X1906Y-4236D01*
X1932Y-4192D01*
X1955Y-4145D01*
X1975Y-4098D01*
X1991Y-4049D01*
X2004Y-3999D01*
X2013Y-3948D01*
X2019Y-3896D01*
X2020Y-3845D01*
X2019Y-3793D01*
X2013Y-3742D01*
X2009Y-3719D01*
X2009Y-3719D01*
X2009Y-3719D01*
X2009Y-3719D01*
X2003Y-3732D01*
X1980Y-3774D01*
X1953Y-3814D01*
X1923Y-3851D01*
X1891Y-3887D01*
X1856Y-3919D01*
X1818Y-3949D01*
X1778Y-3976D01*
X1736Y-3999D01*
X1692Y-4019D01*
X1685Y-4022D01*
X1685Y-4022D01*
X1690Y-4013D01*
X1705Y-3982D01*
X1716Y-3949D01*
X1725Y-3915D01*
X1730Y-3880D01*
X1732Y-3845D01*
X1730Y-3810D01*
X1725Y-3775D01*
X1716Y-3741D01*
X1705Y-3708D01*
X1696Y-3689D01*
X1696Y-3689D01*
X1697Y-3659D01*
X1695Y-3624D01*
X1690Y-3589D01*
X1680Y-3555D01*
X1666Y-3522D01*
X1649Y-3491D01*
X1629Y-3462D01*
X1605Y-3436D01*
X1582Y-3415D01*
X1581Y-3415D01*
X1582Y-3415D01*
X1582Y-3415D01*
X1605Y-3419D01*
X1638Y-3427D01*
X1670Y-3438D01*
X1701Y-3453D01*
X1730Y-3470D01*
X1757Y-3491D01*
X1782Y-3513D01*
X1805Y-3538D01*
X1825Y-3566D01*
X1843Y-3595D01*
X1852Y-3615D01*
X1858Y-3585D01*
X1864Y-3536D01*
X1866Y-3487D01*
X1864Y-3438D01*
X1858Y-3389D01*
X1849Y-3341D01*
X1836Y-3294D01*
X1819Y-3248D01*
X1798Y-3204D01*
X1779Y-3170D01*
X1792Y-3175D01*
D02*
G37*
G36*
X1632Y-2931D02*
X1683Y-2937D01*
X1705Y-2941D01*
X1705Y-2941D01*
X1730Y-2952D01*
X1776Y-2977D01*
X1820Y-3004D01*
X1862Y-3034D01*
X1901Y-3067D01*
X1939Y-3102D01*
X1974Y-3140D01*
X2007Y-3179D01*
X2037Y-3221D01*
X2064Y-3265D01*
X2089Y-3311D01*
X2110Y-3358D01*
X2128Y-3406D01*
X2143Y-3455D01*
X2155Y-3505D01*
X2158Y-3523D01*
X2158Y-3524D01*
X2158Y-3525D01*
X2158Y-3523D01*
X2135Y-3479D01*
X2109Y-3434D01*
X2080Y-3392D01*
X2047Y-3352D01*
X2012Y-3314D01*
X1974Y-3279D01*
X1934Y-3246D01*
X1891Y-3217D01*
X1847Y-3190D01*
X1801Y-3167D01*
X1753Y-3148D01*
X1748Y-3146D01*
X1748Y-3146D01*
X1764Y-3171D01*
X1788Y-3213D01*
X1808Y-3256D01*
X1824Y-3301D01*
X1837Y-3348D01*
X1847Y-3395D01*
X1852Y-3443D01*
X1854Y-3491D01*
X1852Y-3539D01*
X1848Y-3578D01*
X1848Y-3578D01*
X1836Y-3560D01*
X1816Y-3532D01*
X1792Y-3506D01*
X1766Y-3482D01*
X1738Y-3461D01*
X1708Y-3443D01*
X1676Y-3428D01*
X1643Y-3416D01*
X1609Y-3408D01*
X1574Y-3403D01*
X1565Y-3402D01*
X1565Y-3402D01*
X1550Y-3392D01*
X1519Y-3375D01*
X1486Y-3361D01*
X1452Y-3351D01*
X1417Y-3346D01*
X1382Y-3344D01*
X1347Y-3346D01*
X1312Y-3351D01*
X1278Y-3361D01*
X1271Y-3364D01*
X1271Y-3364D01*
X1271Y-3364D01*
X1271Y-3364D01*
X1278Y-3354D01*
X1301Y-3329D01*
X1326Y-3306D01*
X1353Y-3286D01*
X1383Y-3268D01*
X1413Y-3254D01*
X1445Y-3242D01*
X1478Y-3234D01*
X1512Y-3229D01*
X1546Y-3228D01*
X1579Y-3229D01*
X1579Y-3230D01*
X1579Y-3229D01*
X1579Y-3229D01*
X1568Y-3220D01*
X1530Y-3189D01*
X1489Y-3162D01*
X1446Y-3138D01*
X1402Y-3118D01*
X1356Y-3101D01*
X1309Y-3087D01*
X1261Y-3078D01*
X1212Y-3072D01*
X1163Y-3070D01*
X1157Y-3070D01*
X1157Y-3070D01*
X1196Y-3043D01*
X1240Y-3017D01*
X1286Y-2994D01*
X1333Y-2975D01*
X1381Y-2959D01*
X1430Y-2946D01*
X1480Y-2937D01*
X1531Y-2931D01*
X1581Y-2930D01*
X1632Y-2931D01*
D02*
G37*
G36*
X2158Y-3525D02*
X2158Y-3525D01*
X2158Y-3525D01*
X2158Y-3525D01*
D02*
G37*
G36*
X53Y-1894D02*
Y-2123D01*
X-249D01*
Y-1954D01*
Y-1884D01*
X53D01*
Y-1894D01*
D02*
G37*
G36*
X262Y360D02*
X2Y182D01*
X-238Y360D01*
X12Y985D01*
X262Y360D01*
D02*
G37*
G36*
X-59Y1D02*
X-237Y-239D01*
X-862Y11D01*
X-237Y261D01*
X-59Y1D01*
D02*
G37*
G36*
X-1290Y1348D02*
Y1119D01*
X-1592D01*
Y1288D01*
Y1358D01*
X-1290D01*
Y1348D01*
D02*
G37*
G36*
X-365Y1677D02*
Y1674D01*
X-631D01*
Y1774D01*
Y1775D01*
X-365D01*
Y1677D01*
D02*
G37*
G36*
X-364Y1560D02*
Y1557D01*
X-630D01*
Y1657D01*
Y1658D01*
X-364D01*
Y1560D01*
D02*
G37*
G36*
X2540Y-1368D02*
Y-1700D01*
X2238D01*
Y-1357D01*
Y-1215D01*
X2387D01*
X2540Y-1368D01*
D02*
G37*
G36*
X2575Y-1950D02*
X2297D01*
X2239Y-1892D01*
Y-1714D01*
X2575D01*
Y-1950D01*
D02*
G37*
G36*
X2410Y-795D02*
Y-986D01*
X2269D01*
Y-845D01*
Y-787D01*
X2410D01*
Y-795D01*
D02*
G37*
G36*
X846Y-9D02*
X221Y-259D01*
X43Y1D01*
X221Y241D01*
X846Y-9D01*
D02*
G37*
G36*
X242Y-358D02*
X-8Y-983D01*
X-258Y-358D01*
X2Y-180D01*
X242Y-358D01*
D02*
G37*
G36*
X1183Y-3903D02*
X1182Y-3903D01*
X1182Y-3903D01*
X1183Y-3903D01*
D02*
G37*
G36*
X5911Y-7592D02*
X6047Y-7878D01*
X5247Y-7578D01*
X6047Y-7278D01*
X5911Y-7592D01*
D02*
G37*
G36*
X162Y-5148D02*
Y-5377D01*
X-140D01*
Y-5208D01*
Y-5138D01*
X162D01*
Y-5148D01*
D02*
G37*
G36*
X1110Y-4398D02*
X1111Y-4398D01*
X1110Y-4398D01*
X1110Y-4398D01*
X1110Y-4398D01*
X1110Y-4398D01*
X1110Y-4398D01*
D02*
G37*
G36*
X8835Y1884D02*
Y1750D01*
X8770D01*
Y1885D01*
X8653Y2070D01*
X8729D01*
X8804Y1943D01*
X8877Y2070D01*
X8952D01*
X8835Y1884D01*
D02*
G37*
G36*
X3760Y2076D02*
X3764D01*
X3769Y2075D01*
X3775Y2075D01*
X3781Y2073D01*
X3789Y2072D01*
X3796Y2070D01*
X3804Y2068D01*
X3812Y2065D01*
X3820Y2062D01*
X3828Y2057D01*
X3836Y2053D01*
X3843Y2047D01*
X3850Y2041D01*
X3851Y2041D01*
X3851Y2040D01*
X3852Y2039D01*
X3854Y2037D01*
X3856Y2035D01*
X3858Y2033D01*
X3860Y2030D01*
X3862Y2026D01*
X3865Y2022D01*
X3868Y2018D01*
X3871Y2013D01*
X3873Y2008D01*
X3876Y2002D01*
X3879Y1996D01*
X3881Y1990D01*
X3883Y1982D01*
X3819Y1967D01*
Y1967D01*
X3819Y1968D01*
X3818Y1970D01*
X3818Y1971D01*
X3816Y1976D01*
X3814Y1981D01*
X3811Y1987D01*
X3806Y1994D01*
X3801Y2000D01*
X3795Y2006D01*
X3794Y2007D01*
X3791Y2009D01*
X3788Y2011D01*
X3783Y2014D01*
X3776Y2016D01*
X3769Y2019D01*
X3760Y2020D01*
X3751Y2021D01*
X3748D01*
X3745Y2020D01*
X3742Y2020D01*
X3739Y2020D01*
X3731Y2017D01*
X3721Y2015D01*
X3717Y2012D01*
X3712Y2010D01*
X3707Y2007D01*
X3702Y2003D01*
X3698Y2000D01*
X3694Y1995D01*
X3693Y1995D01*
X3693Y1994D01*
X3691Y1992D01*
X3690Y1990D01*
X3689Y1987D01*
X3686Y1984D01*
X3684Y1980D01*
X3683Y1975D01*
X3681Y1970D01*
X3679Y1964D01*
X3676Y1957D01*
X3675Y1949D01*
X3674Y1941D01*
X3672Y1932D01*
X3672Y1922D01*
X3671Y1912D01*
Y1911D01*
Y1910D01*
Y1906D01*
X3672Y1902D01*
X3672Y1897D01*
X3673Y1892D01*
X3673Y1885D01*
X3674Y1878D01*
X3677Y1864D01*
X3681Y1850D01*
X3683Y1843D01*
X3686Y1837D01*
X3689Y1831D01*
X3693Y1825D01*
X3694Y1825D01*
X3694Y1824D01*
X3695Y1823D01*
X3697Y1822D01*
X3699Y1820D01*
X3702Y1817D01*
X3705Y1815D01*
X3709Y1813D01*
X3716Y1808D01*
X3726Y1804D01*
X3731Y1802D01*
X3737Y1801D01*
X3744Y1800D01*
X3750Y1800D01*
X3752D01*
X3754Y1800D01*
X3759Y1801D01*
X3765Y1802D01*
X3772Y1804D01*
X3779Y1807D01*
X3787Y1811D01*
X3794Y1816D01*
X3794Y1817D01*
X3795Y1817D01*
X3797Y1820D01*
X3800Y1823D01*
X3804Y1829D01*
X3806Y1832D01*
X3809Y1836D01*
X3811Y1840D01*
X3813Y1845D01*
X3816Y1850D01*
X3817Y1856D01*
X3819Y1862D01*
X3821Y1868D01*
X3884Y1849D01*
Y1848D01*
X3883Y1846D01*
X3882Y1844D01*
X3881Y1840D01*
X3879Y1836D01*
X3878Y1831D01*
X3875Y1825D01*
X3872Y1819D01*
X3866Y1806D01*
X3862Y1800D01*
X3857Y1793D01*
X3853Y1787D01*
X3847Y1781D01*
X3842Y1775D01*
X3836Y1770D01*
X3835Y1770D01*
X3834Y1769D01*
X3832Y1767D01*
X3830Y1766D01*
X3826Y1764D01*
X3822Y1762D01*
X3818Y1760D01*
X3813Y1757D01*
X3807Y1755D01*
X3800Y1753D01*
X3793Y1750D01*
X3786Y1749D01*
X3778Y1747D01*
X3769Y1746D01*
X3760Y1745D01*
X3751Y1745D01*
X3748D01*
X3744Y1745D01*
X3740Y1745D01*
X3735Y1746D01*
X3728Y1747D01*
X3721Y1748D01*
X3714Y1750D01*
X3706Y1753D01*
X3697Y1755D01*
X3688Y1759D01*
X3679Y1763D01*
X3671Y1768D01*
X3662Y1774D01*
X3654Y1780D01*
X3646Y1788D01*
X3645Y1788D01*
X3644Y1790D01*
X3642Y1792D01*
X3639Y1796D01*
X3636Y1800D01*
X3633Y1806D01*
X3629Y1812D01*
X3625Y1819D01*
X3621Y1827D01*
X3618Y1836D01*
X3614Y1846D01*
X3611Y1857D01*
X3609Y1868D01*
X3606Y1880D01*
X3605Y1894D01*
X3605Y1907D01*
Y1908D01*
Y1908D01*
Y1910D01*
Y1911D01*
X3605Y1915D01*
X3606Y1921D01*
X3606Y1927D01*
X3607Y1935D01*
X3608Y1944D01*
X3610Y1953D01*
X3612Y1963D01*
X3615Y1973D01*
X3618Y1983D01*
X3622Y1994D01*
X3627Y2004D01*
X3632Y2014D01*
X3639Y2023D01*
X3646Y2032D01*
X3646Y2032D01*
X3648Y2034D01*
X3650Y2036D01*
X3654Y2039D01*
X3658Y2042D01*
X3663Y2046D01*
X3669Y2050D01*
X3675Y2054D01*
X3682Y2058D01*
X3691Y2062D01*
X3699Y2066D01*
X3709Y2069D01*
X3719Y2072D01*
X3731Y2074D01*
X3742Y2076D01*
X3754Y2076D01*
X3757D01*
X3760Y2076D01*
D02*
G37*
G36*
X6671D02*
X6676Y2075D01*
X6681Y2075D01*
X6688Y2074D01*
X6695Y2073D01*
X6709Y2070D01*
X6717Y2067D01*
X6724Y2065D01*
X6732Y2062D01*
X6739Y2058D01*
X6746Y2054D01*
X6751Y2050D01*
X6752Y2049D01*
X6753Y2048D01*
X6754Y2047D01*
X6756Y2045D01*
X6758Y2042D01*
X6761Y2039D01*
X6764Y2035D01*
X6767Y2031D01*
X6770Y2026D01*
X6773Y2021D01*
X6775Y2015D01*
X6778Y2009D01*
X6780Y2002D01*
X6782Y1995D01*
X6783Y1987D01*
X6783Y1979D01*
X6719Y1977D01*
Y1977D01*
Y1978D01*
X6719Y1979D01*
X6718Y1981D01*
X6717Y1985D01*
X6715Y1990D01*
X6713Y1996D01*
X6710Y2002D01*
X6706Y2007D01*
X6701Y2012D01*
X6700Y2012D01*
X6699Y2014D01*
X6695Y2015D01*
X6691Y2017D01*
X6685Y2020D01*
X6678Y2021D01*
X6670Y2022D01*
X6660Y2023D01*
X6656D01*
X6653Y2022D01*
X6651D01*
X6644Y2022D01*
X6637Y2020D01*
X6630Y2018D01*
X6622Y2015D01*
X6616Y2011D01*
X6616Y2011D01*
X6614Y2010D01*
X6613Y2008D01*
X6611Y2006D01*
X6609Y2003D01*
X6608Y2000D01*
X6606Y1996D01*
X6606Y1991D01*
Y1991D01*
Y1990D01*
X6606Y1987D01*
X6607Y1985D01*
X6609Y1982D01*
X6610Y1978D01*
X6612Y1975D01*
X6616Y1972D01*
X6616Y1971D01*
X6617Y1971D01*
X6618Y1970D01*
X6620Y1969D01*
X6622Y1968D01*
X6624Y1967D01*
X6628Y1965D01*
X6631Y1964D01*
X6635Y1962D01*
X6640Y1960D01*
X6646Y1958D01*
X6652Y1957D01*
X6659Y1955D01*
X6666Y1952D01*
X6675Y1950D01*
X6675D01*
X6677Y1950D01*
X6679Y1949D01*
X6683Y1948D01*
X6686Y1947D01*
X6691Y1946D01*
X6696Y1945D01*
X6701Y1943D01*
X6712Y1940D01*
X6724Y1936D01*
X6735Y1932D01*
X6740Y1929D01*
X6744Y1927D01*
X6745D01*
X6745Y1927D01*
X6746Y1926D01*
X6748Y1925D01*
X6752Y1922D01*
X6757Y1918D01*
X6763Y1914D01*
X6769Y1908D01*
X6774Y1902D01*
X6780Y1894D01*
Y1894D01*
X6780Y1893D01*
X6781Y1892D01*
X6782Y1890D01*
X6783Y1888D01*
X6784Y1886D01*
X6786Y1880D01*
X6788Y1873D01*
X6791Y1864D01*
X6792Y1854D01*
X6793Y1843D01*
Y1843D01*
Y1842D01*
Y1840D01*
X6792Y1839D01*
Y1836D01*
X6792Y1833D01*
X6791Y1826D01*
X6789Y1818D01*
X6786Y1810D01*
X6782Y1800D01*
X6777Y1791D01*
Y1791D01*
X6776Y1790D01*
X6776Y1789D01*
X6774Y1787D01*
X6771Y1783D01*
X6766Y1778D01*
X6760Y1772D01*
X6753Y1766D01*
X6744Y1761D01*
X6734Y1756D01*
X6733D01*
X6733Y1755D01*
X6731Y1755D01*
X6729Y1754D01*
X6726Y1753D01*
X6723Y1752D01*
X6719Y1751D01*
X6715Y1750D01*
X6710Y1749D01*
X6705Y1748D01*
X6699Y1747D01*
X6693Y1746D01*
X6679Y1745D01*
X6664Y1744D01*
X6659D01*
X6654Y1745D01*
X6649Y1745D01*
X6644Y1746D01*
X6637Y1747D01*
X6630Y1747D01*
X6615Y1751D01*
X6607Y1753D01*
X6599Y1756D01*
X6592Y1759D01*
X6584Y1763D01*
X6577Y1767D01*
X6571Y1772D01*
X6571Y1772D01*
X6570Y1773D01*
X6568Y1775D01*
X6566Y1777D01*
X6563Y1780D01*
X6561Y1784D01*
X6557Y1788D01*
X6554Y1793D01*
X6551Y1798D01*
X6547Y1804D01*
X6544Y1811D01*
X6541Y1818D01*
X6538Y1826D01*
X6536Y1835D01*
X6534Y1844D01*
X6532Y1854D01*
X6595Y1860D01*
Y1860D01*
X6596Y1859D01*
X6596Y1857D01*
X6596Y1855D01*
X6597Y1852D01*
X6598Y1849D01*
X6600Y1842D01*
X6603Y1835D01*
X6607Y1827D01*
X6612Y1820D01*
X6618Y1813D01*
X6619Y1813D01*
X6621Y1811D01*
X6625Y1809D01*
X6631Y1806D01*
X6637Y1803D01*
X6645Y1801D01*
X6654Y1800D01*
X6665Y1799D01*
X6668D01*
X6670Y1799D01*
X6673D01*
X6676Y1800D01*
X6682Y1800D01*
X6690Y1802D01*
X6698Y1804D01*
X6705Y1807D01*
X6712Y1812D01*
X6713Y1812D01*
X6714Y1814D01*
X6717Y1817D01*
X6720Y1820D01*
X6723Y1825D01*
X6726Y1830D01*
X6727Y1836D01*
X6728Y1842D01*
Y1843D01*
Y1845D01*
X6728Y1847D01*
X6727Y1849D01*
X6726Y1852D01*
X6725Y1856D01*
X6723Y1859D01*
X6721Y1862D01*
X6721Y1862D01*
X6720Y1863D01*
X6719Y1865D01*
X6716Y1867D01*
X6713Y1869D01*
X6709Y1871D01*
X6704Y1874D01*
X6698Y1876D01*
X6698Y1876D01*
X6696Y1877D01*
X6694Y1877D01*
X6692Y1877D01*
X6690Y1878D01*
X6687Y1879D01*
X6684Y1880D01*
X6681Y1881D01*
X6676Y1882D01*
X6671Y1884D01*
X6666Y1885D01*
X6660Y1887D01*
X6654Y1888D01*
X6646Y1890D01*
X6646D01*
X6644Y1890D01*
X6641Y1891D01*
X6638Y1892D01*
X6634Y1894D01*
X6629Y1895D01*
X6624Y1897D01*
X6618Y1899D01*
X6606Y1903D01*
X6594Y1909D01*
X6588Y1912D01*
X6583Y1915D01*
X6578Y1918D01*
X6574Y1922D01*
X6573Y1922D01*
X6572Y1923D01*
X6571Y1925D01*
X6569Y1926D01*
X6567Y1929D01*
X6564Y1932D01*
X6562Y1936D01*
X6559Y1940D01*
X6556Y1944D01*
X6554Y1949D01*
X6549Y1960D01*
X6547Y1966D01*
X6546Y1973D01*
X6545Y1980D01*
X6544Y1987D01*
Y1987D01*
Y1988D01*
Y1989D01*
X6545Y1991D01*
X6545Y1995D01*
X6546Y2001D01*
X6548Y2008D01*
X6550Y2016D01*
X6554Y2024D01*
X6558Y2032D01*
Y2032D01*
X6559Y2033D01*
X6561Y2036D01*
X6564Y2040D01*
X6568Y2044D01*
X6574Y2050D01*
X6581Y2055D01*
X6589Y2060D01*
X6598Y2065D01*
X6598D01*
X6599Y2065D01*
X6600Y2066D01*
X6602Y2067D01*
X6605Y2067D01*
X6608Y2069D01*
X6611Y2070D01*
X6616Y2071D01*
X6620Y2072D01*
X6625Y2072D01*
X6635Y2075D01*
X6647Y2076D01*
X6661Y2076D01*
X6666D01*
X6671Y2076D01*
D02*
G37*
G36*
X916Y-3740D02*
X928Y-3758D01*
X948Y-3786D01*
X972Y-3812D01*
X998Y-3836D01*
X1026Y-3857D01*
X1056Y-3875D01*
X1088Y-3890D01*
X1121Y-3902D01*
X1155Y-3910D01*
X1190Y-3915D01*
X1199Y-3916D01*
X1199Y-3916D01*
X1214Y-3926D01*
X1245Y-3943D01*
X1278Y-3957D01*
X1312Y-3967D01*
X1347Y-3972D01*
X1382Y-3974D01*
X1417Y-3972D01*
X1452Y-3967D01*
X1486Y-3957D01*
X1493Y-3954D01*
X1493Y-3954D01*
X1493Y-3954D01*
X1493Y-3954D01*
X1486Y-3964D01*
X1463Y-3989D01*
X1438Y-4012D01*
X1411Y-4032D01*
X1381Y-4050D01*
X1351Y-4064D01*
X1319Y-4076D01*
X1286Y-4084D01*
X1252Y-4089D01*
X1218Y-4090D01*
X1185Y-4089D01*
X1185Y-4088D01*
X1185Y-4089D01*
X1185Y-4089D01*
X1196Y-4098D01*
X1234Y-4129D01*
X1275Y-4156D01*
X1318Y-4180D01*
X1362Y-4200D01*
X1408Y-4217D01*
X1455Y-4231D01*
X1503Y-4240D01*
X1552Y-4246D01*
X1601Y-4248D01*
X1607Y-4248D01*
X1607Y-4248D01*
X1568Y-4275D01*
X1524Y-4301D01*
X1478Y-4324D01*
X1431Y-4343D01*
X1383Y-4359D01*
X1334Y-4372D01*
X1284Y-4381D01*
X1233Y-4387D01*
X1183Y-4388D01*
X1132Y-4387D01*
X1081Y-4381D01*
X1059Y-4377D01*
X1059Y-4377D01*
X1034Y-4366D01*
X988Y-4341D01*
X944Y-4314D01*
X902Y-4284D01*
X863Y-4251D01*
X825Y-4216D01*
X790Y-4178D01*
X757Y-4139D01*
X727Y-4097D01*
X700Y-4053D01*
X675Y-4007D01*
X654Y-3960D01*
X636Y-3912D01*
X621Y-3863D01*
X609Y-3813D01*
X606Y-3795D01*
X629Y-3839D01*
X655Y-3884D01*
X684Y-3926D01*
X717Y-3966D01*
X752Y-4004D01*
X790Y-4039D01*
X830Y-4072D01*
X873Y-4101D01*
X917Y-4128D01*
X963Y-4151D01*
X1011Y-4170D01*
X1016Y-4172D01*
X1016Y-4172D01*
X1000Y-4147D01*
X976Y-4105D01*
X956Y-4062D01*
X940Y-4017D01*
X927Y-3970D01*
X917Y-3923D01*
X912Y-3875D01*
X910Y-3827D01*
X912Y-3779D01*
X916Y-3740D01*
X916Y-3740D01*
D02*
G37*
G36*
X1219Y-4103D02*
X1219Y-4103D01*
X1219Y-4102D01*
X1219Y-4103D01*
D02*
G37*
G36*
X1886Y-4264D02*
X1886Y-4264D01*
X1886Y-4264D01*
X1886Y-4264D01*
D02*
G37*
G36*
X1694Y-3711D02*
X1705Y-3743D01*
X1714Y-3776D01*
X1719Y-3810D01*
X1720Y-3844D01*
X1719Y-3877D01*
X1714Y-3911D01*
X1705Y-3944D01*
X1694Y-3976D01*
X1679Y-4007D01*
X1662Y-4036D01*
X1655Y-4044D01*
X1656Y-4045D01*
X1700Y-4028D01*
X1744Y-4008D01*
X1787Y-3984D01*
X1828Y-3957D01*
X1866Y-3926D01*
X1902Y-3893D01*
X1935Y-3857D01*
X1966Y-3819D01*
X1993Y-3778D01*
X2004Y-3758D01*
X2004Y-3758D01*
X2007Y-3790D01*
X2009Y-3840D01*
X2007Y-3891D01*
X2002Y-3942D01*
X1993Y-3992D01*
X1980Y-4041D01*
X1964Y-4089D01*
X1945Y-4136D01*
X1922Y-4182D01*
X1896Y-4225D01*
X1867Y-4267D01*
X1842Y-4298D01*
X1842Y-4298D01*
X1820Y-4314D01*
X1776Y-4341D01*
X1730Y-4366D01*
X1683Y-4387D01*
X1635Y-4405D01*
X1586Y-4420D01*
X1536Y-4432D01*
X1485Y-4440D01*
X1434Y-4445D01*
X1382Y-4447D01*
X1330Y-4445D01*
X1279Y-4440D01*
X1228Y-4432D01*
X1178Y-4420D01*
X1129Y-4405D01*
X1111Y-4398D01*
X1127Y-4400D01*
X1178Y-4402D01*
X1230Y-4400D01*
X1281Y-4394D01*
X1332Y-4385D01*
X1382Y-4372D01*
X1431Y-4356D01*
X1479Y-4336D01*
X1525Y-4313D01*
X1570Y-4287D01*
X1612Y-4257D01*
X1643Y-4232D01*
X1643Y-4232D01*
X1644Y-4232D01*
X1643Y-4232D01*
X1598Y-4234D01*
X1550Y-4232D01*
X1502Y-4227D01*
X1455Y-4217D01*
X1409Y-4204D01*
X1363Y-4188D01*
X1320Y-4168D01*
X1278Y-4144D01*
X1238Y-4117D01*
X1219Y-4103D01*
X1252Y-4101D01*
X1287Y-4096D01*
X1321Y-4087D01*
X1354Y-4076D01*
X1386Y-4061D01*
X1416Y-4043D01*
X1444Y-4022D01*
X1470Y-3998D01*
X1494Y-3972D01*
X1513Y-3946D01*
X1513Y-3946D01*
X1519Y-3943D01*
X1550Y-3926D01*
X1579Y-3906D01*
X1605Y-3882D01*
X1629Y-3856D01*
X1649Y-3827D01*
X1666Y-3796D01*
X1680Y-3763D01*
X1690Y-3729D01*
X1693Y-3710D01*
X1693Y-3710D01*
X1694Y-3711D01*
D02*
G37*
G36*
X1886Y-4264D02*
X1886Y-4264D01*
X1886Y-4264D01*
X1886Y-4264D01*
D02*
G37*
%LPC*%
G36*
X3302Y2016D02*
X3259D01*
Y1925D01*
X3303D01*
X3307Y1925D01*
X3314Y1926D01*
X3323Y1926D01*
X3331Y1927D01*
X3335Y1927D01*
X3339Y1928D01*
X3342Y1929D01*
X3344Y1930D01*
X3345Y1930D01*
X3347Y1931D01*
X3349Y1932D01*
X3352Y1934D01*
X3355Y1936D01*
X3359Y1939D01*
X3362Y1942D01*
X3365Y1945D01*
X3365Y1946D01*
X3366Y1947D01*
X3367Y1950D01*
X3369Y1952D01*
X3370Y1956D01*
X3371Y1961D01*
X3372Y1965D01*
X3372Y1971D01*
Y1972D01*
Y1974D01*
X3372Y1977D01*
X3371Y1981D01*
X3370Y1985D01*
X3368Y1990D01*
X3365Y1995D01*
X3362Y2000D01*
X3362Y2000D01*
X3360Y2001D01*
X3358Y2003D01*
X3355Y2005D01*
X3351Y2008D01*
X3347Y2010D01*
X3342Y2012D01*
X3336Y2014D01*
X3336D01*
X3334Y2014D01*
X3331Y2015D01*
X3326Y2015D01*
X3323Y2015D01*
X3319D01*
X3316Y2016D01*
X3307D01*
X3302Y2016D01*
D02*
G37*
G36*
X8489Y1996D02*
X8445Y1877D01*
X8533D01*
X8489Y1996D01*
D02*
G37*
G36*
X3485Y-4917D02*
X3483D01*
X3481Y-4917D01*
X3480D01*
X3478Y-4917D01*
X3475Y-4917D01*
X3475D01*
X3474Y-4917D01*
X3473Y-4918D01*
X3473Y-4918D01*
X3470Y-4919D01*
X3468Y-4920D01*
X3468Y-4920D01*
X3467Y-4920D01*
X3467Y-4921D01*
X3466Y-4922D01*
X3464Y-4923D01*
X3463Y-4925D01*
Y-4926D01*
X3463Y-4926D01*
X3463Y-4927D01*
X3462Y-4928D01*
X3462Y-4929D01*
X3462Y-4930D01*
X3462Y-4932D01*
Y-4934D01*
Y-4934D01*
Y-4935D01*
Y-4935D01*
X3462Y-4936D01*
X3462Y-4937D01*
X3462Y-4939D01*
X3463Y-4941D01*
Y-4942D01*
X3463Y-4942D01*
X3463Y-4943D01*
X3464Y-4944D01*
X3465Y-4946D01*
X3467Y-4949D01*
X3508D01*
Y-4948D01*
X3508Y-4948D01*
X3508Y-4948D01*
X3508Y-4947D01*
X3509Y-4945D01*
X3509Y-4943D01*
Y-4943D01*
X3510Y-4943D01*
Y-4942D01*
X3510Y-4941D01*
X3510Y-4939D01*
X3510Y-4937D01*
Y-4937D01*
Y-4937D01*
Y-4936D01*
X3510Y-4935D01*
X3510Y-4934D01*
X3509Y-4931D01*
X3508Y-4929D01*
X3507Y-4926D01*
X3506Y-4924D01*
X3503Y-4922D01*
X3503Y-4922D01*
X3502Y-4921D01*
X3501Y-4920D01*
X3499Y-4919D01*
X3496Y-4918D01*
X3493Y-4917D01*
X3489Y-4917D01*
X3485Y-4917D01*
D02*
G37*
G36*
X4693Y2016D02*
X4650D01*
Y1925D01*
X4695D01*
X4698Y1925D01*
X4706Y1926D01*
X4715Y1926D01*
X4723Y1927D01*
X4727Y1927D01*
X4730Y1928D01*
X4734Y1929D01*
X4736Y1930D01*
X4737Y1930D01*
X4738Y1931D01*
X4741Y1932D01*
X4744Y1934D01*
X4747Y1936D01*
X4750Y1939D01*
X4754Y1942D01*
X4757Y1945D01*
X4757Y1946D01*
X4758Y1947D01*
X4759Y1950D01*
X4760Y1952D01*
X4762Y1956D01*
X4763Y1961D01*
X4764Y1965D01*
X4764Y1971D01*
Y1972D01*
Y1974D01*
X4764Y1977D01*
X4763Y1981D01*
X4762Y1985D01*
X4760Y1990D01*
X4757Y1995D01*
X4754Y2000D01*
X4753Y2000D01*
X4752Y2001D01*
X4750Y2003D01*
X4747Y2005D01*
X4743Y2008D01*
X4738Y2010D01*
X4733Y2012D01*
X4728Y2014D01*
X4728D01*
X4725Y2014D01*
X4723Y2015D01*
X4718Y2015D01*
X4715Y2015D01*
X4711D01*
X4708Y2016D01*
X4699D01*
X4693Y2016D01*
D02*
G37*
G36*
X4395D02*
X4352D01*
Y1925D01*
X4396D01*
X4400Y1925D01*
X4408Y1926D01*
X4416Y1926D01*
X4425Y1927D01*
X4429Y1927D01*
X4432Y1928D01*
X4436Y1929D01*
X4438Y1930D01*
X4438Y1930D01*
X4440Y1931D01*
X4443Y1932D01*
X4446Y1934D01*
X4449Y1936D01*
X4452Y1939D01*
X4456Y1942D01*
X4458Y1945D01*
X4459Y1946D01*
X4460Y1947D01*
X4461Y1950D01*
X4462Y1952D01*
X4463Y1956D01*
X4465Y1961D01*
X4466Y1965D01*
X4466Y1971D01*
Y1972D01*
Y1974D01*
X4466Y1977D01*
X4465Y1981D01*
X4463Y1985D01*
X4461Y1990D01*
X4459Y1995D01*
X4456Y2000D01*
X4455Y2000D01*
X4454Y2001D01*
X4451Y2003D01*
X4448Y2005D01*
X4445Y2008D01*
X4440Y2010D01*
X4435Y2012D01*
X4430Y2014D01*
X4429D01*
X4427Y2014D01*
X4424Y2015D01*
X4420Y2015D01*
X4416Y2015D01*
X4413D01*
X4409Y2016D01*
X4401D01*
X4395Y2016D01*
D02*
G37*
G36*
X3495Y-5126D02*
Y-5161D01*
X3496D01*
X3496Y-5160D01*
X3498Y-5160D01*
X3500Y-5160D01*
X3502Y-5159D01*
X3505Y-5159D01*
X3507Y-5158D01*
X3509Y-5156D01*
X3509Y-5156D01*
X3510Y-5156D01*
X3510Y-5155D01*
X3511Y-5153D01*
X3512Y-5152D01*
X3513Y-5150D01*
X3513Y-5147D01*
X3514Y-5144D01*
Y-5144D01*
Y-5144D01*
Y-5143D01*
X3513Y-5141D01*
X3513Y-5140D01*
X3512Y-5137D01*
X3511Y-5135D01*
X3510Y-5133D01*
X3508Y-5131D01*
X3508Y-5131D01*
X3508Y-5131D01*
X3506Y-5130D01*
X3505Y-5129D01*
X3503Y-5128D01*
X3501Y-5127D01*
X3498Y-5126D01*
X3495Y-5126D01*
D02*
G37*
G36*
X6011Y2016D02*
X5968D01*
Y1925D01*
X6012D01*
X6016Y1925D01*
X6024Y1926D01*
X6032Y1926D01*
X6040Y1927D01*
X6044Y1927D01*
X6048Y1928D01*
X6051Y1929D01*
X6054Y1930D01*
X6054Y1930D01*
X6056Y1931D01*
X6058Y1932D01*
X6061Y1934D01*
X6064Y1936D01*
X6068Y1939D01*
X6071Y1942D01*
X6074Y1945D01*
X6074Y1946D01*
X6075Y1947D01*
X6077Y1950D01*
X6078Y1952D01*
X6079Y1956D01*
X6080Y1961D01*
X6081Y1965D01*
X6082Y1971D01*
Y1972D01*
Y1974D01*
X6081Y1977D01*
X6080Y1981D01*
X6079Y1985D01*
X6077Y1990D01*
X6074Y1995D01*
X6071Y2000D01*
X6071Y2000D01*
X6069Y2001D01*
X6067Y2003D01*
X6064Y2005D01*
X6060Y2008D01*
X6056Y2010D01*
X6051Y2012D01*
X6045Y2014D01*
X6045D01*
X6043Y2014D01*
X6040Y2015D01*
X6035Y2015D01*
X6032Y2015D01*
X6029D01*
X6025Y2016D01*
X6016D01*
X6011Y2016D01*
D02*
G37*
G36*
X4082Y2021D02*
X4078D01*
X4075Y2020D01*
X4072Y2020D01*
X4068Y2020D01*
X4064Y2019D01*
X4059Y2017D01*
X4049Y2014D01*
X4043Y2012D01*
X4038Y2009D01*
X4032Y2006D01*
X4027Y2002D01*
X4022Y1998D01*
X4017Y1993D01*
X4017Y1993D01*
X4016Y1992D01*
X4015Y1990D01*
X4014Y1988D01*
X4012Y1985D01*
X4010Y1982D01*
X4007Y1977D01*
X4005Y1972D01*
X4003Y1967D01*
X4001Y1961D01*
X3999Y1954D01*
X3997Y1947D01*
X3995Y1939D01*
X3994Y1930D01*
X3994Y1920D01*
X3993Y1910D01*
Y1910D01*
Y1908D01*
Y1905D01*
X3994Y1902D01*
X3994Y1897D01*
X3994Y1892D01*
X3995Y1886D01*
X3996Y1880D01*
X3999Y1866D01*
X4001Y1859D01*
X4004Y1852D01*
X4006Y1846D01*
X4010Y1839D01*
X4014Y1833D01*
X4018Y1827D01*
X4019Y1827D01*
X4019Y1826D01*
X4021Y1825D01*
X4023Y1823D01*
X4025Y1821D01*
X4028Y1819D01*
X4031Y1816D01*
X4036Y1814D01*
X4040Y1811D01*
X4045Y1808D01*
X4050Y1806D01*
X4056Y1804D01*
X4061Y1802D01*
X4068Y1801D01*
X4075Y1800D01*
X4082Y1800D01*
X4086D01*
X4088Y1800D01*
X4091Y1800D01*
X4096Y1801D01*
X4100Y1802D01*
X4104Y1803D01*
X4114Y1806D01*
X4120Y1809D01*
X4125Y1811D01*
X4130Y1815D01*
X4136Y1818D01*
X4141Y1822D01*
X4145Y1827D01*
X4146Y1828D01*
X4146Y1829D01*
X4148Y1830D01*
X4149Y1833D01*
X4151Y1836D01*
X4153Y1839D01*
X4155Y1844D01*
X4158Y1848D01*
X4160Y1854D01*
X4162Y1860D01*
X4164Y1867D01*
X4166Y1875D01*
X4168Y1883D01*
X4169Y1892D01*
X4170Y1901D01*
X4170Y1911D01*
Y1912D01*
Y1914D01*
Y1917D01*
X4170Y1920D01*
X4169Y1925D01*
X4169Y1930D01*
X4168Y1936D01*
X4167Y1942D01*
X4164Y1955D01*
X4162Y1962D01*
X4160Y1969D01*
X4157Y1976D01*
X4154Y1982D01*
X4150Y1988D01*
X4146Y1993D01*
X4146Y1994D01*
X4145Y1995D01*
X4143Y1996D01*
X4141Y1997D01*
X4139Y2000D01*
X4136Y2002D01*
X4133Y2005D01*
X4129Y2007D01*
X4125Y2010D01*
X4120Y2012D01*
X4114Y2015D01*
X4109Y2017D01*
X4103Y2018D01*
X4096Y2020D01*
X4089Y2020D01*
X4082Y2021D01*
D02*
G37*
G36*
X2988D02*
X2985D01*
X2982Y2020D01*
X2978Y2020D01*
X2975Y2020D01*
X2970Y2019D01*
X2965Y2017D01*
X2955Y2014D01*
X2950Y2012D01*
X2944Y2009D01*
X2939Y2006D01*
X2934Y2002D01*
X2928Y1998D01*
X2924Y1993D01*
X2923Y1993D01*
X2923Y1992D01*
X2922Y1990D01*
X2920Y1988D01*
X2918Y1985D01*
X2916Y1982D01*
X2914Y1977D01*
X2912Y1972D01*
X2910Y1967D01*
X2907Y1961D01*
X2905Y1954D01*
X2903Y1947D01*
X2902Y1939D01*
X2901Y1930D01*
X2900Y1920D01*
X2900Y1910D01*
Y1910D01*
Y1908D01*
Y1905D01*
X2900Y1902D01*
X2900Y1897D01*
X2901Y1892D01*
X2902Y1886D01*
X2903Y1880D01*
X2906Y1866D01*
X2908Y1859D01*
X2910Y1852D01*
X2913Y1846D01*
X2916Y1839D01*
X2920Y1833D01*
X2925Y1827D01*
X2925Y1827D01*
X2926Y1826D01*
X2927Y1825D01*
X2929Y1823D01*
X2932Y1821D01*
X2935Y1819D01*
X2938Y1816D01*
X2942Y1814D01*
X2946Y1811D01*
X2951Y1808D01*
X2956Y1806D01*
X2962Y1804D01*
X2968Y1802D01*
X2975Y1801D01*
X2981Y1800D01*
X2988Y1800D01*
X2992D01*
X2995Y1800D01*
X2998Y1800D01*
X3002Y1801D01*
X3006Y1802D01*
X3011Y1803D01*
X3021Y1806D01*
X3026Y1809D01*
X3031Y1811D01*
X3037Y1815D01*
X3042Y1818D01*
X3047Y1822D01*
X3052Y1827D01*
X3052Y1828D01*
X3053Y1829D01*
X3054Y1830D01*
X3055Y1833D01*
X3057Y1836D01*
X3060Y1839D01*
X3062Y1844D01*
X3064Y1848D01*
X3067Y1854D01*
X3069Y1860D01*
X3071Y1867D01*
X3073Y1875D01*
X3074Y1883D01*
X3075Y1892D01*
X3076Y1901D01*
X3077Y1911D01*
Y1912D01*
Y1914D01*
Y1917D01*
X3076Y1920D01*
X3076Y1925D01*
X3075Y1930D01*
X3074Y1936D01*
X3074Y1942D01*
X3071Y1955D01*
X3069Y1962D01*
X3067Y1969D01*
X3064Y1976D01*
X3060Y1982D01*
X3057Y1988D01*
X3052Y1993D01*
X3052Y1994D01*
X3051Y1995D01*
X3050Y1996D01*
X3048Y1997D01*
X3046Y2000D01*
X3043Y2002D01*
X3039Y2005D01*
X3035Y2007D01*
X3031Y2010D01*
X3026Y2012D01*
X3021Y2015D01*
X3015Y2017D01*
X3009Y2018D01*
X3002Y2020D01*
X2996Y2020D01*
X2988Y2021D01*
D02*
G37*
G36*
X1852Y-3615D02*
X1852Y-3615D01*
X1852Y-3615D01*
D01*
D02*
G37*
G36*
X5321Y2016D02*
X5247D01*
Y1935D01*
X5306D01*
X5310Y1935D01*
X5320D01*
X5330Y1936D01*
X5339Y1937D01*
X5343Y1937D01*
X5347Y1937D01*
X5350Y1938D01*
X5353Y1939D01*
X5353D01*
X5355Y1940D01*
X5357Y1940D01*
X5360Y1942D01*
X5362Y1944D01*
X5365Y1946D01*
X5369Y1949D01*
X5371Y1952D01*
X5372Y1952D01*
X5372Y1954D01*
X5373Y1956D01*
X5375Y1959D01*
X5376Y1962D01*
X5377Y1967D01*
X5377Y1971D01*
X5378Y1976D01*
Y1977D01*
Y1979D01*
X5377Y1982D01*
X5377Y1986D01*
X5376Y1990D01*
X5374Y1994D01*
X5372Y1998D01*
X5369Y2002D01*
X5369Y2003D01*
X5367Y2004D01*
X5365Y2006D01*
X5363Y2008D01*
X5359Y2010D01*
X5355Y2012D01*
X5350Y2014D01*
X5345Y2015D01*
X5344D01*
X5343Y2015D01*
X5338D01*
X5336Y2016D01*
X5326D01*
X5321Y2016D01*
D02*
G37*
G36*
X9422D02*
X9348D01*
Y1935D01*
X9407D01*
X9411Y1935D01*
X9420D01*
X9430Y1936D01*
X9440Y1937D01*
X9444Y1937D01*
X9448Y1937D01*
X9451Y1938D01*
X9453Y1939D01*
X9454D01*
X9456Y1940D01*
X9458Y1940D01*
X9460Y1942D01*
X9463Y1944D01*
X9466Y1946D01*
X9469Y1949D01*
X9472Y1952D01*
X9472Y1952D01*
X9473Y1954D01*
X9474Y1956D01*
X9475Y1959D01*
X9476Y1962D01*
X9478Y1967D01*
X9478Y1971D01*
X9478Y1976D01*
Y1977D01*
Y1979D01*
X9478Y1982D01*
X9477Y1986D01*
X9476Y1990D01*
X9475Y1994D01*
X9473Y1998D01*
X9470Y2002D01*
X9469Y2003D01*
X9468Y2004D01*
X9466Y2006D01*
X9463Y2008D01*
X9460Y2010D01*
X9456Y2012D01*
X9451Y2014D01*
X9445Y2015D01*
X9445D01*
X9443Y2015D01*
X9438D01*
X9436Y2016D01*
X9426D01*
X9422Y2016D01*
D02*
G37*
G36*
X6344Y2021D02*
X6340D01*
X6337Y2020D01*
X6334Y2020D01*
X6330Y2020D01*
X6325Y2019D01*
X6321Y2017D01*
X6310Y2014D01*
X6305Y2012D01*
X6299Y2009D01*
X6294Y2006D01*
X6289Y2002D01*
X6284Y1998D01*
X6279Y1993D01*
X6279Y1993D01*
X6278Y1992D01*
X6277Y1990D01*
X6275Y1988D01*
X6274Y1985D01*
X6271Y1982D01*
X6269Y1977D01*
X6267Y1972D01*
X6265Y1967D01*
X6262Y1961D01*
X6260Y1954D01*
X6259Y1947D01*
X6257Y1939D01*
X6256Y1930D01*
X6255Y1920D01*
X6255Y1910D01*
Y1910D01*
Y1908D01*
Y1905D01*
X6255Y1902D01*
X6256Y1897D01*
X6256Y1892D01*
X6257Y1886D01*
X6258Y1880D01*
X6261Y1866D01*
X6263Y1859D01*
X6265Y1852D01*
X6268Y1846D01*
X6271Y1839D01*
X6275Y1833D01*
X6280Y1827D01*
X6280Y1827D01*
X6281Y1826D01*
X6282Y1825D01*
X6284Y1823D01*
X6287Y1821D01*
X6290Y1819D01*
X6293Y1816D01*
X6297Y1814D01*
X6301Y1811D01*
X6306Y1808D01*
X6311Y1806D01*
X6317Y1804D01*
X6323Y1802D01*
X6330Y1801D01*
X6336Y1800D01*
X6344Y1800D01*
X6347D01*
X6350Y1800D01*
X6353Y1800D01*
X6357Y1801D01*
X6361Y1802D01*
X6366Y1803D01*
X6376Y1806D01*
X6381Y1809D01*
X6386Y1811D01*
X6392Y1815D01*
X6397Y1818D01*
X6402Y1822D01*
X6407Y1827D01*
X6407Y1828D01*
X6408Y1829D01*
X6409Y1830D01*
X6411Y1833D01*
X6413Y1836D01*
X6415Y1839D01*
X6417Y1844D01*
X6419Y1848D01*
X6422Y1854D01*
X6424Y1860D01*
X6426Y1867D01*
X6428Y1875D01*
X6429Y1883D01*
X6431Y1892D01*
X6431Y1901D01*
X6432Y1911D01*
Y1912D01*
Y1914D01*
Y1917D01*
X6431Y1920D01*
X6431Y1925D01*
X6431Y1930D01*
X6430Y1936D01*
X6429Y1942D01*
X6426Y1955D01*
X6424Y1962D01*
X6422Y1969D01*
X6419Y1976D01*
X6416Y1982D01*
X6412Y1988D01*
X6408Y1993D01*
X6407Y1994D01*
X6406Y1995D01*
X6405Y1996D01*
X6403Y1997D01*
X6401Y2000D01*
X6398Y2002D01*
X6394Y2005D01*
X6391Y2007D01*
X6386Y2010D01*
X6381Y2012D01*
X6376Y2015D01*
X6371Y2017D01*
X6364Y2018D01*
X6358Y2020D01*
X6351Y2020D01*
X6344Y2021D01*
D02*
G37*
%LPD*%
D10*
X1382Y-3659D02*
D03*
D11*
X-140Y-7484D02*
D03*
X-196D02*
D03*
X-780D02*
D03*
X-836D02*
D03*
X-625Y-6534D02*
D03*
X-681D02*
D03*
X215Y-1229D02*
D03*
X159D02*
D03*
X5976Y-7594D02*
D03*
X6032D02*
D03*
X5410Y-7341D02*
D03*
X5354D02*
D03*
X5410Y-7809D02*
D03*
X5354D02*
D03*
X5530Y-7404D02*
D03*
X5474D02*
D03*
X5535Y-7748D02*
D03*
X5479D02*
D03*
X2530Y-3659D02*
D03*
X2474D02*
D03*
X280D02*
D03*
X224D02*
D03*
X2410Y-3724D02*
D03*
X2354D02*
D03*
X410D02*
D03*
X354D02*
D03*
X2548Y-3863D02*
D03*
X2492D02*
D03*
X279Y-3450D02*
D03*
X223D02*
D03*
X225Y966D02*
D03*
X169D02*
D03*
X-844Y-99D02*
D03*
X-900D02*
D03*
X1145Y-154D02*
D03*
X1089D02*
D03*
X3928Y-2056D02*
D03*
X3872D02*
D03*
X4278Y-2051D02*
D03*
X4222D02*
D03*
X4023Y-2311D02*
D03*
X3967D02*
D03*
X3918D02*
D03*
X3862D02*
D03*
X4378Y-2326D02*
D03*
X4322D02*
D03*
X4378Y-2271D02*
D03*
X4322D02*
D03*
X4018Y-2256D02*
D03*
X3962D02*
D03*
X3918D02*
D03*
X3862D02*
D03*
X3409Y-3543D02*
D03*
X3353D02*
D03*
X-520Y-6349D02*
D03*
X-576D02*
D03*
X-520Y-6299D02*
D03*
X-576D02*
D03*
X3483Y-2361D02*
D03*
X3427D02*
D03*
X3378D02*
D03*
X3322D02*
D03*
X4298Y-2101D02*
D03*
X4242D02*
D03*
X4348Y-2666D02*
D03*
X4292D02*
D03*
X3238Y-2495D02*
D03*
X3182D02*
D03*
X3823Y-2516D02*
D03*
X3767D02*
D03*
X3643Y-2306D02*
D03*
X3587D02*
D03*
X-720Y-7079D02*
D03*
X-776D02*
D03*
X-720Y-6914D02*
D03*
X-776D02*
D03*
X-720Y-6994D02*
D03*
X-776D02*
D03*
X-100Y-7019D02*
D03*
X-156D02*
D03*
X-100Y-6929D02*
D03*
X-156D02*
D03*
X-100Y-7124D02*
D03*
X-156D02*
D03*
X-100Y-7069D02*
D03*
X-156D02*
D03*
X-160Y-5494D02*
D03*
X-216D02*
D03*
X-160Y-5559D02*
D03*
X-216D02*
D03*
X-285Y-6464D02*
D03*
X-341D02*
D03*
X475Y-6164D02*
D03*
X419D02*
D03*
X475Y-6214D02*
D03*
X419D02*
D03*
X475Y-6114D02*
D03*
X419D02*
D03*
X488Y-6594D02*
D03*
X432D02*
D03*
X115Y-6634D02*
D03*
X59D02*
D03*
X115Y-6574D02*
D03*
X59D02*
D03*
X310Y-5814D02*
D03*
X254D02*
D03*
X310Y-5729D02*
D03*
X254D02*
D03*
X115Y-6719D02*
D03*
X59D02*
D03*
X706Y-5913D02*
D03*
X650D02*
D03*
X578Y-6171D02*
D03*
X634D02*
D03*
X1005Y-6344D02*
D03*
X949D02*
D03*
X-230Y-6264D02*
D03*
X-286D02*
D03*
X220Y-6574D02*
D03*
X164D02*
D03*
X3213Y-1512D02*
D03*
X3157D02*
D03*
X3313D02*
D03*
X3257D02*
D03*
X3238Y-1867D02*
D03*
X3182D02*
D03*
X3338D02*
D03*
X3282D02*
D03*
X3343Y-1792D02*
D03*
X3287D02*
D03*
X3238D02*
D03*
X3182D02*
D03*
X3308Y-1727D02*
D03*
X3252D02*
D03*
D12*
X-338Y-7484D02*
D03*
X-638D02*
D03*
X736Y-6463D02*
D03*
X436D02*
D03*
D13*
X-303Y-6651D02*
D03*
Y-6707D02*
D03*
X1622Y544D02*
D03*
Y488D02*
D03*
X1567Y544D02*
D03*
Y488D02*
D03*
X1382Y-4751D02*
D03*
Y-4807D02*
D03*
Y-2501D02*
D03*
Y-2557D02*
D03*
X1317Y-4631D02*
D03*
Y-4687D02*
D03*
Y-2641D02*
D03*
Y-2697D02*
D03*
X1147Y-2491D02*
D03*
Y-2547D02*
D03*
X4092Y-1721D02*
D03*
Y-1776D02*
D03*
X4337Y-1721D02*
D03*
Y-1776D02*
D03*
X4025Y-1998D02*
D03*
Y-2053D02*
D03*
X3919Y-1574D02*
D03*
Y-1630D02*
D03*
X4037Y-1841D02*
D03*
Y-1896D02*
D03*
X4277Y-1836D02*
D03*
Y-1891D02*
D03*
X3902Y-1711D02*
D03*
Y-1766D02*
D03*
X4074Y-1579D02*
D03*
Y-1635D02*
D03*
X3999Y-1579D02*
D03*
Y-1635D02*
D03*
X4159Y-1579D02*
D03*
Y-1635D02*
D03*
X4314Y-1579D02*
D03*
Y-1635D02*
D03*
X4234Y-1579D02*
D03*
Y-1635D02*
D03*
X4147Y-1721D02*
D03*
Y-1776D02*
D03*
X3320Y-3178D02*
D03*
Y-3233D02*
D03*
X1142Y-5941D02*
D03*
Y-5997D02*
D03*
X1192Y-5941D02*
D03*
Y-5997D02*
D03*
X1242Y-5941D02*
D03*
Y-5997D02*
D03*
X1292Y-5941D02*
D03*
Y-5997D02*
D03*
X1342Y-5941D02*
D03*
Y-5997D02*
D03*
X2382Y191D02*
D03*
Y136D02*
D03*
Y291D02*
D03*
Y236D02*
D03*
X2327Y191D02*
D03*
Y136D02*
D03*
Y291D02*
D03*
Y236D02*
D03*
X2272Y191D02*
D03*
Y136D02*
D03*
Y291D02*
D03*
Y236D02*
D03*
X2217Y191D02*
D03*
Y136D02*
D03*
Y291D02*
D03*
Y236D02*
D03*
X1567Y-51D02*
D03*
Y-107D02*
D03*
X4050Y-2133D02*
D03*
Y-2188D02*
D03*
X4255Y-2158D02*
D03*
Y-2213D02*
D03*
X3985Y-2148D02*
D03*
Y-2203D02*
D03*
X3795Y-2148D02*
D03*
Y-2203D02*
D03*
X4515Y-2433D02*
D03*
Y-2488D02*
D03*
X4400Y-2433D02*
D03*
Y-2488D02*
D03*
X4200Y-2498D02*
D03*
Y-2553D02*
D03*
X1717Y529D02*
D03*
Y473D02*
D03*
Y-51D02*
D03*
Y-107D02*
D03*
X3425Y-2413D02*
D03*
Y-2468D02*
D03*
X3320Y-2408D02*
D03*
Y-2463D02*
D03*
X4460Y-2433D02*
D03*
Y-2488D02*
D03*
X4710Y-2358D02*
D03*
Y-2413D02*
D03*
X-353Y-6651D02*
D03*
Y-6707D02*
D03*
X-403Y-6651D02*
D03*
Y-6707D02*
D03*
X-543Y-7261D02*
D03*
Y-7317D02*
D03*
X-463Y-7261D02*
D03*
Y-7317D02*
D03*
X-373Y-7272D02*
D03*
Y-7328D02*
D03*
X-308Y-7261D02*
D03*
Y-7317D02*
D03*
X-573Y-6686D02*
D03*
Y-6742D02*
D03*
X-153Y-7216D02*
D03*
Y-7272D02*
D03*
X-68Y-7216D02*
D03*
Y-7272D02*
D03*
X-262Y-5810D02*
D03*
Y-5866D02*
D03*
X122Y-5886D02*
D03*
Y-5942D02*
D03*
X-128Y-6676D02*
D03*
Y-6732D02*
D03*
Y-6581D02*
D03*
Y-6637D02*
D03*
X-63Y-6676D02*
D03*
Y-6732D02*
D03*
Y-6581D02*
D03*
Y-6637D02*
D03*
X-503Y-6686D02*
D03*
Y-6742D02*
D03*
X-453Y-6686D02*
D03*
Y-6742D02*
D03*
X177Y-5886D02*
D03*
Y-5942D02*
D03*
X546Y-6593D02*
D03*
Y-6649D02*
D03*
X117Y-6791D02*
D03*
Y-6847D02*
D03*
X232Y-6716D02*
D03*
Y-6772D02*
D03*
X772Y-5846D02*
D03*
Y-5902D02*
D03*
X967Y-5876D02*
D03*
Y-5932D02*
D03*
X4840Y-982D02*
D03*
Y-1038D02*
D03*
X4690Y-982D02*
D03*
Y-1038D02*
D03*
X4430Y-982D02*
D03*
Y-1038D02*
D03*
X4585Y-982D02*
D03*
Y-1038D02*
D03*
X4325Y-977D02*
D03*
Y-1033D02*
D03*
X4180Y-977D02*
D03*
Y-1033D02*
D03*
X4075Y-977D02*
D03*
Y-1033D02*
D03*
X3923Y-977D02*
D03*
Y-1033D02*
D03*
X3820Y-977D02*
D03*
Y-1033D02*
D03*
X3670Y-977D02*
D03*
Y-1033D02*
D03*
X3565Y-977D02*
D03*
Y-1033D02*
D03*
X3415Y-977D02*
D03*
Y-1033D02*
D03*
X3515Y-977D02*
D03*
Y-1033D02*
D03*
X3325Y-2198D02*
D03*
Y-2254D02*
D03*
X3130Y-2064D02*
D03*
Y-2120D02*
D03*
Y-1789D02*
D03*
Y-1845D02*
D03*
X3430Y-1794D02*
D03*
Y-1850D02*
D03*
X3220Y-1944D02*
D03*
Y-2000D02*
D03*
X3262Y-2071D02*
D03*
Y-2126D02*
D03*
X3320Y-2069D02*
D03*
Y-2125D02*
D03*
X3305Y-1944D02*
D03*
Y-2000D02*
D03*
X3465Y-977D02*
D03*
Y-1033D02*
D03*
X3720Y-977D02*
D03*
Y-1033D02*
D03*
X3770Y-977D02*
D03*
Y-1033D02*
D03*
X4230Y-977D02*
D03*
Y-1033D02*
D03*
X4280Y-977D02*
D03*
Y-1033D02*
D03*
X3970Y-977D02*
D03*
Y-1033D02*
D03*
X4025Y-977D02*
D03*
Y-1033D02*
D03*
X4485Y-982D02*
D03*
Y-1038D02*
D03*
X4535Y-982D02*
D03*
Y-1038D02*
D03*
X4740Y-982D02*
D03*
Y-1038D02*
D03*
X4790Y-982D02*
D03*
Y-1038D02*
D03*
X4890Y-1187D02*
D03*
Y-1243D02*
D03*
X4635Y-1187D02*
D03*
Y-1243D02*
D03*
X4380Y-1187D02*
D03*
Y-1243D02*
D03*
X4125Y-1182D02*
D03*
Y-1238D02*
D03*
X3870Y-1182D02*
D03*
Y-1238D02*
D03*
X3615Y-1182D02*
D03*
Y-1238D02*
D03*
X3000Y-1944D02*
D03*
Y-2000D02*
D03*
X3435Y-2059D02*
D03*
Y-2115D02*
D03*
X383Y-6591D02*
D03*
Y-6647D02*
D03*
D14*
X2345Y-1334D02*
D03*
Y-1580D02*
D03*
X2348Y-1814D02*
D03*
X2329Y-880D02*
D03*
X-1432Y1244D02*
D03*
X-103Y-1998D02*
D03*
X-4Y-5257D02*
D03*
D15*
X5426Y-7404D02*
D03*
X5336D02*
D03*
X5431Y-7748D02*
D03*
X5341D02*
D03*
X2426Y-3658D02*
D03*
X2336D02*
D03*
X428Y-3660D02*
D03*
X338D02*
D03*
D16*
X-482Y1611D02*
D03*
X-480Y1717D02*
D03*
D17*
X272Y-4118D02*
D03*
X222Y-4140D02*
D03*
X2542Y-3173D02*
D03*
X2492Y-3195D02*
D03*
X2447Y-3288D02*
D03*
X2397Y-3310D02*
D03*
D18*
X923Y-4774D02*
D03*
X901Y-4824D02*
D03*
X1863Y-2499D02*
D03*
X1841Y-2549D02*
D03*
X908Y-4624D02*
D03*
X886Y-4674D02*
D03*
X1753Y-2589D02*
D03*
X1731Y-2639D02*
D03*
D19*
X1868Y-4824D02*
D03*
X1846Y-4774D02*
D03*
X918Y-2549D02*
D03*
X896Y-2499D02*
D03*
X1753Y-4724D02*
D03*
X1731Y-4674D02*
D03*
X913Y-2704D02*
D03*
X891Y-2654D02*
D03*
D20*
X2547Y-4140D02*
D03*
X2497Y-4118D02*
D03*
X347Y-3160D02*
D03*
X297Y-3138D02*
D03*
X2397Y-4150D02*
D03*
X2347Y-4128D02*
D03*
X362Y-3310D02*
D03*
X312Y-3288D02*
D03*
D21*
X409Y-4063D02*
D03*
X325Y-4098D02*
D03*
X2439Y-3220D02*
D03*
X2355Y-3255D02*
D03*
D22*
X979Y-4633D02*
D03*
X945Y-4717D02*
D03*
X1819Y-2601D02*
D03*
X1785Y-2685D02*
D03*
D23*
X1821Y-4716D02*
D03*
X1786Y-4632D02*
D03*
X943Y-2602D02*
D03*
X978Y-2686D02*
D03*
D24*
X2440Y-4096D02*
D03*
X2356Y-4062D02*
D03*
X408Y-3256D02*
D03*
X324Y-3222D02*
D03*
D25*
X367Y-4008D02*
D03*
X317Y-4030D02*
D03*
D26*
X531Y-4510D02*
D03*
X493Y-4548D02*
D03*
X2196Y-2845D02*
D03*
X2158Y-2883D02*
D03*
X581Y-4365D02*
D03*
X543Y-4403D02*
D03*
X2156Y-2980D02*
D03*
X2118Y-3018D02*
D03*
X608Y-4666D02*
D03*
X646Y-4628D02*
D03*
X2053Y-2694D02*
D03*
X2015Y-2732D02*
D03*
X-473Y-392D02*
D03*
X-511Y-430D02*
D03*
X510Y427D02*
D03*
X472Y389D02*
D03*
X-349Y-346D02*
D03*
X-387Y-384D02*
D03*
X388Y387D02*
D03*
X350Y349D02*
D03*
X4519Y-2841D02*
D03*
X4481Y-2880D02*
D03*
X4669Y-2996D02*
D03*
X4631Y-3035D02*
D03*
X3979Y-3796D02*
D03*
X3941Y-3835D02*
D03*
X3784Y-3596D02*
D03*
X3746Y-3635D02*
D03*
D27*
X2196Y-4468D02*
D03*
X2158Y-4430D02*
D03*
X601Y-2883D02*
D03*
X563Y-2845D02*
D03*
X2056Y-4428D02*
D03*
X2018Y-4390D02*
D03*
X646Y-3018D02*
D03*
X608Y-2980D02*
D03*
X2060Y-4693D02*
D03*
X2098Y-4731D02*
D03*
X-474Y391D02*
D03*
X-512Y429D02*
D03*
X510Y-427D02*
D03*
X472Y-389D02*
D03*
X-347Y348D02*
D03*
X-385Y386D02*
D03*
X386Y-386D02*
D03*
X348Y-348D02*
D03*
X3875Y-2662D02*
D03*
X3913Y-2700D02*
D03*
X4619Y-3435D02*
D03*
X4581Y-3396D02*
D03*
X3534Y-3070D02*
D03*
X3496Y-3031D02*
D03*
X3724Y-2865D02*
D03*
X3686Y-2826D02*
D03*
D28*
X637Y-4405D02*
D03*
X573Y-4469D02*
D03*
X2120Y-2920D02*
D03*
X2056Y-2984D02*
D03*
X-419Y-418D02*
D03*
X-483Y-482D02*
D03*
X483Y482D02*
D03*
X419Y418D02*
D03*
D29*
X1383Y-4613D02*
D03*
Y-4703D02*
D03*
X1381Y-2615D02*
D03*
Y-2705D02*
D03*
X118Y-6918D02*
D03*
Y-7008D02*
D03*
X233Y-6828D02*
D03*
Y-6918D02*
D03*
D30*
X2121Y-4397D02*
D03*
X2057Y-4333D02*
D03*
X707Y-2985D02*
D03*
X643Y-2921D02*
D03*
X-418Y419D02*
D03*
X-482Y483D02*
D03*
X482Y-483D02*
D03*
X418Y-419D02*
D03*
D31*
X4636Y-3254D02*
D03*
X4623Y-3268D02*
D03*
X4609Y-3282D02*
D03*
X4595Y-3296D02*
D03*
X4581Y-3310D02*
D03*
X4567Y-3324D02*
D03*
X4553Y-3338D02*
D03*
X4539Y-3352D02*
D03*
X4525Y-3366D02*
D03*
X4511Y-3380D02*
D03*
X4497Y-3393D02*
D03*
X4483Y-3407D02*
D03*
X4469Y-3421D02*
D03*
X4456Y-3435D02*
D03*
X4442Y-3449D02*
D03*
X4428Y-3463D02*
D03*
X4414Y-3477D02*
D03*
X4400Y-3491D02*
D03*
X4386Y-3505D02*
D03*
X4372Y-3519D02*
D03*
X4358Y-3533D02*
D03*
X4344Y-3547D02*
D03*
X4330Y-3561D02*
D03*
X4316Y-3574D02*
D03*
X4302Y-3588D02*
D03*
X4288Y-3602D02*
D03*
X4275Y-3616D02*
D03*
X4261Y-3630D02*
D03*
X4247Y-3644D02*
D03*
X4233Y-3658D02*
D03*
X4219Y-3672D02*
D03*
X4205Y-3686D02*
D03*
X4191Y-3700D02*
D03*
X4177Y-3714D02*
D03*
X4163Y-3728D02*
D03*
X4149Y-3741D02*
D03*
X3554Y-3146D02*
D03*
X3567Y-3132D02*
D03*
X3581Y-3118D02*
D03*
X3595Y-3104D02*
D03*
X3609Y-3090D02*
D03*
X3623Y-3076D02*
D03*
X3637Y-3062D02*
D03*
X3651Y-3048D02*
D03*
X3665Y-3034D02*
D03*
X3679Y-3020D02*
D03*
X3693Y-3007D02*
D03*
X3707Y-2993D02*
D03*
X3721Y-2979D02*
D03*
X3734Y-2965D02*
D03*
X3748Y-2951D02*
D03*
X3762Y-2937D02*
D03*
X3776Y-2923D02*
D03*
X3790Y-2909D02*
D03*
X3804Y-2895D02*
D03*
X3818Y-2881D02*
D03*
X3832Y-2867D02*
D03*
X3846Y-2853D02*
D03*
X3860Y-2839D02*
D03*
X3874Y-2826D02*
D03*
X3888Y-2812D02*
D03*
X3902Y-2798D02*
D03*
X3915Y-2784D02*
D03*
X3929Y-2770D02*
D03*
X3943Y-2756D02*
D03*
X3957Y-2742D02*
D03*
X3971Y-2728D02*
D03*
X3985Y-2714D02*
D03*
X3999Y-2700D02*
D03*
X4013Y-2686D02*
D03*
X4027Y-2672D02*
D03*
X4041Y-2659D02*
D03*
D32*
Y-3741D02*
D03*
X4027Y-3728D02*
D03*
X4013Y-3714D02*
D03*
X3999Y-3700D02*
D03*
X3985Y-3686D02*
D03*
X3971Y-3672D02*
D03*
X3957Y-3658D02*
D03*
X3943Y-3644D02*
D03*
X3929Y-3630D02*
D03*
X3915Y-3616D02*
D03*
X3902Y-3602D02*
D03*
X3888Y-3588D02*
D03*
X3874Y-3574D02*
D03*
X3860Y-3561D02*
D03*
X3846Y-3547D02*
D03*
X3832Y-3533D02*
D03*
X3818Y-3519D02*
D03*
X3804Y-3505D02*
D03*
X3790Y-3491D02*
D03*
X3776Y-3477D02*
D03*
X3762Y-3463D02*
D03*
X3748Y-3449D02*
D03*
X3734Y-3435D02*
D03*
X3721Y-3421D02*
D03*
X3707Y-3407D02*
D03*
X3693Y-3393D02*
D03*
X3679Y-3380D02*
D03*
X3665Y-3366D02*
D03*
X3651Y-3352D02*
D03*
X3637Y-3338D02*
D03*
X3623Y-3324D02*
D03*
X3609Y-3310D02*
D03*
X3595Y-3296D02*
D03*
X3581Y-3282D02*
D03*
X3567Y-3268D02*
D03*
X3554Y-3254D02*
D03*
X4149Y-2659D02*
D03*
X4163Y-2672D02*
D03*
X4177Y-2686D02*
D03*
X4191Y-2700D02*
D03*
X4205Y-2714D02*
D03*
X4219Y-2728D02*
D03*
X4233Y-2742D02*
D03*
X4247Y-2756D02*
D03*
X4261Y-2770D02*
D03*
X4275Y-2784D02*
D03*
X4288Y-2798D02*
D03*
X4302Y-2812D02*
D03*
X4316Y-2826D02*
D03*
X4330Y-2839D02*
D03*
X4344Y-2853D02*
D03*
X4358Y-2867D02*
D03*
X4372Y-2881D02*
D03*
X4386Y-2895D02*
D03*
X4400Y-2909D02*
D03*
X4414Y-2923D02*
D03*
X4428Y-2937D02*
D03*
X4442Y-2951D02*
D03*
X4456Y-2965D02*
D03*
X4469Y-2979D02*
D03*
X4483Y-2993D02*
D03*
X4497Y-3007D02*
D03*
X4511Y-3020D02*
D03*
X4525Y-3034D02*
D03*
X4539Y-3048D02*
D03*
X4553Y-3062D02*
D03*
X4567Y-3076D02*
D03*
X4581Y-3090D02*
D03*
X4595Y-3104D02*
D03*
X4609Y-3118D02*
D03*
X4623Y-3132D02*
D03*
X4636Y-3146D02*
D03*
D33*
X465Y-5769D02*
D03*
X464Y-5743D02*
D03*
Y-5795D02*
D03*
X390D02*
D03*
Y-5743D02*
D03*
Y-5769D02*
D03*
D34*
X578Y-6013D02*
D03*
Y-5987D02*
D03*
Y-5962D02*
D03*
Y-5936D02*
D03*
Y-5911D02*
D03*
Y-5885D02*
D03*
Y-5859D02*
D03*
X356Y-6013D02*
D03*
Y-5987D02*
D03*
Y-5962D02*
D03*
Y-5936D02*
D03*
Y-5911D02*
D03*
Y-5885D02*
D03*
Y-5859D02*
D03*
D35*
X4189Y-2118D02*
D03*
Y-2193D02*
D03*
X4101Y-2118D02*
D03*
Y-2156D02*
D03*
Y-2193D02*
D03*
X4659Y-2358D02*
D03*
Y-2433D02*
D03*
X4571Y-2358D02*
D03*
Y-2396D02*
D03*
Y-2433D02*
D03*
X4189Y-2258D02*
D03*
Y-2333D02*
D03*
X4101Y-2258D02*
D03*
Y-2296D02*
D03*
Y-2333D02*
D03*
X3269Y-2401D02*
D03*
Y-2363D02*
D03*
Y-2438D02*
D03*
X3181Y-2363D02*
D03*
Y-2438D02*
D03*
X3639Y-2363D02*
D03*
Y-2438D02*
D03*
X3551Y-2363D02*
D03*
Y-2401D02*
D03*
Y-2438D02*
D03*
D36*
X4335Y-2521D02*
D03*
X4265Y-2558D02*
D03*
Y-2483D02*
D03*
X902Y-5879D02*
D03*
X832Y-5916D02*
D03*
Y-5842D02*
D03*
D37*
X3930Y-2468D02*
D03*
X3993Y-2530D02*
D03*
X3966Y-2557D02*
D03*
X3940Y-2583D02*
D03*
X3877Y-2521D02*
D03*
D38*
X3838Y-2402D02*
D03*
Y-2376D02*
D03*
Y-2427D02*
D03*
Y-2453D02*
D03*
X3752Y-2376D02*
D03*
Y-2402D02*
D03*
Y-2427D02*
D03*
Y-2453D02*
D03*
D39*
X634Y-3659D02*
D03*
X1008Y-3011D02*
D03*
X1756D02*
D03*
X2130Y-3659D02*
D03*
X1756Y-4307D02*
D03*
X1008D02*
D03*
D40*
X3125Y-2192D02*
D03*
Y-2252D02*
D03*
X4159Y-1467D02*
D03*
Y-1527D02*
D03*
X4074Y-1467D02*
D03*
Y-1527D02*
D03*
X3999Y-1467D02*
D03*
Y-1527D02*
D03*
X3919Y-1467D02*
D03*
Y-1527D02*
D03*
X4212Y-1834D02*
D03*
Y-1893D02*
D03*
X4234Y-1467D02*
D03*
Y-1527D02*
D03*
X4314Y-1467D02*
D03*
Y-1527D02*
D03*
X3967Y-1834D02*
D03*
Y-1893D02*
D03*
X4250Y-2266D02*
D03*
Y-2325D02*
D03*
D41*
X4172Y-1961D02*
D03*
X4098D02*
D03*
X4172Y-2050D02*
D03*
X4098D02*
D03*
X4135D02*
D03*
X3937Y-2116D02*
D03*
X3863D02*
D03*
X3937Y-2205D02*
D03*
X3863D02*
D03*
X3900D02*
D03*
X3307Y-1583D02*
D03*
X3233D02*
D03*
X3270D02*
D03*
X3307Y-1671D02*
D03*
X3233D02*
D03*
X3262Y-2178D02*
D03*
X3188D02*
D03*
X3225D02*
D03*
X3262Y-2266D02*
D03*
X3188D02*
D03*
X3127Y-1928D02*
D03*
X3053D02*
D03*
X3090D02*
D03*
X3127Y-2016D02*
D03*
X3053D02*
D03*
X4044Y-1689D02*
D03*
X3970D02*
D03*
X4044Y-1778D02*
D03*
X3970D02*
D03*
X4007D02*
D03*
X4284Y-1689D02*
D03*
X4210D02*
D03*
X4284Y-1778D02*
D03*
X4210D02*
D03*
X4247D02*
D03*
X3432Y-1923D02*
D03*
X3358D02*
D03*
X3395D02*
D03*
X3432Y-2011D02*
D03*
X3358D02*
D03*
X-476Y-6535D02*
D03*
X-513Y-6535D02*
D03*
X-476Y-6623D02*
D03*
X-550D02*
D03*
X-513D02*
D03*
X-550Y-6535D02*
D03*
D42*
X4468Y-2556D02*
D03*
X4402D02*
D03*
X3930Y-2001D02*
D03*
X3870D02*
D03*
X-290Y-6399D02*
D03*
X-356D02*
D03*
X-350Y-6264D02*
D03*
X-416D02*
D03*
D43*
X3768Y-1107D02*
D03*
X3818D02*
D03*
X3768Y-1317D02*
D03*
X3818D02*
D03*
X3718Y-1107D02*
D03*
X3668D02*
D03*
Y-1317D02*
D03*
X3718D02*
D03*
X4023Y-1107D02*
D03*
X4073D02*
D03*
X4023Y-1317D02*
D03*
X4073D02*
D03*
X3973Y-1107D02*
D03*
X3923D02*
D03*
Y-1317D02*
D03*
X3973D02*
D03*
X4278Y-1107D02*
D03*
X4328D02*
D03*
X4278Y-1317D02*
D03*
X4328D02*
D03*
X4228Y-1107D02*
D03*
X4178D02*
D03*
Y-1317D02*
D03*
X4228D02*
D03*
X4533Y-1112D02*
D03*
X4583D02*
D03*
X4533Y-1322D02*
D03*
X4583D02*
D03*
X4483Y-1112D02*
D03*
X4433D02*
D03*
Y-1322D02*
D03*
X4483D02*
D03*
X4788Y-1112D02*
D03*
X4838D02*
D03*
X4788Y-1322D02*
D03*
X4838D02*
D03*
X4738Y-1112D02*
D03*
X4688D02*
D03*
Y-1322D02*
D03*
X4738D02*
D03*
X3513Y-1107D02*
D03*
X3563D02*
D03*
X3513Y-1317D02*
D03*
X3563D02*
D03*
X3463Y-1107D02*
D03*
X3413D02*
D03*
Y-1317D02*
D03*
X3463D02*
D03*
D44*
X3430Y-1622D02*
D03*
Y-1732D02*
D03*
X3130Y-1622D02*
D03*
Y-1732D02*
D03*
D45*
X3213Y-1452D02*
D03*
X3147D02*
D03*
D46*
X-539Y-7928D02*
D03*
X-571D02*
D03*
X-633Y-7928D02*
D03*
X-665Y-7928D02*
D03*
X-602Y-7928D02*
D03*
D47*
X-427Y-7930D02*
D03*
X-427Y-8147D02*
D03*
X-777Y-7930D02*
D03*
Y-8147D02*
D03*
D48*
X1342Y-6134D02*
D03*
X1242D02*
D03*
X1292D02*
D03*
Y-6294D02*
D03*
X1342D02*
D03*
X1242D02*
D03*
X1192Y-6134D02*
D03*
X1142D02*
D03*
X1192Y-6294D02*
D03*
X1142D02*
D03*
D49*
X1967Y399D02*
D03*
X2017D02*
D03*
X1917D02*
D03*
X2117D02*
D03*
X2067D02*
D03*
X1817D02*
D03*
X1867D02*
D03*
X1717D02*
D03*
X1767D02*
D03*
X2117Y43D02*
D03*
X2017D02*
D03*
X2067D02*
D03*
X1967D02*
D03*
X1767D02*
D03*
X1817D02*
D03*
X1717D02*
D03*
X1917D02*
D03*
X1867D02*
D03*
X1617Y399D02*
D03*
X1667D02*
D03*
X1517D02*
D03*
X1567D02*
D03*
X1467D02*
D03*
X1567Y43D02*
D03*
X1667D02*
D03*
X1617D02*
D03*
X1467D02*
D03*
X1517D02*
D03*
D50*
X3425Y-3130D02*
D03*
Y-3279D02*
D03*
D51*
X-301Y-5959D02*
D03*
Y-6059D02*
D03*
Y-6159D02*
D03*
X-475Y-5959D02*
D03*
Y-6059D02*
D03*
Y-6159D02*
D03*
D52*
X272Y-6087D02*
D03*
Y-6118D02*
D03*
Y-6213D02*
D03*
Y-6244D02*
D03*
Y-6150D02*
D03*
Y-6181D02*
D03*
Y-6275D02*
D03*
Y-6370D02*
D03*
Y-6401D02*
D03*
Y-6307D02*
D03*
Y-6338D02*
D03*
X-168Y-6150D02*
D03*
Y-6181D02*
D03*
Y-6087D02*
D03*
Y-6118D02*
D03*
Y-6275D02*
D03*
Y-6307D02*
D03*
Y-6213D02*
D03*
Y-6244D02*
D03*
Y-6338D02*
D03*
Y-6401D02*
D03*
Y-6370D02*
D03*
D53*
X178Y-6024D02*
D03*
X209D02*
D03*
X115D02*
D03*
X146D02*
D03*
X83D02*
D03*
X52D02*
D03*
X83Y-6464D02*
D03*
X115D02*
D03*
X52D02*
D03*
X178D02*
D03*
X209D02*
D03*
X146D02*
D03*
X-11Y-6024D02*
D03*
X21D02*
D03*
X-105D02*
D03*
X-74D02*
D03*
X-42D02*
D03*
X-74Y-6464D02*
D03*
X-42D02*
D03*
X-11D02*
D03*
X21D02*
D03*
X-105D02*
D03*
D54*
X997Y-6066D02*
D03*
X847D02*
D03*
X797D02*
D03*
X947D02*
D03*
X897D02*
D03*
X997Y-6252D02*
D03*
X897D02*
D03*
X847D02*
D03*
X947D02*
D03*
X747Y-6066D02*
D03*
X697D02*
D03*
X797Y-6252D02*
D03*
X697D02*
D03*
X747D02*
D03*
D55*
X-250Y-6871D02*
D03*
Y-6910D02*
D03*
Y-6891D02*
D03*
Y-6989D02*
D03*
Y-6969D02*
D03*
Y-7009D02*
D03*
Y-6930D02*
D03*
Y-6950D02*
D03*
Y-7029D02*
D03*
Y-7068D02*
D03*
Y-7048D02*
D03*
Y-7088D02*
D03*
Y-7127D02*
D03*
Y-7107D02*
D03*
X-586Y-6871D02*
D03*
Y-6891D02*
D03*
Y-6910D02*
D03*
Y-6930D02*
D03*
Y-7009D02*
D03*
Y-6989D02*
D03*
Y-7029D02*
D03*
Y-6950D02*
D03*
Y-6969D02*
D03*
Y-7048D02*
D03*
Y-7088D02*
D03*
Y-7068D02*
D03*
Y-7107D02*
D03*
Y-7127D02*
D03*
D56*
X-290Y-6831D02*
D03*
X-329D02*
D03*
X-349D02*
D03*
X-310D02*
D03*
X-388D02*
D03*
X-428D02*
D03*
X-369D02*
D03*
X-408D02*
D03*
X-448D02*
D03*
X-290Y-7171D02*
D03*
X-329D02*
D03*
X-310D02*
D03*
X-349D02*
D03*
X-388D02*
D03*
X-408D02*
D03*
X-369D02*
D03*
X-448D02*
D03*
X-428D02*
D03*
X-487Y-6831D02*
D03*
X-507D02*
D03*
X-467D02*
D03*
X-546D02*
D03*
X-526D02*
D03*
X-487Y-7171D02*
D03*
X-507D02*
D03*
X-467D02*
D03*
X-546D02*
D03*
X-526D02*
D03*
D57*
X-418Y-6999D02*
D03*
D58*
X-8Y-5714D02*
D03*
Y-5814D02*
D03*
D59*
X5530Y-7404D02*
Y-7356D01*
X-507Y-7583D02*
Y-7172D01*
X-507Y-7171D01*
X-633Y-7710D02*
X-507Y-7583D01*
X-493Y-7212D02*
X-487Y-7206D01*
X-493Y-7589D02*
Y-7212D01*
X-602Y-7698D02*
X-493Y-7589D01*
X164Y-6574D02*
Y-6523D01*
X146Y-6505D02*
X164Y-6523D01*
X146Y-6505D02*
Y-6464D01*
X4699Y-2984D02*
X4706Y-2991D01*
X4682Y-2984D02*
X4699D01*
X4669Y-2996D02*
X4682Y-2984D01*
X4710Y-2358D02*
Y-2324D01*
X4708Y-2322D02*
X4710Y-2324D01*
X1467Y320D02*
X1471Y324D01*
X1665D01*
X2344Y-1580D02*
X2345D01*
X2344Y-1334D02*
X2345D01*
X-103Y-2003D02*
X-63D01*
X-103D02*
Y-1998D01*
X-9Y-5262D02*
X29D01*
X4530Y-2812D02*
X4530Y-2812D01*
X4530Y-2831D02*
Y-2812D01*
X4519Y-2841D02*
X4530Y-2831D01*
X3336Y-3659D02*
X3635D01*
X3336D02*
X3357Y-3638D01*
X3635Y-3659D02*
X3715Y-3579D01*
X3767D01*
X6033Y-7583D02*
Y-7540D01*
X6029Y-7587D02*
X6033Y-7583D01*
X-157Y-6531D02*
X-77D01*
X-177Y-6551D02*
X-157Y-6531D01*
X-177Y-6662D02*
Y-6551D01*
X-163Y-6676D02*
X-128D01*
X-177Y-6662D02*
X-163Y-6676D01*
X-58Y-6635D02*
X-8Y-6585D01*
Y-6537D01*
X509Y-6649D02*
X509Y-6649D01*
X546D01*
X351Y-6647D02*
X351Y-6647D01*
X383D01*
X4647Y-3435D02*
X4660Y-3448D01*
X1001Y-5932D02*
X1038Y-5894D01*
X1216D01*
X1242Y-5920D01*
Y-5941D02*
Y-5920D01*
X465Y-5769D02*
X519D01*
X52Y-6712D02*
Y-6464D01*
X21Y-6508D02*
Y-6464D01*
X-8Y-6537D02*
X21Y-6508D01*
X52Y-6712D02*
X59Y-6719D01*
X-77Y-6531D02*
X-42Y-6496D01*
Y-6464D01*
X-128Y-6676D02*
Y-6637D01*
X-63Y-6676D02*
Y-6637D01*
X-371Y-7274D02*
Y-7263D01*
X4525Y-2711D02*
Y-2665D01*
X4476Y-2760D02*
X4525Y-2711D01*
X4466Y-2760D02*
X4476D01*
X4354Y-2872D02*
X4466Y-2760D01*
X4353Y-2872D02*
X4354D01*
X-388Y-7246D02*
X-371Y-7263D01*
X-388Y-7246D02*
Y-7171D01*
X-310Y-7259D02*
X-308Y-7261D01*
X-533Y-6782D02*
X-527D01*
X-573Y-6742D02*
X-533Y-6782D01*
X4160Y-2778D02*
X4195Y-2813D01*
X4160Y-2778D02*
Y-2731D01*
X4186Y-2705D01*
X4220Y-2643D02*
X4222Y-2645D01*
Y-2669D02*
Y-2645D01*
X4241Y-2706D02*
X4288D01*
X4214Y-2733D02*
X4241Y-2706D01*
X3873Y-2455D02*
Y-2441D01*
X3859Y-2427D02*
X3873Y-2441D01*
X3838Y-2427D02*
X3859D01*
X3873Y-2455D02*
X3876Y-2458D01*
X3551Y-2401D02*
X3575D01*
X3225Y-2208D02*
Y-2178D01*
X4659Y-2433D02*
Y-2409D01*
X4608Y-2358D02*
X4659Y-2409D01*
X4571Y-2358D02*
X4608D01*
X4378Y-2271D02*
X4422Y-2315D01*
X4431D01*
X4495Y-2649D02*
Y-2622D01*
Y-2649D02*
X4495Y-2649D01*
Y-2675D02*
Y-2649D01*
X4325Y-2844D02*
X4495Y-2675D01*
X4378Y-2326D02*
X4398D01*
X4408Y-2336D01*
Y-2338D02*
Y-2336D01*
X4471Y-2645D02*
X4475Y-2649D01*
Y-2667D02*
Y-2649D01*
X4311Y-2830D02*
X4475Y-2667D01*
X4462Y-2516D02*
Y-2490D01*
X2062Y404D02*
Y471D01*
Y404D02*
X2067Y399D01*
X3913Y-2700D02*
X3960Y-2747D01*
X3809Y-2956D02*
X3845D01*
X3872Y-2983D01*
Y-3009D02*
Y-2983D01*
X3834Y-3047D02*
X3872Y-3009D01*
X3724Y-2871D02*
X3809Y-2956D01*
X3767Y-3579D02*
X3784Y-3596D01*
X3784D01*
X3810Y-3571D01*
X3821D01*
X3851Y-3542D01*
X4369Y-2996D02*
X4481Y-2884D01*
X4369Y-3020D02*
Y-2996D01*
X3767Y-2942D02*
X3818Y-2993D01*
X3820D01*
X3534Y-3070D02*
X3586Y-3122D01*
Y-3123D02*
Y-3122D01*
X1001Y-5932D02*
X1002Y-5933D01*
X967Y-5932D02*
X1001D01*
X637Y-5859D02*
X639Y-5857D01*
X578Y-5859D02*
X637D01*
X150Y-6634D02*
X151Y-6633D01*
X115Y-6634D02*
X150D01*
X-625Y-6534D02*
X-586D01*
X-585Y-6535D01*
X-550D01*
X-271Y-6651D02*
X-270Y-6652D01*
X-303Y-6651D02*
X-271D01*
X-353D02*
X-303D01*
X-480Y-6686D02*
X-453D01*
X-480D02*
X-479Y-6685D01*
X-503Y-6686D02*
X-480D01*
X-160Y-6895D02*
X-156Y-6899D01*
Y-6929D02*
Y-6899D01*
X-205Y-6929D02*
X-156D01*
X-200Y-7048D02*
X-171Y-7019D01*
X-200Y-7048D02*
X-200Y-7048D01*
X-171Y-7019D02*
X-156D01*
X-73Y-7124D02*
X-69Y-7120D01*
X-100Y-7124D02*
X-73D01*
X-70Y-7069D02*
X-68Y-7071D01*
X-100Y-7069D02*
X-70D01*
X-310Y-7259D02*
Y-7213D01*
X-466Y-7258D02*
X-463Y-7261D01*
X-466Y-7258D02*
Y-7218D01*
X-546Y-7258D02*
X-543Y-7261D01*
X-546Y-7258D02*
Y-7215D01*
X-666Y-7079D02*
X-657Y-7070D01*
X-720Y-7079D02*
X-666D01*
X-206Y-6930D02*
X-205Y-6929D01*
X-250Y-6930D02*
X-206D01*
X-250Y-7048D02*
X-200D01*
X-310Y-7213D02*
X-310Y-7213D01*
Y-7171D01*
X-467Y-7217D02*
X-466Y-7218D01*
X-467Y-7217D02*
Y-7171D01*
X-546Y-7215D02*
X-546Y-7215D01*
Y-7171D01*
X-657Y-7070D02*
X-655Y-7068D01*
X-586D01*
X2327Y291D02*
X2382D01*
X2272D02*
X2327D01*
X2217D02*
X2272D01*
X2424D02*
X2425Y290D01*
X2382Y291D02*
X2424D01*
X2115Y322D02*
X2117Y324D01*
Y399D01*
X1716Y303D02*
X1717Y304D01*
Y399D01*
Y473D01*
X1665Y324D02*
X1667Y326D01*
Y399D01*
X1467Y320D02*
X1470Y317D01*
X1467Y320D02*
Y399D01*
X1717Y-51D02*
Y43D01*
X1521Y-107D02*
X1567D01*
X1467Y-53D02*
X1521Y-107D01*
X1467Y-53D02*
Y43D01*
X3986Y-3796D02*
X4046Y-3737D01*
X3979Y-3796D02*
X3986D01*
X4504Y-3317D02*
Y-3261D01*
Y-3317D02*
X4534Y-3347D01*
X4477Y-3318D02*
X4520Y-3361D01*
X4477Y-3318D02*
Y-3317D01*
X4534Y-3350D02*
X4581Y-3396D01*
X4534Y-3350D02*
Y-3347D01*
X4556Y-3181D02*
X4557Y-3180D01*
Y-3114D01*
X4631Y-3040D01*
Y-3035D01*
X4368Y-3021D02*
X4369Y-3020D01*
X4481Y-2884D02*
Y-2880D01*
X3915Y-2654D02*
X3917D01*
X3913Y-2656D02*
X3915Y-2654D01*
X3913Y-2700D02*
Y-2656D01*
X3960Y-2747D02*
X3962D01*
X3724Y-2871D02*
Y-2865D01*
X3618Y-3155D02*
X3651D01*
X3586Y-3123D02*
X3618Y-3155D01*
X4657Y-2454D02*
X4659Y-2452D01*
Y-2433D01*
X4016Y-2133D02*
X4016Y-2133D01*
X4050D01*
X4001Y-2148D02*
X4016Y-2133D01*
X3985Y-2148D02*
X4001D01*
X4301Y-2051D02*
X4313Y-2039D01*
X4278Y-2051D02*
X4301D01*
X4333Y-1693D02*
X4337Y-1697D01*
Y-1721D02*
Y-1697D01*
X4092Y-1686D02*
X4092Y-1686D01*
X4092Y-1721D02*
Y-1686D01*
X4740Y-982D02*
Y-953D01*
X4531Y-956D02*
X4535Y-960D01*
Y-982D02*
Y-960D01*
X4485Y-982D02*
Y-955D01*
X4230Y-954D02*
X4232Y-952D01*
X4230Y-977D02*
Y-954D01*
X3970Y-952D02*
X3972Y-950D01*
X3970Y-977D02*
Y-952D01*
X3720Y-977D02*
Y-949D01*
X3465Y-948D02*
X3466Y-947D01*
X3465Y-977D02*
Y-948D01*
X3641Y-1318D02*
X3642Y-1317D01*
X3668D01*
X3390Y-1318D02*
X3391Y-1317D01*
X3413D01*
X3896Y-1319D02*
X3898Y-1317D01*
X3923D01*
X4153Y-1316D02*
X4154Y-1317D01*
X4178D01*
X4408Y-1325D02*
X4411Y-1322D01*
X4433D01*
X4663Y-1322D02*
X4663Y-1322D01*
X4688D01*
X4230Y-977D02*
X4280D01*
X4533Y-1248D02*
X4535Y-1246D01*
X4533Y-1322D02*
Y-1248D01*
X4023Y-1240D02*
X4025Y-1238D01*
X4023Y-1317D02*
Y-1240D01*
X4659Y-2331D02*
X4663Y-2327D01*
X4659Y-2358D02*
Y-2331D01*
X4710Y-2358D02*
X4710Y-2358D01*
X4659Y-2358D02*
X4710D01*
X4325Y-2740D02*
X4329Y-2736D01*
X4292Y-2668D02*
Y-2666D01*
X4229Y-2454D02*
X4235D01*
X4265Y-2483D01*
X4168Y-2260D02*
X4170Y-2258D01*
X4189D01*
X3181Y-2438D02*
X3182Y-2440D01*
Y-2495D02*
Y-2440D01*
X3149Y-2439D02*
X3150Y-2438D01*
X3181D01*
X3828Y-2521D02*
X3855D01*
X3823Y-2516D02*
X3828Y-2521D01*
X3853Y-2519D02*
X3855Y-2521D01*
X3877D01*
X3701Y-2400D02*
X3703Y-2402D01*
X3752D01*
X3639Y-2363D02*
X3690D01*
X3238Y-2521D02*
X3238Y-2521D01*
X3238Y-2521D02*
Y-2495D01*
X218Y-6244D02*
X272D01*
X355Y-5770D02*
X389D01*
X390Y-5769D01*
X1365Y-6294D02*
X1366Y-6295D01*
X1342Y-6294D02*
X1365D01*
X1239Y-6362D02*
X1242Y-6359D01*
Y-6294D01*
X1192Y-6365D02*
X1193Y-6366D01*
X1192Y-6365D02*
Y-6294D01*
X824Y-5933D02*
X832Y-5925D01*
Y-5916D01*
X772Y-5934D02*
Y-5902D01*
X695Y-6129D02*
X697Y-6127D01*
Y-6066D01*
X312Y-6012D02*
X313Y-6013D01*
X356D01*
X475Y-6164D02*
Y-6114D01*
X473Y-6089D02*
X475Y-6091D01*
Y-6114D02*
Y-6091D01*
X228Y-5728D02*
X229Y-5729D01*
X254D01*
X233Y-5814D02*
X254D01*
X78D02*
X79Y-5813D01*
X-8Y-5814D02*
X78D01*
X-226Y-5959D02*
X-224Y-5957D01*
X-301Y-5959D02*
X-226D01*
X-118Y-6244D02*
X-117Y-6243D01*
X-168Y-6244D02*
X-118D01*
X-290Y-6285D02*
X-286Y-6281D01*
Y-6264D01*
X-443Y-6262D02*
X-441Y-6264D01*
X-416D01*
X-402Y-6407D02*
X-394Y-6399D01*
X-356D01*
X-681Y-6555D02*
X-673Y-6563D01*
X-681Y-6555D02*
Y-6534D01*
X-513Y-6592D02*
X-512Y-6591D01*
X-513Y-6623D02*
Y-6592D01*
X-597Y-6680D02*
X-591Y-6686D01*
X-573D01*
X-403Y-6651D02*
Y-6620D01*
X-369Y-6487D02*
X-346Y-6464D01*
X-341D01*
X176Y-6403D02*
X178Y-6405D01*
Y-6464D02*
Y-6405D01*
X219Y-6544D02*
X220Y-6545D01*
X178Y-6503D02*
X219Y-6544D01*
X178Y-6503D02*
Y-6464D01*
X220Y-6574D02*
Y-6545D01*
X115Y-6552D02*
X125Y-6542D01*
X115Y-6574D02*
Y-6552D01*
X145Y-6719D02*
X146Y-6718D01*
X115Y-6719D02*
X145D01*
X-65Y-6763D02*
X-63Y-6761D01*
Y-6732D01*
X-128Y-6766D02*
Y-6732D01*
X-69Y-6929D02*
X-67Y-6927D01*
X-100Y-6929D02*
X-69D01*
X-84Y-7019D02*
X-66Y-7001D01*
X-100Y-7019D02*
X-84D01*
X-388Y-7029D02*
X-250D01*
X-428Y-6989D02*
Y-6831D01*
X-586Y-7009D02*
X-428D01*
X-324Y-7093D02*
X-290Y-7127D01*
X-369Y-7048D02*
X-324Y-7093D01*
X-418Y-6999D02*
X-388Y-7029D01*
X-428Y-6989D02*
X-418Y-6999D01*
X-428Y-7009D02*
X-418Y-6999D01*
X-290Y-7171D02*
Y-7127D01*
X-388Y-7029D02*
X-369Y-7048D01*
Y-7171D02*
Y-7048D01*
X-507Y-7088D02*
X-448Y-7029D01*
X-428Y-7009D01*
X-448Y-7171D02*
Y-7029D01*
X-586Y-7088D02*
X-507D01*
X-512Y-7093D02*
X-507Y-7088D01*
X-526Y-7107D02*
X-512Y-7093D01*
X-526Y-7171D02*
Y-7107D01*
X-487Y-6930D02*
X-428Y-6989D01*
X-546Y-6871D02*
X-487Y-6930D01*
X-586D02*
X-487D01*
X-546Y-6871D02*
Y-6831D01*
X-369Y-6950D02*
X-329Y-6910D01*
X-418Y-6999D02*
X-369Y-6950D01*
Y-6831D01*
X-329Y-6910D02*
X-250D01*
X-68Y-7216D02*
X-33D01*
X-140Y-7457D02*
X-135Y-7452D01*
X-140Y-7484D02*
Y-7457D01*
X-308Y-7321D02*
X-285Y-7344D01*
X-308Y-7321D02*
Y-7317D01*
X-374Y-7344D02*
X-373Y-7343D01*
Y-7317D01*
X-464Y-7354D02*
X-463Y-7353D01*
Y-7317D01*
X-548Y-7350D02*
Y-7322D01*
X-543Y-7317D01*
X-858Y-7522D02*
X-836Y-7500D01*
Y-7484D01*
X-427Y-8067D02*
X-426Y-8066D01*
X-427Y-8147D02*
Y-8067D01*
X-351Y-7930D02*
X-350Y-7929D01*
X-427Y-7930D02*
X-351D01*
X-836Y-8080D02*
X-777Y-8139D01*
Y-8147D02*
Y-8139D01*
X-840Y-7928D02*
X-838Y-7930D01*
X-777D01*
X3621Y-3185D02*
X3621D01*
X3572Y-3137D02*
X3621Y-3185D01*
X3494Y-2992D02*
X3496Y-2994D01*
Y-3031D02*
Y-2994D01*
X4082Y-3672D02*
Y-3671D01*
X4032Y-3723D02*
X4082Y-3672D01*
X3922Y-3873D02*
X3941Y-3854D01*
Y-3835D01*
X3711Y-3656D02*
X3732Y-3635D01*
X3746D01*
X3879Y-3486D02*
X3882D01*
X3837Y-3528D02*
X3879Y-3486D01*
X4619Y-3435D02*
X4647D01*
X4519Y-3120D02*
X4523D01*
X4562Y-3081D01*
X4350Y-2959D02*
X4378D01*
X4409Y-2928D01*
X4350Y-2959D02*
Y-2959D01*
X4395Y-2914D01*
X3857Y-2681D02*
X3875Y-2663D01*
Y-2662D01*
X4027Y-2867D02*
Y-2840D01*
X3948Y-2761D02*
X4027Y-2840D01*
X3663Y-2854D02*
Y-2849D01*
X3686Y-2826D01*
X2327Y136D02*
X2382D01*
X2272D02*
X2327D01*
X2217D02*
X2272D01*
X2416D02*
X2417Y135D01*
X2382Y136D02*
X2416D01*
X1717Y-135D02*
Y-107D01*
X1517Y43D02*
Y105D01*
X1917Y101D02*
X1920Y104D01*
X1917Y43D02*
Y101D01*
X1817Y43D02*
Y115D01*
X1767Y108D02*
X1768Y109D01*
X1767Y43D02*
Y108D01*
X2017Y472D02*
X2018Y473D01*
X2017Y399D02*
Y472D01*
X1967Y399D02*
Y476D01*
X1916Y475D02*
X1917Y474D01*
Y399D02*
Y474D01*
X1767Y469D02*
X1768Y470D01*
X1767Y399D02*
Y469D01*
X1717Y563D02*
X1718Y564D01*
X1717Y529D02*
Y563D01*
X3142Y-1412D02*
X3147Y-1417D01*
Y-1452D02*
Y-1417D01*
X3157Y-1541D02*
X3159Y-1543D01*
X3157Y-1541D02*
Y-1512D01*
X3266Y-1612D02*
X3270Y-1608D01*
Y-1583D01*
X3223Y-1727D02*
X3252D01*
X3395Y-1958D02*
X3398Y-1961D01*
X3395Y-1958D02*
Y-1923D01*
X3087Y-1969D02*
X3090Y-1966D01*
Y-1928D01*
X3167Y-2120D02*
X3167Y-2120D01*
X3130Y-2120D02*
X3167D01*
X3433Y-2141D02*
X3435Y-2139D01*
Y-2115D01*
X3345Y-2198D02*
X3356Y-2187D01*
X3325Y-2198D02*
X3345D01*
X3232Y-2401D02*
X3269D01*
X3351Y-2463D02*
X3352Y-2464D01*
X3320Y-2463D02*
X3351D01*
X3554Y-2308D02*
X3556Y-2306D01*
X3587D01*
X3734Y-2516D02*
X3734Y-2516D01*
X3767D01*
X3971Y-2557D02*
X3996Y-2582D01*
X3966Y-2557D02*
X3971D01*
X4348Y-2621D02*
X4348Y-2621D01*
X4348Y-2666D02*
Y-2621D01*
X4186Y-2705D02*
X4222Y-2669D01*
X4220Y-2643D02*
X4223D01*
X4172Y-2691D02*
X4220Y-2643D01*
X4741Y-2413D02*
X4741Y-2413D01*
X4710Y-2413D02*
X4741D01*
X4603Y-2396D02*
X4604Y-2397D01*
X4571Y-2396D02*
X4603D01*
X4497Y-2556D02*
X4499Y-2554D01*
X4468Y-2556D02*
X4497D01*
X4541Y-2488D02*
X4541Y-2488D01*
X4515Y-2488D02*
X4541D01*
X4460Y-2488D02*
X4462Y-2490D01*
X4335Y-2493D02*
X4336Y-2492D01*
X4335Y-2521D02*
Y-2493D01*
X4171Y-2497D02*
X4172Y-2498D01*
X4200D01*
X3967Y-2340D02*
X3967Y-2340D01*
Y-2311D01*
X4124Y-2296D02*
X4143Y-2315D01*
X4101Y-2296D02*
X4124D01*
X3900Y-2174D02*
X3909Y-2165D01*
X3900Y-2205D02*
Y-2174D01*
X4134Y-2156D02*
X4141Y-2163D01*
X4101Y-2156D02*
X4134D01*
X4135Y-2050D02*
Y-2013D01*
X4131Y-2009D02*
X4135Y-2013D01*
X4242Y-1744D02*
X4247Y-1749D01*
Y-1778D02*
Y-1749D01*
X4005Y-1776D02*
X4007Y-1778D01*
X4005Y-1776D02*
Y-1738D01*
X3413Y-1107D02*
Y-1105D01*
X5530Y-7356D02*
X5530D01*
X5535Y-7748D02*
X5569Y-7782D01*
Y-7785D02*
Y-7782D01*
X1107Y-6294D02*
X1142D01*
X1101Y-6288D02*
X1107Y-6294D01*
X493Y-4548D02*
X768Y-4824D01*
X901D01*
X1382Y-4807D02*
X1435Y-4860D01*
X1832D01*
X1868Y-4824D01*
X2196Y-4468D02*
X2324D01*
X2547Y-4245D01*
Y-4140D01*
X222Y-4140D02*
Y-3662D01*
X224Y-3659D01*
X297Y-3138D02*
Y-3110D01*
X563Y-2845D01*
Y-2728D01*
X792Y-2499D01*
X896D01*
X1379D01*
X1382Y-2501D01*
X1860D01*
X1863Y-2499D01*
X2196Y-2845D02*
X2214D01*
X2542Y-3173D01*
Y-3646D02*
Y-3173D01*
X2530Y-3659D02*
X2542Y-3646D01*
X2530Y-3659D02*
X2547Y-3677D01*
Y-4140D02*
Y-3677D01*
X2530Y-3659D02*
X3336D01*
X3338Y-3661D01*
X3357Y-3638D02*
Y-3546D01*
X-347Y345D02*
Y348D01*
X169Y915D02*
Y966D01*
Y915D02*
X172Y912D01*
X-844Y-99D02*
X-796D01*
X-782Y-113D01*
X-349Y-346D02*
X-323Y-320D01*
Y-319D01*
X1089Y-214D02*
Y-154D01*
Y-214D02*
X1217Y-342D01*
X1314D01*
X215Y-1229D02*
X262D01*
X264Y-1227D01*
X-527Y-7839D02*
X-522Y-7834D01*
X-539Y-7851D02*
X-527Y-7839D01*
X-539Y-7928D02*
Y-7851D01*
X-633Y-7928D02*
Y-7710D01*
X-487Y-7206D02*
Y-7171D01*
X-602Y-7928D02*
Y-7698D01*
X-526Y-6831D02*
Y-6783D01*
X-527Y-6782D02*
X-526Y-6783D01*
X-655Y-6910D02*
X-586D01*
X-656Y-6911D02*
X-655Y-6910D01*
X-659Y-6914D02*
X-656Y-6911D01*
X-720Y-6914D02*
X-659D01*
X-656Y-6989D02*
X-586D01*
X-657Y-6988D02*
X-656Y-6989D01*
X-720Y-6994D02*
X-663D01*
X-657Y-6988D01*
X4465Y-2736D02*
X4466Y-2737D01*
X1868Y-4824D02*
X2002D01*
X2196Y-4630D02*
Y-4468D01*
X2002Y-4824D02*
X2196Y-4630D01*
X3979Y-3796D02*
X4005Y-3822D01*
X1364Y-4824D02*
X1382Y-4807D01*
X901Y-4824D02*
X1364D01*
X224Y-3211D02*
X297Y-3138D01*
X224Y-3659D02*
Y-3211D01*
X222Y-4278D02*
X493Y-4548D01*
X222Y-4278D02*
Y-4140D01*
X2196Y-2845D02*
Y-2832D01*
X1863Y-2499D02*
X2196Y-2832D01*
X6902Y-646D02*
X6875D01*
X6862Y-659D01*
X6875Y-673D01*
X6902D01*
X6895Y-686D02*
X6902Y-693D01*
Y-706D01*
X6895Y-713D01*
X6869D01*
X6862Y-706D01*
Y-693D01*
X6869Y-686D01*
X6895D01*
Y-726D02*
X6902Y-733D01*
Y-746D01*
X6895Y-753D01*
X6889D01*
X6882Y-746D01*
X6875Y-753D01*
X6869D01*
X6862Y-746D01*
Y-733D01*
X6869Y-726D01*
X6875D01*
X6882Y-733D01*
X6889Y-726D01*
X6895D01*
X6882Y-733D02*
Y-746D01*
X6862Y-766D02*
X6869D01*
Y-773D01*
X6862D01*
Y-766D01*
Y-826D02*
Y-799D01*
X6889Y-826D01*
X6895D01*
X6902Y-819D01*
Y-806D01*
X6895Y-799D01*
X6862Y-839D02*
Y-853D01*
Y-846D01*
X6902D01*
X6895Y-839D01*
X6862Y-873D02*
X6869D01*
Y-879D01*
X6862D01*
Y-873D01*
Y-933D02*
Y-906D01*
X6889Y-933D01*
X6895D01*
X6902Y-926D01*
Y-913D01*
X6895Y-906D01*
Y-946D02*
X6902Y-953D01*
Y-966D01*
X6895Y-973D01*
X6869D01*
X6862Y-966D01*
Y-953D01*
X6869Y-946D01*
X6895D01*
X6862Y-986D02*
Y-999D01*
Y-993D01*
X6902D01*
X6895Y-986D01*
X6862Y-1019D02*
Y-1033D01*
Y-1026D01*
X6902D01*
X6895Y-1019D01*
D60*
X1622Y544D02*
Y587D01*
X1588Y621D02*
X1622Y587D01*
X758Y621D02*
X1588D01*
X1567Y544D02*
Y577D01*
X1536Y608D02*
X1567Y577D01*
X753Y608D02*
X1536D01*
X2897Y-1365D02*
X3130Y-1598D01*
X2560Y-1365D02*
X2897D01*
X-188Y-6275D02*
X-168D01*
X-242Y-6329D02*
X-188Y-6275D01*
X-490Y-6329D02*
X-242D01*
X-201Y-6307D02*
X-168D01*
X-243Y-6349D02*
X-201Y-6307D01*
X-520Y-6349D02*
X-243D01*
X-208Y-6338D02*
X-168D01*
X-269Y-6399D02*
X-208Y-6338D01*
X-290Y-6399D02*
X-269D01*
X767Y-5960D02*
X973D01*
X982Y-5969D02*
X1164D01*
X973Y-5960D02*
X982Y-5969D01*
X1164D02*
X1192Y-5997D01*
X405Y-5987D02*
X421Y-6003D01*
X356Y-5987D02*
X405D01*
X421Y-6003D02*
X464D01*
X529Y-6067D01*
X607D01*
X-261Y-5559D02*
X-216D01*
X-302Y-5600D02*
X-261Y-5559D01*
X-275Y-5494D02*
X-216D01*
X-324Y-5543D02*
X-275Y-5494D01*
X-324Y-5578D02*
Y-5543D01*
X4103Y-4814D02*
Y-3708D01*
X4062Y-3594D02*
X4120Y-3651D01*
X3993Y-3594D02*
X4062D01*
X3947Y-3509D02*
X3961Y-3523D01*
Y-3598D02*
Y-3523D01*
X3934Y-3625D02*
X3961Y-3598D01*
X3916Y-3518D02*
X3941Y-3543D01*
Y-3591D02*
Y-3543D01*
X3920Y-3611D02*
X3941Y-3591D01*
X3916Y-3518D02*
Y-3452D01*
X3903Y-3439D02*
X3916Y-3452D01*
X3493Y-3344D02*
X3513Y-3323D01*
X3181Y-3344D02*
X3493D01*
X3020Y-3183D02*
X3181Y-3344D01*
X3414Y-3399D02*
X3474D01*
X3405Y-3391D02*
X3414Y-3399D01*
X3329Y-3391D02*
X3405D01*
X3311Y-3409D02*
X3329Y-3391D01*
X127Y-4547D02*
Y-1546D01*
X154Y-4536D02*
Y-1600D01*
Y-4536D02*
X637Y-5020D01*
X2554D01*
X632Y-5033D02*
X2559D01*
X140Y-4542D02*
X632Y-5033D01*
X140Y-4542D02*
Y-1577D01*
X127Y-4547D02*
X626Y-5046D01*
X2564D01*
X621Y-5059D02*
X2570D01*
X115Y-4552D02*
X621Y-5059D01*
X115Y-4552D02*
Y-1586D01*
X568Y-4902D02*
X2623D01*
X176Y-4510D02*
X568Y-4902D01*
X176Y-4510D02*
Y-3552D01*
X159Y-1558D02*
Y-1229D01*
X140Y-1577D02*
X159Y-1558D01*
X-900Y-518D02*
X127Y-1546D01*
X12Y942D02*
Y1061D01*
X1438Y-1367D02*
X1670D01*
X1669Y-1344D02*
X2956Y-2631D01*
X1415Y-1344D02*
X1669D01*
X1670Y-1389D02*
X2938Y-2657D01*
X1460Y-1389D02*
X1670D01*
X3631Y-2854D02*
X3654Y-2876D01*
X3610Y-2854D02*
X3631D01*
X3400Y-2644D02*
X3610Y-2854D01*
X3389Y-2670D02*
X3587Y-2868D01*
X3395Y-2657D02*
X3600Y-2862D01*
Y-2886D02*
Y-2862D01*
X3587Y-2901D02*
Y-2868D01*
X2932Y-2670D02*
X3389D01*
X2938Y-2657D02*
X3395D01*
X2947Y-2644D02*
X3400D01*
X3600Y-2886D02*
X3712Y-2997D01*
X3533Y-2986D02*
Y-2977D01*
Y-2986D02*
X3628Y-3081D01*
X3507Y-2970D02*
X3520Y-2982D01*
X3496Y-2940D02*
X3533Y-2977D01*
X3422Y-2940D02*
X3496D01*
X3401Y-2970D02*
X3507D01*
X3499Y-2924D02*
X3642Y-3067D01*
X3452Y-2924D02*
X3499D01*
X3520Y-3001D02*
Y-2982D01*
X3587Y-2901D02*
X3698Y-3011D01*
X4451Y-2970D02*
X4480Y-2940D01*
X4466Y-2926D02*
X4501D01*
X4437Y-2956D02*
X4466Y-2926D01*
X623Y-3550D02*
X642Y-3569D01*
X278Y-3550D02*
X623D01*
X-998Y-473D02*
X115Y-1586D01*
X154Y-1600D02*
X813Y-941D01*
X280Y-3548D02*
Y-3451D01*
X279Y-3450D02*
X280Y-3451D01*
X-8Y-1062D02*
Y-951D01*
Y-1062D02*
X159Y-1229D01*
X-416Y1062D02*
X155D01*
X11D02*
X12Y1061D01*
X5050Y-4467D02*
Y-2895D01*
X5063Y-4472D02*
Y-2890D01*
X4828Y-2655D02*
X5063Y-2890D01*
X4002Y-5533D02*
X5063Y-4472D01*
X4823Y-2668D02*
X5050Y-2895D01*
X3997Y-5520D02*
X5050Y-4467D01*
X4600Y-2655D02*
X4828D01*
X4614Y-2668D02*
X4823D01*
X468Y746D02*
X2565Y-1352D01*
X454Y740D02*
X2560Y-1365D01*
X454Y740D02*
Y888D01*
X2565Y-1352D02*
X3241D01*
X468Y746D02*
Y894D01*
X3241Y-1352D02*
X3430Y-1541D01*
Y-1622D02*
Y-1541D01*
X2956Y-2631D02*
X3577D01*
X1670Y-1367D02*
X2947Y-2644D01*
X1669Y-1407D02*
X2932Y-2670D01*
X1488Y-1407D02*
X1669D01*
X5308Y-7578D02*
X5309Y-7579D01*
X5210Y-7578D02*
X5308D01*
X5194Y-7562D02*
X5210Y-7578D01*
X1242Y-6134D02*
Y-5997D01*
X1292Y-6134D02*
Y-5997D01*
X1142Y-5998D02*
Y-5997D01*
X4090Y-4828D02*
Y-3703D01*
Y-4828D02*
X4290Y-5028D01*
X4103Y-4814D02*
X4319Y-5030D01*
X4322D01*
X-115Y-5533D02*
X4002D01*
X-115Y-5520D02*
X3997D01*
X-141Y-5494D02*
X-115Y-5520D01*
X-160Y-5494D02*
X-141D01*
Y-5559D02*
X-115Y-5533D01*
X1096Y-6082D02*
Y-6072D01*
X1057Y-6033D02*
X1096Y-6072D01*
X622Y-6013D02*
X623Y-6014D01*
X578Y-6013D02*
X622D01*
X745Y-5939D02*
X767Y-5960D01*
X973Y-6128D02*
X1027D01*
X947Y-6102D02*
X973Y-6128D01*
X947Y-6102D02*
Y-6066D01*
X1142Y-6134D02*
Y-5998D01*
X1192Y-6002D02*
Y-5997D01*
Y-6134D02*
Y-6002D01*
X1503Y-5893D02*
X1585Y-5811D01*
X1399Y-5997D02*
X1503Y-5893D01*
X581Y-5939D02*
X745D01*
X578Y-5936D02*
X581Y-5939D01*
X4369Y-2886D02*
X4600Y-2655D01*
X4381Y-2900D02*
X4614Y-2668D01*
X4367Y-2886D02*
X4369D01*
X-408Y-7350D02*
X-405Y-7354D01*
X1483Y-1412D02*
X1488Y-1407D01*
X-356Y1717D02*
X468Y894D01*
X-268Y1611D02*
X454Y888D01*
X540Y821D02*
X753Y608D01*
X500Y821D02*
X540D01*
X-861Y1611D02*
X-268D01*
X-896Y1717D02*
X-356D01*
X500Y853D02*
X526D01*
X758Y621D01*
X3130Y-1622D02*
Y-1598D01*
X155Y1062D02*
X225Y992D01*
Y966D02*
Y992D01*
X5340Y-7355D02*
X5354Y-7341D01*
X5308Y-7355D02*
X5340D01*
X4290Y-5033D02*
Y-5028D01*
X5354Y-7386D02*
Y-7341D01*
X5336Y-7404D02*
X5354Y-7386D01*
X4003Y-3614D02*
X4064D01*
X4002Y-3613D02*
X4003Y-3614D01*
X4064D02*
X4107Y-3657D01*
X3962Y-3653D02*
X4002Y-3613D01*
X4090Y-3703D02*
X4107Y-3687D01*
Y-3657D01*
X5340Y-7748D02*
X5341D01*
Y-7795D02*
X5354Y-7809D01*
X5341Y-7795D02*
Y-7748D01*
X5287Y-7695D02*
X5340Y-7748D01*
X4120Y-3692D02*
Y-3651D01*
X3948Y-3639D02*
X3993Y-3594D01*
X4116Y-3696D02*
Y-3696D01*
X4120Y-3692D01*
X4103Y-3708D02*
X4116Y-3696D01*
X3907Y-3222D02*
X4026Y-3341D01*
X3920Y-3217D02*
X4039Y-3336D01*
X3933Y-3211D02*
X4052Y-3330D01*
X3946Y-3206D02*
X4065Y-3325D01*
X3946Y-3206D02*
Y-2926D01*
X3865Y-2844D02*
X3946Y-2926D01*
X3809Y-2900D02*
X3890Y-2981D01*
Y-3059D02*
Y-2981D01*
X3778Y-3171D02*
X3890Y-3059D01*
X4404Y-5266D02*
X5194Y-6056D01*
Y-7562D02*
Y-6056D01*
X3823Y-2886D02*
X3907Y-2970D01*
Y-3222D02*
Y-2970D01*
X5426Y-7404D02*
X5427Y-7404D01*
X5474D01*
X5410Y-7387D02*
X5426Y-7404D01*
X5410Y-7387D02*
Y-7341D01*
X5431Y-7748D02*
X5432Y-7748D01*
X5479D01*
X5410Y-7809D02*
X5431Y-7787D01*
Y-7748D01*
X2017Y43D02*
X2019Y41D01*
Y-36D02*
Y41D01*
X2021Y-260D02*
X2200D01*
X1867Y-106D02*
X2021Y-260D01*
X2067Y-97D02*
Y43D01*
X2036Y-128D02*
X2067Y-97D01*
X2117Y-28D02*
Y43D01*
X2107Y-38D02*
X2117Y-28D01*
X1867Y-106D02*
Y43D01*
X1817Y399D02*
Y466D01*
X1818Y467D01*
X4650Y-2763D02*
X4722Y-2690D01*
X4650Y-2778D02*
Y-2763D01*
X4722Y-2690D02*
Y-2690D01*
X4501Y-2926D02*
X4650Y-2778D01*
X4700Y-2745D02*
X4722Y-2722D01*
Y-2722D01*
X4700Y-2747D02*
Y-2745D01*
X4507Y-2940D02*
X4700Y-2747D01*
X4480Y-2940D02*
X4507D01*
X4713Y-2754D02*
X4722D01*
X4513Y-2954D02*
X4713Y-2754D01*
X4494Y-2954D02*
X4513D01*
X4465Y-2984D02*
X4494Y-2954D01*
X4701Y-2786D02*
X4722D01*
X4679Y-2807D02*
X4701Y-2786D01*
X4679Y-2807D02*
X4679D01*
X4519Y-2968D02*
X4679Y-2807D01*
X4508Y-2968D02*
X4519D01*
X4478Y-2997D02*
X4508Y-2968D01*
X4688Y-2818D02*
X4722D01*
X4549Y-2957D02*
X4688Y-2818D01*
X4549Y-3010D02*
Y-2957D01*
X4520Y-3039D02*
X4549Y-3010D01*
X3933Y-3211D02*
Y-2941D01*
X3837Y-2872D02*
X3920Y-2955D01*
Y-3217D02*
Y-2955D01*
X3768Y-2887D02*
Y-2822D01*
X3577Y-2631D02*
X3768Y-2822D01*
Y-2887D02*
X3795Y-2914D01*
X3674Y-2876D02*
X3753Y-2956D01*
X3654Y-2876D02*
X3674D01*
X3401Y-2743D02*
X3684Y-3025D01*
X3401Y-2743D02*
Y-2738D01*
X3379Y-2760D02*
X3497Y-2879D01*
X3510D01*
X3641Y-3010D01*
X3356Y-2783D02*
X3475Y-2902D01*
X3505D01*
X3627Y-3024D01*
X3333Y-2806D02*
X3452Y-2924D01*
X3311Y-2828D02*
X3422Y-2940D01*
X3289Y-2857D02*
X3401Y-2970D01*
X3520Y-3001D02*
X3614Y-3095D01*
X3537Y-3130D02*
X3558Y-3151D01*
X3425Y-3130D02*
X3537D01*
X428Y-3620D02*
X430Y-3618D01*
X428Y-3660D02*
Y-3620D01*
X410Y-3678D02*
X428Y-3660D01*
X410Y-3724D02*
Y-3678D01*
X3641Y-3010D02*
X3670Y-3039D01*
X3641Y-3010D02*
Y-3010D01*
X438Y-3226D02*
Y-3196D01*
X408Y-3256D02*
X438Y-3226D01*
X362Y-3302D02*
X408Y-3256D01*
X362Y-3310D02*
Y-3302D01*
X3627Y-3024D02*
X3656Y-3053D01*
X3627Y-3024D02*
Y-3024D01*
X707Y-2978D02*
X743Y-2942D01*
X707Y-2985D02*
Y-2978D01*
X673Y-3018D02*
X707Y-2985D01*
X646Y-3018D02*
X673D01*
X1016Y-2686D02*
X1033Y-2669D01*
X978Y-2686D02*
X1016D01*
X959Y-2704D02*
X978Y-2686D01*
X913Y-2704D02*
X959D01*
X1438Y-2705D02*
X1440Y-2703D01*
X1373Y-2697D02*
X1381Y-2705D01*
X1438D01*
X1317Y-2697D02*
X1373D01*
X1838Y-2685D02*
X1839Y-2686D01*
X1785Y-2685D02*
X1838D01*
X1731Y-2639D02*
X1739D01*
X1785Y-2685D01*
X3570Y-3349D02*
X3614Y-3305D01*
X3524Y-3349D02*
X3570D01*
X3474Y-3399D02*
X3524Y-3349D01*
X3478Y-3377D02*
X3519Y-3336D01*
X3426Y-3377D02*
X3478D01*
X3535Y-3375D02*
X3599D01*
X3468Y-3442D02*
X3535Y-3375D01*
X3540Y-3323D02*
X3586Y-3277D01*
X3513Y-3323D02*
X3540D01*
X3555Y-3336D02*
X3600Y-3291D01*
X3519Y-3336D02*
X3555D01*
X3529Y-3362D02*
X3585D01*
X3479Y-3413D02*
X3529Y-3362D01*
X3385Y-3413D02*
X3479D01*
X3585Y-3362D02*
X3628Y-3319D01*
X3468Y-3442D02*
X3468D01*
X3020Y-3183D02*
Y-3029D01*
X3599Y-3375D02*
X3642Y-3333D01*
X3605Y-3398D02*
X3656Y-3347D01*
X3544Y-3398D02*
X3605D01*
X3470Y-3606D02*
X3535Y-3541D01*
X3712D01*
X3386Y-3606D02*
X3470D01*
X3712Y-3541D02*
X3781Y-3472D01*
X3716Y-3565D02*
X3795Y-3486D01*
X3545Y-3565D02*
X3716D01*
X2397Y-3327D02*
X2413Y-3343D01*
X2397Y-3327D02*
Y-3310D01*
X2991Y-3000D02*
X3020Y-3029D01*
X-428Y-7362D02*
Y-7171D01*
X-408Y-7350D02*
Y-7171D01*
X-405Y-7363D02*
Y-7354D01*
Y-7363D02*
X-396Y-7371D01*
X-395D01*
X-338Y-7484D02*
X-196D01*
X-607Y-7048D02*
X-586D01*
X-610Y-7045D02*
X-607Y-7048D01*
X-803Y-7045D02*
X-610D01*
X-607Y-7029D02*
X-586D01*
X-610Y-7032D02*
X-607Y-7029D01*
X-797Y-7032D02*
X-610D01*
X-820Y-7009D02*
X-797Y-7032D01*
X-833Y-7014D02*
X-803Y-7045D01*
X-746Y-6675D02*
X-746Y-6675D01*
X-731Y-6706D02*
X-723Y-6698D01*
X-731Y-6774D02*
Y-6706D01*
X-746Y-6752D02*
Y-6675D01*
Y-6752D02*
X-744Y-6753D01*
Y-6769D02*
Y-6753D01*
X-833Y-7014D02*
Y-6858D01*
X-744Y-6769D01*
X-820Y-7009D02*
Y-6863D01*
X-731Y-6774D01*
X-635Y-6871D02*
X-586D01*
X-659Y-6847D02*
X-635Y-6871D01*
X-659Y-6847D02*
Y-6646D01*
X-711Y-6594D02*
X-659Y-6646D01*
X-634Y-6891D02*
X-586D01*
X-668Y-6856D02*
X-634Y-6891D01*
X-668Y-6856D02*
Y-6856D01*
X-672Y-6852D02*
X-668Y-6856D01*
X-672Y-6852D02*
Y-6651D01*
X-724Y-6599D02*
X-672Y-6651D01*
X-586Y-6387D02*
Y-6359D01*
X-576Y-6349D01*
X-724Y-6599D02*
Y-6502D01*
X-711Y-6594D02*
Y-6507D01*
X-724Y-6502D02*
X-632Y-6410D01*
X-634Y-6335D02*
X-632Y-6337D01*
Y-6410D02*
Y-6337D01*
X-711Y-6507D02*
X-611Y-6408D01*
Y-6335D01*
X-576Y-6299D01*
X-520D02*
X-490Y-6329D01*
X-285Y-6464D02*
Y-6403D01*
X-290Y-6399D02*
X-285Y-6403D01*
X1140Y-2949D02*
Y-2554D01*
X1147Y-2547D01*
X1837Y-3076D02*
Y-2910D01*
X2015Y-2732D01*
X2089Y-3769D02*
X2216D01*
X2310Y-3863D01*
X2492D01*
X1825Y-4458D02*
Y-4266D01*
Y-4458D02*
X2060Y-4693D01*
X914Y-4360D02*
Y-4240D01*
X646Y-4628D02*
X914Y-4360D01*
X2492Y-3908D02*
Y-3863D01*
Y-3908D02*
X2493Y-3909D01*
X2060Y-4693D02*
X2061D01*
X2092Y-4662D01*
X646Y-4628D02*
X654D01*
X682Y-4656D01*
X626Y-4765D02*
X750Y-4889D01*
X278Y-3550D02*
X280Y-3548D01*
X3867Y-3298D02*
X3934Y-3365D01*
X3760Y-3298D02*
X3867D01*
X3684Y-3375D02*
X3760Y-3298D01*
X1147Y-2547D02*
X1187D01*
X1190Y-2550D01*
X1213Y-2448D02*
X2003D01*
X3409Y-3543D02*
X3454D01*
X3564Y-3434D02*
X3597D01*
X312Y-3288D02*
Y-3234D01*
X347Y-3199D02*
Y-3160D01*
X312Y-3234D02*
X324Y-3222D01*
X347Y-3199D01*
X601Y-2883D02*
X606D01*
X643Y-2921D01*
Y-2944D02*
Y-2921D01*
X608Y-2980D02*
X643Y-2944D01*
X918Y-2576D02*
Y-2549D01*
Y-2576D02*
X943Y-2602D01*
X891Y-2654D02*
X892D01*
X943Y-2602D01*
X1382Y-2614D02*
Y-2557D01*
X1381Y-2615D02*
X1382Y-2614D01*
X1317Y-2641D02*
X1354D01*
X1381Y-2615D01*
X1753Y-2589D02*
X1807D01*
X1819Y-2601D01*
X1841Y-2579D02*
Y-2549D01*
X1819Y-2601D02*
X1841Y-2579D01*
X2120Y-2920D02*
X2123D01*
X2158Y-2885D01*
Y-2883D01*
X2120Y-2943D02*
Y-2920D01*
Y-2943D02*
X2156Y-2980D01*
X2465Y-3195D02*
X2492D01*
X2439Y-3220D02*
X2465Y-3195D01*
X2439Y-3280D02*
Y-3220D01*
Y-3280D02*
X2447Y-3288D01*
X2355Y-3268D02*
Y-3255D01*
Y-3268D02*
X2397Y-3310D01*
X2336Y-3705D02*
Y-3658D01*
Y-3705D02*
X2354Y-3724D01*
X2427Y-3659D02*
X2474D01*
X2410Y-3724D02*
Y-3677D01*
X2427Y-3659D01*
X2356Y-4119D02*
Y-4062D01*
X2347Y-4128D02*
X2356Y-4119D01*
X2397Y-4150D02*
Y-4139D01*
X2440Y-4096D01*
X2474D01*
X2497Y-4118D01*
X2056Y-4428D02*
X2090D01*
X2121Y-4397D01*
X2125D01*
X2158Y-4430D01*
X1753Y-4724D02*
X1812D01*
X1821Y-4716D01*
X1846Y-4742D01*
Y-4774D02*
Y-4742D01*
X1317Y-4687D02*
X1366D01*
X1383Y-4703D01*
X1382Y-4751D02*
Y-4704D01*
X886Y-4674D02*
X902D01*
X945Y-4717D01*
Y-4751D02*
Y-4717D01*
X923Y-4774D02*
X945Y-4751D01*
X531Y-4510D02*
X532D01*
X573Y-4469D01*
X543Y-4438D02*
Y-4403D01*
Y-4438D02*
X573Y-4469D01*
X581Y-4365D02*
X597D01*
X637Y-4405D01*
X272Y-4118D02*
X304D01*
X325Y-4098D01*
X317Y-4089D02*
Y-4030D01*
Y-4089D02*
X325Y-4098D01*
X280Y-3659D02*
X337D01*
X338Y-3660D01*
X354Y-3724D02*
Y-3677D01*
X338Y-3660D02*
X354Y-3677D01*
X3597Y-3434D02*
X3670Y-3361D01*
X3454Y-3543D02*
X3478Y-3519D01*
X750Y-4889D02*
X2587D01*
X3892Y-3583D01*
X2623Y-4902D02*
X3804Y-3721D01*
X3928Y-3742D02*
X3990Y-3681D01*
X3868Y-3742D02*
X3928D01*
X2564Y-5046D02*
X3868Y-3742D01*
X3942Y-3756D02*
X4004Y-3695D01*
X3872Y-3756D02*
X3942D01*
X2570Y-5059D02*
X3872Y-3756D01*
X3914Y-3729D02*
X3976Y-3667D01*
X3863Y-3729D02*
X3914D01*
X3775Y-3818D02*
X3775D01*
X3863Y-3729D01*
X2559Y-5033D02*
X3775Y-3818D01*
X-160Y-5559D02*
X-141D01*
X3851Y-2858D02*
X3933Y-2941D01*
X4052Y-3495D02*
Y-3330D01*
Y-3495D02*
X4061Y-3504D01*
Y-3536D02*
X4061Y-3536D01*
X4061Y-3536D02*
Y-3504D01*
X4065Y-3490D02*
Y-3325D01*
Y-3490D02*
X4084Y-3509D01*
Y-3559D02*
X4084Y-3559D01*
X4084Y-3559D02*
Y-3509D01*
X4039Y-3513D02*
Y-3336D01*
X4039Y-3514D02*
X4039Y-3513D01*
X4026Y-3481D02*
Y-3341D01*
X4016Y-3491D02*
X4026Y-3481D01*
X3572Y-3263D02*
X3621Y-3215D01*
X3864D01*
X3990Y-3341D01*
Y-3455D02*
Y-3341D01*
X1585Y-5811D02*
Y-5596D01*
X1342Y-5997D02*
X1399D01*
X637Y-4442D02*
Y-4405D01*
Y-4442D02*
X643Y-4448D01*
X2356Y-4062D02*
X2398Y-4020D01*
X2455D01*
X2336Y-3658D02*
Y-3608D01*
X2346Y-3598D02*
X2348Y-3600D01*
X2336Y-3608D02*
X2346Y-3598D01*
X367Y-4022D02*
Y-4008D01*
Y-4022D02*
X409Y-4063D01*
X408Y-4130D02*
X409Y-4129D01*
Y-4063D01*
X979Y-4633D02*
X1033Y-4687D01*
X908Y-4624D02*
X970D01*
X979Y-4633D01*
X1033Y-4693D02*
Y-4687D01*
X1383Y-4613D02*
X1421Y-4651D01*
X1442D01*
X1317Y-4631D02*
X1364D01*
X1383Y-4613D01*
X1731Y-4674D02*
X1745D01*
X1786Y-4632D01*
X1831D01*
X1840Y-4641D01*
X2018Y-4390D02*
Y-4373D01*
X2057Y-4333D01*
X2140D01*
X2144Y-4329D01*
X2587Y-3910D02*
X3521D01*
X3879Y-3571D02*
Y-3570D01*
X2213Y-4667D02*
X2782D01*
X2554Y-5020D02*
X3845Y-3729D01*
Y-3659D01*
X3906Y-3597D01*
X2782Y-4667D02*
X3879Y-3571D01*
X3521Y-3910D02*
X3829Y-3602D01*
Y-3591D01*
X3865Y-3556D01*
X2015Y-2741D02*
Y-2732D01*
Y-2741D02*
X2033Y-2759D01*
X1382Y-3659D02*
X1393D01*
X2926Y-3543D02*
X3278D01*
X2003Y-2448D02*
X3036Y-3481D01*
X3605D02*
X3698Y-3389D01*
X3036Y-3481D02*
X3605D01*
X3620Y-3494D02*
X3712Y-3403D01*
X3278Y-3543D02*
X3327Y-3494D01*
X3620D01*
X3112Y-3571D02*
X3270D01*
X3334Y-3507D01*
X3373D01*
X3409Y-3543D01*
X3529Y-3279D02*
X3558Y-3249D01*
X3425Y-3279D02*
X3529D01*
X3369Y-3130D02*
X3425D01*
X3320Y-3178D02*
X3369Y-3130D01*
X3366Y-3279D02*
X3425D01*
X3320Y-3233D02*
X3366Y-3279D01*
X2130Y-3018D02*
X2140Y-3028D01*
X2056Y-2984D02*
X2083D01*
X2118Y-3018D02*
X2130D01*
X2083Y-2984D02*
X2118Y-3018D01*
X-870Y10D02*
X-824D01*
X-900Y-20D02*
X-870Y10D01*
X-900Y-99D02*
Y-20D01*
X836Y-9D02*
X1000D01*
X1145Y-154D01*
X-998Y480D02*
X-416Y1062D01*
X-387Y-387D02*
Y-384D01*
X-419Y-418D02*
X-387Y-387D01*
X-473Y-392D02*
X-446D01*
X-419Y-418D01*
X386Y-387D02*
Y-386D01*
Y-387D02*
X418Y-419D01*
X449Y-389D02*
X472D01*
X418Y-419D02*
X449Y-389D01*
X388Y387D02*
Y388D01*
X419Y418D01*
X449Y389D02*
X472D01*
X419Y418D02*
X449Y389D01*
X-474Y391D02*
X-447D01*
X-418Y419D01*
X-418D01*
X-385Y386D01*
X-998Y-473D02*
Y480D01*
X-900Y-518D02*
Y-99D01*
X813Y-941D02*
Y-4D01*
X483Y455D02*
X510Y427D01*
X483Y455D02*
Y482D01*
X557D02*
X588Y451D01*
X483Y482D02*
X557D01*
X482Y-544D02*
X483Y-545D01*
X482Y-544D02*
Y-483D01*
X510Y-455D01*
Y-427D01*
X-489Y-567D02*
X-483Y-561D01*
X-511Y-454D02*
Y-430D01*
Y-454D02*
X-483Y-482D01*
Y-561D02*
Y-482D01*
X-613Y481D02*
X-611Y483D01*
X-482D01*
X-512Y429D02*
X-482Y460D01*
Y483D01*
X1415Y-1344D02*
X1415Y-1344D01*
X1438Y-1367D02*
X1438Y-1367D01*
D61*
X3616Y-2113D02*
Y-1653D01*
X2843Y-880D02*
X3616Y-1653D01*
X2329Y-880D02*
X2843D01*
X3288Y-1642D02*
X3307Y-1623D01*
X3262Y-1642D02*
X3288D01*
X3233Y-1671D02*
X3262Y-1642D01*
X3307Y-1623D02*
Y-1583D01*
X3220Y-2115D02*
Y-2000D01*
X3188Y-2147D02*
X3220Y-2115D01*
X3188Y-2178D02*
Y-2147D01*
X4613Y-3118D02*
X4720Y-3011D01*
X4609Y-3118D02*
X4613D01*
X4720Y-3011D02*
X4970D01*
X4042Y-2402D02*
X4450D01*
X4012Y-2432D02*
X4042Y-2402D01*
X3999Y-2386D02*
X4443D01*
X3969Y-2416D02*
X3999Y-2386D01*
X3966Y-2370D02*
X4437D01*
X3934Y-2402D02*
X3966Y-2370D01*
X4437D02*
X4590Y-2216D01*
X4443Y-2386D02*
X4590Y-2239D01*
X4450Y-2402D02*
X4589Y-2263D01*
X4012Y-2436D02*
Y-2432D01*
X3731Y-2376D02*
X3752D01*
X3721Y-2366D02*
X3731Y-2376D01*
X3721Y-2366D02*
Y-2332D01*
X3731Y-2322D01*
X3838Y-2376D02*
X3898D01*
X3838Y-2402D02*
X3934D01*
X4589Y-2263D02*
X5087D01*
X4590Y-2239D02*
X5108D01*
X5110Y-2240D01*
X4590Y-2216D02*
X5131D01*
X5132Y-2218D01*
X4989Y-3006D02*
X4997Y-2998D01*
X4974Y-3006D02*
X4989D01*
X4970Y-3011D02*
X4974Y-3006D01*
X4724Y-3030D02*
X4997D01*
X4623Y-3132D02*
X4724Y-3030D01*
X4974Y-3054D02*
X4989D01*
X4970Y-3050D02*
X4974Y-3054D01*
X4989D02*
X4997Y-3062D01*
X4732Y-3050D02*
X4970D01*
X4636Y-3146D02*
X4732Y-3050D01*
X3616Y-2113D02*
X3811Y-2308D01*
X3833D01*
X3550Y-1467D02*
X3919D01*
X3463Y-1380D02*
X3550Y-1467D01*
X2348Y-1814D02*
X2506D01*
X2884Y-2192D01*
X3125D01*
X3182Y-1820D02*
X3182Y-1820D01*
Y-1792D01*
X3551Y-2438D02*
X3586Y-2473D01*
X3674D01*
X3720Y-2427D01*
X3752D01*
X3608Y-2407D02*
X3639Y-2438D01*
X3608Y-2407D02*
Y-2386D01*
X3585Y-2363D02*
X3608Y-2386D01*
X3551Y-2363D02*
X3585D01*
X3548Y-2361D02*
X3551Y-2363D01*
X3483Y-2361D02*
X3548D01*
X3320Y-2408D02*
X3320Y-2408D01*
X3320Y-2408D02*
Y-2363D01*
X3269D02*
X3320D01*
X3423Y-2361D02*
X3425Y-2363D01*
X3378Y-2361D02*
X3423D01*
X3425Y-2413D02*
Y-2363D01*
X3386Y-2507D02*
X3425Y-2468D01*
X3306Y-2507D02*
X3386D01*
X3269Y-2470D02*
X3306Y-2507D01*
X3269Y-2470D02*
Y-2438D01*
X3181Y-2390D02*
Y-2363D01*
Y-2390D02*
X3229Y-2438D01*
X3269D01*
X3262Y-2126D02*
X3263Y-2125D01*
X3320D01*
X3262Y-2126D02*
X3262Y-2126D01*
Y-2178D02*
Y-2126D01*
X3235Y-2239D02*
X3262Y-2212D01*
X3215Y-2239D02*
X3235D01*
X3188Y-2266D02*
X3215Y-2239D01*
X3262Y-2212D02*
Y-2178D01*
X3125Y-2310D02*
Y-2252D01*
Y-2310D02*
X3178Y-2363D01*
X3181D01*
X3173Y-2192D02*
X3188Y-2178D01*
X3125Y-2192D02*
X3173D01*
X3305Y-2054D02*
X3320Y-2069D01*
X3305Y-2054D02*
Y-2000D01*
X3346D02*
X3358Y-2011D01*
X3305Y-2000D02*
X3346D01*
X3047Y-1895D02*
X3053Y-1901D01*
Y-1928D02*
Y-1901D01*
X3182Y-1963D02*
Y-1867D01*
X3169Y-1976D02*
X3182Y-1963D01*
X3118Y-1976D02*
X3169D01*
X3078Y-2016D02*
X3118Y-1976D01*
X3053Y-2016D02*
X3078D01*
X3000Y-2000D02*
X3036D01*
X3053Y-2016D01*
X3127Y-1847D02*
X3130Y-1845D01*
X3127Y-1928D02*
Y-1847D01*
X3238Y-1867D02*
X3282D01*
X3238D02*
Y-1866D01*
X3338Y-1797D02*
X3343Y-1792D01*
X3338Y-1867D02*
Y-1797D01*
Y-1867D02*
X3358Y-1887D01*
Y-1923D02*
Y-1887D01*
X3431Y-1921D02*
X3432Y-1923D01*
X3431Y-1921D02*
Y-1852D01*
X3305Y-1946D02*
Y-1944D01*
X3220Y-1885D02*
X3238Y-1867D01*
X3220Y-1944D02*
Y-1885D01*
X3251Y-1760D02*
X3430D01*
X3238Y-1773D02*
X3251Y-1760D01*
X3238Y-1792D02*
Y-1773D01*
X3430Y-1760D02*
Y-1732D01*
Y-1794D02*
Y-1760D01*
X3034Y-1845D02*
X3130D01*
X3000Y-1879D02*
X3034Y-1845D01*
X3000Y-1944D02*
Y-1879D01*
X3130Y-1789D02*
Y-1732D01*
X3213Y-1512D02*
Y-1452D01*
Y-1512D02*
X3257D01*
X3213D02*
X3213D01*
Y-1564D02*
Y-1512D01*
Y-1564D02*
X3233Y-1583D01*
X4460Y-2433D02*
X4571D01*
X4400D02*
X4460D01*
X4571D02*
X4571Y-2433D01*
X4172Y-1961D02*
Y-1949D01*
X4119Y-1896D02*
X4172Y-1949D01*
X4037Y-1896D02*
X4119D01*
X3983Y-2205D02*
X3985Y-2203D01*
X3937Y-2205D02*
X3983D01*
X4091Y-2248D02*
X4101Y-2258D01*
X4069Y-2248D02*
X4091D01*
X3833Y-2308D02*
X3836Y-2311D01*
X3862D01*
X4250Y-2266D02*
X4255Y-2261D01*
Y-2213D01*
X4096Y-2188D02*
X4101Y-2193D01*
X4050Y-2188D02*
X4096D01*
X4322Y-2325D02*
X4322Y-2326D01*
X4250Y-2325D02*
X4322D01*
X4197D02*
X4250D01*
X4189Y-2333D02*
X4197Y-2325D01*
X4189Y-2333D02*
Y-2317D01*
X4130Y-2258D02*
X4189Y-2317D01*
X4101Y-2258D02*
X4130D01*
X4023Y-2311D02*
X4045Y-2333D01*
X4018Y-2306D02*
X4023Y-2311D01*
X4045Y-2333D02*
X4101D01*
X4018Y-2306D02*
Y-2256D01*
X3918D02*
X3962D01*
X3918Y-2311D02*
Y-2256D01*
X3862D02*
X3863Y-2255D01*
Y-2205D01*
X3861Y-2203D02*
X3863Y-2205D01*
X3795Y-2203D02*
X3861D01*
X4294Y-2104D02*
X4298Y-2101D01*
X4294Y-2153D02*
Y-2104D01*
X4260Y-2153D02*
X4294D01*
X4255Y-2158D02*
X4260Y-2153D01*
X4224Y-2158D02*
X4255D01*
X4189Y-2193D02*
X4224Y-2158D01*
X3937Y-2100D02*
Y-2065D01*
Y-2116D02*
Y-2100D01*
X3928Y-2056D02*
X3937Y-2065D01*
X4235Y-2093D02*
X4242Y-2101D01*
X4109Y-2093D02*
X4235D01*
X4101Y-2101D02*
X4109Y-2093D01*
X4101Y-2118D02*
Y-2101D01*
X4222Y-2050D02*
X4222Y-2051D01*
X4172Y-2050D02*
X4222D01*
X4094Y-2053D02*
X4098Y-2050D01*
X4025Y-2053D02*
X4094D01*
X4004D02*
X4025D01*
X3952Y-2001D02*
X4004Y-2053D01*
X3930Y-2001D02*
X3952D01*
X3870D02*
X3872Y-2003D01*
Y-2056D02*
Y-2003D01*
X4025Y-1998D02*
X4037Y-1986D01*
Y-1896D01*
X4277Y-1940D02*
Y-1891D01*
X4256Y-1961D02*
X4277Y-1940D01*
X4172Y-1961D02*
X4256D01*
X4220Y-1893D02*
X4277Y-1836D01*
X4212Y-1893D02*
X4220D01*
X3985D02*
X4037Y-1841D01*
X3967Y-1893D02*
X3985D01*
X3967Y-1780D02*
X3970Y-1778D01*
X3967Y-1834D02*
Y-1780D01*
X3958Y-1766D02*
X3970Y-1778D01*
X3902Y-1766D02*
X3958D01*
X4090Y-1778D02*
X4092Y-1776D01*
X4044Y-1778D02*
X4090D01*
X4208Y-1776D02*
X4210Y-1778D01*
X4147Y-1776D02*
X4208D01*
X4210Y-1832D02*
X4212Y-1834D01*
X4210Y-1832D02*
Y-1778D01*
X4284D02*
X4286Y-1776D01*
X4337D01*
X4284Y-1664D02*
X4314Y-1635D01*
X4284Y-1689D02*
Y-1664D01*
X4234Y-1635D02*
X4314D01*
X4159D02*
X4234D01*
X4147Y-1647D02*
X4159Y-1635D01*
X4147Y-1721D02*
Y-1647D01*
X3919Y-1630D02*
X4069D01*
X4044Y-1664D02*
X4074Y-1635D01*
X4044Y-1689D02*
Y-1664D01*
X3902Y-1647D02*
X3919Y-1630D01*
X3902Y-1711D02*
Y-1647D01*
X4069Y-1630D02*
X4074Y-1635D01*
X4314Y-1579D02*
X4314Y-1579D01*
X4314Y-1579D02*
Y-1527D01*
X4234Y-1579D02*
X4234Y-1579D01*
X4234Y-1579D02*
Y-1527D01*
X4159Y-1579D02*
X4159Y-1579D01*
X4159Y-1579D02*
Y-1527D01*
X4074Y-1579D02*
X4074Y-1579D01*
X4074Y-1579D02*
Y-1527D01*
X3999Y-1579D02*
X3999Y-1579D01*
X3999Y-1579D02*
Y-1527D01*
X3919Y-1574D02*
X3919Y-1574D01*
X3919Y-1574D02*
Y-1527D01*
X3463Y-1380D02*
Y-1317D01*
X3718Y-1384D02*
Y-1317D01*
Y-1384D02*
X3743Y-1409D01*
X3968D01*
X3999Y-1440D01*
Y-1467D02*
Y-1440D01*
X3973Y-1366D02*
Y-1317D01*
Y-1366D02*
X4074Y-1467D01*
X4228Y-1382D02*
Y-1317D01*
X4159Y-1451D02*
X4228Y-1382D01*
X4159Y-1467D02*
Y-1451D01*
X4483Y-1389D02*
Y-1322D01*
X4452Y-1420D02*
X4483Y-1389D01*
X4281Y-1420D02*
X4452D01*
X4234Y-1467D02*
X4281Y-1420D01*
X4738Y-1357D02*
Y-1322D01*
X4628Y-1467D02*
X4738Y-1357D01*
X4314Y-1467D02*
X4628D01*
X4838Y-1322D02*
Y-1295D01*
X4890Y-1243D01*
X4583Y-1322D02*
Y-1295D01*
X4635Y-1243D01*
X4328Y-1317D02*
Y-1295D01*
X4380Y-1243D01*
X4073Y-1317D02*
Y-1290D01*
X4125Y-1238D01*
X3818Y-1317D02*
Y-1290D01*
X3870Y-1238D01*
X3563Y-1317D02*
Y-1290D01*
X3615Y-1238D01*
X4838Y-1135D02*
X4890Y-1187D01*
X4838Y-1135D02*
Y-1112D01*
X4583Y-1135D02*
X4635Y-1187D01*
X4583Y-1135D02*
Y-1112D01*
X4328Y-1135D02*
X4380Y-1187D01*
X4328Y-1135D02*
Y-1107D01*
X4073Y-1130D02*
X4125Y-1182D01*
X4073Y-1130D02*
Y-1107D01*
X3818Y-1130D02*
X3870Y-1182D01*
X3818Y-1130D02*
Y-1107D01*
X3563Y-1130D02*
X3615Y-1182D01*
X3563Y-1130D02*
Y-1107D01*
D62*
X-202Y-7216D02*
X-153D01*
X-277Y-7291D02*
X-202Y-7216D01*
X-326Y-7291D02*
X-277D01*
X-339Y-7239D02*
X-329Y-7230D01*
X-339Y-7278D02*
Y-7239D01*
Y-7278D02*
X-326Y-7291D01*
X-329Y-7230D02*
Y-7171D01*
X577Y-6562D02*
Y-6404D01*
X448Y-6275D02*
X577Y-6404D01*
X272Y-6275D02*
X448D01*
X997Y-6066D02*
Y-6002D01*
X968Y-5973D02*
X997Y-6002D01*
X888Y-5973D02*
X968D01*
X731Y-5952D02*
X758Y-5979D01*
X882D01*
X517Y-6089D02*
X616D01*
X476Y-6048D02*
X517Y-6089D01*
X287Y-6048D02*
X476D01*
X263Y-6024D02*
X287Y-6048D01*
X209Y-6024D02*
X263D01*
X-168Y-6150D02*
X-168Y-6150D01*
X-102Y-6118D02*
X-102Y-6118D01*
X27Y-6102D02*
X43Y-6086D01*
X-87Y-6102D02*
X27D01*
X-102Y-6087D02*
X-87Y-6102D01*
X-168Y-6181D02*
X-168Y-6182D01*
X43D01*
X-168Y-6150D02*
X58D01*
X357Y-5743D02*
X390D01*
X343Y-5729D02*
X357Y-5743D01*
X310Y-5729D02*
X343D01*
X563Y-5743D02*
X572Y-5734D01*
X464Y-5743D02*
X563D01*
X680Y-5827D02*
X706Y-5853D01*
X566Y-5827D02*
X680D01*
X518Y-5875D02*
X566Y-5827D01*
X642Y-5885D02*
X669Y-5858D01*
X578Y-5885D02*
X642D01*
X557D02*
X578D01*
X513Y-5929D02*
X557Y-5885D01*
X513Y-5961D02*
Y-5929D01*
X414Y-5918D02*
X452Y-5956D01*
X414Y-5918D02*
Y-5868D01*
X376Y-5911D02*
X443Y-5978D01*
X356Y-5911D02*
X376D01*
X443Y-5978D02*
X461D01*
X384Y-5936D02*
X438Y-5990D01*
X356Y-5936D02*
X384D01*
X438Y-5990D02*
X467D01*
X5911Y-7592D02*
X5913Y-7594D01*
X5976D01*
X203Y-5916D02*
Y-5790D01*
X127Y-5714D02*
X203Y-5790D01*
X-8Y-5714D02*
X127D01*
X496Y-5843D02*
X774Y-5565D01*
X697Y-6314D02*
Y-6252D01*
X88Y-6762D02*
X117Y-6791D01*
X88Y-6762D02*
Y-6546D01*
X83Y-6541D02*
X88Y-6546D01*
X83Y-6541D02*
Y-6464D01*
X272Y-6307D02*
X358D01*
X427Y-6454D02*
Y-6376D01*
X358Y-6307D02*
X427Y-6376D01*
X-311Y-5868D02*
X-309Y-5866D01*
X-262D01*
X432Y-6466D02*
X436Y-6463D01*
X432Y-6594D02*
Y-6466D01*
X546Y-6593D02*
X577Y-6562D01*
X545Y-6594D02*
X546Y-6593D01*
X488Y-6594D02*
X545D01*
X949Y-6344D02*
Y-6254D01*
X947Y-6252D02*
X949Y-6254D01*
X897Y-6252D02*
X947D01*
X554Y-6170D02*
X555Y-6171D01*
X578D01*
X634D02*
X654Y-6191D01*
X747D01*
X386Y-6594D02*
X432D01*
X4431Y-4189D02*
X4628Y-3992D01*
X4185Y-4189D02*
X4431D01*
X4465Y-3416D02*
X4628Y-3580D01*
Y-3992D02*
Y-3580D01*
X4451Y-3430D02*
X4616Y-3596D01*
Y-3987D02*
Y-3596D01*
X4443Y-4160D02*
X4616Y-3987D01*
X4222Y-4160D02*
X4443D01*
X747Y-6191D02*
X784Y-6154D01*
X933D01*
X747Y-6252D02*
Y-6191D01*
X2478Y-5565D02*
X2480Y-5567D01*
X774Y-5565D02*
X2478D01*
X496Y-5943D02*
Y-5843D01*
X461Y-5978D02*
X496Y-5943D01*
X882Y-5979D02*
X888Y-5973D01*
X1292Y-5941D02*
X1342D01*
X1242D02*
X1292D01*
X1353Y-5930D02*
X1374D01*
X1342Y-5941D02*
X1353Y-5930D01*
X1192Y-5941D02*
X1242D01*
X1142D02*
X1192D01*
X967Y-5876D02*
X1486D01*
X1503Y-5893D01*
X1342Y-6134D02*
Y-5997D01*
X902Y-5879D02*
X905Y-5876D01*
X967D01*
X797Y-6185D02*
X799Y-6183D01*
X797Y-6252D02*
Y-6185D01*
X669Y-5962D02*
X679Y-5952D01*
X578Y-5962D02*
X669D01*
X679Y-5952D02*
X731D01*
X847Y-6066D02*
Y-5979D01*
X649Y-6041D02*
X716Y-5974D01*
X649Y-6056D02*
Y-6041D01*
X795Y-6064D02*
Y-6010D01*
Y-6064D02*
X797Y-6066D01*
X771Y-5848D02*
X777Y-5842D01*
X832D01*
X616Y-6089D02*
X649Y-6056D01*
X467Y-5990D02*
X496Y-5961D01*
X669Y-5858D02*
X677D01*
X405Y-5743D02*
X426Y-5764D01*
Y-5889D02*
Y-5764D01*
X390Y-5743D02*
X405D01*
X426Y-5889D02*
X448Y-5911D01*
X405Y-5859D02*
X414Y-5868D01*
X356Y-5859D02*
X405D01*
X513Y-5961D02*
X577D01*
X496D02*
X513D01*
X577D02*
X578Y-5962D01*
X509Y-5987D02*
X578D01*
X505Y-5983D02*
X509Y-5987D01*
X706Y-5913D02*
Y-5853D01*
X518Y-5882D02*
Y-5875D01*
X370Y-5814D02*
X390Y-5795D01*
X310Y-5814D02*
X370D01*
X577Y-6454D02*
X727D01*
X200Y-6338D02*
X272D01*
X-74D02*
X200D01*
X279Y-5845D02*
X310Y-5814D01*
X232Y-5845D02*
X279D01*
X215Y-5862D02*
X232Y-5845D01*
X215Y-5885D02*
Y-5862D01*
Y-5885D02*
X261Y-5931D01*
X311D01*
X209Y-6379D02*
X231Y-6401D01*
X272D01*
X177Y-5942D02*
X203Y-5916D01*
X238Y-5874D02*
X249Y-5885D01*
X-17Y-6018D02*
X-11Y-6024D01*
X-17Y-6018D02*
Y-5942D01*
X249Y-5885D02*
X356D01*
X747Y-6141D02*
Y-6066D01*
Y-6141D02*
X749Y-6143D01*
X227Y-6464D02*
X283Y-6520D01*
X209Y-6464D02*
X227D01*
X418Y-6213D02*
X419Y-6214D01*
X272Y-6213D02*
X418D01*
X381Y-6164D02*
X419D01*
X364Y-6181D02*
X381Y-6164D01*
X272Y-6181D02*
X364D01*
X375Y-6114D02*
X419D01*
X339Y-6150D02*
X375Y-6114D01*
X272Y-6150D02*
X339D01*
X121Y-6270D02*
X140Y-6289D01*
X81Y-6270D02*
X121D01*
X-42Y-6076D02*
X-41Y-6077D01*
X-42Y-6076D02*
Y-6024D01*
X578Y-5911D02*
X645D01*
X649Y-5915D01*
X-79Y-5932D02*
Y-5930D01*
X-105Y-5958D02*
X-79Y-5932D01*
X-105Y-6024D02*
Y-5958D01*
X897Y-6066D02*
Y-5995D01*
X177Y-5942D02*
X178Y-5943D01*
Y-6024D02*
Y-5943D01*
X122Y-5942D02*
X146Y-5966D01*
Y-6024D02*
Y-5966D01*
X-168Y-6087D02*
X-102D01*
X-102Y-6118D02*
X58D01*
X-168Y-6118D02*
X-102D01*
X-90Y-6322D02*
X-74Y-6338D01*
X355Y-5961D02*
X356Y-5962D01*
X280Y-5961D02*
X355D01*
X-11Y-6410D02*
X-2Y-6401D01*
X-11Y-6464D02*
Y-6410D01*
X-301Y-6059D02*
X-285Y-6043D01*
X-224D01*
X146Y-6085D02*
X146Y-6085D01*
Y-6024D01*
X-475Y-5959D02*
X-402D01*
X-311Y-5868D01*
X-91Y-6322D02*
X-90D01*
X114Y-6419D02*
X115Y-6420D01*
Y-6464D02*
Y-6420D01*
X-349Y-7214D02*
Y-7171D01*
X-361Y-7226D02*
X-349Y-7214D01*
X-513Y-6535D02*
Y-6488D01*
X-566Y-6608D02*
X-550Y-6623D01*
X-566Y-6608D02*
Y-6582D01*
X-388Y-6757D02*
X-382Y-6751D01*
X-388Y-6831D02*
Y-6757D01*
X-476Y-6573D02*
X-467Y-6582D01*
X-476Y-6573D02*
Y-6535D01*
Y-6623D02*
X-467Y-6615D01*
Y-6582D01*
X-411Y-6780D02*
X-408Y-6783D01*
Y-6831D02*
Y-6783D01*
X-453Y-6784D02*
Y-6742D01*
X-503D02*
X-487Y-6758D01*
Y-6831D02*
Y-6758D01*
X-448Y-6831D02*
X-446Y-6829D01*
Y-6791D01*
X-453Y-6784D02*
X-446Y-6791D01*
X-349Y-6831D02*
Y-6710D01*
X-353Y-6707D02*
X-349Y-6710D01*
X-403Y-6707D02*
X-353D01*
X-303Y-6745D02*
Y-6707D01*
X-329Y-6771D02*
X-303Y-6745D01*
X-329Y-6831D02*
Y-6771D01*
X-157Y-7070D02*
X-156Y-7069D01*
X-248Y-7070D02*
X-157D01*
X-250Y-7068D02*
X-248Y-7070D01*
X-172Y-7107D02*
X-156Y-7124D01*
X-250Y-7107D02*
X-172D01*
X4231Y-2691D02*
X4264Y-2658D01*
X4228Y-2691D02*
X4231D01*
X4202Y-2556D02*
X4402D01*
X4264Y-2559D02*
X4265Y-2558D01*
X4264Y-2658D02*
Y-2559D01*
X4200Y-2719D02*
X4228Y-2691D01*
X4400Y-2554D02*
X4402Y-2556D01*
X4400Y-2554D02*
Y-2488D01*
X4200Y-2553D02*
X4202Y-2556D01*
X3993Y-2530D02*
X4040Y-2578D01*
Y-2602D02*
Y-2578D01*
Y-2602D02*
X4094Y-2656D01*
Y-2702D02*
Y-2656D01*
X4084Y-2712D02*
X4094Y-2702D01*
X4066Y-2712D02*
X4084D01*
X4032Y-2677D02*
X4066Y-2712D01*
X3914Y-2557D02*
X3940Y-2583D01*
X3914Y-2557D02*
Y-2484D01*
X3930Y-2468D01*
X3852Y-2484D02*
X3914D01*
X3842Y-2474D02*
X3852Y-2484D01*
X3842Y-2474D02*
Y-2457D01*
X3838Y-2453D02*
X3842Y-2457D01*
X4788Y-1040D02*
X4790Y-1038D01*
X4738Y-1112D02*
X4740Y-1110D01*
X4533Y-1040D02*
X4535Y-1038D01*
X4483Y-1040D02*
X4485Y-1038D01*
X4278Y-1035D02*
X4280Y-1033D01*
X4228Y-1035D02*
X4230Y-1033D01*
X3970Y-1104D02*
X3973Y-1107D01*
X4023D02*
X4025Y-1105D01*
Y-1033D02*
X4025Y-1033D01*
X3923Y-932D02*
X3925Y-930D01*
X3820Y-1033D02*
X3820Y-1033D01*
X3768Y-1035D02*
X3770Y-1033D01*
X3718Y-1035D02*
X3720Y-1033D01*
X3513Y-1107D02*
X3515Y-1105D01*
X3463Y-1035D02*
X3465Y-1033D01*
X4690Y-941D02*
X4691Y-940D01*
X4430Y-982D02*
X4432Y-980D01*
Y-939D01*
X4176Y-933D02*
X4180Y-937D01*
X3669Y-976D02*
X3670Y-977D01*
X3414Y-976D02*
X3415Y-977D01*
X2380Y193D02*
X2382Y195D01*
Y236D01*
X1713Y157D02*
X2165D01*
X1667Y111D02*
X1713Y157D01*
X1667Y43D02*
Y111D01*
X2326Y192D02*
X2327Y191D01*
X2326Y192D02*
Y231D01*
X1691Y201D02*
X2138D01*
X1617Y127D02*
X1691Y201D01*
X1617Y43D02*
Y127D01*
X1567Y-51D02*
Y43D01*
X1617Y399D02*
X1622Y404D01*
Y488D01*
X1567Y399D02*
Y488D01*
X1515Y401D02*
X1517Y399D01*
X1515Y401D02*
Y461D01*
X2272Y191D02*
Y236D01*
X2217Y191D02*
Y236D01*
X2001D02*
X2217D01*
X1867Y370D02*
X2001Y236D01*
X1867Y370D02*
Y399D01*
D63*
X164Y-6574D02*
X182Y-6592D01*
Y-6868D02*
Y-6592D01*
Y-6868D02*
X233Y-6918D01*
X4840Y-982D02*
Y-908D01*
X4505Y-573D02*
X4840Y-908D01*
X4330Y-573D02*
X4505D01*
X117Y-6917D02*
X118Y-6918D01*
X117Y-6917D02*
Y-6847D01*
X232Y-6827D02*
X233Y-6828D01*
X232Y-6827D02*
Y-6772D01*
X4075Y-591D02*
X4091Y-575D01*
X4075Y-977D02*
Y-591D01*
X4788Y-1112D02*
Y-1040D01*
X4790Y-1038D02*
X4840D01*
X4740Y-1110D02*
Y-1038D01*
X4690D02*
X4740D01*
X4533Y-1112D02*
Y-1040D01*
X4535Y-1038D02*
X4585D01*
X4483Y-1112D02*
Y-1040D01*
X4430Y-1038D02*
X4485D01*
X4278Y-1107D02*
Y-1035D01*
X4280Y-1033D02*
X4325D01*
X4228Y-1107D02*
Y-1035D01*
X4180Y-1033D02*
X4230D01*
X3970Y-1104D02*
Y-1033D01*
X3923D02*
X3970D01*
X4025Y-1105D02*
Y-1033D01*
X4025Y-1033D02*
X4075D01*
X3923Y-977D02*
Y-932D01*
X3770Y-1033D02*
X3820D01*
X3768Y-1107D02*
Y-1035D01*
X3718Y-1107D02*
Y-1035D01*
X3670Y-1033D02*
X3720D01*
X3515Y-1105D02*
Y-1033D01*
X3565D01*
X3463Y-1107D02*
Y-1035D01*
X3415Y-1033D02*
X3465D01*
X3565Y-977D02*
Y-941D01*
X3931Y-575D01*
X3820Y-977D02*
Y-901D01*
X4010Y-711D01*
Y-575D01*
X4168Y-709D02*
Y-576D01*
Y-709D02*
X4325Y-866D01*
Y-977D02*
Y-866D01*
X4585Y-982D02*
Y-896D01*
X4446Y-757D02*
X4585Y-896D01*
X4317Y-757D02*
X4446D01*
X4244Y-684D02*
X4317Y-757D01*
X4244Y-684D02*
Y-573D01*
X4691Y-981D02*
Y-940D01*
X4180Y-977D02*
Y-937D01*
X3669Y-976D02*
Y-930D01*
X3414Y-976D02*
Y-929D01*
X4740Y-982D02*
X4790D01*
X4485D02*
X4535D01*
X3970Y-977D02*
X4025D01*
X3720D02*
X3770D01*
X3465D02*
X3515D01*
X-283Y-7402D02*
X-153Y-7272D01*
X-68D01*
X-68Y-7272D01*
X-43D01*
X17Y-7212D01*
Y-7109D01*
X118Y-7008D01*
X143D01*
X233Y-6918D01*
X-227Y-6213D02*
X-168D01*
X-230Y-6216D02*
X-227Y-6213D01*
X-230Y-6264D02*
Y-6216D01*
X-350Y-6264D02*
Y-6208D01*
X-301Y-6159D01*
X-345Y-6213D02*
X-227D01*
X-350Y-6208D02*
X-345Y-6213D01*
X122Y-5886D02*
X177D01*
X177Y-5886D01*
X1005Y-6344D02*
Y-6259D01*
X997Y-6252D02*
X1005Y-6259D01*
X85Y-5886D02*
X122D01*
X85Y-5886D02*
X85Y-5886D01*
X-168Y-6213D02*
X-72D01*
X-70Y-6215D01*
X-128Y-6581D02*
X-63D01*
X475Y-6242D02*
Y-6214D01*
X474Y-6243D02*
X475Y-6242D01*
X1005Y-6344D02*
X1006Y-6343D01*
X997Y-6252D02*
X1032D01*
X1032Y-6252D01*
X-428Y-7402D02*
X-283D01*
X-469Y-7443D02*
X-428Y-7402D01*
X-469Y-7631D02*
Y-7443D01*
X-542Y-7704D02*
X-469Y-7631D01*
X-666Y-7927D02*
Y-7826D01*
Y-7927D02*
X-665Y-7928D01*
X-780Y-7484D02*
X-639D01*
X-638D01*
X-428Y-7362D02*
X-427Y-7363D01*
D64*
X-1498Y1310D02*
Y1637D01*
Y1310D02*
X-1432Y1244D01*
X-1265Y1870D02*
X-1262D01*
X-932Y1540D01*
X-1265Y1870D02*
X-1064Y2071D01*
X-1498Y1637D02*
X-1265Y1870D01*
X4098Y-1961D02*
Y-1936D01*
X4148Y-2117D02*
X4149Y-2118D01*
X4189D01*
X3832Y-2097D02*
X3851Y-2116D01*
X3863D01*
Y-2154D02*
X3867Y-2158D01*
X3863Y-2154D02*
Y-2116D01*
X3643Y-2306D02*
X3668Y-2280D01*
X3639Y-2309D02*
X3643Y-2306D01*
X3668Y-2280D02*
Y-2277D01*
X3639Y-2363D02*
Y-2309D01*
X3323Y-2256D02*
X3359D01*
X3312Y-2266D02*
X3323Y-2256D01*
X3262Y-2266D02*
X3312D01*
X3129Y-2063D02*
X3157D01*
X3127Y-2062D02*
X3129Y-2063D01*
X3127Y-2062D02*
Y-2016D01*
X3462Y-2014D02*
X3463Y-2013D01*
X3435Y-2014D02*
X3462D01*
X3435Y-2059D02*
Y-2014D01*
X3307Y-1727D02*
X3339D01*
X3339Y-1727D01*
X3307Y-1727D02*
Y-1671D01*
X3313Y-1512D02*
X3351D01*
X4784Y-1242D02*
X4788Y-1246D01*
Y-1322D02*
Y-1246D01*
X4276Y-1238D02*
X4278Y-1240D01*
Y-1317D02*
Y-1240D01*
X3764D02*
X3768Y-1244D01*
Y-1317D02*
Y-1244D01*
X3511Y-1242D02*
X3513Y-1244D01*
Y-1317D02*
Y-1244D01*
D65*
X-861Y1611D02*
D03*
X-932Y1540D02*
D03*
X-967Y1646D02*
D03*
X-1038Y1575D02*
D03*
X-1002Y1469D02*
D03*
X-1073Y1399D02*
D03*
X-1108Y1505D02*
D03*
D66*
X-896Y1717D02*
D03*
D67*
X-1064Y2071D02*
D03*
X-1498Y1637D02*
D03*
D68*
X-1038Y1929D02*
D03*
X-1356Y1611D02*
D03*
D69*
X2375Y550D02*
D03*
X2394Y578D02*
D03*
X2422Y597D02*
D03*
X2456Y604D02*
D03*
X2490Y597D02*
D03*
X2518Y578D02*
D03*
X2537Y550D02*
D03*
X2544Y516D02*
D03*
X2537Y482D02*
D03*
X2518Y454D02*
D03*
X2490Y435D02*
D03*
X2456Y428D02*
D03*
X2422Y435D02*
D03*
X2394Y454D02*
D03*
X2375Y482D02*
D03*
X2368Y516D02*
D03*
X5633Y567D02*
D03*
X5652Y595D02*
D03*
X5680Y614D02*
D03*
X5714Y621D02*
D03*
X5748Y614D02*
D03*
X5776Y595D02*
D03*
X5795Y567D02*
D03*
X5802Y533D02*
D03*
X5795Y499D02*
D03*
X5776Y471D02*
D03*
X5748Y452D02*
D03*
X5714Y445D02*
D03*
X5680Y452D02*
D03*
X5652Y471D02*
D03*
X5633Y499D02*
D03*
X5626Y533D02*
D03*
X5778Y-4476D02*
D03*
X5797Y-4448D02*
D03*
X5825Y-4429D02*
D03*
X5859Y-4422D02*
D03*
X5893Y-4429D02*
D03*
X5921Y-4448D02*
D03*
X5940Y-4476D02*
D03*
X5947Y-4510D02*
D03*
X5940Y-4544D02*
D03*
X5921Y-4572D02*
D03*
X5893Y-4591D02*
D03*
X5859Y-4598D02*
D03*
X5825Y-4591D02*
D03*
X5797Y-4572D02*
D03*
X5778Y-4544D02*
D03*
X5771Y-4510D02*
D03*
X6766Y-1474D02*
D03*
X6785Y-1446D02*
D03*
X6813Y-1427D02*
D03*
X6847Y-1420D02*
D03*
X6881Y-1427D02*
D03*
X6909Y-1446D02*
D03*
X6928Y-1474D02*
D03*
X6935Y-1508D02*
D03*
X6928Y-1542D02*
D03*
X6909Y-1570D02*
D03*
X6881Y-1589D02*
D03*
X6847Y-1596D02*
D03*
X6813Y-1589D02*
D03*
X6785Y-1570D02*
D03*
X6766Y-1542D02*
D03*
X6759Y-1508D02*
D03*
X2454Y-6399D02*
D03*
X2473Y-6371D02*
D03*
X2501Y-6352D02*
D03*
X2535Y-6345D02*
D03*
X2569Y-6352D02*
D03*
X2597Y-6371D02*
D03*
X2616Y-6399D02*
D03*
X2623Y-6433D02*
D03*
X2616Y-6467D02*
D03*
X2597Y-6495D02*
D03*
X2569Y-6514D02*
D03*
X2535Y-6521D02*
D03*
X2501Y-6514D02*
D03*
X2473Y-6495D02*
D03*
X2454Y-6467D02*
D03*
X2447Y-6433D02*
D03*
X-429Y-7701D02*
D03*
X-410Y-7673D02*
D03*
X-382Y-7654D02*
D03*
X-348Y-7647D02*
D03*
X-314Y-7654D02*
D03*
X-286Y-7673D02*
D03*
X-267Y-7701D02*
D03*
X-260Y-7735D02*
D03*
X-267Y-7769D02*
D03*
X-286Y-7797D02*
D03*
X-314Y-7816D02*
D03*
X-348Y-7823D02*
D03*
X-382Y-7816D02*
D03*
X-410Y-7797D02*
D03*
X-429Y-7769D02*
D03*
X-436Y-7735D02*
D03*
X-101Y-4932D02*
D03*
X-82Y-4904D02*
D03*
X-54Y-4885D02*
D03*
X-20Y-4878D02*
D03*
X14Y-4885D02*
D03*
X42Y-4904D02*
D03*
X61Y-4932D02*
D03*
X68Y-4966D02*
D03*
X61Y-5000D02*
D03*
X42Y-5028D02*
D03*
X14Y-5047D02*
D03*
X-20Y-5054D02*
D03*
X-54Y-5047D02*
D03*
X-82Y-5028D02*
D03*
X-101Y-5000D02*
D03*
X-108Y-4966D02*
D03*
X-184Y-2262D02*
D03*
X-165Y-2234D02*
D03*
X-137Y-2215D02*
D03*
X-103Y-2208D02*
D03*
X-69Y-2215D02*
D03*
X-41Y-2234D02*
D03*
X-22Y-2262D02*
D03*
X-15Y-2296D02*
D03*
X-22Y-2330D02*
D03*
X-41Y-2358D02*
D03*
X-69Y-2377D02*
D03*
X-103Y-2384D02*
D03*
X-137Y-2377D02*
D03*
X-165Y-2358D02*
D03*
X-184Y-2330D02*
D03*
X-191Y-2296D02*
D03*
X-1473Y848D02*
D03*
X-1454Y876D02*
D03*
X-1426Y895D02*
D03*
X-1392Y902D02*
D03*
X-1358Y895D02*
D03*
X-1330Y876D02*
D03*
X-1311Y848D02*
D03*
X-1304Y814D02*
D03*
X-1311Y780D02*
D03*
X-1330Y752D02*
D03*
X-1358Y733D02*
D03*
X-1392Y726D02*
D03*
X-1426Y733D02*
D03*
X-1454Y752D02*
D03*
X-1473Y780D02*
D03*
X-1480Y814D02*
D03*
X5816Y-7062D02*
D03*
X5835Y-7034D02*
D03*
X5863Y-7015D02*
D03*
X5897Y-7008D02*
D03*
X5931Y-7015D02*
D03*
X5959Y-7034D02*
D03*
X5978Y-7062D02*
D03*
X5985Y-7096D02*
D03*
X5978Y-7130D02*
D03*
X5959Y-7158D02*
D03*
X5931Y-7177D02*
D03*
X5897Y-7184D02*
D03*
X5863Y-7177D02*
D03*
X5835Y-7158D02*
D03*
X5816Y-7130D02*
D03*
X5809Y-7096D02*
D03*
D70*
X2456Y516D02*
D03*
X5714Y533D02*
D03*
X5859Y-4510D02*
D03*
X6847Y-1508D02*
D03*
X2535Y-6433D02*
D03*
X-348Y-7735D02*
D03*
X-20Y-4966D02*
D03*
X-103Y-2296D02*
D03*
X-1392Y814D02*
D03*
X5897Y-7096D02*
D03*
D71*
X-515Y-8029D02*
D03*
X-689D02*
D03*
D72*
X4700Y-2985D02*
D03*
X3731Y-2322D02*
D03*
X4012Y-2436D02*
D03*
X3969Y-2416D02*
D03*
X3898Y-2376D02*
D03*
X5087Y-2263D02*
D03*
X5110Y-2240D02*
D03*
X5132Y-2218D02*
D03*
X4663Y-2327D02*
D03*
X4708Y-2322D02*
D03*
X4997Y-2998D02*
D03*
Y-3062D02*
D03*
Y-3030D02*
D03*
X1460Y-1389D02*
D03*
X2344Y-1580D02*
D03*
Y-1334D02*
D03*
X-63Y-2003D02*
D03*
X29Y-5262D02*
D03*
X3182Y-1820D02*
D03*
X4530Y-2812D02*
D03*
X3353Y-3543D02*
D03*
X697Y-6314D02*
D03*
X-261Y-5808D02*
D03*
X509Y-6649D02*
D03*
X351Y-6647D02*
D03*
X1585Y-5596D02*
D03*
X1242Y-5997D02*
D03*
X1289Y-5997D02*
D03*
X1192Y-6002D02*
D03*
X1142Y-5998D02*
D03*
X554Y-6170D02*
D03*
X4185Y-4189D02*
D03*
X4222Y-4160D02*
D03*
X933Y-6154D02*
D03*
X2480Y-5567D02*
D03*
X4660Y-3448D02*
D03*
X2596Y-5465D02*
D03*
X1291Y-6059D02*
D03*
X1096Y-6082D02*
D03*
X1057Y-6033D02*
D03*
X623Y-6014D02*
D03*
X1243Y-6089D02*
D03*
X1027Y-6128D02*
D03*
X1374Y-5930D02*
D03*
X799Y-6183D02*
D03*
X639Y-5857D02*
D03*
X649Y-5915D02*
D03*
X716Y-5974D02*
D03*
X902Y-5879D02*
D03*
X795Y-6010D02*
D03*
X771Y-5848D02*
D03*
X607Y-6067D02*
D03*
X677Y-5858D02*
D03*
X572Y-5734D02*
D03*
X519Y-5769D02*
D03*
X448Y-5911D02*
D03*
X452Y-5956D02*
D03*
X505Y-5983D02*
D03*
X518Y-5882D02*
D03*
X311Y-5931D02*
D03*
X209Y-6379D02*
D03*
X238Y-5874D02*
D03*
X140Y-6289D02*
D03*
X-17Y-5942D02*
D03*
X749Y-6143D02*
D03*
X283Y-6520D02*
D03*
X81Y-6270D02*
D03*
X-41Y-6077D02*
D03*
X-79Y-5930D02*
D03*
X897Y-5995D02*
D03*
X43Y-6086D02*
D03*
X58Y-6118D02*
D03*
Y-6150D02*
D03*
X43Y-6182D02*
D03*
X280Y-5961D02*
D03*
X-2Y-6401D02*
D03*
X-224Y-6043D02*
D03*
X146Y-6085D02*
D03*
X-311Y-5868D02*
D03*
X-91Y-6322D02*
D03*
X232Y-6715D02*
D03*
X114Y-6419D02*
D03*
X4525Y-2665D02*
D03*
X-371Y-7274D02*
D03*
X-361Y-7226D02*
D03*
X-310Y-7259D02*
D03*
X-513Y-6488D02*
D03*
X-566Y-6582D02*
D03*
X-382Y-6751D02*
D03*
X-467Y-6582D02*
D03*
X-411Y-6780D02*
D03*
X3575Y-2401D02*
D03*
X3225Y-2208D02*
D03*
X3263Y-2072D02*
D03*
X3047Y-1895D02*
D03*
X3231Y-1671D02*
D03*
X3238Y-1866D02*
D03*
X3431Y-1852D02*
D03*
X3305Y-1946D02*
D03*
X3130Y-1790D02*
D03*
X3287Y-1792D02*
D03*
X4069Y-2248D02*
D03*
X3833Y-2308D02*
D03*
X4322Y-2268D02*
D03*
X4242Y-2101D02*
D03*
X3797Y-2147D02*
D03*
X3937Y-2100D02*
D03*
X3925Y-930D02*
D03*
X4691Y-940D02*
D03*
X4432Y-939D02*
D03*
X4176Y-933D02*
D03*
X3669Y-930D02*
D03*
X3414Y-929D02*
D03*
X4330Y-573D02*
D03*
X4244D02*
D03*
X4168Y-576D02*
D03*
X4091Y-575D02*
D03*
X4010Y-575D02*
D03*
X3931Y-575D02*
D03*
X4431Y-2315D02*
D03*
X4495Y-2622D02*
D03*
X4408Y-2338D02*
D03*
X4471Y-2645D02*
D03*
X4462Y-2516D02*
D03*
X4466Y-2737D02*
D03*
X3848Y-2733D02*
D03*
X3562Y-2667D02*
D03*
X4077Y-2899D02*
D03*
X2380Y193D02*
D03*
X2165Y157D02*
D03*
X2326Y231D02*
D03*
X2138Y201D02*
D03*
X1515Y461D02*
D03*
X2272Y236D02*
D03*
X2062Y471D02*
D03*
X3778Y-3171D02*
D03*
X4103Y-2616D02*
D03*
X3917Y-2654D02*
D03*
X500Y853D02*
D03*
Y821D02*
D03*
X5308Y-7355D02*
D03*
X4290Y-5033D02*
D03*
X5287Y-7695D02*
D03*
X4322Y-5030D02*
D03*
X4404Y-5266D02*
D03*
X3767Y-3579D02*
D03*
X2019Y-36D02*
D03*
X2036Y-128D02*
D03*
X2107Y-38D02*
D03*
X2200Y-260D02*
D03*
X1818Y467D02*
D03*
X4722Y-2690D02*
D03*
Y-2722D02*
D03*
Y-2754D02*
D03*
Y-2786D02*
D03*
Y-2818D02*
D03*
X3289Y-2857D02*
D03*
X3401Y-2738D02*
D03*
X3379Y-2760D02*
D03*
X3356Y-2783D02*
D03*
X3333Y-2806D02*
D03*
X3311Y-2828D02*
D03*
X430Y-3618D02*
D03*
X438Y-3196D02*
D03*
X743Y-2942D02*
D03*
X1033Y-2669D02*
D03*
X1440Y-2703D02*
D03*
X1839Y-2686D02*
D03*
X3426Y-3377D02*
D03*
X3468Y-3442D02*
D03*
X3544Y-3398D02*
D03*
X3545Y-3565D02*
D03*
X3903Y-3439D02*
D03*
X3947Y-3509D02*
D03*
X4016Y-3491D02*
D03*
X3311Y-3409D02*
D03*
X2413Y-3343D02*
D03*
X3338Y-3661D02*
D03*
X2140Y-3028D02*
D03*
X2991Y-3000D02*
D03*
X1002Y-5933D02*
D03*
X151Y-6633D02*
D03*
X-586Y-6534D02*
D03*
X-270Y-6652D02*
D03*
X-160Y-6895D02*
D03*
X-69Y-7120D02*
D03*
X-68Y-7071D02*
D03*
X-205Y-6929D02*
D03*
X-200Y-7048D02*
D03*
X-466Y-7218D02*
D03*
X-546Y-7215D02*
D03*
X-657Y-7070D02*
D03*
X2425Y290D02*
D03*
X2115Y322D02*
D03*
X1716Y303D02*
D03*
X1665Y324D02*
D03*
X1470Y317D02*
D03*
X1717Y-51D02*
D03*
X1567Y-107D02*
D03*
X4504Y-3261D02*
D03*
X4556Y-3181D02*
D03*
X4368Y-3021D02*
D03*
X3973Y-2957D02*
D03*
X3834Y-3047D02*
D03*
X4657Y-2454D02*
D03*
X4016Y-2133D02*
D03*
X4313Y-2039D02*
D03*
X4333Y-1693D02*
D03*
X4092Y-1686D02*
D03*
X4740Y-953D02*
D03*
X4531Y-956D02*
D03*
X4485Y-955D02*
D03*
X4232Y-952D02*
D03*
X3972Y-950D02*
D03*
X3720Y-949D02*
D03*
X3466Y-947D02*
D03*
X3641Y-1318D02*
D03*
X3390D02*
D03*
X3896Y-1319D02*
D03*
X4153Y-1316D02*
D03*
X4408Y-1325D02*
D03*
X4663Y-1322D02*
D03*
X4535Y-1246D02*
D03*
X4025Y-1238D02*
D03*
X4325Y-2740D02*
D03*
X4288Y-2706D02*
D03*
X4292Y-2668D02*
D03*
X4229Y-2454D02*
D03*
X4168Y-2260D02*
D03*
X3149Y-2439D02*
D03*
X3853Y-2519D02*
D03*
X3701Y-2400D02*
D03*
X3690Y-2363D02*
D03*
X3972Y-1691D02*
D03*
X4210Y-1689D02*
D03*
X4098Y-1936D02*
D03*
X4148Y-2117D02*
D03*
X3832Y-2097D02*
D03*
X3867Y-2158D02*
D03*
X3668Y-2277D02*
D03*
X3359Y-2256D02*
D03*
X3157Y-2063D02*
D03*
X3463Y-2013D02*
D03*
X3339Y-1727D02*
D03*
X3351Y-1512D02*
D03*
X4784Y-1242D02*
D03*
X4276Y-1238D02*
D03*
X3764Y-1240D02*
D03*
X3511Y-1242D02*
D03*
X4195Y-2813D02*
D03*
X3238Y-2521D02*
D03*
X218Y-6244D02*
D03*
X355Y-5770D02*
D03*
X1366Y-6295D02*
D03*
X1239Y-6362D02*
D03*
X1193Y-6366D02*
D03*
X824Y-5933D02*
D03*
X772Y-5934D02*
D03*
X695Y-6129D02*
D03*
X473Y-6089D02*
D03*
X312Y-6012D02*
D03*
X228Y-5728D02*
D03*
X233Y-5814D02*
D03*
X79Y-5813D02*
D03*
X-224Y-5957D02*
D03*
X-117Y-6243D02*
D03*
X-290Y-6285D02*
D03*
X-443Y-6262D02*
D03*
X-402Y-6407D02*
D03*
X-673Y-6563D02*
D03*
X-512Y-6591D02*
D03*
X-597Y-6680D02*
D03*
X-403Y-6620D02*
D03*
X-369Y-6487D02*
D03*
X176Y-6403D02*
D03*
X219Y-6544D02*
D03*
X125Y-6542D02*
D03*
X146Y-6718D02*
D03*
X-65Y-6763D02*
D03*
X-128Y-6766D02*
D03*
X-67Y-6927D02*
D03*
X-66Y-7001D02*
D03*
X-33Y-7216D02*
D03*
X-135Y-7452D02*
D03*
X-285Y-7344D02*
D03*
X-374D02*
D03*
X-464Y-7354D02*
D03*
X-548Y-7350D02*
D03*
X-858Y-7522D02*
D03*
X-426Y-8066D02*
D03*
X-350Y-7929D02*
D03*
X-836Y-8080D02*
D03*
X-840Y-7928D02*
D03*
X3820Y-2993D02*
D03*
X3621Y-3185D02*
D03*
X3494Y-2992D02*
D03*
X4082Y-3671D02*
D03*
X3922Y-3873D02*
D03*
X3711Y-3656D02*
D03*
X3882Y-3486D02*
D03*
X4477Y-3317D02*
D03*
X4519Y-3120D02*
D03*
X4350Y-2959D02*
D03*
X3876Y-2458D02*
D03*
X4027Y-2798D02*
D03*
X3857Y-2681D02*
D03*
X4027Y-2867D02*
D03*
X3663Y-2854D02*
D03*
X2417Y135D02*
D03*
X1717Y-135D02*
D03*
X1517Y105D02*
D03*
X1920Y104D02*
D03*
X1817Y115D02*
D03*
X1768Y109D02*
D03*
X2018Y473D02*
D03*
X1967Y476D02*
D03*
X1916Y475D02*
D03*
X1768Y470D02*
D03*
X1718Y564D02*
D03*
X3142Y-1412D02*
D03*
X3159Y-1543D02*
D03*
X3266Y-1612D02*
D03*
X3223Y-1727D02*
D03*
X3398Y-1961D02*
D03*
X3087Y-1969D02*
D03*
X3167Y-2120D02*
D03*
X3433Y-2141D02*
D03*
X3356Y-2187D02*
D03*
X3232Y-2401D02*
D03*
X3352Y-2464D02*
D03*
X3554Y-2308D02*
D03*
X3734Y-2516D02*
D03*
X3996Y-2582D02*
D03*
X4348Y-2621D02*
D03*
X4223Y-2643D02*
D03*
X4741Y-2413D02*
D03*
X4604Y-2397D02*
D03*
X4499Y-2554D02*
D03*
X4541Y-2488D02*
D03*
X4336Y-2492D02*
D03*
X4171Y-2497D02*
D03*
X3967Y-2340D02*
D03*
X4143Y-2315D02*
D03*
X3909Y-2165D02*
D03*
X4141Y-2163D02*
D03*
X4131Y-2009D02*
D03*
X4242Y-1744D02*
D03*
X4005Y-1738D02*
D03*
X4784Y-1187D02*
D03*
X4688Y-1112D02*
D03*
X4535Y-1187D02*
D03*
X4433Y-1112D02*
D03*
X4275Y-1182D02*
D03*
X4178Y-1107D02*
D03*
X4024Y-1180D02*
D03*
X3923Y-1107D02*
D03*
X3763Y-1183D02*
D03*
X3668Y-1107D02*
D03*
X3511Y-1182D02*
D03*
X3413Y-1105D02*
D03*
X5530Y-7356D02*
D03*
X6033Y-7540D02*
D03*
X5569Y-7785D02*
D03*
X85Y-5886D02*
D03*
X164Y-6574D02*
D03*
X-64Y-6579D02*
D03*
X-70Y-6215D02*
D03*
X474Y-6243D02*
D03*
X1032Y-6252D02*
D03*
X3533Y-2715D02*
D03*
X1101Y-6288D02*
D03*
X-347Y345D02*
D03*
X351Y346D02*
D03*
X172Y912D02*
D03*
X-782Y-113D02*
D03*
X-323Y-319D02*
D03*
X353Y-345D02*
D03*
X1314Y-342D02*
D03*
X1355Y234D02*
D03*
X264Y-1227D02*
D03*
X1333Y-763D02*
D03*
X-527Y-7839D02*
D03*
X-542Y-7704D02*
D03*
X-666Y-7826D02*
D03*
X-427Y-7363D02*
D03*
X-639Y-7484D02*
D03*
X-395Y-7371D02*
D03*
X-328Y-7486D02*
D03*
X-776Y-6994D02*
D03*
Y-7079D02*
D03*
X-479Y-6685D02*
D03*
X-527Y-6782D02*
D03*
X-302Y-5600D02*
D03*
X-746Y-6675D02*
D03*
X-324Y-5578D02*
D03*
X-656Y-6911D02*
D03*
X-776Y-6914D02*
D03*
X-657Y-6988D02*
D03*
X-723Y-6698D02*
D03*
X-586Y-6387D02*
D03*
X-634Y-6335D02*
D03*
X2493Y-3909D02*
D03*
X2587Y-3910D02*
D03*
X4005Y-3822D02*
D03*
X2092Y-4662D02*
D03*
X2213Y-4667D02*
D03*
X682Y-4656D02*
D03*
X626Y-4765D02*
D03*
X278Y-3550D02*
D03*
X176Y-3552D02*
D03*
X3804Y-3721D02*
D03*
X3934Y-3365D02*
D03*
X1190Y-2550D02*
D03*
X1213Y-2448D02*
D03*
X3478Y-3519D02*
D03*
X4061Y-3536D02*
D03*
X4084Y-3559D02*
D03*
X4039Y-3514D02*
D03*
X3990Y-3455D02*
D03*
X643Y-4448D02*
D03*
X2455Y-4020D02*
D03*
X2348Y-3600D02*
D03*
X3651Y-3155D02*
D03*
X408Y-4130D02*
D03*
X1033Y-4693D02*
D03*
X1442Y-4651D02*
D03*
X1840Y-4641D02*
D03*
X2144Y-4329D02*
D03*
X3386Y-3606D02*
D03*
X2033Y-2759D02*
D03*
X2926Y-3543D02*
D03*
X1393Y-3659D02*
D03*
X3385Y-3413D02*
D03*
X3112Y-3571D02*
D03*
X3564Y-3434D02*
D03*
X588Y451D02*
D03*
X483Y-545D02*
D03*
X-489Y-567D02*
D03*
X-613Y481D02*
D03*
X1415Y-1344D02*
D03*
X1438Y-1367D02*
D03*
X1483Y-1412D02*
D03*
D73*
X-324Y-6905D02*
D03*
X-324Y-7003D02*
D03*
X-324Y-7093D02*
D03*
X-415Y-7093D02*
D03*
X-424Y-6905D02*
D03*
X-512Y-6905D02*
D03*
Y-7093D02*
D03*
Y-7004D02*
D03*
D74*
X-419Y-6999D02*
D03*
M02*
