%FSLAX23Y23*%
%MOIN*%
G70*
G01*
G75*
G04 Layer_Color=8388736*
%ADD10C,0.450*%
%ADD11R,0.031X0.033*%
%ADD12R,0.217X0.059*%
%ADD13R,0.033X0.031*%
%ADD14R,0.043X0.105*%
%ADD15R,0.043X0.059*%
%ADD16R,0.105X0.043*%
G04:AMPARAMS|DCode=17|XSize=33mil|YSize=31mil|CornerRadius=0mil|HoleSize=0mil|Usage=FLASHONLY|Rotation=292.500|XOffset=0mil|YOffset=0mil|HoleType=Round|Shape=Rectangle|*
%AMROTATEDRECTD17*
4,1,4,-0.021,0.009,0.008,0.021,0.021,-0.009,-0.008,-0.021,-0.021,0.009,0.0*
%
%ADD17ROTATEDRECTD17*%

G04:AMPARAMS|DCode=18|XSize=33mil|YSize=31mil|CornerRadius=0mil|HoleSize=0mil|Usage=FLASHONLY|Rotation=337.500|XOffset=0mil|YOffset=0mil|HoleType=Round|Shape=Rectangle|*
%AMROTATEDRECTD18*
4,1,4,-0.021,-0.008,-0.009,0.021,0.021,0.008,0.009,-0.021,-0.021,-0.008,0.0*
%
%ADD18ROTATEDRECTD18*%

G04:AMPARAMS|DCode=19|XSize=33mil|YSize=31mil|CornerRadius=0mil|HoleSize=0mil|Usage=FLASHONLY|Rotation=22.500|XOffset=0mil|YOffset=0mil|HoleType=Round|Shape=Rectangle|*
%AMROTATEDRECTD19*
4,1,4,-0.009,-0.021,-0.021,0.008,0.009,0.021,0.021,-0.008,-0.009,-0.021,0.0*
%
%ADD19ROTATEDRECTD19*%

G04:AMPARAMS|DCode=20|XSize=33mil|YSize=31mil|CornerRadius=0mil|HoleSize=0mil|Usage=FLASHONLY|Rotation=67.500|XOffset=0mil|YOffset=0mil|HoleType=Round|Shape=Rectangle|*
%AMROTATEDRECTD20*
4,1,4,0.008,-0.021,-0.021,-0.009,-0.008,0.021,0.021,0.009,0.008,-0.021,0.0*
%
%ADD20ROTATEDRECTD20*%

G04:AMPARAMS|DCode=21|XSize=59mil|YSize=43mil|CornerRadius=0mil|HoleSize=0mil|Usage=FLASHONLY|Rotation=112.500|XOffset=0mil|YOffset=0mil|HoleType=Round|Shape=Rectangle|*
%AMROTATEDRECTD21*
4,1,4,0.031,-0.019,-0.009,-0.036,-0.031,0.019,0.009,0.036,0.031,-0.019,0.0*
%
%ADD21ROTATEDRECTD21*%

G04:AMPARAMS|DCode=22|XSize=59mil|YSize=43mil|CornerRadius=0mil|HoleSize=0mil|Usage=FLASHONLY|Rotation=157.500|XOffset=0mil|YOffset=0mil|HoleType=Round|Shape=Rectangle|*
%AMROTATEDRECTD22*
4,1,4,0.036,0.009,0.019,-0.031,-0.036,-0.009,-0.019,0.031,0.036,0.009,0.0*
%
%ADD22ROTATEDRECTD22*%

G04:AMPARAMS|DCode=23|XSize=59mil|YSize=43mil|CornerRadius=0mil|HoleSize=0mil|Usage=FLASHONLY|Rotation=202.500|XOffset=0mil|YOffset=0mil|HoleType=Round|Shape=Rectangle|*
%AMROTATEDRECTD23*
4,1,4,0.019,0.031,0.036,-0.009,-0.019,-0.031,-0.036,0.009,0.019,0.031,0.0*
%
%ADD23ROTATEDRECTD23*%

G04:AMPARAMS|DCode=24|XSize=59mil|YSize=43mil|CornerRadius=0mil|HoleSize=0mil|Usage=FLASHONLY|Rotation=247.500|XOffset=0mil|YOffset=0mil|HoleType=Round|Shape=Rectangle|*
%AMROTATEDRECTD24*
4,1,4,-0.009,0.036,0.031,0.019,0.009,-0.036,-0.031,-0.019,-0.009,0.036,0.0*
%
%ADD24ROTATEDRECTD24*%

G04:AMPARAMS|DCode=25|XSize=33mil|YSize=31mil|CornerRadius=0mil|HoleSize=0mil|Usage=FLASHONLY|Rotation=292.850|XOffset=0mil|YOffset=0mil|HoleType=Round|Shape=Rectangle|*
%AMROTATEDRECTD25*
4,1,4,-0.021,0.009,0.008,0.022,0.021,-0.009,-0.008,-0.022,-0.021,0.009,0.0*
%
%ADD25ROTATEDRECTD25*%

G04:AMPARAMS|DCode=26|XSize=33mil|YSize=31mil|CornerRadius=0mil|HoleSize=0mil|Usage=FLASHONLY|Rotation=315.000|XOffset=0mil|YOffset=0mil|HoleType=Round|Shape=Rectangle|*
%AMROTATEDRECTD26*
4,1,4,-0.023,0.001,-0.001,0.023,0.023,-0.001,0.001,-0.023,-0.023,0.001,0.0*
%
%ADD26ROTATEDRECTD26*%

G04:AMPARAMS|DCode=27|XSize=33mil|YSize=31mil|CornerRadius=0mil|HoleSize=0mil|Usage=FLASHONLY|Rotation=45.000|XOffset=0mil|YOffset=0mil|HoleType=Round|Shape=Rectangle|*
%AMROTATEDRECTD27*
4,1,4,-0.001,-0.023,-0.023,-0.001,0.001,0.023,0.023,0.001,-0.001,-0.023,0.0*
%
%ADD27ROTATEDRECTD27*%

G04:AMPARAMS|DCode=28|XSize=59mil|YSize=43mil|CornerRadius=0mil|HoleSize=0mil|Usage=FLASHONLY|Rotation=135.000|XOffset=0mil|YOffset=0mil|HoleType=Round|Shape=Rectangle|*
%AMROTATEDRECTD28*
4,1,4,0.036,-0.006,0.006,-0.036,-0.036,0.006,-0.006,0.036,0.036,-0.006,0.0*
%
%ADD28ROTATEDRECTD28*%

%ADD29R,0.059X0.043*%
G04:AMPARAMS|DCode=30|XSize=59mil|YSize=43mil|CornerRadius=0mil|HoleSize=0mil|Usage=FLASHONLY|Rotation=225.000|XOffset=0mil|YOffset=0mil|HoleType=Round|Shape=Rectangle|*
%AMROTATEDRECTD30*
4,1,4,0.006,0.036,0.036,0.006,-0.006,-0.036,-0.036,-0.006,0.006,0.036,0.0*
%
%ADD30ROTATEDRECTD30*%

G04:AMPARAMS|DCode=31|XSize=10mil|YSize=59mil|CornerRadius=0mil|HoleSize=0mil|Usage=FLASHONLY|Rotation=225.000|XOffset=0mil|YOffset=0mil|HoleType=Round|Shape=Rectangle|*
%AMROTATEDRECTD31*
4,1,4,-0.017,0.024,0.024,-0.017,0.017,-0.024,-0.024,0.017,-0.017,0.024,0.0*
%
%ADD31ROTATEDRECTD31*%

G04:AMPARAMS|DCode=32|XSize=10mil|YSize=59mil|CornerRadius=0mil|HoleSize=0mil|Usage=FLASHONLY|Rotation=315.000|XOffset=0mil|YOffset=0mil|HoleType=Round|Shape=Rectangle|*
%AMROTATEDRECTD32*
4,1,4,-0.024,-0.017,0.017,0.024,0.024,0.017,-0.017,-0.024,-0.024,-0.017,0.0*
%
%ADD32ROTATEDRECTD32*%

%ADD33R,0.026X0.014*%
%ADD34R,0.049X0.014*%
%ADD35R,0.033X0.024*%
%ADD36R,0.047X0.024*%
G04:AMPARAMS|DCode=37|XSize=24mil|YSize=33mil|CornerRadius=0mil|HoleSize=0mil|Usage=FLASHONLY|Rotation=225.000|XOffset=0mil|YOffset=0mil|HoleType=Round|Shape=Rectangle|*
%AMROTATEDRECTD37*
4,1,4,-0.003,0.020,0.020,-0.003,0.003,-0.020,-0.020,0.003,-0.003,0.020,0.0*
%
%ADD37ROTATEDRECTD37*%

%ADD38R,0.035X0.012*%
%ADD39C,0.039*%
%ADD40R,0.055X0.043*%
%ADD41R,0.024X0.033*%
%ADD42R,0.043X0.055*%
%ADD43R,0.024X0.081*%
%ADD44R,0.069X0.039*%
%ADD45R,0.035X0.049*%
%ADD46R,0.020X0.093*%
%ADD47R,0.079X0.098*%
%ADD48R,0.029X0.110*%
%ADD49R,0.024X0.079*%
%ADD50R,0.094X0.079*%
%ADD51R,0.110X0.050*%
%ADD52R,0.051X0.022*%
%ADD53R,0.022X0.051*%
%ADD54R,0.024X0.089*%
%ADD55R,0.033X0.010*%
%ADD56R,0.010X0.033*%
%ADD57R,0.240X0.240*%
%ADD58R,0.150X0.050*%
%ADD59C,0.008*%
%ADD60C,0.007*%
%ADD61C,0.010*%
%ADD62C,0.006*%
%ADD63C,0.012*%
%ADD64C,0.020*%
%ADD65C,0.059*%
%ADD66P,0.084X4X90.0*%
%ADD67C,0.100*%
%ADD68C,0.116*%
%ADD69C,0.030*%
%ADD70C,0.230*%
%ADD71C,0.018*%
%ADD72C,0.026*%
%ADD73C,0.050*%
%ADD74C,0.087*%
%ADD75C,0.040*%
%ADD76C,0.075*%
%ADD77C,0.105*%
%ADD78C,0.168*%
%ADD79C,0.060*%
%ADD80C,0.162*%
%ADD81C,0.087*%
%ADD82C,0.099*%
%ADD83C,0.078*%
G04:AMPARAMS|DCode=84|XSize=72mil|YSize=72mil|CornerRadius=0mil|HoleSize=0mil|Usage=FLASHONLY|Rotation=0.000|XOffset=0mil|YOffset=0mil|HoleType=Round|Shape=Relief|Width=10mil|Gap=10mil|Entries=4|*
%AMTHD84*
7,0,0,0.072,0.052,0.010,45*
%
%ADD84THD84*%
%ADD85C,0.052*%
G04:AMPARAMS|DCode=86|XSize=88mil|YSize=88mil|CornerRadius=0mil|HoleSize=0mil|Usage=FLASHONLY|Rotation=0.000|XOffset=0mil|YOffset=0mil|HoleType=Round|Shape=Relief|Width=10mil|Gap=10mil|Entries=4|*
%AMTHD86*
7,0,0,0.088,0.068,0.010,45*
%
%ADD86THD86*%
G04:AMPARAMS|DCode=87|XSize=119.055mil|YSize=119.055mil|CornerRadius=0mil|HoleSize=0mil|Usage=FLASHONLY|Rotation=0.000|XOffset=0mil|YOffset=0mil|HoleType=Round|Shape=Relief|Width=10mil|Gap=10mil|Entries=4|*
%AMTHD87*
7,0,0,0.119,0.099,0.010,45*
%
%ADD87THD87*%
%ADD88R,0.049X0.035*%
%ADD89R,0.050X0.050*%
%ADD90R,0.035X0.083*%
%ADD91R,0.130X0.083*%
%ADD92R,0.031X0.118*%
%ADD93R,0.038X0.035*%
%ADD94R,0.038X0.026*%
%ADD95R,0.039X0.079*%
G04:AMPARAMS|DCode=96|XSize=120mil|YSize=50mil|CornerRadius=0mil|HoleSize=0mil|Usage=FLASHONLY|Rotation=135.000|XOffset=0mil|YOffset=0mil|HoleType=Round|Shape=Rectangle|*
%AMROTATEDRECTD96*
4,1,4,0.060,-0.025,0.025,-0.060,-0.060,0.025,-0.025,0.060,0.060,-0.025,0.0*
%
%ADD96ROTATEDRECTD96*%

%ADD97C,0.050*%
%ADD98C,0.030*%
%ADD99C,0.024*%
%ADD100C,0.010*%
%ADD101C,0.008*%
%ADD102C,0.005*%
%ADD103C,0.004*%
%ADD104R,0.024X0.047*%
%ADD105R,0.025X0.025*%
%ADD106R,0.039X0.041*%
%ADD107R,0.225X0.067*%
%ADD108R,0.041X0.039*%
%ADD109R,0.051X0.113*%
%ADD110R,0.051X0.067*%
%ADD111R,0.113X0.051*%
G04:AMPARAMS|DCode=112|XSize=41mil|YSize=39mil|CornerRadius=0mil|HoleSize=0mil|Usage=FLASHONLY|Rotation=292.500|XOffset=0mil|YOffset=0mil|HoleType=Round|Shape=Rectangle|*
%AMROTATEDRECTD112*
4,1,4,-0.026,0.012,0.010,0.027,0.026,-0.012,-0.010,-0.027,-0.026,0.012,0.0*
%
%ADD112ROTATEDRECTD112*%

G04:AMPARAMS|DCode=113|XSize=41mil|YSize=39mil|CornerRadius=0mil|HoleSize=0mil|Usage=FLASHONLY|Rotation=337.500|XOffset=0mil|YOffset=0mil|HoleType=Round|Shape=Rectangle|*
%AMROTATEDRECTD113*
4,1,4,-0.027,-0.010,-0.012,0.026,0.027,0.010,0.012,-0.026,-0.027,-0.010,0.0*
%
%ADD113ROTATEDRECTD113*%

G04:AMPARAMS|DCode=114|XSize=41mil|YSize=39mil|CornerRadius=0mil|HoleSize=0mil|Usage=FLASHONLY|Rotation=22.500|XOffset=0mil|YOffset=0mil|HoleType=Round|Shape=Rectangle|*
%AMROTATEDRECTD114*
4,1,4,-0.012,-0.026,-0.027,0.010,0.012,0.026,0.027,-0.010,-0.012,-0.026,0.0*
%
%ADD114ROTATEDRECTD114*%

G04:AMPARAMS|DCode=115|XSize=41mil|YSize=39mil|CornerRadius=0mil|HoleSize=0mil|Usage=FLASHONLY|Rotation=67.500|XOffset=0mil|YOffset=0mil|HoleType=Round|Shape=Rectangle|*
%AMROTATEDRECTD115*
4,1,4,0.010,-0.027,-0.026,-0.012,-0.010,0.027,0.026,0.012,0.010,-0.027,0.0*
%
%ADD115ROTATEDRECTD115*%

G04:AMPARAMS|DCode=116|XSize=67mil|YSize=51mil|CornerRadius=0mil|HoleSize=0mil|Usage=FLASHONLY|Rotation=112.500|XOffset=0mil|YOffset=0mil|HoleType=Round|Shape=Rectangle|*
%AMROTATEDRECTD116*
4,1,4,0.037,-0.021,-0.011,-0.041,-0.037,0.021,0.011,0.041,0.037,-0.021,0.0*
%
%ADD116ROTATEDRECTD116*%

G04:AMPARAMS|DCode=117|XSize=67mil|YSize=51mil|CornerRadius=0mil|HoleSize=0mil|Usage=FLASHONLY|Rotation=157.500|XOffset=0mil|YOffset=0mil|HoleType=Round|Shape=Rectangle|*
%AMROTATEDRECTD117*
4,1,4,0.041,0.011,0.021,-0.037,-0.041,-0.011,-0.021,0.037,0.041,0.011,0.0*
%
%ADD117ROTATEDRECTD117*%

G04:AMPARAMS|DCode=118|XSize=67mil|YSize=51mil|CornerRadius=0mil|HoleSize=0mil|Usage=FLASHONLY|Rotation=202.500|XOffset=0mil|YOffset=0mil|HoleType=Round|Shape=Rectangle|*
%AMROTATEDRECTD118*
4,1,4,0.021,0.037,0.041,-0.011,-0.021,-0.037,-0.041,0.011,0.021,0.037,0.0*
%
%ADD118ROTATEDRECTD118*%

G04:AMPARAMS|DCode=119|XSize=67mil|YSize=51mil|CornerRadius=0mil|HoleSize=0mil|Usage=FLASHONLY|Rotation=247.500|XOffset=0mil|YOffset=0mil|HoleType=Round|Shape=Rectangle|*
%AMROTATEDRECTD119*
4,1,4,-0.011,0.041,0.037,0.021,0.011,-0.041,-0.037,-0.021,-0.011,0.041,0.0*
%
%ADD119ROTATEDRECTD119*%

G04:AMPARAMS|DCode=120|XSize=41mil|YSize=39mil|CornerRadius=0mil|HoleSize=0mil|Usage=FLASHONLY|Rotation=292.850|XOffset=0mil|YOffset=0mil|HoleType=Round|Shape=Rectangle|*
%AMROTATEDRECTD120*
4,1,4,-0.026,0.011,0.010,0.027,0.026,-0.011,-0.010,-0.027,-0.026,0.011,0.0*
%
%ADD120ROTATEDRECTD120*%

G04:AMPARAMS|DCode=121|XSize=41mil|YSize=39mil|CornerRadius=0mil|HoleSize=0mil|Usage=FLASHONLY|Rotation=315.000|XOffset=0mil|YOffset=0mil|HoleType=Round|Shape=Rectangle|*
%AMROTATEDRECTD121*
4,1,4,-0.029,0.001,-0.001,0.029,0.029,-0.001,0.001,-0.029,-0.029,0.001,0.0*
%
%ADD121ROTATEDRECTD121*%

G04:AMPARAMS|DCode=122|XSize=41mil|YSize=39mil|CornerRadius=0mil|HoleSize=0mil|Usage=FLASHONLY|Rotation=45.000|XOffset=0mil|YOffset=0mil|HoleType=Round|Shape=Rectangle|*
%AMROTATEDRECTD122*
4,1,4,-0.001,-0.029,-0.029,-0.001,0.001,0.029,0.029,0.001,-0.001,-0.029,0.0*
%
%ADD122ROTATEDRECTD122*%

G04:AMPARAMS|DCode=123|XSize=67mil|YSize=51mil|CornerRadius=0mil|HoleSize=0mil|Usage=FLASHONLY|Rotation=135.000|XOffset=0mil|YOffset=0mil|HoleType=Round|Shape=Rectangle|*
%AMROTATEDRECTD123*
4,1,4,0.042,-0.006,0.006,-0.042,-0.042,0.006,-0.006,0.042,0.042,-0.006,0.0*
%
%ADD123ROTATEDRECTD123*%

%ADD124R,0.067X0.051*%
G04:AMPARAMS|DCode=125|XSize=67mil|YSize=51mil|CornerRadius=0mil|HoleSize=0mil|Usage=FLASHONLY|Rotation=225.000|XOffset=0mil|YOffset=0mil|HoleType=Round|Shape=Rectangle|*
%AMROTATEDRECTD125*
4,1,4,0.006,0.042,0.042,0.006,-0.006,-0.042,-0.042,-0.006,0.006,0.042,0.0*
%
%ADD125ROTATEDRECTD125*%

G04:AMPARAMS|DCode=126|XSize=18mil|YSize=67mil|CornerRadius=0mil|HoleSize=0mil|Usage=FLASHONLY|Rotation=225.000|XOffset=0mil|YOffset=0mil|HoleType=Round|Shape=Rectangle|*
%AMROTATEDRECTD126*
4,1,4,-0.017,0.030,0.030,-0.017,0.017,-0.030,-0.030,0.017,-0.017,0.030,0.0*
%
%ADD126ROTATEDRECTD126*%

G04:AMPARAMS|DCode=127|XSize=18mil|YSize=67mil|CornerRadius=0mil|HoleSize=0mil|Usage=FLASHONLY|Rotation=315.000|XOffset=0mil|YOffset=0mil|HoleType=Round|Shape=Rectangle|*
%AMROTATEDRECTD127*
4,1,4,-0.030,-0.017,0.017,0.030,0.030,0.017,-0.017,-0.030,-0.030,-0.017,0.0*
%
%ADD127ROTATEDRECTD127*%

%ADD128R,0.034X0.022*%
%ADD129R,0.057X0.022*%
%ADD130R,0.041X0.032*%
%ADD131R,0.055X0.032*%
G04:AMPARAMS|DCode=132|XSize=32mil|YSize=41mil|CornerRadius=0mil|HoleSize=0mil|Usage=FLASHONLY|Rotation=225.000|XOffset=0mil|YOffset=0mil|HoleType=Round|Shape=Rectangle|*
%AMROTATEDRECTD132*
4,1,4,-0.003,0.026,0.026,-0.003,0.003,-0.026,-0.026,0.003,-0.003,0.026,0.0*
%
%ADD132ROTATEDRECTD132*%

%ADD133R,0.043X0.020*%
%ADD134R,0.063X0.051*%
%ADD135R,0.032X0.041*%
%ADD136R,0.051X0.063*%
%ADD137R,0.032X0.089*%
%ADD138R,0.077X0.047*%
%ADD139R,0.043X0.057*%
%ADD140R,0.028X0.101*%
%ADD141R,0.087X0.106*%
%ADD142R,0.037X0.118*%
%ADD143R,0.032X0.087*%
%ADD144R,0.102X0.087*%
%ADD145R,0.118X0.058*%
%ADD146R,0.059X0.030*%
%ADD147R,0.030X0.059*%
%ADD148R,0.032X0.097*%
%ADD149R,0.041X0.018*%
%ADD150R,0.018X0.041*%
%ADD151R,0.248X0.248*%
%ADD152R,0.158X0.058*%
%ADD153C,0.067*%
%ADD154P,0.095X4X90.0*%
%ADD155C,0.108*%
%ADD156C,0.124*%
%ADD157C,0.038*%
%ADD158C,0.238*%
%ADD159C,0.008*%
%ADD160C,0.026*%
%ADD161R,0.008X0.008*%
%ADD162R,0.057X0.043*%
%ADD163R,0.058X0.058*%
%ADD164R,0.043X0.091*%
%ADD165R,0.138X0.091*%
%ADD166R,0.039X0.126*%
%ADD167R,0.046X0.043*%
%ADD168R,0.046X0.034*%
%ADD169R,0.047X0.087*%
G04:AMPARAMS|DCode=170|XSize=128mil|YSize=58mil|CornerRadius=0mil|HoleSize=0mil|Usage=FLASHONLY|Rotation=135.000|XOffset=0mil|YOffset=0mil|HoleType=Round|Shape=Rectangle|*
%AMROTATEDRECTD170*
4,1,4,0.066,-0.025,0.025,-0.066,-0.066,0.025,-0.025,0.066,0.066,-0.025,0.0*
%
%ADD170ROTATEDRECTD170*%

%ADD171C,0.004*%
G36*
X4377Y-231D02*
X4377Y-232D01*
X4378Y-232D01*
X4379Y-232D01*
X4379Y-232D01*
X4380Y-232D01*
X4381Y-232D01*
X4382Y-233D01*
X4383Y-233D01*
X4384Y-233D01*
X4385Y-234D01*
X4386Y-234D01*
X4387Y-235D01*
X4387Y-236D01*
X4387Y-236D01*
X4388Y-236D01*
X4388Y-236D01*
X4388Y-237D01*
X4388Y-237D01*
X4389Y-238D01*
X4389Y-238D01*
X4390Y-239D01*
X4390Y-240D01*
X4390Y-241D01*
X4391Y-242D01*
X4391Y-243D01*
X4391Y-244D01*
X4392Y-245D01*
X4392Y-247D01*
X4392Y-248D01*
Y-248D01*
Y-248D01*
Y-248D01*
X4392Y-249D01*
X4392Y-249D01*
X4392Y-250D01*
X4391Y-251D01*
X4391Y-252D01*
X4391Y-253D01*
X4391Y-253D01*
X4391Y-254D01*
X4390Y-255D01*
X4390Y-256D01*
X4389Y-257D01*
X4389Y-258D01*
X4388Y-259D01*
X4387Y-260D01*
X4387Y-260D01*
X4387Y-260D01*
X4387Y-261D01*
X4387Y-261D01*
X4386Y-261D01*
X4386Y-262D01*
X4385Y-262D01*
X4384Y-262D01*
X4384Y-263D01*
X4383Y-263D01*
X4382Y-264D01*
X4381Y-264D01*
X4380Y-264D01*
X4379Y-264D01*
X4377Y-265D01*
X4376Y-265D01*
X4376D01*
X4376Y-265D01*
X4375Y-264D01*
X4374Y-264D01*
X4374Y-264D01*
X4373Y-264D01*
X4372Y-264D01*
X4371Y-264D01*
X4370Y-264D01*
X4369Y-263D01*
X4368Y-263D01*
X4368Y-262D01*
X4367Y-262D01*
X4366Y-261D01*
X4365Y-260D01*
X4365Y-260D01*
X4365Y-260D01*
X4365Y-260D01*
X4364Y-259D01*
X4364Y-259D01*
X4364Y-258D01*
X4363Y-258D01*
X4363Y-257D01*
X4362Y-256D01*
X4362Y-255D01*
X4362Y-254D01*
X4361Y-253D01*
X4361Y-252D01*
X4361Y-251D01*
X4361Y-250D01*
X4361Y-248D01*
Y-248D01*
Y-248D01*
Y-248D01*
X4361Y-247D01*
Y-247D01*
X4361Y-246D01*
X4361Y-246D01*
X4361Y-245D01*
X4361Y-244D01*
X4361Y-243D01*
X4362Y-241D01*
X4362Y-240D01*
Y-240D01*
X4362Y-240D01*
X4362Y-240D01*
X4362Y-240D01*
X4363Y-239D01*
X4363Y-239D01*
X4363Y-238D01*
X4364Y-237D01*
X4364Y-236D01*
X4365Y-236D01*
X4365Y-236D01*
X4365Y-236D01*
X4365Y-235D01*
X4366Y-235D01*
X4366Y-235D01*
X4367Y-234D01*
X4368Y-234D01*
X4368Y-233D01*
X4369Y-233D01*
X4369D01*
X4369Y-233D01*
X4370Y-233D01*
X4370Y-233D01*
X4370Y-232D01*
X4370Y-232D01*
X4371Y-232D01*
X4371Y-232D01*
X4372Y-232D01*
X4372Y-232D01*
X4373Y-232D01*
X4375Y-231D01*
X4376Y-231D01*
X4376D01*
X4377Y-231D01*
D02*
G37*
G36*
X4358Y-237D02*
X4348D01*
Y-264D01*
X4342D01*
Y-237D01*
X4332D01*
Y-232D01*
X4358D01*
Y-237D01*
D02*
G37*
G36*
X4452D02*
X4443D01*
Y-264D01*
X4436D01*
Y-237D01*
X4427D01*
Y-232D01*
X4452D01*
Y-237D01*
D02*
G37*
G36*
X3827Y-231D02*
X3827D01*
X3827Y-232D01*
X3828Y-232D01*
X3829Y-232D01*
X3829Y-232D01*
X3830Y-232D01*
X3831Y-232D01*
X3832Y-233D01*
X3832Y-233D01*
X3833Y-233D01*
X3834Y-234D01*
X3835Y-234D01*
X3836Y-235D01*
X3836Y-235D01*
X3836Y-235D01*
X3836Y-235D01*
X3836Y-235D01*
X3836Y-236D01*
X3836Y-236D01*
X3836Y-236D01*
X3837Y-236D01*
X3837Y-237D01*
X3837Y-237D01*
X3838Y-238D01*
X3838Y-238D01*
X3838Y-239D01*
X3838Y-239D01*
X3839Y-240D01*
X3839Y-241D01*
X3832Y-242D01*
Y-242D01*
X3832Y-242D01*
X3832Y-242D01*
X3832Y-242D01*
X3832Y-241D01*
X3832Y-241D01*
X3832Y-240D01*
X3831Y-240D01*
X3831Y-239D01*
X3830Y-238D01*
X3830Y-238D01*
X3830Y-238D01*
X3829Y-238D01*
X3829Y-238D01*
X3828Y-237D01*
X3827Y-237D01*
X3827Y-237D01*
X3826Y-237D01*
X3825D01*
X3825Y-237D01*
X3825Y-237D01*
X3824Y-237D01*
X3824Y-237D01*
X3823Y-238D01*
X3822Y-238D01*
X3822Y-238D01*
X3821Y-238D01*
X3821Y-239D01*
X3820Y-239D01*
X3820Y-240D01*
X3820Y-240D01*
X3820Y-240D01*
X3820Y-240D01*
X3820Y-240D01*
X3819Y-240D01*
X3819Y-241D01*
X3819Y-241D01*
X3819Y-242D01*
X3819Y-242D01*
X3818Y-243D01*
X3818Y-243D01*
X3818Y-244D01*
X3818Y-245D01*
X3818Y-246D01*
X3818Y-247D01*
X3818Y-248D01*
Y-248D01*
Y-248D01*
Y-248D01*
X3818Y-249D01*
X3818Y-249D01*
X3818Y-250D01*
X3818Y-251D01*
X3818Y-251D01*
X3818Y-253D01*
X3819Y-254D01*
X3819Y-255D01*
X3819Y-255D01*
X3819Y-256D01*
X3820Y-256D01*
X3820Y-257D01*
X3820Y-257D01*
X3820Y-257D01*
X3820Y-257D01*
X3820Y-257D01*
X3821Y-257D01*
X3821Y-258D01*
X3821Y-258D01*
X3822Y-258D01*
X3823Y-259D01*
X3824Y-259D01*
X3824Y-259D01*
X3825Y-259D01*
X3825Y-259D01*
X3826D01*
X3826Y-259D01*
X3826Y-259D01*
X3827Y-259D01*
X3828Y-259D01*
X3828Y-258D01*
X3829Y-258D01*
X3830Y-257D01*
X3830Y-257D01*
X3830Y-257D01*
X3830Y-257D01*
X3831Y-257D01*
X3831Y-256D01*
X3831Y-256D01*
X3831Y-255D01*
X3832Y-255D01*
X3832Y-254D01*
X3832Y-254D01*
X3832Y-253D01*
X3832Y-253D01*
X3833Y-252D01*
X3839Y-254D01*
Y-254D01*
X3839Y-254D01*
X3839Y-255D01*
X3839Y-255D01*
X3838Y-255D01*
X3838Y-256D01*
X3838Y-257D01*
X3838Y-257D01*
X3837Y-258D01*
X3837Y-259D01*
X3836Y-260D01*
X3836Y-260D01*
X3835Y-261D01*
X3835Y-262D01*
X3834Y-262D01*
X3834Y-262D01*
X3834Y-262D01*
X3834Y-262D01*
X3833Y-262D01*
X3833Y-263D01*
X3833Y-263D01*
X3832Y-263D01*
X3832Y-263D01*
X3831Y-264D01*
X3831Y-264D01*
X3830Y-264D01*
X3829Y-264D01*
X3828Y-264D01*
X3827Y-264D01*
X3827Y-264D01*
X3826Y-265D01*
X3825D01*
X3825Y-264D01*
X3825Y-264D01*
X3824Y-264D01*
X3823Y-264D01*
X3823Y-264D01*
X3822Y-264D01*
X3821Y-264D01*
X3820Y-264D01*
X3819Y-263D01*
X3818Y-263D01*
X3818Y-262D01*
X3817Y-262D01*
X3816Y-261D01*
X3815Y-260D01*
X3815Y-260D01*
X3815Y-260D01*
X3815Y-260D01*
X3814Y-259D01*
X3814Y-259D01*
X3814Y-258D01*
X3813Y-258D01*
X3813Y-257D01*
X3813Y-256D01*
X3812Y-255D01*
X3812Y-254D01*
X3812Y-253D01*
X3811Y-252D01*
X3811Y-251D01*
X3811Y-250D01*
X3811Y-248D01*
Y-248D01*
Y-248D01*
Y-248D01*
Y-248D01*
X3811Y-248D01*
X3811Y-247D01*
X3811Y-246D01*
X3811Y-246D01*
X3811Y-245D01*
X3811Y-244D01*
X3812Y-243D01*
X3812Y-242D01*
X3812Y-241D01*
X3813Y-240D01*
X3813Y-239D01*
X3814Y-238D01*
X3814Y-237D01*
X3815Y-236D01*
X3815Y-236D01*
X3815Y-236D01*
X3816Y-235D01*
X3816Y-235D01*
X3816Y-235D01*
X3817Y-234D01*
X3817Y-234D01*
X3818Y-234D01*
X3819Y-233D01*
X3820Y-233D01*
X3820Y-232D01*
X3821Y-232D01*
X3822Y-232D01*
X3824Y-232D01*
X3825Y-231D01*
X3826Y-231D01*
X3826D01*
X3827Y-231D01*
D02*
G37*
G36*
X3994Y-237D02*
X3985D01*
Y-264D01*
X3978D01*
Y-237D01*
X3969D01*
Y-232D01*
X3994D01*
Y-237D01*
D02*
G37*
G36*
X3870Y-249D02*
Y-249D01*
Y-249D01*
Y-249D01*
Y-250D01*
Y-250D01*
X3870Y-251D01*
Y-251D01*
X3870Y-252D01*
X3870Y-253D01*
X3870Y-255D01*
X3870Y-255D01*
X3870Y-256D01*
X3869Y-257D01*
X3869Y-257D01*
Y-257D01*
X3869Y-257D01*
Y-257D01*
X3869Y-257D01*
X3869Y-258D01*
X3869Y-258D01*
X3869Y-259D01*
X3868Y-260D01*
X3868Y-260D01*
X3867Y-261D01*
X3867Y-261D01*
X3867Y-261D01*
X3867Y-262D01*
X3866Y-262D01*
X3866Y-262D01*
X3865Y-263D01*
X3864Y-263D01*
X3864Y-264D01*
X3864D01*
X3864Y-264D01*
X3863Y-264D01*
X3863Y-264D01*
X3863Y-264D01*
X3863Y-264D01*
X3862Y-264D01*
X3862Y-264D01*
X3862Y-264D01*
X3861Y-264D01*
X3860Y-264D01*
X3859Y-265D01*
X3858Y-265D01*
X3857D01*
X3856Y-265D01*
X3856D01*
X3855Y-264D01*
X3855Y-264D01*
X3854Y-264D01*
X3853Y-264D01*
X3852Y-264D01*
X3851Y-264D01*
X3851Y-264D01*
X3850D01*
X3850Y-264D01*
X3850Y-263D01*
X3850Y-263D01*
X3850Y-263D01*
X3849Y-263D01*
X3849Y-262D01*
X3848Y-262D01*
X3847Y-261D01*
X3847Y-261D01*
X3847Y-261D01*
X3847Y-261D01*
X3846Y-260D01*
X3846Y-260D01*
X3846Y-259D01*
X3845Y-259D01*
X3845Y-258D01*
X3845Y-257D01*
Y-257D01*
X3845Y-257D01*
Y-257D01*
X3845Y-257D01*
X3845Y-256D01*
X3845Y-256D01*
X3845Y-256D01*
X3845Y-255D01*
X3845Y-255D01*
X3845Y-254D01*
X3845Y-253D01*
X3844Y-253D01*
X3844Y-252D01*
Y-251D01*
X3844Y-250D01*
Y-249D01*
Y-232D01*
X3851D01*
Y-249D01*
Y-249D01*
Y-250D01*
Y-250D01*
Y-250D01*
Y-250D01*
Y-251D01*
X3851Y-252D01*
Y-252D01*
X3851Y-253D01*
X3851Y-254D01*
Y-254D01*
X3851Y-254D01*
X3851Y-255D01*
Y-255D01*
X3851Y-255D01*
X3851Y-255D01*
X3851Y-255D01*
X3851Y-256D01*
X3852Y-256D01*
X3852Y-257D01*
X3852Y-257D01*
X3853Y-258D01*
X3853Y-258D01*
X3853Y-258D01*
X3854Y-258D01*
X3854Y-258D01*
X3855Y-259D01*
X3856Y-259D01*
X3856Y-259D01*
X3857Y-259D01*
X3858D01*
X3858Y-259D01*
X3859Y-259D01*
X3860Y-259D01*
X3860Y-259D01*
X3861Y-258D01*
X3861Y-258D01*
X3862Y-258D01*
X3862Y-258D01*
X3862Y-257D01*
X3862Y-257D01*
X3863Y-257D01*
X3863Y-256D01*
X3863Y-256D01*
X3863Y-255D01*
Y-255D01*
X3863Y-255D01*
X3863Y-255D01*
Y-254D01*
X3863Y-254D01*
X3863Y-254D01*
Y-254D01*
X3863Y-253D01*
Y-253D01*
X3863Y-252D01*
Y-252D01*
X3863Y-251D01*
Y-250D01*
Y-250D01*
Y-232D01*
X3870D01*
Y-249D01*
D02*
G37*
G36*
X3964D02*
Y-249D01*
Y-249D01*
Y-249D01*
Y-250D01*
Y-250D01*
X3964Y-251D01*
Y-251D01*
X3964Y-252D01*
X3964Y-253D01*
X3964Y-255D01*
X3964Y-255D01*
X3964Y-256D01*
X3964Y-257D01*
X3964Y-257D01*
Y-257D01*
X3964Y-257D01*
Y-257D01*
X3964Y-257D01*
X3963Y-258D01*
X3963Y-258D01*
X3963Y-259D01*
X3963Y-260D01*
X3962Y-260D01*
X3962Y-261D01*
X3962Y-261D01*
X3961Y-261D01*
X3961Y-262D01*
X3961Y-262D01*
X3960Y-262D01*
X3960Y-263D01*
X3959Y-263D01*
X3958Y-264D01*
X3958D01*
X3958Y-264D01*
X3958Y-264D01*
X3958Y-264D01*
X3957Y-264D01*
X3957Y-264D01*
X3957Y-264D01*
X3956Y-264D01*
X3956Y-264D01*
X3955Y-264D01*
X3954Y-264D01*
X3953Y-265D01*
X3952Y-265D01*
X3951D01*
X3951Y-265D01*
X3950D01*
X3950Y-264D01*
X3949Y-264D01*
X3948Y-264D01*
X3947Y-264D01*
X3946Y-264D01*
X3945Y-264D01*
X3945Y-264D01*
X3945D01*
X3945Y-264D01*
X3945Y-263D01*
X3944Y-263D01*
X3944Y-263D01*
X3943Y-263D01*
X3943Y-262D01*
X3942Y-262D01*
X3942Y-261D01*
X3941Y-261D01*
X3941Y-261D01*
X3941Y-261D01*
X3941Y-260D01*
X3940Y-260D01*
X3940Y-259D01*
X3940Y-259D01*
X3940Y-258D01*
X3939Y-257D01*
Y-257D01*
X3939Y-257D01*
Y-257D01*
X3939Y-257D01*
X3939Y-256D01*
X3939Y-256D01*
X3939Y-256D01*
X3939Y-255D01*
X3939Y-255D01*
X3939Y-254D01*
X3939Y-253D01*
X3939Y-253D01*
X3939Y-252D01*
Y-251D01*
X3939Y-250D01*
Y-249D01*
Y-232D01*
X3945D01*
Y-249D01*
Y-249D01*
Y-250D01*
Y-250D01*
Y-250D01*
Y-250D01*
Y-251D01*
X3945Y-252D01*
Y-252D01*
X3945Y-253D01*
X3945Y-254D01*
Y-254D01*
X3945Y-254D01*
X3945Y-255D01*
Y-255D01*
X3945Y-255D01*
X3945Y-255D01*
X3946Y-255D01*
X3946Y-256D01*
X3946Y-256D01*
X3946Y-257D01*
X3947Y-257D01*
X3947Y-258D01*
X3947Y-258D01*
X3948Y-258D01*
X3948Y-258D01*
X3948Y-258D01*
X3949Y-259D01*
X3950Y-259D01*
X3951Y-259D01*
X3952Y-259D01*
X3952D01*
X3953Y-259D01*
X3953Y-259D01*
X3954Y-259D01*
X3955Y-259D01*
X3955Y-258D01*
X3956Y-258D01*
X3956Y-258D01*
X3956Y-258D01*
X3956Y-257D01*
X3957Y-257D01*
X3957Y-257D01*
X3957Y-256D01*
X3957Y-256D01*
X3957Y-255D01*
Y-255D01*
X3958Y-255D01*
X3958Y-255D01*
Y-254D01*
X3958Y-254D01*
X3958Y-254D01*
Y-254D01*
X3958Y-253D01*
Y-253D01*
X3958Y-252D01*
Y-252D01*
X3958Y-251D01*
Y-250D01*
Y-250D01*
Y-232D01*
X3964D01*
Y-249D01*
D02*
G37*
G36*
X4794Y-234D02*
X4784D01*
Y-261D01*
X4778D01*
Y-234D01*
X4768D01*
Y-229D01*
X4794D01*
Y-234D01*
D02*
G37*
G36*
X4888D02*
X4879D01*
Y-261D01*
X4872D01*
Y-234D01*
X4863D01*
Y-229D01*
X4888D01*
Y-234D01*
D02*
G37*
G36*
X4764Y-246D02*
Y-246D01*
Y-246D01*
Y-246D01*
Y-247D01*
Y-247D01*
X4764Y-248D01*
Y-248D01*
X4764Y-249D01*
X4764Y-250D01*
X4764Y-252D01*
X4764Y-252D01*
X4764Y-253D01*
X4763Y-254D01*
X4763Y-254D01*
Y-254D01*
X4763Y-254D01*
Y-254D01*
X4763Y-254D01*
X4763Y-255D01*
X4763Y-255D01*
X4763Y-256D01*
X4762Y-257D01*
X4762Y-257D01*
X4761Y-258D01*
X4761Y-258D01*
X4761Y-258D01*
X4761Y-259D01*
X4760Y-259D01*
X4760Y-259D01*
X4759Y-260D01*
X4758Y-260D01*
X4758Y-261D01*
X4758D01*
X4758Y-261D01*
X4757Y-261D01*
X4757Y-261D01*
X4757Y-261D01*
X4757Y-261D01*
X4756Y-261D01*
X4756Y-261D01*
X4756Y-261D01*
X4755Y-261D01*
X4754Y-261D01*
X4753Y-262D01*
X4752Y-262D01*
X4751D01*
X4750Y-262D01*
X4750D01*
X4749Y-261D01*
X4749Y-261D01*
X4748Y-261D01*
X4747Y-261D01*
X4746Y-261D01*
X4745Y-261D01*
X4745Y-261D01*
X4744D01*
X4744Y-261D01*
X4744Y-260D01*
X4744Y-260D01*
X4744Y-260D01*
X4743Y-260D01*
X4743Y-259D01*
X4742Y-259D01*
X4741Y-258D01*
X4741Y-258D01*
X4741Y-258D01*
X4741Y-258D01*
X4740Y-257D01*
X4740Y-257D01*
X4740Y-256D01*
X4739Y-256D01*
X4739Y-255D01*
X4739Y-254D01*
Y-254D01*
X4739Y-254D01*
Y-254D01*
X4739Y-254D01*
X4739Y-253D01*
X4739Y-253D01*
X4739Y-253D01*
X4739Y-252D01*
X4739Y-252D01*
X4739Y-251D01*
X4739Y-250D01*
X4738Y-250D01*
X4738Y-249D01*
Y-248D01*
X4738Y-247D01*
Y-246D01*
Y-229D01*
X4745D01*
Y-246D01*
Y-246D01*
Y-247D01*
Y-247D01*
Y-247D01*
Y-247D01*
Y-248D01*
X4745Y-249D01*
Y-249D01*
X4745Y-250D01*
X4745Y-251D01*
Y-251D01*
X4745Y-251D01*
X4745Y-252D01*
Y-252D01*
X4745Y-252D01*
X4745Y-252D01*
X4745Y-252D01*
X4745Y-253D01*
X4746Y-253D01*
X4746Y-254D01*
X4746Y-254D01*
X4747Y-255D01*
X4747Y-255D01*
X4747Y-255D01*
X4748Y-255D01*
X4748Y-255D01*
X4749Y-256D01*
X4750Y-256D01*
X4750Y-256D01*
X4751Y-256D01*
X4752D01*
X4752Y-256D01*
X4753Y-256D01*
X4754Y-256D01*
X4754Y-256D01*
X4755Y-255D01*
X4755Y-255D01*
X4756Y-255D01*
X4756Y-255D01*
X4756Y-254D01*
X4756Y-254D01*
X4757Y-254D01*
X4757Y-253D01*
X4757Y-253D01*
X4757Y-252D01*
Y-252D01*
X4757Y-252D01*
X4757Y-252D01*
Y-251D01*
X4757Y-251D01*
X4757Y-251D01*
Y-251D01*
X4757Y-250D01*
Y-250D01*
X4757Y-249D01*
Y-249D01*
X4757Y-248D01*
Y-247D01*
Y-247D01*
Y-229D01*
X4764D01*
Y-246D01*
D02*
G37*
G36*
X4813Y-228D02*
X4813Y-229D01*
X4814Y-229D01*
X4815Y-229D01*
X4815Y-229D01*
X4816Y-229D01*
X4817Y-229D01*
X4818Y-230D01*
X4819Y-230D01*
X4820Y-230D01*
X4821Y-231D01*
X4822Y-231D01*
X4823Y-232D01*
X4823Y-233D01*
X4823Y-233D01*
X4824Y-233D01*
X4824Y-233D01*
X4824Y-234D01*
X4824Y-234D01*
X4825Y-235D01*
X4825Y-235D01*
X4826Y-236D01*
X4826Y-237D01*
X4826Y-238D01*
X4827Y-239D01*
X4827Y-240D01*
X4827Y-241D01*
X4828Y-242D01*
X4828Y-244D01*
X4828Y-245D01*
Y-245D01*
Y-245D01*
Y-245D01*
X4828Y-246D01*
X4828Y-246D01*
X4828Y-247D01*
X4827Y-248D01*
X4827Y-249D01*
X4827Y-250D01*
X4827Y-250D01*
X4827Y-251D01*
X4826Y-252D01*
X4826Y-253D01*
X4825Y-254D01*
X4825Y-255D01*
X4824Y-256D01*
X4823Y-257D01*
X4823Y-257D01*
X4823Y-257D01*
X4823Y-258D01*
X4823Y-258D01*
X4822Y-258D01*
X4822Y-259D01*
X4821Y-259D01*
X4820Y-259D01*
X4820Y-260D01*
X4819Y-260D01*
X4818Y-261D01*
X4817Y-261D01*
X4816Y-261D01*
X4815Y-261D01*
X4813Y-262D01*
X4812Y-262D01*
X4812D01*
X4812Y-262D01*
X4811Y-261D01*
X4810Y-261D01*
X4810Y-261D01*
X4809Y-261D01*
X4808Y-261D01*
X4807Y-261D01*
X4806Y-261D01*
X4805Y-260D01*
X4804Y-260D01*
X4804Y-259D01*
X4803Y-259D01*
X4802Y-258D01*
X4801Y-257D01*
X4801Y-257D01*
X4801Y-257D01*
X4801Y-257D01*
X4800Y-256D01*
X4800Y-256D01*
X4800Y-255D01*
X4799Y-255D01*
X4799Y-254D01*
X4798Y-253D01*
X4798Y-252D01*
X4798Y-251D01*
X4797Y-250D01*
X4797Y-249D01*
X4797Y-248D01*
X4797Y-247D01*
X4797Y-245D01*
Y-245D01*
Y-245D01*
Y-245D01*
X4797Y-244D01*
Y-244D01*
X4797Y-243D01*
X4797Y-243D01*
X4797Y-242D01*
X4797Y-241D01*
X4797Y-240D01*
X4798Y-238D01*
X4798Y-237D01*
Y-237D01*
X4798Y-237D01*
X4798Y-237D01*
X4798Y-237D01*
X4799Y-236D01*
X4799Y-236D01*
X4799Y-235D01*
X4800Y-234D01*
X4800Y-233D01*
X4801Y-233D01*
X4801Y-233D01*
X4801Y-233D01*
X4801Y-232D01*
X4802Y-232D01*
X4802Y-232D01*
X4803Y-231D01*
X4804Y-231D01*
X4804Y-230D01*
X4805Y-230D01*
X4805D01*
X4805Y-230D01*
X4806Y-230D01*
X4806Y-230D01*
X4806Y-229D01*
X4806Y-229D01*
X4807Y-229D01*
X4807Y-229D01*
X4808Y-229D01*
X4808Y-229D01*
X4809Y-229D01*
X4811Y-228D01*
X4812Y-228D01*
X4812D01*
X4813Y-228D01*
D02*
G37*
G36*
X4328Y-249D02*
Y-249D01*
Y-249D01*
Y-249D01*
Y-250D01*
Y-250D01*
X4328Y-251D01*
Y-251D01*
X4328Y-252D01*
X4328Y-253D01*
X4328Y-255D01*
X4328Y-255D01*
X4328Y-256D01*
X4327Y-257D01*
X4327Y-257D01*
Y-257D01*
X4327Y-257D01*
Y-257D01*
X4327Y-257D01*
X4327Y-258D01*
X4327Y-258D01*
X4327Y-259D01*
X4326Y-260D01*
X4326Y-260D01*
X4325Y-261D01*
X4325Y-261D01*
X4325Y-261D01*
X4325Y-262D01*
X4324Y-262D01*
X4324Y-262D01*
X4323Y-263D01*
X4322Y-263D01*
X4322Y-264D01*
X4322D01*
X4322Y-264D01*
X4321Y-264D01*
X4321Y-264D01*
X4321Y-264D01*
X4321Y-264D01*
X4320Y-264D01*
X4320Y-264D01*
X4320Y-264D01*
X4319Y-264D01*
X4318Y-264D01*
X4317Y-265D01*
X4316Y-265D01*
X4315D01*
X4314Y-265D01*
X4314D01*
X4313Y-264D01*
X4313Y-264D01*
X4312Y-264D01*
X4311Y-264D01*
X4310Y-264D01*
X4309Y-264D01*
X4309Y-264D01*
X4308D01*
X4308Y-264D01*
X4308Y-263D01*
X4308Y-263D01*
X4308Y-263D01*
X4307Y-263D01*
X4307Y-262D01*
X4306Y-262D01*
X4305Y-261D01*
X4305Y-261D01*
X4305Y-261D01*
X4305Y-261D01*
X4304Y-260D01*
X4304Y-260D01*
X4304Y-259D01*
X4303Y-259D01*
X4303Y-258D01*
X4303Y-257D01*
Y-257D01*
X4303Y-257D01*
Y-257D01*
X4303Y-257D01*
X4303Y-256D01*
X4303Y-256D01*
X4303Y-256D01*
X4303Y-255D01*
X4303Y-255D01*
X4303Y-254D01*
X4303Y-253D01*
X4302Y-253D01*
X4302Y-252D01*
Y-251D01*
X4302Y-250D01*
Y-249D01*
Y-232D01*
X4309D01*
Y-249D01*
Y-249D01*
Y-250D01*
Y-250D01*
Y-250D01*
Y-250D01*
Y-251D01*
X4309Y-252D01*
Y-252D01*
X4309Y-253D01*
X4309Y-254D01*
Y-254D01*
X4309Y-254D01*
X4309Y-255D01*
Y-255D01*
X4309Y-255D01*
X4309Y-255D01*
X4309Y-255D01*
X4309Y-256D01*
X4310Y-256D01*
X4310Y-257D01*
X4310Y-257D01*
X4311Y-258D01*
X4311Y-258D01*
X4311Y-258D01*
X4312Y-258D01*
X4312Y-258D01*
X4313Y-259D01*
X4314Y-259D01*
X4314Y-259D01*
X4315Y-259D01*
X4316D01*
X4316Y-259D01*
X4317Y-259D01*
X4318Y-259D01*
X4318Y-259D01*
X4319Y-258D01*
X4319Y-258D01*
X4320Y-258D01*
X4320Y-258D01*
X4320Y-257D01*
X4320Y-257D01*
X4321Y-257D01*
X4321Y-256D01*
X4321Y-256D01*
X4321Y-255D01*
Y-255D01*
X4321Y-255D01*
X4321Y-255D01*
Y-254D01*
X4321Y-254D01*
X4321Y-254D01*
Y-254D01*
X4321Y-253D01*
Y-253D01*
X4321Y-252D01*
Y-252D01*
X4321Y-251D01*
Y-250D01*
Y-250D01*
Y-232D01*
X4328D01*
Y-249D01*
D02*
G37*
G36*
X4422D02*
Y-249D01*
Y-249D01*
Y-249D01*
Y-250D01*
Y-250D01*
X4422Y-251D01*
Y-251D01*
X4422Y-252D01*
X4422Y-253D01*
X4422Y-255D01*
X4422Y-255D01*
X4422Y-256D01*
X4422Y-257D01*
X4422Y-257D01*
Y-257D01*
X4422Y-257D01*
Y-257D01*
X4422Y-257D01*
X4421Y-258D01*
X4421Y-258D01*
X4421Y-259D01*
X4421Y-260D01*
X4420Y-260D01*
X4420Y-261D01*
X4420Y-261D01*
X4419Y-261D01*
X4419Y-262D01*
X4419Y-262D01*
X4418Y-262D01*
X4418Y-263D01*
X4417Y-263D01*
X4416Y-264D01*
X4416D01*
X4416Y-264D01*
X4416Y-264D01*
X4416Y-264D01*
X4415Y-264D01*
X4415Y-264D01*
X4415Y-264D01*
X4414Y-264D01*
X4414Y-264D01*
X4413Y-264D01*
X4412Y-264D01*
X4411Y-265D01*
X4410Y-265D01*
X4409D01*
X4409Y-265D01*
X4408D01*
X4408Y-264D01*
X4407Y-264D01*
X4406Y-264D01*
X4405Y-264D01*
X4404Y-264D01*
X4403Y-264D01*
X4403Y-264D01*
X4403D01*
X4403Y-264D01*
X4403Y-263D01*
X4402Y-263D01*
X4402Y-263D01*
X4401Y-263D01*
X4401Y-262D01*
X4400Y-262D01*
X4400Y-261D01*
X4399Y-261D01*
X4399Y-261D01*
X4399Y-261D01*
X4399Y-260D01*
X4398Y-260D01*
X4398Y-259D01*
X4398Y-259D01*
X4398Y-258D01*
X4397Y-257D01*
Y-257D01*
X4397Y-257D01*
Y-257D01*
X4397Y-257D01*
X4397Y-256D01*
X4397Y-256D01*
X4397Y-256D01*
X4397Y-255D01*
X4397Y-255D01*
X4397Y-254D01*
X4397Y-253D01*
X4397Y-253D01*
X4397Y-252D01*
Y-251D01*
X4397Y-250D01*
Y-249D01*
Y-232D01*
X4403D01*
Y-249D01*
Y-249D01*
Y-250D01*
Y-250D01*
Y-250D01*
Y-250D01*
Y-251D01*
X4403Y-252D01*
Y-252D01*
X4403Y-253D01*
X4403Y-254D01*
Y-254D01*
X4403Y-254D01*
X4403Y-255D01*
Y-255D01*
X4403Y-255D01*
X4403Y-255D01*
X4404Y-255D01*
X4404Y-256D01*
X4404Y-256D01*
X4404Y-257D01*
X4405Y-257D01*
X4405Y-258D01*
X4405Y-258D01*
X4406Y-258D01*
X4406Y-258D01*
X4406Y-258D01*
X4407Y-259D01*
X4408Y-259D01*
X4409Y-259D01*
X4410Y-259D01*
X4410D01*
X4411Y-259D01*
X4411Y-259D01*
X4412Y-259D01*
X4413Y-259D01*
X4413Y-258D01*
X4414Y-258D01*
X4414Y-258D01*
X4414Y-258D01*
X4414Y-257D01*
X4415Y-257D01*
X4415Y-257D01*
X4415Y-256D01*
X4415Y-256D01*
X4415Y-255D01*
Y-255D01*
X4416Y-255D01*
X4416Y-255D01*
Y-254D01*
X4416Y-254D01*
X4416Y-254D01*
Y-254D01*
X4416Y-253D01*
Y-253D01*
X4416Y-252D01*
Y-252D01*
X4416Y-251D01*
Y-250D01*
Y-250D01*
Y-232D01*
X4422D01*
Y-249D01*
D02*
G37*
G36*
X4285Y-231D02*
X4285D01*
X4285Y-232D01*
X4286Y-232D01*
X4287Y-232D01*
X4287Y-232D01*
X4288Y-232D01*
X4289Y-232D01*
X4290Y-233D01*
X4290Y-233D01*
X4291Y-233D01*
X4292Y-234D01*
X4293Y-234D01*
X4294Y-235D01*
X4294Y-235D01*
X4294Y-235D01*
X4294Y-235D01*
X4294Y-235D01*
X4294Y-236D01*
X4294Y-236D01*
X4294Y-236D01*
X4295Y-236D01*
X4295Y-237D01*
X4295Y-237D01*
X4296Y-238D01*
X4296Y-238D01*
X4296Y-239D01*
X4296Y-239D01*
X4297Y-240D01*
X4297Y-241D01*
X4290Y-242D01*
Y-242D01*
X4290Y-242D01*
X4290Y-242D01*
X4290Y-242D01*
X4290Y-241D01*
X4290Y-241D01*
X4290Y-240D01*
X4289Y-240D01*
X4289Y-239D01*
X4288Y-238D01*
X4288Y-238D01*
X4288Y-238D01*
X4287Y-238D01*
X4287Y-238D01*
X4286Y-237D01*
X4285Y-237D01*
X4285Y-237D01*
X4284Y-237D01*
X4283D01*
X4283Y-237D01*
X4283Y-237D01*
X4282Y-237D01*
X4282Y-237D01*
X4281Y-238D01*
X4280Y-238D01*
X4280Y-238D01*
X4279Y-238D01*
X4279Y-239D01*
X4278Y-239D01*
X4278Y-240D01*
X4278Y-240D01*
X4278Y-240D01*
X4278Y-240D01*
X4278Y-240D01*
X4277Y-240D01*
X4277Y-241D01*
X4277Y-241D01*
X4277Y-242D01*
X4277Y-242D01*
X4276Y-243D01*
X4276Y-243D01*
X4276Y-244D01*
X4276Y-245D01*
X4276Y-246D01*
X4276Y-247D01*
X4276Y-248D01*
Y-248D01*
Y-248D01*
Y-248D01*
X4276Y-249D01*
X4276Y-249D01*
X4276Y-250D01*
X4276Y-251D01*
X4276Y-251D01*
X4276Y-253D01*
X4277Y-254D01*
X4277Y-255D01*
X4277Y-255D01*
X4277Y-256D01*
X4278Y-256D01*
X4278Y-257D01*
X4278Y-257D01*
X4278Y-257D01*
X4278Y-257D01*
X4278Y-257D01*
X4279Y-257D01*
X4279Y-258D01*
X4279Y-258D01*
X4280Y-258D01*
X4281Y-259D01*
X4282Y-259D01*
X4282Y-259D01*
X4283Y-259D01*
X4283Y-259D01*
X4284D01*
X4284Y-259D01*
X4284Y-259D01*
X4285Y-259D01*
X4286Y-259D01*
X4286Y-258D01*
X4287Y-258D01*
X4288Y-257D01*
X4288Y-257D01*
X4288Y-257D01*
X4288Y-257D01*
X4289Y-257D01*
X4289Y-256D01*
X4289Y-256D01*
X4289Y-255D01*
X4290Y-255D01*
X4290Y-254D01*
X4290Y-254D01*
X4290Y-253D01*
X4290Y-253D01*
X4291Y-252D01*
X4297Y-254D01*
Y-254D01*
X4297Y-254D01*
X4297Y-255D01*
X4297Y-255D01*
X4296Y-255D01*
X4296Y-256D01*
X4296Y-257D01*
X4296Y-257D01*
X4295Y-258D01*
X4295Y-259D01*
X4294Y-260D01*
X4294Y-260D01*
X4293Y-261D01*
X4293Y-262D01*
X4292Y-262D01*
X4292Y-262D01*
X4292Y-262D01*
X4292Y-262D01*
X4291Y-262D01*
X4291Y-263D01*
X4291Y-263D01*
X4290Y-263D01*
X4290Y-263D01*
X4289Y-264D01*
X4289Y-264D01*
X4288Y-264D01*
X4287Y-264D01*
X4286Y-264D01*
X4285Y-264D01*
X4285Y-264D01*
X4284Y-265D01*
X4283D01*
X4283Y-264D01*
X4283Y-264D01*
X4282Y-264D01*
X4281Y-264D01*
X4281Y-264D01*
X4280Y-264D01*
X4279Y-264D01*
X4278Y-264D01*
X4277Y-263D01*
X4276Y-263D01*
X4276Y-262D01*
X4275Y-262D01*
X4274Y-261D01*
X4273Y-260D01*
X4273Y-260D01*
X4273Y-260D01*
X4273Y-260D01*
X4272Y-259D01*
X4272Y-259D01*
X4272Y-258D01*
X4271Y-258D01*
X4271Y-257D01*
X4271Y-256D01*
X4270Y-255D01*
X4270Y-254D01*
X4270Y-253D01*
X4269Y-252D01*
X4269Y-251D01*
X4269Y-250D01*
X4269Y-248D01*
Y-248D01*
Y-248D01*
Y-248D01*
Y-248D01*
X4269Y-248D01*
X4269Y-247D01*
X4269Y-246D01*
X4269Y-246D01*
X4269Y-245D01*
X4269Y-244D01*
X4270Y-243D01*
X4270Y-242D01*
X4270Y-241D01*
X4271Y-240D01*
X4271Y-239D01*
X4272Y-238D01*
X4272Y-237D01*
X4273Y-236D01*
X4273Y-236D01*
X4273Y-236D01*
X4274Y-235D01*
X4274Y-235D01*
X4274Y-235D01*
X4275Y-234D01*
X4275Y-234D01*
X4276Y-234D01*
X4277Y-233D01*
X4278Y-233D01*
X4278Y-232D01*
X4279Y-232D01*
X4280Y-232D01*
X4282Y-232D01*
X4283Y-231D01*
X4284Y-231D01*
X4284D01*
X4285Y-231D01*
D02*
G37*
G36*
X3064Y-254D02*
Y-254D01*
Y-254D01*
Y-254D01*
Y-255D01*
Y-255D01*
X3064Y-256D01*
Y-256D01*
X3064Y-257D01*
X3064Y-258D01*
X3064Y-260D01*
X3064Y-260D01*
X3064Y-261D01*
X3064Y-262D01*
X3064Y-262D01*
Y-262D01*
X3064Y-262D01*
Y-262D01*
X3064Y-262D01*
X3063Y-263D01*
X3063Y-263D01*
X3063Y-264D01*
X3063Y-265D01*
X3062Y-265D01*
X3062Y-266D01*
X3062Y-266D01*
X3061Y-266D01*
X3061Y-267D01*
X3061Y-267D01*
X3060Y-267D01*
X3060Y-268D01*
X3059Y-268D01*
X3058Y-269D01*
X3058D01*
X3058Y-269D01*
X3058Y-269D01*
X3058Y-269D01*
X3057Y-269D01*
X3057Y-269D01*
X3057Y-269D01*
X3056Y-269D01*
X3056Y-269D01*
X3055Y-269D01*
X3054Y-269D01*
X3053Y-270D01*
X3052Y-270D01*
X3051D01*
X3051Y-270D01*
X3050D01*
X3050Y-269D01*
X3049Y-269D01*
X3048Y-269D01*
X3047Y-269D01*
X3046Y-269D01*
X3045Y-269D01*
X3045Y-269D01*
X3045D01*
X3045Y-269D01*
X3045Y-268D01*
X3044Y-268D01*
X3044Y-268D01*
X3043Y-268D01*
X3043Y-267D01*
X3042Y-267D01*
X3042Y-266D01*
X3041Y-266D01*
X3041Y-266D01*
X3041Y-266D01*
X3041Y-265D01*
X3040Y-265D01*
X3040Y-264D01*
X3040Y-264D01*
X3040Y-263D01*
X3039Y-262D01*
Y-262D01*
X3039Y-262D01*
Y-262D01*
X3039Y-262D01*
X3039Y-261D01*
X3039Y-261D01*
X3039Y-261D01*
X3039Y-260D01*
X3039Y-260D01*
X3039Y-259D01*
X3039Y-258D01*
X3039Y-258D01*
X3039Y-257D01*
Y-256D01*
X3039Y-255D01*
Y-254D01*
Y-237D01*
X3045D01*
Y-254D01*
Y-254D01*
Y-255D01*
Y-255D01*
Y-255D01*
Y-255D01*
Y-256D01*
X3045Y-257D01*
Y-257D01*
X3045Y-258D01*
X3045Y-259D01*
Y-259D01*
X3045Y-259D01*
X3045Y-260D01*
Y-260D01*
X3045Y-260D01*
X3045Y-260D01*
X3046Y-260D01*
X3046Y-261D01*
X3046Y-261D01*
X3046Y-262D01*
X3047Y-262D01*
X3047Y-263D01*
X3047Y-263D01*
X3048Y-263D01*
X3048Y-263D01*
X3048Y-263D01*
X3049Y-264D01*
X3050Y-264D01*
X3051Y-264D01*
X3052Y-264D01*
X3052D01*
X3053Y-264D01*
X3053Y-264D01*
X3054Y-264D01*
X3055Y-264D01*
X3055Y-263D01*
X3056Y-263D01*
X3056Y-263D01*
X3056Y-263D01*
X3056Y-262D01*
X3057Y-262D01*
X3057Y-262D01*
X3057Y-261D01*
X3057Y-261D01*
X3057Y-260D01*
Y-260D01*
X3058Y-260D01*
X3058Y-260D01*
Y-259D01*
X3058Y-259D01*
X3058Y-259D01*
Y-259D01*
X3058Y-258D01*
Y-258D01*
X3058Y-257D01*
Y-257D01*
X3058Y-256D01*
Y-255D01*
Y-255D01*
Y-237D01*
X3064D01*
Y-254D01*
D02*
G37*
G36*
X2927Y-236D02*
X2927D01*
X2927Y-237D01*
X2928Y-237D01*
X2929Y-237D01*
X2929Y-237D01*
X2930Y-237D01*
X2931Y-237D01*
X2932Y-238D01*
X2932Y-238D01*
X2933Y-238D01*
X2934Y-239D01*
X2935Y-239D01*
X2936Y-240D01*
X2936Y-240D01*
X2936Y-240D01*
X2936Y-240D01*
X2936Y-240D01*
X2936Y-241D01*
X2936Y-241D01*
X2936Y-241D01*
X2937Y-241D01*
X2937Y-242D01*
X2937Y-242D01*
X2938Y-243D01*
X2938Y-243D01*
X2938Y-244D01*
X2938Y-244D01*
X2939Y-245D01*
X2939Y-246D01*
X2932Y-247D01*
Y-247D01*
X2932Y-247D01*
X2932Y-247D01*
X2932Y-247D01*
X2932Y-246D01*
X2932Y-246D01*
X2932Y-245D01*
X2931Y-245D01*
X2931Y-244D01*
X2930Y-243D01*
X2930Y-243D01*
X2930Y-243D01*
X2929Y-243D01*
X2929Y-243D01*
X2928Y-242D01*
X2927Y-242D01*
X2927Y-242D01*
X2926Y-242D01*
X2925D01*
X2925Y-242D01*
X2925Y-242D01*
X2924Y-242D01*
X2924Y-242D01*
X2923Y-243D01*
X2922Y-243D01*
X2922Y-243D01*
X2921Y-243D01*
X2921Y-244D01*
X2920Y-244D01*
X2920Y-245D01*
X2920Y-245D01*
X2920Y-245D01*
X2920Y-245D01*
X2920Y-245D01*
X2919Y-245D01*
X2919Y-246D01*
X2919Y-246D01*
X2919Y-247D01*
X2919Y-247D01*
X2918Y-248D01*
X2918Y-248D01*
X2918Y-249D01*
X2918Y-250D01*
X2918Y-251D01*
X2918Y-252D01*
X2918Y-253D01*
Y-253D01*
Y-253D01*
Y-253D01*
X2918Y-254D01*
X2918Y-254D01*
X2918Y-255D01*
X2918Y-256D01*
X2918Y-256D01*
X2918Y-258D01*
X2919Y-259D01*
X2919Y-260D01*
X2919Y-260D01*
X2919Y-261D01*
X2920Y-261D01*
X2920Y-262D01*
X2920Y-262D01*
X2920Y-262D01*
X2920Y-262D01*
X2920Y-262D01*
X2921Y-262D01*
X2921Y-263D01*
X2921Y-263D01*
X2922Y-263D01*
X2923Y-264D01*
X2924Y-264D01*
X2924Y-264D01*
X2925Y-264D01*
X2925Y-264D01*
X2926D01*
X2926Y-264D01*
X2926Y-264D01*
X2927Y-264D01*
X2928Y-264D01*
X2928Y-263D01*
X2929Y-263D01*
X2930Y-262D01*
X2930Y-262D01*
X2930Y-262D01*
X2930Y-262D01*
X2931Y-262D01*
X2931Y-261D01*
X2931Y-261D01*
X2931Y-260D01*
X2932Y-260D01*
X2932Y-259D01*
X2932Y-259D01*
X2932Y-258D01*
X2932Y-258D01*
X2933Y-257D01*
X2939Y-259D01*
Y-259D01*
X2939Y-259D01*
X2939Y-260D01*
X2939Y-260D01*
X2938Y-260D01*
X2938Y-261D01*
X2938Y-262D01*
X2938Y-262D01*
X2937Y-263D01*
X2937Y-264D01*
X2936Y-265D01*
X2936Y-265D01*
X2935Y-266D01*
X2935Y-267D01*
X2934Y-267D01*
X2934Y-267D01*
X2934Y-267D01*
X2934Y-267D01*
X2933Y-267D01*
X2933Y-268D01*
X2933Y-268D01*
X2932Y-268D01*
X2932Y-268D01*
X2931Y-269D01*
X2931Y-269D01*
X2930Y-269D01*
X2929Y-269D01*
X2928Y-269D01*
X2927Y-269D01*
X2927Y-269D01*
X2926Y-270D01*
X2925D01*
X2925Y-269D01*
X2925Y-269D01*
X2924Y-269D01*
X2923Y-269D01*
X2923Y-269D01*
X2922Y-269D01*
X2921Y-269D01*
X2920Y-269D01*
X2919Y-268D01*
X2918Y-268D01*
X2918Y-267D01*
X2917Y-267D01*
X2916Y-266D01*
X2915Y-265D01*
X2915Y-265D01*
X2915Y-265D01*
X2915Y-265D01*
X2914Y-264D01*
X2914Y-264D01*
X2914Y-263D01*
X2913Y-263D01*
X2913Y-262D01*
X2913Y-261D01*
X2912Y-260D01*
X2912Y-259D01*
X2912Y-258D01*
X2911Y-257D01*
X2911Y-256D01*
X2911Y-255D01*
X2911Y-253D01*
Y-253D01*
Y-253D01*
Y-253D01*
Y-253D01*
X2911Y-253D01*
X2911Y-252D01*
X2911Y-251D01*
X2911Y-251D01*
X2911Y-250D01*
X2911Y-249D01*
X2912Y-248D01*
X2912Y-247D01*
X2912Y-246D01*
X2913Y-245D01*
X2913Y-244D01*
X2914Y-243D01*
X2914Y-242D01*
X2915Y-241D01*
X2915Y-241D01*
X2915Y-241D01*
X2916Y-240D01*
X2916Y-240D01*
X2916Y-240D01*
X2917Y-239D01*
X2917Y-239D01*
X2918Y-239D01*
X2919Y-238D01*
X2920Y-238D01*
X2920Y-237D01*
X2921Y-237D01*
X2922Y-237D01*
X2924Y-237D01*
X2925Y-236D01*
X2926Y-236D01*
X2926D01*
X2927Y-236D01*
D02*
G37*
G36*
X3474Y-228D02*
X3474Y-229D01*
X3475Y-229D01*
X3476Y-229D01*
X3476Y-229D01*
X3477Y-229D01*
X3478Y-229D01*
X3479Y-230D01*
X3480Y-230D01*
X3481Y-230D01*
X3482Y-231D01*
X3483Y-231D01*
X3484Y-232D01*
X3484Y-233D01*
X3484Y-233D01*
X3485Y-233D01*
X3485Y-233D01*
X3485Y-234D01*
X3485Y-234D01*
X3486Y-235D01*
X3486Y-235D01*
X3487Y-236D01*
X3487Y-237D01*
X3487Y-238D01*
X3488Y-239D01*
X3488Y-240D01*
X3488Y-241D01*
X3489Y-242D01*
X3489Y-244D01*
X3489Y-245D01*
Y-245D01*
Y-245D01*
Y-245D01*
X3489Y-246D01*
X3489Y-246D01*
X3489Y-247D01*
X3488Y-248D01*
X3488Y-249D01*
X3488Y-250D01*
X3488Y-250D01*
X3488Y-251D01*
X3487Y-252D01*
X3487Y-253D01*
X3486Y-254D01*
X3486Y-255D01*
X3485Y-256D01*
X3484Y-257D01*
X3484Y-257D01*
X3484Y-257D01*
X3484Y-258D01*
X3484Y-258D01*
X3483Y-258D01*
X3483Y-259D01*
X3482Y-259D01*
X3481Y-259D01*
X3481Y-260D01*
X3480Y-260D01*
X3479Y-261D01*
X3478Y-261D01*
X3477Y-261D01*
X3476Y-261D01*
X3474Y-262D01*
X3473Y-262D01*
X3473D01*
X3473Y-262D01*
X3472Y-261D01*
X3471Y-261D01*
X3471Y-261D01*
X3470Y-261D01*
X3469Y-261D01*
X3468Y-261D01*
X3467Y-261D01*
X3466Y-260D01*
X3465Y-260D01*
X3465Y-259D01*
X3464Y-259D01*
X3463Y-258D01*
X3462Y-257D01*
X3462Y-257D01*
X3462Y-257D01*
X3462Y-257D01*
X3461Y-256D01*
X3461Y-256D01*
X3461Y-255D01*
X3460Y-255D01*
X3460Y-254D01*
X3459Y-253D01*
X3459Y-252D01*
X3459Y-251D01*
X3458Y-250D01*
X3458Y-249D01*
X3458Y-248D01*
X3458Y-247D01*
X3458Y-245D01*
Y-245D01*
Y-245D01*
Y-245D01*
X3458Y-244D01*
Y-244D01*
X3458Y-243D01*
X3458Y-243D01*
X3458Y-242D01*
X3458Y-241D01*
X3458Y-240D01*
X3459Y-238D01*
X3459Y-237D01*
Y-237D01*
X3459Y-237D01*
X3459Y-237D01*
X3459Y-237D01*
X3460Y-236D01*
X3460Y-236D01*
X3460Y-235D01*
X3461Y-234D01*
X3461Y-233D01*
X3462Y-233D01*
X3462Y-233D01*
X3462Y-233D01*
X3462Y-232D01*
X3463Y-232D01*
X3463Y-232D01*
X3464Y-231D01*
X3465Y-231D01*
X3465Y-230D01*
X3466Y-230D01*
X3466D01*
X3466Y-230D01*
X3467Y-230D01*
X3467Y-230D01*
X3467Y-229D01*
X3467Y-229D01*
X3468Y-229D01*
X3468Y-229D01*
X3469Y-229D01*
X3469Y-229D01*
X3470Y-229D01*
X3472Y-228D01*
X3473Y-228D01*
X3473D01*
X3474Y-228D01*
D02*
G37*
G36*
X2970Y-254D02*
Y-254D01*
Y-254D01*
Y-254D01*
Y-255D01*
Y-255D01*
X2970Y-256D01*
Y-256D01*
X2970Y-257D01*
X2970Y-258D01*
X2970Y-260D01*
X2970Y-260D01*
X2970Y-261D01*
X2969Y-262D01*
X2969Y-262D01*
Y-262D01*
X2969Y-262D01*
Y-262D01*
X2969Y-262D01*
X2969Y-263D01*
X2969Y-263D01*
X2969Y-264D01*
X2968Y-265D01*
X2968Y-265D01*
X2967Y-266D01*
X2967Y-266D01*
X2967Y-266D01*
X2967Y-267D01*
X2966Y-267D01*
X2966Y-267D01*
X2965Y-268D01*
X2964Y-268D01*
X2964Y-269D01*
X2964D01*
X2964Y-269D01*
X2963Y-269D01*
X2963Y-269D01*
X2963Y-269D01*
X2963Y-269D01*
X2962Y-269D01*
X2962Y-269D01*
X2962Y-269D01*
X2961Y-269D01*
X2960Y-269D01*
X2959Y-270D01*
X2958Y-270D01*
X2957D01*
X2956Y-270D01*
X2956D01*
X2955Y-269D01*
X2955Y-269D01*
X2954Y-269D01*
X2953Y-269D01*
X2952Y-269D01*
X2951Y-269D01*
X2951Y-269D01*
X2950D01*
X2950Y-269D01*
X2950Y-268D01*
X2950Y-268D01*
X2950Y-268D01*
X2949Y-268D01*
X2949Y-267D01*
X2948Y-267D01*
X2947Y-266D01*
X2947Y-266D01*
X2947Y-266D01*
X2947Y-266D01*
X2946Y-265D01*
X2946Y-265D01*
X2946Y-264D01*
X2945Y-264D01*
X2945Y-263D01*
X2945Y-262D01*
Y-262D01*
X2945Y-262D01*
Y-262D01*
X2945Y-262D01*
X2945Y-261D01*
X2945Y-261D01*
X2945Y-261D01*
X2945Y-260D01*
X2945Y-260D01*
X2945Y-259D01*
X2945Y-258D01*
X2944Y-258D01*
X2944Y-257D01*
Y-256D01*
X2944Y-255D01*
Y-254D01*
Y-237D01*
X2951D01*
Y-254D01*
Y-254D01*
Y-255D01*
Y-255D01*
Y-255D01*
Y-255D01*
Y-256D01*
X2951Y-257D01*
Y-257D01*
X2951Y-258D01*
X2951Y-259D01*
Y-259D01*
X2951Y-259D01*
X2951Y-260D01*
Y-260D01*
X2951Y-260D01*
X2951Y-260D01*
X2951Y-260D01*
X2951Y-261D01*
X2952Y-261D01*
X2952Y-262D01*
X2952Y-262D01*
X2953Y-263D01*
X2953Y-263D01*
X2953Y-263D01*
X2954Y-263D01*
X2954Y-263D01*
X2955Y-264D01*
X2956Y-264D01*
X2956Y-264D01*
X2957Y-264D01*
X2958D01*
X2958Y-264D01*
X2959Y-264D01*
X2960Y-264D01*
X2960Y-264D01*
X2961Y-263D01*
X2961Y-263D01*
X2962Y-263D01*
X2962Y-263D01*
X2962Y-262D01*
X2962Y-262D01*
X2963Y-262D01*
X2963Y-261D01*
X2963Y-261D01*
X2963Y-260D01*
Y-260D01*
X2963Y-260D01*
X2963Y-260D01*
Y-259D01*
X2963Y-259D01*
X2963Y-259D01*
Y-259D01*
X2963Y-258D01*
Y-258D01*
X2963Y-257D01*
Y-257D01*
X2963Y-256D01*
Y-255D01*
Y-255D01*
Y-237D01*
X2970D01*
Y-254D01*
D02*
G37*
G36*
X3019Y-236D02*
X3019Y-237D01*
X3020Y-237D01*
X3021Y-237D01*
X3021Y-237D01*
X3022Y-237D01*
X3023Y-237D01*
X3024Y-238D01*
X3025Y-238D01*
X3026Y-238D01*
X3027Y-239D01*
X3028Y-239D01*
X3029Y-240D01*
X3029Y-241D01*
X3029Y-241D01*
X3030Y-241D01*
X3030Y-241D01*
X3030Y-242D01*
X3030Y-242D01*
X3031Y-243D01*
X3031Y-243D01*
X3032Y-244D01*
X3032Y-245D01*
X3032Y-246D01*
X3033Y-247D01*
X3033Y-248D01*
X3033Y-249D01*
X3034Y-250D01*
X3034Y-252D01*
X3034Y-253D01*
Y-253D01*
Y-253D01*
Y-253D01*
X3034Y-254D01*
X3034Y-254D01*
X3034Y-255D01*
X3033Y-256D01*
X3033Y-257D01*
X3033Y-258D01*
X3033Y-258D01*
X3033Y-259D01*
X3032Y-260D01*
X3032Y-261D01*
X3031Y-262D01*
X3031Y-263D01*
X3030Y-264D01*
X3029Y-265D01*
X3029Y-265D01*
X3029Y-265D01*
X3029Y-266D01*
X3029Y-266D01*
X3028Y-266D01*
X3028Y-267D01*
X3027Y-267D01*
X3026Y-267D01*
X3026Y-268D01*
X3025Y-268D01*
X3024Y-269D01*
X3023Y-269D01*
X3022Y-269D01*
X3021Y-269D01*
X3019Y-270D01*
X3018Y-270D01*
X3018D01*
X3018Y-270D01*
X3017Y-269D01*
X3016Y-269D01*
X3016Y-269D01*
X3015Y-269D01*
X3014Y-269D01*
X3013Y-269D01*
X3012Y-269D01*
X3011Y-268D01*
X3010Y-268D01*
X3010Y-267D01*
X3009Y-267D01*
X3008Y-266D01*
X3007Y-265D01*
X3007Y-265D01*
X3007Y-265D01*
X3007Y-265D01*
X3006Y-264D01*
X3006Y-264D01*
X3006Y-263D01*
X3005Y-263D01*
X3005Y-262D01*
X3004Y-261D01*
X3004Y-260D01*
X3004Y-259D01*
X3003Y-258D01*
X3003Y-257D01*
X3003Y-256D01*
X3003Y-255D01*
X3003Y-253D01*
Y-253D01*
Y-253D01*
Y-253D01*
X3003Y-252D01*
Y-252D01*
X3003Y-251D01*
X3003Y-251D01*
X3003Y-250D01*
X3003Y-249D01*
X3003Y-248D01*
X3004Y-246D01*
X3004Y-245D01*
Y-245D01*
X3004Y-245D01*
X3004Y-245D01*
X3004Y-245D01*
X3005Y-244D01*
X3005Y-244D01*
X3005Y-243D01*
X3006Y-242D01*
X3006Y-241D01*
X3007Y-241D01*
X3007Y-241D01*
X3007Y-241D01*
X3007Y-240D01*
X3008Y-240D01*
X3008Y-240D01*
X3009Y-239D01*
X3010Y-239D01*
X3010Y-238D01*
X3011Y-238D01*
X3011D01*
X3011Y-238D01*
X3012Y-238D01*
X3012Y-238D01*
X3012Y-237D01*
X3012Y-237D01*
X3013Y-237D01*
X3013Y-237D01*
X3014Y-237D01*
X3014Y-237D01*
X3015Y-237D01*
X3017Y-236D01*
X3018Y-236D01*
X3018D01*
X3019Y-236D01*
D02*
G37*
G36*
X3000Y-242D02*
X2990D01*
Y-269D01*
X2984D01*
Y-242D01*
X2974D01*
Y-237D01*
X3000D01*
Y-242D01*
D02*
G37*
G36*
X3094D02*
X3085D01*
Y-269D01*
X3078D01*
Y-242D01*
X3069D01*
Y-237D01*
X3094D01*
Y-242D01*
D02*
G37*
G36*
X3382Y-228D02*
X3382D01*
X3382Y-229D01*
X3383Y-229D01*
X3384Y-229D01*
X3384Y-229D01*
X3385Y-229D01*
X3386Y-229D01*
X3387Y-230D01*
X3387Y-230D01*
X3388Y-230D01*
X3389Y-231D01*
X3390Y-231D01*
X3391Y-232D01*
X3391Y-232D01*
X3391Y-232D01*
X3391Y-232D01*
X3391Y-232D01*
X3391Y-233D01*
X3391Y-233D01*
X3391Y-233D01*
X3392Y-233D01*
X3392Y-234D01*
X3392Y-234D01*
X3393Y-235D01*
X3393Y-235D01*
X3393Y-236D01*
X3393Y-236D01*
X3394Y-237D01*
X3394Y-238D01*
X3387Y-239D01*
Y-239D01*
X3387Y-239D01*
X3387Y-239D01*
X3387Y-239D01*
X3387Y-238D01*
X3387Y-238D01*
X3387Y-237D01*
X3386Y-237D01*
X3386Y-236D01*
X3385Y-235D01*
X3385Y-235D01*
X3385Y-235D01*
X3384Y-235D01*
X3384Y-235D01*
X3383Y-234D01*
X3382Y-234D01*
X3382Y-234D01*
X3381Y-234D01*
X3380D01*
X3380Y-234D01*
X3380Y-234D01*
X3379Y-234D01*
X3379Y-234D01*
X3378Y-235D01*
X3377Y-235D01*
X3377Y-235D01*
X3376Y-235D01*
X3376Y-236D01*
X3375Y-236D01*
X3375Y-237D01*
X3375Y-237D01*
X3375Y-237D01*
X3375Y-237D01*
X3375Y-237D01*
X3374Y-237D01*
X3374Y-238D01*
X3374Y-238D01*
X3374Y-239D01*
X3374Y-239D01*
X3373Y-240D01*
X3373Y-240D01*
X3373Y-241D01*
X3373Y-242D01*
X3373Y-243D01*
X3373Y-244D01*
X3373Y-245D01*
Y-245D01*
Y-245D01*
Y-245D01*
X3373Y-246D01*
X3373Y-246D01*
X3373Y-247D01*
X3373Y-248D01*
X3373Y-248D01*
X3373Y-250D01*
X3374Y-251D01*
X3374Y-252D01*
X3374Y-252D01*
X3374Y-253D01*
X3375Y-253D01*
X3375Y-254D01*
X3375Y-254D01*
X3375Y-254D01*
X3375Y-254D01*
X3375Y-254D01*
X3376Y-254D01*
X3376Y-255D01*
X3376Y-255D01*
X3377Y-255D01*
X3378Y-256D01*
X3379Y-256D01*
X3379Y-256D01*
X3380Y-256D01*
X3380Y-256D01*
X3381D01*
X3381Y-256D01*
X3381Y-256D01*
X3382Y-256D01*
X3383Y-256D01*
X3383Y-255D01*
X3384Y-255D01*
X3385Y-254D01*
X3385Y-254D01*
X3385Y-254D01*
X3385Y-254D01*
X3386Y-254D01*
X3386Y-253D01*
X3386Y-253D01*
X3386Y-252D01*
X3387Y-252D01*
X3387Y-251D01*
X3387Y-251D01*
X3387Y-250D01*
X3387Y-250D01*
X3388Y-249D01*
X3394Y-251D01*
Y-251D01*
X3394Y-251D01*
X3394Y-252D01*
X3394Y-252D01*
X3393Y-252D01*
X3393Y-253D01*
X3393Y-254D01*
X3393Y-254D01*
X3392Y-255D01*
X3392Y-256D01*
X3391Y-257D01*
X3391Y-257D01*
X3390Y-258D01*
X3390Y-259D01*
X3389Y-259D01*
X3389Y-259D01*
X3389Y-259D01*
X3389Y-259D01*
X3388Y-259D01*
X3388Y-260D01*
X3388Y-260D01*
X3387Y-260D01*
X3387Y-260D01*
X3386Y-261D01*
X3386Y-261D01*
X3385Y-261D01*
X3384Y-261D01*
X3383Y-261D01*
X3382Y-261D01*
X3382Y-261D01*
X3381Y-262D01*
X3380D01*
X3380Y-261D01*
X3380Y-261D01*
X3379Y-261D01*
X3378Y-261D01*
X3378Y-261D01*
X3377Y-261D01*
X3376Y-261D01*
X3375Y-261D01*
X3374Y-260D01*
X3373Y-260D01*
X3373Y-259D01*
X3372Y-259D01*
X3371Y-258D01*
X3370Y-257D01*
X3370Y-257D01*
X3370Y-257D01*
X3370Y-257D01*
X3369Y-256D01*
X3369Y-256D01*
X3369Y-255D01*
X3368Y-255D01*
X3368Y-254D01*
X3368Y-253D01*
X3367Y-252D01*
X3367Y-251D01*
X3367Y-250D01*
X3366Y-249D01*
X3366Y-248D01*
X3366Y-247D01*
X3366Y-245D01*
Y-245D01*
Y-245D01*
Y-245D01*
Y-245D01*
X3366Y-245D01*
X3366Y-244D01*
X3366Y-243D01*
X3366Y-243D01*
X3366Y-242D01*
X3366Y-241D01*
X3367Y-240D01*
X3367Y-239D01*
X3367Y-238D01*
X3368Y-237D01*
X3368Y-236D01*
X3369Y-235D01*
X3369Y-234D01*
X3370Y-233D01*
X3370Y-233D01*
X3370Y-233D01*
X3371Y-232D01*
X3371Y-232D01*
X3371Y-232D01*
X3372Y-231D01*
X3372Y-231D01*
X3373Y-231D01*
X3374Y-230D01*
X3375Y-230D01*
X3375Y-229D01*
X3376Y-229D01*
X3377Y-229D01*
X3379Y-229D01*
X3380Y-228D01*
X3381Y-228D01*
X3381D01*
X3382Y-228D01*
D02*
G37*
G36*
X3919Y-231D02*
X3919Y-232D01*
X3920Y-232D01*
X3921Y-232D01*
X3921Y-232D01*
X3922Y-232D01*
X3923Y-232D01*
X3924Y-233D01*
X3925Y-233D01*
X3926Y-233D01*
X3927Y-234D01*
X3928Y-234D01*
X3929Y-235D01*
X3929Y-236D01*
X3929Y-236D01*
X3930Y-236D01*
X3930Y-236D01*
X3930Y-237D01*
X3930Y-237D01*
X3931Y-238D01*
X3931Y-238D01*
X3932Y-239D01*
X3932Y-240D01*
X3932Y-241D01*
X3933Y-242D01*
X3933Y-243D01*
X3933Y-244D01*
X3934Y-245D01*
X3934Y-247D01*
X3934Y-248D01*
Y-248D01*
Y-248D01*
Y-248D01*
X3934Y-249D01*
X3934Y-249D01*
X3934Y-250D01*
X3933Y-251D01*
X3933Y-252D01*
X3933Y-253D01*
X3933Y-253D01*
X3933Y-254D01*
X3932Y-255D01*
X3932Y-256D01*
X3931Y-257D01*
X3931Y-258D01*
X3930Y-259D01*
X3929Y-260D01*
X3929Y-260D01*
X3929Y-260D01*
X3929Y-261D01*
X3929Y-261D01*
X3928Y-261D01*
X3928Y-262D01*
X3927Y-262D01*
X3926Y-262D01*
X3926Y-263D01*
X3925Y-263D01*
X3924Y-264D01*
X3923Y-264D01*
X3922Y-264D01*
X3921Y-264D01*
X3919Y-265D01*
X3918Y-265D01*
X3918D01*
X3918Y-265D01*
X3917Y-264D01*
X3916Y-264D01*
X3916Y-264D01*
X3915Y-264D01*
X3914Y-264D01*
X3913Y-264D01*
X3912Y-264D01*
X3911Y-263D01*
X3910Y-263D01*
X3910Y-262D01*
X3909Y-262D01*
X3908Y-261D01*
X3907Y-260D01*
X3907Y-260D01*
X3907Y-260D01*
X3907Y-260D01*
X3906Y-259D01*
X3906Y-259D01*
X3906Y-258D01*
X3905Y-258D01*
X3905Y-257D01*
X3904Y-256D01*
X3904Y-255D01*
X3904Y-254D01*
X3903Y-253D01*
X3903Y-252D01*
X3903Y-251D01*
X3903Y-250D01*
X3903Y-248D01*
Y-248D01*
Y-248D01*
Y-248D01*
X3903Y-247D01*
Y-247D01*
X3903Y-246D01*
X3903Y-246D01*
X3903Y-245D01*
X3903Y-244D01*
X3903Y-243D01*
X3904Y-241D01*
X3904Y-240D01*
Y-240D01*
X3904Y-240D01*
X3904Y-240D01*
X3904Y-240D01*
X3905Y-239D01*
X3905Y-239D01*
X3905Y-238D01*
X3906Y-237D01*
X3906Y-236D01*
X3907Y-236D01*
X3907Y-236D01*
X3907Y-236D01*
X3907Y-235D01*
X3908Y-235D01*
X3908Y-235D01*
X3909Y-234D01*
X3910Y-234D01*
X3910Y-233D01*
X3911Y-233D01*
X3911D01*
X3911Y-233D01*
X3912Y-233D01*
X3912Y-233D01*
X3912Y-232D01*
X3912Y-232D01*
X3913Y-232D01*
X3913Y-232D01*
X3914Y-232D01*
X3914Y-232D01*
X3915Y-232D01*
X3917Y-231D01*
X3918Y-231D01*
X3918D01*
X3919Y-231D01*
D02*
G37*
G36*
X3900Y-237D02*
X3890D01*
Y-264D01*
X3884D01*
Y-237D01*
X3874D01*
Y-232D01*
X3900D01*
Y-237D01*
D02*
G37*
G36*
X3519Y-246D02*
Y-246D01*
Y-246D01*
Y-246D01*
Y-247D01*
Y-247D01*
X3519Y-248D01*
Y-248D01*
X3519Y-249D01*
X3519Y-250D01*
X3519Y-252D01*
X3519Y-252D01*
X3519Y-253D01*
X3519Y-254D01*
X3519Y-254D01*
Y-254D01*
X3519Y-254D01*
Y-254D01*
X3519Y-254D01*
X3518Y-255D01*
X3518Y-255D01*
X3518Y-256D01*
X3518Y-257D01*
X3517Y-257D01*
X3517Y-258D01*
X3517Y-258D01*
X3516Y-258D01*
X3516Y-259D01*
X3516Y-259D01*
X3515Y-259D01*
X3515Y-260D01*
X3514Y-260D01*
X3513Y-261D01*
X3513D01*
X3513Y-261D01*
X3513Y-261D01*
X3513Y-261D01*
X3512Y-261D01*
X3512Y-261D01*
X3512Y-261D01*
X3511Y-261D01*
X3511Y-261D01*
X3510Y-261D01*
X3509Y-261D01*
X3508Y-262D01*
X3507Y-262D01*
X3506D01*
X3506Y-262D01*
X3505D01*
X3505Y-261D01*
X3504Y-261D01*
X3503Y-261D01*
X3502Y-261D01*
X3501Y-261D01*
X3500Y-261D01*
X3500Y-261D01*
X3500D01*
X3500Y-261D01*
X3500Y-260D01*
X3499Y-260D01*
X3499Y-260D01*
X3498Y-260D01*
X3498Y-259D01*
X3497Y-259D01*
X3497Y-258D01*
X3496Y-258D01*
X3496Y-258D01*
X3496Y-258D01*
X3496Y-257D01*
X3495Y-257D01*
X3495Y-256D01*
X3495Y-256D01*
X3495Y-255D01*
X3494Y-254D01*
Y-254D01*
X3494Y-254D01*
Y-254D01*
X3494Y-254D01*
X3494Y-253D01*
X3494Y-253D01*
X3494Y-253D01*
X3494Y-252D01*
X3494Y-252D01*
X3494Y-251D01*
X3494Y-250D01*
X3494Y-250D01*
X3494Y-249D01*
Y-248D01*
X3494Y-247D01*
Y-246D01*
Y-229D01*
X3500D01*
Y-246D01*
Y-246D01*
Y-247D01*
Y-247D01*
Y-247D01*
Y-247D01*
Y-248D01*
X3500Y-249D01*
Y-249D01*
X3500Y-250D01*
X3500Y-251D01*
Y-251D01*
X3500Y-251D01*
X3500Y-252D01*
Y-252D01*
X3500Y-252D01*
X3500Y-252D01*
X3501Y-252D01*
X3501Y-253D01*
X3501Y-253D01*
X3501Y-254D01*
X3502Y-254D01*
X3502Y-255D01*
X3502Y-255D01*
X3503Y-255D01*
X3503Y-255D01*
X3503Y-255D01*
X3504Y-256D01*
X3505Y-256D01*
X3506Y-256D01*
X3507Y-256D01*
X3507D01*
X3508Y-256D01*
X3508Y-256D01*
X3509Y-256D01*
X3510Y-256D01*
X3510Y-255D01*
X3511Y-255D01*
X3511Y-255D01*
X3511Y-255D01*
X3511Y-254D01*
X3512Y-254D01*
X3512Y-254D01*
X3512Y-253D01*
X3512Y-253D01*
X3512Y-252D01*
Y-252D01*
X3513Y-252D01*
X3513Y-252D01*
Y-251D01*
X3513Y-251D01*
X3513Y-251D01*
Y-251D01*
X3513Y-250D01*
Y-250D01*
X3513Y-249D01*
Y-249D01*
X3513Y-248D01*
Y-247D01*
Y-247D01*
Y-229D01*
X3519D01*
Y-246D01*
D02*
G37*
G36*
X3455Y-234D02*
X3445D01*
Y-261D01*
X3439D01*
Y-234D01*
X3429D01*
Y-229D01*
X3455D01*
Y-234D01*
D02*
G37*
G36*
X3549D02*
X3540D01*
Y-261D01*
X3533D01*
Y-234D01*
X3524D01*
Y-229D01*
X3549D01*
Y-234D01*
D02*
G37*
G36*
X3425Y-246D02*
Y-246D01*
Y-246D01*
Y-246D01*
Y-247D01*
Y-247D01*
X3425Y-248D01*
Y-248D01*
X3425Y-249D01*
X3425Y-250D01*
X3425Y-252D01*
X3425Y-252D01*
X3425Y-253D01*
X3424Y-254D01*
X3424Y-254D01*
Y-254D01*
X3424Y-254D01*
Y-254D01*
X3424Y-254D01*
X3424Y-255D01*
X3424Y-255D01*
X3424Y-256D01*
X3423Y-257D01*
X3423Y-257D01*
X3422Y-258D01*
X3422Y-258D01*
X3422Y-258D01*
X3422Y-259D01*
X3421Y-259D01*
X3421Y-259D01*
X3420Y-260D01*
X3419Y-260D01*
X3419Y-261D01*
X3419D01*
X3419Y-261D01*
X3418Y-261D01*
X3418Y-261D01*
X3418Y-261D01*
X3418Y-261D01*
X3417Y-261D01*
X3417Y-261D01*
X3417Y-261D01*
X3416Y-261D01*
X3415Y-261D01*
X3414Y-262D01*
X3413Y-262D01*
X3412D01*
X3411Y-262D01*
X3411D01*
X3410Y-261D01*
X3410Y-261D01*
X3409Y-261D01*
X3408Y-261D01*
X3407Y-261D01*
X3406Y-261D01*
X3406Y-261D01*
X3405D01*
X3405Y-261D01*
X3405Y-260D01*
X3405Y-260D01*
X3405Y-260D01*
X3404Y-260D01*
X3404Y-259D01*
X3403Y-259D01*
X3402Y-258D01*
X3402Y-258D01*
X3402Y-258D01*
X3402Y-258D01*
X3401Y-257D01*
X3401Y-257D01*
X3401Y-256D01*
X3400Y-256D01*
X3400Y-255D01*
X3400Y-254D01*
Y-254D01*
X3400Y-254D01*
Y-254D01*
X3400Y-254D01*
X3400Y-253D01*
X3400Y-253D01*
X3400Y-253D01*
X3400Y-252D01*
X3400Y-252D01*
X3400Y-251D01*
X3400Y-250D01*
X3399Y-250D01*
X3399Y-249D01*
Y-248D01*
X3399Y-247D01*
Y-246D01*
Y-229D01*
X3406D01*
Y-246D01*
Y-246D01*
Y-247D01*
Y-247D01*
Y-247D01*
Y-247D01*
Y-248D01*
X3406Y-249D01*
Y-249D01*
X3406Y-250D01*
X3406Y-251D01*
Y-251D01*
X3406Y-251D01*
X3406Y-252D01*
Y-252D01*
X3406Y-252D01*
X3406Y-252D01*
X3406Y-252D01*
X3406Y-253D01*
X3407Y-253D01*
X3407Y-254D01*
X3407Y-254D01*
X3408Y-255D01*
X3408Y-255D01*
X3408Y-255D01*
X3409Y-255D01*
X3409Y-255D01*
X3410Y-256D01*
X3411Y-256D01*
X3411Y-256D01*
X3412Y-256D01*
X3413D01*
X3413Y-256D01*
X3414Y-256D01*
X3415Y-256D01*
X3415Y-256D01*
X3416Y-255D01*
X3416Y-255D01*
X3417Y-255D01*
X3417Y-255D01*
X3417Y-254D01*
X3417Y-254D01*
X3418Y-254D01*
X3418Y-253D01*
X3418Y-253D01*
X3418Y-252D01*
Y-252D01*
X3418Y-252D01*
X3418Y-252D01*
Y-251D01*
X3418Y-251D01*
X3418Y-251D01*
Y-251D01*
X3418Y-250D01*
Y-250D01*
X3418Y-249D01*
Y-249D01*
X3418Y-248D01*
Y-247D01*
Y-247D01*
Y-229D01*
X3425D01*
Y-246D01*
D02*
G37*
G36*
X3718Y2095D02*
X3723D01*
X3728Y2095D01*
X3734Y2094D01*
X3746Y2093D01*
X3759Y2092D01*
X3764Y2091D01*
X3770Y2090D01*
X3775Y2088D01*
X3780Y2087D01*
X3780D01*
X3781Y2086D01*
X3782Y2086D01*
X3784Y2085D01*
X3788Y2083D01*
X3793Y2080D01*
X3799Y2075D01*
X3806Y2070D01*
X3811Y2063D01*
X3817Y2056D01*
Y2055D01*
X3818Y2055D01*
X3819Y2054D01*
X3819Y2052D01*
X3821Y2050D01*
X3822Y2047D01*
X3824Y2041D01*
X3827Y2034D01*
X3829Y2025D01*
X3831Y2016D01*
X3831Y2005D01*
Y2005D01*
Y2004D01*
Y2002D01*
X3831Y2000D01*
X3831Y1996D01*
X3830Y1993D01*
X3830Y1989D01*
X3829Y1985D01*
X3826Y1975D01*
X3823Y1965D01*
X3820Y1960D01*
X3817Y1955D01*
X3814Y1950D01*
X3810Y1946D01*
X3810Y1945D01*
X3809Y1945D01*
X3808Y1944D01*
X3806Y1942D01*
X3804Y1940D01*
X3801Y1938D01*
X3798Y1936D01*
X3794Y1933D01*
X3790Y1931D01*
X3785Y1928D01*
X3780Y1926D01*
X3774Y1923D01*
X3768Y1921D01*
X3761Y1919D01*
X3754Y1917D01*
X3746Y1916D01*
X3747D01*
X3747Y1916D01*
X3750Y1914D01*
X3754Y1912D01*
X3759Y1908D01*
X3764Y1904D01*
X3770Y1900D01*
X3776Y1895D01*
X3781Y1889D01*
X3782Y1888D01*
X3784Y1886D01*
X3786Y1882D01*
X3789Y1880D01*
X3791Y1877D01*
X3794Y1874D01*
X3796Y1870D01*
X3799Y1866D01*
X3803Y1861D01*
X3806Y1856D01*
X3810Y1850D01*
X3814Y1844D01*
X3818Y1837D01*
X3857Y1775D01*
X3780D01*
X3733Y1845D01*
X3733Y1845D01*
X3732Y1846D01*
X3731Y1848D01*
X3729Y1850D01*
X3727Y1854D01*
X3725Y1857D01*
X3719Y1865D01*
X3714Y1872D01*
X3708Y1880D01*
X3706Y1884D01*
X3703Y1887D01*
X3701Y1890D01*
X3699Y1892D01*
X3699Y1892D01*
X3697Y1893D01*
X3696Y1895D01*
X3693Y1897D01*
X3690Y1899D01*
X3687Y1901D01*
X3683Y1903D01*
X3679Y1905D01*
X3679D01*
X3677Y1905D01*
X3675Y1906D01*
X3671Y1907D01*
X3667Y1907D01*
X3661Y1908D01*
X3655Y1909D01*
X3634D01*
Y1775D01*
X3569D01*
Y2095D01*
X3714D01*
X3718Y2095D01*
D02*
G37*
G36*
X4024D02*
X4028D01*
X4033Y2095D01*
X4043Y2094D01*
X4053Y2093D01*
X4063Y2091D01*
X4067Y2090D01*
X4071Y2089D01*
X4072D01*
X4073Y2089D01*
X4074Y2088D01*
X4076Y2087D01*
X4079Y2087D01*
X4081Y2085D01*
X4088Y2082D01*
X4096Y2078D01*
X4104Y2073D01*
X4112Y2067D01*
X4120Y2060D01*
X4120Y2059D01*
X4121Y2059D01*
X4122Y2057D01*
X4123Y2056D01*
X4125Y2054D01*
X4127Y2051D01*
X4131Y2045D01*
X4136Y2037D01*
X4141Y2029D01*
X4146Y2019D01*
X4150Y2007D01*
Y2007D01*
X4151Y2006D01*
X4151Y2005D01*
X4152Y2002D01*
X4153Y1999D01*
X4153Y1995D01*
X4155Y1991D01*
X4156Y1987D01*
X4156Y1982D01*
X4158Y1976D01*
X4158Y1970D01*
X4159Y1963D01*
X4160Y1956D01*
X4161Y1948D01*
X4161Y1932D01*
Y1932D01*
Y1930D01*
Y1928D01*
Y1925D01*
X4161Y1922D01*
Y1918D01*
X4160Y1914D01*
X4160Y1909D01*
X4158Y1898D01*
X4157Y1887D01*
X4154Y1875D01*
X4151Y1864D01*
Y1863D01*
X4151Y1862D01*
X4150Y1860D01*
X4149Y1858D01*
X4148Y1855D01*
X4146Y1852D01*
X4142Y1844D01*
X4137Y1835D01*
X4131Y1825D01*
X4124Y1816D01*
X4116Y1807D01*
X4116Y1806D01*
X4114Y1805D01*
X4110Y1802D01*
X4104Y1798D01*
X4098Y1794D01*
X4090Y1790D01*
X4081Y1785D01*
X4071Y1782D01*
X4071D01*
X4070Y1781D01*
X4069D01*
X4067Y1781D01*
X4065Y1780D01*
X4062Y1780D01*
X4059Y1779D01*
X4056Y1778D01*
X4052Y1778D01*
X4048Y1777D01*
X4038Y1776D01*
X4027Y1775D01*
X4014Y1775D01*
X3892D01*
Y2095D01*
X4020D01*
X4024Y2095D01*
D02*
G37*
G36*
X3535Y1775D02*
X3464D01*
X3436Y1848D01*
X3308D01*
X3282Y1775D01*
X3213D01*
X3338Y2095D01*
X3407D01*
X3535Y1775D01*
D02*
G37*
G36*
X4488Y2101D02*
X4493Y2100D01*
X4499Y2100D01*
X4506Y2099D01*
X4514Y2097D01*
X4522Y2096D01*
X4531Y2093D01*
X4540Y2090D01*
X4550Y2087D01*
X4559Y2082D01*
X4568Y2077D01*
X4578Y2072D01*
X4586Y2065D01*
X4595Y2057D01*
X4595Y2057D01*
X4596Y2055D01*
X4598Y2052D01*
X4601Y2049D01*
X4605Y2045D01*
X4608Y2039D01*
X4612Y2032D01*
X4616Y2025D01*
X4620Y2017D01*
X4624Y2008D01*
X4627Y1998D01*
X4631Y1987D01*
X4633Y1975D01*
X4636Y1962D01*
X4637Y1949D01*
X4637Y1935D01*
Y1934D01*
Y1934D01*
Y1931D01*
X4637Y1927D01*
X4636Y1922D01*
X4636Y1915D01*
X4635Y1907D01*
X4633Y1899D01*
X4632Y1890D01*
X4630Y1880D01*
X4627Y1871D01*
X4623Y1860D01*
X4619Y1850D01*
X4614Y1840D01*
X4609Y1831D01*
X4602Y1822D01*
X4595Y1813D01*
X4594Y1812D01*
X4593Y1811D01*
X4591Y1809D01*
X4587Y1806D01*
X4583Y1803D01*
X4578Y1799D01*
X4572Y1795D01*
X4565Y1791D01*
X4557Y1787D01*
X4549Y1783D01*
X4540Y1779D01*
X4530Y1776D01*
X4519Y1773D01*
X4507Y1771D01*
X4495Y1770D01*
X4482Y1769D01*
X4479D01*
X4476Y1770D01*
X4471Y1770D01*
X4464Y1770D01*
X4458Y1772D01*
X4450Y1773D01*
X4441Y1775D01*
X4433Y1777D01*
X4423Y1780D01*
X4414Y1783D01*
X4404Y1787D01*
X4395Y1792D01*
X4386Y1798D01*
X4377Y1805D01*
X4369Y1812D01*
X4368Y1813D01*
X4367Y1815D01*
X4365Y1817D01*
X4362Y1820D01*
X4359Y1825D01*
X4356Y1830D01*
X4352Y1837D01*
X4348Y1844D01*
X4344Y1852D01*
X4340Y1861D01*
X4336Y1871D01*
X4333Y1882D01*
X4331Y1893D01*
X4328Y1906D01*
X4327Y1919D01*
X4327Y1933D01*
Y1933D01*
Y1935D01*
Y1937D01*
X4327Y1941D01*
Y1945D01*
X4328Y1950D01*
X4328Y1956D01*
X4328Y1962D01*
X4331Y1975D01*
X4333Y1988D01*
X4336Y2002D01*
X4341Y2015D01*
Y2016D01*
X4342Y2017D01*
X4343Y2018D01*
X4343Y2020D01*
X4346Y2024D01*
X4349Y2030D01*
X4353Y2037D01*
X4358Y2044D01*
X4364Y2052D01*
X4371Y2059D01*
X4371Y2060D01*
X4372Y2060D01*
X4374Y2062D01*
X4378Y2066D01*
X4383Y2070D01*
X4389Y2075D01*
X4396Y2080D01*
X4404Y2084D01*
X4412Y2088D01*
X4413D01*
X4413Y2089D01*
X4415Y2090D01*
X4418Y2090D01*
X4421Y2091D01*
X4424Y2092D01*
X4428Y2094D01*
X4432Y2095D01*
X4437Y2096D01*
X4442Y2097D01*
X4454Y2099D01*
X4467Y2101D01*
X4481Y2101D01*
X4485D01*
X4488Y2101D01*
D02*
G37*
G36*
X2724Y2095D02*
X2733Y2095D01*
X2743Y2094D01*
X2752Y2093D01*
X2756Y2092D01*
X2760Y2092D01*
X2760D01*
X2763Y2091D01*
X2766Y2090D01*
X2771Y2089D01*
X2776Y2087D01*
X2782Y2085D01*
X2787Y2082D01*
X2793Y2079D01*
X2794Y2078D01*
X2795Y2077D01*
X2798Y2075D01*
X2802Y2072D01*
X2805Y2068D01*
X2810Y2063D01*
X2814Y2058D01*
X2817Y2052D01*
X2818Y2051D01*
X2819Y2049D01*
X2821Y2046D01*
X2822Y2041D01*
X2824Y2035D01*
X2826Y2029D01*
X2827Y2022D01*
X2827Y2015D01*
Y2014D01*
Y2014D01*
Y2012D01*
Y2011D01*
X2827Y2007D01*
X2826Y2001D01*
X2825Y1995D01*
X2822Y1987D01*
X2820Y1980D01*
X2815Y1973D01*
X2815Y1972D01*
X2813Y1970D01*
X2810Y1967D01*
X2807Y1963D01*
X2802Y1958D01*
X2796Y1953D01*
X2790Y1949D01*
X2782Y1945D01*
X2783D01*
X2784Y1945D01*
X2785Y1944D01*
X2787Y1943D01*
X2790Y1942D01*
X2792Y1941D01*
X2799Y1938D01*
X2806Y1934D01*
X2814Y1929D01*
X2821Y1923D01*
X2827Y1916D01*
Y1915D01*
X2828Y1915D01*
X2829Y1914D01*
X2830Y1912D01*
X2832Y1908D01*
X2835Y1902D01*
X2838Y1895D01*
X2841Y1887D01*
X2842Y1877D01*
X2843Y1867D01*
Y1867D01*
Y1867D01*
Y1865D01*
Y1864D01*
X2843Y1860D01*
X2842Y1854D01*
X2841Y1847D01*
X2839Y1840D01*
X2836Y1833D01*
X2833Y1825D01*
Y1825D01*
X2832Y1824D01*
X2831Y1822D01*
X2829Y1818D01*
X2826Y1813D01*
X2822Y1808D01*
X2817Y1802D01*
X2811Y1797D01*
X2805Y1792D01*
X2804Y1792D01*
X2802Y1790D01*
X2798Y1788D01*
X2793Y1786D01*
X2787Y1783D01*
X2779Y1781D01*
X2771Y1779D01*
X2762Y1777D01*
X2760D01*
X2758Y1777D01*
X2753D01*
X2750Y1776D01*
X2746D01*
X2741Y1776D01*
X2729D01*
X2722Y1775D01*
X2705D01*
X2695Y1775D01*
X2575D01*
Y2095D01*
X2716D01*
X2724Y2095D01*
D02*
G37*
G36*
X5242Y2041D02*
X5148D01*
Y1775D01*
X5083D01*
Y2041D01*
X4988D01*
Y2095D01*
X5242D01*
Y2041D01*
D02*
G37*
G36*
X4943Y1927D02*
Y1926D01*
Y1924D01*
Y1921D01*
Y1917D01*
Y1912D01*
X4943Y1907D01*
Y1901D01*
X4942Y1895D01*
X4942Y1882D01*
X4941Y1868D01*
X4940Y1862D01*
X4939Y1855D01*
X4938Y1850D01*
X4938Y1845D01*
Y1845D01*
X4937Y1844D01*
Y1843D01*
X4936Y1841D01*
X4935Y1837D01*
X4933Y1831D01*
X4930Y1825D01*
X4927Y1818D01*
X4923Y1811D01*
X4918Y1805D01*
X4918Y1804D01*
X4915Y1802D01*
X4913Y1799D01*
X4908Y1795D01*
X4903Y1791D01*
X4896Y1787D01*
X4889Y1782D01*
X4880Y1779D01*
X4880D01*
X4879Y1778D01*
X4878Y1778D01*
X4876Y1777D01*
X4874Y1777D01*
X4871Y1776D01*
X4868Y1775D01*
X4864Y1774D01*
X4860Y1773D01*
X4855Y1772D01*
X4845Y1771D01*
X4833Y1770D01*
X4819Y1769D01*
X4811D01*
X4808Y1770D01*
X4803D01*
X4798Y1770D01*
X4793Y1770D01*
X4781Y1772D01*
X4770Y1774D01*
X4759Y1776D01*
X4753Y1778D01*
X4749Y1780D01*
X4748D01*
X4748Y1780D01*
X4747Y1781D01*
X4745Y1782D01*
X4740Y1784D01*
X4735Y1787D01*
X4729Y1791D01*
X4723Y1795D01*
X4717Y1801D01*
X4711Y1807D01*
X4711Y1808D01*
X4709Y1810D01*
X4707Y1813D01*
X4704Y1818D01*
X4701Y1823D01*
X4698Y1829D01*
X4695Y1836D01*
X4693Y1842D01*
Y1843D01*
X4693Y1844D01*
Y1845D01*
X4693Y1848D01*
X4692Y1851D01*
X4691Y1854D01*
X4691Y1858D01*
X4690Y1863D01*
X4690Y1869D01*
X4689Y1875D01*
X4689Y1881D01*
X4688Y1889D01*
X4688Y1897D01*
Y1905D01*
X4687Y1915D01*
Y1924D01*
Y2095D01*
X4752D01*
Y1922D01*
Y1921D01*
Y1920D01*
Y1918D01*
Y1915D01*
Y1912D01*
Y1908D01*
X4752Y1899D01*
Y1890D01*
X4753Y1881D01*
X4753Y1877D01*
Y1874D01*
X4753Y1870D01*
X4754Y1868D01*
Y1867D01*
X4754Y1867D01*
X4755Y1865D01*
X4756Y1861D01*
X4758Y1857D01*
X4760Y1852D01*
X4764Y1846D01*
X4768Y1841D01*
X4774Y1836D01*
X4775Y1836D01*
X4777Y1835D01*
X4780Y1832D01*
X4785Y1830D01*
X4791Y1828D01*
X4799Y1826D01*
X4807Y1825D01*
X4817Y1825D01*
X4821D01*
X4826Y1825D01*
X4832Y1826D01*
X4839Y1827D01*
X4846Y1829D01*
X4853Y1832D01*
X4858Y1836D01*
X4859Y1836D01*
X4860Y1838D01*
X4863Y1840D01*
X4866Y1843D01*
X4869Y1847D01*
X4872Y1852D01*
X4874Y1857D01*
X4875Y1863D01*
Y1864D01*
X4876Y1867D01*
X4876Y1868D01*
Y1870D01*
X4877Y1873D01*
X4877Y1876D01*
Y1880D01*
X4878Y1884D01*
Y1888D01*
X4878Y1893D01*
Y1899D01*
X4878Y1905D01*
Y1911D01*
Y1918D01*
Y2095D01*
X4943D01*
Y1927D01*
D02*
G37*
G36*
X5937Y1775D02*
X5872D01*
X5742Y1985D01*
Y1775D01*
X5682D01*
Y2095D01*
X5744D01*
X5877Y1881D01*
Y2095D01*
X5937D01*
Y1775D01*
D02*
G37*
G36*
X6242Y2041D02*
X6070D01*
Y1970D01*
X6230D01*
Y1916D01*
X6070D01*
Y1829D01*
X6249D01*
Y1775D01*
X6005D01*
Y2095D01*
X6242D01*
Y2041D01*
D02*
G37*
G36*
X5350Y1829D02*
X5511D01*
Y1775D01*
X5286D01*
Y2093D01*
X5350D01*
Y1829D01*
D02*
G37*
G36*
X5620Y1775D02*
X5555D01*
Y2095D01*
X5620D01*
Y1775D01*
D02*
G37*
G36*
X3046Y2101D02*
X3051Y2100D01*
X3057Y2100D01*
X3064Y2099D01*
X3072Y2097D01*
X3080Y2096D01*
X3089Y2093D01*
X3098Y2090D01*
X3108Y2087D01*
X3117Y2082D01*
X3127Y2077D01*
X3136Y2072D01*
X3144Y2065D01*
X3153Y2057D01*
X3153Y2057D01*
X3154Y2055D01*
X3157Y2052D01*
X3159Y2049D01*
X3163Y2045D01*
X3166Y2039D01*
X3170Y2032D01*
X3174Y2025D01*
X3178Y2017D01*
X3182Y2008D01*
X3185Y1998D01*
X3189Y1987D01*
X3192Y1975D01*
X3194Y1962D01*
X3195Y1949D01*
X3195Y1935D01*
Y1934D01*
Y1934D01*
Y1931D01*
X3195Y1927D01*
X3194Y1922D01*
X3194Y1915D01*
X3193Y1907D01*
X3192Y1899D01*
X3190Y1890D01*
X3188Y1880D01*
X3185Y1871D01*
X3182Y1860D01*
X3177Y1850D01*
X3172Y1840D01*
X3167Y1831D01*
X3160Y1822D01*
X3153Y1813D01*
X3152Y1812D01*
X3151Y1811D01*
X3149Y1809D01*
X3145Y1806D01*
X3141Y1803D01*
X3136Y1799D01*
X3130Y1795D01*
X3123Y1791D01*
X3115Y1787D01*
X3107Y1783D01*
X3098Y1779D01*
X3088Y1776D01*
X3077Y1773D01*
X3065Y1771D01*
X3053Y1770D01*
X3040Y1769D01*
X3037D01*
X3034Y1770D01*
X3029Y1770D01*
X3022Y1770D01*
X3016Y1772D01*
X3008Y1773D01*
X3000Y1775D01*
X2991Y1777D01*
X2981Y1780D01*
X2972Y1783D01*
X2962Y1787D01*
X2953Y1792D01*
X2944Y1798D01*
X2935Y1805D01*
X2927Y1812D01*
X2927Y1813D01*
X2925Y1815D01*
X2923Y1817D01*
X2920Y1820D01*
X2917Y1825D01*
X2914Y1830D01*
X2910Y1837D01*
X2906Y1844D01*
X2902Y1852D01*
X2898Y1861D01*
X2895Y1871D01*
X2892Y1882D01*
X2889Y1893D01*
X2887Y1906D01*
X2885Y1919D01*
X2885Y1933D01*
Y1933D01*
Y1935D01*
Y1937D01*
X2885Y1941D01*
Y1945D01*
X2886Y1950D01*
X2886Y1956D01*
X2887Y1962D01*
X2889Y1975D01*
X2891Y1988D01*
X2895Y2002D01*
X2900Y2015D01*
Y2016D01*
X2900Y2017D01*
X2901Y2018D01*
X2902Y2020D01*
X2904Y2024D01*
X2907Y2030D01*
X2912Y2037D01*
X2917Y2044D01*
X2922Y2052D01*
X2929Y2059D01*
X2930Y2060D01*
X2930Y2060D01*
X2932Y2062D01*
X2936Y2066D01*
X2941Y2070D01*
X2947Y2075D01*
X2955Y2080D01*
X2962Y2084D01*
X2970Y2088D01*
X2971D01*
X2972Y2089D01*
X2973Y2090D01*
X2976Y2090D01*
X2979Y2091D01*
X2982Y2092D01*
X2986Y2094D01*
X2990Y2095D01*
X2995Y2096D01*
X3000Y2097D01*
X3012Y2099D01*
X3025Y2101D01*
X3040Y2101D01*
X3043D01*
X3046Y2101D01*
D02*
G37*
G36*
X5247Y-229D02*
X5237D01*
Y-256D01*
X5231D01*
Y-229D01*
X5221D01*
Y-224D01*
X5247D01*
Y-229D01*
D02*
G37*
G36*
X5341D02*
X5332D01*
Y-256D01*
X5325D01*
Y-229D01*
X5316D01*
Y-224D01*
X5341D01*
Y-229D01*
D02*
G37*
G36*
X5266Y-223D02*
X5266Y-224D01*
X5267Y-224D01*
X5268Y-224D01*
X5268Y-224D01*
X5269Y-224D01*
X5270Y-224D01*
X5271Y-225D01*
X5272Y-225D01*
X5273Y-225D01*
X5274Y-226D01*
X5275Y-226D01*
X5276Y-227D01*
X5276Y-228D01*
X5276Y-228D01*
X5277Y-228D01*
X5277Y-228D01*
X5277Y-229D01*
X5277Y-229D01*
X5278Y-230D01*
X5278Y-230D01*
X5279Y-231D01*
X5279Y-232D01*
X5279Y-233D01*
X5280Y-234D01*
X5280Y-235D01*
X5280Y-236D01*
X5281Y-237D01*
X5281Y-239D01*
X5281Y-240D01*
Y-240D01*
Y-240D01*
Y-240D01*
X5281Y-241D01*
X5281Y-241D01*
X5281Y-242D01*
X5280Y-243D01*
X5280Y-244D01*
X5280Y-245D01*
X5280Y-245D01*
X5280Y-246D01*
X5279Y-247D01*
X5279Y-248D01*
X5278Y-249D01*
X5278Y-250D01*
X5277Y-251D01*
X5276Y-252D01*
X5276Y-252D01*
X5276Y-252D01*
X5276Y-253D01*
X5276Y-253D01*
X5275Y-253D01*
X5275Y-254D01*
X5274Y-254D01*
X5273Y-254D01*
X5273Y-255D01*
X5272Y-255D01*
X5271Y-256D01*
X5270Y-256D01*
X5269Y-256D01*
X5268Y-256D01*
X5266Y-257D01*
X5265Y-257D01*
X5265D01*
X5265Y-257D01*
X5264Y-256D01*
X5263Y-256D01*
X5263Y-256D01*
X5262Y-256D01*
X5261Y-256D01*
X5260Y-256D01*
X5259Y-256D01*
X5258Y-255D01*
X5257Y-255D01*
X5257Y-254D01*
X5256Y-254D01*
X5255Y-253D01*
X5254Y-252D01*
X5254Y-252D01*
X5254Y-252D01*
X5254Y-252D01*
X5253Y-251D01*
X5253Y-251D01*
X5253Y-250D01*
X5252Y-250D01*
X5252Y-249D01*
X5251Y-248D01*
X5251Y-247D01*
X5251Y-246D01*
X5250Y-245D01*
X5250Y-244D01*
X5250Y-243D01*
X5250Y-242D01*
X5250Y-240D01*
Y-240D01*
Y-240D01*
Y-240D01*
X5250Y-239D01*
Y-239D01*
X5250Y-238D01*
X5250Y-238D01*
X5250Y-237D01*
X5250Y-236D01*
X5250Y-235D01*
X5251Y-233D01*
X5251Y-232D01*
Y-232D01*
X5251Y-232D01*
X5251Y-232D01*
X5251Y-232D01*
X5252Y-231D01*
X5252Y-231D01*
X5252Y-230D01*
X5253Y-229D01*
X5253Y-228D01*
X5254Y-228D01*
X5254Y-228D01*
X5254Y-228D01*
X5254Y-227D01*
X5255Y-227D01*
X5255Y-227D01*
X5256Y-226D01*
X5257Y-226D01*
X5257Y-225D01*
X5258Y-225D01*
X5258D01*
X5258Y-225D01*
X5259Y-225D01*
X5259Y-225D01*
X5259Y-224D01*
X5259Y-224D01*
X5260Y-224D01*
X5260Y-224D01*
X5261Y-224D01*
X5261Y-224D01*
X5262Y-224D01*
X5264Y-223D01*
X5265Y-223D01*
X5265D01*
X5266Y-223D01*
D02*
G37*
G36*
X4858Y-246D02*
Y-246D01*
Y-246D01*
Y-246D01*
Y-247D01*
Y-247D01*
X4858Y-248D01*
Y-248D01*
X4858Y-249D01*
X4858Y-250D01*
X4858Y-252D01*
X4858Y-252D01*
X4858Y-253D01*
X4858Y-254D01*
X4858Y-254D01*
Y-254D01*
X4858Y-254D01*
Y-254D01*
X4858Y-254D01*
X4857Y-255D01*
X4857Y-255D01*
X4857Y-256D01*
X4857Y-257D01*
X4856Y-257D01*
X4856Y-258D01*
X4856Y-258D01*
X4855Y-258D01*
X4855Y-259D01*
X4855Y-259D01*
X4854Y-259D01*
X4854Y-260D01*
X4853Y-260D01*
X4852Y-261D01*
X4852D01*
X4852Y-261D01*
X4852Y-261D01*
X4852Y-261D01*
X4851Y-261D01*
X4851Y-261D01*
X4851Y-261D01*
X4850Y-261D01*
X4850Y-261D01*
X4849Y-261D01*
X4848Y-261D01*
X4847Y-262D01*
X4846Y-262D01*
X4845D01*
X4845Y-262D01*
X4844D01*
X4844Y-261D01*
X4843Y-261D01*
X4842Y-261D01*
X4841Y-261D01*
X4840Y-261D01*
X4839Y-261D01*
X4839Y-261D01*
X4839D01*
X4839Y-261D01*
X4839Y-260D01*
X4838Y-260D01*
X4838Y-260D01*
X4837Y-260D01*
X4837Y-259D01*
X4836Y-259D01*
X4836Y-258D01*
X4835Y-258D01*
X4835Y-258D01*
X4835Y-258D01*
X4835Y-257D01*
X4834Y-257D01*
X4834Y-256D01*
X4834Y-256D01*
X4834Y-255D01*
X4833Y-254D01*
Y-254D01*
X4833Y-254D01*
Y-254D01*
X4833Y-254D01*
X4833Y-253D01*
X4833Y-253D01*
X4833Y-253D01*
X4833Y-252D01*
X4833Y-252D01*
X4833Y-251D01*
X4833Y-250D01*
X4833Y-250D01*
X4833Y-249D01*
Y-248D01*
X4833Y-247D01*
Y-246D01*
Y-229D01*
X4839D01*
Y-246D01*
Y-246D01*
Y-247D01*
Y-247D01*
Y-247D01*
Y-247D01*
Y-248D01*
X4839Y-249D01*
Y-249D01*
X4839Y-250D01*
X4839Y-251D01*
Y-251D01*
X4839Y-251D01*
X4839Y-252D01*
Y-252D01*
X4839Y-252D01*
X4839Y-252D01*
X4840Y-252D01*
X4840Y-253D01*
X4840Y-253D01*
X4840Y-254D01*
X4841Y-254D01*
X4841Y-255D01*
X4841Y-255D01*
X4842Y-255D01*
X4842Y-255D01*
X4842Y-255D01*
X4843Y-256D01*
X4844Y-256D01*
X4845Y-256D01*
X4846Y-256D01*
X4846D01*
X4847Y-256D01*
X4847Y-256D01*
X4848Y-256D01*
X4849Y-256D01*
X4849Y-255D01*
X4850Y-255D01*
X4850Y-255D01*
X4850Y-255D01*
X4850Y-254D01*
X4851Y-254D01*
X4851Y-254D01*
X4851Y-253D01*
X4851Y-253D01*
X4851Y-252D01*
Y-252D01*
X4852Y-252D01*
X4852Y-252D01*
Y-251D01*
X4852Y-251D01*
X4852Y-251D01*
Y-251D01*
X4852Y-250D01*
Y-250D01*
X4852Y-249D01*
Y-249D01*
X4852Y-248D01*
Y-247D01*
Y-247D01*
Y-229D01*
X4858D01*
Y-246D01*
D02*
G37*
G36*
X4721Y-228D02*
X4721D01*
X4721Y-229D01*
X4722Y-229D01*
X4723Y-229D01*
X4723Y-229D01*
X4724Y-229D01*
X4725Y-229D01*
X4726Y-230D01*
X4726Y-230D01*
X4727Y-230D01*
X4728Y-231D01*
X4729Y-231D01*
X4730Y-232D01*
X4730Y-232D01*
X4730Y-232D01*
X4730Y-232D01*
X4730Y-232D01*
X4730Y-233D01*
X4730Y-233D01*
X4730Y-233D01*
X4731Y-233D01*
X4731Y-234D01*
X4731Y-234D01*
X4732Y-235D01*
X4732Y-235D01*
X4732Y-236D01*
X4732Y-236D01*
X4733Y-237D01*
X4733Y-238D01*
X4726Y-239D01*
Y-239D01*
X4726Y-239D01*
X4726Y-239D01*
X4726Y-239D01*
X4726Y-238D01*
X4726Y-238D01*
X4726Y-237D01*
X4725Y-237D01*
X4725Y-236D01*
X4724Y-235D01*
X4724Y-235D01*
X4724Y-235D01*
X4723Y-235D01*
X4723Y-235D01*
X4722Y-234D01*
X4721Y-234D01*
X4721Y-234D01*
X4720Y-234D01*
X4719D01*
X4719Y-234D01*
X4719Y-234D01*
X4718Y-234D01*
X4718Y-234D01*
X4717Y-235D01*
X4716Y-235D01*
X4716Y-235D01*
X4715Y-235D01*
X4715Y-236D01*
X4714Y-236D01*
X4714Y-237D01*
X4714Y-237D01*
X4714Y-237D01*
X4714Y-237D01*
X4714Y-237D01*
X4713Y-237D01*
X4713Y-238D01*
X4713Y-238D01*
X4713Y-239D01*
X4713Y-239D01*
X4712Y-240D01*
X4712Y-240D01*
X4712Y-241D01*
X4712Y-242D01*
X4712Y-243D01*
X4712Y-244D01*
X4712Y-245D01*
Y-245D01*
Y-245D01*
Y-245D01*
X4712Y-246D01*
X4712Y-246D01*
X4712Y-247D01*
X4712Y-248D01*
X4712Y-248D01*
X4712Y-250D01*
X4713Y-251D01*
X4713Y-252D01*
X4713Y-252D01*
X4713Y-253D01*
X4714Y-253D01*
X4714Y-254D01*
X4714Y-254D01*
X4714Y-254D01*
X4714Y-254D01*
X4714Y-254D01*
X4715Y-254D01*
X4715Y-255D01*
X4715Y-255D01*
X4716Y-255D01*
X4717Y-256D01*
X4718Y-256D01*
X4718Y-256D01*
X4719Y-256D01*
X4719Y-256D01*
X4720D01*
X4720Y-256D01*
X4720Y-256D01*
X4721Y-256D01*
X4722Y-256D01*
X4722Y-255D01*
X4723Y-255D01*
X4724Y-254D01*
X4724Y-254D01*
X4724Y-254D01*
X4724Y-254D01*
X4725Y-254D01*
X4725Y-253D01*
X4725Y-253D01*
X4725Y-252D01*
X4726Y-252D01*
X4726Y-251D01*
X4726Y-251D01*
X4726Y-250D01*
X4726Y-250D01*
X4727Y-249D01*
X4733Y-251D01*
Y-251D01*
X4733Y-251D01*
X4733Y-252D01*
X4733Y-252D01*
X4732Y-252D01*
X4732Y-253D01*
X4732Y-254D01*
X4732Y-254D01*
X4731Y-255D01*
X4731Y-256D01*
X4730Y-257D01*
X4730Y-257D01*
X4729Y-258D01*
X4729Y-259D01*
X4728Y-259D01*
X4728Y-259D01*
X4728Y-259D01*
X4728Y-259D01*
X4727Y-259D01*
X4727Y-260D01*
X4727Y-260D01*
X4726Y-260D01*
X4726Y-260D01*
X4725Y-261D01*
X4725Y-261D01*
X4724Y-261D01*
X4723Y-261D01*
X4722Y-261D01*
X4721Y-261D01*
X4721Y-261D01*
X4720Y-262D01*
X4719D01*
X4719Y-261D01*
X4719Y-261D01*
X4718Y-261D01*
X4717Y-261D01*
X4717Y-261D01*
X4716Y-261D01*
X4715Y-261D01*
X4714Y-261D01*
X4713Y-260D01*
X4712Y-260D01*
X4712Y-259D01*
X4711Y-259D01*
X4710Y-258D01*
X4709Y-257D01*
X4709Y-257D01*
X4709Y-257D01*
X4709Y-257D01*
X4708Y-256D01*
X4708Y-256D01*
X4708Y-255D01*
X4707Y-255D01*
X4707Y-254D01*
X4707Y-253D01*
X4706Y-252D01*
X4706Y-251D01*
X4706Y-250D01*
X4705Y-249D01*
X4705Y-248D01*
X4705Y-247D01*
X4705Y-245D01*
Y-245D01*
Y-245D01*
Y-245D01*
Y-245D01*
X4705Y-245D01*
X4705Y-244D01*
X4705Y-243D01*
X4705Y-243D01*
X4705Y-242D01*
X4705Y-241D01*
X4706Y-240D01*
X4706Y-239D01*
X4706Y-238D01*
X4707Y-237D01*
X4707Y-236D01*
X4708Y-235D01*
X4708Y-234D01*
X4709Y-233D01*
X4709Y-233D01*
X4709Y-233D01*
X4710Y-232D01*
X4710Y-232D01*
X4710Y-232D01*
X4711Y-231D01*
X4711Y-231D01*
X4712Y-231D01*
X4713Y-230D01*
X4714Y-230D01*
X4714Y-229D01*
X4715Y-229D01*
X4716Y-229D01*
X4718Y-229D01*
X4719Y-228D01*
X4720Y-228D01*
X4720D01*
X4721Y-228D01*
D02*
G37*
G36*
X5217Y-241D02*
Y-241D01*
Y-241D01*
Y-241D01*
Y-242D01*
Y-242D01*
X5217Y-243D01*
Y-243D01*
X5217Y-244D01*
X5217Y-245D01*
X5217Y-247D01*
X5217Y-247D01*
X5217Y-248D01*
X5216Y-249D01*
X5216Y-249D01*
Y-249D01*
X5216Y-249D01*
Y-249D01*
X5216Y-249D01*
X5216Y-250D01*
X5216Y-250D01*
X5216Y-251D01*
X5215Y-252D01*
X5215Y-252D01*
X5214Y-253D01*
X5214Y-253D01*
X5214Y-253D01*
X5214Y-254D01*
X5213Y-254D01*
X5213Y-254D01*
X5212Y-255D01*
X5211Y-255D01*
X5211Y-256D01*
X5211D01*
X5211Y-256D01*
X5210Y-256D01*
X5210Y-256D01*
X5210Y-256D01*
X5210Y-256D01*
X5209Y-256D01*
X5209Y-256D01*
X5209Y-256D01*
X5208Y-256D01*
X5207Y-256D01*
X5206Y-257D01*
X5205Y-257D01*
X5204D01*
X5203Y-257D01*
X5203D01*
X5202Y-256D01*
X5202Y-256D01*
X5201Y-256D01*
X5200Y-256D01*
X5199Y-256D01*
X5198Y-256D01*
X5198Y-256D01*
X5197D01*
X5197Y-256D01*
X5197Y-255D01*
X5197Y-255D01*
X5197Y-255D01*
X5196Y-255D01*
X5196Y-254D01*
X5195Y-254D01*
X5194Y-253D01*
X5194Y-253D01*
X5194Y-253D01*
X5194Y-253D01*
X5193Y-252D01*
X5193Y-252D01*
X5193Y-251D01*
X5192Y-251D01*
X5192Y-250D01*
X5192Y-249D01*
Y-249D01*
X5192Y-249D01*
Y-249D01*
X5192Y-249D01*
X5192Y-248D01*
X5192Y-248D01*
X5192Y-248D01*
X5192Y-247D01*
X5192Y-247D01*
X5192Y-246D01*
X5192Y-245D01*
X5191Y-245D01*
X5191Y-244D01*
Y-243D01*
X5191Y-242D01*
Y-241D01*
Y-224D01*
X5198D01*
Y-241D01*
Y-241D01*
Y-242D01*
Y-242D01*
Y-242D01*
Y-242D01*
Y-243D01*
X5198Y-244D01*
Y-244D01*
X5198Y-245D01*
X5198Y-246D01*
Y-246D01*
X5198Y-246D01*
X5198Y-247D01*
Y-247D01*
X5198Y-247D01*
X5198Y-247D01*
X5198Y-247D01*
X5198Y-248D01*
X5199Y-248D01*
X5199Y-249D01*
X5199Y-249D01*
X5200Y-250D01*
X5200Y-250D01*
X5200Y-250D01*
X5201Y-250D01*
X5201Y-250D01*
X5202Y-251D01*
X5203Y-251D01*
X5203Y-251D01*
X5204Y-251D01*
X5205D01*
X5205Y-251D01*
X5206Y-251D01*
X5207Y-251D01*
X5207Y-251D01*
X5208Y-250D01*
X5208Y-250D01*
X5209Y-250D01*
X5209Y-250D01*
X5209Y-249D01*
X5209Y-249D01*
X5210Y-249D01*
X5210Y-248D01*
X5210Y-248D01*
X5210Y-247D01*
Y-247D01*
X5210Y-247D01*
X5210Y-247D01*
Y-246D01*
X5210Y-246D01*
X5210Y-246D01*
Y-246D01*
X5210Y-245D01*
Y-245D01*
X5210Y-244D01*
Y-244D01*
X5210Y-243D01*
Y-242D01*
Y-242D01*
Y-224D01*
X5217D01*
Y-241D01*
D02*
G37*
G36*
X5311D02*
Y-241D01*
Y-241D01*
Y-241D01*
Y-242D01*
Y-242D01*
X5311Y-243D01*
Y-243D01*
X5311Y-244D01*
X5311Y-245D01*
X5311Y-247D01*
X5311Y-247D01*
X5311Y-248D01*
X5311Y-249D01*
X5311Y-249D01*
Y-249D01*
X5311Y-249D01*
Y-249D01*
X5311Y-249D01*
X5310Y-250D01*
X5310Y-250D01*
X5310Y-251D01*
X5310Y-252D01*
X5309Y-252D01*
X5309Y-253D01*
X5309Y-253D01*
X5308Y-253D01*
X5308Y-254D01*
X5308Y-254D01*
X5307Y-254D01*
X5307Y-255D01*
X5306Y-255D01*
X5305Y-256D01*
X5305D01*
X5305Y-256D01*
X5305Y-256D01*
X5305Y-256D01*
X5304Y-256D01*
X5304Y-256D01*
X5304Y-256D01*
X5303Y-256D01*
X5303Y-256D01*
X5302Y-256D01*
X5301Y-256D01*
X5300Y-257D01*
X5299Y-257D01*
X5298D01*
X5298Y-257D01*
X5297D01*
X5297Y-256D01*
X5296Y-256D01*
X5295Y-256D01*
X5294Y-256D01*
X5293Y-256D01*
X5292Y-256D01*
X5292Y-256D01*
X5292D01*
X5292Y-256D01*
X5292Y-255D01*
X5291Y-255D01*
X5291Y-255D01*
X5290Y-255D01*
X5290Y-254D01*
X5289Y-254D01*
X5289Y-253D01*
X5288Y-253D01*
X5288Y-253D01*
X5288Y-253D01*
X5288Y-252D01*
X5287Y-252D01*
X5287Y-251D01*
X5287Y-251D01*
X5287Y-250D01*
X5286Y-249D01*
Y-249D01*
X5286Y-249D01*
Y-249D01*
X5286Y-249D01*
X5286Y-248D01*
X5286Y-248D01*
X5286Y-248D01*
X5286Y-247D01*
X5286Y-247D01*
X5286Y-246D01*
X5286Y-245D01*
X5286Y-245D01*
X5286Y-244D01*
Y-243D01*
X5286Y-242D01*
Y-241D01*
Y-224D01*
X5292D01*
Y-241D01*
Y-241D01*
Y-242D01*
Y-242D01*
Y-242D01*
Y-242D01*
Y-243D01*
X5292Y-244D01*
Y-244D01*
X5292Y-245D01*
X5292Y-246D01*
Y-246D01*
X5292Y-246D01*
X5292Y-247D01*
Y-247D01*
X5292Y-247D01*
X5292Y-247D01*
X5293Y-247D01*
X5293Y-248D01*
X5293Y-248D01*
X5293Y-249D01*
X5294Y-249D01*
X5294Y-250D01*
X5294Y-250D01*
X5295Y-250D01*
X5295Y-250D01*
X5295Y-250D01*
X5296Y-251D01*
X5297Y-251D01*
X5298Y-251D01*
X5299Y-251D01*
X5299D01*
X5300Y-251D01*
X5300Y-251D01*
X5301Y-251D01*
X5302Y-251D01*
X5302Y-250D01*
X5303Y-250D01*
X5303Y-250D01*
X5303Y-250D01*
X5303Y-249D01*
X5304Y-249D01*
X5304Y-249D01*
X5304Y-248D01*
X5304Y-248D01*
X5304Y-247D01*
Y-247D01*
X5305Y-247D01*
X5305Y-247D01*
Y-246D01*
X5305Y-246D01*
X5305Y-246D01*
Y-246D01*
X5305Y-245D01*
Y-245D01*
X5305Y-244D01*
Y-244D01*
X5305Y-243D01*
Y-242D01*
Y-242D01*
Y-224D01*
X5311D01*
Y-241D01*
D02*
G37*
G36*
X5174Y-223D02*
X5174D01*
X5174Y-224D01*
X5175Y-224D01*
X5176Y-224D01*
X5176Y-224D01*
X5177Y-224D01*
X5178Y-224D01*
X5179Y-225D01*
X5179Y-225D01*
X5180Y-225D01*
X5181Y-226D01*
X5182Y-226D01*
X5183Y-227D01*
X5183Y-227D01*
X5183Y-227D01*
X5183Y-227D01*
X5183Y-227D01*
X5183Y-228D01*
X5183Y-228D01*
X5183Y-228D01*
X5184Y-228D01*
X5184Y-229D01*
X5184Y-229D01*
X5185Y-230D01*
X5185Y-230D01*
X5185Y-231D01*
X5185Y-231D01*
X5186Y-232D01*
X5186Y-233D01*
X5179Y-234D01*
Y-234D01*
X5179Y-234D01*
X5179Y-234D01*
X5179Y-234D01*
X5179Y-233D01*
X5179Y-233D01*
X5179Y-232D01*
X5178Y-232D01*
X5178Y-231D01*
X5177Y-230D01*
X5177Y-230D01*
X5177Y-230D01*
X5176Y-230D01*
X5176Y-230D01*
X5175Y-229D01*
X5174Y-229D01*
X5174Y-229D01*
X5173Y-229D01*
X5172D01*
X5172Y-229D01*
X5172Y-229D01*
X5171Y-229D01*
X5171Y-229D01*
X5170Y-230D01*
X5169Y-230D01*
X5169Y-230D01*
X5168Y-230D01*
X5168Y-231D01*
X5167Y-231D01*
X5167Y-232D01*
X5167Y-232D01*
X5167Y-232D01*
X5167Y-232D01*
X5167Y-232D01*
X5166Y-232D01*
X5166Y-233D01*
X5166Y-233D01*
X5166Y-234D01*
X5166Y-234D01*
X5165Y-235D01*
X5165Y-235D01*
X5165Y-236D01*
X5165Y-237D01*
X5165Y-238D01*
X5165Y-239D01*
X5165Y-240D01*
Y-240D01*
Y-240D01*
Y-240D01*
X5165Y-241D01*
X5165Y-241D01*
X5165Y-242D01*
X5165Y-243D01*
X5165Y-243D01*
X5165Y-245D01*
X5166Y-246D01*
X5166Y-247D01*
X5166Y-247D01*
X5166Y-248D01*
X5167Y-248D01*
X5167Y-249D01*
X5167Y-249D01*
X5167Y-249D01*
X5167Y-249D01*
X5167Y-249D01*
X5168Y-249D01*
X5168Y-250D01*
X5168Y-250D01*
X5169Y-250D01*
X5170Y-251D01*
X5171Y-251D01*
X5171Y-251D01*
X5172Y-251D01*
X5172Y-251D01*
X5173D01*
X5173Y-251D01*
X5173Y-251D01*
X5174Y-251D01*
X5175Y-251D01*
X5175Y-250D01*
X5176Y-250D01*
X5177Y-249D01*
X5177Y-249D01*
X5177Y-249D01*
X5177Y-249D01*
X5178Y-249D01*
X5178Y-248D01*
X5178Y-248D01*
X5178Y-247D01*
X5179Y-247D01*
X5179Y-246D01*
X5179Y-246D01*
X5179Y-245D01*
X5179Y-245D01*
X5180Y-244D01*
X5186Y-246D01*
Y-246D01*
X5186Y-246D01*
X5186Y-247D01*
X5186Y-247D01*
X5185Y-247D01*
X5185Y-248D01*
X5185Y-249D01*
X5185Y-249D01*
X5184Y-250D01*
X5184Y-251D01*
X5183Y-252D01*
X5183Y-252D01*
X5182Y-253D01*
X5182Y-254D01*
X5181Y-254D01*
X5181Y-254D01*
X5181Y-254D01*
X5181Y-254D01*
X5180Y-254D01*
X5180Y-255D01*
X5180Y-255D01*
X5179Y-255D01*
X5179Y-255D01*
X5178Y-256D01*
X5178Y-256D01*
X5177Y-256D01*
X5176Y-256D01*
X5175Y-256D01*
X5174Y-256D01*
X5174Y-256D01*
X5173Y-257D01*
X5172D01*
X5172Y-256D01*
X5172Y-256D01*
X5171Y-256D01*
X5170Y-256D01*
X5170Y-256D01*
X5169Y-256D01*
X5168Y-256D01*
X5167Y-256D01*
X5166Y-255D01*
X5165Y-255D01*
X5165Y-254D01*
X5164Y-254D01*
X5163Y-253D01*
X5162Y-252D01*
X5162Y-252D01*
X5162Y-252D01*
X5162Y-252D01*
X5161Y-251D01*
X5161Y-251D01*
X5161Y-250D01*
X5160Y-250D01*
X5160Y-249D01*
X5160Y-248D01*
X5159Y-247D01*
X5159Y-246D01*
X5159Y-245D01*
X5158Y-244D01*
X5158Y-243D01*
X5158Y-242D01*
X5158Y-240D01*
Y-240D01*
Y-240D01*
Y-240D01*
Y-240D01*
X5158Y-240D01*
X5158Y-239D01*
X5158Y-238D01*
X5158Y-238D01*
X5158Y-237D01*
X5158Y-236D01*
X5159Y-235D01*
X5159Y-234D01*
X5159Y-233D01*
X5160Y-232D01*
X5160Y-231D01*
X5161Y-230D01*
X5161Y-229D01*
X5162Y-228D01*
X5162Y-228D01*
X5162Y-228D01*
X5163Y-227D01*
X5163Y-227D01*
X5163Y-227D01*
X5164Y-226D01*
X5164Y-226D01*
X5165Y-226D01*
X5166Y-225D01*
X5167Y-225D01*
X5167Y-224D01*
X5168Y-224D01*
X5169Y-224D01*
X5171Y-224D01*
X5172Y-223D01*
X5173Y-223D01*
X5173D01*
X5174Y-223D01*
D02*
G37*
%LPC*%
G36*
X4812Y-234D02*
X4812D01*
X4812Y-234D01*
X4811Y-234D01*
X4811Y-234D01*
X4810Y-234D01*
X4810Y-234D01*
X4809Y-235D01*
X4808Y-235D01*
X4808Y-235D01*
X4807Y-235D01*
X4807Y-236D01*
X4806Y-236D01*
X4806Y-237D01*
X4806Y-237D01*
X4806Y-237D01*
X4806Y-237D01*
X4805Y-237D01*
X4805Y-237D01*
X4805Y-238D01*
X4805Y-238D01*
X4805Y-239D01*
X4804Y-239D01*
X4804Y-240D01*
X4804Y-241D01*
X4804Y-241D01*
X4804Y-242D01*
X4803Y-243D01*
X4803Y-244D01*
X4803Y-245D01*
Y-245D01*
Y-245D01*
Y-246D01*
X4803Y-246D01*
X4803Y-246D01*
X4803Y-247D01*
X4804Y-247D01*
X4804Y-248D01*
X4804Y-249D01*
X4804Y-250D01*
X4804Y-251D01*
X4805Y-251D01*
X4805Y-252D01*
X4805Y-253D01*
X4806Y-253D01*
X4806Y-253D01*
X4806Y-253D01*
X4806Y-254D01*
X4806Y-254D01*
X4807Y-254D01*
X4807Y-254D01*
X4807Y-254D01*
X4808Y-255D01*
X4808Y-255D01*
X4809Y-255D01*
X4809Y-255D01*
X4810Y-256D01*
X4810Y-256D01*
X4811Y-256D01*
X4811Y-256D01*
X4812Y-256D01*
X4813D01*
X4813Y-256D01*
X4813Y-256D01*
X4814Y-256D01*
X4814Y-256D01*
X4814Y-256D01*
X4815Y-255D01*
X4816Y-255D01*
X4816Y-255D01*
X4817Y-255D01*
X4818Y-254D01*
X4818Y-254D01*
X4819Y-253D01*
X4819Y-253D01*
X4819Y-253D01*
X4819Y-253D01*
X4819Y-253D01*
X4819Y-252D01*
X4819Y-252D01*
X4820Y-252D01*
X4820Y-251D01*
X4820Y-251D01*
X4820Y-250D01*
X4820Y-249D01*
X4821Y-249D01*
X4821Y-248D01*
X4821Y-247D01*
X4821Y-246D01*
X4821Y-245D01*
Y-245D01*
Y-245D01*
Y-244D01*
X4821Y-244D01*
X4821Y-244D01*
X4821Y-243D01*
X4821Y-242D01*
X4821Y-242D01*
X4820Y-240D01*
X4820Y-240D01*
X4820Y-239D01*
X4820Y-238D01*
X4819Y-238D01*
X4819Y-237D01*
X4819Y-237D01*
X4819Y-237D01*
X4818Y-237D01*
X4818Y-236D01*
X4818Y-236D01*
X4818Y-236D01*
X4818Y-236D01*
X4817Y-236D01*
X4817Y-235D01*
X4816Y-235D01*
X4816Y-235D01*
X4815Y-235D01*
X4815Y-234D01*
X4814Y-234D01*
X4814Y-234D01*
X4813Y-234D01*
X4812Y-234D01*
D02*
G37*
G36*
X3018Y-242D02*
X3018D01*
X3018Y-242D01*
X3017Y-242D01*
X3017Y-242D01*
X3016Y-242D01*
X3016Y-242D01*
X3015Y-243D01*
X3014Y-243D01*
X3014Y-243D01*
X3013Y-243D01*
X3013Y-244D01*
X3012Y-244D01*
X3012Y-245D01*
X3012Y-245D01*
X3012Y-245D01*
X3012Y-245D01*
X3011Y-245D01*
X3011Y-245D01*
X3011Y-246D01*
X3011Y-246D01*
X3011Y-247D01*
X3010Y-247D01*
X3010Y-248D01*
X3010Y-249D01*
X3010Y-249D01*
X3010Y-250D01*
X3009Y-251D01*
X3009Y-252D01*
X3009Y-253D01*
Y-253D01*
Y-253D01*
Y-254D01*
X3009Y-254D01*
X3009Y-254D01*
X3009Y-255D01*
X3010Y-255D01*
X3010Y-256D01*
X3010Y-257D01*
X3010Y-258D01*
X3010Y-259D01*
X3011Y-259D01*
X3011Y-260D01*
X3011Y-261D01*
X3012Y-261D01*
X3012Y-261D01*
X3012Y-261D01*
X3012Y-262D01*
X3012Y-262D01*
X3013Y-262D01*
X3013Y-262D01*
X3013Y-262D01*
X3014Y-263D01*
X3014Y-263D01*
X3015Y-263D01*
X3015Y-263D01*
X3016Y-264D01*
X3016Y-264D01*
X3017Y-264D01*
X3017Y-264D01*
X3018Y-264D01*
X3019D01*
X3019Y-264D01*
X3019Y-264D01*
X3020Y-264D01*
X3020Y-264D01*
X3020Y-264D01*
X3021Y-263D01*
X3022Y-263D01*
X3022Y-263D01*
X3023Y-263D01*
X3024Y-262D01*
X3024Y-262D01*
X3025Y-261D01*
X3025Y-261D01*
X3025Y-261D01*
X3025Y-261D01*
X3025Y-261D01*
X3025Y-260D01*
X3025Y-260D01*
X3026Y-260D01*
X3026Y-259D01*
X3026Y-259D01*
X3026Y-258D01*
X3026Y-257D01*
X3027Y-257D01*
X3027Y-256D01*
X3027Y-255D01*
X3027Y-254D01*
X3027Y-253D01*
Y-253D01*
Y-253D01*
Y-252D01*
X3027Y-252D01*
X3027Y-252D01*
X3027Y-251D01*
X3027Y-250D01*
X3027Y-250D01*
X3026Y-248D01*
X3026Y-248D01*
X3026Y-247D01*
X3026Y-246D01*
X3025Y-246D01*
X3025Y-245D01*
X3025Y-245D01*
X3025Y-245D01*
X3024Y-245D01*
X3024Y-244D01*
X3024Y-244D01*
X3024Y-244D01*
X3024Y-244D01*
X3023Y-244D01*
X3023Y-243D01*
X3022Y-243D01*
X3022Y-243D01*
X3021Y-243D01*
X3021Y-242D01*
X3020Y-242D01*
X3020Y-242D01*
X3019Y-242D01*
X3018Y-242D01*
D02*
G37*
G36*
X4000Y2041D02*
X3957D01*
Y1829D01*
X4014D01*
X4020Y1830D01*
X4027Y1830D01*
X4033Y1830D01*
X4039Y1831D01*
X4044Y1832D01*
X4045D01*
X4047Y1833D01*
X4050Y1834D01*
X4054Y1835D01*
X4058Y1837D01*
X4062Y1839D01*
X4066Y1842D01*
X4071Y1845D01*
X4071Y1845D01*
X4072Y1847D01*
X4074Y1849D01*
X4077Y1852D01*
X4079Y1857D01*
X4082Y1862D01*
X4085Y1869D01*
X4088Y1876D01*
Y1877D01*
X4088Y1877D01*
X4089Y1878D01*
X4089Y1880D01*
X4089Y1882D01*
X4090Y1885D01*
X4091Y1888D01*
X4091Y1892D01*
X4092Y1896D01*
X4092Y1900D01*
X4094Y1910D01*
X4094Y1922D01*
X4094Y1935D01*
Y1935D01*
Y1937D01*
Y1939D01*
Y1941D01*
Y1944D01*
X4094Y1948D01*
X4094Y1956D01*
X4093Y1965D01*
X4091Y1975D01*
X4090Y1984D01*
X4088Y1992D01*
Y1992D01*
X4087Y1992D01*
X4086Y1995D01*
X4085Y1999D01*
X4083Y2003D01*
X4080Y2008D01*
X4077Y2013D01*
X4073Y2018D01*
X4069Y2023D01*
X4069Y2023D01*
X4067Y2025D01*
X4064Y2027D01*
X4061Y2029D01*
X4056Y2032D01*
X4051Y2034D01*
X4046Y2036D01*
X4039Y2038D01*
X4038D01*
X4036Y2038D01*
X4035Y2039D01*
X4033Y2039D01*
X4030D01*
X4027Y2040D01*
X4024Y2040D01*
X4020Y2040D01*
X4016D01*
X4011Y2041D01*
X4006D01*
X4000Y2041D01*
D02*
G37*
G36*
X2705Y2042D02*
X2640D01*
Y1968D01*
X2702D01*
X2710Y1968D01*
X2724D01*
X2727Y1969D01*
X2730D01*
X2732Y1969D01*
X2735Y1970D01*
X2738Y1971D01*
X2742Y1972D01*
X2747Y1975D01*
X2751Y1977D01*
X2755Y1980D01*
X2755Y1981D01*
X2757Y1982D01*
X2758Y1984D01*
X2760Y1987D01*
X2762Y1991D01*
X2763Y1995D01*
X2764Y2000D01*
X2765Y2005D01*
Y2006D01*
Y2008D01*
X2764Y2011D01*
X2764Y2014D01*
X2762Y2018D01*
X2761Y2022D01*
X2759Y2026D01*
X2756Y2030D01*
X2756Y2030D01*
X2755Y2031D01*
X2753Y2032D01*
X2750Y2035D01*
X2747Y2036D01*
X2742Y2038D01*
X2737Y2040D01*
X2732Y2041D01*
X2731D01*
X2730Y2041D01*
X2724D01*
X2721Y2042D01*
X2710D01*
X2705Y2042D01*
D02*
G37*
G36*
X3708Y2041D02*
X3634D01*
Y1960D01*
X3693D01*
X3697Y1960D01*
X3706D01*
X3716Y1961D01*
X3726Y1962D01*
X3730Y1962D01*
X3734Y1962D01*
X3737Y1963D01*
X3740Y1964D01*
X3740D01*
X3742Y1965D01*
X3744Y1965D01*
X3746Y1967D01*
X3749Y1969D01*
X3752Y1971D01*
X3756Y1974D01*
X3758Y1977D01*
X3759Y1977D01*
X3759Y1979D01*
X3760Y1981D01*
X3761Y1984D01*
X3763Y1987D01*
X3764Y1992D01*
X3764Y1996D01*
X3765Y2001D01*
Y2002D01*
Y2004D01*
X3764Y2007D01*
X3764Y2011D01*
X3763Y2015D01*
X3761Y2019D01*
X3759Y2023D01*
X3756Y2027D01*
X3756Y2028D01*
X3754Y2029D01*
X3752Y2031D01*
X3750Y2033D01*
X3746Y2035D01*
X3742Y2037D01*
X3737Y2039D01*
X3731Y2040D01*
X3731D01*
X3730Y2040D01*
X3725D01*
X3723Y2041D01*
X3713D01*
X3708Y2041D01*
D02*
G37*
G36*
X3372Y2021D02*
X3328Y1902D01*
X3416D01*
X3372Y2021D01*
D02*
G37*
G36*
X2707Y1915D02*
X2640D01*
Y1829D01*
X2711D01*
X2718Y1830D01*
X2726D01*
X2733Y1830D01*
X2736D01*
X2739Y1830D01*
X2742D01*
X2744Y1831D01*
X2745D01*
X2746Y1831D01*
X2749Y1832D01*
X2752Y1833D01*
X2756Y1835D01*
X2760Y1837D01*
X2764Y1840D01*
X2767Y1843D01*
X2768Y1844D01*
X2769Y1845D01*
X2770Y1847D01*
X2772Y1851D01*
X2774Y1855D01*
X2775Y1859D01*
X2776Y1865D01*
X2777Y1871D01*
Y1872D01*
Y1873D01*
X2776Y1876D01*
X2776Y1879D01*
X2775Y1883D01*
X2774Y1887D01*
X2772Y1891D01*
X2770Y1895D01*
X2769Y1895D01*
X2768Y1897D01*
X2767Y1899D01*
X2765Y1901D01*
X2762Y1903D01*
X2758Y1906D01*
X2754Y1908D01*
X2749Y1910D01*
X2748Y1910D01*
X2746Y1911D01*
X2745Y1911D01*
X2742Y1912D01*
X2740Y1912D01*
X2737Y1912D01*
X2733Y1913D01*
X2729Y1913D01*
X2725D01*
X2719Y1914D01*
X2713Y1914D01*
X2707Y1915D01*
D02*
G37*
G36*
X5265Y-229D02*
X5265D01*
X5265Y-229D01*
X5264Y-229D01*
X5264Y-229D01*
X5263Y-229D01*
X5263Y-229D01*
X5262Y-230D01*
X5261Y-230D01*
X5261Y-230D01*
X5260Y-230D01*
X5260Y-231D01*
X5259Y-231D01*
X5259Y-232D01*
X5259Y-232D01*
X5259Y-232D01*
X5259Y-232D01*
X5258Y-232D01*
X5258Y-232D01*
X5258Y-233D01*
X5258Y-233D01*
X5258Y-234D01*
X5257Y-234D01*
X5257Y-235D01*
X5257Y-236D01*
X5257Y-236D01*
X5257Y-237D01*
X5256Y-238D01*
X5256Y-239D01*
X5256Y-240D01*
Y-240D01*
Y-240D01*
Y-241D01*
X5256Y-241D01*
X5256Y-241D01*
X5256Y-242D01*
X5257Y-242D01*
X5257Y-243D01*
X5257Y-244D01*
X5257Y-245D01*
X5257Y-246D01*
X5258Y-246D01*
X5258Y-247D01*
X5258Y-248D01*
X5259Y-248D01*
X5259Y-248D01*
X5259Y-248D01*
X5259Y-249D01*
X5259Y-249D01*
X5260Y-249D01*
X5260Y-249D01*
X5260Y-249D01*
X5261Y-250D01*
X5261Y-250D01*
X5262Y-250D01*
X5262Y-250D01*
X5263Y-251D01*
X5263Y-251D01*
X5264Y-251D01*
X5264Y-251D01*
X5265Y-251D01*
X5266D01*
X5266Y-251D01*
X5266Y-251D01*
X5267Y-251D01*
X5267Y-251D01*
X5267Y-251D01*
X5268Y-250D01*
X5269Y-250D01*
X5269Y-250D01*
X5270Y-250D01*
X5271Y-249D01*
X5271Y-249D01*
X5272Y-248D01*
X5272Y-248D01*
X5272Y-248D01*
X5272Y-248D01*
X5272Y-248D01*
X5272Y-247D01*
X5272Y-247D01*
X5273Y-247D01*
X5273Y-246D01*
X5273Y-246D01*
X5273Y-245D01*
X5273Y-244D01*
X5274Y-244D01*
X5274Y-243D01*
X5274Y-242D01*
X5274Y-241D01*
X5274Y-240D01*
Y-240D01*
Y-240D01*
Y-239D01*
X5274Y-239D01*
X5274Y-239D01*
X5274Y-238D01*
X5274Y-237D01*
X5274Y-237D01*
X5273Y-235D01*
X5273Y-235D01*
X5273Y-234D01*
X5273Y-233D01*
X5272Y-233D01*
X5272Y-232D01*
X5272Y-232D01*
X5272Y-232D01*
X5271Y-232D01*
X5271Y-231D01*
X5271Y-231D01*
X5271Y-231D01*
X5271Y-231D01*
X5270Y-231D01*
X5270Y-230D01*
X5269Y-230D01*
X5269Y-230D01*
X5268Y-230D01*
X5268Y-229D01*
X5267Y-229D01*
X5267Y-229D01*
X5266Y-229D01*
X5265Y-229D01*
D02*
G37*
G36*
X3473Y-234D02*
X3473D01*
X3473Y-234D01*
X3472Y-234D01*
X3472Y-234D01*
X3471Y-234D01*
X3471Y-234D01*
X3470Y-235D01*
X3469Y-235D01*
X3469Y-235D01*
X3468Y-235D01*
X3468Y-236D01*
X3467Y-236D01*
X3467Y-237D01*
X3467Y-237D01*
X3467Y-237D01*
X3467Y-237D01*
X3466Y-237D01*
X3466Y-237D01*
X3466Y-238D01*
X3466Y-238D01*
X3466Y-239D01*
X3465Y-239D01*
X3465Y-240D01*
X3465Y-241D01*
X3465Y-241D01*
X3465Y-242D01*
X3464Y-243D01*
X3464Y-244D01*
X3464Y-245D01*
Y-245D01*
Y-245D01*
Y-246D01*
X3464Y-246D01*
X3464Y-246D01*
X3464Y-247D01*
X3465Y-247D01*
X3465Y-248D01*
X3465Y-249D01*
X3465Y-250D01*
X3465Y-251D01*
X3466Y-251D01*
X3466Y-252D01*
X3466Y-253D01*
X3467Y-253D01*
X3467Y-253D01*
X3467Y-253D01*
X3467Y-254D01*
X3467Y-254D01*
X3468Y-254D01*
X3468Y-254D01*
X3468Y-254D01*
X3469Y-255D01*
X3469Y-255D01*
X3470Y-255D01*
X3470Y-255D01*
X3471Y-256D01*
X3471Y-256D01*
X3472Y-256D01*
X3472Y-256D01*
X3473Y-256D01*
X3474D01*
X3474Y-256D01*
X3474Y-256D01*
X3475Y-256D01*
X3475Y-256D01*
X3475Y-256D01*
X3476Y-255D01*
X3477Y-255D01*
X3477Y-255D01*
X3478Y-255D01*
X3479Y-254D01*
X3479Y-254D01*
X3480Y-253D01*
X3480Y-253D01*
X3480Y-253D01*
X3480Y-253D01*
X3480Y-253D01*
X3480Y-252D01*
X3480Y-252D01*
X3481Y-252D01*
X3481Y-251D01*
X3481Y-251D01*
X3481Y-250D01*
X3481Y-249D01*
X3482Y-249D01*
X3482Y-248D01*
X3482Y-247D01*
X3482Y-246D01*
X3482Y-245D01*
Y-245D01*
Y-245D01*
Y-244D01*
X3482Y-244D01*
X3482Y-244D01*
X3482Y-243D01*
X3482Y-242D01*
X3482Y-242D01*
X3481Y-240D01*
X3481Y-240D01*
X3481Y-239D01*
X3481Y-238D01*
X3480Y-238D01*
X3480Y-237D01*
X3480Y-237D01*
X3480Y-237D01*
X3479Y-237D01*
X3479Y-236D01*
X3479Y-236D01*
X3479Y-236D01*
X3479Y-236D01*
X3478Y-236D01*
X3478Y-235D01*
X3477Y-235D01*
X3477Y-235D01*
X3476Y-235D01*
X3476Y-234D01*
X3475Y-234D01*
X3475Y-234D01*
X3474Y-234D01*
X3473Y-234D01*
D02*
G37*
G36*
X3918Y-237D02*
X3918D01*
X3918Y-237D01*
X3917Y-237D01*
X3917Y-237D01*
X3916Y-237D01*
X3916Y-237D01*
X3915Y-238D01*
X3914Y-238D01*
X3914Y-238D01*
X3913Y-238D01*
X3913Y-239D01*
X3912Y-239D01*
X3912Y-240D01*
X3912Y-240D01*
X3912Y-240D01*
X3912Y-240D01*
X3911Y-240D01*
X3911Y-240D01*
X3911Y-241D01*
X3911Y-241D01*
X3911Y-242D01*
X3910Y-242D01*
X3910Y-243D01*
X3910Y-244D01*
X3910Y-244D01*
X3910Y-245D01*
X3909Y-246D01*
X3909Y-247D01*
X3909Y-248D01*
Y-248D01*
Y-248D01*
Y-249D01*
X3909Y-249D01*
X3909Y-249D01*
X3909Y-250D01*
X3910Y-250D01*
X3910Y-251D01*
X3910Y-252D01*
X3910Y-253D01*
X3910Y-254D01*
X3911Y-254D01*
X3911Y-255D01*
X3911Y-256D01*
X3912Y-256D01*
X3912Y-256D01*
X3912Y-256D01*
X3912Y-257D01*
X3912Y-257D01*
X3913Y-257D01*
X3913Y-257D01*
X3913Y-257D01*
X3914Y-258D01*
X3914Y-258D01*
X3915Y-258D01*
X3915Y-258D01*
X3916Y-259D01*
X3916Y-259D01*
X3917Y-259D01*
X3917Y-259D01*
X3918Y-259D01*
X3919D01*
X3919Y-259D01*
X3919Y-259D01*
X3920Y-259D01*
X3920Y-259D01*
X3920Y-259D01*
X3921Y-258D01*
X3922Y-258D01*
X3922Y-258D01*
X3923Y-258D01*
X3924Y-257D01*
X3924Y-257D01*
X3925Y-256D01*
X3925Y-256D01*
X3925Y-256D01*
X3925Y-256D01*
X3925Y-256D01*
X3925Y-255D01*
X3925Y-255D01*
X3926Y-255D01*
X3926Y-254D01*
X3926Y-254D01*
X3926Y-253D01*
X3926Y-252D01*
X3927Y-252D01*
X3927Y-251D01*
X3927Y-250D01*
X3927Y-249D01*
X3927Y-248D01*
Y-248D01*
Y-248D01*
Y-247D01*
X3927Y-247D01*
X3927Y-247D01*
X3927Y-246D01*
X3927Y-245D01*
X3927Y-245D01*
X3926Y-243D01*
X3926Y-243D01*
X3926Y-242D01*
X3926Y-241D01*
X3925Y-241D01*
X3925Y-240D01*
X3925Y-240D01*
X3925Y-240D01*
X3924Y-240D01*
X3924Y-239D01*
X3924Y-239D01*
X3924Y-239D01*
X3924Y-239D01*
X3923Y-239D01*
X3923Y-238D01*
X3922Y-238D01*
X3922Y-238D01*
X3921Y-238D01*
X3921Y-237D01*
X3920Y-237D01*
X3920Y-237D01*
X3919Y-237D01*
X3918Y-237D01*
D02*
G37*
G36*
X4376D02*
X4376D01*
X4376Y-237D01*
X4375Y-237D01*
X4375Y-237D01*
X4374Y-237D01*
X4374Y-237D01*
X4373Y-238D01*
X4372Y-238D01*
X4372Y-238D01*
X4371Y-238D01*
X4371Y-239D01*
X4370Y-239D01*
X4370Y-240D01*
X4370Y-240D01*
X4370Y-240D01*
X4370Y-240D01*
X4369Y-240D01*
X4369Y-240D01*
X4369Y-241D01*
X4369Y-241D01*
X4369Y-242D01*
X4368Y-242D01*
X4368Y-243D01*
X4368Y-244D01*
X4368Y-244D01*
X4368Y-245D01*
X4367Y-246D01*
X4367Y-247D01*
X4367Y-248D01*
Y-248D01*
Y-248D01*
Y-249D01*
X4367Y-249D01*
X4367Y-249D01*
X4367Y-250D01*
X4368Y-250D01*
X4368Y-251D01*
X4368Y-252D01*
X4368Y-253D01*
X4368Y-254D01*
X4369Y-254D01*
X4369Y-255D01*
X4369Y-256D01*
X4370Y-256D01*
X4370Y-256D01*
X4370Y-256D01*
X4370Y-257D01*
X4370Y-257D01*
X4371Y-257D01*
X4371Y-257D01*
X4371Y-257D01*
X4372Y-258D01*
X4372Y-258D01*
X4373Y-258D01*
X4373Y-258D01*
X4374Y-259D01*
X4374Y-259D01*
X4375Y-259D01*
X4375Y-259D01*
X4376Y-259D01*
X4377D01*
X4377Y-259D01*
X4377Y-259D01*
X4378Y-259D01*
X4378Y-259D01*
X4378Y-259D01*
X4379Y-258D01*
X4380Y-258D01*
X4380Y-258D01*
X4381Y-258D01*
X4382Y-257D01*
X4382Y-257D01*
X4383Y-256D01*
X4383Y-256D01*
X4383Y-256D01*
X4383Y-256D01*
X4383Y-256D01*
X4383Y-255D01*
X4383Y-255D01*
X4384Y-255D01*
X4384Y-254D01*
X4384Y-254D01*
X4384Y-253D01*
X4384Y-252D01*
X4385Y-252D01*
X4385Y-251D01*
X4385Y-250D01*
X4385Y-249D01*
X4385Y-248D01*
Y-248D01*
Y-248D01*
Y-247D01*
X4385Y-247D01*
X4385Y-247D01*
X4385Y-246D01*
X4385Y-245D01*
X4385Y-245D01*
X4384Y-243D01*
X4384Y-243D01*
X4384Y-242D01*
X4384Y-241D01*
X4383Y-241D01*
X4383Y-240D01*
X4383Y-240D01*
X4383Y-240D01*
X4382Y-240D01*
X4382Y-239D01*
X4382Y-239D01*
X4382Y-239D01*
X4382Y-239D01*
X4381Y-239D01*
X4381Y-238D01*
X4380Y-238D01*
X4380Y-238D01*
X4379Y-238D01*
X4379Y-237D01*
X4378Y-237D01*
X4378Y-237D01*
X4377Y-237D01*
X4376Y-237D01*
D02*
G37*
G36*
X4482Y2046D02*
X4478D01*
X4476Y2045D01*
X4472Y2045D01*
X4468Y2045D01*
X4464Y2044D01*
X4459Y2042D01*
X4449Y2039D01*
X4443Y2037D01*
X4438Y2034D01*
X4433Y2031D01*
X4428Y2027D01*
X4422Y2023D01*
X4418Y2018D01*
X4417Y2018D01*
X4417Y2017D01*
X4416Y2015D01*
X4414Y2013D01*
X4412Y2010D01*
X4410Y2007D01*
X4408Y2002D01*
X4406Y1997D01*
X4403Y1992D01*
X4401Y1986D01*
X4399Y1979D01*
X4397Y1972D01*
X4396Y1964D01*
X4395Y1955D01*
X4394Y1945D01*
X4393Y1935D01*
Y1935D01*
Y1933D01*
Y1930D01*
X4394Y1927D01*
X4394Y1922D01*
X4395Y1917D01*
X4396Y1911D01*
X4397Y1905D01*
X4400Y1891D01*
X4402Y1884D01*
X4404Y1877D01*
X4407Y1871D01*
X4410Y1864D01*
X4414Y1858D01*
X4418Y1852D01*
X4419Y1852D01*
X4420Y1851D01*
X4421Y1850D01*
X4423Y1848D01*
X4426Y1846D01*
X4428Y1844D01*
X4432Y1841D01*
X4436Y1839D01*
X4440Y1836D01*
X4445Y1833D01*
X4450Y1831D01*
X4456Y1829D01*
X4462Y1827D01*
X4468Y1826D01*
X4475Y1825D01*
X4482Y1825D01*
X4486D01*
X4488Y1825D01*
X4492Y1825D01*
X4496Y1826D01*
X4500Y1827D01*
X4505Y1828D01*
X4515Y1831D01*
X4520Y1834D01*
X4525Y1836D01*
X4531Y1840D01*
X4536Y1843D01*
X4541Y1847D01*
X4546Y1852D01*
X4546Y1853D01*
X4547Y1854D01*
X4548Y1855D01*
X4549Y1858D01*
X4551Y1861D01*
X4553Y1864D01*
X4556Y1869D01*
X4558Y1873D01*
X4561Y1879D01*
X4563Y1885D01*
X4565Y1892D01*
X4567Y1900D01*
X4568Y1908D01*
X4569Y1917D01*
X4570Y1926D01*
X4571Y1936D01*
Y1937D01*
Y1939D01*
Y1942D01*
X4570Y1945D01*
X4570Y1950D01*
X4569Y1955D01*
X4568Y1961D01*
X4568Y1967D01*
X4565Y1980D01*
X4563Y1987D01*
X4561Y1994D01*
X4558Y2001D01*
X4554Y2007D01*
X4551Y2013D01*
X4546Y2018D01*
X4546Y2019D01*
X4545Y2020D01*
X4544Y2021D01*
X4542Y2022D01*
X4540Y2025D01*
X4537Y2027D01*
X4533Y2030D01*
X4529Y2032D01*
X4525Y2035D01*
X4520Y2037D01*
X4515Y2040D01*
X4509Y2042D01*
X4503Y2043D01*
X4496Y2045D01*
X4490Y2045D01*
X4482Y2046D01*
D02*
G37*
G36*
X3040D02*
X3037D01*
X3034Y2045D01*
X3030Y2045D01*
X3027Y2045D01*
X3022Y2044D01*
X3017Y2042D01*
X3007Y2039D01*
X3002Y2037D01*
X2996Y2034D01*
X2991Y2031D01*
X2986Y2027D01*
X2980Y2023D01*
X2976Y2018D01*
X2975Y2018D01*
X2975Y2017D01*
X2974Y2015D01*
X2972Y2013D01*
X2970Y2010D01*
X2968Y2007D01*
X2966Y2002D01*
X2964Y1997D01*
X2962Y1992D01*
X2959Y1986D01*
X2957Y1979D01*
X2955Y1972D01*
X2954Y1964D01*
X2953Y1955D01*
X2952Y1945D01*
X2952Y1935D01*
Y1935D01*
Y1933D01*
Y1930D01*
X2952Y1927D01*
X2952Y1922D01*
X2953Y1917D01*
X2954Y1911D01*
X2955Y1905D01*
X2958Y1891D01*
X2960Y1884D01*
X2962Y1877D01*
X2965Y1871D01*
X2968Y1864D01*
X2972Y1858D01*
X2977Y1852D01*
X2977Y1852D01*
X2978Y1851D01*
X2979Y1850D01*
X2981Y1848D01*
X2984Y1846D01*
X2987Y1844D01*
X2990Y1841D01*
X2994Y1839D01*
X2998Y1836D01*
X3003Y1833D01*
X3008Y1831D01*
X3014Y1829D01*
X3020Y1827D01*
X3027Y1826D01*
X3033Y1825D01*
X3040Y1825D01*
X3044D01*
X3047Y1825D01*
X3050Y1825D01*
X3054Y1826D01*
X3058Y1827D01*
X3063Y1828D01*
X3073Y1831D01*
X3078Y1834D01*
X3083Y1836D01*
X3089Y1840D01*
X3094Y1843D01*
X3099Y1847D01*
X3104Y1852D01*
X3104Y1853D01*
X3105Y1854D01*
X3106Y1855D01*
X3107Y1858D01*
X3109Y1861D01*
X3112Y1864D01*
X3114Y1869D01*
X3116Y1873D01*
X3119Y1879D01*
X3121Y1885D01*
X3123Y1892D01*
X3125Y1900D01*
X3126Y1908D01*
X3127Y1917D01*
X3128Y1926D01*
X3129Y1936D01*
Y1937D01*
Y1939D01*
Y1942D01*
X3128Y1945D01*
X3128Y1950D01*
X3127Y1955D01*
X3127Y1961D01*
X3126Y1967D01*
X3123Y1980D01*
X3121Y1987D01*
X3119Y1994D01*
X3116Y2001D01*
X3112Y2007D01*
X3109Y2013D01*
X3104Y2018D01*
X3104Y2019D01*
X3103Y2020D01*
X3102Y2021D01*
X3100Y2022D01*
X3098Y2025D01*
X3095Y2027D01*
X3091Y2030D01*
X3087Y2032D01*
X3083Y2035D01*
X3078Y2037D01*
X3073Y2040D01*
X3067Y2042D01*
X3061Y2043D01*
X3055Y2045D01*
X3048Y2045D01*
X3040Y2046D01*
D02*
G37*
%LPD*%
D61*
X2610Y637D02*
G03*
X2579Y668I-31J0D01*
G01*
X-557Y-8816D02*
X-527Y-8821D01*
X-578Y-8805D02*
X-557Y-8816D01*
X-600Y-8791D02*
X-578Y-8805D01*
X-627Y-8761D02*
X-600Y-8791D01*
X-652Y-8721D02*
X-627Y-8761D01*
X-678Y-8678D02*
X-652Y-8721D01*
X-720Y-8590D02*
X-678Y-8678D01*
X-770Y-8475D02*
X-720Y-8590D01*
X-800Y-8392D02*
X-770Y-8475D01*
X-826Y-8312D02*
X-800Y-8392D01*
X-845Y-8251D02*
X-826Y-8312D01*
X-865Y-8181D02*
X-845Y-8251D01*
X-886Y-8100D02*
X-865Y-8181D01*
X-901Y-8018D02*
X-886Y-8100D01*
X-910Y-7973D02*
X-901Y-8018D01*
X-927Y-7881D02*
X-910Y-7973D01*
X-939Y-7766D02*
X-927Y-7881D01*
X-944Y-7699D02*
X-939Y-7766D01*
X-948Y-7642D02*
X-944Y-7699D01*
X-950Y-7443D02*
X-948Y-7642D01*
X-950Y-7443D02*
X-944Y-7349D01*
X-933Y-7208D01*
X-913Y-7066D01*
X-888Y-6937D01*
X-853Y-6783D01*
X-805Y-6623D01*
X-720Y-6358D01*
X-634Y-6119D01*
X-520Y-5829D01*
X-459Y-5685D01*
X-399Y-5523D01*
X-298Y-5284D01*
X-213Y-5066D01*
X-144Y-4885D01*
X-89Y-4725D01*
X-52Y-4597D01*
X4Y-4352D01*
X46Y-4069D01*
X61Y-3900D01*
X63Y-3752D01*
Y-3642D01*
Y-3549D01*
X47Y-3359D02*
X63Y-3549D01*
X26Y-3234D02*
X47Y-3359D01*
X-15Y-3042D02*
X26Y-3234D01*
X-60Y-2853D02*
X-15Y-3042D01*
X-112Y-2703D02*
X-60Y-2853D01*
X-181Y-2517D02*
X-112Y-2703D01*
X-244Y-2362D02*
X-181Y-2517D01*
X-280Y-2276D02*
X-244Y-2362D01*
X-364Y-2078D02*
X-280Y-2276D01*
X-450Y-1877D02*
X-364Y-2078D01*
X-534Y-1687D02*
X-450Y-1877D01*
X-687Y-1339D02*
X-534Y-1687D01*
X-780Y-1150D02*
X-687Y-1339D01*
X-930Y-838D02*
X-780Y-1150D01*
X-1040Y-597D02*
X-930Y-838D01*
X-1142Y-339D02*
X-1040Y-597D01*
X-1200Y-188D02*
X-1142Y-339D01*
X-1351Y183D02*
X-1200Y-188D01*
X-1488Y585D02*
X-1351Y183D01*
X-1573Y887D02*
X-1488Y585D01*
X-1680Y1287D02*
X-1573Y887D01*
X-1709Y1452D02*
X-1680Y1287D01*
X-1728Y1625D02*
X-1709Y1452D01*
X-1728Y1625D02*
X-1725Y1758D01*
X-1713Y1878D01*
X-1689Y1984D01*
X-1653Y2076D01*
X-1620Y2130D01*
X-1588Y2174D01*
X-1520Y2235D01*
X-1467Y2268D01*
X-1423Y2294D01*
X-1360Y2313D01*
X-1300Y2327D01*
X-1246Y2332D01*
X-1186Y2335D01*
X-1116Y2327D01*
X-1078Y2317D01*
X-1013Y2295D01*
X-918Y2247D01*
X-815Y2185D01*
X-730Y2126D01*
X-651Y2068D01*
X-498Y1943D01*
X-377Y1846D01*
X-96Y1608D01*
X47Y1482D01*
X123Y1420D01*
X229Y1335D01*
X337Y1251D01*
X438Y1175D01*
X434Y1178D02*
X571Y1086D01*
X705Y1002D01*
X847Y925D01*
X851Y922D02*
X978Y865D01*
X1115Y813D01*
X1191Y788D01*
X1289Y760D01*
X1407Y731D01*
X1522Y707D01*
X1721Y680D01*
X1867Y667D01*
X1985Y666D01*
X2175Y667D01*
X2527Y668D01*
X2575D01*
X2579D01*
X2610Y254D02*
Y637D01*
Y254D02*
X2612Y226D01*
X2618Y211D01*
X2632Y187D01*
X2645Y168D01*
X2657Y156D01*
X2674Y140D01*
X2695Y126D01*
X2714Y117D01*
X2740Y108D01*
X2772Y102D01*
X2805Y100D01*
X2836Y98D01*
X2858D01*
X4226D01*
X5309D01*
X5410D01*
X5456Y99D01*
X5470Y102D01*
X5489Y110D01*
X5508Y124D01*
X5522Y136D01*
X5539Y156D01*
X5553Y180D01*
X5563Y201D01*
X5569Y228D01*
X5572Y281D01*
X5573Y319D01*
X5576Y416D01*
X5577Y675D01*
X5633D01*
X5724Y672D01*
X5775Y667D01*
X5824Y661D01*
X5885Y650D01*
X5953Y633D01*
X6003Y618D01*
X6058Y599D01*
X6111Y578D01*
X6179Y547D01*
X6229Y520D01*
X6299Y480D01*
X6353Y442D01*
X6418Y392D01*
X6475Y336D01*
X6523Y292D01*
X6592Y217D01*
X6678Y102D01*
X6719Y38D01*
X6739Y3D01*
X6785Y-89D01*
X6832Y-197D01*
X6860Y-272D01*
X6890Y-366D01*
X6922Y-457D01*
X6933Y-499D01*
X6942Y-559D01*
X6947Y-620D01*
X6952Y-689D01*
X6964Y-893D01*
X6982Y-1114D01*
X6988Y-1236D01*
X6991Y-1404D01*
X6990Y-1514D02*
X6991Y-1404D01*
X6983Y-1617D02*
X6990Y-1514D01*
X6959Y-1753D02*
X6983Y-1617D01*
X6913Y-1958D02*
X6959Y-1753D01*
X6879Y-2072D02*
X6913Y-1958D01*
X6835Y-2227D02*
X6879Y-2072D01*
X6795Y-2329D02*
X6835Y-2227D01*
X6745Y-2470D02*
X6795Y-2329D01*
X6699Y-2585D02*
X6745Y-2470D01*
X6650Y-2723D02*
X6699Y-2585D01*
X6602Y-2838D02*
X6650Y-2723D01*
X6530Y-3015D02*
X6602Y-2838D01*
X6485Y-3127D02*
X6530Y-3015D01*
X6395Y-3347D02*
X6485Y-3127D01*
X6326Y-3527D02*
X6395Y-3347D01*
X6254Y-3721D02*
X6326Y-3527D01*
X6186Y-3899D02*
X6254Y-3721D01*
X6139Y-4033D02*
X6186Y-3899D01*
X6105Y-4153D02*
X6139Y-4033D01*
X6084Y-4240D02*
X6105Y-4153D01*
X6046Y-4390D02*
X6084Y-4240D01*
X6021Y-4487D02*
X6046Y-4390D01*
X5991Y-4631D02*
X6021Y-4487D01*
X5949Y-4893D02*
X5991Y-4631D01*
X5938Y-4978D02*
X5949Y-4893D01*
X5911Y-5232D02*
X5938Y-4978D01*
X5901Y-5374D02*
X5911Y-5232D01*
X5891Y-5520D02*
X5901Y-5374D01*
X5887Y-5734D02*
X5891Y-5520D01*
X5887Y-5734D02*
X5890Y-5849D01*
Y-6017D02*
Y-5849D01*
Y-6017D02*
X5901Y-6161D01*
X5922Y-6381D01*
X5952Y-6618D01*
X5994Y-6847D01*
X6059Y-7138D01*
X6115Y-7361D01*
X6149Y-7501D01*
X6158Y-7549D01*
X6168Y-7603D01*
X6174Y-7644D01*
X6177Y-7688D01*
X6173Y-7739D02*
X6177Y-7688D01*
X6159Y-7791D02*
X6173Y-7739D01*
X6144Y-7822D02*
X6159Y-7791D01*
X6116Y-7867D02*
X6144Y-7822D01*
X6066Y-7922D02*
X6116Y-7867D01*
X6020Y-7957D02*
X6066Y-7922D01*
X5973Y-7987D02*
X6020Y-7957D01*
X5927Y-8001D02*
X5973Y-7987D01*
X5882Y-8013D02*
X5927Y-8001D01*
X5822Y-8020D02*
X5882Y-8013D01*
X5762Y-8019D02*
X5822Y-8020D01*
X5710Y-8010D02*
X5762Y-8019D01*
X5636Y-7985D02*
X5710Y-8010D01*
X5306Y-7851D02*
X5636Y-7985D01*
X5129Y-7778D02*
X5306Y-7851D01*
X5125Y-7707D02*
X5129Y-7778D01*
X5125Y-7707D02*
Y-7580D01*
X5129Y-6805D01*
X5120Y-6764D02*
X5129Y-6805D01*
X5108Y-6729D02*
X5120Y-6764D01*
X5088Y-6693D02*
X5108Y-6729D01*
X5059Y-6656D02*
X5088Y-6693D01*
X5011Y-6619D02*
X5059Y-6656D01*
X4965Y-6597D02*
X5011Y-6619D01*
X4919Y-6586D02*
X4965Y-6597D01*
X4878Y-6581D02*
X4919Y-6586D01*
X4817Y-6572D02*
X4878Y-6581D01*
X4767Y-6566D02*
X4817Y-6572D01*
X4668Y-6554D02*
X4767Y-6566D01*
X4566Y-6544D02*
X4668Y-6554D01*
X4481Y-6535D02*
X4566Y-6544D01*
X4380Y-6527D02*
X4481Y-6535D01*
X4267Y-6521D02*
X4380Y-6527D01*
X4087Y-6516D02*
X4267Y-6521D01*
X3981Y-6517D02*
X4087Y-6516D01*
X3776Y-6523D02*
X3981Y-6517D01*
X3580Y-6538D02*
X3776Y-6523D01*
X3477Y-6547D02*
X3580Y-6538D01*
X3387Y-6557D02*
X3477Y-6547D01*
X3257Y-6576D02*
X3387Y-6557D01*
X3181Y-6587D02*
X3257Y-6576D01*
X3082Y-6603D02*
X3181Y-6587D01*
X3029Y-6622D02*
X3082Y-6603D01*
X3006Y-6636D02*
X3029Y-6622D01*
X2980Y-6657D02*
X3006Y-6636D01*
X2956Y-6682D02*
X2980Y-6657D01*
X2937Y-6712D02*
X2956Y-6682D01*
X2918Y-6743D02*
X2937Y-6712D01*
X2906Y-6771D02*
X2918Y-6743D01*
X2827Y-6730D02*
X2906Y-6771D01*
X2701Y-6674D02*
X2827Y-6730D01*
X2613Y-6636D02*
X2701Y-6674D01*
X2455Y-6568D02*
X2613Y-6636D01*
X2344Y-6525D02*
X2455Y-6568D01*
X2226Y-6484D02*
X2344Y-6525D01*
X2138Y-6456D02*
X2226Y-6484D01*
X2026Y-6429D02*
X2138Y-6456D01*
X1937Y-6413D02*
X2026Y-6429D01*
X1840Y-6402D02*
X1937Y-6413D01*
X1740Y-6390D02*
X1840Y-6402D01*
X1684Y-6385D02*
X1740Y-6390D01*
X1547Y-6384D02*
X1684Y-6385D01*
X1453Y-6388D02*
X1547Y-6384D01*
X1394Y-6397D02*
X1453Y-6388D01*
X1279Y-6412D02*
X1394Y-6397D01*
X1210Y-6427D02*
X1279Y-6412D01*
X1143Y-6444D02*
X1210Y-6427D01*
X997Y-6486D02*
X1143Y-6444D01*
X919Y-6518D02*
X997Y-6486D01*
X783Y-6594D02*
X919Y-6518D01*
X725Y-6628D02*
X783Y-6594D01*
X645Y-6675D02*
X725Y-6628D01*
X533Y-6749D02*
X645Y-6675D01*
X454Y-6809D02*
X533Y-6749D01*
X377Y-6875D02*
X454Y-6809D01*
X308Y-6938D02*
X377Y-6875D01*
X229Y-7020D02*
X308Y-6938D01*
X179Y-7081D02*
X229Y-7020D01*
X116Y-7156D02*
X179Y-7081D01*
X24Y-7292D02*
X116Y-7156D01*
X-11Y-7342D02*
X24Y-7292D01*
X-38Y-7391D02*
X-11Y-7342D01*
X-84Y-7477D02*
X-38Y-7391D01*
X-113Y-7541D02*
X-84Y-7477D01*
X-178Y-7681D02*
X-113Y-7541D01*
X-213Y-7777D02*
X-178Y-7681D01*
X-237Y-7853D02*
X-213Y-7777D01*
X-283Y-7988D02*
X-237Y-7853D01*
X-324Y-8143D02*
X-283Y-7988D01*
X-359Y-8279D02*
X-324Y-8143D01*
X-390Y-8441D02*
X-359Y-8279D01*
X-408Y-8550D02*
X-390Y-8441D01*
X-422Y-8655D02*
X-408Y-8550D01*
X-428Y-8689D02*
X-422Y-8655D01*
X-434Y-8735D02*
X-428Y-8689D01*
X-443Y-8770D02*
X-434Y-8735D01*
X-451Y-8791D02*
X-443Y-8770D01*
X-463Y-8804D02*
X-451Y-8791D01*
X-475Y-8815D02*
X-463Y-8804D01*
X-489Y-8820D02*
X-475Y-8815D01*
X-504Y-8822D02*
X-489Y-8820D01*
X-527Y-8821D02*
X-504Y-8822D01*
M02*
