  0
SECTION
  2
HEADER
  9
$MEASUREMENT
  70
  1
  9
$INSUNITS
  70
  4
  0
ENDSEC
  0
SECTION
  2
TABLES
  0
TABLE
  2
LTYPE
 70
     1
  0
LTYPE
  2
CONTINUOUS
 70
    64
  3
Ausgezogene Linie
 72
    65
 73
     0
 40
0.0
  0
ENDTAB
  0
TABLE
  2
LAYER
 70
     3
  0
LAYER
  2
Contour
 70
    64
 62
     7
  6
CONTINUOUS
  0
LAYER
  2
Engraving
 70
    64
 62
     7
  6
CONTINUOUS
  0
LAYER
  2
Reference_points
 70
    64
 62
     1
  6
CONTINUOUS
  0
ENDTAB
  0
TABLE
  2
STYLE
 70
     1
  0
STYLE
  2
TXT
 70
    64
 40
0.0
 41
1.0
 50
0.0
 71
     0
 42
3.500000
  3
TXT
  0
ENDTAB
  0
ENDSEC
  0
SECTION
  2
BLOCKS
  0
ENDSEC
  0
SECTION
  2
ENTITIES
  0
LINE
  8
Contour
 62
   7
 39
0.100
  6
CONTINUOUS
 10
50.00000
 20
23.00000
 30
 0
 11
4.00000
 21
23.00000
  0
ARC
  8
Contour
 62
   7
 39
0.100
  6
CONTINUOUS
 10
4.00000
 20
19.00000
 30
 0
 40
4.00000
 50
90.00000
 51
180.00000
  0
LINE
  8
Contour
 62
   7
 39
0.100
  6
CONTINUOUS
 10
0.00000
 20
19.00000
 30
 0
 11
0.00000
 21
4.00000
  0
ARC
  8
Contour
 62
   7
 39
0.100
  6
CONTINUOUS
 10
4.00000
 20
4.00000
 30
 0
 40
4.00000
 50
180.00000
 51
270.00000
  0
LINE
  8
Contour
 62
   7
 39
0.100
  6
CONTINUOUS
 10
4.00000
 20
0.00000
 30
 0
 11
50.00000
 21
0.00000
  0
ARC
  8
Contour
 62
   7
 39
0.100
  6
CONTINUOUS
 10
50.00000
 20
4.00000
 30
 0
 40
4.00000
 50
-90.00000
 51
0.00000
  0
LINE
  8
Contour
 62
   7
 39
0.100
  6
CONTINUOUS
 10
54.00000
 20
4.00000
 30
 0
 11
54.00000
 21
19.00000
  0
ARC
  8
Contour
 62
   7
 39
0.100
  6
CONTINUOUS
 10
50.00000
 20
19.00000
 30
 0
 40
4.00000
 50
0.00000
 51
90.00000
  0
ARC
  8
Engraving
 62
   7
 39
0.200
  6
CONTINUOUS
 10
16.32800
 20
21.54500
 30
 0
 40
0.67800
 50
16.72354
 51
69.90864
  0
ARC
  8
Engraving
 62
   7
 39
0.200
  6
CONTINUOUS
 10
16.25300
 20
21.31900
 30
 0
 40
0.91600
 50
70.35879
 51
126.88240
  0
ARC
  8
Engraving
 62
   7
 39
0.200
  6
CONTINUOUS
 10
15.97200
 20
21.69600
 30
 0
 40
0.44600
 50
127.07535
 51
251.84929
  0
LINE
  8
Engraving
 62
   7
 39
0.200
  6
CONTINUOUS
 10
15.83300
 20
21.27200
 30
 0
 11
16.74300
 21
21.06400
  0
ARC
  8
Engraving
 62
   7
 39
0.200
  6
CONTINUOUS
 10
16.62300
 20
20.53400
 30
 0
 40
0.54300
 50
307.20792
 51
77.24247
  0
ARC
  8
Engraving
 62
   7
 39
0.200
  6
CONTINUOUS
 10
16.24400
 20
21.02100
 30
 0
 40
1.15900
 50
239.25648
 51
-52.42840
  0
ARC
  8
Engraving
 62
   7
 39
0.200
  6
CONTINUOUS
 10
15.98100
 20
20.58200
 30
 0
 40
0.64800
 50
187.98011
 51
-120.59998
  0
LINE
  8
Engraving
 62
   7
 39
0.200
  6
CONTINUOUS
 10
15.33900
 20
20.49200
 30
 0
 11
15.46900
 21
20.49200
  0
ARC
  8
Engraving
 62
   7
 39
0.200
  6
CONTINUOUS
 10
16.02800
 20
20.57000
 30
 0
 40
0.56400
 50
-172.05653
 51
-118.92643
  0
ARC
  8
Engraving
 62
   7
 39
0.200
  6
CONTINUOUS
 10
16.25900
 20
20.98800
 30
 0
 40
1.04200
 50
-118.92643
 51
-55.63877
  0
ARC
  8
Engraving
 62
   7
 39
0.200
  6
CONTINUOUS
 10
16.58700
 20
20.51000
 30
 0
 40
0.46200
 50
-55.75969
 51
76.98679
  0
LINE
  8
Engraving
 62
   7
 39
0.200
  6
CONTINUOUS
 10
16.69100
 20
20.96000
 30
 0
 11
15.80700
 21
21.16800
  0
ARC
  8
Engraving
 62
   7
 39
0.200
  6
CONTINUOUS
 10
15.93800
 20
21.69400
 30
 0
 40
0.54200
 50
115.71348
 51
-103.98497
  0
ARC
  8
Engraving
 62
   7
 39
0.200
  6
CONTINUOUS
 10
16.25700
 20
21.06100
 30
 0
 40
1.25000
 50
433.46310
 51
116.29866
  0
ARC
  8
Engraving
 62
   7
 39
0.200
  6
CONTINUOUS
 10
16.40900
 20
21.57200
 30
 0
 40
0.71800
 50
373.53298
 51
73.48430
  0
LINE
  8
Engraving
 62
   7
 39
0.200
  6
CONTINUOUS
 10
17.10700
 20
21.74000
 30
 0
 11
17.23700
 21
21.66200
  0
ARC
  8
Engraving
 62
   7
 39
0.200
  6
CONTINUOUS
 10
16.58700
 20
21.66400
 30
 0
 40
0.65000
 50
-0.17629
 51
66.43117
  0
ARC
  8
Engraving
 62
   7
 39
0.200
  6
CONTINUOUS
 10
16.24900
 20
20.91700
 30
 0
 40
1.47000
 50
65.99794
 51
114.00206
  0
ARC
  8
Engraving
 62
   7
 39
0.200
  6
CONTINUOUS
 10
15.90600
 20
21.68000
 30
 0
 40
0.63400
 50
113.73294
 51
256.22668
  0
LINE
  8
Engraving
 62
   7
 39
0.200
  6
CONTINUOUS
 10
15.75500
 20
21.06400
 30
 0
 11
16.63900
 21
20.85600
  0
ARC
  8
Engraving
 62
   7
 39
0.200
  6
CONTINUOUS
 10
16.55200
 20
20.50100
 30
 0
 40
0.36600
 50
306.33795
 51
76.22989
  0
ARC
  8
Engraving
 62
   7
 39
0.200
  6
CONTINUOUS
 10
16.28800
 20
20.89300
 30
 0
 40
0.83900
 50
235.00238
 51
-55.00238
  0
ARC
  8
Engraving
 62
   7
 39
0.200
  6
CONTINUOUS
 10
16.08100
 20
20.60400
 30
 0
 40
0.48300
 50
184.03493
 51
-124.54516
  0
LINE
  8
Engraving
 62
   7
 39
0.200
  6
CONTINUOUS
 10
15.59900
 20
20.57000
 30
 0
 11
15.20900
 21
20.57000
  0
ARC
  8
Engraving
 62
   7
 39
0.200
  6
CONTINUOUS
 10
15.92700
 20
20.57100
 30
 0
 40
0.71800
 50
-179.92020
 51
-114.88667
  0
ARC
  8
Engraving
 62
   7
 39
0.200
  6
CONTINUOUS
 10
16.24900
 20
21.26600
 30
 0
 40
1.48400
 50
-114.87224
 51
-65.12776
  0
ARC
  8
Engraving
 62
   7
 39
0.200
  6
CONTINUOUS
 10
16.57100
 20
20.57100
 30
 0
 40
0.71800
 50
-65.11333
 51
-0.07980
  0
ARC
  8
Engraving
 62
   7
 39
0.200
  6
CONTINUOUS
 10
16.67500
 20
20.57200
 30
 0
 40
0.61400
 50
-0.18663
 51
76.23551
  0
LINE
  8
Engraving
 62
   7
 39
0.200
  6
CONTINUOUS
 10
16.82100
 20
21.16800
 30
 0
 11
15.88500
 21
21.40200
  0
ARC
  8
Engraving
 62
   7
 39
0.200
  6
CONTINUOUS
 10
15.96000
 20
21.70500
 30
 0
 40
0.31200
 50
187.92232
 51
-103.90269
  0
ARC
  8
Engraving
 62
   7
 39
0.200
  6
CONTINUOUS
 10
16.00200
 20
21.71400
 30
 0
 40
0.35500
 50
118.44293
 51
-171.57303
  0
ARC
  8
Engraving
 62
   7
 39
0.200
  6
CONTINUOUS
 10
16.23600
 20
21.32700
 30
 0
 40
0.80700
 50
420.03492
 51
119.96508
  0
ARC
  8
Engraving
 62
   7
 39
0.200
  6
CONTINUOUS
 10
16.44100
 20
21.64100
 30
 0
 40
0.43300
 50
362.78302
 51
62.78389
  0
LINE
  8
Engraving
 62
   7
 39
0.200
  6
CONTINUOUS
 10
16.87300
 20
21.66200
 30
 0
 11
17.23700
 21
21.66200
  0
LINE
  8
Engraving
 62
   7
 39
0.200
  6
CONTINUOUS
 10
18.06900
 20
22.26000
 30
 0
 11
18.06900
 21
19.89400
  0
LINE
  8
Engraving
 62
   7
 39
0.200
  6
CONTINUOUS
 10
18.06900
 20
19.89400
 30
 0
 11
18.19900
 21
19.89400
  0
LINE
  8
Engraving
 62
   7
 39
0.200
  6
CONTINUOUS
 10
18.19900
 20
19.89400
 30
 0
 11
18.19900
 21
22.26000
  0
LINE
  8
Engraving
 62
   7
 39
0.200
  6
CONTINUOUS
 10
18.19900
 20
22.26000
 30
 0
 11
18.32900
 21
22.33800
  0
LINE
  8
Engraving
 62
   7
 39
0.200
  6
CONTINUOUS
 10
18.32900
 20
22.33800
 30
 0
 11
17.93900
 21
22.33800
  0
LINE
  8
Engraving
 62
   7
 39
0.200
  6
CONTINUOUS
 10
17.93900
 20
22.33800
 30
 0
 11
17.93900
 21
19.84200
  0
LINE
  8
Engraving
 62
   7
 39
0.200
  6
CONTINUOUS
 10
17.93900
 20
19.84200
 30
 0
 11
18.32900
 21
19.84200
  0
LINE
  8
Engraving
 62
   7
 39
0.200
  6
CONTINUOUS
 10
18.32900
 20
19.84200
 30
 0
 11
18.32900
 21
22.33800
  0
LINE
  8
Engraving
 62
   7
 39
0.200
  6
CONTINUOUS
 10
20.92900
 20
21.74000
 30
 0
 11
20.79900
 21
21.94800
  0
ARC
  8
Engraving
 62
   7
 39
0.200
  6
CONTINUOUS
 10
20.18300
 20
21.34500
 30
 0
 40
0.86200
 50
44.38899
 51
142.49218
  0
ARC
  8
Engraving
 62
   7
 39
0.200
  6
CONTINUOUS
 10
20.68600
 20
21.09000
 30
 0
 40
1.42000
 50
146.69033
 51
213.30967
  0
ARC
  8
Engraving
 62
   7
 39
0.200
  6
CONTINUOUS
 10
20.19400
 20
20.84200
 30
 0
 40
0.87500
 50
-142.56711
 51
-21.72847
  0
LINE
  8
Engraving
 62
   7
 39
0.200
  6
CONTINUOUS
 10
21.00700
 20
20.51800
 30
 0
 11
21.13700
 21
19.92000
  0
LINE
  8
Engraving
 62
   7
 39
0.200
  6
CONTINUOUS
 10
21.13700
 20
19.92000
 30
 0
 11
21.13700
 21
20.93400
  0
LINE
  8
Engraving
 62
   7
 39
0.200
  6
CONTINUOUS
 10
21.13700
 20
20.93400
 30
 0
 11
20.38300
 21
20.93400
  0
LINE
  8
Engraving
 62
   7
 39
0.200
  6
CONTINUOUS
 10
20.38300
 20
20.93400
 30
 0
 11
20.38300
 21
20.83000
  0
LINE
  8
Engraving
 62
   7
 39
0.200
  6
CONTINUOUS
 10
20.38300
 20
20.83000
 30
 0
 11
21.08500
 21
20.83000
  0
LINE
  8
Engraving
 62
   7
 39
0.200
  6
CONTINUOUS
 10
21.08500
 20
20.83000
 30
 0
 11
21.08500
 21
20.75200
  0
ARC
  8
Engraving
 62
   7
 39
0.200
  6
CONTINUOUS
 10
19.27300
 20
21.04500
 30
 0
 40
1.83600
 50
336.39564
 51
-9.18521
  0
ARC
  8
Engraving
 62
   7
 39
0.200
  6
CONTINUOUS
 10
20.17500
 20
20.82900
 30
 0
 40
0.93700
 50
213.63918
 51
-33.63918
  0
ARC
  8
Engraving
 62
   7
 39
0.200
  6
CONTINUOUS
 10
20.44500
 20
21.09000
 30
 0
 40
1.30800
 50
143.39293
 51
-143.39293
  0
ARC
  8
Engraving
 62
   7
 39
0.200
  6
CONTINUOUS
 10
20.17500
 20
21.36400
 30
 0
 40
0.93000
 50
392.97220
 51
147.02780
  0
ARC
  8
Engraving
 62
   7
 39
0.200
  6
CONTINUOUS
 10
20.01800
 20
21.13300
 30
 0
 40
1.19200
 50
389.16664
 51
38.18692
  0
LINE
  8
Engraving
 62
   7
 39
0.200
  6
CONTINUOUS
 10
21.05900
 20
21.71400
 30
 0
 11
21.24100
 21
21.63600
  0
LINE
  8
Engraving
 62
   7
 39
0.200
  6
CONTINUOUS
 10
21.24100
 20
21.63600
 30
 0
 11
20.87700
 21
21.63600
  0
ARC
  8
Engraving
 62
   7
 39
0.200
  6
CONTINUOUS
 10
20.17500
 20
21.38100
 30
 0
 40
0.74700
 50
19.96344
 51
160.03656
  0
ARC
  8
Engraving
 62
   7
 39
0.200
  6
CONTINUOUS
 10
21.00100
 20
21.09000
 30
 0
 40
1.62300
 50
160.33667
 51
199.66333
  0
ARC
  8
Engraving
 62
   7
 39
0.200
  6
CONTINUOUS
 10
20.17700
 20
20.79900
 30
 0
 40
0.74900
 50
-160.08881
 51
-90.15299
  0
ARC
  8
Engraving
 62
   7
 39
0.200
  6
CONTINUOUS
 10
20.18000
 20
20.85800
 30
 0
 40
0.80800
 50
-90.35455
 51
-7.53841
  0
LINE
  8
Engraving
 62
   7
 39
0.200
  6
CONTINUOUS
 10
20.98100
 20
20.75200
 30
 0
 11
20.33100
 21
20.75200
  0
LINE
  8
Engraving
 62
   7
 39
0.200
  6
CONTINUOUS
 10
20.33100
 20
20.75200
 30
 0
 11
20.33100
 21
21.01200
  0
LINE
  8
Engraving
 62
   7
 39
0.200
  6
CONTINUOUS
 10
20.33100
 20
21.01200
 30
 0
 11
21.24100
 21
21.01200
  0
LINE
  8
Engraving
 62
   7
 39
0.200
  6
CONTINUOUS
 10
21.24100
 20
21.01200
 30
 0
 11
21.24100
 21
19.84200
  0
LINE
  8
Engraving
 62
   7
 39
0.200
  6
CONTINUOUS
 10
21.24100
 20
19.84200
 30
 0
 11
21.05900
 21
19.84200
  0
LINE
  8
Engraving
 62
   7
 39
0.200
  6
CONTINUOUS
 10
21.05900
 20
19.84200
 30
 0
 11
20.95500
 21
20.20600
  0
ARC
  8
Engraving
 62
   7
 39
0.200
  6
CONTINUOUS
 10
20.17800
 20
20.72300
 30
 0
 40
0.93300
 50
269.81577
 51
-33.63899
  0
ARC
  8
Engraving
 62
   7
 39
0.200
  6
CONTINUOUS
 10
20.17400
 20
20.89400
 30
 0
 40
1.10400
 50
216.85951
 51
-89.94810
  0
ARC
  8
Engraving
 62
   7
 39
0.200
  6
CONTINUOUS
 10
20.44600
 20
21.09000
 30
 0
 40
1.43900
 50
143.39293
 51
-143.39293
  0
ARC
  8
Engraving
 62
   7
 39
0.200
  6
CONTINUOUS
 10
20.17500
 20
21.29300
 30
 0
 40
1.10000
 50
396.53660
 51
143.46340
  0
ARC
  8
Engraving
 62
   7
 39
0.200
  6
CONTINUOUS
 10
19.91700
 20
21.07300
 30
 0
 40
1.43900
 50
383.03649
 51
37.45932
  0
LINE
  8
Engraving
 62
   7
 39
0.200
  6
CONTINUOUS
 10
22.02100
 20
19.89400
 30
 0
 11
22.02100
 21
22.26000
  0
LINE
  8
Engraving
 62
   7
 39
0.200
  6
CONTINUOUS
 10
22.02100
 20
22.26000
 30
 0
 11
22.15100
 21
22.26000
  0
LINE
  8
Engraving
 62
   7
 39
0.200
  6
CONTINUOUS
 10
22.15100
 20
22.26000
 30
 0
 11
23.58100
 21
19.89400
  0
LINE
  8
Engraving
 62
   7
 39
0.200
  6
CONTINUOUS
 10
23.58100
 20
19.89400
 30
 0
 11
23.71100
 21
19.89400
  0
LINE
  8
Engraving
 62
   7
 39
0.200
  6
CONTINUOUS
 10
23.71100
 20
19.89400
 30
 0
 11
23.71100
 21
22.26000
  0
LINE
  8
Engraving
 62
   7
 39
0.200
  6
CONTINUOUS
 10
23.71100
 20
22.26000
 30
 0
 11
23.58100
 21
22.26000
  0
LINE
  8
Engraving
 62
   7
 39
0.200
  6
CONTINUOUS
 10
23.58100
 20
22.26000
 30
 0
 11
23.58100
 21
20.15400
  0
LINE
  8
Engraving
 62
   7
 39
0.200
  6
CONTINUOUS
 10
23.58100
 20
20.15400
 30
 0
 11
23.65900
 21
20.02400
  0
LINE
  8
Engraving
 62
   7
 39
0.200
  6
CONTINUOUS
 10
23.65900
 20
20.02400
 30
 0
 11
23.45100
 21
20.36200
  0
LINE
  8
Engraving
 62
   7
 39
0.200
  6
CONTINUOUS
 10
23.45100
 20
20.36200
 30
 0
 11
22.28100
 21
22.33800
  0
LINE
  8
Engraving
 62
   7
 39
0.200
  6
CONTINUOUS
 10
22.28100
 20
22.33800
 30
 0
 11
21.89100
 21
22.33800
  0
LINE
  8
Engraving
 62
   7
 39
0.200
  6
CONTINUOUS
 10
21.89100
 20
22.33800
 30
 0
 11
21.89100
 21
19.84200
  0
LINE
  8
Engraving
 62
   7
 39
0.200
  6
CONTINUOUS
 10
21.89100
 20
19.84200
 30
 0
 11
22.28100
 21
19.84200
  0
LINE
  8
Engraving
 62
   7
 39
0.200
  6
CONTINUOUS
 10
22.28100
 20
19.84200
 30
 0
 11
22.28100
 21
21.81800
  0
LINE
  8
Engraving
 62
   7
 39
0.200
  6
CONTINUOUS
 10
22.28100
 20
21.81800
 30
 0
 11
22.07300
 21
22.15600
  0
LINE
  8
Engraving
 62
   7
 39
0.200
  6
CONTINUOUS
 10
22.07300
 20
22.15600
 30
 0
 11
22.15100
 21
22.02600
  0
LINE
  8
Engraving
 62
   7
 39
0.200
  6
CONTINUOUS
 10
22.15100
 20
22.02600
 30
 0
 11
22.15100
 21
19.89400
  0
LINE
  8
Engraving
 62
   7
 39
0.200
  6
CONTINUOUS
 10
22.15100
 20
19.89400
 30
 0
 11
22.15100
 21
21.81800
  0
LINE
  8
Engraving
 62
   7
 39
0.200
  6
CONTINUOUS
 10
22.15100
 20
21.81800
 30
 0
 11
22.28100
 21
21.81800
  0
LINE
  8
Engraving
 62
   7
 39
0.200
  6
CONTINUOUS
 10
22.28100
 20
21.81800
 30
 0
 11
23.45100
 21
19.84200
  0
LINE
  8
Engraving
 62
   7
 39
0.200
  6
CONTINUOUS
 10
23.45100
 20
19.84200
 30
 0
 11
23.84100
 21
19.84200
  0
LINE
  8
Engraving
 62
   7
 39
0.200
  6
CONTINUOUS
 10
23.84100
 20
19.84200
 30
 0
 11
23.84100
 21
22.33800
  0
LINE
  8
Engraving
 62
   7
 39
0.200
  6
CONTINUOUS
 10
23.84100
 20
22.33800
 30
 0
 11
23.45100
 21
22.33800
  0
LINE
  8
Engraving
 62
   7
 39
0.200
  6
CONTINUOUS
 10
23.45100
 20
22.33800
 30
 0
 11
23.45100
 21
20.36200
  0
LINE
  8
Engraving
 62
   7
 39
0.200
  6
CONTINUOUS
 10
25.66100
 20
22.28600
 30
 0
 11
26.51900
 21
19.92000
  0
LINE
  8
Engraving
 62
   7
 39
0.200
  6
CONTINUOUS
 10
26.51900
 20
19.92000
 30
 0
 11
26.64900
 21
19.92000
  0
LINE
  8
Engraving
 62
   7
 39
0.200
  6
CONTINUOUS
 10
26.64900
 20
19.92000
 30
 0
 11
25.76500
 21
22.28600
  0
LINE
  8
Engraving
 62
   7
 39
0.200
  6
CONTINUOUS
 10
25.76500
 20
22.28600
 30
 0
 11
25.66100
 21
22.28600
  0
LINE
  8
Engraving
 62
   7
 39
0.200
  6
CONTINUOUS
 10
25.66100
 20
22.28600
 30
 0
 11
24.77700
 21
19.92000
  0
LINE
  8
Engraving
 62
   7
 39
0.200
  6
CONTINUOUS
 10
24.77700
 20
19.92000
 30
 0
 11
24.64700
 21
19.92000
  0
LINE
  8
Engraving
 62
   7
 39
0.200
  6
CONTINUOUS
 10
24.64700
 20
19.92000
 30
 0
 11
25.53100
 21
22.28600
  0
LINE
  8
Engraving
 62
   7
 39
0.200
  6
CONTINUOUS
 10
25.53100
 20
22.28600
 30
 0
 11
26.41500
 21
19.84200
  0
LINE
  8
Engraving
 62
   7
 39
0.200
  6
CONTINUOUS
 10
26.41500
 20
19.84200
 30
 0
 11
26.80500
 21
19.84200
  0
LINE
  8
Engraving
 62
   7
 39
0.200
  6
CONTINUOUS
 10
26.80500
 20
19.84200
 30
 0
 11
25.86900
 21
22.33800
  0
LINE
  8
Engraving
 62
   7
 39
0.200
  6
CONTINUOUS
 10
25.86900
 20
22.33800
 30
 0
 11
25.42700
 21
22.33800
  0
LINE
  8
Engraving
 62
   7
 39
0.200
  6
CONTINUOUS
 10
25.42700
 20
22.33800
 30
 0
 11
24.49100
 21
19.84200
  0
LINE
  8
Engraving
 62
   7
 39
0.200
  6
CONTINUOUS
 10
24.49100
 20
19.84200
 30
 0
 11
24.88100
 21
19.84200
  0
LINE
  8
Engraving
 62
   7
 39
0.200
  6
CONTINUOUS
 10
24.88100
 20
19.84200
 30
 0
 11
25.63500
 21
21.92200
  0
LINE
  8
Engraving
 62
   7
 39
0.200
  6
CONTINUOUS
 10
25.63500
 20
21.92200
 30
 0
 11
25.16700
 21
20.67400
  0
LINE
  8
Engraving
 62
   7
 39
0.200
  6
CONTINUOUS
 10
25.16700
 20
20.67400
 30
 0
 11
26.12900
 21
20.67400
  0
LINE
  8
Engraving
 62
   7
 39
0.200
  6
CONTINUOUS
 10
26.12900
 20
20.67400
 30
 0
 11
26.15500
 21
20.59600
  0
LINE
  8
Engraving
 62
   7
 39
0.200
  6
CONTINUOUS
 10
26.15500
 20
20.59600
 30
 0
 11
25.11500
 21
20.59600
  0
LINE
  8
Engraving
 62
   7
 39
0.200
  6
CONTINUOUS
 10
25.11500
 20
20.59600
 30
 0
 11
25.08900
 21
20.49200
  0
LINE
  8
Engraving
 62
   7
 39
0.200
  6
CONTINUOUS
 10
25.08900
 20
20.49200
 30
 0
 11
26.20700
 21
20.49200
  0
LINE
  8
Engraving
 62
   7
 39
0.200
  6
CONTINUOUS
 10
26.20700
 20
20.49200
 30
 0
 11
26.20700
 21
20.41400
  0
LINE
  8
Engraving
 62
   7
 39
0.200
  6
CONTINUOUS
 10
26.20700
 20
20.41400
 30
 0
 11
25.08900
 21
20.41400
  0
LINE
  8
Engraving
 62
   7
 39
0.200
  6
CONTINUOUS
 10
29.06700
 20
19.97200
 30
 0
 11
27.58500
 21
19.97200
  0
LINE
  8
Engraving
 62
   7
 39
0.200
  6
CONTINUOUS
 10
27.58500
 20
19.97200
 30
 0
 11
27.58500
 21
22.26000
  0
LINE
  8
Engraving
 62
   7
 39
0.200
  6
CONTINUOUS
 10
27.58500
 20
22.26000
 30
 0
 11
27.71500
 21
22.26000
  0
LINE
  8
Engraving
 62
   7
 39
0.200
  6
CONTINUOUS
 10
27.71500
 20
22.26000
 30
 0
 11
27.71500
 21
20.10200
  0
LINE
  8
Engraving
 62
   7
 39
0.200
  6
CONTINUOUS
 10
27.71500
 20
20.10200
 30
 0
 11
29.14500
 21
20.10200
  0
LINE
  8
Engraving
 62
   7
 39
0.200
  6
CONTINUOUS
 10
29.14500
 20
20.10200
 30
 0
 11
29.14500
 21
19.84200
  0
LINE
  8
Engraving
 62
   7
 39
0.200
  6
CONTINUOUS
 10
29.14500
 20
19.84200
 30
 0
 11
27.45500
 21
19.84200
  0
LINE
  8
Engraving
 62
   7
 39
0.200
  6
CONTINUOUS
 10
27.45500
 20
19.84200
 30
 0
 11
27.45500
 21
22.33800
  0
LINE
  8
Engraving
 62
   7
 39
0.200
  6
CONTINUOUS
 10
27.45500
 20
22.33800
 30
 0
 11
27.84500
 21
22.33800
  0
LINE
  8
Engraving
 62
   7
 39
0.200
  6
CONTINUOUS
 10
27.84500
 20
22.33800
 30
 0
 11
27.84500
 21
20.10200
  0
ARC
  8
Engraving
 62
   7
 39
0.200
  6
CONTINUOUS
 10
33.17500
 20
21.35100
 30
 0
 40
0.93700
 50
393.63918
 51
146.36082
  0
ARC
  8
Engraving
 62
   7
 39
0.200
  6
CONTINUOUS
 10
32.90500
 20
21.09000
 30
 0
 40
1.30800
 50
323.39293
 51
36.60707
  0
ARC
  8
Engraving
 62
   7
 39
0.200
  6
CONTINUOUS
 10
33.17500
 20
20.81600
 30
 0
 40
0.93000
 50
212.97220
 51
-32.97220
  0
ARC
  8
Engraving
 62
   7
 39
0.200
  6
CONTINUOUS
 10
33.44500
 20
21.09000
 30
 0
 40
1.30800
 50
143.39293
 51
-143.39293
  0
LINE
  8
Engraving
 62
   7
 39
0.200
  6
CONTINUOUS
 10
32.39500
 20
21.87000
 30
 0
 11
32.49900
 21
21.87000
  0
ARC
  8
Engraving
 62
   7
 39
0.200
  6
CONTINUOUS
 10
33.68600
 20
21.09000
 30
 0
 40
1.42000
 50
146.69033
 51
213.30967
  0
ARC
  8
Engraving
 62
   7
 39
0.200
  6
CONTINUOUS
 10
33.17500
 20
20.82400
 30
 0
 40
0.84900
 50
-142.75227
 51
-37.24773
  0
ARC
  8
Engraving
 62
   7
 39
0.200
  6
CONTINUOUS
 10
32.66400
 20
21.09000
 30
 0
 40
1.42000
 50
-33.30967
 51
33.30967
  0
ARC
  8
Engraving
 62
   7
 39
0.200
  6
CONTINUOUS
 10
33.17500
 20
21.37000
 30
 0
 40
0.84100
 50
36.48829
 51
143.51171
  0
LINE
  8
Engraving
 62
   7
 39
0.200
  6
CONTINUOUS
 10
32.49900
 20
21.87000
 30
 0
 11
32.47300
 21
21.63600
  0
ARC
  8
Engraving
 62
   7
 39
0.200
  6
CONTINUOUS
 10
34.00100
 20
21.09000
 30
 0
 40
1.62300
 50
160.33667
 51
199.66333
  0
ARC
  8
Engraving
 62
   7
 39
0.200
  6
CONTINUOUS
 10
33.17500
 20
20.79900
 30
 0
 40
0.74700
 50
-160.03656
 51
-19.96344
  0
ARC
  8
Engraving
 62
   7
 39
0.200
  6
CONTINUOUS
 10
32.34900
 20
21.09000
 30
 0
 40
1.62300
 50
-19.66333
 51
19.66333
  0
ARC
  8
Engraving
 62
   7
 39
0.200
  6
CONTINUOUS
 10
33.17500
 20
21.38100
 30
 0
 40
0.74700
 50
19.96344
 51
160.03656
  0
LINE
  8
Engraving
 62
   7
 39
0.200
  6
CONTINUOUS
 10
32.47300
 20
21.63600
 30
 0
 11
32.29100
 21
21.94800
  0
ARC
  8
Engraving
 62
   7
 39
0.200
  6
CONTINUOUS
 10
33.44600
 20
21.09000
 30
 0
 40
1.43900
 50
143.39293
 51
216.60707
  0
ARC
  8
Engraving
 62
   7
 39
0.200
  6
CONTINUOUS
 10
33.17500
 20
20.88700
 30
 0
 40
1.10000
 50
-143.46340
 51
-36.53660
  0
ARC
  8
Engraving
 62
   7
 39
0.200
  6
CONTINUOUS
 10
32.90400
 20
21.09000
 30
 0
 40
1.43900
 50
-36.60707
 51
36.60707
  0
ARC
  8
Engraving
 62
   7
 39
0.200
  6
CONTINUOUS
 10
33.17500
 20
21.29300
 30
 0
 40
1.10000
 50
36.53660
 51
143.46340
  0
LINE
  8
Engraving
 62
   7
 39
0.200
  6
CONTINUOUS
 10
35.28100
 20
22.26000
 30
 0
 11
35.15100
 21
22.26000
  0
LINE
  8
Engraving
 62
   7
 39
0.200
  6
CONTINUOUS
 10
35.15100
 20
22.26000
 30
 0
 11
35.15100
 21
20.57000
  0
ARC
  8
Engraving
 62
   7
 39
0.200
  6
CONTINUOUS
 10
35.73200
 20
20.57300
 30
 0
 40
0.58100
 50
-179.70416
 51
-129.96981
  0
ARC
  8
Engraving
 62
   7
 39
0.200
  6
CONTINUOUS
 10
36.00900
 20
20.90800
 30
 0
 40
1.01500
 50
-129.80557
 51
-50.19443
  0
ARC
  8
Engraving
 62
   7
 39
0.200
  6
CONTINUOUS
 10
36.28600
 20
20.57300
 30
 0
 40
0.58100
 50
-50.03019
 51
-0.29584
  0
LINE
  8
Engraving
 62
   7
 39
0.200
  6
CONTINUOUS
 10
36.86700
 20
20.57000
 30
 0
 11
36.86700
 21
22.26000
  0
LINE
  8
Engraving
 62
   7
 39
0.200
  6
CONTINUOUS
 10
36.86700
 20
22.26000
 30
 0
 11
36.73700
 21
22.26000
  0
LINE
  8
Engraving
 62
   7
 39
0.200
  6
CONTINUOUS
 10
36.73700
 20
22.26000
 30
 0
 11
36.73700
 21
20.57000
  0
ARC
  8
Engraving
 62
   7
 39
0.200
  6
CONTINUOUS
 10
36.20900
 20
20.56700
 30
 0
 40
0.52800
 50
303.81037
 51
0.32554
  0
ARC
  8
Engraving
 62
   7
 39
0.200
  6
CONTINUOUS
 10
36.02200
 20
20.83700
 30
 0
 40
0.85700
 50
235.84623
 51
-55.84623
  0
ARC
  8
Engraving
 62
   7
 39
0.200
  6
CONTINUOUS
 10
35.87000
 20
20.61900
 30
 0
 40
0.59100
 50
184.75559
 51
-123.82450
  0
LINE
  8
Engraving
 62
   7
 39
0.200
  6
CONTINUOUS
 10
35.28100
 20
20.57000
 30
 0
 11
35.28100
 21
22.26000
  0
LINE
  8
Engraving
 62
   7
 39
0.200
  6
CONTINUOUS
 10
35.28100
 20
22.26000
 30
 0
 11
35.41100
 21
22.33800
  0
LINE
  8
Engraving
 62
   7
 39
0.200
  6
CONTINUOUS
 10
35.41100
 20
22.33800
 30
 0
 11
35.02100
 21
22.33800
  0
LINE
  8
Engraving
 62
   7
 39
0.200
  6
CONTINUOUS
 10
35.02100
 20
22.33800
 30
 0
 11
35.02100
 21
20.57000
  0
ARC
  8
Engraving
 62
   7
 39
0.200
  6
CONTINUOUS
 10
35.70900
 20
20.57400
 30
 0
 40
0.68800
 50
-179.66689
 51
-123.13561
  0
ARC
  8
Engraving
 62
   7
 39
0.200
  6
CONTINUOUS
 10
36.00900
 20
21.06000
 30
 0
 40
1.25900
 50
-122.47817
 51
-57.52183
  0
ARC
  8
Engraving
 62
   7
 39
0.200
  6
CONTINUOUS
 10
36.30900
 20
20.57400
 30
 0
 40
0.68800
 50
-56.86439
 51
-0.33311
  0
LINE
  8
Engraving
 62
   7
 39
0.200
  6
CONTINUOUS
 10
36.99700
 20
20.57000
 30
 0
 11
36.99700
 21
22.33800
  0
LINE
  8
Engraving
 62
   7
 39
0.200
  6
CONTINUOUS
 10
36.99700
 20
22.33800
 30
 0
 11
36.60700
 21
22.33800
  0
LINE
  8
Engraving
 62
   7
 39
0.200
  6
CONTINUOUS
 10
36.60700
 20
22.33800
 30
 0
 11
36.60700
 21
20.57000
  0
ARC
  8
Engraving
 62
   7
 39
0.200
  6
CONTINUOUS
 10
36.15200
 20
20.57000
 30
 0
 40
0.45500
 50
306.86990
 51
0.00000
  0
ARC
  8
Engraving
 62
   7
 39
0.200
  6
CONTINUOUS
 10
36.00900
 20
20.76600
 30
 0
 40
0.69800
 50
233.39293
 51
-53.39293
  0
ARC
  8
Engraving
 62
   7
 39
0.200
  6
CONTINUOUS
 10
35.86600
 20
20.57000
 30
 0
 40
0.45500
 50
180.00000
 51
-126.86990
  0
LINE
  8
Engraving
 62
   7
 39
0.200
  6
CONTINUOUS
 10
35.41100
 20
20.57000
 30
 0
 11
35.41100
 21
22.33800
  0
LINE
  8
Engraving
 62
   7
 39
0.200
  6
CONTINUOUS
 10
38.60900
 20
22.15600
 30
 0
 11
37.75100
 21
22.15600
  0
LINE
  8
Engraving
 62
   7
 39
0.200
  6
CONTINUOUS
 10
37.75100
 20
22.15600
 30
 0
 11
37.75100
 21
22.26000
  0
LINE
  8
Engraving
 62
   7
 39
0.200
  6
CONTINUOUS
 10
37.75100
 20
22.26000
 30
 0
 11
39.49300
 21
22.26000
  0
LINE
  8
Engraving
 62
   7
 39
0.200
  6
CONTINUOUS
 10
39.49300
 20
22.26000
 30
 0
 11
39.49300
 21
22.15600
  0
LINE
  8
Engraving
 62
   7
 39
0.200
  6
CONTINUOUS
 10
39.49300
 20
22.15600
 30
 0
 11
38.68700
 21
22.15600
  0
LINE
  8
Engraving
 62
   7
 39
0.200
  6
CONTINUOUS
 10
38.68700
 20
22.15600
 30
 0
 11
38.68700
 21
19.89400
  0
LINE
  8
Engraving
 62
   7
 39
0.200
  6
CONTINUOUS
 10
38.68700
 20
19.89400
 30
 0
 11
38.55700
 21
19.89400
  0
LINE
  8
Engraving
 62
   7
 39
0.200
  6
CONTINUOUS
 10
38.55700
 20
19.89400
 30
 0
 11
38.55700
 21
22.15600
  0
LINE
  8
Engraving
 62
   7
 39
0.200
  6
CONTINUOUS
 10
38.55700
 20
22.15600
 30
 0
 11
38.42700
 21
22.07800
  0
LINE
  8
Engraving
 62
   7
 39
0.200
  6
CONTINUOUS
 10
38.42700
 20
22.07800
 30
 0
 11
37.64700
 21
22.07800
  0
LINE
  8
Engraving
 62
   7
 39
0.200
  6
CONTINUOUS
 10
37.64700
 20
22.07800
 30
 0
 11
37.64700
 21
22.33800
  0
LINE
  8
Engraving
 62
   7
 39
0.200
  6
CONTINUOUS
 10
37.64700
 20
22.33800
 30
 0
 11
39.59700
 21
22.33800
  0
LINE
  8
Engraving
 62
   7
 39
0.200
  6
CONTINUOUS
 10
39.59700
 20
22.33800
 30
 0
 11
39.59700
 21
22.07800
  0
LINE
  8
Engraving
 62
   7
 39
0.200
  6
CONTINUOUS
 10
39.59700
 20
22.07800
 30
 0
 11
38.81700
 21
22.07800
  0
LINE
  8
Engraving
 62
   7
 39
0.200
  6
CONTINUOUS
 10
38.81700
 20
22.07800
 30
 0
 11
38.81700
 21
19.84200
  0
LINE
  8
Engraving
 62
   7
 39
0.200
  6
CONTINUOUS
 10
38.81700
 20
19.84200
 30
 0
 11
38.42700
 21
19.84200
  0
LINE
  8
Engraving
 62
   7
 39
0.200
  6
CONTINUOUS
 10
38.42700
 20
19.84200
 30
 0
 11
38.42700
 21
22.07800
  0
CIRCLE
  8
Contour
 62
   7
 39
0.100
  6
CONTINUOUS
 10
2.95000
 20
11.45000
 30
 0
 40
2.75000
  0
CIRCLE
  8
Contour
 62
   7
 39
0.100
  6
CONTINUOUS
 10
2.95000
 20
11.45000
 30
 0
 40
1.60000
  0
CIRCLE
  8
Contour
 62
   7
 39
0.100
  6
CONTINUOUS
 10
51.05000
 20
11.45000
 30
 0
 40
2.75000
  0
CIRCLE
  8
Contour
 62
   7
 39
0.100
  6
CONTINUOUS
 10
51.05000
 20
11.45000
 30
 0
 40
1.60000
  0
CIRCLE
  8
Contour
 62
   7
 39
0.100
  6
CONTINUOUS
 10
27.00000
 20
11.85000
 30
 0
 40
5.75000
  0
ENDSEC
  0
EOF
