%FSLAX25Y25*%
%MOIN*%
G70*
G01*
G75*
G04 Layer_Physical_Order=2*
G04 Layer_Color=16711680*
%ADD10R,0.10500X0.04300*%
%ADD11C,0.02000*%
%ADD12C,0.03000*%
%ADD13C,0.23000*%
%ADD14C,0.11614*%
%ADD15C,0.05906*%
%ADD16P,0.08352X4X90.0*%
%ADD17C,0.10000*%
D11*
X-86087Y161065D02*
X-81300Y165851D01*
Y174300D01*
X-87000Y180000D02*
X-81300Y174300D01*
X-106700Y180000D02*
X-87000D01*
X-116200Y170500D02*
X-106700Y180000D01*
X-123398Y170500D02*
X-116200D01*
X-127128Y174230D02*
X-123398Y170500D01*
X-91551Y173600D02*
X-89622Y171671D01*
X-105700Y173600D02*
X-91551D01*
X-113500Y165800D02*
X-105700Y173600D01*
X-127000Y165800D02*
X-113500D01*
X-134906Y173706D02*
X-127000Y165800D01*
X-134906Y173706D02*
Y176352D01*
D12*
X-147330Y84768D02*
D03*
X-145422Y87622D02*
D03*
X-142568Y89530D02*
D03*
X-139200Y90200D02*
D03*
X-135832Y89530D02*
D03*
X-132977Y87622D02*
D03*
X-131070Y84768D02*
D03*
X-130400Y81400D02*
D03*
X-131070Y78032D02*
D03*
X-132977Y75178D02*
D03*
X-135832Y73270D02*
D03*
X-139200Y72600D02*
D03*
X-142568Y73270D02*
D03*
X-145422Y75178D02*
D03*
X-147330Y78032D02*
D03*
X-148000Y81400D02*
D03*
D13*
X-139200D02*
D03*
D14*
X-149755Y175645D02*
D03*
X-114400Y211000D02*
D03*
D15*
X-110157Y191201D02*
D03*
X-127128Y174230D02*
D03*
X-117936Y193322D02*
D03*
X-115814Y185544D02*
D03*
X-121471Y179887D02*
D03*
X-129249Y182009D02*
D03*
X-123592Y187665D02*
D03*
X-110836Y150458D02*
D03*
X-107300Y139851D02*
D03*
X-100229Y146922D02*
D03*
X-103764Y157529D02*
D03*
X-96693Y164600D02*
D03*
X-93158Y153993D02*
D03*
X-86087Y161065D02*
D03*
D16*
X-134906Y176352D02*
D03*
X-89622Y171671D02*
D03*
D17*
X-99904Y206404D02*
D03*
X-145159Y161149D02*
D03*
M02*
