M48
;Layer_Color=9474304
;FILE_FORMAT=2:5
INCH,LZ
;TYPE=PLATED
T1F00S00C0.02000
T2F00S00C0.03543
T3F00S00C0.06500
T4F00S00C0.12200
;TYPE=NON_PLATED
T5F00S00C0.12800
%
T01
X-0145422Y0075178
X-0142568Y007327
X-01392Y00726
X-0135832Y007327
X-0132977Y0075178
X-013107Y0078032
X-01304Y00814
X-013107Y0084768
X-0132977Y0087622
X-0135832Y008953
X-01392Y00902
X-0142568Y008953
X-0145422Y0087622
X-014733Y0084768
X-0148Y00814
X-014733Y0078032
T02
X-01073Y0139851
X-0100229Y0146922
X-0110836Y0150458
X-0103764Y0157529
X-0096693Y01646
X-0086087Y0161065
X-0093158Y0153993
X-0089622Y0171671
X-0127128Y017423
X-0129249Y0182009
X-0121471Y0179887
X-0123592Y0187665
X-0115814Y0185544
X-0134906Y0176352
X-0117936Y0193322
X-0110157Y0191201
T03
X-0145159Y0161149
X-0099904Y0206404
T04
X-01392Y00814
T05
X-0149755Y0175645
X-01144Y0211
M30
