%FSLAX25Y25*%
%MOIN*%
G70*
G01*
G75*
G04 Layer_Color=65535*
%ADD10R,0.10500X0.04300*%
%ADD11C,0.02000*%
%ADD12C,0.03000*%
%ADD13C,0.23000*%
%ADD14C,0.11614*%
%ADD15C,0.05906*%
%ADD16P,0.08352X4X90.0*%
%ADD17C,0.10000*%
%ADD18C,0.03500*%
%ADD19C,0.03000*%
%ADD20C,0.00787*%
%ADD21C,0.01200*%
%ADD22C,0.00800*%
D18*
X-137299Y34200D02*
G03*
X-81936Y215421I-66948J119520D01*
G01*
X-91800Y221200D02*
X-81936Y215421D01*
X-94100Y222600D02*
X-91800Y221200D01*
X-101800Y226700D02*
X-94100Y222600D01*
X-107100Y228500D02*
X-101800Y226700D01*
X-112000Y229800D02*
X-107100Y228500D01*
X-119200Y230600D02*
X-112000Y229800D01*
X-126000Y230300D02*
X-119200Y230600D01*
X-130400Y229700D02*
X-126000Y230300D01*
X-133700Y228900D02*
X-130400Y229700D01*
X-141600Y226500D02*
X-133700Y228900D01*
X-150500Y220900D02*
X-141600Y226500D01*
X-156900Y215100D02*
X-150500Y220900D01*
X-160300Y210300D02*
X-156900Y215100D01*
X-163100Y205900D02*
X-160300Y210300D01*
X-166600Y196900D02*
X-163100Y205900D01*
X-168900Y186623D02*
X-166600Y196900D01*
X-169300Y180800D02*
X-168900Y186623D01*
X-169800Y175000D02*
X-169300Y180800D01*
X-170100Y165200D02*
X-169800Y175000D01*
X-170100Y161800D02*
Y165200D01*
Y161800D02*
X-168200Y145100D01*
X-166800Y137300D01*
X-165400Y128900D01*
X-163700Y122500D01*
X-156300Y95500D01*
X-150500Y74900D01*
X-145400Y58400D01*
X-137705Y34067D01*
D19*
X-139233Y30123D02*
G03*
X-80100Y217100I-63922J123055D01*
G01*
X-91700Y224100D02*
X-80166Y217157D01*
X-101200Y228900D02*
X-91700Y224100D01*
X-107700Y231100D02*
X-101200Y228900D01*
X-111500Y232100D02*
X-107700Y231100D01*
X-118500Y232900D02*
X-111500Y232100D01*
X-124500Y232600D02*
X-118500Y232900D01*
X-129900Y232100D02*
X-124500Y232600D01*
X-135900Y230700D02*
X-129900Y232100D01*
X-142200Y228800D02*
X-135900Y230700D01*
X-146600Y226200D02*
X-142200Y228800D01*
X-151900Y222900D02*
X-146600Y226200D01*
X-158700Y216800D02*
X-151900Y222900D01*
X-161900Y212400D02*
X-158700Y216800D01*
X-165200Y207000D02*
X-161900Y212400D01*
X-168800Y197800D02*
X-165200Y207000D01*
X-171200Y187200D02*
X-168800Y197800D01*
X-172400Y175200D02*
X-171200Y187200D01*
X-172700Y161900D02*
X-172400Y175200D01*
X-172700Y161900D02*
X-170800Y144600D01*
X-167900Y128100D01*
X-157200Y88100D01*
X-148700Y57900D01*
X-139234Y30123D01*
D20*
X-125396Y141385D02*
X-117160Y149621D01*
X-80141Y186640D01*
X-169766Y185756D02*
X-125396Y141385D01*
X-169766Y185756D02*
X-124512Y231011D01*
X-80141Y186640D01*
D21*
X-97802Y129801D02*
X-96802Y130801D01*
Y132800D01*
X-97802Y133800D01*
X-101800D01*
X-102800Y132800D01*
Y130801D01*
X-101800Y129801D01*
X-99801D01*
Y131801D01*
X-102800Y127802D02*
X-96802D01*
X-102800Y123803D01*
X-96802D01*
Y121804D02*
X-102800D01*
Y118805D01*
X-101800Y117805D01*
X-97802D01*
X-96802Y118805D01*
Y121804D01*
D22*
X-78267Y193699D02*
X-79334D01*
X-78800D01*
Y191033D01*
X-79334Y190500D01*
X-79867D01*
X-80400Y191033D01*
X-77201Y190500D02*
X-76135D01*
X-76668D01*
Y193699D01*
X-77201Y193166D01*
M02*
