%FSLAX23Y23*%
%MOIN*%
G70*
G01*
G75*
G04 Layer_Color=8388736*
%ADD10R,0.155X0.125*%
%ADD11R,0.033X0.031*%
%ADD12R,0.031X0.033*%
%ADD13R,0.043X0.055*%
%ADD14R,0.035X0.049*%
%ADD15R,0.049X0.035*%
%ADD16R,0.031X0.118*%
%ADD17R,0.118X0.031*%
%ADD18R,0.071X0.094*%
%ADD19R,0.125X0.050*%
%ADD20R,0.079X0.024*%
%ADD21R,0.094X0.110*%
%ADD22R,0.024X0.033*%
%ADD23R,0.083X0.130*%
%ADD24R,0.083X0.035*%
%ADD25R,0.120X0.050*%
%ADD26R,0.041X0.010*%
%ADD27R,0.081X0.024*%
%ADD28R,0.055X0.043*%
%ADD29R,0.033X0.024*%
%ADD30C,0.007*%
%ADD31C,0.010*%
%ADD32C,0.020*%
%ADD33C,0.050*%
%ADD34C,0.030*%
%ADD35C,0.118*%
%ADD36C,0.116*%
%ADD37C,0.059*%
%ADD38R,0.059X0.059*%
%ADD39C,0.100*%
%ADD40C,0.026*%
%ADD41C,0.004*%
%ADD42C,0.020*%
%ADD43C,0.024*%
%ADD44C,0.010*%
%ADD45C,0.012*%
%ADD46C,0.008*%
%ADD47C,0.008*%
%ADD48C,0.006*%
%ADD49C,0.005*%
%ADD50R,0.163X0.133*%
%ADD51R,0.041X0.039*%
%ADD52R,0.039X0.041*%
%ADD53R,0.051X0.063*%
%ADD54R,0.043X0.057*%
%ADD55R,0.057X0.043*%
%ADD56R,0.039X0.126*%
%ADD57R,0.126X0.039*%
%ADD58R,0.079X0.102*%
%ADD59R,0.133X0.058*%
%ADD60R,0.087X0.032*%
%ADD61R,0.102X0.118*%
%ADD62R,0.032X0.041*%
%ADD63R,0.091X0.138*%
%ADD64R,0.091X0.043*%
%ADD65R,0.128X0.058*%
%ADD66R,0.049X0.018*%
%ADD67R,0.089X0.032*%
%ADD68R,0.063X0.051*%
%ADD69R,0.041X0.032*%
%ADD70C,0.126*%
%ADD71C,0.008*%
%ADD72C,0.124*%
%ADD73C,0.067*%
%ADD74R,0.067X0.067*%
%ADD75C,0.108*%
D50*
X1095Y-1040D02*
D03*
Y-1216D02*
D03*
X2541Y-919D02*
D03*
X406Y-1702D02*
D03*
X147Y-241D02*
D03*
D51*
X1448Y-245D02*
D03*
Y-189D02*
D03*
X1386Y-245D02*
D03*
Y-189D02*
D03*
X1326Y-244D02*
D03*
Y-189D02*
D03*
X1267Y-244D02*
D03*
Y-189D02*
D03*
X1204Y-244D02*
D03*
Y-189D02*
D03*
X1145Y-244D02*
D03*
Y-189D02*
D03*
X1449Y-350D02*
D03*
Y-295D02*
D03*
X1386Y-350D02*
D03*
Y-295D02*
D03*
X1326Y-350D02*
D03*
Y-295D02*
D03*
X1267Y-350D02*
D03*
Y-295D02*
D03*
X1204Y-350D02*
D03*
Y-295D02*
D03*
X1145Y-350D02*
D03*
Y-295D02*
D03*
X2035Y-492D02*
D03*
Y-547D02*
D03*
X2087Y-488D02*
D03*
Y-433D02*
D03*
X1201Y-544D02*
D03*
Y-488D02*
D03*
X2028Y-760D02*
D03*
Y-705D02*
D03*
X795Y-1520D02*
D03*
Y-1575D02*
D03*
X2087Y-594D02*
D03*
Y-539D02*
D03*
X1642Y-1642D02*
D03*
Y-1587D02*
D03*
X1641Y-1693D02*
D03*
Y-1748D02*
D03*
X528Y-1472D02*
D03*
Y-1417D02*
D03*
X469Y-1472D02*
D03*
Y-1417D02*
D03*
X681Y-1472D02*
D03*
Y-1417D02*
D03*
X1134Y-1587D02*
D03*
Y-1642D02*
D03*
X622Y-1417D02*
D03*
Y-1472D02*
D03*
X1035Y-165D02*
D03*
Y-220D02*
D03*
X1043Y-469D02*
D03*
Y-413D02*
D03*
D52*
X701Y-425D02*
D03*
X646D02*
D03*
X2091Y-157D02*
D03*
X2035D02*
D03*
X2028Y-811D02*
D03*
X2083D02*
D03*
X1445Y-531D02*
D03*
X1500D02*
D03*
X1323Y-724D02*
D03*
X1268D02*
D03*
X1689Y-1641D02*
D03*
X1744D02*
D03*
X1689Y-1693D02*
D03*
X1744D02*
D03*
X1268Y-1430D02*
D03*
X1323D02*
D03*
X1323Y-1485D02*
D03*
X1268D02*
D03*
X2905Y-748D02*
D03*
X2961D02*
D03*
X1469Y-724D02*
D03*
X1413D02*
D03*
X1205Y-610D02*
D03*
X1150D02*
D03*
X1205Y-669D02*
D03*
X1150D02*
D03*
X783Y-500D02*
D03*
X839D02*
D03*
X776Y-252D02*
D03*
X831D02*
D03*
X692Y-178D02*
D03*
X636D02*
D03*
X941Y-1720D02*
D03*
X886D02*
D03*
X1449Y-1799D02*
D03*
X1394D02*
D03*
X1189Y-1693D02*
D03*
X1244D02*
D03*
X1185Y-1642D02*
D03*
X1240D02*
D03*
X1028Y-1398D02*
D03*
X1083D02*
D03*
X1402Y-1028D02*
D03*
X1457D02*
D03*
D53*
X860Y-1575D02*
D03*
X927D02*
D03*
X746Y-177D02*
D03*
X813D02*
D03*
X758Y-425D02*
D03*
X825D02*
D03*
D54*
X1270Y-1370D02*
D03*
X1337D02*
D03*
X2153Y-373D02*
D03*
X2219D02*
D03*
X1321Y-531D02*
D03*
X1388D02*
D03*
X1266Y-791D02*
D03*
X1333D02*
D03*
X2211Y-157D02*
D03*
X2144D02*
D03*
D55*
X2614Y-226D02*
D03*
Y-159D02*
D03*
X1261Y-478D02*
D03*
Y-544D02*
D03*
D56*
X2378Y-460D02*
D03*
Y-645D02*
D03*
D57*
X2442Y-1650D02*
D03*
X2257D02*
D03*
D58*
X2599Y-649D02*
D03*
Y-487D02*
D03*
D59*
X3063Y-849D02*
D03*
Y-749D02*
D03*
Y-942D02*
D03*
Y-1042D02*
D03*
D60*
X1590Y-254D02*
D03*
Y-304D02*
D03*
Y-354D02*
D03*
Y-404D02*
D03*
Y-454D02*
D03*
Y-504D02*
D03*
Y-554D02*
D03*
Y-604D02*
D03*
Y-654D02*
D03*
Y-704D02*
D03*
Y-754D02*
D03*
Y-804D02*
D03*
Y-854D02*
D03*
Y-904D02*
D03*
X1946Y-254D02*
D03*
Y-304D02*
D03*
Y-354D02*
D03*
Y-404D02*
D03*
Y-454D02*
D03*
Y-504D02*
D03*
Y-554D02*
D03*
Y-604D02*
D03*
Y-654D02*
D03*
Y-704D02*
D03*
Y-754D02*
D03*
Y-804D02*
D03*
Y-854D02*
D03*
Y-904D02*
D03*
D61*
X3071Y-630D02*
D03*
X2831D02*
D03*
X3071Y-181D02*
D03*
X2831D02*
D03*
D62*
X1136Y-1485D02*
D03*
X1173D02*
D03*
X1211D02*
D03*
Y-1397D02*
D03*
X1136D02*
D03*
X1392Y-958D02*
D03*
X1317D02*
D03*
Y-869D02*
D03*
X1354D02*
D03*
X1392D02*
D03*
D63*
X2293Y-252D02*
D03*
D64*
X2518Y-161D02*
D03*
Y-252D02*
D03*
Y-343D02*
D03*
D65*
X2434Y-1078D02*
D03*
Y-1178D02*
D03*
Y-1278D02*
D03*
Y-1378D02*
D03*
X1909D02*
D03*
Y-1278D02*
D03*
Y-1178D02*
D03*
Y-1078D02*
D03*
D66*
X1442Y-669D02*
D03*
Y-650D02*
D03*
Y-630D02*
D03*
Y-610D02*
D03*
Y-591D02*
D03*
X1267Y-669D02*
D03*
Y-650D02*
D03*
Y-630D02*
D03*
Y-610D02*
D03*
Y-591D02*
D03*
D67*
X1320Y-1590D02*
D03*
X1531Y-1740D02*
D03*
Y-1640D02*
D03*
Y-1590D02*
D03*
X1320Y-1740D02*
D03*
X1531Y-1690D02*
D03*
X1320D02*
D03*
Y-1640D02*
D03*
D68*
X1130Y-553D02*
D03*
Y-486D02*
D03*
X1138Y-793D02*
D03*
Y-726D02*
D03*
X1457Y-1093D02*
D03*
Y-1152D02*
D03*
X1472Y-947D02*
D03*
Y-888D02*
D03*
D69*
X885Y-498D02*
D03*
Y-423D02*
D03*
X973D02*
D03*
Y-461D02*
D03*
Y-498D02*
D03*
X881Y-250D02*
D03*
Y-175D02*
D03*
X969D02*
D03*
Y-213D02*
D03*
Y-250D02*
D03*
X1080Y-1719D02*
D03*
Y-1681D02*
D03*
Y-1644D02*
D03*
X991D02*
D03*
Y-1719D02*
D03*
D70*
X671Y-1209D02*
D03*
X421D02*
D03*
X171D02*
D03*
Y-760D02*
D03*
X421D02*
D03*
X671D02*
D03*
D71*
X853Y-984D02*
D03*
X2894Y-406D02*
D03*
X3071D02*
D03*
D72*
X2947Y-1244D02*
D03*
Y-1694D02*
D03*
D73*
X2597Y-1294D02*
D03*
Y-1594D02*
D03*
X2697Y-1344D02*
D03*
X2597Y-1394D02*
D03*
Y-1494D02*
D03*
X2697Y-1444D02*
D03*
Y-1544D02*
D03*
D74*
Y-1644D02*
D03*
D75*
X3066Y-1776D02*
D03*
Y-1162D02*
D03*
M02*
