%FSLAX23Y23*%
%MOIN*%
G70*
G01*
G75*
G04 Layer_Color=32896*
%ADD10R,0.155X0.125*%
%ADD11R,0.033X0.031*%
%ADD12R,0.031X0.033*%
%ADD13R,0.043X0.055*%
%ADD14R,0.035X0.049*%
%ADD15R,0.049X0.035*%
%ADD16R,0.031X0.118*%
%ADD17R,0.118X0.031*%
%ADD18R,0.071X0.094*%
%ADD19R,0.125X0.050*%
%ADD20R,0.079X0.024*%
%ADD21R,0.094X0.110*%
%ADD22R,0.024X0.033*%
%ADD23R,0.083X0.130*%
%ADD24R,0.083X0.035*%
%ADD25R,0.120X0.050*%
%ADD26R,0.041X0.010*%
%ADD27R,0.081X0.024*%
%ADD28R,0.055X0.043*%
%ADD29R,0.033X0.024*%
%ADD30C,0.007*%
%ADD31C,0.010*%
%ADD32C,0.020*%
%ADD33C,0.050*%
%ADD34C,0.030*%
%ADD35C,0.118*%
%ADD36C,0.116*%
%ADD37C,0.059*%
%ADD38R,0.059X0.059*%
%ADD39C,0.100*%
%ADD40C,0.026*%
%ADD41C,0.004*%
%ADD42C,0.020*%
%ADD43C,0.024*%
%ADD44C,0.010*%
%ADD45C,0.012*%
%ADD46C,0.008*%
%ADD47C,0.008*%
%ADD48C,0.006*%
%ADD49C,0.005*%
%ADD50R,0.163X0.133*%
%ADD51R,0.041X0.039*%
%ADD52R,0.039X0.041*%
%ADD53R,0.051X0.063*%
%ADD54R,0.043X0.057*%
%ADD55R,0.057X0.043*%
%ADD56R,0.039X0.126*%
%ADD57R,0.126X0.039*%
%ADD58R,0.079X0.102*%
%ADD59R,0.133X0.058*%
%ADD60R,0.087X0.032*%
%ADD61R,0.102X0.118*%
%ADD62R,0.032X0.041*%
%ADD63R,0.091X0.138*%
%ADD64R,0.091X0.043*%
%ADD65R,0.128X0.058*%
%ADD66R,0.049X0.018*%
%ADD67R,0.089X0.032*%
%ADD68R,0.063X0.051*%
%ADD69R,0.041X0.032*%
%ADD70C,0.126*%
%ADD71C,0.008*%
%ADD72C,0.124*%
%ADD73C,0.067*%
%ADD74R,0.067X0.067*%
%ADD75C,0.108*%
G36*
X1487Y-1415D02*
X1489Y-1415D01*
X1491Y-1416D01*
X1493Y-1416D01*
X1494Y-1416D01*
X1495Y-1417D01*
X1496Y-1417D01*
X1496Y-1417D01*
X1496Y-1417D01*
X1496D01*
X1498Y-1417D01*
X1500Y-1418D01*
X1501Y-1419D01*
X1503Y-1420D01*
X1504Y-1420D01*
X1504Y-1421D01*
X1505Y-1421D01*
X1505Y-1421D01*
X1506Y-1422D01*
X1507Y-1424D01*
X1508Y-1425D01*
X1509Y-1426D01*
X1510Y-1426D01*
X1510Y-1427D01*
X1510Y-1428D01*
X1510Y-1428D01*
X1511Y-1429D01*
X1511Y-1430D01*
X1512Y-1432D01*
X1512Y-1433D01*
X1512Y-1434D01*
X1512Y-1435D01*
Y-1435D01*
Y-1435D01*
X1512Y-1438D01*
X1512Y-1440D01*
X1511Y-1441D01*
X1511Y-1443D01*
X1510Y-1444D01*
X1510Y-1445D01*
X1510Y-1446D01*
X1510Y-1446D01*
Y-1446D01*
X1508Y-1447D01*
X1507Y-1449D01*
X1506Y-1450D01*
X1504Y-1451D01*
X1503Y-1452D01*
X1501Y-1453D01*
X1501Y-1453D01*
X1501Y-1453D01*
X1500Y-1454D01*
X1500D01*
Y-1454D01*
X1503Y-1455D01*
X1505Y-1456D01*
X1507Y-1457D01*
X1508Y-1459D01*
X1509Y-1460D01*
X1510Y-1460D01*
X1510Y-1461D01*
X1511Y-1461D01*
X1512Y-1463D01*
X1513Y-1465D01*
X1513Y-1466D01*
X1514Y-1468D01*
X1514Y-1470D01*
X1514Y-1471D01*
X1514Y-1471D01*
Y-1471D01*
Y-1472D01*
Y-1472D01*
X1514Y-1473D01*
X1514Y-1475D01*
X1514Y-1476D01*
X1513Y-1478D01*
X1513Y-1479D01*
X1513Y-1480D01*
X1513Y-1480D01*
X1513Y-1480D01*
X1512Y-1482D01*
X1511Y-1483D01*
X1510Y-1484D01*
X1509Y-1485D01*
X1508Y-1486D01*
X1508Y-1487D01*
X1507Y-1487D01*
X1507Y-1487D01*
X1506Y-1488D01*
X1504Y-1489D01*
X1503Y-1490D01*
X1501Y-1491D01*
X1500Y-1491D01*
X1499Y-1492D01*
X1498Y-1492D01*
X1498Y-1492D01*
X1498Y-1492D01*
X1498D01*
X1496Y-1493D01*
X1493Y-1493D01*
X1491Y-1493D01*
X1489Y-1494D01*
X1487Y-1494D01*
X1487D01*
X1486Y-1494D01*
X1485D01*
X1482Y-1494D01*
X1480Y-1493D01*
X1478Y-1493D01*
X1476Y-1493D01*
X1474Y-1493D01*
X1473Y-1493D01*
X1473Y-1492D01*
X1473Y-1492D01*
X1472D01*
X1472Y-1492D01*
X1472D01*
X1470Y-1491D01*
X1468Y-1491D01*
X1467Y-1490D01*
X1465Y-1489D01*
X1464Y-1488D01*
X1463Y-1488D01*
X1463Y-1487D01*
X1463Y-1487D01*
X1461Y-1486D01*
X1460Y-1485D01*
X1459Y-1484D01*
X1458Y-1483D01*
X1458Y-1482D01*
X1457Y-1481D01*
X1457Y-1480D01*
X1457Y-1480D01*
X1456Y-1479D01*
X1456Y-1477D01*
X1455Y-1475D01*
X1455Y-1474D01*
X1455Y-1473D01*
X1455Y-1472D01*
Y-1471D01*
Y-1471D01*
X1455Y-1469D01*
X1455Y-1466D01*
X1456Y-1464D01*
X1457Y-1463D01*
X1457Y-1461D01*
X1458Y-1460D01*
X1458Y-1460D01*
X1458Y-1460D01*
X1458Y-1460D01*
Y-1459D01*
X1460Y-1458D01*
X1462Y-1456D01*
X1463Y-1455D01*
X1465Y-1453D01*
X1467Y-1453D01*
X1467Y-1452D01*
X1468Y-1452D01*
X1469Y-1452D01*
X1469Y-1452D01*
X1469Y-1451D01*
X1469D01*
Y-1451D01*
X1467Y-1450D01*
X1465Y-1449D01*
X1463Y-1448D01*
X1462Y-1446D01*
X1461Y-1445D01*
X1460Y-1445D01*
X1460Y-1444D01*
X1460Y-1444D01*
X1459Y-1442D01*
X1458Y-1441D01*
X1457Y-1439D01*
X1457Y-1437D01*
X1457Y-1436D01*
X1457Y-1435D01*
Y-1435D01*
Y-1434D01*
Y-1434D01*
Y-1434D01*
X1457Y-1433D01*
X1457Y-1431D01*
X1457Y-1430D01*
X1458Y-1429D01*
X1458Y-1428D01*
X1458Y-1427D01*
X1458Y-1427D01*
X1459Y-1427D01*
X1459Y-1425D01*
X1460Y-1424D01*
X1461Y-1423D01*
X1462Y-1422D01*
X1463Y-1422D01*
X1463Y-1421D01*
X1464Y-1421D01*
X1464Y-1421D01*
X1465Y-1420D01*
X1466Y-1419D01*
X1468Y-1418D01*
X1469Y-1418D01*
X1470Y-1417D01*
X1471Y-1417D01*
X1472Y-1417D01*
X1472Y-1417D01*
X1472D01*
X1474Y-1416D01*
X1476Y-1416D01*
X1478Y-1416D01*
X1480Y-1415D01*
X1482Y-1415D01*
X1483Y-1415D01*
X1484D01*
X1487Y-1415D01*
D02*
G37*
G36*
X1478Y-1321D02*
X1459D01*
Y-1307D01*
X1478D01*
Y-1321D01*
D02*
G37*
G36*
X1227D02*
X1209D01*
Y-1307D01*
X1227D01*
Y-1321D01*
D02*
G37*
G36*
X1030Y-1418D02*
X1030Y-1419D01*
X1030Y-1420D01*
X1031Y-1420D01*
X1031Y-1421D01*
X1031Y-1421D01*
X1031Y-1422D01*
X1031Y-1422D01*
X1032Y-1423D01*
X1034Y-1424D01*
X1034Y-1424D01*
X1035Y-1425D01*
X1035Y-1425D01*
X1035Y-1425D01*
X1036Y-1425D01*
X1037Y-1426D01*
X1039Y-1426D01*
X1039Y-1426D01*
X1040Y-1426D01*
X1040Y-1426D01*
X1041D01*
X1043Y-1427D01*
X1044Y-1427D01*
X1045D01*
X1046Y-1427D01*
X1047D01*
Y-1439D01*
X1032D01*
Y-1479D01*
X1047D01*
Y-1492D01*
X998D01*
Y-1479D01*
X1013D01*
Y-1417D01*
X1030D01*
X1030Y-1418D01*
D02*
G37*
G36*
X1553Y-1415D02*
X1556Y-1416D01*
X1558Y-1416D01*
X1560Y-1416D01*
X1561Y-1417D01*
X1562Y-1417D01*
X1563Y-1417D01*
X1563Y-1417D01*
X1563Y-1418D01*
X1564Y-1418D01*
X1564D01*
X1566Y-1419D01*
X1567Y-1420D01*
X1569Y-1421D01*
X1570Y-1422D01*
X1571Y-1424D01*
X1572Y-1424D01*
X1572Y-1425D01*
X1573Y-1425D01*
Y-1425D01*
X1574Y-1427D01*
X1575Y-1429D01*
X1576Y-1431D01*
X1577Y-1433D01*
X1577Y-1435D01*
X1577Y-1436D01*
X1578Y-1436D01*
X1578Y-1437D01*
X1578Y-1437D01*
X1578Y-1437D01*
Y-1437D01*
X1578Y-1440D01*
X1579Y-1443D01*
X1579Y-1446D01*
X1579Y-1448D01*
X1579Y-1450D01*
Y-1451D01*
X1579Y-1452D01*
Y-1453D01*
Y-1453D01*
Y-1454D01*
Y-1454D01*
Y-1454D01*
X1579Y-1458D01*
X1579Y-1461D01*
X1579Y-1464D01*
X1579Y-1465D01*
X1579Y-1466D01*
X1578Y-1468D01*
X1578Y-1469D01*
X1578Y-1469D01*
X1578Y-1470D01*
X1578Y-1471D01*
Y-1471D01*
X1578Y-1471D01*
Y-1471D01*
X1577Y-1474D01*
X1576Y-1476D01*
X1576Y-1478D01*
X1575Y-1480D01*
X1574Y-1482D01*
X1573Y-1483D01*
X1573Y-1483D01*
X1573Y-1483D01*
X1573Y-1483D01*
Y-1484D01*
X1571Y-1485D01*
X1570Y-1487D01*
X1568Y-1488D01*
X1567Y-1489D01*
X1566Y-1490D01*
X1565Y-1491D01*
X1564Y-1491D01*
X1564Y-1491D01*
X1564Y-1491D01*
X1564D01*
X1562Y-1492D01*
X1559Y-1493D01*
X1557Y-1493D01*
X1555Y-1493D01*
X1553Y-1493D01*
X1552D01*
X1552Y-1494D01*
X1550D01*
X1548Y-1493D01*
X1545Y-1493D01*
X1543Y-1493D01*
X1541Y-1492D01*
X1539Y-1492D01*
X1538Y-1492D01*
X1538Y-1491D01*
X1538Y-1491D01*
X1537Y-1491D01*
X1537Y-1491D01*
X1537D01*
X1535Y-1490D01*
X1533Y-1489D01*
X1532Y-1488D01*
X1530Y-1486D01*
X1529Y-1485D01*
X1529Y-1485D01*
X1528Y-1484D01*
X1528Y-1484D01*
Y-1484D01*
X1527Y-1482D01*
X1526Y-1480D01*
X1525Y-1478D01*
X1524Y-1476D01*
X1524Y-1474D01*
X1523Y-1473D01*
X1523Y-1473D01*
X1523Y-1472D01*
X1523Y-1472D01*
X1523Y-1472D01*
Y-1471D01*
X1523Y-1469D01*
X1522Y-1466D01*
X1522Y-1463D01*
X1522Y-1460D01*
X1521Y-1459D01*
Y-1458D01*
X1521Y-1457D01*
Y-1456D01*
Y-1455D01*
Y-1455D01*
Y-1455D01*
Y-1454D01*
X1521Y-1451D01*
X1522Y-1448D01*
X1522Y-1445D01*
X1522Y-1444D01*
X1522Y-1442D01*
X1522Y-1441D01*
X1522Y-1440D01*
X1523Y-1440D01*
X1523Y-1439D01*
X1523Y-1438D01*
Y-1438D01*
X1523Y-1438D01*
Y-1438D01*
X1524Y-1435D01*
X1524Y-1433D01*
X1525Y-1431D01*
X1526Y-1429D01*
X1527Y-1427D01*
X1527Y-1426D01*
X1528Y-1426D01*
X1528Y-1426D01*
X1528Y-1425D01*
Y-1425D01*
X1529Y-1424D01*
X1531Y-1422D01*
X1532Y-1421D01*
X1534Y-1420D01*
X1535Y-1419D01*
X1536Y-1418D01*
X1536Y-1418D01*
X1537Y-1418D01*
X1537Y-1418D01*
X1537D01*
X1539Y-1417D01*
X1541Y-1416D01*
X1544Y-1416D01*
X1546Y-1415D01*
X1548Y-1415D01*
X1548D01*
X1549Y-1415D01*
X1550D01*
X1553Y-1415D01*
D02*
G37*
G36*
X1159D02*
X1162Y-1416D01*
X1164Y-1416D01*
X1166Y-1416D01*
X1167Y-1417D01*
X1168Y-1417D01*
X1168Y-1417D01*
X1169Y-1417D01*
X1169Y-1418D01*
X1169Y-1418D01*
X1169D01*
X1171Y-1419D01*
X1173Y-1420D01*
X1175Y-1421D01*
X1176Y-1422D01*
X1177Y-1424D01*
X1178Y-1424D01*
X1178Y-1425D01*
X1178Y-1425D01*
Y-1425D01*
X1180Y-1427D01*
X1181Y-1429D01*
X1182Y-1431D01*
X1182Y-1433D01*
X1183Y-1435D01*
X1183Y-1436D01*
X1183Y-1436D01*
X1183Y-1437D01*
X1184Y-1437D01*
X1184Y-1437D01*
Y-1437D01*
X1184Y-1440D01*
X1185Y-1443D01*
X1185Y-1446D01*
X1185Y-1448D01*
X1185Y-1450D01*
Y-1451D01*
X1185Y-1452D01*
Y-1453D01*
Y-1453D01*
Y-1454D01*
Y-1454D01*
Y-1454D01*
X1185Y-1458D01*
X1185Y-1461D01*
X1185Y-1464D01*
X1185Y-1465D01*
X1184Y-1466D01*
X1184Y-1468D01*
X1184Y-1469D01*
X1184Y-1469D01*
X1184Y-1470D01*
X1184Y-1471D01*
Y-1471D01*
X1184Y-1471D01*
Y-1471D01*
X1183Y-1474D01*
X1182Y-1476D01*
X1181Y-1478D01*
X1180Y-1480D01*
X1180Y-1482D01*
X1179Y-1483D01*
X1179Y-1483D01*
X1179Y-1483D01*
X1179Y-1483D01*
Y-1484D01*
X1177Y-1485D01*
X1176Y-1487D01*
X1174Y-1488D01*
X1173Y-1489D01*
X1171Y-1490D01*
X1171Y-1491D01*
X1170Y-1491D01*
X1170Y-1491D01*
X1170Y-1491D01*
X1170D01*
X1167Y-1492D01*
X1165Y-1493D01*
X1163Y-1493D01*
X1161Y-1493D01*
X1159Y-1493D01*
X1158D01*
X1158Y-1494D01*
X1156D01*
X1153Y-1493D01*
X1151Y-1493D01*
X1148Y-1493D01*
X1147Y-1492D01*
X1145Y-1492D01*
X1144Y-1492D01*
X1144Y-1491D01*
X1143Y-1491D01*
X1143Y-1491D01*
X1143Y-1491D01*
X1143D01*
X1141Y-1490D01*
X1139Y-1489D01*
X1137Y-1488D01*
X1136Y-1486D01*
X1135Y-1485D01*
X1134Y-1485D01*
X1134Y-1484D01*
X1134Y-1484D01*
Y-1484D01*
X1133Y-1482D01*
X1132Y-1480D01*
X1131Y-1478D01*
X1130Y-1476D01*
X1129Y-1474D01*
X1129Y-1473D01*
X1129Y-1473D01*
X1129Y-1472D01*
X1129Y-1472D01*
X1129Y-1472D01*
Y-1471D01*
X1128Y-1469D01*
X1128Y-1466D01*
X1128Y-1463D01*
X1127Y-1460D01*
X1127Y-1459D01*
Y-1458D01*
X1127Y-1457D01*
Y-1456D01*
Y-1455D01*
Y-1455D01*
Y-1455D01*
Y-1454D01*
X1127Y-1451D01*
X1127Y-1448D01*
X1128Y-1445D01*
X1128Y-1444D01*
X1128Y-1442D01*
X1128Y-1441D01*
X1128Y-1440D01*
X1128Y-1440D01*
X1129Y-1439D01*
X1129Y-1438D01*
Y-1438D01*
X1129Y-1438D01*
Y-1438D01*
X1129Y-1435D01*
X1130Y-1433D01*
X1131Y-1431D01*
X1132Y-1429D01*
X1133Y-1427D01*
X1133Y-1426D01*
X1133Y-1426D01*
X1134Y-1426D01*
X1134Y-1425D01*
Y-1425D01*
X1135Y-1424D01*
X1137Y-1422D01*
X1138Y-1421D01*
X1140Y-1420D01*
X1141Y-1419D01*
X1142Y-1418D01*
X1142Y-1418D01*
X1142Y-1418D01*
X1143Y-1418D01*
X1143D01*
X1145Y-1417D01*
X1147Y-1416D01*
X1149Y-1416D01*
X1151Y-1415D01*
X1153Y-1415D01*
X1154D01*
X1155Y-1415D01*
X1156D01*
X1159Y-1415D01*
D02*
G37*
G36*
X1141Y-1386D02*
X1123D01*
Y-1365D01*
X1121Y-1361D01*
X1105Y-1386D01*
X1084D01*
X1106Y-1354D01*
X1086Y-1329D01*
X1107D01*
X1123Y-1351D01*
Y-1307D01*
X1141D01*
Y-1386D01*
D02*
G37*
G36*
X1433D02*
X1414D01*
X1393Y-1329D01*
X1411D01*
X1423Y-1367D01*
X1435Y-1329D01*
X1453D01*
X1433Y-1386D01*
D02*
G37*
G36*
X448D02*
X429D01*
X408Y-1329D01*
X426D01*
X438Y-1367D01*
X449Y-1329D01*
X468D01*
X448Y-1386D01*
D02*
G37*
G36*
X554Y-1321D02*
X536D01*
Y-1307D01*
X554D01*
Y-1321D01*
D02*
G37*
G36*
X1061Y-1328D02*
X1062Y-1328D01*
X1064Y-1328D01*
X1065Y-1329D01*
X1067Y-1329D01*
X1068Y-1329D01*
X1068Y-1330D01*
X1068Y-1330D01*
X1068D01*
X1070Y-1331D01*
X1071Y-1331D01*
X1073Y-1332D01*
X1074Y-1333D01*
X1075Y-1334D01*
X1075Y-1335D01*
X1076Y-1335D01*
X1076Y-1335D01*
X1077Y-1337D01*
X1078Y-1338D01*
X1079Y-1340D01*
X1080Y-1341D01*
X1080Y-1342D01*
X1081Y-1343D01*
X1081Y-1344D01*
X1081Y-1344D01*
X1081Y-1344D01*
Y-1344D01*
X1082Y-1346D01*
X1082Y-1348D01*
X1082Y-1350D01*
X1083Y-1352D01*
X1083Y-1354D01*
Y-1355D01*
X1083Y-1355D01*
Y-1356D01*
Y-1356D01*
Y-1356D01*
Y-1356D01*
X1083Y-1359D01*
X1083Y-1361D01*
X1082Y-1364D01*
X1082Y-1366D01*
X1081Y-1368D01*
X1081Y-1370D01*
X1080Y-1371D01*
X1080Y-1373D01*
X1079Y-1374D01*
X1079Y-1375D01*
X1078Y-1376D01*
X1078Y-1377D01*
X1077Y-1377D01*
X1077Y-1378D01*
X1077Y-1378D01*
X1077Y-1378D01*
X1076Y-1379D01*
X1074Y-1380D01*
X1073Y-1381D01*
X1072Y-1382D01*
X1070Y-1383D01*
X1069Y-1383D01*
X1066Y-1384D01*
X1065Y-1385D01*
X1064Y-1385D01*
X1063Y-1385D01*
X1062Y-1385D01*
X1061Y-1385D01*
X1060D01*
X1058Y-1385D01*
X1057Y-1385D01*
X1055Y-1385D01*
X1054Y-1384D01*
X1053Y-1384D01*
X1052Y-1384D01*
X1052Y-1384D01*
X1052Y-1384D01*
X1050Y-1383D01*
X1049Y-1382D01*
X1048Y-1382D01*
X1047Y-1381D01*
X1046Y-1380D01*
X1045Y-1380D01*
X1045Y-1380D01*
X1045Y-1379D01*
Y-1380D01*
Y-1382D01*
X1045Y-1383D01*
X1045Y-1384D01*
X1045Y-1385D01*
X1045Y-1385D01*
X1045Y-1386D01*
X1045Y-1386D01*
Y-1386D01*
X1046Y-1388D01*
X1046Y-1389D01*
X1047Y-1389D01*
X1047Y-1390D01*
X1047Y-1390D01*
X1047Y-1390D01*
X1048Y-1390D01*
X1048Y-1391D01*
X1049Y-1392D01*
X1050Y-1392D01*
X1051Y-1393D01*
X1052Y-1393D01*
X1052Y-1393D01*
X1052D01*
X1053Y-1393D01*
X1055Y-1394D01*
X1056Y-1394D01*
X1057Y-1394D01*
X1058D01*
X1059Y-1394D01*
X1060D01*
X1061Y-1394D01*
X1063Y-1394D01*
X1063Y-1394D01*
X1064D01*
X1064Y-1394D01*
X1064D01*
X1065Y-1393D01*
X1067Y-1393D01*
X1067Y-1393D01*
X1068Y-1393D01*
X1068Y-1393D01*
X1068D01*
X1070Y-1392D01*
X1071Y-1392D01*
X1071Y-1392D01*
X1071Y-1392D01*
X1072Y-1392D01*
X1072D01*
X1073Y-1391D01*
X1074Y-1391D01*
X1074Y-1391D01*
X1075Y-1391D01*
X1075Y-1391D01*
X1077D01*
Y-1405D01*
X1075Y-1405D01*
X1074Y-1405D01*
X1073Y-1406D01*
X1071Y-1406D01*
X1070Y-1406D01*
X1069Y-1406D01*
X1068Y-1407D01*
X1068D01*
X1064Y-1407D01*
X1063Y-1407D01*
X1061Y-1407D01*
X1059Y-1407D01*
X1057D01*
X1055Y-1407D01*
X1053Y-1407D01*
X1050Y-1407D01*
X1049Y-1407D01*
X1047Y-1406D01*
X1047Y-1406D01*
X1046Y-1406D01*
X1046Y-1406D01*
X1045D01*
X1045Y-1406D01*
X1045D01*
X1043Y-1405D01*
X1041Y-1405D01*
X1040Y-1404D01*
X1038Y-1403D01*
X1037Y-1402D01*
X1036Y-1402D01*
X1036Y-1402D01*
X1036Y-1401D01*
X1034Y-1400D01*
X1033Y-1399D01*
X1032Y-1397D01*
X1031Y-1396D01*
X1030Y-1395D01*
X1030Y-1394D01*
X1030Y-1393D01*
X1029Y-1393D01*
X1029Y-1393D01*
Y-1393D01*
X1029Y-1391D01*
X1028Y-1388D01*
X1028Y-1386D01*
X1027Y-1384D01*
X1027Y-1382D01*
Y-1382D01*
X1027Y-1381D01*
Y-1380D01*
Y-1380D01*
Y-1380D01*
Y-1380D01*
Y-1329D01*
X1044D01*
X1045Y-1332D01*
X1047Y-1331D01*
X1048Y-1330D01*
X1049Y-1330D01*
X1050Y-1329D01*
X1051Y-1329D01*
X1051Y-1329D01*
X1051D01*
X1053Y-1328D01*
X1054Y-1328D01*
X1055Y-1328D01*
X1056Y-1328D01*
X1057D01*
X1058Y-1328D01*
X1059D01*
X1061Y-1328D01*
D02*
G37*
G36*
X931D02*
X933Y-1328D01*
X935Y-1328D01*
X936Y-1328D01*
X937Y-1328D01*
X938Y-1329D01*
X938Y-1329D01*
X938D01*
X940Y-1329D01*
X942Y-1329D01*
X943Y-1330D01*
X945Y-1330D01*
X946Y-1330D01*
X946Y-1330D01*
X947Y-1331D01*
X947D01*
Y-1344D01*
X945D01*
X942Y-1343D01*
X941Y-1342D01*
X940Y-1342D01*
X939Y-1342D01*
X938Y-1341D01*
X937Y-1341D01*
X937D01*
X936Y-1341D01*
X934Y-1341D01*
X933Y-1340D01*
X932Y-1340D01*
X931D01*
X930Y-1340D01*
X930D01*
X927Y-1340D01*
X925Y-1340D01*
X924Y-1341D01*
X922Y-1341D01*
X921Y-1341D01*
X920Y-1342D01*
X920Y-1342D01*
X920Y-1342D01*
X918Y-1343D01*
X918Y-1344D01*
X917Y-1345D01*
X917Y-1346D01*
X916Y-1347D01*
X916Y-1348D01*
Y-1348D01*
Y-1348D01*
Y-1349D01*
Y-1349D01*
X919Y-1349D01*
X922Y-1349D01*
X924Y-1349D01*
X926Y-1350D01*
X927Y-1350D01*
X928Y-1350D01*
X929Y-1350D01*
X929D01*
X930Y-1350D01*
X930Y-1350D01*
X930D01*
X933Y-1351D01*
X935Y-1351D01*
X937Y-1352D01*
X939Y-1352D01*
X940Y-1353D01*
X941Y-1353D01*
X942Y-1353D01*
X942Y-1353D01*
X942D01*
X943Y-1354D01*
X945Y-1355D01*
X946Y-1356D01*
X947Y-1357D01*
X948Y-1358D01*
X949Y-1359D01*
X949Y-1359D01*
X949Y-1360D01*
X950Y-1361D01*
X950Y-1363D01*
X951Y-1365D01*
X951Y-1366D01*
X951Y-1368D01*
X951Y-1369D01*
Y-1369D01*
Y-1370D01*
Y-1370D01*
Y-1370D01*
X951Y-1371D01*
X951Y-1373D01*
X951Y-1375D01*
X950Y-1377D01*
X949Y-1379D01*
X948Y-1381D01*
X948Y-1381D01*
X947Y-1382D01*
X947Y-1382D01*
X947Y-1382D01*
X947Y-1382D01*
Y-1383D01*
X946Y-1383D01*
X945Y-1384D01*
X943Y-1385D01*
X940Y-1386D01*
X938Y-1387D01*
X937Y-1387D01*
X936Y-1387D01*
X935D01*
X935Y-1388D01*
X933D01*
X931Y-1387D01*
X930Y-1387D01*
X930Y-1387D01*
X929Y-1387D01*
X928Y-1387D01*
X928Y-1387D01*
X928D01*
X926Y-1386D01*
X925Y-1386D01*
X925Y-1386D01*
X924Y-1386D01*
X924Y-1385D01*
X923Y-1385D01*
X923D01*
X922Y-1385D01*
X922Y-1384D01*
X921Y-1384D01*
X920Y-1384D01*
X920Y-1383D01*
X920Y-1383D01*
X920Y-1383D01*
X920Y-1383D01*
X918Y-1382D01*
X917Y-1381D01*
X917Y-1381D01*
X916Y-1380D01*
X916Y-1380D01*
X916Y-1380D01*
Y-1386D01*
X898D01*
Y-1347D01*
X899Y-1346D01*
X899Y-1344D01*
X899Y-1342D01*
X900Y-1341D01*
X900Y-1339D01*
X901Y-1338D01*
X901Y-1337D01*
X902Y-1336D01*
X903Y-1335D01*
X903Y-1335D01*
X904Y-1334D01*
X904Y-1333D01*
X905Y-1333D01*
X905Y-1333D01*
X905Y-1333D01*
X905Y-1332D01*
X907Y-1332D01*
X908Y-1331D01*
X910Y-1330D01*
X911Y-1330D01*
X915Y-1329D01*
X918Y-1328D01*
X920Y-1328D01*
X921Y-1328D01*
X923Y-1328D01*
X924D01*
X925Y-1328D01*
X929D01*
X931Y-1328D01*
D02*
G37*
G36*
X1552Y-1584D02*
X1534D01*
Y-1527D01*
X1552D01*
Y-1584D01*
D02*
G37*
G36*
X1132Y-1526D02*
X1134Y-1526D01*
X1136Y-1526D01*
X1137Y-1526D01*
X1139Y-1527D01*
X1140Y-1527D01*
X1140Y-1527D01*
X1141D01*
X1141Y-1527D01*
X1141D01*
X1143Y-1528D01*
X1144Y-1529D01*
X1146Y-1529D01*
X1147Y-1530D01*
X1148Y-1530D01*
X1149Y-1531D01*
X1149Y-1531D01*
X1149Y-1531D01*
X1150Y-1532D01*
X1151Y-1533D01*
X1152Y-1534D01*
X1153Y-1535D01*
X1154Y-1536D01*
X1154Y-1537D01*
X1154Y-1537D01*
X1154Y-1537D01*
X1155Y-1539D01*
X1155Y-1540D01*
X1156Y-1541D01*
X1156Y-1542D01*
X1156Y-1543D01*
X1156Y-1544D01*
Y-1544D01*
Y-1545D01*
X1156Y-1547D01*
X1155Y-1549D01*
X1155Y-1551D01*
X1154Y-1552D01*
X1154Y-1553D01*
X1153Y-1554D01*
X1153Y-1555D01*
X1153Y-1555D01*
X1151Y-1557D01*
X1150Y-1558D01*
X1148Y-1559D01*
X1146Y-1560D01*
X1145Y-1560D01*
X1144Y-1561D01*
X1143Y-1561D01*
X1143Y-1561D01*
X1143Y-1561D01*
X1143D01*
X1141Y-1562D01*
X1140Y-1562D01*
X1139Y-1562D01*
X1138Y-1562D01*
X1138Y-1563D01*
X1137Y-1563D01*
X1137D01*
X1136Y-1563D01*
X1135Y-1563D01*
X1134Y-1563D01*
X1134Y-1563D01*
X1133Y-1563D01*
X1132Y-1564D01*
X1132Y-1564D01*
X1132D01*
X1131Y-1564D01*
X1130Y-1564D01*
X1129Y-1565D01*
X1128Y-1565D01*
X1128Y-1565D01*
X1127Y-1565D01*
X1127Y-1566D01*
X1127D01*
X1127Y-1566D01*
X1126Y-1567D01*
X1126Y-1568D01*
X1126Y-1568D01*
X1126Y-1568D01*
Y-1568D01*
Y-1569D01*
X1126Y-1570D01*
X1126Y-1570D01*
X1127Y-1571D01*
X1127Y-1571D01*
X1128Y-1572D01*
X1128Y-1572D01*
X1128Y-1572D01*
X1129Y-1572D01*
X1130Y-1573D01*
X1131Y-1573D01*
X1132Y-1573D01*
X1133Y-1573D01*
X1134D01*
X1134Y-1573D01*
X1136D01*
X1138Y-1573D01*
X1139Y-1573D01*
X1140Y-1573D01*
X1141Y-1573D01*
X1141Y-1573D01*
X1142Y-1573D01*
X1142D01*
X1144Y-1572D01*
X1145Y-1572D01*
X1146Y-1571D01*
X1147Y-1571D01*
X1147Y-1571D01*
X1147Y-1571D01*
X1147D01*
X1149Y-1570D01*
X1149Y-1570D01*
X1150Y-1569D01*
X1151Y-1569D01*
X1151Y-1569D01*
X1152Y-1568D01*
X1152Y-1568D01*
X1152D01*
X1153Y-1567D01*
X1154Y-1567D01*
X1155Y-1566D01*
X1155Y-1566D01*
X1156D01*
Y-1581D01*
X1155Y-1582D01*
X1153Y-1582D01*
X1152Y-1583D01*
X1150Y-1583D01*
X1149Y-1584D01*
X1148Y-1584D01*
X1148Y-1584D01*
X1147D01*
X1147Y-1584D01*
X1147D01*
X1145Y-1585D01*
X1143Y-1585D01*
X1141Y-1585D01*
X1139Y-1585D01*
X1137Y-1585D01*
X1137Y-1586D01*
X1135D01*
X1133Y-1585D01*
X1130Y-1585D01*
X1128Y-1585D01*
X1127Y-1585D01*
X1125Y-1585D01*
X1124Y-1584D01*
X1124Y-1584D01*
X1124D01*
X1124Y-1584D01*
X1123D01*
X1122Y-1583D01*
X1120Y-1583D01*
X1119Y-1582D01*
X1117Y-1582D01*
X1116Y-1581D01*
X1115Y-1580D01*
X1115Y-1580D01*
X1115Y-1580D01*
X1114Y-1579D01*
X1112Y-1578D01*
X1112Y-1577D01*
X1111Y-1576D01*
X1110Y-1575D01*
X1110Y-1575D01*
X1110Y-1574D01*
X1109Y-1574D01*
X1109Y-1573D01*
X1108Y-1571D01*
X1108Y-1570D01*
X1108Y-1569D01*
X1108Y-1568D01*
X1108Y-1567D01*
Y-1567D01*
Y-1566D01*
X1108Y-1564D01*
X1108Y-1562D01*
X1109Y-1560D01*
X1109Y-1559D01*
X1110Y-1558D01*
X1110Y-1557D01*
X1111Y-1556D01*
X1111Y-1556D01*
X1112Y-1555D01*
X1114Y-1554D01*
X1115Y-1553D01*
X1117Y-1552D01*
X1118Y-1551D01*
X1119Y-1551D01*
X1119Y-1551D01*
X1120Y-1550D01*
X1120Y-1550D01*
X1120D01*
X1122Y-1550D01*
X1123Y-1550D01*
X1124Y-1549D01*
X1125Y-1549D01*
X1125Y-1549D01*
X1126Y-1549D01*
X1126D01*
X1128Y-1549D01*
X1129Y-1548D01*
X1129Y-1548D01*
X1130Y-1548D01*
X1131Y-1548D01*
X1131Y-1548D01*
X1131D01*
X1132Y-1547D01*
X1134Y-1547D01*
X1135Y-1547D01*
X1135Y-1546D01*
X1136Y-1546D01*
X1136Y-1546D01*
X1137Y-1546D01*
X1137D01*
X1137Y-1545D01*
X1137Y-1545D01*
X1138Y-1544D01*
X1138Y-1543D01*
X1138Y-1543D01*
Y-1543D01*
Y-1543D01*
X1138Y-1542D01*
X1138Y-1541D01*
X1137Y-1541D01*
X1137Y-1540D01*
X1136Y-1540D01*
X1136Y-1539D01*
X1135Y-1539D01*
X1135Y-1539D01*
X1134Y-1539D01*
X1133Y-1538D01*
X1132Y-1538D01*
X1131Y-1538D01*
X1130Y-1538D01*
X1130Y-1538D01*
X1129D01*
X1127Y-1538D01*
X1126Y-1538D01*
X1125Y-1538D01*
X1124Y-1538D01*
X1124Y-1538D01*
X1123Y-1539D01*
X1123D01*
X1121Y-1539D01*
X1121Y-1539D01*
X1120Y-1540D01*
X1119Y-1540D01*
X1119Y-1540D01*
X1118Y-1540D01*
X1118D01*
X1117Y-1541D01*
X1116Y-1542D01*
X1115Y-1542D01*
X1115Y-1542D01*
X1115Y-1542D01*
X1114Y-1542D01*
X1113Y-1543D01*
X1112Y-1544D01*
X1112Y-1544D01*
X1112Y-1544D01*
X1110D01*
Y-1530D01*
X1111Y-1529D01*
X1113Y-1529D01*
X1114Y-1528D01*
X1116Y-1528D01*
X1117Y-1527D01*
X1118Y-1527D01*
X1118Y-1527D01*
X1119D01*
X1121Y-1527D01*
X1122Y-1526D01*
X1124Y-1526D01*
X1126Y-1526D01*
X1127D01*
X1129Y-1526D01*
X1130D01*
X1132Y-1526D01*
D02*
G37*
G36*
X1389Y-1415D02*
X1391Y-1415D01*
X1394Y-1416D01*
X1396Y-1416D01*
X1397Y-1416D01*
X1398Y-1416D01*
X1399Y-1417D01*
X1399Y-1417D01*
X1399Y-1417D01*
X1400Y-1417D01*
X1400D01*
X1402Y-1417D01*
X1404Y-1418D01*
X1406Y-1419D01*
X1407Y-1419D01*
X1408Y-1419D01*
X1409Y-1420D01*
X1410Y-1420D01*
X1410Y-1420D01*
Y-1436D01*
X1408D01*
X1407Y-1436D01*
X1407Y-1435D01*
X1406Y-1435D01*
X1406Y-1435D01*
X1406D01*
X1404Y-1434D01*
X1403Y-1433D01*
X1402Y-1433D01*
X1402Y-1432D01*
X1401Y-1432D01*
X1401D01*
X1399Y-1432D01*
X1398Y-1431D01*
X1398Y-1431D01*
X1397Y-1431D01*
X1396Y-1430D01*
X1396Y-1430D01*
X1396D01*
X1394Y-1430D01*
X1393Y-1430D01*
X1392Y-1430D01*
X1392Y-1430D01*
X1391D01*
X1389Y-1430D01*
X1387Y-1430D01*
X1385Y-1431D01*
X1384Y-1431D01*
X1383Y-1432D01*
X1382Y-1432D01*
X1382Y-1432D01*
X1382Y-1432D01*
X1381Y-1434D01*
X1380Y-1435D01*
X1379Y-1436D01*
X1379Y-1438D01*
X1379Y-1439D01*
X1379Y-1440D01*
Y-1440D01*
Y-1440D01*
Y-1441D01*
X1379Y-1442D01*
X1379Y-1444D01*
X1379Y-1445D01*
X1380Y-1447D01*
X1380Y-1448D01*
X1381Y-1449D01*
X1381Y-1449D01*
X1381Y-1450D01*
X1382Y-1451D01*
X1383Y-1453D01*
X1385Y-1455D01*
X1386Y-1456D01*
X1387Y-1458D01*
X1388Y-1459D01*
X1389Y-1459D01*
X1389Y-1460D01*
X1389Y-1460D01*
X1389Y-1460D01*
X1391Y-1461D01*
X1392Y-1463D01*
X1394Y-1465D01*
X1396Y-1466D01*
X1397Y-1468D01*
X1398Y-1468D01*
X1398Y-1469D01*
X1399Y-1469D01*
X1399Y-1469D01*
X1399Y-1469D01*
X1401Y-1471D01*
X1403Y-1473D01*
X1405Y-1475D01*
X1407Y-1476D01*
X1409Y-1478D01*
X1410Y-1478D01*
X1410Y-1479D01*
X1411Y-1479D01*
X1411Y-1480D01*
X1411Y-1480D01*
X1412Y-1480D01*
Y-1492D01*
X1356D01*
Y-1478D01*
X1388D01*
X1387Y-1477D01*
X1386Y-1476D01*
X1384Y-1475D01*
X1383Y-1474D01*
X1383Y-1473D01*
X1382Y-1473D01*
X1382Y-1473D01*
X1379Y-1470D01*
X1377Y-1469D01*
X1376Y-1468D01*
X1375Y-1466D01*
X1374Y-1466D01*
X1373Y-1465D01*
X1373Y-1465D01*
X1371Y-1462D01*
X1368Y-1460D01*
X1367Y-1457D01*
X1365Y-1455D01*
X1364Y-1454D01*
X1364Y-1453D01*
X1363Y-1452D01*
X1363Y-1452D01*
X1363Y-1452D01*
X1363Y-1451D01*
Y-1451D01*
X1362Y-1449D01*
X1361Y-1446D01*
X1360Y-1444D01*
X1360Y-1442D01*
X1360Y-1440D01*
X1360Y-1440D01*
X1360Y-1439D01*
Y-1439D01*
Y-1438D01*
Y-1438D01*
Y-1438D01*
X1360Y-1436D01*
X1360Y-1434D01*
X1360Y-1432D01*
X1361Y-1431D01*
X1361Y-1429D01*
X1362Y-1428D01*
X1362Y-1427D01*
X1363Y-1425D01*
X1364Y-1425D01*
X1364Y-1424D01*
X1365Y-1423D01*
X1365Y-1422D01*
X1366Y-1422D01*
X1366Y-1422D01*
X1366Y-1421D01*
X1366Y-1421D01*
X1368Y-1420D01*
X1369Y-1419D01*
X1371Y-1418D01*
X1373Y-1418D01*
X1374Y-1417D01*
X1376Y-1417D01*
X1379Y-1416D01*
X1381Y-1416D01*
X1382Y-1415D01*
X1383Y-1415D01*
X1385Y-1415D01*
X1386Y-1415D01*
X1387D01*
X1389Y-1415D01*
D02*
G37*
G36*
X1190Y-1526D02*
X1193Y-1526D01*
X1195Y-1526D01*
X1197Y-1527D01*
X1199Y-1527D01*
X1201Y-1528D01*
X1203Y-1529D01*
X1204Y-1530D01*
X1206Y-1530D01*
X1207Y-1531D01*
X1208Y-1532D01*
X1209Y-1532D01*
X1209Y-1533D01*
X1210Y-1534D01*
X1210Y-1534D01*
X1210Y-1534D01*
X1211Y-1535D01*
X1213Y-1537D01*
X1214Y-1539D01*
X1215Y-1541D01*
X1215Y-1543D01*
X1216Y-1545D01*
X1217Y-1546D01*
X1217Y-1548D01*
X1217Y-1550D01*
X1218Y-1551D01*
X1218Y-1553D01*
X1218Y-1554D01*
Y-1555D01*
X1218Y-1555D01*
Y-1556D01*
Y-1556D01*
X1218Y-1559D01*
X1218Y-1561D01*
X1217Y-1563D01*
X1217Y-1565D01*
X1216Y-1567D01*
X1215Y-1569D01*
X1215Y-1571D01*
X1214Y-1572D01*
X1213Y-1574D01*
X1212Y-1575D01*
X1211Y-1576D01*
X1211Y-1577D01*
X1210Y-1577D01*
X1210Y-1578D01*
X1210Y-1578D01*
X1210Y-1578D01*
X1208Y-1579D01*
X1206Y-1580D01*
X1204Y-1582D01*
X1202Y-1582D01*
X1200Y-1583D01*
X1198Y-1584D01*
X1196Y-1584D01*
X1194Y-1585D01*
X1192Y-1585D01*
X1190Y-1585D01*
X1189Y-1585D01*
X1188Y-1585D01*
X1187D01*
X1186Y-1586D01*
X1183D01*
X1182Y-1585D01*
X1181Y-1585D01*
X1180Y-1585D01*
X1179D01*
X1178Y-1585D01*
X1178Y-1585D01*
X1177D01*
X1175Y-1585D01*
X1174Y-1585D01*
X1173Y-1584D01*
X1173Y-1584D01*
X1172Y-1584D01*
X1172Y-1584D01*
X1172D01*
X1170Y-1584D01*
X1169Y-1583D01*
X1169Y-1583D01*
X1168Y-1583D01*
X1167Y-1583D01*
X1167Y-1583D01*
X1167Y-1583D01*
X1167D01*
X1165Y-1582D01*
X1164Y-1581D01*
X1163Y-1581D01*
X1163Y-1581D01*
X1163Y-1581D01*
X1163D01*
Y-1566D01*
X1164D01*
X1165Y-1567D01*
X1166Y-1568D01*
X1167Y-1568D01*
X1167Y-1568D01*
X1167Y-1568D01*
X1168Y-1568D01*
X1169Y-1569D01*
X1170Y-1570D01*
X1171Y-1570D01*
X1171Y-1570D01*
X1171Y-1570D01*
X1172D01*
X1173Y-1571D01*
X1174Y-1572D01*
X1175Y-1572D01*
X1176Y-1572D01*
X1177Y-1572D01*
X1177Y-1572D01*
X1177D01*
X1179Y-1573D01*
X1180Y-1573D01*
X1181D01*
X1182Y-1573D01*
X1183D01*
X1186Y-1573D01*
X1187Y-1573D01*
X1188Y-1573D01*
X1189Y-1572D01*
X1189Y-1572D01*
X1190Y-1572D01*
X1190D01*
X1191Y-1572D01*
X1192Y-1572D01*
X1193Y-1571D01*
X1193Y-1571D01*
X1194Y-1570D01*
X1195Y-1570D01*
X1195Y-1570D01*
X1195Y-1570D01*
X1196Y-1569D01*
X1197Y-1568D01*
X1198Y-1567D01*
X1198Y-1567D01*
X1198Y-1566D01*
X1199Y-1566D01*
X1199Y-1566D01*
X1199Y-1565D01*
X1200Y-1564D01*
X1200Y-1562D01*
X1200Y-1561D01*
X1200Y-1560D01*
Y-1560D01*
X1200Y-1559D01*
Y-1559D01*
X1162D01*
Y-1553D01*
X1162Y-1550D01*
X1162Y-1548D01*
X1162Y-1546D01*
X1163Y-1544D01*
X1163Y-1542D01*
X1164Y-1541D01*
X1164Y-1539D01*
X1165Y-1538D01*
X1165Y-1537D01*
X1166Y-1535D01*
X1167Y-1535D01*
X1167Y-1534D01*
X1168Y-1533D01*
X1168Y-1533D01*
X1168Y-1533D01*
X1168Y-1533D01*
X1169Y-1531D01*
X1171Y-1530D01*
X1172Y-1529D01*
X1174Y-1529D01*
X1176Y-1528D01*
X1177Y-1527D01*
X1180Y-1526D01*
X1182Y-1526D01*
X1183Y-1526D01*
X1185Y-1526D01*
X1186Y-1526D01*
X1187Y-1525D01*
X1188D01*
X1190Y-1526D01*
D02*
G37*
G36*
X1646Y-1584D02*
X1595D01*
Y-1570D01*
X1627D01*
Y-1551D01*
X1598D01*
Y-1536D01*
X1627D01*
Y-1523D01*
X1595D01*
Y-1509D01*
X1646D01*
Y-1584D01*
D02*
G37*
G36*
X1583D02*
X1566D01*
Y-1505D01*
X1583D01*
Y-1584D01*
D02*
G37*
G36*
X1444Y-1492D02*
X1426D01*
Y-1472D01*
X1444D01*
Y-1492D01*
D02*
G37*
G36*
X1280D02*
X1262D01*
Y-1472D01*
X1280D01*
Y-1492D01*
D02*
G37*
G36*
X1096Y-1418D02*
X1096Y-1419D01*
X1096Y-1420D01*
X1096Y-1420D01*
X1097Y-1421D01*
X1097Y-1421D01*
X1097Y-1422D01*
X1097Y-1422D01*
X1098Y-1423D01*
X1100Y-1424D01*
X1100Y-1424D01*
X1100Y-1425D01*
X1101Y-1425D01*
X1101Y-1425D01*
X1102Y-1425D01*
X1103Y-1426D01*
X1104Y-1426D01*
X1105Y-1426D01*
X1106Y-1426D01*
X1106Y-1426D01*
X1106D01*
X1109Y-1427D01*
X1110Y-1427D01*
X1111D01*
X1112Y-1427D01*
X1113D01*
Y-1439D01*
X1097D01*
Y-1479D01*
X1113D01*
Y-1492D01*
X1064D01*
Y-1479D01*
X1079D01*
Y-1417D01*
X1096D01*
X1096Y-1418D01*
D02*
G37*
G36*
X1225Y-1415D02*
X1227Y-1415D01*
X1229Y-1416D01*
X1231Y-1416D01*
X1233Y-1416D01*
X1234Y-1416D01*
X1234Y-1417D01*
X1235Y-1417D01*
X1235Y-1417D01*
X1236Y-1417D01*
X1236D01*
X1238Y-1417D01*
X1240Y-1418D01*
X1242Y-1419D01*
X1243Y-1419D01*
X1244Y-1419D01*
X1245Y-1420D01*
X1245Y-1420D01*
X1246Y-1420D01*
Y-1436D01*
X1244D01*
X1243Y-1436D01*
X1242Y-1435D01*
X1242Y-1435D01*
X1242Y-1435D01*
X1241D01*
X1240Y-1434D01*
X1239Y-1433D01*
X1238Y-1433D01*
X1237Y-1432D01*
X1237Y-1432D01*
X1237D01*
X1235Y-1432D01*
X1234Y-1431D01*
X1233Y-1431D01*
X1233Y-1431D01*
X1232Y-1430D01*
X1232Y-1430D01*
X1232D01*
X1230Y-1430D01*
X1229Y-1430D01*
X1228Y-1430D01*
X1227Y-1430D01*
X1226D01*
X1224Y-1430D01*
X1223Y-1430D01*
X1221Y-1431D01*
X1220Y-1431D01*
X1219Y-1432D01*
X1218Y-1432D01*
X1218Y-1432D01*
X1218Y-1432D01*
X1217Y-1434D01*
X1216Y-1435D01*
X1215Y-1436D01*
X1215Y-1438D01*
X1215Y-1439D01*
X1214Y-1440D01*
Y-1440D01*
Y-1440D01*
Y-1441D01*
X1214Y-1442D01*
X1215Y-1444D01*
X1215Y-1445D01*
X1216Y-1447D01*
X1216Y-1448D01*
X1216Y-1449D01*
X1217Y-1449D01*
X1217Y-1450D01*
X1218Y-1451D01*
X1219Y-1453D01*
X1221Y-1455D01*
X1222Y-1456D01*
X1223Y-1458D01*
X1224Y-1459D01*
X1224Y-1459D01*
X1225Y-1460D01*
X1225Y-1460D01*
X1225Y-1460D01*
X1227Y-1461D01*
X1228Y-1463D01*
X1230Y-1465D01*
X1231Y-1466D01*
X1233Y-1468D01*
X1234Y-1468D01*
X1234Y-1469D01*
X1235Y-1469D01*
X1235Y-1469D01*
X1235Y-1469D01*
X1237Y-1471D01*
X1239Y-1473D01*
X1241Y-1475D01*
X1243Y-1476D01*
X1245Y-1478D01*
X1246Y-1478D01*
X1246Y-1479D01*
X1247Y-1479D01*
X1247Y-1480D01*
X1247Y-1480D01*
X1247Y-1480D01*
Y-1492D01*
X1192D01*
Y-1478D01*
X1224D01*
X1223Y-1477D01*
X1222Y-1476D01*
X1220Y-1475D01*
X1219Y-1474D01*
X1219Y-1473D01*
X1218Y-1473D01*
X1218Y-1473D01*
X1215Y-1470D01*
X1213Y-1469D01*
X1212Y-1468D01*
X1211Y-1466D01*
X1210Y-1466D01*
X1209Y-1465D01*
X1209Y-1465D01*
X1206Y-1462D01*
X1204Y-1460D01*
X1203Y-1457D01*
X1201Y-1455D01*
X1200Y-1454D01*
X1199Y-1453D01*
X1199Y-1452D01*
X1199Y-1452D01*
X1199Y-1452D01*
X1199Y-1451D01*
Y-1451D01*
X1198Y-1449D01*
X1197Y-1446D01*
X1196Y-1444D01*
X1196Y-1442D01*
X1196Y-1440D01*
X1195Y-1440D01*
X1195Y-1439D01*
Y-1439D01*
Y-1438D01*
Y-1438D01*
Y-1438D01*
X1195Y-1436D01*
X1196Y-1434D01*
X1196Y-1432D01*
X1196Y-1431D01*
X1197Y-1429D01*
X1198Y-1428D01*
X1198Y-1427D01*
X1199Y-1425D01*
X1199Y-1425D01*
X1200Y-1424D01*
X1201Y-1423D01*
X1201Y-1422D01*
X1202Y-1422D01*
X1202Y-1422D01*
X1202Y-1421D01*
X1202Y-1421D01*
X1204Y-1420D01*
X1205Y-1419D01*
X1207Y-1418D01*
X1208Y-1418D01*
X1210Y-1417D01*
X1212Y-1417D01*
X1215Y-1416D01*
X1217Y-1416D01*
X1218Y-1415D01*
X1219Y-1415D01*
X1220Y-1415D01*
X1221Y-1415D01*
X1223D01*
X1225Y-1415D01*
D02*
G37*
G36*
X1313Y-1415D02*
X1317Y-1416D01*
X1318Y-1416D01*
X1320Y-1416D01*
X1321Y-1417D01*
X1322Y-1417D01*
X1323Y-1417D01*
X1324Y-1418D01*
X1325Y-1418D01*
X1326Y-1418D01*
X1327Y-1418D01*
X1327Y-1419D01*
X1327Y-1419D01*
X1327D01*
X1330Y-1420D01*
X1332Y-1421D01*
X1334Y-1423D01*
X1336Y-1424D01*
X1337Y-1425D01*
X1338Y-1426D01*
X1339Y-1427D01*
X1339Y-1427D01*
X1339Y-1427D01*
X1339Y-1427D01*
X1341Y-1430D01*
X1342Y-1432D01*
X1344Y-1434D01*
X1345Y-1436D01*
X1345Y-1438D01*
X1346Y-1439D01*
X1346Y-1440D01*
X1346Y-1440D01*
X1346Y-1441D01*
X1346Y-1441D01*
Y-1441D01*
X1347Y-1444D01*
X1347Y-1447D01*
X1348Y-1450D01*
X1348Y-1453D01*
X1348Y-1454D01*
X1348Y-1455D01*
Y-1456D01*
X1348Y-1457D01*
Y-1458D01*
Y-1458D01*
Y-1458D01*
Y-1458D01*
X1348Y-1462D01*
X1348Y-1465D01*
X1348Y-1468D01*
X1347Y-1469D01*
X1347Y-1470D01*
X1347Y-1471D01*
X1347Y-1472D01*
X1347Y-1473D01*
X1346Y-1474D01*
X1346Y-1474D01*
X1346Y-1475D01*
X1346Y-1475D01*
Y-1475D01*
X1345Y-1477D01*
X1344Y-1480D01*
X1343Y-1481D01*
X1342Y-1483D01*
X1341Y-1484D01*
X1340Y-1485D01*
X1340Y-1486D01*
X1340Y-1486D01*
X1338Y-1487D01*
X1337Y-1489D01*
X1335Y-1490D01*
X1334Y-1490D01*
X1333Y-1491D01*
X1332Y-1491D01*
X1331Y-1492D01*
X1331Y-1492D01*
X1331D01*
X1329Y-1492D01*
X1327Y-1493D01*
X1325Y-1493D01*
X1323Y-1493D01*
X1321Y-1493D01*
X1321D01*
X1320Y-1494D01*
X1319D01*
X1317Y-1493D01*
X1314Y-1493D01*
X1312Y-1493D01*
X1310Y-1492D01*
X1308Y-1492D01*
X1307Y-1491D01*
X1305Y-1490D01*
X1304Y-1490D01*
X1303Y-1489D01*
X1301Y-1488D01*
X1301Y-1488D01*
X1300Y-1487D01*
X1299Y-1487D01*
X1299Y-1486D01*
X1298Y-1486D01*
X1298Y-1486D01*
X1297Y-1485D01*
X1296Y-1483D01*
X1295Y-1481D01*
X1294Y-1480D01*
X1293Y-1478D01*
X1293Y-1476D01*
X1292Y-1475D01*
X1292Y-1473D01*
X1291Y-1472D01*
X1291Y-1471D01*
X1291Y-1470D01*
X1291Y-1468D01*
X1291Y-1468D01*
Y-1467D01*
Y-1467D01*
Y-1466D01*
X1291Y-1464D01*
X1291Y-1461D01*
X1292Y-1459D01*
X1292Y-1457D01*
X1292Y-1456D01*
X1293Y-1455D01*
X1293Y-1455D01*
X1293Y-1454D01*
X1293Y-1454D01*
Y-1454D01*
X1294Y-1452D01*
X1295Y-1451D01*
X1296Y-1449D01*
X1297Y-1448D01*
X1298Y-1447D01*
X1299Y-1447D01*
X1299Y-1446D01*
X1299Y-1446D01*
X1302Y-1445D01*
X1303Y-1444D01*
X1304Y-1444D01*
X1304Y-1443D01*
X1305Y-1443D01*
X1305Y-1443D01*
X1306D01*
X1307Y-1443D01*
X1308Y-1442D01*
X1310Y-1442D01*
X1311Y-1442D01*
X1312D01*
X1313Y-1442D01*
X1313D01*
X1315Y-1442D01*
X1317Y-1442D01*
X1318Y-1442D01*
X1319Y-1443D01*
X1320Y-1443D01*
X1321Y-1443D01*
X1322Y-1443D01*
X1322Y-1443D01*
X1325Y-1445D01*
X1326Y-1445D01*
X1327Y-1446D01*
X1328Y-1446D01*
X1329Y-1447D01*
X1329Y-1447D01*
X1329Y-1447D01*
X1329Y-1444D01*
X1328Y-1441D01*
X1327Y-1439D01*
X1326Y-1437D01*
X1325Y-1436D01*
X1325Y-1435D01*
X1324Y-1435D01*
X1324Y-1434D01*
X1324Y-1434D01*
X1323Y-1434D01*
X1323Y-1433D01*
X1322Y-1432D01*
X1319Y-1431D01*
X1317Y-1430D01*
X1315Y-1430D01*
X1313Y-1429D01*
X1312Y-1429D01*
X1311D01*
X1311Y-1429D01*
X1308D01*
X1307Y-1429D01*
X1306Y-1429D01*
X1305Y-1430D01*
X1304Y-1430D01*
X1303Y-1430D01*
X1303Y-1430D01*
X1303D01*
X1302Y-1430D01*
X1301Y-1431D01*
X1300Y-1431D01*
X1300Y-1431D01*
X1299Y-1431D01*
X1299Y-1431D01*
X1299Y-1431D01*
X1297D01*
Y-1417D01*
X1298Y-1417D01*
X1299Y-1416D01*
X1300Y-1416D01*
X1301Y-1416D01*
X1302Y-1416D01*
X1302Y-1416D01*
X1302D01*
X1305Y-1416D01*
X1306Y-1415D01*
X1307D01*
X1308Y-1415D01*
X1310D01*
X1313Y-1415D01*
D02*
G37*
G36*
X1628Y-1492D02*
X1608D01*
X1582Y-1417D01*
X1602D01*
X1618Y-1468D01*
X1634Y-1417D01*
X1654D01*
X1628Y-1492D01*
D02*
G37*
G36*
X554Y-1386D02*
X536D01*
Y-1329D01*
X554D01*
Y-1386D01*
D02*
G37*
G36*
X308Y-1329D02*
X308Y-1329D01*
X309Y-1329D01*
X310Y-1330D01*
X310Y-1330D01*
X311Y-1330D01*
X311D01*
X312Y-1331D01*
X313Y-1331D01*
X314Y-1331D01*
X314Y-1332D01*
X315Y-1332D01*
X315Y-1332D01*
X315Y-1332D01*
X316Y-1333D01*
X318Y-1334D01*
X318Y-1334D01*
X319Y-1334D01*
X319Y-1335D01*
X319Y-1335D01*
X320Y-1336D01*
X321Y-1337D01*
X322Y-1337D01*
X322Y-1337D01*
X322Y-1337D01*
Y-1329D01*
X340D01*
Y-1386D01*
X322D01*
Y-1348D01*
X320Y-1347D01*
X319Y-1347D01*
X318Y-1347D01*
X318Y-1346D01*
X317Y-1346D01*
X317Y-1346D01*
X316D01*
X314Y-1346D01*
X313Y-1346D01*
X312Y-1345D01*
X312Y-1345D01*
X309D01*
X308Y-1345D01*
X307D01*
X307Y-1346D01*
X306D01*
X305Y-1346D01*
X304Y-1346D01*
X304Y-1346D01*
X303Y-1346D01*
X302D01*
Y-1329D01*
X303Y-1329D01*
X304D01*
X305Y-1329D01*
X306D01*
X308Y-1329D01*
D02*
G37*
G36*
X807Y-1332D02*
X808Y-1331D01*
X809Y-1330D01*
X810Y-1330D01*
X811Y-1329D01*
X812Y-1329D01*
X813Y-1329D01*
X813Y-1329D01*
X813D01*
X814Y-1328D01*
X816Y-1328D01*
X817Y-1328D01*
X818Y-1328D01*
X819Y-1328D01*
X821D01*
X822Y-1328D01*
X824Y-1328D01*
X826Y-1328D01*
X827Y-1329D01*
X828Y-1329D01*
X829Y-1330D01*
X830Y-1330D01*
X830Y-1330D01*
X830D01*
X832Y-1331D01*
X833Y-1332D01*
X834Y-1333D01*
X835Y-1334D01*
X836Y-1334D01*
X837Y-1335D01*
X837Y-1336D01*
X837Y-1336D01*
X839Y-1337D01*
X840Y-1339D01*
X841Y-1341D01*
X841Y-1342D01*
X842Y-1343D01*
X842Y-1344D01*
X843Y-1345D01*
X843Y-1345D01*
X843Y-1345D01*
Y-1345D01*
X843Y-1347D01*
X844Y-1350D01*
X844Y-1352D01*
X844Y-1354D01*
X845Y-1355D01*
Y-1356D01*
X845Y-1357D01*
Y-1357D01*
Y-1358D01*
Y-1358D01*
Y-1358D01*
X845Y-1361D01*
X844Y-1363D01*
X844Y-1365D01*
X844Y-1367D01*
X843Y-1369D01*
X843Y-1371D01*
X842Y-1372D01*
X842Y-1374D01*
X841Y-1375D01*
X841Y-1376D01*
X840Y-1377D01*
X840Y-1378D01*
X840Y-1379D01*
X839Y-1379D01*
X839Y-1379D01*
X839Y-1380D01*
X838Y-1381D01*
X837Y-1382D01*
X836Y-1383D01*
X834Y-1384D01*
X833Y-1385D01*
X832Y-1386D01*
X830Y-1386D01*
X829Y-1387D01*
X828Y-1387D01*
X827Y-1387D01*
X826Y-1387D01*
X825Y-1387D01*
X825D01*
X824Y-1388D01*
X823D01*
X822Y-1387D01*
X821Y-1387D01*
X820Y-1387D01*
X819D01*
X819Y-1387D01*
X819Y-1387D01*
X819D01*
X817Y-1387D01*
X816Y-1386D01*
X815Y-1386D01*
X815Y-1386D01*
X815Y-1386D01*
X814D01*
X813Y-1385D01*
X812Y-1384D01*
X811Y-1384D01*
X811Y-1383D01*
X811Y-1383D01*
X811Y-1383D01*
X809Y-1382D01*
X808Y-1381D01*
X807Y-1381D01*
X807Y-1380D01*
X807Y-1380D01*
X807Y-1380D01*
Y-1386D01*
X789D01*
Y-1307D01*
X807D01*
Y-1332D01*
D02*
G37*
G36*
X1227Y-1386D02*
X1209D01*
Y-1329D01*
X1227D01*
Y-1386D01*
D02*
G37*
G36*
X853Y-1329D02*
X854Y-1329D01*
X854Y-1329D01*
X855Y-1330D01*
X856Y-1330D01*
X856Y-1330D01*
X856D01*
X858Y-1331D01*
X859Y-1331D01*
X859Y-1331D01*
X860Y-1332D01*
X860Y-1332D01*
X860Y-1332D01*
X860Y-1332D01*
X862Y-1333D01*
X863Y-1334D01*
X864Y-1334D01*
X864Y-1334D01*
X864Y-1335D01*
X864Y-1335D01*
X866Y-1336D01*
X867Y-1337D01*
X867Y-1337D01*
X868Y-1337D01*
X868Y-1337D01*
Y-1329D01*
X885D01*
Y-1386D01*
X868D01*
Y-1348D01*
X866Y-1347D01*
X865Y-1347D01*
X864Y-1347D01*
X863Y-1346D01*
X862Y-1346D01*
X862Y-1346D01*
X862D01*
X860Y-1346D01*
X859Y-1346D01*
X858Y-1345D01*
X857Y-1345D01*
X854D01*
X854Y-1345D01*
X852D01*
X852Y-1346D01*
X852D01*
X850Y-1346D01*
X850Y-1346D01*
X849Y-1346D01*
X849Y-1346D01*
X847D01*
Y-1329D01*
X848Y-1329D01*
X849D01*
X850Y-1329D01*
X851D01*
X853Y-1329D01*
D02*
G37*
G36*
X744Y-1386D02*
X725D01*
Y-1358D01*
X718D01*
X698Y-1386D01*
X674D01*
X700Y-1354D01*
X698Y-1353D01*
X695Y-1351D01*
X694Y-1350D01*
X692Y-1349D01*
X691Y-1347D01*
X690Y-1346D01*
X690Y-1346D01*
X690Y-1346D01*
X689Y-1346D01*
Y-1346D01*
X688Y-1343D01*
X687Y-1341D01*
X686Y-1339D01*
X686Y-1336D01*
X686Y-1334D01*
X686Y-1334D01*
Y-1333D01*
X685Y-1332D01*
Y-1332D01*
Y-1332D01*
Y-1331D01*
X686Y-1329D01*
X686Y-1327D01*
X686Y-1326D01*
X687Y-1324D01*
X687Y-1323D01*
X687Y-1322D01*
X688Y-1322D01*
X688Y-1321D01*
X689Y-1320D01*
X690Y-1319D01*
X691Y-1318D01*
X692Y-1317D01*
X693Y-1316D01*
X694Y-1315D01*
X694Y-1315D01*
X694Y-1315D01*
X696Y-1314D01*
X697Y-1313D01*
X699Y-1313D01*
X700Y-1312D01*
X701Y-1312D01*
X702Y-1312D01*
X703Y-1312D01*
X703D01*
X705Y-1311D01*
X707Y-1311D01*
X708Y-1311D01*
X710Y-1311D01*
X712Y-1311D01*
X744D01*
Y-1386D01*
D02*
G37*
G36*
X1972Y-1358D02*
X1978Y-1362D01*
X1984Y-1366D01*
X1989Y-1372D01*
X1997Y-1383D01*
X2002Y-1396D01*
X2004Y-1407D01*
X2006Y-1417D01*
X2007Y-1421D01*
Y-1424D01*
Y-1426D01*
Y-1426D01*
X2006Y-1429D01*
X2004Y-1430D01*
X2003Y-1431D01*
X1992D01*
X1989Y-1430D01*
X1988Y-1427D01*
X1987Y-1426D01*
Y-1425D01*
X1983Y-1415D01*
X1980Y-1407D01*
X1977Y-1402D01*
X1973Y-1398D01*
X1971Y-1396D01*
X1968Y-1396D01*
X1967Y-1395D01*
X1957D01*
X1953Y-1396D01*
X1949Y-1397D01*
X1946Y-1401D01*
X1942Y-1404D01*
X1936Y-1414D01*
X1931Y-1425D01*
X1927Y-1436D01*
X1924Y-1446D01*
X1923Y-1449D01*
X1922Y-1452D01*
X1922Y-1454D01*
Y-1455D01*
X2017Y-1657D01*
Y-1659D01*
X2017Y-1661D01*
X2016Y-1662D01*
X2015Y-1663D01*
X1972D01*
X1962Y-1642D01*
X1952Y-1624D01*
X1944Y-1607D01*
X1937Y-1592D01*
X1931Y-1580D01*
X1925Y-1569D01*
X1921Y-1560D01*
X1917Y-1551D01*
X1914Y-1545D01*
X1912Y-1540D01*
X1910Y-1536D01*
X1908Y-1532D01*
X1907Y-1531D01*
X1907Y-1529D01*
Y-1528D01*
X1905D01*
X1903Y-1539D01*
X1902Y-1546D01*
X1900Y-1552D01*
X1899Y-1556D01*
X1898Y-1558D01*
X1897Y-1559D01*
Y-1560D01*
X1894Y-1579D01*
X1891Y-1596D01*
X1887Y-1610D01*
X1882Y-1622D01*
X1877Y-1633D01*
X1873Y-1641D01*
X1868Y-1649D01*
X1864Y-1655D01*
X1859Y-1659D01*
X1855Y-1662D01*
X1852Y-1665D01*
X1848Y-1666D01*
X1843Y-1668D01*
X1824D01*
X1818Y-1666D01*
X1812Y-1663D01*
X1804Y-1655D01*
X1797Y-1645D01*
X1793Y-1633D01*
X1791Y-1622D01*
X1790Y-1613D01*
X1789Y-1610D01*
Y-1607D01*
Y-1606D01*
Y-1605D01*
Y-1601D01*
X1791Y-1597D01*
X1792Y-1596D01*
X1793Y-1596D01*
X1807D01*
X1808Y-1603D01*
X1811Y-1610D01*
X1813Y-1616D01*
X1817Y-1620D01*
X1821Y-1624D01*
X1823Y-1626D01*
X1826Y-1628D01*
X1827Y-1629D01*
X1839D01*
X1843Y-1627D01*
X1847Y-1624D01*
X1851Y-1618D01*
X1854Y-1611D01*
X1858Y-1602D01*
X1862Y-1593D01*
X1868Y-1571D01*
X1874Y-1551D01*
X1877Y-1541D01*
X1878Y-1532D01*
X1880Y-1526D01*
X1882Y-1520D01*
X1882Y-1516D01*
Y-1515D01*
X1885Y-1501D01*
X1887Y-1486D01*
X1890Y-1474D01*
X1892Y-1462D01*
X1898Y-1441D01*
X1903Y-1423D01*
X1909Y-1407D01*
X1915Y-1395D01*
X1920Y-1384D01*
X1925Y-1376D01*
X1930Y-1369D01*
X1934Y-1364D01*
X1938Y-1361D01*
X1942Y-1358D01*
X1944Y-1356D01*
X1947Y-1356D01*
X1965D01*
X1972Y-1358D01*
D02*
G37*
G36*
X2404Y-1364D02*
X2412Y-1365D01*
X2414Y-1366D01*
X2417D01*
X2418Y-1366D01*
X2419D01*
X2429Y-1371D01*
X2437Y-1377D01*
X2445Y-1383D01*
X2452Y-1390D01*
X2457Y-1396D01*
X2462Y-1403D01*
X2468Y-1416D01*
X2472Y-1427D01*
X2474Y-1436D01*
X2475Y-1441D01*
Y-1443D01*
Y-1445D01*
Y-1446D01*
X2474Y-1448D01*
X2473Y-1450D01*
X2472Y-1451D01*
X2460D01*
X2455Y-1442D01*
X2450Y-1435D01*
X2445Y-1428D01*
X2440Y-1422D01*
X2435Y-1418D01*
X2429Y-1414D01*
X2420Y-1408D01*
X2411Y-1405D01*
X2404Y-1403D01*
X2400Y-1402D01*
X2394D01*
X2386Y-1406D01*
X2378Y-1410D01*
X2372Y-1414D01*
X2366Y-1418D01*
X2362Y-1423D01*
X2357Y-1428D01*
X2352Y-1437D01*
X2348Y-1446D01*
X2347Y-1454D01*
X2346Y-1459D01*
Y-1460D01*
Y-1461D01*
X2347Y-1474D01*
X2352Y-1488D01*
X2358Y-1502D01*
X2367Y-1518D01*
X2377Y-1534D01*
X2389Y-1549D01*
X2414Y-1579D01*
X2427Y-1593D01*
X2439Y-1606D01*
X2451Y-1618D01*
X2461Y-1628D01*
X2470Y-1636D01*
X2477Y-1643D01*
X2481Y-1646D01*
X2482Y-1648D01*
Y-1659D01*
X2482Y-1661D01*
X2481Y-1662D01*
X2480Y-1663D01*
X2307D01*
X2306Y-1662D01*
X2304Y-1661D01*
X2302Y-1658D01*
X2301Y-1654D01*
X2297Y-1645D01*
X2293Y-1635D01*
X2290Y-1624D01*
X2287Y-1616D01*
X2286Y-1611D01*
X2285Y-1609D01*
X2284Y-1607D01*
Y-1606D01*
Y-1605D01*
X2285Y-1602D01*
X2286Y-1601D01*
X2287Y-1601D01*
X2299D01*
X2302Y-1603D01*
X2303Y-1606D01*
X2306Y-1610D01*
X2309Y-1612D01*
X2313Y-1615D01*
X2319Y-1616D01*
X2325Y-1618D01*
X2338Y-1621D01*
X2352Y-1622D01*
X2357D01*
X2363Y-1623D01*
X2419D01*
X2413Y-1616D01*
X2393Y-1596D01*
X2376Y-1578D01*
X2361Y-1561D01*
X2348Y-1544D01*
X2337Y-1529D01*
X2328Y-1516D01*
X2321Y-1503D01*
X2315Y-1491D01*
X2310Y-1481D01*
X2307Y-1472D01*
X2304Y-1465D01*
X2302Y-1459D01*
X2302Y-1454D01*
X2301Y-1450D01*
Y-1448D01*
Y-1447D01*
Y-1426D01*
X2305Y-1416D01*
X2310Y-1406D01*
X2316Y-1397D01*
X2322Y-1390D01*
X2328Y-1384D01*
X2335Y-1379D01*
X2341Y-1374D01*
X2347Y-1371D01*
X2359Y-1366D01*
X2368Y-1364D01*
X2372Y-1363D01*
X2397D01*
X2404Y-1364D01*
D02*
G37*
G36*
X2205Y-1461D02*
X2212Y-1463D01*
X2219Y-1466D01*
X2225Y-1471D01*
X2235Y-1480D01*
X2243Y-1491D01*
X2250Y-1503D01*
X2254Y-1512D01*
X2256Y-1516D01*
X2257Y-1520D01*
X2257Y-1521D01*
Y-1522D01*
X2257Y-1526D01*
X2256Y-1527D01*
X2255Y-1528D01*
X2241D01*
X2233Y-1518D01*
X2225Y-1511D01*
X2217Y-1506D01*
X2211Y-1501D01*
X2205Y-1500D01*
X2200Y-1499D01*
X2197Y-1498D01*
X2194D01*
X2196Y-1518D01*
X2197Y-1536D01*
X2199Y-1552D01*
X2202Y-1566D01*
X2203Y-1576D01*
X2205Y-1585D01*
X2206Y-1590D01*
X2207Y-1591D01*
Y-1591D01*
X2212Y-1600D01*
X2216Y-1606D01*
X2220Y-1613D01*
X2223Y-1619D01*
X2228Y-1627D01*
X2232Y-1634D01*
X2233Y-1638D01*
X2234Y-1641D01*
X2235Y-1642D01*
Y-1648D01*
X2234Y-1655D01*
X2232Y-1660D01*
X2230Y-1663D01*
X2227Y-1666D01*
X2223Y-1667D01*
X2221Y-1668D01*
X2207D01*
X2203Y-1667D01*
X2201Y-1666D01*
X2198Y-1664D01*
X2195Y-1661D01*
X2191Y-1652D01*
X2186Y-1641D01*
X2182Y-1629D01*
X2179Y-1614D01*
X2176Y-1599D01*
X2173Y-1583D01*
X2172Y-1567D01*
X2170Y-1552D01*
X2168Y-1537D01*
X2167Y-1525D01*
X2167Y-1514D01*
X2166Y-1506D01*
Y-1502D01*
Y-1500D01*
Y-1499D01*
Y-1498D01*
X2121D01*
X2122Y-1517D01*
X2124Y-1536D01*
X2125Y-1553D01*
X2126Y-1568D01*
X2127Y-1581D01*
Y-1586D01*
Y-1591D01*
Y-1594D01*
Y-1596D01*
Y-1598D01*
Y-1599D01*
X2126Y-1611D01*
X2125Y-1621D01*
X2123Y-1631D01*
X2121Y-1639D01*
X2118Y-1646D01*
X2115Y-1651D01*
X2112Y-1656D01*
X2107Y-1660D01*
X2101Y-1665D01*
X2095Y-1667D01*
X2091Y-1668D01*
X2077D01*
X2072Y-1667D01*
X2066Y-1666D01*
X2061Y-1663D01*
X2057Y-1659D01*
X2049Y-1650D01*
X2044Y-1639D01*
X2041Y-1629D01*
X2038Y-1620D01*
X2037Y-1616D01*
X2037Y-1613D01*
Y-1611D01*
Y-1611D01*
Y-1605D01*
X2037Y-1602D01*
X2038Y-1601D01*
X2039Y-1601D01*
X2049D01*
X2053Y-1608D01*
X2057Y-1614D01*
X2061Y-1617D01*
X2062Y-1621D01*
X2065Y-1622D01*
X2066Y-1623D01*
X2070D01*
X2077Y-1622D01*
X2081Y-1619D01*
X2084Y-1615D01*
X2087Y-1610D01*
X2088Y-1606D01*
X2089Y-1601D01*
Y-1598D01*
Y-1597D01*
Y-1516D01*
X2087Y-1498D01*
X2038D01*
X2036Y-1497D01*
X2035Y-1496D01*
X2034Y-1495D01*
Y-1494D01*
Y-1464D01*
X2035Y-1462D01*
X2036Y-1461D01*
X2197D01*
X2205Y-1461D01*
D02*
G37*
G36*
X1746Y-1201D02*
X1748Y-1203D01*
X1749Y-1205D01*
Y-1206D01*
Y-1209D01*
X1748Y-1211D01*
X1746Y-1213D01*
X1742Y-1215D01*
X1739Y-1217D01*
X1736Y-1218D01*
X1732Y-1220D01*
X1730Y-1221D01*
X1729D01*
Y-1222D01*
X2496D01*
X2497Y-1223D01*
X2498Y-1224D01*
X2499Y-1225D01*
Y-1226D01*
Y-1237D01*
X2498Y-1239D01*
X2497Y-1240D01*
X2497Y-1241D01*
X1727D01*
Y-1243D01*
X1730Y-1244D01*
X1733Y-1245D01*
X1741Y-1248D01*
X1744Y-1251D01*
X1747Y-1252D01*
X1748Y-1253D01*
X1749Y-1254D01*
X1748Y-1260D01*
X1747Y-1263D01*
X1745Y-1265D01*
X1744Y-1266D01*
X1740D01*
X1727Y-1261D01*
X1715Y-1256D01*
X1705Y-1252D01*
X1697Y-1249D01*
X1689Y-1246D01*
X1682Y-1242D01*
X1677Y-1241D01*
X1673Y-1238D01*
X1669Y-1236D01*
X1667Y-1235D01*
X1663Y-1233D01*
X1662Y-1231D01*
Y-1230D01*
X1742Y-1198D01*
X1746Y-1201D01*
D02*
G37*
G36*
X1709Y-1288D02*
X1715Y-1291D01*
X1724Y-1295D01*
X1731Y-1298D01*
X1735Y-1301D01*
X1738Y-1302D01*
X1739Y-1304D01*
X1740Y-1305D01*
Y-1306D01*
X1738Y-1311D01*
X1725Y-1308D01*
X1723Y-1309D01*
X1722Y-1311D01*
X1721Y-1315D01*
X1720Y-1318D01*
X1719Y-1322D01*
Y-1326D01*
Y-1328D01*
Y-1329D01*
Y-1413D01*
Y-1416D01*
X1720Y-1419D01*
X1721Y-1420D01*
X1722Y-1421D01*
X1738Y-1431D01*
X1737Y-1432D01*
X1736Y-1433D01*
X1735Y-1434D01*
X1682D01*
X1680Y-1433D01*
X1678Y-1432D01*
Y-1431D01*
Y-1431D01*
X1680Y-1426D01*
X1686Y-1426D01*
X1690Y-1424D01*
X1692Y-1421D01*
X1694Y-1418D01*
X1697Y-1412D01*
Y-1411D01*
Y-1410D01*
Y-1290D01*
X1697Y-1287D01*
X1698Y-1286D01*
X1700Y-1286D01*
X1702D01*
X1709Y-1288D01*
D02*
G37*
G36*
X1882Y-1371D02*
X1883Y-1372D01*
X1884Y-1373D01*
Y-1374D01*
Y-1380D01*
X1883Y-1381D01*
X1882Y-1382D01*
X1882Y-1383D01*
X1774D01*
X1772Y-1382D01*
X1771Y-1381D01*
X1770Y-1381D01*
Y-1380D01*
Y-1374D01*
X1771Y-1372D01*
X1772Y-1371D01*
X1881D01*
X1882Y-1371D01*
D02*
G37*
G36*
X1363Y-1328D02*
X1365Y-1328D01*
X1368Y-1328D01*
X1370Y-1329D01*
X1372Y-1329D01*
X1374Y-1330D01*
X1375Y-1331D01*
X1377Y-1332D01*
X1378Y-1332D01*
X1379Y-1333D01*
X1380Y-1334D01*
X1381Y-1334D01*
X1382Y-1335D01*
X1382Y-1336D01*
X1383Y-1336D01*
X1383Y-1336D01*
X1384Y-1337D01*
X1385Y-1339D01*
X1386Y-1341D01*
X1387Y-1343D01*
X1388Y-1345D01*
X1389Y-1347D01*
X1389Y-1348D01*
X1390Y-1350D01*
X1390Y-1352D01*
X1390Y-1353D01*
X1390Y-1355D01*
X1391Y-1356D01*
Y-1357D01*
X1391Y-1357D01*
Y-1358D01*
Y-1358D01*
X1391Y-1361D01*
X1390Y-1363D01*
X1390Y-1365D01*
X1389Y-1367D01*
X1389Y-1369D01*
X1388Y-1371D01*
X1387Y-1373D01*
X1386Y-1374D01*
X1386Y-1376D01*
X1385Y-1377D01*
X1384Y-1378D01*
X1383Y-1379D01*
X1383Y-1379D01*
X1382Y-1380D01*
X1382Y-1380D01*
X1382Y-1380D01*
X1380Y-1381D01*
X1379Y-1382D01*
X1377Y-1384D01*
X1375Y-1384D01*
X1373Y-1385D01*
X1371Y-1386D01*
X1369Y-1386D01*
X1367Y-1387D01*
X1365Y-1387D01*
X1363Y-1387D01*
X1362Y-1387D01*
X1360Y-1387D01*
X1359D01*
X1358Y-1388D01*
X1356D01*
X1355Y-1387D01*
X1353Y-1387D01*
X1352Y-1387D01*
X1351D01*
X1351Y-1387D01*
X1350Y-1387D01*
X1350D01*
X1348Y-1387D01*
X1347Y-1387D01*
X1346Y-1386D01*
X1345Y-1386D01*
X1345Y-1386D01*
X1344Y-1386D01*
X1344D01*
X1343Y-1386D01*
X1342Y-1385D01*
X1341Y-1385D01*
X1340Y-1385D01*
X1340Y-1385D01*
X1340Y-1385D01*
X1339Y-1385D01*
X1339D01*
X1338Y-1384D01*
X1337Y-1383D01*
X1336Y-1383D01*
X1336Y-1383D01*
X1335Y-1383D01*
X1335D01*
Y-1368D01*
X1337D01*
X1338Y-1369D01*
X1339Y-1370D01*
X1340Y-1370D01*
X1340Y-1370D01*
X1340Y-1370D01*
X1340Y-1370D01*
X1342Y-1371D01*
X1343Y-1372D01*
X1343Y-1372D01*
X1344Y-1372D01*
X1344Y-1372D01*
X1344D01*
X1346Y-1373D01*
X1347Y-1374D01*
X1348Y-1374D01*
X1349Y-1374D01*
X1349Y-1374D01*
X1350Y-1374D01*
X1350D01*
X1352Y-1375D01*
X1353Y-1375D01*
X1354D01*
X1355Y-1375D01*
X1356D01*
X1358Y-1375D01*
X1359Y-1375D01*
X1360Y-1375D01*
X1361Y-1374D01*
X1362Y-1374D01*
X1362Y-1374D01*
X1362D01*
X1363Y-1374D01*
X1364Y-1374D01*
X1365Y-1373D01*
X1366Y-1373D01*
X1367Y-1372D01*
X1367Y-1372D01*
X1367Y-1372D01*
X1368Y-1372D01*
X1369Y-1371D01*
X1370Y-1370D01*
X1370Y-1369D01*
X1371Y-1369D01*
X1371Y-1368D01*
X1371Y-1368D01*
X1371Y-1368D01*
X1372Y-1367D01*
X1372Y-1366D01*
X1372Y-1364D01*
X1373Y-1363D01*
X1373Y-1362D01*
Y-1362D01*
X1373Y-1361D01*
Y-1361D01*
X1334D01*
Y-1355D01*
X1334Y-1352D01*
X1334Y-1350D01*
X1335Y-1348D01*
X1335Y-1346D01*
X1336Y-1344D01*
X1336Y-1343D01*
X1337Y-1341D01*
X1337Y-1340D01*
X1338Y-1339D01*
X1339Y-1337D01*
X1339Y-1337D01*
X1340Y-1336D01*
X1340Y-1335D01*
X1340Y-1335D01*
X1341Y-1335D01*
X1341Y-1335D01*
X1342Y-1333D01*
X1344Y-1332D01*
X1345Y-1331D01*
X1347Y-1331D01*
X1348Y-1330D01*
X1350Y-1329D01*
X1353Y-1328D01*
X1355Y-1328D01*
X1356Y-1328D01*
X1357Y-1328D01*
X1358Y-1328D01*
X1359Y-1327D01*
X1360D01*
X1363Y-1328D01*
D02*
G37*
G36*
X1171Y-1328D02*
X1173Y-1328D01*
X1175Y-1328D01*
X1177Y-1329D01*
X1178Y-1329D01*
X1179Y-1329D01*
X1180Y-1329D01*
X1180Y-1329D01*
X1180Y-1329D01*
X1180D01*
X1182Y-1330D01*
X1184Y-1331D01*
X1186Y-1332D01*
X1187Y-1333D01*
X1189Y-1333D01*
X1190Y-1334D01*
X1190Y-1334D01*
X1190Y-1335D01*
X1192Y-1336D01*
X1193Y-1338D01*
X1194Y-1339D01*
X1195Y-1341D01*
X1196Y-1342D01*
X1197Y-1343D01*
X1197Y-1344D01*
X1197Y-1344D01*
X1197Y-1344D01*
Y-1344D01*
X1198Y-1346D01*
X1199Y-1349D01*
X1199Y-1351D01*
X1199Y-1353D01*
X1200Y-1355D01*
Y-1356D01*
X1200Y-1357D01*
Y-1357D01*
Y-1358D01*
Y-1358D01*
Y-1358D01*
X1200Y-1361D01*
X1199Y-1363D01*
X1199Y-1365D01*
X1199Y-1367D01*
X1198Y-1369D01*
X1198Y-1370D01*
X1198Y-1370D01*
X1198Y-1371D01*
X1198Y-1371D01*
X1197Y-1371D01*
Y-1371D01*
X1197Y-1373D01*
X1195Y-1375D01*
X1194Y-1377D01*
X1193Y-1378D01*
X1192Y-1379D01*
X1192Y-1380D01*
X1191Y-1380D01*
X1191Y-1380D01*
X1189Y-1382D01*
X1187Y-1383D01*
X1186Y-1384D01*
X1184Y-1384D01*
X1183Y-1385D01*
X1182Y-1385D01*
X1181Y-1386D01*
X1181Y-1386D01*
X1181Y-1386D01*
X1181D01*
X1179Y-1386D01*
X1176Y-1387D01*
X1174Y-1387D01*
X1172Y-1387D01*
X1170Y-1387D01*
X1170D01*
X1169Y-1388D01*
X1167D01*
X1165Y-1387D01*
X1164D01*
X1164Y-1387D01*
X1163Y-1387D01*
X1162D01*
X1162Y-1387D01*
X1162D01*
X1160Y-1387D01*
X1159Y-1387D01*
X1159Y-1386D01*
X1158Y-1386D01*
X1157Y-1386D01*
X1157Y-1386D01*
X1157D01*
X1156Y-1386D01*
X1154Y-1385D01*
X1154Y-1385D01*
X1153Y-1385D01*
X1153Y-1385D01*
X1153D01*
X1152Y-1384D01*
X1151Y-1384D01*
X1150Y-1384D01*
X1150Y-1383D01*
X1150Y-1383D01*
X1149D01*
Y-1368D01*
X1152D01*
X1152Y-1369D01*
X1153Y-1369D01*
X1154Y-1370D01*
X1154Y-1370D01*
X1154Y-1370D01*
X1155Y-1371D01*
X1156Y-1372D01*
X1156Y-1372D01*
X1157Y-1372D01*
X1157Y-1372D01*
X1157Y-1372D01*
X1158Y-1373D01*
X1160Y-1374D01*
X1160Y-1374D01*
X1161Y-1374D01*
X1161Y-1374D01*
X1161D01*
X1163Y-1375D01*
X1164Y-1375D01*
X1165Y-1375D01*
X1166Y-1375D01*
X1167D01*
X1169Y-1375D01*
X1172Y-1374D01*
X1173Y-1374D01*
X1175Y-1373D01*
X1176Y-1372D01*
X1177Y-1371D01*
X1177Y-1371D01*
X1178Y-1371D01*
X1178Y-1370D01*
X1179Y-1369D01*
X1180Y-1367D01*
X1181Y-1365D01*
X1181Y-1363D01*
X1181Y-1361D01*
X1182Y-1360D01*
Y-1359D01*
X1182Y-1359D01*
Y-1358D01*
Y-1358D01*
Y-1358D01*
X1181Y-1355D01*
X1181Y-1353D01*
X1180Y-1350D01*
X1180Y-1349D01*
X1179Y-1347D01*
X1179Y-1346D01*
X1178Y-1346D01*
X1178Y-1345D01*
X1178Y-1345D01*
Y-1345D01*
X1177Y-1344D01*
X1176Y-1344D01*
X1175Y-1342D01*
X1173Y-1342D01*
X1171Y-1341D01*
X1170Y-1341D01*
X1169Y-1341D01*
X1168Y-1340D01*
X1167D01*
X1165Y-1341D01*
X1165Y-1341D01*
X1164Y-1341D01*
X1163Y-1341D01*
X1163Y-1341D01*
X1162Y-1341D01*
X1162D01*
X1160Y-1342D01*
X1160Y-1342D01*
X1159Y-1342D01*
X1159Y-1343D01*
X1158Y-1343D01*
X1158Y-1343D01*
X1158D01*
X1156Y-1344D01*
X1155Y-1344D01*
X1155Y-1345D01*
X1155Y-1345D01*
X1155Y-1345D01*
X1154Y-1345D01*
X1153Y-1346D01*
X1152Y-1347D01*
X1152Y-1347D01*
X1152Y-1347D01*
X1149D01*
Y-1332D01*
X1151Y-1331D01*
X1153Y-1331D01*
X1155Y-1330D01*
X1156Y-1330D01*
X1157Y-1329D01*
X1158Y-1329D01*
X1159Y-1329D01*
X1159D01*
X1161Y-1328D01*
X1162Y-1328D01*
X1164Y-1328D01*
X1165Y-1328D01*
X1167D01*
X1167Y-1328D01*
X1168D01*
X1171Y-1328D01*
D02*
G37*
G36*
X646Y-1328D02*
X649Y-1328D01*
X651Y-1328D01*
X653Y-1329D01*
X655Y-1329D01*
X657Y-1330D01*
X659Y-1331D01*
X660Y-1332D01*
X662Y-1332D01*
X663Y-1333D01*
X664Y-1334D01*
X665Y-1334D01*
X665Y-1335D01*
X666Y-1336D01*
X666Y-1336D01*
X666Y-1336D01*
X667Y-1337D01*
X669Y-1339D01*
X670Y-1341D01*
X671Y-1343D01*
X671Y-1345D01*
X672Y-1347D01*
X673Y-1348D01*
X673Y-1350D01*
X673Y-1352D01*
X674Y-1353D01*
X674Y-1355D01*
X674Y-1356D01*
Y-1357D01*
X674Y-1357D01*
Y-1358D01*
Y-1358D01*
X674Y-1361D01*
X674Y-1363D01*
X673Y-1365D01*
X673Y-1367D01*
X672Y-1369D01*
X671Y-1371D01*
X671Y-1373D01*
X670Y-1374D01*
X669Y-1376D01*
X668Y-1377D01*
X667Y-1378D01*
X667Y-1379D01*
X666Y-1379D01*
X666Y-1380D01*
X666Y-1380D01*
X666Y-1380D01*
X664Y-1381D01*
X662Y-1382D01*
X660Y-1384D01*
X658Y-1384D01*
X656Y-1385D01*
X654Y-1386D01*
X652Y-1386D01*
X650Y-1387D01*
X648Y-1387D01*
X646Y-1387D01*
X645Y-1387D01*
X644Y-1387D01*
X643D01*
X642Y-1388D01*
X639D01*
X638Y-1387D01*
X637Y-1387D01*
X636Y-1387D01*
X635D01*
X634Y-1387D01*
X634Y-1387D01*
X633D01*
X631Y-1387D01*
X630Y-1387D01*
X629Y-1386D01*
X629Y-1386D01*
X628Y-1386D01*
X628Y-1386D01*
X628D01*
X626Y-1386D01*
X625Y-1385D01*
X625Y-1385D01*
X624Y-1385D01*
X623Y-1385D01*
X623Y-1385D01*
X623Y-1385D01*
X623D01*
X621Y-1384D01*
X620Y-1383D01*
X619Y-1383D01*
X619Y-1383D01*
X619Y-1383D01*
X619D01*
Y-1368D01*
X620D01*
X621Y-1369D01*
X622Y-1370D01*
X623Y-1370D01*
X623Y-1370D01*
X623Y-1370D01*
X624Y-1370D01*
X625Y-1371D01*
X626Y-1372D01*
X627Y-1372D01*
X627Y-1372D01*
X627Y-1372D01*
X628D01*
X629Y-1373D01*
X630Y-1374D01*
X631Y-1374D01*
X632Y-1374D01*
X633Y-1374D01*
X633Y-1374D01*
X633D01*
X635Y-1375D01*
X636Y-1375D01*
X637D01*
X638Y-1375D01*
X639D01*
X642Y-1375D01*
X643Y-1375D01*
X644Y-1375D01*
X645Y-1374D01*
X645Y-1374D01*
X646Y-1374D01*
X646D01*
X647Y-1374D01*
X648Y-1374D01*
X649Y-1373D01*
X649Y-1373D01*
X650Y-1372D01*
X651Y-1372D01*
X651Y-1372D01*
X651Y-1372D01*
X652Y-1371D01*
X653Y-1370D01*
X654Y-1369D01*
X654Y-1369D01*
X654Y-1368D01*
X655Y-1368D01*
X655Y-1368D01*
X655Y-1367D01*
X656Y-1366D01*
X656Y-1364D01*
X656Y-1363D01*
X656Y-1362D01*
Y-1362D01*
X656Y-1361D01*
Y-1361D01*
X618D01*
Y-1355D01*
X618Y-1352D01*
X618Y-1350D01*
X618Y-1348D01*
X619Y-1346D01*
X619Y-1344D01*
X620Y-1343D01*
X620Y-1341D01*
X621Y-1340D01*
X621Y-1339D01*
X622Y-1337D01*
X623Y-1337D01*
X623Y-1336D01*
X624Y-1335D01*
X624Y-1335D01*
X624Y-1335D01*
X624Y-1335D01*
X625Y-1333D01*
X627Y-1332D01*
X628Y-1331D01*
X630Y-1331D01*
X632Y-1330D01*
X633Y-1329D01*
X636Y-1328D01*
X638Y-1328D01*
X639Y-1328D01*
X641Y-1328D01*
X642Y-1328D01*
X643Y-1327D01*
X644D01*
X646Y-1328D01*
D02*
G37*
G36*
X1014Y-1366D02*
X1014Y-1368D01*
X1014Y-1370D01*
X1014Y-1372D01*
X1013Y-1373D01*
X1013Y-1375D01*
X1012Y-1376D01*
X1012Y-1377D01*
X1012Y-1378D01*
X1011Y-1379D01*
X1011Y-1380D01*
X1010Y-1381D01*
X1010Y-1381D01*
X1010Y-1382D01*
X1009Y-1382D01*
X1009Y-1382D01*
Y-1382D01*
X1008Y-1383D01*
X1007Y-1384D01*
X1006Y-1385D01*
X1005Y-1385D01*
X1003Y-1386D01*
X1001Y-1387D01*
X999Y-1387D01*
X998Y-1387D01*
X997Y-1387D01*
X997Y-1388D01*
X996D01*
X994Y-1387D01*
X992Y-1387D01*
X991Y-1387D01*
X990Y-1387D01*
X989Y-1386D01*
X988Y-1386D01*
X987Y-1386D01*
X987Y-1386D01*
X986Y-1385D01*
X984Y-1384D01*
X983Y-1383D01*
X981Y-1382D01*
X980Y-1381D01*
X979Y-1380D01*
X979Y-1380D01*
X979Y-1380D01*
Y-1386D01*
X961D01*
Y-1329D01*
X979D01*
Y-1370D01*
X980Y-1371D01*
X982Y-1371D01*
X982Y-1372D01*
X983Y-1372D01*
X983Y-1372D01*
X983D01*
X985Y-1373D01*
X986Y-1373D01*
X986Y-1373D01*
X987Y-1373D01*
X989D01*
X990Y-1373D01*
X991Y-1373D01*
X991Y-1372D01*
X992Y-1372D01*
X992Y-1372D01*
X992Y-1372D01*
X992D01*
X994Y-1371D01*
X994Y-1370D01*
X995Y-1370D01*
X995Y-1370D01*
X995Y-1369D01*
Y-1369D01*
X996Y-1368D01*
X996Y-1366D01*
X996Y-1366D01*
X996Y-1365D01*
Y-1365D01*
Y-1365D01*
X996Y-1364D01*
Y-1362D01*
Y-1361D01*
X996Y-1360D01*
Y-1359D01*
Y-1358D01*
Y-1358D01*
Y-1357D01*
Y-1329D01*
X1014D01*
Y-1366D01*
D02*
G37*
G36*
X1550Y-1328D02*
X1552Y-1328D01*
X1554Y-1328D01*
X1556Y-1329D01*
X1558Y-1329D01*
X1559Y-1329D01*
X1559Y-1329D01*
X1560Y-1329D01*
X1560Y-1329D01*
X1560D01*
X1562Y-1330D01*
X1564Y-1331D01*
X1566Y-1332D01*
X1567Y-1333D01*
X1568Y-1333D01*
X1569Y-1334D01*
X1570Y-1334D01*
X1570Y-1335D01*
X1571Y-1336D01*
X1573Y-1338D01*
X1574Y-1339D01*
X1575Y-1341D01*
X1576Y-1342D01*
X1576Y-1343D01*
X1576Y-1344D01*
X1577Y-1344D01*
X1577Y-1344D01*
Y-1344D01*
X1578Y-1346D01*
X1578Y-1349D01*
X1579Y-1351D01*
X1579Y-1353D01*
X1579Y-1355D01*
Y-1356D01*
X1579Y-1357D01*
Y-1357D01*
Y-1358D01*
Y-1358D01*
Y-1358D01*
X1579Y-1361D01*
X1579Y-1363D01*
X1579Y-1365D01*
X1578Y-1367D01*
X1578Y-1369D01*
X1578Y-1370D01*
X1577Y-1370D01*
X1577Y-1371D01*
X1577Y-1371D01*
X1577Y-1371D01*
Y-1371D01*
X1576Y-1373D01*
X1575Y-1375D01*
X1574Y-1377D01*
X1573Y-1378D01*
X1572Y-1379D01*
X1571Y-1380D01*
X1571Y-1380D01*
X1570Y-1380D01*
X1569Y-1382D01*
X1567Y-1383D01*
X1565Y-1384D01*
X1564Y-1384D01*
X1562Y-1385D01*
X1561Y-1385D01*
X1561Y-1386D01*
X1560Y-1386D01*
X1560Y-1386D01*
X1560D01*
X1558Y-1386D01*
X1556Y-1387D01*
X1554Y-1387D01*
X1552Y-1387D01*
X1550Y-1387D01*
X1549D01*
X1549Y-1388D01*
X1546D01*
X1545Y-1387D01*
X1544D01*
X1543Y-1387D01*
X1542Y-1387D01*
X1542D01*
X1542Y-1387D01*
X1542D01*
X1540Y-1387D01*
X1539Y-1387D01*
X1538Y-1386D01*
X1538Y-1386D01*
X1537Y-1386D01*
X1537Y-1386D01*
X1537D01*
X1535Y-1386D01*
X1534Y-1385D01*
X1533Y-1385D01*
X1533Y-1385D01*
X1533Y-1385D01*
X1533D01*
X1531Y-1384D01*
X1530Y-1384D01*
X1530Y-1384D01*
X1529Y-1383D01*
X1529Y-1383D01*
X1529D01*
Y-1368D01*
X1531D01*
X1532Y-1369D01*
X1533Y-1369D01*
X1533Y-1370D01*
X1533Y-1370D01*
X1533Y-1370D01*
X1535Y-1371D01*
X1535Y-1372D01*
X1536Y-1372D01*
X1536Y-1372D01*
X1536Y-1372D01*
X1537Y-1372D01*
X1538Y-1373D01*
X1539Y-1374D01*
X1540Y-1374D01*
X1540Y-1374D01*
X1541Y-1374D01*
X1541D01*
X1543Y-1375D01*
X1544Y-1375D01*
X1545Y-1375D01*
X1546Y-1375D01*
X1547D01*
X1549Y-1375D01*
X1551Y-1374D01*
X1553Y-1374D01*
X1554Y-1373D01*
X1556Y-1372D01*
X1556Y-1371D01*
X1557Y-1371D01*
X1557Y-1371D01*
X1558Y-1370D01*
X1559Y-1369D01*
X1560Y-1367D01*
X1560Y-1365D01*
X1561Y-1363D01*
X1561Y-1361D01*
X1561Y-1360D01*
Y-1359D01*
X1561Y-1359D01*
Y-1358D01*
Y-1358D01*
Y-1358D01*
X1561Y-1355D01*
X1561Y-1353D01*
X1560Y-1350D01*
X1559Y-1349D01*
X1559Y-1347D01*
X1558Y-1346D01*
X1558Y-1346D01*
X1558Y-1345D01*
X1558Y-1345D01*
Y-1345D01*
X1557Y-1344D01*
X1556Y-1344D01*
X1554Y-1342D01*
X1553Y-1342D01*
X1551Y-1341D01*
X1549Y-1341D01*
X1548Y-1341D01*
X1548Y-1340D01*
X1547D01*
X1545Y-1341D01*
X1544Y-1341D01*
X1543Y-1341D01*
X1543Y-1341D01*
X1542Y-1341D01*
X1542Y-1341D01*
X1542D01*
X1540Y-1342D01*
X1539Y-1342D01*
X1539Y-1342D01*
X1538Y-1343D01*
X1538Y-1343D01*
X1537Y-1343D01*
X1537D01*
X1536Y-1344D01*
X1535Y-1344D01*
X1535Y-1345D01*
X1534Y-1345D01*
X1534Y-1345D01*
X1534Y-1345D01*
X1533Y-1346D01*
X1532Y-1347D01*
X1532Y-1347D01*
X1531Y-1347D01*
X1529D01*
Y-1332D01*
X1531Y-1331D01*
X1533Y-1331D01*
X1534Y-1330D01*
X1536Y-1330D01*
X1537Y-1329D01*
X1538Y-1329D01*
X1538Y-1329D01*
X1538D01*
X1540Y-1328D01*
X1542Y-1328D01*
X1543Y-1328D01*
X1545Y-1328D01*
X1546D01*
X1547Y-1328D01*
X1548D01*
X1550Y-1328D01*
D02*
G37*
G36*
X1520Y-1329D02*
X1526D01*
Y-1342D01*
X1520D01*
Y-1368D01*
X1519Y-1370D01*
X1519Y-1372D01*
X1519Y-1373D01*
X1519Y-1375D01*
X1518Y-1376D01*
X1518Y-1377D01*
X1518Y-1378D01*
X1517Y-1379D01*
X1517Y-1380D01*
X1516Y-1381D01*
X1516Y-1381D01*
X1515Y-1382D01*
X1515Y-1382D01*
X1515Y-1383D01*
X1515Y-1383D01*
Y-1383D01*
X1514Y-1384D01*
X1513Y-1384D01*
X1510Y-1385D01*
X1508Y-1386D01*
X1505Y-1387D01*
X1504Y-1387D01*
X1503Y-1387D01*
X1502Y-1387D01*
X1501D01*
X1500Y-1387D01*
X1497D01*
X1496Y-1387D01*
X1494Y-1387D01*
X1493Y-1387D01*
X1492D01*
X1492Y-1387D01*
X1491Y-1387D01*
X1491D01*
X1489Y-1386D01*
X1488Y-1386D01*
X1487Y-1386D01*
X1486Y-1386D01*
X1485Y-1386D01*
X1485Y-1386D01*
X1485D01*
Y-1373D01*
X1486D01*
X1487Y-1373D01*
X1487Y-1374D01*
X1488Y-1374D01*
X1489Y-1374D01*
X1489Y-1374D01*
X1489Y-1374D01*
X1490D01*
X1491Y-1375D01*
X1492Y-1375D01*
X1492D01*
X1493Y-1375D01*
X1495D01*
X1496Y-1375D01*
X1496Y-1375D01*
X1497Y-1374D01*
X1498Y-1374D01*
X1498Y-1374D01*
X1498Y-1374D01*
X1499D01*
X1500Y-1373D01*
X1500Y-1372D01*
X1501Y-1372D01*
X1501Y-1371D01*
X1501Y-1371D01*
Y-1371D01*
X1502Y-1370D01*
X1502Y-1368D01*
X1502Y-1368D01*
Y-1367D01*
Y-1367D01*
Y-1367D01*
Y-1365D01*
Y-1364D01*
Y-1364D01*
Y-1363D01*
Y-1362D01*
Y-1362D01*
Y-1362D01*
Y-1342D01*
X1485D01*
Y-1329D01*
X1502D01*
Y-1313D01*
X1520D01*
Y-1329D01*
D02*
G37*
G36*
X1653Y-1386D02*
X1634D01*
X1629Y-1371D01*
X1606D01*
X1601Y-1386D01*
X1582D01*
X1607Y-1311D01*
X1628D01*
X1653Y-1386D01*
D02*
G37*
G36*
X1478D02*
X1460D01*
Y-1329D01*
X1478D01*
Y-1386D01*
D02*
G37*
G36*
X1294D02*
X1275D01*
Y-1361D01*
X1264D01*
X1262Y-1361D01*
X1261Y-1361D01*
X1260Y-1361D01*
X1259Y-1361D01*
X1258Y-1361D01*
X1258Y-1361D01*
X1258D01*
X1256Y-1361D01*
X1255Y-1360D01*
X1254Y-1360D01*
X1253Y-1360D01*
X1253Y-1359D01*
X1252Y-1359D01*
X1252Y-1359D01*
X1252D01*
X1250Y-1358D01*
X1249Y-1358D01*
X1248Y-1357D01*
X1247Y-1357D01*
X1247Y-1356D01*
X1247Y-1356D01*
X1247Y-1356D01*
X1245Y-1355D01*
X1244Y-1354D01*
X1244Y-1354D01*
X1243Y-1353D01*
X1243Y-1353D01*
X1243Y-1353D01*
X1242Y-1352D01*
X1241Y-1351D01*
X1240Y-1350D01*
X1239Y-1349D01*
X1239Y-1347D01*
X1238Y-1346D01*
X1238Y-1345D01*
X1238Y-1345D01*
X1238Y-1345D01*
X1237Y-1343D01*
X1237Y-1341D01*
X1236Y-1339D01*
X1236Y-1338D01*
X1236Y-1336D01*
X1236Y-1335D01*
Y-1335D01*
Y-1335D01*
Y-1335D01*
Y-1335D01*
X1236Y-1332D01*
X1236Y-1330D01*
X1237Y-1328D01*
X1237Y-1326D01*
X1238Y-1325D01*
X1238Y-1324D01*
X1238Y-1324D01*
X1238Y-1323D01*
X1239Y-1322D01*
X1240Y-1320D01*
X1241Y-1319D01*
X1242Y-1318D01*
X1243Y-1317D01*
X1244Y-1316D01*
X1245Y-1316D01*
X1245Y-1316D01*
X1246Y-1315D01*
X1248Y-1314D01*
X1249Y-1313D01*
X1251Y-1313D01*
X1252Y-1313D01*
X1253Y-1312D01*
X1253Y-1312D01*
X1253D01*
X1255Y-1312D01*
X1257Y-1311D01*
X1259Y-1311D01*
X1261Y-1311D01*
X1262D01*
X1263Y-1311D01*
X1294D01*
Y-1386D01*
D02*
G37*
G36*
X583Y-1328D02*
X586Y-1328D01*
X588Y-1328D01*
X590Y-1329D01*
X591Y-1329D01*
X592Y-1329D01*
X593Y-1329D01*
X593Y-1329D01*
X593Y-1329D01*
X593D01*
X595Y-1330D01*
X597Y-1331D01*
X599Y-1332D01*
X600Y-1333D01*
X601Y-1333D01*
X602Y-1334D01*
X603Y-1334D01*
X603Y-1335D01*
X605Y-1336D01*
X606Y-1338D01*
X607Y-1339D01*
X608Y-1341D01*
X609Y-1342D01*
X610Y-1343D01*
X610Y-1344D01*
X610Y-1344D01*
X610Y-1344D01*
Y-1344D01*
X611Y-1346D01*
X612Y-1349D01*
X612Y-1351D01*
X612Y-1353D01*
X613Y-1355D01*
Y-1356D01*
X613Y-1357D01*
Y-1357D01*
Y-1358D01*
Y-1358D01*
Y-1358D01*
X613Y-1361D01*
X612Y-1363D01*
X612Y-1365D01*
X611Y-1367D01*
X611Y-1369D01*
X611Y-1370D01*
X611Y-1370D01*
X611Y-1371D01*
X610Y-1371D01*
X610Y-1371D01*
Y-1371D01*
X609Y-1373D01*
X608Y-1375D01*
X607Y-1377D01*
X606Y-1378D01*
X605Y-1379D01*
X604Y-1380D01*
X604Y-1380D01*
X604Y-1380D01*
X602Y-1382D01*
X600Y-1383D01*
X599Y-1384D01*
X597Y-1384D01*
X596Y-1385D01*
X595Y-1385D01*
X594Y-1386D01*
X594Y-1386D01*
X594Y-1386D01*
X594D01*
X591Y-1386D01*
X589Y-1387D01*
X587Y-1387D01*
X585Y-1387D01*
X583Y-1387D01*
X583D01*
X582Y-1388D01*
X579D01*
X578Y-1387D01*
X577D01*
X576Y-1387D01*
X576Y-1387D01*
X575D01*
X575Y-1387D01*
X575D01*
X573Y-1387D01*
X572Y-1387D01*
X572Y-1386D01*
X571Y-1386D01*
X570Y-1386D01*
X570Y-1386D01*
X570D01*
X568Y-1386D01*
X567Y-1385D01*
X567Y-1385D01*
X566Y-1385D01*
X566Y-1385D01*
X566D01*
X565Y-1384D01*
X563Y-1384D01*
X563Y-1384D01*
X563Y-1383D01*
X562Y-1383D01*
X562D01*
Y-1368D01*
X565D01*
X565Y-1369D01*
X566Y-1369D01*
X567Y-1370D01*
X567Y-1370D01*
X567Y-1370D01*
X568Y-1371D01*
X569Y-1372D01*
X569Y-1372D01*
X570Y-1372D01*
X570Y-1372D01*
X570Y-1372D01*
X571Y-1373D01*
X573Y-1374D01*
X573Y-1374D01*
X574Y-1374D01*
X574Y-1374D01*
X574D01*
X576Y-1375D01*
X577Y-1375D01*
X578Y-1375D01*
X579Y-1375D01*
X580D01*
X582Y-1375D01*
X584Y-1374D01*
X586Y-1374D01*
X588Y-1373D01*
X589Y-1372D01*
X590Y-1371D01*
X590Y-1371D01*
X591Y-1371D01*
X591Y-1370D01*
X592Y-1369D01*
X593Y-1367D01*
X594Y-1365D01*
X594Y-1363D01*
X594Y-1361D01*
X594Y-1360D01*
Y-1359D01*
X595Y-1359D01*
Y-1358D01*
Y-1358D01*
Y-1358D01*
X594Y-1355D01*
X594Y-1353D01*
X593Y-1350D01*
X593Y-1349D01*
X592Y-1347D01*
X591Y-1346D01*
X591Y-1346D01*
X591Y-1345D01*
X591Y-1345D01*
Y-1345D01*
X590Y-1344D01*
X589Y-1344D01*
X588Y-1342D01*
X586Y-1342D01*
X584Y-1341D01*
X583Y-1341D01*
X581Y-1341D01*
X581Y-1340D01*
X580D01*
X578Y-1341D01*
X577Y-1341D01*
X577Y-1341D01*
X576Y-1341D01*
X575Y-1341D01*
X575Y-1341D01*
X575D01*
X573Y-1342D01*
X573Y-1342D01*
X572Y-1342D01*
X571Y-1343D01*
X571Y-1343D01*
X571Y-1343D01*
X571D01*
X569Y-1344D01*
X568Y-1344D01*
X568Y-1345D01*
X568Y-1345D01*
X567Y-1345D01*
X567Y-1345D01*
X566Y-1346D01*
X565Y-1347D01*
X565Y-1347D01*
X565Y-1347D01*
X562D01*
Y-1332D01*
X564Y-1331D01*
X566Y-1331D01*
X567Y-1330D01*
X569Y-1330D01*
X570Y-1329D01*
X571Y-1329D01*
X572Y-1329D01*
X572D01*
X574Y-1328D01*
X575Y-1328D01*
X577Y-1328D01*
X578Y-1328D01*
X579D01*
X580Y-1328D01*
X581D01*
X583Y-1328D01*
D02*
G37*
G36*
X499Y-1328D02*
X502Y-1328D01*
X504Y-1328D01*
X506Y-1329D01*
X508Y-1329D01*
X510Y-1330D01*
X512Y-1331D01*
X513Y-1332D01*
X514Y-1332D01*
X516Y-1333D01*
X517Y-1334D01*
X517Y-1334D01*
X518Y-1335D01*
X519Y-1336D01*
X519Y-1336D01*
X519Y-1336D01*
X520Y-1337D01*
X522Y-1339D01*
X523Y-1341D01*
X524Y-1343D01*
X524Y-1345D01*
X525Y-1347D01*
X525Y-1348D01*
X526Y-1350D01*
X526Y-1352D01*
X526Y-1353D01*
X527Y-1355D01*
X527Y-1356D01*
Y-1357D01*
X527Y-1357D01*
Y-1358D01*
Y-1358D01*
X527Y-1361D01*
X526Y-1363D01*
X526Y-1365D01*
X525Y-1367D01*
X525Y-1369D01*
X524Y-1371D01*
X523Y-1373D01*
X523Y-1374D01*
X522Y-1376D01*
X521Y-1377D01*
X520Y-1378D01*
X520Y-1379D01*
X519Y-1379D01*
X519Y-1380D01*
X518Y-1380D01*
X518Y-1380D01*
X517Y-1381D01*
X515Y-1382D01*
X513Y-1384D01*
X511Y-1384D01*
X509Y-1385D01*
X507Y-1386D01*
X505Y-1386D01*
X503Y-1387D01*
X501Y-1387D01*
X499Y-1387D01*
X498Y-1387D01*
X496Y-1387D01*
X495D01*
X494Y-1388D01*
X492D01*
X491Y-1387D01*
X489Y-1387D01*
X488Y-1387D01*
X487D01*
X487Y-1387D01*
X486Y-1387D01*
X486D01*
X484Y-1387D01*
X483Y-1387D01*
X482Y-1386D01*
X481Y-1386D01*
X481Y-1386D01*
X480Y-1386D01*
X480D01*
X479Y-1386D01*
X478Y-1385D01*
X477Y-1385D01*
X477Y-1385D01*
X476Y-1385D01*
X476Y-1385D01*
X476Y-1385D01*
X475D01*
X474Y-1384D01*
X473Y-1383D01*
X472Y-1383D01*
X472Y-1383D01*
X471Y-1383D01*
X471D01*
Y-1368D01*
X473D01*
X474Y-1369D01*
X475Y-1370D01*
X476Y-1370D01*
X476Y-1370D01*
X476Y-1370D01*
X476Y-1370D01*
X478Y-1371D01*
X479Y-1372D01*
X479Y-1372D01*
X480Y-1372D01*
X480Y-1372D01*
X480D01*
X482Y-1373D01*
X483Y-1374D01*
X484Y-1374D01*
X485Y-1374D01*
X485Y-1374D01*
X486Y-1374D01*
X486D01*
X488Y-1375D01*
X489Y-1375D01*
X490D01*
X491Y-1375D01*
X492D01*
X494Y-1375D01*
X496Y-1375D01*
X497Y-1375D01*
X497Y-1374D01*
X498Y-1374D01*
X498Y-1374D01*
X499D01*
X500Y-1374D01*
X501Y-1374D01*
X502Y-1373D01*
X502Y-1373D01*
X503Y-1372D01*
X503Y-1372D01*
X504Y-1372D01*
X504Y-1372D01*
X505Y-1371D01*
X506Y-1370D01*
X507Y-1369D01*
X507Y-1369D01*
X507Y-1368D01*
X507Y-1368D01*
X508Y-1368D01*
X508Y-1367D01*
X508Y-1366D01*
X509Y-1364D01*
X509Y-1363D01*
X509Y-1362D01*
Y-1362D01*
X509Y-1361D01*
Y-1361D01*
X470D01*
Y-1355D01*
X470Y-1352D01*
X471Y-1350D01*
X471Y-1348D01*
X471Y-1346D01*
X472Y-1344D01*
X472Y-1343D01*
X473Y-1341D01*
X474Y-1340D01*
X474Y-1339D01*
X475Y-1337D01*
X475Y-1337D01*
X476Y-1336D01*
X476Y-1335D01*
X477Y-1335D01*
X477Y-1335D01*
X477Y-1335D01*
X478Y-1333D01*
X480Y-1332D01*
X481Y-1331D01*
X483Y-1331D01*
X484Y-1330D01*
X486Y-1329D01*
X489Y-1328D01*
X491Y-1328D01*
X492Y-1328D01*
X493Y-1328D01*
X494Y-1328D01*
X495Y-1327D01*
X497D01*
X499Y-1328D01*
D02*
G37*
G36*
X378D02*
X380Y-1328D01*
X383Y-1328D01*
X385Y-1329D01*
X387Y-1329D01*
X389Y-1330D01*
X390Y-1331D01*
X392Y-1332D01*
X393Y-1332D01*
X394Y-1333D01*
X395Y-1334D01*
X396Y-1334D01*
X397Y-1335D01*
X397Y-1336D01*
X398Y-1336D01*
X398Y-1336D01*
X399Y-1337D01*
X400Y-1339D01*
X401Y-1341D01*
X402Y-1343D01*
X403Y-1345D01*
X404Y-1347D01*
X404Y-1348D01*
X405Y-1350D01*
X405Y-1352D01*
X405Y-1353D01*
X405Y-1355D01*
X405Y-1356D01*
Y-1357D01*
X406Y-1357D01*
Y-1358D01*
Y-1358D01*
X405Y-1361D01*
X405Y-1363D01*
X405Y-1365D01*
X404Y-1367D01*
X404Y-1369D01*
X403Y-1371D01*
X402Y-1373D01*
X401Y-1374D01*
X400Y-1376D01*
X400Y-1377D01*
X399Y-1378D01*
X398Y-1379D01*
X398Y-1379D01*
X397Y-1380D01*
X397Y-1380D01*
X397Y-1380D01*
X395Y-1381D01*
X393Y-1382D01*
X392Y-1384D01*
X390Y-1384D01*
X388Y-1385D01*
X385Y-1386D01*
X384Y-1386D01*
X382Y-1387D01*
X380Y-1387D01*
X378Y-1387D01*
X376Y-1387D01*
X375Y-1387D01*
X374D01*
X373Y-1388D01*
X371D01*
X369Y-1387D01*
X368Y-1387D01*
X367Y-1387D01*
X366D01*
X365Y-1387D01*
X365Y-1387D01*
X365D01*
X363Y-1387D01*
X362Y-1387D01*
X361Y-1386D01*
X360Y-1386D01*
X360Y-1386D01*
X359Y-1386D01*
X359D01*
X358Y-1386D01*
X357Y-1385D01*
X356Y-1385D01*
X355Y-1385D01*
X355Y-1385D01*
X354Y-1385D01*
X354Y-1385D01*
X354D01*
X353Y-1384D01*
X351Y-1383D01*
X351Y-1383D01*
X351Y-1383D01*
X350Y-1383D01*
X350D01*
Y-1368D01*
X352D01*
X353Y-1369D01*
X354Y-1370D01*
X354Y-1370D01*
X355Y-1370D01*
X355Y-1370D01*
X355Y-1370D01*
X356Y-1371D01*
X358Y-1372D01*
X358Y-1372D01*
X359Y-1372D01*
X359Y-1372D01*
X359D01*
X361Y-1373D01*
X362Y-1374D01*
X363Y-1374D01*
X364Y-1374D01*
X364Y-1374D01*
X364Y-1374D01*
X365D01*
X367Y-1375D01*
X368Y-1375D01*
X369D01*
X369Y-1375D01*
X371D01*
X373Y-1375D01*
X374Y-1375D01*
X375Y-1375D01*
X376Y-1374D01*
X377Y-1374D01*
X377Y-1374D01*
X377D01*
X378Y-1374D01*
X379Y-1374D01*
X380Y-1373D01*
X381Y-1373D01*
X382Y-1372D01*
X382Y-1372D01*
X382Y-1372D01*
X382Y-1372D01*
X384Y-1371D01*
X385Y-1370D01*
X385Y-1369D01*
X386Y-1369D01*
X386Y-1368D01*
X386Y-1368D01*
X386Y-1368D01*
X387Y-1367D01*
X387Y-1366D01*
X387Y-1364D01*
X388Y-1363D01*
X388Y-1362D01*
Y-1362D01*
X388Y-1361D01*
Y-1361D01*
X349D01*
Y-1355D01*
X349Y-1352D01*
X349Y-1350D01*
X350Y-1348D01*
X350Y-1346D01*
X351Y-1344D01*
X351Y-1343D01*
X352Y-1341D01*
X352Y-1340D01*
X353Y-1339D01*
X354Y-1337D01*
X354Y-1337D01*
X355Y-1336D01*
X355Y-1335D01*
X355Y-1335D01*
X356Y-1335D01*
X356Y-1335D01*
X357Y-1333D01*
X358Y-1332D01*
X360Y-1331D01*
X362Y-1331D01*
X363Y-1330D01*
X365Y-1329D01*
X368Y-1328D01*
X369Y-1328D01*
X371Y-1328D01*
X372Y-1328D01*
X373Y-1328D01*
X374Y-1327D01*
X375D01*
X378Y-1328D01*
D02*
G37*
G36*
X1412Y-1564D02*
X1412Y-1566D01*
X1412Y-1568D01*
X1411Y-1570D01*
X1411Y-1571D01*
X1411Y-1573D01*
X1410Y-1574D01*
X1410Y-1575D01*
X1409Y-1576D01*
X1409Y-1577D01*
X1409Y-1578D01*
X1408Y-1579D01*
X1408Y-1579D01*
X1408Y-1580D01*
X1407Y-1580D01*
X1407Y-1580D01*
Y-1580D01*
X1406Y-1581D01*
X1405Y-1582D01*
X1404Y-1583D01*
X1403Y-1583D01*
X1401Y-1584D01*
X1399Y-1585D01*
X1397Y-1585D01*
X1396Y-1585D01*
X1395Y-1585D01*
X1395Y-1586D01*
X1394D01*
X1392Y-1585D01*
X1390Y-1585D01*
X1389Y-1585D01*
X1388Y-1585D01*
X1386Y-1584D01*
X1386Y-1584D01*
X1385Y-1584D01*
X1385Y-1584D01*
X1384Y-1583D01*
X1382Y-1582D01*
X1381Y-1581D01*
X1379Y-1580D01*
X1378Y-1579D01*
X1377Y-1578D01*
X1377Y-1578D01*
X1376Y-1578D01*
Y-1584D01*
X1359D01*
Y-1527D01*
X1376D01*
Y-1568D01*
X1378Y-1569D01*
X1380Y-1569D01*
X1380Y-1570D01*
X1381Y-1570D01*
X1381Y-1570D01*
X1381D01*
X1383Y-1571D01*
X1384Y-1571D01*
X1384Y-1571D01*
X1385Y-1571D01*
X1387D01*
X1388Y-1571D01*
X1389Y-1571D01*
X1389Y-1570D01*
X1390Y-1570D01*
X1390Y-1570D01*
X1390Y-1570D01*
X1390D01*
X1391Y-1569D01*
X1392Y-1568D01*
X1393Y-1568D01*
X1393Y-1568D01*
X1393Y-1567D01*
Y-1567D01*
X1393Y-1566D01*
X1394Y-1564D01*
X1394Y-1564D01*
X1394Y-1563D01*
Y-1563D01*
Y-1563D01*
X1394Y-1562D01*
Y-1560D01*
Y-1559D01*
X1394Y-1558D01*
Y-1557D01*
Y-1556D01*
Y-1556D01*
Y-1555D01*
Y-1527D01*
X1412D01*
Y-1564D01*
D02*
G37*
G36*
X767Y-1212D02*
X770Y-1213D01*
X773Y-1213D01*
X776Y-1214D01*
X778Y-1215D01*
X780Y-1216D01*
X782Y-1217D01*
X784Y-1217D01*
X786Y-1219D01*
X787Y-1219D01*
X788Y-1220D01*
X789Y-1221D01*
X790Y-1222D01*
X791Y-1222D01*
X791Y-1223D01*
X791Y-1223D01*
X793Y-1225D01*
X794Y-1227D01*
X796Y-1229D01*
X797Y-1232D01*
X798Y-1234D01*
X799Y-1237D01*
X799Y-1239D01*
X800Y-1241D01*
X800Y-1243D01*
X800Y-1245D01*
X801Y-1247D01*
X801Y-1248D01*
X801Y-1250D01*
X801Y-1251D01*
Y-1251D01*
Y-1251D01*
Y-1251D01*
X801Y-1255D01*
X801Y-1258D01*
X800Y-1261D01*
X799Y-1264D01*
X799Y-1266D01*
X798Y-1269D01*
X797Y-1271D01*
X796Y-1273D01*
X795Y-1275D01*
X794Y-1276D01*
X793Y-1277D01*
X793Y-1278D01*
X792Y-1279D01*
X792Y-1280D01*
X791Y-1280D01*
X791Y-1280D01*
X789Y-1282D01*
X787Y-1284D01*
X785Y-1285D01*
X783Y-1286D01*
X780Y-1287D01*
X778Y-1288D01*
X776Y-1289D01*
X774Y-1289D01*
X772Y-1290D01*
X770Y-1290D01*
X769Y-1290D01*
X767Y-1290D01*
X766Y-1290D01*
X765Y-1290D01*
X762D01*
X761Y-1290D01*
X759Y-1290D01*
X758Y-1290D01*
X757Y-1290D01*
X756Y-1290D01*
X756Y-1290D01*
X756D01*
X753Y-1289D01*
X752Y-1289D01*
X751Y-1289D01*
X750Y-1289D01*
X750Y-1288D01*
X749Y-1288D01*
X749D01*
X747Y-1288D01*
X746Y-1287D01*
X745Y-1287D01*
X745Y-1287D01*
X744Y-1287D01*
X744Y-1286D01*
X744D01*
X742Y-1285D01*
X741Y-1285D01*
X740Y-1285D01*
X740Y-1284D01*
X739Y-1284D01*
X739Y-1284D01*
X739D01*
Y-1266D01*
X741D01*
X742Y-1267D01*
X743Y-1268D01*
X743Y-1269D01*
X744Y-1269D01*
X744Y-1269D01*
X744Y-1269D01*
X745Y-1270D01*
X747Y-1271D01*
X747Y-1272D01*
X748Y-1272D01*
X748Y-1272D01*
X748Y-1272D01*
X749Y-1273D01*
X750Y-1273D01*
X751Y-1274D01*
X752Y-1274D01*
X753Y-1275D01*
X753Y-1275D01*
X754Y-1275D01*
X754Y-1275D01*
X755Y-1276D01*
X757Y-1276D01*
X758Y-1276D01*
X759Y-1276D01*
X760D01*
X761Y-1276D01*
X761D01*
X762Y-1276D01*
X764Y-1276D01*
X765Y-1276D01*
X766Y-1276D01*
X767Y-1275D01*
X768Y-1275D01*
X768Y-1275D01*
X768D01*
X770Y-1275D01*
X771Y-1274D01*
X772Y-1273D01*
X773Y-1273D01*
X774Y-1272D01*
X774Y-1271D01*
X775Y-1271D01*
X775Y-1271D01*
X776Y-1270D01*
X777Y-1269D01*
X778Y-1267D01*
X778Y-1266D01*
X779Y-1265D01*
X779Y-1264D01*
X780Y-1263D01*
X780Y-1263D01*
X780Y-1261D01*
X781Y-1259D01*
X781Y-1257D01*
X781Y-1256D01*
X781Y-1254D01*
Y-1253D01*
X782Y-1253D01*
Y-1252D01*
Y-1252D01*
Y-1252D01*
Y-1252D01*
X781Y-1249D01*
X781Y-1247D01*
X781Y-1245D01*
X781Y-1243D01*
X780Y-1242D01*
X780Y-1241D01*
X780Y-1240D01*
X780Y-1240D01*
X780Y-1240D01*
Y-1240D01*
X779Y-1238D01*
X778Y-1237D01*
X778Y-1235D01*
X777Y-1234D01*
X776Y-1233D01*
X776Y-1233D01*
X775Y-1232D01*
X775Y-1232D01*
X774Y-1231D01*
X773Y-1230D01*
X772Y-1229D01*
X771Y-1229D01*
X770Y-1228D01*
X769Y-1228D01*
X769Y-1228D01*
X769Y-1228D01*
X767Y-1227D01*
X766Y-1227D01*
X765Y-1227D01*
X764Y-1227D01*
X763Y-1226D01*
X762Y-1226D01*
X760D01*
X759Y-1227D01*
X758Y-1227D01*
X757Y-1227D01*
X756Y-1227D01*
X755Y-1227D01*
X755Y-1227D01*
X755Y-1227D01*
X754Y-1228D01*
X752Y-1228D01*
X751Y-1229D01*
X751Y-1229D01*
X750Y-1230D01*
X749Y-1230D01*
X749Y-1230D01*
X749Y-1230D01*
X747Y-1231D01*
X746Y-1232D01*
X746Y-1232D01*
X745Y-1233D01*
X744Y-1233D01*
X744Y-1233D01*
X744Y-1234D01*
X743Y-1235D01*
X742Y-1235D01*
X741Y-1236D01*
X741Y-1236D01*
X741Y-1236D01*
X741Y-1236D01*
X739D01*
Y-1219D01*
X739Y-1218D01*
X740Y-1218D01*
X742Y-1217D01*
X743Y-1217D01*
X743Y-1216D01*
X744Y-1216D01*
X744Y-1216D01*
X746Y-1215D01*
X747Y-1215D01*
X748Y-1215D01*
X748Y-1214D01*
X749Y-1214D01*
X749Y-1214D01*
X749D01*
X752Y-1214D01*
X753Y-1213D01*
X754Y-1213D01*
X755Y-1213D01*
X756Y-1213D01*
X756Y-1213D01*
X756D01*
X759Y-1212D01*
X760Y-1212D01*
X762D01*
X763Y-1212D01*
X764D01*
X767Y-1212D01*
D02*
G37*
G36*
X1387Y-1231D02*
X1390Y-1231D01*
X1392Y-1231D01*
X1394Y-1232D01*
X1396Y-1232D01*
X1398Y-1233D01*
X1400Y-1234D01*
X1401Y-1235D01*
X1402Y-1235D01*
X1404Y-1236D01*
X1405Y-1237D01*
X1405Y-1237D01*
X1406Y-1238D01*
X1406Y-1239D01*
X1407Y-1239D01*
X1407Y-1239D01*
X1408Y-1240D01*
X1409Y-1242D01*
X1411Y-1244D01*
X1411Y-1246D01*
X1412Y-1248D01*
X1413Y-1250D01*
X1413Y-1251D01*
X1414Y-1253D01*
X1414Y-1255D01*
X1414Y-1256D01*
X1415Y-1258D01*
X1415Y-1259D01*
Y-1260D01*
X1415Y-1260D01*
Y-1261D01*
Y-1261D01*
X1415Y-1264D01*
X1414Y-1266D01*
X1414Y-1268D01*
X1413Y-1270D01*
X1413Y-1272D01*
X1412Y-1274D01*
X1411Y-1276D01*
X1411Y-1277D01*
X1410Y-1279D01*
X1409Y-1280D01*
X1408Y-1281D01*
X1408Y-1282D01*
X1407Y-1282D01*
X1407Y-1283D01*
X1406Y-1283D01*
X1406Y-1283D01*
X1405Y-1284D01*
X1403Y-1285D01*
X1401Y-1287D01*
X1399Y-1287D01*
X1397Y-1288D01*
X1395Y-1289D01*
X1393Y-1289D01*
X1391Y-1290D01*
X1389Y-1290D01*
X1387Y-1290D01*
X1386Y-1290D01*
X1384Y-1290D01*
X1383D01*
X1382Y-1291D01*
X1380D01*
X1379Y-1290D01*
X1377Y-1290D01*
X1376Y-1290D01*
X1375D01*
X1375Y-1290D01*
X1374Y-1290D01*
X1374D01*
X1372Y-1290D01*
X1371Y-1290D01*
X1370Y-1289D01*
X1369Y-1289D01*
X1369Y-1289D01*
X1368Y-1289D01*
X1368D01*
X1367Y-1289D01*
X1366Y-1288D01*
X1365Y-1288D01*
X1365Y-1288D01*
X1364Y-1288D01*
X1364Y-1288D01*
X1363Y-1288D01*
X1363D01*
X1362Y-1287D01*
X1361Y-1286D01*
X1360Y-1286D01*
X1360Y-1286D01*
X1359Y-1286D01*
X1359D01*
Y-1271D01*
X1361D01*
X1362Y-1272D01*
X1363Y-1273D01*
X1364Y-1273D01*
X1364Y-1273D01*
X1364Y-1273D01*
X1364Y-1273D01*
X1366Y-1274D01*
X1367Y-1275D01*
X1367Y-1275D01*
X1368Y-1275D01*
X1368Y-1275D01*
X1368D01*
X1370Y-1276D01*
X1371Y-1277D01*
X1372Y-1277D01*
X1373Y-1277D01*
X1373Y-1277D01*
X1374Y-1277D01*
X1374D01*
X1376Y-1278D01*
X1377Y-1278D01*
X1378D01*
X1379Y-1278D01*
X1380D01*
X1382Y-1278D01*
X1383Y-1278D01*
X1384Y-1278D01*
X1385Y-1277D01*
X1386Y-1277D01*
X1386Y-1277D01*
X1386D01*
X1387Y-1277D01*
X1389Y-1277D01*
X1389Y-1276D01*
X1390Y-1276D01*
X1391Y-1275D01*
X1391Y-1275D01*
X1392Y-1275D01*
X1392Y-1275D01*
X1393Y-1274D01*
X1394Y-1273D01*
X1394Y-1272D01*
X1395Y-1272D01*
X1395Y-1271D01*
X1395Y-1271D01*
X1396Y-1271D01*
X1396Y-1270D01*
X1396Y-1269D01*
X1397Y-1267D01*
X1397Y-1266D01*
X1397Y-1265D01*
Y-1265D01*
X1397Y-1264D01*
Y-1264D01*
X1358D01*
Y-1258D01*
X1358Y-1255D01*
X1359Y-1253D01*
X1359Y-1251D01*
X1359Y-1249D01*
X1360Y-1247D01*
X1360Y-1246D01*
X1361Y-1244D01*
X1362Y-1243D01*
X1362Y-1242D01*
X1363Y-1240D01*
X1363Y-1240D01*
X1364Y-1239D01*
X1364Y-1238D01*
X1365Y-1238D01*
X1365Y-1238D01*
X1365Y-1238D01*
X1366Y-1236D01*
X1368Y-1235D01*
X1369Y-1234D01*
X1371Y-1234D01*
X1372Y-1233D01*
X1374Y-1232D01*
X1377Y-1231D01*
X1379Y-1231D01*
X1380Y-1231D01*
X1381Y-1231D01*
X1382Y-1231D01*
X1383Y-1230D01*
X1384D01*
X1387Y-1231D01*
D02*
G37*
G36*
X1283Y-1269D02*
X1283Y-1271D01*
X1283Y-1273D01*
X1283Y-1275D01*
X1283Y-1276D01*
X1282Y-1278D01*
X1282Y-1279D01*
X1282Y-1280D01*
X1281Y-1281D01*
X1281Y-1282D01*
X1280Y-1283D01*
X1280Y-1284D01*
X1279Y-1284D01*
X1279Y-1285D01*
X1279Y-1285D01*
X1279Y-1285D01*
Y-1285D01*
X1278Y-1286D01*
X1277Y-1287D01*
X1276Y-1288D01*
X1275Y-1288D01*
X1272Y-1289D01*
X1270Y-1290D01*
X1269Y-1290D01*
X1268Y-1290D01*
X1267Y-1290D01*
X1266Y-1291D01*
X1266D01*
X1264Y-1290D01*
X1262Y-1290D01*
X1260Y-1290D01*
X1259Y-1290D01*
X1258Y-1289D01*
X1257Y-1289D01*
X1257Y-1289D01*
X1257Y-1289D01*
X1255Y-1288D01*
X1254Y-1287D01*
X1252Y-1286D01*
X1251Y-1285D01*
X1250Y-1284D01*
X1249Y-1283D01*
X1248Y-1283D01*
X1248Y-1283D01*
Y-1289D01*
X1230D01*
Y-1232D01*
X1248D01*
Y-1273D01*
X1250Y-1274D01*
X1251Y-1274D01*
X1252Y-1275D01*
X1252Y-1275D01*
X1253Y-1275D01*
X1253D01*
X1255Y-1276D01*
X1255Y-1276D01*
X1256Y-1276D01*
X1256Y-1276D01*
X1258D01*
X1259Y-1276D01*
X1260Y-1276D01*
X1261Y-1275D01*
X1261Y-1275D01*
X1262Y-1275D01*
X1262Y-1275D01*
X1262D01*
X1263Y-1274D01*
X1264Y-1273D01*
X1264Y-1273D01*
X1264Y-1273D01*
X1264Y-1272D01*
Y-1272D01*
X1265Y-1271D01*
X1265Y-1269D01*
X1265Y-1269D01*
X1265Y-1268D01*
Y-1268D01*
Y-1268D01*
X1266Y-1267D01*
Y-1265D01*
Y-1264D01*
X1266Y-1263D01*
Y-1262D01*
Y-1261D01*
Y-1261D01*
Y-1260D01*
Y-1232D01*
X1283D01*
Y-1269D01*
D02*
G37*
G36*
X1625Y-1289D02*
X1604D01*
X1593Y-1242D01*
X1580Y-1289D01*
X1560D01*
X1541Y-1214D01*
X1560D01*
X1571Y-1264D01*
X1583Y-1214D01*
X1602D01*
X1614Y-1264D01*
X1624Y-1214D01*
X1644D01*
X1625Y-1289D01*
D02*
G37*
G36*
X1457D02*
X1438D01*
X1417Y-1232D01*
X1436D01*
X1447Y-1270D01*
X1459Y-1232D01*
X1477D01*
X1457Y-1289D01*
D02*
G37*
G36*
X915D02*
X865D01*
Y-1275D01*
X896D01*
Y-1214D01*
X915D01*
Y-1289D01*
D02*
G37*
G36*
X856D02*
X806D01*
Y-1275D01*
X837D01*
Y-1214D01*
X856D01*
Y-1289D01*
D02*
G37*
G36*
X959Y-1232D02*
X960Y-1232D01*
X960Y-1232D01*
X961Y-1233D01*
X962Y-1233D01*
X962Y-1233D01*
X962D01*
X964Y-1234D01*
X964Y-1234D01*
X965Y-1234D01*
X966Y-1235D01*
X966Y-1235D01*
X966Y-1235D01*
X966Y-1235D01*
X968Y-1236D01*
X969Y-1237D01*
X970Y-1237D01*
X970Y-1237D01*
X970Y-1238D01*
X970Y-1238D01*
X972Y-1239D01*
X973Y-1240D01*
X973Y-1240D01*
X973Y-1240D01*
X974Y-1240D01*
Y-1232D01*
X991D01*
Y-1289D01*
X974D01*
Y-1251D01*
X972Y-1250D01*
X970Y-1250D01*
X970Y-1250D01*
X969Y-1249D01*
X968Y-1249D01*
X968Y-1249D01*
X968D01*
X965Y-1249D01*
X965Y-1249D01*
X964Y-1248D01*
X963Y-1248D01*
X960D01*
X960Y-1248D01*
X958D01*
X958Y-1249D01*
X958D01*
X956Y-1249D01*
X955Y-1249D01*
X955Y-1249D01*
X955Y-1249D01*
X953D01*
Y-1232D01*
X954Y-1232D01*
X955D01*
X956Y-1232D01*
X957D01*
X959Y-1232D01*
D02*
G37*
G36*
X1029Y-1231D02*
X1032Y-1231D01*
X1034Y-1231D01*
X1036Y-1232D01*
X1038Y-1232D01*
X1040Y-1233D01*
X1042Y-1234D01*
X1043Y-1235D01*
X1044Y-1235D01*
X1046Y-1236D01*
X1047Y-1237D01*
X1048Y-1237D01*
X1048Y-1238D01*
X1049Y-1239D01*
X1049Y-1239D01*
X1049Y-1239D01*
X1050Y-1240D01*
X1052Y-1242D01*
X1053Y-1244D01*
X1054Y-1246D01*
X1054Y-1248D01*
X1055Y-1250D01*
X1055Y-1251D01*
X1056Y-1253D01*
X1056Y-1255D01*
X1056Y-1256D01*
X1057Y-1258D01*
X1057Y-1259D01*
Y-1260D01*
X1057Y-1260D01*
Y-1261D01*
Y-1261D01*
X1057Y-1264D01*
X1056Y-1266D01*
X1056Y-1268D01*
X1056Y-1270D01*
X1055Y-1272D01*
X1054Y-1274D01*
X1053Y-1276D01*
X1053Y-1277D01*
X1052Y-1279D01*
X1051Y-1280D01*
X1050Y-1281D01*
X1050Y-1282D01*
X1049Y-1282D01*
X1049Y-1283D01*
X1048Y-1283D01*
X1048Y-1283D01*
X1047Y-1284D01*
X1045Y-1285D01*
X1043Y-1287D01*
X1041Y-1287D01*
X1039Y-1288D01*
X1037Y-1289D01*
X1035Y-1289D01*
X1033Y-1290D01*
X1031Y-1290D01*
X1029Y-1290D01*
X1028Y-1290D01*
X1026Y-1290D01*
X1025D01*
X1025Y-1291D01*
X1022D01*
X1021Y-1290D01*
X1019Y-1290D01*
X1018Y-1290D01*
X1017D01*
X1017Y-1290D01*
X1016Y-1290D01*
X1016D01*
X1014Y-1290D01*
X1013Y-1290D01*
X1012Y-1289D01*
X1011Y-1289D01*
X1011Y-1289D01*
X1010Y-1289D01*
X1010D01*
X1009Y-1289D01*
X1008Y-1288D01*
X1007Y-1288D01*
X1007Y-1288D01*
X1006Y-1288D01*
X1006Y-1288D01*
X1006Y-1288D01*
X1005D01*
X1004Y-1287D01*
X1003Y-1286D01*
X1002Y-1286D01*
X1002Y-1286D01*
X1001Y-1286D01*
X1001D01*
Y-1271D01*
X1003D01*
X1004Y-1272D01*
X1005Y-1273D01*
X1006Y-1273D01*
X1006Y-1273D01*
X1006Y-1273D01*
X1006Y-1273D01*
X1008Y-1274D01*
X1009Y-1275D01*
X1010Y-1275D01*
X1010Y-1275D01*
X1010Y-1275D01*
X1010D01*
X1012Y-1276D01*
X1013Y-1277D01*
X1014Y-1277D01*
X1015Y-1277D01*
X1015Y-1277D01*
X1016Y-1277D01*
X1016D01*
X1018Y-1278D01*
X1019Y-1278D01*
X1020D01*
X1021Y-1278D01*
X1022D01*
X1024Y-1278D01*
X1026Y-1278D01*
X1027Y-1278D01*
X1027Y-1277D01*
X1028Y-1277D01*
X1028Y-1277D01*
X1029D01*
X1030Y-1277D01*
X1031Y-1277D01*
X1032Y-1276D01*
X1032Y-1276D01*
X1033Y-1275D01*
X1033Y-1275D01*
X1034Y-1275D01*
X1034Y-1275D01*
X1035Y-1274D01*
X1036Y-1273D01*
X1037Y-1272D01*
X1037Y-1272D01*
X1037Y-1271D01*
X1038Y-1271D01*
X1038Y-1271D01*
X1038Y-1270D01*
X1038Y-1269D01*
X1039Y-1267D01*
X1039Y-1266D01*
X1039Y-1265D01*
Y-1265D01*
X1039Y-1264D01*
Y-1264D01*
X1000D01*
Y-1258D01*
X1000Y-1255D01*
X1001Y-1253D01*
X1001Y-1251D01*
X1001Y-1249D01*
X1002Y-1247D01*
X1002Y-1246D01*
X1003Y-1244D01*
X1004Y-1243D01*
X1004Y-1242D01*
X1005Y-1240D01*
X1005Y-1240D01*
X1006Y-1239D01*
X1006Y-1238D01*
X1007Y-1238D01*
X1007Y-1238D01*
X1007Y-1238D01*
X1008Y-1236D01*
X1010Y-1235D01*
X1011Y-1234D01*
X1013Y-1234D01*
X1014Y-1233D01*
X1016Y-1232D01*
X1019Y-1231D01*
X1021Y-1231D01*
X1022Y-1231D01*
X1023Y-1231D01*
X1024Y-1231D01*
X1025Y-1230D01*
X1027D01*
X1029Y-1231D01*
D02*
G37*
G36*
X1316Y-1231D02*
X1318Y-1231D01*
X1319Y-1231D01*
X1320Y-1232D01*
X1322Y-1232D01*
X1322Y-1232D01*
X1323Y-1233D01*
X1323Y-1233D01*
X1325Y-1234D01*
X1326Y-1235D01*
X1328Y-1235D01*
X1329Y-1236D01*
X1330Y-1237D01*
X1331Y-1238D01*
X1331Y-1238D01*
X1331Y-1239D01*
Y-1232D01*
X1349D01*
Y-1289D01*
X1331D01*
Y-1249D01*
X1330Y-1248D01*
X1329Y-1247D01*
X1328Y-1247D01*
X1328Y-1247D01*
X1327Y-1246D01*
X1327Y-1246D01*
X1327D01*
X1325Y-1246D01*
X1324Y-1246D01*
X1324Y-1245D01*
X1323Y-1245D01*
X1321D01*
X1320Y-1245D01*
X1320Y-1246D01*
X1319Y-1246D01*
X1319Y-1246D01*
X1318Y-1246D01*
X1318Y-1246D01*
X1318D01*
X1317Y-1247D01*
X1316Y-1248D01*
X1316Y-1248D01*
X1315Y-1249D01*
X1315Y-1249D01*
Y-1249D01*
X1315Y-1250D01*
X1315Y-1250D01*
X1314Y-1252D01*
X1314Y-1253D01*
Y-1254D01*
X1314Y-1254D01*
Y-1254D01*
X1314Y-1257D01*
Y-1258D01*
X1314Y-1259D01*
Y-1260D01*
Y-1260D01*
Y-1261D01*
Y-1261D01*
Y-1289D01*
X1296D01*
Y-1252D01*
Y-1250D01*
X1296Y-1249D01*
X1297Y-1247D01*
X1297Y-1245D01*
X1297Y-1244D01*
X1298Y-1243D01*
X1298Y-1241D01*
X1298Y-1240D01*
X1299Y-1239D01*
X1299Y-1239D01*
X1300Y-1238D01*
X1300Y-1237D01*
X1300Y-1237D01*
X1301Y-1236D01*
X1301Y-1236D01*
X1301Y-1236D01*
X1302Y-1235D01*
X1303Y-1234D01*
X1304Y-1234D01*
X1305Y-1233D01*
X1307Y-1232D01*
X1309Y-1231D01*
X1311Y-1231D01*
X1312Y-1231D01*
X1313Y-1231D01*
X1313Y-1231D01*
X1314D01*
X1316Y-1231D01*
D02*
G37*
G36*
X1280Y-1584D02*
X1262D01*
Y-1544D01*
X1261Y-1543D01*
X1260Y-1542D01*
X1259Y-1542D01*
X1259Y-1542D01*
X1258Y-1541D01*
X1258Y-1541D01*
X1258D01*
X1256Y-1541D01*
X1255Y-1541D01*
X1255Y-1540D01*
X1254Y-1540D01*
X1252D01*
X1251Y-1540D01*
X1251Y-1541D01*
X1250Y-1541D01*
X1249Y-1541D01*
X1249Y-1541D01*
X1249Y-1541D01*
X1249D01*
X1248Y-1542D01*
X1247Y-1543D01*
X1246Y-1543D01*
X1246Y-1544D01*
X1246Y-1544D01*
Y-1544D01*
X1246Y-1545D01*
X1246Y-1545D01*
X1245Y-1547D01*
X1245Y-1548D01*
Y-1549D01*
X1245Y-1549D01*
Y-1549D01*
X1245Y-1552D01*
Y-1553D01*
X1245Y-1554D01*
Y-1555D01*
Y-1555D01*
Y-1556D01*
Y-1556D01*
Y-1584D01*
X1227D01*
Y-1547D01*
Y-1545D01*
X1227Y-1544D01*
X1227Y-1542D01*
X1228Y-1540D01*
X1228Y-1539D01*
X1228Y-1538D01*
X1229Y-1536D01*
X1229Y-1535D01*
X1230Y-1534D01*
X1230Y-1534D01*
X1231Y-1533D01*
X1231Y-1532D01*
X1231Y-1532D01*
X1231Y-1531D01*
X1232Y-1531D01*
X1232Y-1531D01*
X1233Y-1530D01*
X1234Y-1529D01*
X1235Y-1529D01*
X1236Y-1528D01*
X1238Y-1527D01*
X1240Y-1526D01*
X1242Y-1526D01*
X1243Y-1526D01*
X1243Y-1526D01*
X1244Y-1526D01*
X1245D01*
X1247Y-1526D01*
X1248Y-1526D01*
X1250Y-1526D01*
X1251Y-1527D01*
X1253Y-1527D01*
X1253Y-1527D01*
X1254Y-1528D01*
X1254Y-1528D01*
X1256Y-1529D01*
X1257Y-1530D01*
X1258Y-1530D01*
X1260Y-1531D01*
X1261Y-1532D01*
X1262Y-1533D01*
X1262Y-1533D01*
X1262Y-1534D01*
Y-1505D01*
X1280D01*
Y-1584D01*
D02*
G37*
G36*
X1327Y-1526D02*
X1329Y-1526D01*
X1331Y-1526D01*
X1332Y-1527D01*
X1333Y-1527D01*
X1334Y-1527D01*
X1335Y-1528D01*
X1335Y-1528D01*
X1335D01*
X1336Y-1529D01*
X1338Y-1529D01*
X1339Y-1530D01*
X1340Y-1531D01*
X1341Y-1532D01*
X1342Y-1533D01*
X1342Y-1533D01*
X1342Y-1533D01*
X1344Y-1535D01*
X1345Y-1536D01*
X1346Y-1538D01*
X1346Y-1539D01*
X1347Y-1540D01*
X1347Y-1541D01*
X1347Y-1542D01*
X1348Y-1542D01*
X1348Y-1542D01*
Y-1542D01*
X1348Y-1544D01*
X1349Y-1546D01*
X1349Y-1548D01*
X1349Y-1550D01*
X1349Y-1552D01*
Y-1553D01*
X1349Y-1553D01*
Y-1554D01*
Y-1554D01*
Y-1554D01*
Y-1554D01*
X1349Y-1557D01*
X1349Y-1559D01*
X1349Y-1562D01*
X1348Y-1564D01*
X1348Y-1566D01*
X1348Y-1568D01*
X1347Y-1569D01*
X1346Y-1571D01*
X1346Y-1572D01*
X1345Y-1573D01*
X1345Y-1574D01*
X1344Y-1575D01*
X1344Y-1575D01*
X1344Y-1576D01*
X1344Y-1576D01*
X1343Y-1576D01*
X1342Y-1577D01*
X1341Y-1578D01*
X1340Y-1579D01*
X1338Y-1580D01*
X1337Y-1581D01*
X1335Y-1581D01*
X1333Y-1582D01*
X1331Y-1583D01*
X1330Y-1583D01*
X1329Y-1583D01*
X1328Y-1583D01*
X1327Y-1583D01*
X1326D01*
X1325Y-1583D01*
X1323Y-1583D01*
X1322Y-1583D01*
X1321Y-1582D01*
X1320Y-1582D01*
X1319Y-1582D01*
X1319Y-1582D01*
X1318Y-1582D01*
X1317Y-1581D01*
X1315Y-1580D01*
X1314Y-1580D01*
X1313Y-1579D01*
X1312Y-1578D01*
X1312Y-1578D01*
X1311Y-1578D01*
X1311Y-1577D01*
Y-1578D01*
Y-1580D01*
X1311Y-1581D01*
X1312Y-1582D01*
X1312Y-1583D01*
X1312Y-1583D01*
X1312Y-1584D01*
X1312Y-1584D01*
Y-1584D01*
X1313Y-1586D01*
X1313Y-1587D01*
X1313Y-1587D01*
X1314Y-1588D01*
X1314Y-1588D01*
X1314Y-1588D01*
X1314Y-1588D01*
X1315Y-1589D01*
X1315Y-1590D01*
X1317Y-1590D01*
X1318Y-1591D01*
X1318Y-1591D01*
X1319Y-1591D01*
X1319D01*
X1320Y-1591D01*
X1321Y-1592D01*
X1322Y-1592D01*
X1323Y-1592D01*
X1325D01*
X1325Y-1592D01*
X1326D01*
X1328Y-1592D01*
X1329Y-1592D01*
X1330Y-1592D01*
X1330D01*
X1330Y-1592D01*
X1330D01*
X1332Y-1591D01*
X1333Y-1591D01*
X1334Y-1591D01*
X1334Y-1591D01*
X1335Y-1591D01*
X1335D01*
X1336Y-1590D01*
X1337Y-1590D01*
X1338Y-1590D01*
X1338Y-1590D01*
X1338Y-1590D01*
X1338D01*
X1340Y-1589D01*
X1341Y-1589D01*
X1341Y-1589D01*
X1341Y-1589D01*
X1341Y-1589D01*
X1343D01*
Y-1603D01*
X1342Y-1603D01*
X1341Y-1603D01*
X1339Y-1604D01*
X1338Y-1604D01*
X1337Y-1604D01*
X1336Y-1604D01*
X1335Y-1605D01*
X1335D01*
X1331Y-1605D01*
X1329Y-1605D01*
X1327Y-1605D01*
X1326Y-1605D01*
X1324D01*
X1321Y-1605D01*
X1319Y-1605D01*
X1317Y-1605D01*
X1315Y-1605D01*
X1314Y-1604D01*
X1313Y-1604D01*
X1313Y-1604D01*
X1312Y-1604D01*
X1312D01*
X1312Y-1604D01*
X1312D01*
X1310Y-1603D01*
X1308Y-1603D01*
X1306Y-1602D01*
X1305Y-1601D01*
X1304Y-1600D01*
X1303Y-1600D01*
X1302Y-1600D01*
X1302Y-1599D01*
X1301Y-1598D01*
X1300Y-1597D01*
X1298Y-1595D01*
X1298Y-1594D01*
X1297Y-1593D01*
X1296Y-1592D01*
X1296Y-1591D01*
X1296Y-1591D01*
X1296Y-1591D01*
Y-1591D01*
X1295Y-1589D01*
X1295Y-1586D01*
X1294Y-1584D01*
X1294Y-1582D01*
X1294Y-1580D01*
Y-1580D01*
X1294Y-1579D01*
Y-1578D01*
Y-1578D01*
Y-1578D01*
Y-1578D01*
Y-1527D01*
X1311D01*
X1311Y-1530D01*
X1314Y-1529D01*
X1315Y-1528D01*
X1316Y-1528D01*
X1317Y-1527D01*
X1317Y-1527D01*
X1318Y-1527D01*
X1318D01*
X1319Y-1526D01*
X1320Y-1526D01*
X1322Y-1526D01*
X1323Y-1526D01*
X1324D01*
X1325Y-1526D01*
X1326D01*
X1327Y-1526D01*
D02*
G37*
G36*
X1490Y-1584D02*
X1471D01*
Y-1551D01*
X1445D01*
Y-1584D01*
X1426D01*
Y-1509D01*
X1445D01*
Y-1536D01*
X1471D01*
Y-1509D01*
X1490D01*
Y-1584D01*
D02*
G37*
G36*
X1118Y-1289D02*
X1101D01*
X1100Y-1286D01*
X1099Y-1287D01*
X1098Y-1288D01*
X1097Y-1288D01*
X1096Y-1288D01*
X1095Y-1289D01*
X1094Y-1289D01*
X1094Y-1289D01*
X1094D01*
X1091Y-1290D01*
X1090Y-1290D01*
X1089Y-1290D01*
X1088D01*
X1087Y-1290D01*
X1086D01*
X1085Y-1290D01*
X1083Y-1290D01*
X1081Y-1289D01*
X1079Y-1289D01*
X1078Y-1288D01*
X1077Y-1288D01*
X1075Y-1287D01*
X1074Y-1286D01*
X1073Y-1285D01*
X1072Y-1284D01*
X1071Y-1284D01*
X1071Y-1283D01*
X1070Y-1283D01*
X1070Y-1282D01*
X1069Y-1282D01*
X1069Y-1282D01*
X1068Y-1280D01*
X1067Y-1278D01*
X1066Y-1277D01*
X1065Y-1275D01*
X1065Y-1273D01*
X1064Y-1271D01*
X1063Y-1268D01*
X1063Y-1266D01*
X1063Y-1265D01*
X1063Y-1263D01*
X1063Y-1262D01*
X1062Y-1261D01*
Y-1261D01*
Y-1260D01*
Y-1260D01*
X1063Y-1257D01*
X1063Y-1255D01*
X1063Y-1253D01*
X1063Y-1251D01*
X1064Y-1249D01*
X1064Y-1247D01*
X1065Y-1245D01*
X1065Y-1244D01*
X1066Y-1243D01*
X1066Y-1242D01*
X1067Y-1241D01*
X1067Y-1240D01*
X1067Y-1239D01*
X1068Y-1239D01*
X1068Y-1239D01*
X1068Y-1239D01*
X1069Y-1237D01*
X1070Y-1236D01*
X1071Y-1235D01*
X1073Y-1234D01*
X1074Y-1233D01*
X1075Y-1233D01*
X1076Y-1232D01*
X1078Y-1232D01*
X1079Y-1231D01*
X1080Y-1231D01*
X1081Y-1231D01*
X1082Y-1231D01*
X1082Y-1231D01*
X1083D01*
X1085Y-1231D01*
X1087Y-1231D01*
X1089Y-1231D01*
X1090Y-1232D01*
X1091Y-1232D01*
X1092Y-1232D01*
X1092Y-1233D01*
X1093Y-1233D01*
X1094Y-1234D01*
X1095Y-1235D01*
X1097Y-1235D01*
X1098Y-1236D01*
X1099Y-1237D01*
X1100Y-1238D01*
X1100Y-1238D01*
X1100Y-1238D01*
Y-1210D01*
X1118D01*
Y-1289D01*
D02*
G37*
G36*
X1184Y-1231D02*
X1186Y-1231D01*
X1187Y-1231D01*
X1189Y-1232D01*
X1190Y-1232D01*
X1190Y-1232D01*
X1191Y-1233D01*
X1191Y-1233D01*
X1193Y-1234D01*
X1194Y-1235D01*
X1195Y-1235D01*
X1197Y-1236D01*
X1198Y-1237D01*
X1198Y-1238D01*
X1199Y-1238D01*
X1199Y-1239D01*
Y-1232D01*
X1217D01*
Y-1289D01*
X1199D01*
Y-1249D01*
X1198Y-1248D01*
X1196Y-1247D01*
X1196Y-1247D01*
X1196Y-1247D01*
X1195Y-1246D01*
X1195D01*
X1194Y-1246D01*
X1192Y-1245D01*
X1192Y-1245D01*
X1190D01*
X1189Y-1245D01*
X1188Y-1246D01*
X1188Y-1246D01*
X1187Y-1246D01*
X1187Y-1246D01*
X1187Y-1246D01*
X1186D01*
X1185Y-1247D01*
X1185Y-1248D01*
X1184Y-1249D01*
X1184Y-1249D01*
Y-1249D01*
X1184Y-1250D01*
X1184Y-1250D01*
X1183Y-1252D01*
X1183Y-1253D01*
X1183Y-1253D01*
Y-1254D01*
Y-1254D01*
X1183Y-1255D01*
Y-1256D01*
X1183Y-1257D01*
Y-1258D01*
Y-1259D01*
Y-1260D01*
Y-1260D01*
Y-1261D01*
Y-1289D01*
X1165D01*
Y-1249D01*
X1164Y-1248D01*
X1163Y-1247D01*
X1162Y-1247D01*
X1162Y-1247D01*
X1161Y-1246D01*
X1161Y-1246D01*
X1161D01*
X1160Y-1246D01*
X1158Y-1245D01*
X1158Y-1245D01*
X1156D01*
X1155Y-1245D01*
X1154Y-1246D01*
X1154Y-1246D01*
X1153Y-1246D01*
X1153Y-1246D01*
X1153Y-1246D01*
X1153D01*
X1152Y-1247D01*
X1151Y-1248D01*
X1150Y-1249D01*
X1150Y-1249D01*
Y-1249D01*
X1150Y-1250D01*
X1150Y-1250D01*
X1149Y-1252D01*
Y-1253D01*
X1149Y-1253D01*
Y-1254D01*
Y-1254D01*
X1149Y-1255D01*
Y-1256D01*
X1149Y-1257D01*
Y-1258D01*
Y-1259D01*
Y-1260D01*
Y-1260D01*
Y-1261D01*
Y-1289D01*
X1131D01*
Y-1252D01*
Y-1250D01*
X1132Y-1248D01*
X1132Y-1246D01*
X1132Y-1245D01*
X1132Y-1244D01*
X1132Y-1243D01*
X1132Y-1243D01*
X1133Y-1242D01*
X1133Y-1241D01*
X1134Y-1240D01*
X1134Y-1239D01*
X1135Y-1238D01*
X1135Y-1237D01*
X1136Y-1236D01*
X1136Y-1236D01*
X1136Y-1236D01*
X1137Y-1235D01*
X1138Y-1234D01*
X1139Y-1234D01*
X1140Y-1233D01*
X1140Y-1233D01*
X1141Y-1232D01*
X1141Y-1232D01*
X1141Y-1232D01*
X1143Y-1232D01*
X1144Y-1231D01*
X1145Y-1231D01*
X1146Y-1231D01*
X1147Y-1231D01*
X1148Y-1231D01*
X1148D01*
X1150Y-1231D01*
X1152Y-1231D01*
X1153Y-1232D01*
X1155Y-1232D01*
X1156Y-1232D01*
X1157Y-1233D01*
X1157Y-1233D01*
X1158Y-1233D01*
X1158D01*
X1159Y-1234D01*
X1161Y-1235D01*
X1163Y-1237D01*
X1164Y-1238D01*
X1165Y-1239D01*
X1166Y-1240D01*
X1167Y-1240D01*
X1167Y-1240D01*
X1167Y-1241D01*
X1168Y-1239D01*
X1169Y-1237D01*
X1170Y-1236D01*
X1171Y-1235D01*
X1172Y-1234D01*
X1173Y-1234D01*
X1173Y-1233D01*
X1173Y-1233D01*
X1175Y-1232D01*
X1176Y-1232D01*
X1178Y-1231D01*
X1179Y-1231D01*
X1181Y-1231D01*
X1182Y-1231D01*
X1182D01*
X1184Y-1231D01*
D02*
G37*
G36*
X1553Y-1519D02*
X1534D01*
Y-1505D01*
X1553D01*
Y-1519D01*
D02*
G37*
G36*
X2500Y-1862D02*
X1029D01*
Y-1683D01*
X2500D01*
Y-1862D01*
D02*
G37*
G36*
X1516Y-1231D02*
X1518Y-1231D01*
X1520Y-1231D01*
X1521Y-1231D01*
X1522Y-1231D01*
X1523Y-1232D01*
X1523Y-1232D01*
X1523D01*
X1525Y-1232D01*
X1527Y-1232D01*
X1529Y-1233D01*
X1530Y-1233D01*
X1531Y-1233D01*
X1531Y-1233D01*
X1532Y-1234D01*
X1532D01*
Y-1247D01*
X1530D01*
X1527Y-1246D01*
X1526Y-1245D01*
X1525Y-1245D01*
X1524Y-1245D01*
X1523Y-1244D01*
X1522Y-1244D01*
X1522D01*
X1521Y-1244D01*
X1519Y-1244D01*
X1518Y-1243D01*
X1517Y-1243D01*
X1516D01*
X1515Y-1243D01*
X1515D01*
X1513Y-1243D01*
X1510Y-1243D01*
X1509Y-1244D01*
X1507Y-1244D01*
X1506Y-1244D01*
X1505Y-1245D01*
X1505Y-1245D01*
X1505Y-1245D01*
X1504Y-1246D01*
X1503Y-1247D01*
X1502Y-1248D01*
X1502Y-1249D01*
X1501Y-1250D01*
X1501Y-1251D01*
Y-1251D01*
Y-1251D01*
Y-1252D01*
Y-1252D01*
X1504Y-1252D01*
X1507Y-1252D01*
X1509Y-1252D01*
X1511Y-1253D01*
X1512Y-1253D01*
X1513Y-1253D01*
X1514Y-1253D01*
X1514D01*
X1515Y-1253D01*
X1515Y-1253D01*
X1516D01*
X1518Y-1254D01*
X1520Y-1254D01*
X1522Y-1255D01*
X1524Y-1255D01*
X1525Y-1256D01*
X1526Y-1256D01*
X1527Y-1256D01*
X1527Y-1256D01*
X1527D01*
X1529Y-1257D01*
X1530Y-1258D01*
X1531Y-1259D01*
X1532Y-1260D01*
X1533Y-1261D01*
X1534Y-1262D01*
X1534Y-1262D01*
X1534Y-1263D01*
X1535Y-1264D01*
X1536Y-1266D01*
X1536Y-1268D01*
X1536Y-1269D01*
X1536Y-1271D01*
X1537Y-1272D01*
Y-1272D01*
Y-1273D01*
Y-1273D01*
Y-1273D01*
X1536Y-1274D01*
X1536Y-1276D01*
X1536Y-1278D01*
X1535Y-1280D01*
X1534Y-1282D01*
X1533Y-1284D01*
X1533Y-1284D01*
X1532Y-1285D01*
X1532Y-1285D01*
X1532Y-1285D01*
X1532Y-1285D01*
Y-1286D01*
X1531Y-1286D01*
X1530Y-1287D01*
X1528Y-1288D01*
X1526Y-1289D01*
X1524Y-1290D01*
X1522Y-1290D01*
X1521Y-1290D01*
X1521D01*
X1520Y-1291D01*
X1518D01*
X1517Y-1290D01*
X1516Y-1290D01*
X1515Y-1290D01*
X1514Y-1290D01*
X1513Y-1290D01*
X1513Y-1290D01*
X1513D01*
X1511Y-1289D01*
X1511Y-1289D01*
X1510Y-1289D01*
X1509Y-1289D01*
X1509Y-1288D01*
X1508Y-1288D01*
X1508D01*
X1508Y-1288D01*
X1507Y-1287D01*
X1506Y-1287D01*
X1506Y-1287D01*
X1505Y-1286D01*
X1505Y-1286D01*
X1505Y-1286D01*
X1505Y-1286D01*
X1503Y-1285D01*
X1502Y-1284D01*
X1502Y-1284D01*
X1502Y-1283D01*
X1501Y-1283D01*
X1501Y-1283D01*
Y-1289D01*
X1484D01*
Y-1250D01*
X1484Y-1249D01*
X1484Y-1247D01*
X1484Y-1245D01*
X1485Y-1244D01*
X1485Y-1242D01*
X1486Y-1241D01*
X1486Y-1240D01*
X1487Y-1239D01*
X1488Y-1238D01*
X1488Y-1238D01*
X1489Y-1237D01*
X1489Y-1236D01*
X1490Y-1236D01*
X1490Y-1236D01*
X1490Y-1236D01*
X1490Y-1235D01*
X1492Y-1235D01*
X1493Y-1234D01*
X1495Y-1233D01*
X1496Y-1233D01*
X1500Y-1232D01*
X1503Y-1231D01*
X1505Y-1231D01*
X1507Y-1231D01*
X1508Y-1231D01*
X1509D01*
X1510Y-1231D01*
X1514D01*
X1516Y-1231D01*
D02*
G37*
%LPC*%
G36*
X1716Y-1733D02*
X1715D01*
X1714Y-1733D01*
X1712D01*
X1711Y-1733D01*
X1708Y-1734D01*
X1706Y-1734D01*
X1703Y-1734D01*
X1701Y-1735D01*
X1701D01*
X1701Y-1735D01*
X1700Y-1735D01*
X1700Y-1735D01*
X1699Y-1736D01*
X1699Y-1736D01*
X1697Y-1736D01*
X1695Y-1737D01*
X1693Y-1738D01*
X1691Y-1739D01*
X1689Y-1740D01*
Y-1757D01*
X1691D01*
X1691Y-1757D01*
X1691Y-1757D01*
X1692Y-1757D01*
X1692Y-1756D01*
X1693Y-1756D01*
X1694Y-1755D01*
X1694Y-1755D01*
X1695Y-1754D01*
X1695Y-1754D01*
X1695Y-1754D01*
X1696Y-1753D01*
X1697Y-1753D01*
X1698Y-1752D01*
X1699Y-1751D01*
X1699Y-1751D01*
X1700Y-1751D01*
X1700Y-1751D01*
X1701Y-1750D01*
X1702Y-1750D01*
X1703Y-1749D01*
X1705Y-1749D01*
X1706Y-1748D01*
X1706Y-1748D01*
X1707Y-1748D01*
X1707Y-1748D01*
X1708Y-1748D01*
X1710Y-1748D01*
X1711Y-1747D01*
X1712Y-1747D01*
X1715D01*
X1716Y-1747D01*
X1717Y-1747D01*
X1718Y-1748D01*
X1720Y-1748D01*
X1721Y-1748D01*
X1723Y-1749D01*
X1723Y-1749D01*
X1723Y-1749D01*
X1724Y-1749D01*
X1725Y-1750D01*
X1726Y-1751D01*
X1727Y-1751D01*
X1728Y-1752D01*
X1730Y-1753D01*
X1730Y-1754D01*
X1730Y-1754D01*
X1731Y-1755D01*
X1732Y-1756D01*
X1732Y-1757D01*
X1733Y-1758D01*
X1734Y-1760D01*
X1735Y-1761D01*
X1735Y-1761D01*
X1735Y-1762D01*
X1735Y-1763D01*
X1735Y-1764D01*
X1736Y-1766D01*
X1736Y-1768D01*
X1736Y-1770D01*
X1736Y-1772D01*
Y-1772D01*
Y-1773D01*
Y-1773D01*
X1736Y-1774D01*
X1736Y-1775D01*
X1736Y-1777D01*
X1736Y-1778D01*
X1735Y-1779D01*
X1735Y-1783D01*
X1734Y-1784D01*
X1733Y-1786D01*
X1733Y-1787D01*
X1732Y-1789D01*
X1731Y-1790D01*
X1730Y-1792D01*
X1730Y-1792D01*
X1729Y-1792D01*
X1729Y-1792D01*
X1728Y-1793D01*
X1728Y-1793D01*
X1727Y-1794D01*
X1726Y-1794D01*
X1725Y-1795D01*
X1724Y-1795D01*
X1722Y-1796D01*
X1721Y-1796D01*
X1719Y-1797D01*
X1717Y-1797D01*
X1716Y-1798D01*
X1714Y-1798D01*
X1712Y-1798D01*
X1708D01*
X1707Y-1798D01*
Y-1783D01*
X1721D01*
Y-1769D01*
X1688D01*
Y-1806D01*
X1689D01*
X1689Y-1806D01*
X1689Y-1806D01*
X1689Y-1806D01*
X1690Y-1806D01*
X1690Y-1806D01*
X1692Y-1807D01*
X1694Y-1808D01*
X1696Y-1808D01*
X1699Y-1809D01*
X1701Y-1810D01*
X1701D01*
X1702Y-1810D01*
X1702Y-1810D01*
X1703Y-1810D01*
X1703Y-1810D01*
X1704Y-1810D01*
X1705Y-1810D01*
X1706Y-1811D01*
X1709Y-1811D01*
X1711Y-1811D01*
X1714Y-1811D01*
X1717Y-1812D01*
X1718D01*
X1719Y-1811D01*
X1720Y-1811D01*
X1721Y-1811D01*
X1723Y-1811D01*
X1725Y-1811D01*
X1727Y-1810D01*
X1729Y-1810D01*
X1732Y-1809D01*
X1734Y-1808D01*
X1736Y-1807D01*
X1739Y-1806D01*
X1741Y-1805D01*
X1743Y-1803D01*
X1745Y-1801D01*
X1745Y-1801D01*
X1746Y-1801D01*
X1746Y-1800D01*
X1747Y-1799D01*
X1748Y-1798D01*
X1748Y-1797D01*
X1749Y-1796D01*
X1750Y-1794D01*
X1751Y-1792D01*
X1752Y-1790D01*
X1753Y-1787D01*
X1754Y-1785D01*
X1755Y-1782D01*
X1755Y-1779D01*
X1756Y-1776D01*
X1756Y-1772D01*
Y-1772D01*
Y-1771D01*
X1756Y-1771D01*
X1755Y-1769D01*
X1755Y-1768D01*
X1755Y-1766D01*
X1755Y-1764D01*
X1754Y-1762D01*
X1754Y-1760D01*
X1753Y-1758D01*
X1752Y-1755D01*
X1751Y-1753D01*
X1750Y-1750D01*
X1749Y-1748D01*
X1747Y-1746D01*
X1745Y-1744D01*
X1745Y-1744D01*
X1745Y-1743D01*
X1744Y-1743D01*
X1743Y-1742D01*
X1742Y-1741D01*
X1741Y-1740D01*
X1739Y-1740D01*
X1738Y-1738D01*
X1736Y-1738D01*
X1733Y-1737D01*
X1731Y-1736D01*
X1728Y-1735D01*
X1726Y-1734D01*
X1723Y-1734D01*
X1720Y-1733D01*
X1716Y-1733D01*
D02*
G37*
G36*
X377Y-1339D02*
X377D01*
X375Y-1339D01*
X373Y-1339D01*
X372Y-1340D01*
X371Y-1340D01*
X370Y-1341D01*
X370Y-1341D01*
X369Y-1342D01*
X369Y-1342D01*
X368Y-1343D01*
X368Y-1344D01*
X367Y-1346D01*
X367Y-1347D01*
X367Y-1348D01*
X367Y-1349D01*
X366Y-1350D01*
Y-1350D01*
Y-1350D01*
Y-1350D01*
X388D01*
X388Y-1349D01*
X387Y-1347D01*
X387Y-1345D01*
X386Y-1344D01*
X386Y-1343D01*
X385Y-1342D01*
X385Y-1342D01*
X385Y-1342D01*
X384Y-1341D01*
X382Y-1340D01*
X381Y-1340D01*
X380Y-1339D01*
X378Y-1339D01*
X377Y-1339D01*
D02*
G37*
G36*
X1291Y-1735D02*
X1272D01*
X1255Y-1786D01*
X1239Y-1735D01*
X1220D01*
X1246Y-1810D01*
X1265D01*
X1291Y-1735D01*
D02*
G37*
G36*
X1053Y-1341D02*
X1052D01*
X1050Y-1341D01*
X1049Y-1341D01*
X1049Y-1341D01*
X1048D01*
X1048Y-1341D01*
X1048D01*
X1047Y-1342D01*
X1046Y-1342D01*
X1045Y-1342D01*
X1045Y-1342D01*
X1045Y-1342D01*
X1045D01*
Y-1368D01*
X1046Y-1369D01*
X1048Y-1370D01*
X1048Y-1370D01*
X1049Y-1370D01*
X1049Y-1370D01*
X1049D01*
X1051Y-1371D01*
X1052Y-1371D01*
X1052Y-1371D01*
X1053Y-1371D01*
X1055D01*
X1056Y-1371D01*
X1057Y-1371D01*
X1058Y-1371D01*
X1058Y-1371D01*
X1059Y-1370D01*
X1059Y-1370D01*
X1059D01*
X1061Y-1369D01*
X1062Y-1369D01*
X1062Y-1368D01*
X1062Y-1368D01*
X1062Y-1367D01*
X1063Y-1367D01*
X1063Y-1366D01*
X1064Y-1364D01*
X1064Y-1364D01*
X1064Y-1363D01*
X1064Y-1363D01*
Y-1363D01*
X1065Y-1361D01*
X1065Y-1360D01*
Y-1359D01*
X1065Y-1358D01*
Y-1357D01*
Y-1357D01*
Y-1357D01*
X1065Y-1354D01*
X1064Y-1352D01*
X1064Y-1350D01*
X1063Y-1348D01*
X1063Y-1347D01*
X1062Y-1346D01*
X1062Y-1345D01*
X1062Y-1345D01*
X1060Y-1344D01*
X1059Y-1343D01*
X1057Y-1342D01*
X1055Y-1341D01*
X1054Y-1341D01*
X1053Y-1341D01*
X1053Y-1341D01*
D02*
G37*
G36*
X1618Y-1332D02*
X1610Y-1357D01*
X1625D01*
X1618Y-1332D01*
D02*
G37*
G36*
X814Y-1341D02*
X814D01*
X812Y-1341D01*
X811Y-1341D01*
X811Y-1341D01*
X810Y-1341D01*
X810Y-1341D01*
X810D01*
X809Y-1342D01*
X808Y-1342D01*
X807Y-1342D01*
X807Y-1342D01*
X807Y-1342D01*
X807D01*
Y-1370D01*
X808Y-1371D01*
X810Y-1372D01*
X810Y-1372D01*
X811Y-1373D01*
X811Y-1373D01*
X811D01*
X813Y-1373D01*
X814Y-1374D01*
X814Y-1374D01*
X815Y-1374D01*
X816D01*
X818Y-1374D01*
X819Y-1373D01*
X821Y-1373D01*
X822Y-1372D01*
X823Y-1371D01*
X824Y-1371D01*
X824Y-1370D01*
X824Y-1370D01*
X824Y-1369D01*
X825Y-1369D01*
X826Y-1367D01*
X826Y-1365D01*
X826Y-1363D01*
X826Y-1361D01*
Y-1360D01*
X827Y-1359D01*
Y-1359D01*
Y-1358D01*
Y-1358D01*
Y-1358D01*
X826Y-1355D01*
X826Y-1353D01*
X826Y-1350D01*
X825Y-1349D01*
X824Y-1347D01*
X824Y-1346D01*
X823Y-1346D01*
X823Y-1345D01*
X823Y-1345D01*
X822Y-1344D01*
X821Y-1343D01*
X819Y-1342D01*
X817Y-1341D01*
X816Y-1341D01*
X815Y-1341D01*
X814Y-1341D01*
D02*
G37*
G36*
X1674Y-1735D02*
X1651D01*
X1627Y-1778D01*
Y-1735D01*
X1610D01*
Y-1810D01*
X1628D01*
X1657Y-1758D01*
Y-1810D01*
X1674D01*
Y-1735D01*
D02*
G37*
G36*
X1092Y-1245D02*
X1091D01*
X1089Y-1245D01*
X1088Y-1245D01*
X1086Y-1246D01*
X1085Y-1246D01*
X1084Y-1247D01*
X1084Y-1248D01*
X1083Y-1248D01*
X1083Y-1248D01*
X1083Y-1249D01*
X1082Y-1250D01*
X1082Y-1252D01*
X1081Y-1254D01*
X1081Y-1256D01*
X1081Y-1257D01*
Y-1258D01*
X1081Y-1259D01*
Y-1260D01*
Y-1260D01*
Y-1260D01*
Y-1260D01*
X1081Y-1263D01*
X1081Y-1266D01*
X1082Y-1268D01*
X1082Y-1270D01*
X1083Y-1271D01*
X1083Y-1272D01*
X1084Y-1273D01*
X1084Y-1273D01*
X1085Y-1274D01*
X1087Y-1275D01*
X1088Y-1276D01*
X1090Y-1277D01*
X1091Y-1277D01*
X1092Y-1277D01*
X1093Y-1277D01*
X1095D01*
X1096Y-1277D01*
X1096D01*
X1097Y-1277D01*
X1097D01*
X1098Y-1277D01*
X1099Y-1277D01*
X1100Y-1276D01*
X1100Y-1276D01*
X1100Y-1276D01*
X1100D01*
Y-1248D01*
X1099Y-1247D01*
X1097Y-1246D01*
X1097Y-1246D01*
X1096Y-1245D01*
X1096Y-1245D01*
X1096D01*
X1094Y-1245D01*
X1093Y-1245D01*
X1093Y-1245D01*
X1092Y-1245D01*
D02*
G37*
G36*
X1387Y-1242D02*
X1386D01*
X1384Y-1242D01*
X1383Y-1242D01*
X1381Y-1243D01*
X1380Y-1243D01*
X1379Y-1244D01*
X1379Y-1244D01*
X1378Y-1245D01*
X1378Y-1245D01*
X1378Y-1246D01*
X1377Y-1247D01*
X1376Y-1249D01*
X1376Y-1250D01*
X1376Y-1251D01*
X1376Y-1252D01*
X1376Y-1253D01*
Y-1253D01*
Y-1253D01*
Y-1253D01*
X1397D01*
X1397Y-1252D01*
X1397Y-1250D01*
X1396Y-1248D01*
X1395Y-1247D01*
X1395Y-1246D01*
X1394Y-1245D01*
X1394Y-1245D01*
X1394Y-1245D01*
X1393Y-1244D01*
X1391Y-1243D01*
X1390Y-1243D01*
X1389Y-1242D01*
X1388Y-1242D01*
X1387Y-1242D01*
D02*
G37*
G36*
X1029D02*
X1028D01*
X1026Y-1242D01*
X1025Y-1242D01*
X1023Y-1243D01*
X1022Y-1243D01*
X1021Y-1244D01*
X1021Y-1244D01*
X1021Y-1245D01*
X1020Y-1245D01*
X1020Y-1246D01*
X1019Y-1247D01*
X1018Y-1249D01*
X1018Y-1250D01*
X1018Y-1251D01*
X1018Y-1252D01*
X1018Y-1253D01*
Y-1253D01*
Y-1253D01*
Y-1253D01*
X1039D01*
X1039Y-1252D01*
X1039Y-1250D01*
X1038Y-1248D01*
X1038Y-1247D01*
X1037Y-1246D01*
X1036Y-1245D01*
X1036Y-1245D01*
X1036Y-1245D01*
X1035Y-1244D01*
X1034Y-1243D01*
X1032Y-1243D01*
X1031Y-1242D01*
X1030Y-1242D01*
X1029Y-1242D01*
D02*
G37*
G36*
X2162Y-1735D02*
X2140D01*
X2124Y-1772D01*
X2107Y-1735D01*
X2085D01*
Y-1810D01*
X2104D01*
Y-1760D01*
X2118Y-1792D01*
X2131D01*
X2144Y-1760D01*
Y-1810D01*
X2162D01*
Y-1735D01*
D02*
G37*
G36*
X916Y-1359D02*
X916D01*
Y-1371D01*
X918Y-1373D01*
X919Y-1374D01*
X920Y-1374D01*
X920Y-1374D01*
X920Y-1374D01*
X921D01*
X922Y-1375D01*
X923Y-1375D01*
X924Y-1375D01*
X924D01*
X925Y-1375D01*
X925D01*
X927Y-1375D01*
X928Y-1375D01*
X929Y-1375D01*
X930Y-1375D01*
X931Y-1374D01*
X931Y-1374D01*
X931Y-1374D01*
X931Y-1374D01*
X932Y-1373D01*
X933Y-1372D01*
X933Y-1371D01*
X933Y-1370D01*
X933Y-1370D01*
X934Y-1369D01*
Y-1369D01*
Y-1368D01*
X933Y-1367D01*
X933Y-1366D01*
X933Y-1366D01*
X933Y-1365D01*
X933Y-1365D01*
X933Y-1364D01*
X932Y-1364D01*
Y-1364D01*
X931Y-1363D01*
X930Y-1362D01*
X930Y-1362D01*
X929Y-1362D01*
X929Y-1361D01*
X929D01*
X927Y-1361D01*
X926Y-1361D01*
X925Y-1360D01*
X925Y-1360D01*
X924D01*
X924Y-1360D01*
X923D01*
X922Y-1360D01*
X921Y-1360D01*
X920Y-1360D01*
X919Y-1360D01*
X918Y-1360D01*
X917Y-1359D01*
X916Y-1359D01*
D02*
G37*
G36*
X1501Y-1262D02*
X1501D01*
Y-1274D01*
X1503Y-1276D01*
X1504Y-1277D01*
X1505Y-1277D01*
X1505Y-1277D01*
X1506Y-1277D01*
X1506D01*
X1507Y-1278D01*
X1508Y-1278D01*
X1509Y-1278D01*
X1510D01*
X1510Y-1278D01*
X1510D01*
X1512Y-1278D01*
X1513Y-1278D01*
X1514Y-1278D01*
X1515Y-1278D01*
X1516Y-1277D01*
X1516Y-1277D01*
X1516Y-1277D01*
X1517Y-1277D01*
X1517Y-1276D01*
X1518Y-1275D01*
X1518Y-1274D01*
X1518Y-1273D01*
X1519Y-1273D01*
X1519Y-1272D01*
Y-1272D01*
Y-1271D01*
X1519Y-1270D01*
X1518Y-1269D01*
X1518Y-1269D01*
X1518Y-1268D01*
X1518Y-1268D01*
X1518Y-1267D01*
X1517Y-1267D01*
Y-1267D01*
X1516Y-1266D01*
X1515Y-1265D01*
X1515Y-1265D01*
X1514Y-1265D01*
X1514Y-1264D01*
X1514D01*
X1512Y-1264D01*
X1511Y-1264D01*
X1510Y-1263D01*
X1510Y-1263D01*
X1509D01*
X1509Y-1263D01*
X1509D01*
X1507Y-1263D01*
X1506Y-1263D01*
X1505Y-1263D01*
X1504Y-1263D01*
X1503Y-1263D01*
X1502Y-1262D01*
X1501Y-1262D01*
D02*
G37*
G36*
X1336Y-1735D02*
X1295D01*
Y-1748D01*
X1306D01*
Y-1797D01*
X1295D01*
Y-1810D01*
X1336D01*
Y-1797D01*
X1325D01*
Y-1748D01*
X1336D01*
Y-1735D01*
D02*
G37*
G36*
X1392D02*
X1373D01*
Y-1796D01*
X1342D01*
Y-1810D01*
X1392D01*
Y-1735D01*
D02*
G37*
G36*
X1491Y-1458D02*
X1489Y-1459D01*
X1488Y-1459D01*
X1487Y-1460D01*
X1486Y-1460D01*
X1486Y-1460D01*
X1486Y-1460D01*
X1485Y-1461D01*
X1484Y-1461D01*
X1483Y-1461D01*
X1483Y-1461D01*
X1482Y-1462D01*
X1482Y-1462D01*
X1482Y-1462D01*
X1482D01*
X1480Y-1463D01*
X1478Y-1464D01*
X1477Y-1464D01*
X1477Y-1465D01*
X1476Y-1466D01*
X1475Y-1466D01*
X1475Y-1466D01*
X1475Y-1466D01*
X1475Y-1467D01*
X1474Y-1468D01*
X1474Y-1469D01*
X1474Y-1470D01*
X1473Y-1471D01*
X1473Y-1471D01*
Y-1472D01*
Y-1472D01*
Y-1473D01*
X1474Y-1474D01*
X1474Y-1475D01*
X1474Y-1475D01*
X1474Y-1476D01*
X1474Y-1476D01*
X1474Y-1476D01*
Y-1476D01*
X1475Y-1477D01*
X1476Y-1478D01*
X1477Y-1479D01*
X1477Y-1479D01*
X1477Y-1479D01*
X1478Y-1480D01*
X1479Y-1480D01*
X1480Y-1480D01*
X1480Y-1480D01*
X1480Y-1480D01*
X1480D01*
X1482Y-1481D01*
X1483Y-1481D01*
X1483Y-1481D01*
X1484D01*
X1486Y-1481D01*
X1487Y-1480D01*
X1489Y-1480D01*
X1490Y-1479D01*
X1491Y-1479D01*
X1492Y-1478D01*
X1492Y-1478D01*
X1493Y-1478D01*
X1494Y-1476D01*
X1494Y-1475D01*
X1495Y-1474D01*
X1495Y-1472D01*
X1496Y-1471D01*
X1496Y-1470D01*
X1496Y-1470D01*
Y-1470D01*
Y-1469D01*
X1496Y-1468D01*
X1496Y-1467D01*
X1495Y-1466D01*
X1495Y-1465D01*
X1495Y-1464D01*
X1495Y-1464D01*
X1495Y-1463D01*
X1494Y-1463D01*
X1494Y-1462D01*
X1493Y-1461D01*
X1493Y-1460D01*
X1492Y-1460D01*
X1492Y-1459D01*
X1491Y-1458D01*
X1491Y-1458D01*
X1491Y-1458D01*
D02*
G37*
G36*
X1213Y-1735D02*
X1162D01*
Y-1749D01*
X1194D01*
Y-1762D01*
X1164D01*
Y-1777D01*
X1194D01*
Y-1796D01*
X1162D01*
Y-1810D01*
X1213D01*
Y-1735D01*
D02*
G37*
G36*
X1804D02*
X1764D01*
Y-1748D01*
X1774D01*
Y-1797D01*
X1764D01*
Y-1810D01*
X1804D01*
Y-1797D01*
X1793D01*
Y-1748D01*
X1804D01*
Y-1735D01*
D02*
G37*
G36*
X1931D02*
X1880D01*
Y-1749D01*
X1912D01*
Y-1762D01*
X1882D01*
Y-1777D01*
X1912D01*
Y-1796D01*
X1880D01*
Y-1810D01*
X1931D01*
Y-1735D01*
D02*
G37*
G36*
X1455D02*
X1405D01*
Y-1749D01*
X1437D01*
Y-1762D01*
X1407D01*
Y-1777D01*
X1437D01*
Y-1796D01*
X1405D01*
Y-1810D01*
X1455D01*
Y-1735D01*
D02*
G37*
G36*
X1534D02*
X1508D01*
X1507Y-1735D01*
X1506D01*
X1503Y-1735D01*
X1501Y-1735D01*
X1498Y-1735D01*
X1496Y-1736D01*
X1495D01*
X1495Y-1736D01*
X1495Y-1736D01*
X1494Y-1736D01*
X1493Y-1736D01*
X1491Y-1737D01*
X1489Y-1737D01*
X1487Y-1738D01*
X1485Y-1739D01*
X1483Y-1741D01*
X1483Y-1741D01*
X1482Y-1741D01*
X1482Y-1741D01*
X1481Y-1742D01*
X1481Y-1742D01*
X1480Y-1743D01*
X1478Y-1744D01*
X1477Y-1746D01*
X1475Y-1748D01*
X1473Y-1751D01*
X1471Y-1754D01*
X1471Y-1754D01*
X1471Y-1754D01*
X1471Y-1754D01*
X1470Y-1755D01*
X1470Y-1756D01*
X1470Y-1757D01*
X1469Y-1758D01*
X1469Y-1759D01*
X1468Y-1760D01*
X1468Y-1762D01*
X1468Y-1763D01*
X1467Y-1765D01*
X1467Y-1769D01*
X1467Y-1773D01*
Y-1773D01*
Y-1773D01*
Y-1774D01*
X1467Y-1774D01*
Y-1775D01*
X1467Y-1776D01*
X1467Y-1778D01*
X1467Y-1779D01*
X1468Y-1782D01*
X1469Y-1785D01*
X1470Y-1788D01*
X1471Y-1790D01*
X1471Y-1791D01*
Y-1791D01*
X1472Y-1792D01*
X1472Y-1792D01*
X1472Y-1793D01*
X1473Y-1793D01*
X1473Y-1794D01*
X1474Y-1796D01*
X1476Y-1798D01*
X1478Y-1800D01*
X1480Y-1802D01*
X1483Y-1804D01*
X1483D01*
X1483Y-1804D01*
X1484Y-1804D01*
X1484Y-1805D01*
X1484Y-1805D01*
X1485Y-1805D01*
X1487Y-1806D01*
X1489Y-1807D01*
X1491Y-1808D01*
X1493Y-1808D01*
X1496Y-1809D01*
X1496D01*
X1496Y-1809D01*
X1497Y-1809D01*
X1498D01*
X1498Y-1809D01*
X1499Y-1809D01*
X1500Y-1809D01*
X1502Y-1810D01*
X1505Y-1810D01*
X1507Y-1810D01*
X1534D01*
Y-1735D01*
D02*
G37*
G36*
X1485Y-1428D02*
X1484D01*
X1483Y-1428D01*
X1482Y-1428D01*
X1480Y-1429D01*
X1479Y-1429D01*
X1479Y-1430D01*
X1478Y-1430D01*
X1478Y-1430D01*
X1478Y-1430D01*
X1477Y-1431D01*
X1476Y-1432D01*
X1476Y-1433D01*
X1475Y-1434D01*
X1475Y-1435D01*
X1475Y-1436D01*
Y-1436D01*
Y-1436D01*
Y-1438D01*
X1475Y-1439D01*
X1475Y-1440D01*
X1475Y-1440D01*
X1476Y-1441D01*
X1476Y-1442D01*
X1476Y-1442D01*
Y-1442D01*
X1477Y-1444D01*
X1477Y-1445D01*
X1478Y-1445D01*
X1478Y-1446D01*
X1478Y-1447D01*
X1479Y-1447D01*
X1479Y-1447D01*
X1480Y-1447D01*
X1481Y-1446D01*
X1482Y-1446D01*
X1483Y-1445D01*
X1483Y-1445D01*
X1484Y-1445D01*
X1484Y-1445D01*
X1484D01*
X1485Y-1444D01*
X1486Y-1444D01*
X1487Y-1444D01*
X1487Y-1444D01*
X1487Y-1443D01*
X1487D01*
X1488Y-1443D01*
X1489Y-1442D01*
X1490Y-1442D01*
X1491Y-1441D01*
X1492Y-1441D01*
X1492Y-1440D01*
X1492Y-1440D01*
X1492Y-1440D01*
X1493Y-1439D01*
X1493Y-1438D01*
X1493Y-1437D01*
X1493Y-1436D01*
X1494Y-1436D01*
Y-1435D01*
Y-1435D01*
X1493Y-1434D01*
X1493Y-1433D01*
X1493Y-1432D01*
X1492Y-1432D01*
X1492Y-1431D01*
X1492Y-1430D01*
X1491Y-1430D01*
X1491Y-1430D01*
X1490Y-1429D01*
X1489Y-1429D01*
X1488Y-1428D01*
X1487Y-1428D01*
X1486Y-1428D01*
X1485Y-1428D01*
D02*
G37*
G36*
X1839Y-1733D02*
X1837D01*
X1837Y-1733D01*
X1835Y-1734D01*
X1833Y-1734D01*
X1831Y-1734D01*
X1828Y-1734D01*
X1826Y-1735D01*
X1826D01*
X1826Y-1735D01*
X1825D01*
X1825Y-1735D01*
X1824Y-1735D01*
X1824Y-1735D01*
X1822Y-1736D01*
X1820Y-1736D01*
X1818Y-1737D01*
X1816Y-1738D01*
X1814Y-1738D01*
Y-1756D01*
X1816D01*
X1816Y-1755D01*
X1816Y-1755D01*
X1817Y-1754D01*
X1819Y-1754D01*
X1820Y-1753D01*
X1822Y-1752D01*
X1824Y-1751D01*
X1826Y-1750D01*
X1826D01*
X1826Y-1750D01*
X1827Y-1749D01*
X1827Y-1749D01*
X1827Y-1749D01*
X1828Y-1749D01*
X1830Y-1748D01*
X1832Y-1748D01*
X1834Y-1748D01*
X1836Y-1747D01*
X1838Y-1747D01*
X1840D01*
X1841Y-1747D01*
X1843Y-1748D01*
X1843D01*
X1843Y-1748D01*
X1844D01*
X1844Y-1748D01*
X1845Y-1748D01*
X1847Y-1749D01*
X1847D01*
X1847Y-1749D01*
X1848Y-1749D01*
X1848Y-1750D01*
X1849Y-1750D01*
X1850Y-1751D01*
Y-1751D01*
X1850Y-1752D01*
X1850Y-1752D01*
X1851Y-1752D01*
X1851Y-1753D01*
X1851Y-1754D01*
X1851Y-1755D01*
Y-1755D01*
Y-1755D01*
X1851Y-1756D01*
X1851Y-1756D01*
X1851Y-1757D01*
X1850Y-1758D01*
X1850Y-1759D01*
X1849Y-1759D01*
X1849Y-1760D01*
X1849Y-1760D01*
X1848Y-1760D01*
X1847Y-1760D01*
X1846Y-1761D01*
X1845Y-1761D01*
X1843Y-1762D01*
X1841Y-1762D01*
X1841D01*
X1841Y-1763D01*
X1840Y-1763D01*
X1839Y-1763D01*
X1838Y-1763D01*
X1837Y-1763D01*
X1834Y-1764D01*
X1834D01*
X1833Y-1764D01*
X1833Y-1764D01*
X1832Y-1765D01*
X1831Y-1765D01*
X1829Y-1765D01*
X1828Y-1766D01*
X1826Y-1766D01*
X1826D01*
X1826Y-1766D01*
X1826Y-1767D01*
X1825Y-1767D01*
X1824Y-1767D01*
X1824Y-1767D01*
X1822Y-1768D01*
X1820Y-1769D01*
X1818Y-1771D01*
X1816Y-1772D01*
X1815Y-1774D01*
X1815Y-1774D01*
X1814Y-1775D01*
X1814Y-1775D01*
X1814Y-1776D01*
X1813Y-1777D01*
X1812Y-1779D01*
X1812Y-1781D01*
X1811Y-1784D01*
X1811Y-1787D01*
Y-1787D01*
Y-1787D01*
X1811Y-1788D01*
Y-1788D01*
X1811Y-1789D01*
X1811Y-1790D01*
X1812Y-1792D01*
X1812Y-1793D01*
X1812Y-1794D01*
X1813Y-1796D01*
X1814Y-1797D01*
X1815Y-1799D01*
X1816Y-1800D01*
X1817Y-1802D01*
X1818Y-1803D01*
X1820Y-1805D01*
X1820Y-1805D01*
X1820Y-1805D01*
X1821Y-1805D01*
X1821Y-1806D01*
X1822Y-1806D01*
X1823Y-1807D01*
X1825Y-1807D01*
X1826Y-1808D01*
X1828Y-1809D01*
X1829Y-1809D01*
X1831Y-1810D01*
X1834Y-1810D01*
X1836Y-1811D01*
X1838Y-1811D01*
X1841Y-1811D01*
X1844Y-1811D01*
X1845D01*
X1846Y-1811D01*
X1848D01*
X1849Y-1811D01*
X1851Y-1811D01*
X1854Y-1811D01*
X1856Y-1810D01*
X1859Y-1810D01*
X1859D01*
X1859Y-1810D01*
X1859Y-1809D01*
X1860Y-1809D01*
X1860Y-1809D01*
X1861Y-1809D01*
X1863Y-1809D01*
X1865Y-1808D01*
X1867Y-1807D01*
X1871Y-1806D01*
Y-1788D01*
X1869D01*
X1869Y-1788D01*
X1869Y-1788D01*
X1869Y-1788D01*
X1868Y-1788D01*
X1868Y-1789D01*
X1867Y-1789D01*
X1866Y-1790D01*
X1864Y-1792D01*
X1862Y-1793D01*
X1859Y-1794D01*
X1857Y-1795D01*
X1857D01*
X1856Y-1795D01*
X1856Y-1795D01*
X1856Y-1796D01*
X1855Y-1796D01*
X1854Y-1796D01*
X1852Y-1796D01*
X1850Y-1797D01*
X1848Y-1797D01*
X1846Y-1798D01*
X1844Y-1798D01*
X1842D01*
X1842Y-1798D01*
X1841D01*
X1840Y-1797D01*
X1839Y-1797D01*
X1839D01*
X1839Y-1797D01*
X1838D01*
X1838Y-1797D01*
X1836Y-1797D01*
X1836Y-1796D01*
X1835Y-1796D01*
X1835D01*
X1835Y-1796D01*
X1834Y-1796D01*
X1834Y-1796D01*
X1833Y-1795D01*
X1832Y-1794D01*
X1832Y-1794D01*
X1831Y-1794D01*
X1831Y-1793D01*
X1831Y-1793D01*
X1831Y-1792D01*
X1830Y-1791D01*
X1830Y-1791D01*
X1830Y-1790D01*
Y-1790D01*
Y-1789D01*
X1830Y-1789D01*
X1831Y-1788D01*
X1831Y-1787D01*
X1831Y-1787D01*
X1832Y-1786D01*
X1832Y-1785D01*
X1833Y-1785D01*
X1833Y-1785D01*
X1833Y-1784D01*
X1834Y-1784D01*
X1835Y-1784D01*
X1836Y-1783D01*
X1837Y-1783D01*
X1838Y-1783D01*
X1838D01*
X1838Y-1782D01*
X1839Y-1782D01*
X1840Y-1782D01*
X1842Y-1782D01*
X1843Y-1781D01*
X1844Y-1781D01*
X1846Y-1781D01*
X1846D01*
X1847Y-1780D01*
X1848Y-1780D01*
X1849Y-1780D01*
X1850Y-1780D01*
X1851Y-1779D01*
X1854Y-1778D01*
X1854D01*
X1855Y-1778D01*
X1855Y-1778D01*
X1856Y-1778D01*
X1856Y-1778D01*
X1857Y-1777D01*
X1859Y-1776D01*
X1861Y-1775D01*
X1863Y-1774D01*
X1865Y-1772D01*
X1866Y-1771D01*
X1867Y-1770D01*
Y-1770D01*
X1867Y-1770D01*
X1867Y-1770D01*
X1867Y-1769D01*
X1868Y-1769D01*
X1868Y-1768D01*
X1869Y-1767D01*
X1869Y-1765D01*
X1870Y-1762D01*
X1870Y-1760D01*
X1870Y-1757D01*
Y-1757D01*
Y-1757D01*
X1870Y-1756D01*
Y-1755D01*
X1870Y-1754D01*
X1870Y-1753D01*
X1870Y-1752D01*
X1869Y-1751D01*
X1869Y-1750D01*
X1868Y-1748D01*
X1868Y-1747D01*
X1867Y-1745D01*
X1866Y-1744D01*
X1865Y-1743D01*
X1863Y-1741D01*
X1862Y-1740D01*
X1862Y-1740D01*
X1861Y-1740D01*
X1861Y-1739D01*
X1860Y-1739D01*
X1859Y-1738D01*
X1858Y-1738D01*
X1857Y-1737D01*
X1855Y-1737D01*
X1854Y-1736D01*
X1852Y-1735D01*
X1850Y-1735D01*
X1848Y-1734D01*
X1846Y-1734D01*
X1844Y-1734D01*
X1842Y-1733D01*
X1839Y-1733D01*
D02*
G37*
G36*
X1319Y-1539D02*
X1319D01*
X1317Y-1539D01*
X1316Y-1539D01*
X1315Y-1539D01*
X1315D01*
X1315Y-1539D01*
X1315D01*
X1313Y-1540D01*
X1312Y-1540D01*
X1312Y-1540D01*
X1312Y-1540D01*
X1311Y-1540D01*
X1311D01*
Y-1566D01*
X1313Y-1567D01*
X1314Y-1568D01*
X1315Y-1568D01*
X1315Y-1568D01*
X1316Y-1568D01*
X1316D01*
X1317Y-1569D01*
X1318Y-1569D01*
X1319Y-1569D01*
X1320Y-1569D01*
X1322D01*
X1323Y-1569D01*
X1324Y-1569D01*
X1324Y-1569D01*
X1325Y-1569D01*
X1325Y-1568D01*
X1326Y-1568D01*
X1326D01*
X1327Y-1567D01*
X1328Y-1567D01*
X1329Y-1566D01*
X1329Y-1566D01*
X1329Y-1565D01*
X1329Y-1565D01*
X1330Y-1564D01*
X1330Y-1562D01*
X1331Y-1562D01*
X1331Y-1561D01*
X1331Y-1561D01*
Y-1561D01*
X1331Y-1559D01*
X1331Y-1558D01*
Y-1557D01*
X1331Y-1556D01*
Y-1555D01*
Y-1555D01*
Y-1555D01*
X1331Y-1552D01*
X1331Y-1550D01*
X1330Y-1548D01*
X1330Y-1546D01*
X1329Y-1545D01*
X1329Y-1544D01*
X1328Y-1543D01*
X1328Y-1543D01*
X1327Y-1542D01*
X1325Y-1541D01*
X1324Y-1540D01*
X1322Y-1539D01*
X1321Y-1539D01*
X1320Y-1539D01*
X1319Y-1539D01*
D02*
G37*
G36*
X1190Y-1537D02*
X1189D01*
X1187Y-1537D01*
X1186Y-1537D01*
X1185Y-1538D01*
X1183Y-1538D01*
X1183Y-1539D01*
X1182Y-1539D01*
X1182Y-1540D01*
X1182Y-1540D01*
X1181Y-1541D01*
X1180Y-1542D01*
X1180Y-1544D01*
X1179Y-1545D01*
X1179Y-1546D01*
X1179Y-1547D01*
X1179Y-1548D01*
Y-1548D01*
Y-1548D01*
Y-1548D01*
X1200D01*
X1200Y-1547D01*
X1200Y-1545D01*
X1199Y-1543D01*
X1199Y-1542D01*
X1198Y-1541D01*
X1198Y-1540D01*
X1197Y-1540D01*
X1197Y-1540D01*
X1196Y-1539D01*
X1195Y-1538D01*
X1193Y-1538D01*
X1192Y-1537D01*
X1191Y-1537D01*
X1190Y-1537D01*
D02*
G37*
G36*
X1156Y-1429D02*
X1156D01*
X1155Y-1429D01*
X1154Y-1429D01*
X1153Y-1430D01*
X1151Y-1431D01*
X1150Y-1432D01*
X1150Y-1433D01*
X1149Y-1434D01*
X1149Y-1435D01*
X1148Y-1435D01*
Y-1435D01*
X1148Y-1436D01*
X1148Y-1437D01*
X1147Y-1439D01*
X1147Y-1440D01*
X1147Y-1443D01*
X1146Y-1447D01*
X1146Y-1448D01*
X1146Y-1450D01*
Y-1451D01*
X1146Y-1452D01*
Y-1453D01*
Y-1454D01*
Y-1454D01*
Y-1454D01*
Y-1457D01*
X1146Y-1459D01*
X1146Y-1461D01*
X1147Y-1463D01*
X1147Y-1465D01*
X1147Y-1467D01*
X1147Y-1468D01*
X1147Y-1469D01*
X1148Y-1470D01*
X1148Y-1471D01*
X1148Y-1472D01*
X1148Y-1473D01*
X1148Y-1473D01*
X1148Y-1474D01*
X1148Y-1474D01*
Y-1474D01*
X1149Y-1475D01*
X1149Y-1476D01*
X1150Y-1477D01*
X1151Y-1477D01*
X1152Y-1478D01*
X1153Y-1479D01*
X1154Y-1479D01*
X1155Y-1480D01*
X1156Y-1480D01*
X1156D01*
X1157Y-1480D01*
X1158Y-1480D01*
X1160Y-1479D01*
X1161Y-1478D01*
X1162Y-1477D01*
X1163Y-1476D01*
X1163Y-1475D01*
X1164Y-1474D01*
X1164Y-1474D01*
Y-1474D01*
X1164Y-1473D01*
X1165Y-1471D01*
X1165Y-1470D01*
X1165Y-1468D01*
X1166Y-1465D01*
X1166Y-1462D01*
X1166Y-1461D01*
X1166Y-1459D01*
Y-1458D01*
X1166Y-1457D01*
Y-1456D01*
Y-1455D01*
Y-1455D01*
Y-1454D01*
Y-1452D01*
X1166Y-1450D01*
X1166Y-1447D01*
X1166Y-1445D01*
X1166Y-1444D01*
X1165Y-1442D01*
X1165Y-1441D01*
X1165Y-1439D01*
X1165Y-1438D01*
X1165Y-1437D01*
X1164Y-1437D01*
X1164Y-1436D01*
X1164Y-1435D01*
X1164Y-1435D01*
X1164Y-1435D01*
Y-1435D01*
X1163Y-1434D01*
X1163Y-1433D01*
X1162Y-1432D01*
X1162Y-1431D01*
X1160Y-1430D01*
X1159Y-1430D01*
X1158Y-1429D01*
X1157Y-1429D01*
X1156Y-1429D01*
D02*
G37*
G36*
X1322Y-1455D02*
X1322D01*
X1320Y-1455D01*
X1319Y-1455D01*
X1318Y-1455D01*
X1318Y-1455D01*
X1317Y-1456D01*
X1317Y-1456D01*
X1317D01*
X1316Y-1456D01*
X1314Y-1457D01*
X1314Y-1457D01*
X1314Y-1457D01*
X1313Y-1457D01*
X1313Y-1458D01*
X1312Y-1459D01*
X1311Y-1460D01*
X1311Y-1461D01*
X1311Y-1461D01*
X1311Y-1461D01*
Y-1461D01*
X1310Y-1462D01*
X1310Y-1463D01*
X1310Y-1464D01*
X1310Y-1465D01*
X1310Y-1466D01*
Y-1467D01*
Y-1467D01*
Y-1467D01*
Y-1469D01*
X1310Y-1470D01*
X1310Y-1471D01*
X1310Y-1472D01*
X1310Y-1473D01*
X1310Y-1473D01*
X1311Y-1474D01*
Y-1474D01*
X1311Y-1475D01*
X1312Y-1477D01*
X1312Y-1477D01*
X1313Y-1477D01*
X1313Y-1478D01*
X1313Y-1478D01*
X1314Y-1479D01*
X1315Y-1480D01*
X1315Y-1480D01*
X1315Y-1480D01*
X1316Y-1480D01*
X1316D01*
X1317Y-1480D01*
X1318Y-1481D01*
X1318Y-1481D01*
X1319D01*
X1320Y-1481D01*
X1322Y-1480D01*
X1322Y-1480D01*
X1322Y-1480D01*
X1323Y-1480D01*
X1323D01*
X1324Y-1479D01*
X1325Y-1479D01*
X1325Y-1478D01*
X1325Y-1478D01*
X1326Y-1478D01*
X1326Y-1477D01*
X1327Y-1476D01*
X1328Y-1474D01*
X1328Y-1473D01*
X1328Y-1473D01*
X1328Y-1472D01*
X1328Y-1472D01*
X1329Y-1470D01*
X1329Y-1469D01*
X1329Y-1467D01*
X1329Y-1465D01*
Y-1464D01*
X1330Y-1463D01*
Y-1462D01*
Y-1462D01*
Y-1462D01*
Y-1461D01*
Y-1460D01*
Y-1459D01*
Y-1459D01*
Y-1459D01*
Y-1458D01*
Y-1457D01*
Y-1457D01*
Y-1457D01*
X1328Y-1456D01*
X1327Y-1456D01*
X1326Y-1456D01*
X1326Y-1456D01*
X1326Y-1456D01*
X1326D01*
X1324Y-1455D01*
X1323Y-1455D01*
X1322Y-1455D01*
D02*
G37*
G36*
X1149Y-1735D02*
X1117D01*
X1115Y-1735D01*
X1113Y-1735D01*
X1112Y-1735D01*
X1110Y-1735D01*
X1108Y-1736D01*
X1108D01*
X1107Y-1736D01*
X1106Y-1736D01*
X1105Y-1736D01*
X1104Y-1737D01*
X1102Y-1737D01*
X1101Y-1738D01*
X1099Y-1739D01*
X1099Y-1739D01*
X1099Y-1739D01*
X1098Y-1740D01*
X1097Y-1741D01*
X1096Y-1742D01*
X1095Y-1743D01*
X1094Y-1744D01*
X1093Y-1745D01*
X1093Y-1746D01*
X1092Y-1746D01*
X1092Y-1747D01*
X1092Y-1748D01*
X1091Y-1750D01*
X1091Y-1751D01*
X1091Y-1753D01*
X1090Y-1755D01*
Y-1756D01*
Y-1756D01*
Y-1756D01*
X1091Y-1757D01*
Y-1758D01*
X1091Y-1758D01*
X1091Y-1760D01*
X1091Y-1763D01*
X1092Y-1765D01*
X1093Y-1767D01*
X1094Y-1770D01*
Y-1770D01*
X1095Y-1770D01*
X1095Y-1770D01*
X1095Y-1770D01*
X1096Y-1771D01*
X1097Y-1773D01*
X1099Y-1774D01*
X1100Y-1775D01*
X1103Y-1777D01*
X1105Y-1778D01*
X1079Y-1810D01*
X1103D01*
X1123Y-1782D01*
X1130D01*
Y-1810D01*
X1149D01*
Y-1735D01*
D02*
G37*
G36*
X1551Y-1429D02*
X1550D01*
X1549Y-1429D01*
X1549Y-1429D01*
X1547Y-1430D01*
X1546Y-1431D01*
X1544Y-1432D01*
X1544Y-1433D01*
X1543Y-1434D01*
X1543Y-1435D01*
X1543Y-1435D01*
Y-1435D01*
X1542Y-1436D01*
X1542Y-1437D01*
X1542Y-1439D01*
X1541Y-1440D01*
X1541Y-1443D01*
X1541Y-1447D01*
X1541Y-1448D01*
X1540Y-1450D01*
Y-1451D01*
X1540Y-1452D01*
Y-1453D01*
Y-1454D01*
Y-1454D01*
Y-1454D01*
Y-1457D01*
X1540Y-1459D01*
X1541Y-1461D01*
X1541Y-1463D01*
X1541Y-1465D01*
X1541Y-1467D01*
X1541Y-1468D01*
X1541Y-1469D01*
X1542Y-1470D01*
X1542Y-1471D01*
X1542Y-1472D01*
X1542Y-1473D01*
X1543Y-1473D01*
X1543Y-1474D01*
X1543Y-1474D01*
Y-1474D01*
X1543Y-1475D01*
X1544Y-1476D01*
X1544Y-1477D01*
X1545Y-1477D01*
X1546Y-1478D01*
X1547Y-1479D01*
X1549Y-1479D01*
X1549Y-1480D01*
X1550Y-1480D01*
X1550D01*
X1551Y-1480D01*
X1552Y-1480D01*
X1554Y-1479D01*
X1555Y-1478D01*
X1556Y-1477D01*
X1557Y-1476D01*
X1558Y-1475D01*
X1558Y-1474D01*
X1558Y-1474D01*
Y-1474D01*
X1559Y-1473D01*
X1559Y-1471D01*
X1559Y-1470D01*
X1559Y-1468D01*
X1560Y-1465D01*
X1560Y-1462D01*
X1560Y-1461D01*
X1560Y-1459D01*
Y-1458D01*
X1560Y-1457D01*
Y-1456D01*
Y-1455D01*
Y-1455D01*
Y-1454D01*
Y-1452D01*
X1560Y-1450D01*
X1560Y-1447D01*
X1560Y-1445D01*
X1560Y-1444D01*
X1560Y-1442D01*
X1559Y-1441D01*
X1559Y-1439D01*
X1559Y-1438D01*
X1559Y-1437D01*
X1559Y-1437D01*
X1558Y-1436D01*
X1558Y-1435D01*
X1558Y-1435D01*
X1558Y-1435D01*
Y-1435D01*
X1558Y-1434D01*
X1557Y-1433D01*
X1557Y-1432D01*
X1556Y-1431D01*
X1555Y-1430D01*
X1553Y-1430D01*
X1552Y-1429D01*
X1551Y-1429D01*
X1551Y-1429D01*
D02*
G37*
G36*
X1275Y-1325D02*
X1269D01*
X1268Y-1325D01*
X1267D01*
X1266Y-1325D01*
X1266D01*
X1264Y-1325D01*
X1263Y-1326D01*
X1262Y-1326D01*
X1261Y-1326D01*
X1261Y-1326D01*
X1261Y-1326D01*
X1261Y-1326D01*
X1260Y-1327D01*
X1259Y-1327D01*
X1258Y-1328D01*
X1258Y-1329D01*
X1257Y-1329D01*
X1257Y-1329D01*
X1257Y-1330D01*
X1256Y-1331D01*
X1256Y-1331D01*
X1256Y-1332D01*
X1256Y-1333D01*
X1255Y-1334D01*
X1255Y-1334D01*
Y-1335D01*
Y-1335D01*
Y-1336D01*
X1255Y-1337D01*
X1256Y-1338D01*
X1256Y-1339D01*
X1256Y-1340D01*
X1256Y-1340D01*
X1256Y-1340D01*
Y-1341D01*
X1256Y-1341D01*
X1257Y-1342D01*
X1258Y-1343D01*
X1258Y-1344D01*
X1258Y-1344D01*
X1259Y-1344D01*
X1259Y-1344D01*
X1259Y-1345D01*
X1260Y-1346D01*
X1261Y-1346D01*
X1261Y-1346D01*
X1261D01*
X1262Y-1346D01*
X1263Y-1347D01*
X1264Y-1347D01*
X1264D01*
X1264Y-1347D01*
X1264D01*
X1266Y-1347D01*
X1267Y-1347D01*
X1275D01*
Y-1325D01*
D02*
G37*
G36*
X725Y-1324D02*
X717D01*
X716Y-1325D01*
X714D01*
X714Y-1325D01*
X714D01*
X712Y-1325D01*
X711Y-1325D01*
X710Y-1325D01*
X710Y-1326D01*
X710Y-1326D01*
X710D01*
X709Y-1326D01*
X708Y-1327D01*
X707Y-1327D01*
X707Y-1328D01*
X707Y-1328D01*
X706Y-1329D01*
X706Y-1329D01*
Y-1329D01*
X706Y-1330D01*
X705Y-1331D01*
X705Y-1332D01*
Y-1333D01*
X705Y-1333D01*
Y-1334D01*
Y-1334D01*
Y-1335D01*
X705Y-1336D01*
X705Y-1337D01*
X705Y-1338D01*
X706Y-1338D01*
X706Y-1339D01*
X706Y-1339D01*
Y-1339D01*
X707Y-1340D01*
X708Y-1341D01*
X708Y-1342D01*
X708Y-1342D01*
X709Y-1342D01*
X709Y-1342D01*
X710Y-1343D01*
X712Y-1344D01*
X712Y-1344D01*
X713Y-1344D01*
X713Y-1344D01*
X713D01*
X714Y-1345D01*
X715Y-1345D01*
X717Y-1345D01*
X718D01*
X718Y-1345D01*
X725D01*
Y-1324D01*
D02*
G37*
G36*
X2450Y-1735D02*
X2424D01*
X2423Y-1735D01*
X2422D01*
X2420Y-1735D01*
X2417Y-1735D01*
X2415Y-1735D01*
X2412Y-1736D01*
X2412D01*
X2411Y-1736D01*
X2411Y-1736D01*
X2410Y-1736D01*
X2409Y-1736D01*
X2408Y-1737D01*
X2406Y-1737D01*
X2403Y-1738D01*
X2401Y-1739D01*
X2399Y-1741D01*
X2399Y-1741D01*
X2399Y-1741D01*
X2398Y-1741D01*
X2398Y-1742D01*
X2397Y-1742D01*
X2396Y-1743D01*
X2395Y-1744D01*
X2393Y-1746D01*
X2391Y-1748D01*
X2389Y-1751D01*
X2387Y-1754D01*
X2387Y-1754D01*
X2387Y-1754D01*
X2387Y-1754D01*
X2386Y-1755D01*
X2386Y-1756D01*
X2386Y-1757D01*
X2385Y-1758D01*
X2385Y-1759D01*
X2385Y-1760D01*
X2384Y-1762D01*
X2384Y-1763D01*
X2384Y-1765D01*
X2383Y-1769D01*
X2383Y-1773D01*
Y-1773D01*
Y-1773D01*
Y-1774D01*
X2383Y-1774D01*
Y-1775D01*
X2383Y-1776D01*
X2383Y-1778D01*
X2383Y-1779D01*
X2384Y-1782D01*
X2385Y-1785D01*
X2386Y-1788D01*
X2387Y-1790D01*
X2388Y-1791D01*
Y-1791D01*
X2388Y-1792D01*
X2388Y-1792D01*
X2388Y-1793D01*
X2389Y-1793D01*
X2389Y-1794D01*
X2391Y-1796D01*
X2392Y-1798D01*
X2394Y-1800D01*
X2397Y-1802D01*
X2399Y-1804D01*
X2399D01*
X2399Y-1804D01*
X2400Y-1804D01*
X2400Y-1805D01*
X2401Y-1805D01*
X2401Y-1805D01*
X2403Y-1806D01*
X2405Y-1807D01*
X2407Y-1808D01*
X2409Y-1808D01*
X2412Y-1809D01*
X2412D01*
X2413Y-1809D01*
X2413Y-1809D01*
X2414D01*
X2415Y-1809D01*
X2415Y-1809D01*
X2416Y-1809D01*
X2418Y-1810D01*
X2421Y-1810D01*
X2424Y-1810D01*
X2450D01*
Y-1735D01*
D02*
G37*
G36*
X499Y-1339D02*
X498D01*
X496Y-1339D01*
X495Y-1339D01*
X493Y-1340D01*
X492Y-1340D01*
X491Y-1341D01*
X491Y-1341D01*
X491Y-1342D01*
X490Y-1342D01*
X490Y-1343D01*
X489Y-1344D01*
X488Y-1346D01*
X488Y-1347D01*
X488Y-1348D01*
X488Y-1349D01*
X488Y-1350D01*
Y-1350D01*
Y-1350D01*
Y-1350D01*
X509D01*
X509Y-1349D01*
X509Y-1347D01*
X508Y-1345D01*
X507Y-1344D01*
X507Y-1343D01*
X506Y-1342D01*
X506Y-1342D01*
X506Y-1342D01*
X505Y-1341D01*
X504Y-1340D01*
X502Y-1340D01*
X501Y-1339D01*
X500Y-1339D01*
X499Y-1339D01*
D02*
G37*
G36*
X646D02*
X645D01*
X643Y-1339D01*
X642Y-1339D01*
X641Y-1340D01*
X639Y-1340D01*
X639Y-1341D01*
X638Y-1341D01*
X638Y-1342D01*
X638Y-1342D01*
X637Y-1343D01*
X636Y-1344D01*
X636Y-1346D01*
X635Y-1347D01*
X635Y-1348D01*
X635Y-1349D01*
X635Y-1350D01*
Y-1350D01*
Y-1350D01*
Y-1350D01*
X656D01*
X656Y-1349D01*
X656Y-1347D01*
X655Y-1345D01*
X655Y-1344D01*
X654Y-1343D01*
X654Y-1342D01*
X653Y-1342D01*
X653Y-1342D01*
X652Y-1341D01*
X651Y-1340D01*
X649Y-1340D01*
X648Y-1339D01*
X647Y-1339D01*
X646Y-1339D01*
D02*
G37*
G36*
X1363D02*
X1362D01*
X1360Y-1339D01*
X1358Y-1339D01*
X1357Y-1340D01*
X1356Y-1340D01*
X1355Y-1341D01*
X1355Y-1341D01*
X1354Y-1342D01*
X1354Y-1342D01*
X1353Y-1343D01*
X1353Y-1344D01*
X1352Y-1346D01*
X1352Y-1347D01*
X1352Y-1348D01*
X1352Y-1349D01*
X1352Y-1350D01*
Y-1350D01*
Y-1350D01*
Y-1350D01*
X1373D01*
X1373Y-1349D01*
X1372Y-1347D01*
X1372Y-1345D01*
X1371Y-1344D01*
X1371Y-1343D01*
X1370Y-1342D01*
X1370Y-1342D01*
X1370Y-1342D01*
X1369Y-1341D01*
X1367Y-1340D01*
X1366Y-1340D01*
X1365Y-1339D01*
X1363Y-1339D01*
X1363Y-1339D01*
D02*
G37*
G36*
X2296Y-1735D02*
X2246D01*
Y-1749D01*
X2278D01*
Y-1762D01*
X2248D01*
Y-1777D01*
X2278D01*
Y-1796D01*
X2246D01*
Y-1810D01*
X2296D01*
Y-1735D01*
D02*
G37*
G36*
X2215D02*
X2195D01*
X2169Y-1810D01*
X2189D01*
X2194Y-1795D01*
X2217D01*
X2222Y-1810D01*
X2241D01*
X2215Y-1735D01*
D02*
G37*
G36*
X2009D02*
X1983D01*
X1982Y-1735D01*
X1981D01*
X1979Y-1735D01*
X1976Y-1735D01*
X1973Y-1735D01*
X1971Y-1736D01*
X1971D01*
X1970Y-1736D01*
X1970Y-1736D01*
X1969Y-1736D01*
X1968Y-1736D01*
X1967Y-1737D01*
X1965Y-1737D01*
X1962Y-1738D01*
X1960Y-1739D01*
X1958Y-1741D01*
X1958Y-1741D01*
X1958Y-1741D01*
X1957Y-1741D01*
X1957Y-1742D01*
X1956Y-1742D01*
X1955Y-1743D01*
X1954Y-1744D01*
X1952Y-1746D01*
X1950Y-1748D01*
X1948Y-1751D01*
X1946Y-1754D01*
X1946Y-1754D01*
X1946Y-1754D01*
X1946Y-1754D01*
X1945Y-1755D01*
X1945Y-1756D01*
X1945Y-1757D01*
X1944Y-1758D01*
X1944Y-1759D01*
X1944Y-1760D01*
X1943Y-1762D01*
X1943Y-1763D01*
X1943Y-1765D01*
X1942Y-1769D01*
X1942Y-1773D01*
Y-1773D01*
Y-1773D01*
Y-1774D01*
X1942Y-1774D01*
Y-1775D01*
X1942Y-1776D01*
X1942Y-1778D01*
X1942Y-1779D01*
X1943Y-1782D01*
X1944Y-1785D01*
X1945Y-1788D01*
X1946Y-1790D01*
X1946Y-1791D01*
Y-1791D01*
X1947Y-1792D01*
X1947Y-1792D01*
X1947Y-1793D01*
X1948Y-1793D01*
X1948Y-1794D01*
X1950Y-1796D01*
X1951Y-1798D01*
X1953Y-1800D01*
X1956Y-1802D01*
X1958Y-1804D01*
X1958D01*
X1958Y-1804D01*
X1959Y-1804D01*
X1959Y-1805D01*
X1960Y-1805D01*
X1960Y-1805D01*
X1962Y-1806D01*
X1964Y-1807D01*
X1966Y-1808D01*
X1968Y-1808D01*
X1971Y-1809D01*
X1971D01*
X1972Y-1809D01*
X1972Y-1809D01*
X1973D01*
X1973Y-1809D01*
X1974Y-1809D01*
X1975Y-1809D01*
X1977Y-1810D01*
X1980Y-1810D01*
X1983Y-1810D01*
X2009D01*
Y-1735D01*
D02*
G37*
G36*
X2372D02*
X2339D01*
X2338Y-1735D01*
X2336Y-1735D01*
X2334Y-1735D01*
X2332Y-1735D01*
X2331Y-1736D01*
X2330D01*
X2330Y-1736D01*
X2329Y-1736D01*
X2328Y-1736D01*
X2326Y-1737D01*
X2325Y-1737D01*
X2323Y-1738D01*
X2322Y-1739D01*
X2322Y-1739D01*
X2321Y-1739D01*
X2320Y-1740D01*
X2320Y-1741D01*
X2319Y-1742D01*
X2317Y-1743D01*
X2316Y-1744D01*
X2316Y-1745D01*
X2315Y-1746D01*
X2315Y-1746D01*
X2315Y-1747D01*
X2314Y-1748D01*
X2314Y-1750D01*
X2314Y-1751D01*
X2313Y-1753D01*
X2313Y-1755D01*
Y-1756D01*
Y-1756D01*
Y-1756D01*
X2313Y-1757D01*
Y-1758D01*
X2313Y-1758D01*
X2314Y-1760D01*
X2314Y-1763D01*
X2315Y-1765D01*
X2316Y-1767D01*
X2317Y-1770D01*
Y-1770D01*
X2317Y-1770D01*
X2317Y-1770D01*
X2318Y-1770D01*
X2319Y-1771D01*
X2320Y-1773D01*
X2321Y-1774D01*
X2323Y-1775D01*
X2325Y-1777D01*
X2327Y-1778D01*
X2302Y-1810D01*
X2325D01*
X2346Y-1782D01*
X2353D01*
Y-1810D01*
X2372D01*
Y-1735D01*
D02*
G37*
%LPD*%
G36*
X1515Y-1796D02*
X1511D01*
X1509Y-1796D01*
X1506D01*
X1504Y-1796D01*
X1504D01*
X1503Y-1796D01*
X1502Y-1795D01*
X1501Y-1795D01*
X1500Y-1795D01*
X1499Y-1794D01*
X1497Y-1794D01*
X1496Y-1793D01*
X1496D01*
X1495Y-1793D01*
X1495Y-1792D01*
X1494Y-1792D01*
X1493Y-1791D01*
X1492Y-1790D01*
X1491Y-1788D01*
X1490Y-1787D01*
X1489Y-1785D01*
Y-1785D01*
X1489Y-1785D01*
X1488Y-1784D01*
X1488Y-1784D01*
X1488Y-1783D01*
X1488Y-1783D01*
X1487Y-1781D01*
X1487Y-1779D01*
X1487Y-1777D01*
X1486Y-1775D01*
X1486Y-1772D01*
Y-1772D01*
Y-1772D01*
Y-1772D01*
Y-1771D01*
X1486Y-1770D01*
Y-1770D01*
X1486Y-1768D01*
X1487Y-1766D01*
X1487Y-1764D01*
X1488Y-1762D01*
X1489Y-1760D01*
Y-1760D01*
X1489Y-1759D01*
X1489Y-1759D01*
X1490Y-1758D01*
X1491Y-1757D01*
X1492Y-1755D01*
X1493Y-1754D01*
X1495Y-1753D01*
X1497Y-1751D01*
X1497Y-1751D01*
X1497Y-1751D01*
X1498Y-1751D01*
X1499Y-1750D01*
X1500Y-1750D01*
X1502Y-1749D01*
X1503Y-1749D01*
X1505Y-1749D01*
X1505D01*
X1506Y-1749D01*
X1509D01*
X1510Y-1749D01*
X1515D01*
Y-1796D01*
D02*
G37*
G36*
X2353Y-1769D02*
X2346D01*
X2345Y-1769D01*
X2344D01*
X2343Y-1769D01*
X2342Y-1769D01*
X2341Y-1768D01*
X2341D01*
X2340Y-1768D01*
X2340Y-1768D01*
X2339Y-1768D01*
X2338Y-1767D01*
X2336Y-1766D01*
X2336Y-1766D01*
X2336Y-1766D01*
X2336Y-1766D01*
X2335Y-1765D01*
X2334Y-1764D01*
X2334Y-1763D01*
Y-1763D01*
X2333Y-1763D01*
X2333Y-1762D01*
X2333Y-1762D01*
X2333Y-1761D01*
X2333Y-1760D01*
X2333Y-1759D01*
Y-1758D01*
Y-1758D01*
Y-1757D01*
X2333Y-1757D01*
Y-1756D01*
X2333Y-1755D01*
X2333Y-1754D01*
X2334Y-1753D01*
Y-1753D01*
X2334Y-1753D01*
X2334Y-1752D01*
X2335Y-1752D01*
X2335Y-1751D01*
X2336Y-1751D01*
X2336Y-1750D01*
X2337Y-1750D01*
X2337D01*
X2338Y-1750D01*
X2338Y-1749D01*
X2338Y-1749D01*
X2340Y-1749D01*
X2341Y-1749D01*
X2342D01*
X2342Y-1749D01*
X2344D01*
X2344Y-1748D01*
X2353D01*
Y-1769D01*
D02*
G37*
G36*
X2431Y-1796D02*
X2427D01*
X2425Y-1796D01*
X2422D01*
X2420Y-1796D01*
X2420D01*
X2419Y-1796D01*
X2419Y-1795D01*
X2417Y-1795D01*
X2416Y-1795D01*
X2415Y-1794D01*
X2413Y-1794D01*
X2412Y-1793D01*
X2412D01*
X2412Y-1793D01*
X2411Y-1792D01*
X2410Y-1792D01*
X2409Y-1791D01*
X2408Y-1790D01*
X2407Y-1788D01*
X2406Y-1787D01*
X2405Y-1785D01*
Y-1785D01*
X2405Y-1785D01*
X2405Y-1784D01*
X2404Y-1784D01*
X2404Y-1783D01*
X2404Y-1783D01*
X2404Y-1781D01*
X2403Y-1779D01*
X2403Y-1777D01*
X2402Y-1775D01*
X2402Y-1772D01*
Y-1772D01*
Y-1772D01*
Y-1772D01*
Y-1771D01*
X2402Y-1770D01*
Y-1770D01*
X2403Y-1768D01*
X2403Y-1766D01*
X2403Y-1764D01*
X2404Y-1762D01*
X2405Y-1760D01*
Y-1760D01*
X2405Y-1759D01*
X2405Y-1759D01*
X2406Y-1758D01*
X2407Y-1757D01*
X2408Y-1755D01*
X2409Y-1754D01*
X2411Y-1753D01*
X2413Y-1751D01*
X2413Y-1751D01*
X2413Y-1751D01*
X2414Y-1751D01*
X2415Y-1750D01*
X2416Y-1750D01*
X2418Y-1749D01*
X2419Y-1749D01*
X2421Y-1749D01*
X2421D01*
X2422Y-1749D01*
X2425D01*
X2427Y-1749D01*
X2431D01*
Y-1796D01*
D02*
G37*
G36*
X2213Y-1781D02*
X2198D01*
X2205Y-1756D01*
X2213Y-1781D01*
D02*
G37*
G36*
X1990Y-1796D02*
X1986D01*
X1984Y-1796D01*
X1981D01*
X1979Y-1796D01*
X1979D01*
X1978Y-1796D01*
X1977Y-1795D01*
X1976Y-1795D01*
X1975Y-1795D01*
X1974Y-1794D01*
X1972Y-1794D01*
X1971Y-1793D01*
X1971D01*
X1971Y-1793D01*
X1970Y-1792D01*
X1969Y-1792D01*
X1968Y-1791D01*
X1967Y-1790D01*
X1966Y-1788D01*
X1965Y-1787D01*
X1964Y-1785D01*
Y-1785D01*
X1964Y-1785D01*
X1964Y-1784D01*
X1963Y-1784D01*
X1963Y-1783D01*
X1963Y-1783D01*
X1962Y-1781D01*
X1962Y-1779D01*
X1962Y-1777D01*
X1961Y-1775D01*
X1961Y-1772D01*
Y-1772D01*
Y-1772D01*
Y-1772D01*
Y-1771D01*
X1961Y-1770D01*
Y-1770D01*
X1962Y-1768D01*
X1962Y-1766D01*
X1962Y-1764D01*
X1963Y-1762D01*
X1964Y-1760D01*
Y-1760D01*
X1964Y-1759D01*
X1964Y-1759D01*
X1965Y-1758D01*
X1966Y-1757D01*
X1967Y-1755D01*
X1968Y-1754D01*
X1970Y-1753D01*
X1972Y-1751D01*
X1972Y-1751D01*
X1972Y-1751D01*
X1973Y-1751D01*
X1974Y-1750D01*
X1975Y-1750D01*
X1977Y-1749D01*
X1978Y-1749D01*
X1980Y-1749D01*
X1980D01*
X1981Y-1749D01*
X1984D01*
X1986Y-1749D01*
X1990D01*
Y-1796D01*
D02*
G37*
G36*
X1130Y-1769D02*
X1123D01*
X1123Y-1769D01*
X1121D01*
X1120Y-1769D01*
X1119Y-1769D01*
X1118Y-1768D01*
X1118D01*
X1118Y-1768D01*
X1117Y-1768D01*
X1117Y-1768D01*
X1115Y-1767D01*
X1114Y-1766D01*
X1113Y-1766D01*
X1113Y-1766D01*
X1113Y-1766D01*
X1113Y-1765D01*
X1112Y-1764D01*
X1111Y-1763D01*
Y-1763D01*
X1111Y-1763D01*
X1111Y-1762D01*
X1110Y-1762D01*
X1110Y-1761D01*
X1110Y-1760D01*
X1110Y-1759D01*
Y-1758D01*
Y-1758D01*
Y-1757D01*
X1110Y-1757D01*
Y-1756D01*
X1110Y-1755D01*
X1111Y-1754D01*
X1111Y-1753D01*
Y-1753D01*
X1111Y-1753D01*
X1111Y-1752D01*
X1112Y-1752D01*
X1112Y-1751D01*
X1113Y-1751D01*
X1114Y-1750D01*
X1115Y-1750D01*
X1115D01*
X1115Y-1750D01*
X1115Y-1749D01*
X1116Y-1749D01*
X1117Y-1749D01*
X1119Y-1749D01*
X1119D01*
X1119Y-1749D01*
X1121D01*
X1122Y-1748D01*
X1130D01*
Y-1769D01*
D02*
G37*
D34*
X0Y0D02*
X3150D01*
Y-1969D02*
Y0D01*
X0Y-1969D02*
X3150D01*
X0D02*
Y0D01*
X3150D01*
Y-1969D02*
Y0D01*
X0Y-1969D02*
X3150D01*
X0D02*
Y0D01*
Y-79D02*
X3150D01*
X0Y-1890D02*
X3150D01*
D46*
X1827Y-487D02*
X1835D01*
X1827Y-513D02*
X1835D01*
X1815Y-462D02*
X1831D01*
X1815Y-420D02*
X1831D01*
X1845Y-634D02*
Y-626D01*
X1871Y-634D02*
Y-626D01*
X1697Y-893D02*
X1705D01*
X1697Y-918D02*
X1705D01*
X1697Y-790D02*
X1705D01*
X1697Y-816D02*
X1705D01*
X1685Y-517D02*
X1693D01*
X1685Y-491D02*
X1693D01*
D47*
X1941Y-430D02*
X1946Y-425D01*
X1957D01*
X1962Y-430D01*
Y-452D01*
X1957Y-457D01*
X1946D01*
X1941Y-452D01*
X1930Y-457D02*
X1919D01*
X1925D01*
Y-425D01*
X1930Y-430D01*
X1903D02*
X1898Y-425D01*
X1887D01*
X1882Y-430D01*
Y-436D01*
X1887Y-441D01*
X1893D01*
X1887D01*
X1882Y-446D01*
Y-452D01*
X1887Y-457D01*
X1898D01*
X1903Y-452D01*
X1713Y-469D02*
Y-437D01*
X1697D01*
X1691Y-442D01*
Y-453D01*
X1697Y-458D01*
X1713D01*
X1702D02*
X1691Y-469D01*
X1681Y-442D02*
X1675Y-437D01*
X1665D01*
X1659Y-442D01*
Y-447D01*
X1665Y-453D01*
X1659Y-458D01*
Y-463D01*
X1665Y-469D01*
X1675D01*
X1681Y-463D01*
Y-458D01*
X1675Y-453D01*
X1681Y-447D01*
Y-442D01*
X1675Y-453D02*
X1665D01*
X1943Y-515D02*
Y-483D01*
X1927D01*
X1922Y-488D01*
Y-499D01*
X1927Y-504D01*
X1943D01*
X1932D02*
X1922Y-515D01*
X1911Y-510D02*
X1906Y-515D01*
X1895D01*
X1890Y-510D01*
Y-488D01*
X1895Y-483D01*
X1906D01*
X1911Y-488D01*
Y-494D01*
X1906Y-499D01*
X1890D01*
X1800Y-608D02*
X1795Y-603D01*
Y-592D01*
X1800Y-587D01*
X1821D01*
X1827Y-592D01*
Y-603D01*
X1821Y-608D01*
X1827Y-640D02*
Y-619D01*
X1805Y-640D01*
X1800D01*
X1795Y-635D01*
Y-624D01*
X1800Y-619D01*
X1821Y-651D02*
X1827Y-656D01*
Y-667D01*
X1821Y-672D01*
X1800D01*
X1795Y-667D01*
Y-656D01*
X1800Y-651D01*
X1805D01*
X1811Y-656D01*
Y-672D01*
X1723Y-745D02*
X1728Y-740D01*
X1739D01*
X1744Y-745D01*
Y-766D01*
X1739Y-772D01*
X1728D01*
X1723Y-766D01*
X1712Y-745D02*
X1707Y-740D01*
X1696D01*
X1691Y-745D01*
Y-750D01*
X1696Y-756D01*
X1701D01*
X1696D01*
X1691Y-761D01*
Y-766D01*
X1696Y-772D01*
X1707D01*
X1712Y-766D01*
X1680Y-745D02*
X1675Y-740D01*
X1664D01*
X1659Y-745D01*
Y-766D01*
X1664Y-772D01*
X1675D01*
X1680Y-766D01*
Y-745D01*
X1719Y-851D02*
X1724Y-846D01*
X1735D01*
X1740Y-851D01*
Y-873D01*
X1735Y-878D01*
X1724D01*
X1719Y-873D01*
X1708Y-851D02*
X1703Y-846D01*
X1692D01*
X1687Y-851D01*
Y-857D01*
X1692Y-862D01*
X1698D01*
X1692D01*
X1687Y-867D01*
Y-873D01*
X1692Y-878D01*
X1703D01*
X1708Y-873D01*
X1676Y-878D02*
X1666D01*
X1671D01*
Y-846D01*
X1676Y-851D01*
M02*
