solid ascii
  facet normal 9.961947e-001 2.015882e-018 8.715574e-002
    outer loop
      vertex   1.181769e+000 3.000000e+000 2.083778e-001
      vertex   1.181769e+000 0.000000e+000 2.083778e-001
      vertex   1.200000e+000 3.000000e+000 0.000000e+000
    endloop
  endfacet
  facet normal 9.659258e-001 6.479075e-018 2.588190e-001
    outer loop
      vertex   1.181769e+000 3.000000e+000 2.083778e-001
      vertex   1.127631e+000 0.000000e+000 4.104242e-001
      vertex   1.181769e+000 0.000000e+000 2.083778e-001
    endloop
  endfacet
  facet normal 9.659258e-001 -9.492268e-017 2.588190e-001
    outer loop
      vertex   1.181769e+000 3.000000e+000 2.083778e-001
      vertex   1.127631e+000 3.000000e+000 4.104242e-001
      vertex   1.127631e+000 0.000000e+000 4.104242e-001
    endloop
  endfacet
  facet normal 9.063078e-001 -3.085048e-017 4.226183e-001
    outer loop
      vertex   1.127631e+000 0.000000e+000 4.104242e-001
      vertex   1.127631e+000 3.000000e+000 4.104242e-001
      vertex   1.039230e+000 0.000000e+000 6.000000e-001
    endloop
  endfacet
  facet normal 9.063078e-001 1.295815e-017 4.226183e-001
    outer loop
      vertex   1.039230e+000 0.000000e+000 6.000000e-001
      vertex   1.127631e+000 3.000000e+000 4.104242e-001
      vertex   1.039230e+000 3.000000e+000 6.000000e-001
    endloop
  endfacet
  facet normal 8.191520e-001 -2.159692e-017 5.735764e-001
    outer loop
      vertex   9.192533e-001 0.000000e+000 7.713451e-001
      vertex   1.039230e+000 3.000000e+000 6.000000e-001
      vertex   9.192533e-001 3.000000e+000 7.713451e-001
    endloop
  endfacet
  facet normal 7.071068e-001 6.479075e-017 7.071068e-001
    outer loop
      vertex   7.713451e-001 0.000000e+000 9.192533e-001
      vertex   9.192533e-001 3.000000e+000 7.713451e-001
      vertex   7.713451e-001 3.000000e+000 9.192533e-001
    endloop
  endfacet
  facet normal 5.735764e-001 0.000000e+000 8.191520e-001
    outer loop
      vertex   6.000000e-001 0.000000e+000 1.039230e+000
      vertex   7.713451e-001 3.000000e+000 9.192533e-001
      vertex   6.000000e-001 3.000000e+000 1.039230e+000
    endloop
  endfacet
  facet normal 4.226183e-001 -2.591630e-017 9.063078e-001
    outer loop
      vertex   4.104242e-001 0.000000e+000 1.127631e+000
      vertex   6.000000e-001 3.000000e+000 1.039230e+000
      vertex   4.104242e-001 3.000000e+000 1.127631e+000
    endloop
  endfacet
  facet normal 2.588190e-001 4.103414e-017 9.659258e-001
    outer loop
      vertex   2.083778e-001 0.000000e+000 1.181769e+000
      vertex   4.104242e-001 3.000000e+000 1.127631e+000
      vertex   2.083778e-001 3.000000e+000 1.181769e+000
    endloop
  endfacet
  facet normal 8.715574e-002 -7.558921e-018 9.961947e-001
    outer loop
      vertex   -2.204364e-016 0.000000e+000 1.200000e+000
      vertex   2.083778e-001 3.000000e+000 1.181769e+000
      vertex   7.347881e-017 3.000000e+000 1.200000e+000
    endloop
  endfacet
  facet normal -8.715574e-002 0.000000e+000 9.961947e-001
    outer loop
      vertex   -2.083778e-001 0.000000e+000 1.181769e+000
      vertex   7.347881e-017 3.000000e+000 1.200000e+000
      vertex   -2.083778e-001 3.000000e+000 1.181769e+000
    endloop
  endfacet
  facet normal -2.588190e-001 -1.727753e-017 9.659258e-001
    outer loop
      vertex   -4.104242e-001 0.000000e+000 1.127631e+000
      vertex   -2.083778e-001 3.000000e+000 1.181769e+000
      vertex   -4.104242e-001 3.000000e+000 1.127631e+000
    endloop
  endfacet
  facet normal -4.226183e-001 3.455507e-017 9.063078e-001
    outer loop
      vertex   -6.000000e-001 0.000000e+000 1.039230e+000
      vertex   -4.104242e-001 3.000000e+000 1.127631e+000
      vertex   -6.000000e-001 3.000000e+000 1.039230e+000
    endloop
  endfacet
  facet normal -5.735764e-001 5.183260e-017 8.191520e-001
    outer loop
      vertex   -7.713451e-001 0.000000e+000 9.192533e-001
      vertex   -6.000000e-001 3.000000e+000 1.039230e+000
      vertex   -7.713451e-001 3.000000e+000 9.192533e-001
    endloop
  endfacet
  facet normal -7.071068e-001 -6.911014e-017 7.071068e-001
    outer loop
      vertex   -9.192533e-001 0.000000e+000 7.713451e-001
      vertex   -7.713451e-001 3.000000e+000 9.192533e-001
      vertex   -9.192533e-001 3.000000e+000 7.713451e-001
    endloop
  endfacet
  facet normal -8.191520e-001 2.159692e-017 5.735764e-001
    outer loop
      vertex   -1.039230e+000 0.000000e+000 6.000000e-001
      vertex   -9.192533e-001 3.000000e+000 7.713451e-001
      vertex   -1.039230e+000 3.000000e+000 6.000000e-001
    endloop
  endfacet
  facet normal -9.063078e-001 4.319384e-017 4.226183e-001
    outer loop
      vertex   -1.127631e+000 0.000000e+000 4.104242e-001
      vertex   -1.039230e+000 3.000000e+000 6.000000e-001
      vertex   -1.127631e+000 3.000000e+000 4.104242e-001
    endloop
  endfacet
  facet normal -9.659258e-001 2.159692e-017 2.588190e-001
    outer loop
      vertex   -1.181769e+000 0.000000e+000 2.083778e-001
      vertex   -1.127631e+000 3.000000e+000 4.104242e-001
      vertex   -1.181769e+000 3.000000e+000 2.083778e-001
    endloop
  endfacet
  facet normal -9.961947e-001 -8.638767e-018 8.715574e-002
    outer loop
      vertex   -1.200000e+000 0.000000e+000 -1.469576e-016
      vertex   -1.181769e+000 3.000000e+000 2.083778e-001
      vertex   -1.200000e+000 3.000000e+000 1.469576e-016
    endloop
  endfacet
  facet normal -9.961947e-001 -6.911014e-017 -8.715574e-002
    outer loop
      vertex   -1.181769e+000 0.000000e+000 -2.083778e-001
      vertex   -1.200000e+000 3.000000e+000 1.469576e-016
      vertex   -1.181769e+000 3.000000e+000 -2.083778e-001
    endloop
  endfacet
  facet normal -9.659258e-001 -6.695045e-017 -2.588190e-001
    outer loop
      vertex   -1.127631e+000 0.000000e+000 -4.104242e-001
      vertex   -1.181769e+000 3.000000e+000 -2.083778e-001
      vertex   -1.127631e+000 3.000000e+000 -4.104242e-001
    endloop
  endfacet
  facet normal -9.063078e-001 -4.319384e-017 -4.226183e-001
    outer loop
      vertex   -1.039230e+000 0.000000e+000 -6.000000e-001
      vertex   -1.127631e+000 3.000000e+000 -4.104242e-001
      vertex   -1.039230e+000 3.000000e+000 -6.000000e-001
    endloop
  endfacet
  facet normal -8.191520e-001 5.615199e-017 -5.735764e-001
    outer loop
      vertex   -9.192533e-001 0.000000e+000 -7.713451e-001
      vertex   -1.039230e+000 3.000000e+000 -6.000000e-001
      vertex   -9.192533e-001 3.000000e+000 -7.713451e-001
    endloop
  endfacet
  facet normal -7.071068e-001 -6.911014e-017 -7.071068e-001
    outer loop
      vertex   -7.713451e-001 0.000000e+000 -9.192533e-001
      vertex   -9.192533e-001 3.000000e+000 -7.713451e-001
      vertex   -7.713451e-001 3.000000e+000 -9.192533e-001
    endloop
  endfacet
  facet normal -5.735764e-001 -8.206829e-017 -8.191520e-001
    outer loop
      vertex   -6.000000e-001 0.000000e+000 -1.039230e+000
      vertex   -7.713451e-001 3.000000e+000 -9.192533e-001
      vertex   -6.000000e-001 3.000000e+000 -1.039230e+000
    endloop
  endfacet
  facet normal -4.226183e-001 -3.455507e-017 -9.063078e-001
    outer loop
      vertex   -4.104242e-001 0.000000e+000 -1.127631e+000
      vertex   -6.000000e-001 3.000000e+000 -1.039230e+000
      vertex   -4.104242e-001 3.000000e+000 -1.127631e+000
    endloop
  endfacet
  facet normal -2.588190e-001 0.000000e+000 -9.659258e-001
    outer loop
      vertex   -2.083778e-001 0.000000e+000 -1.181769e+000
      vertex   -4.104242e-001 3.000000e+000 -1.127631e+000
      vertex   -2.083778e-001 3.000000e+000 -1.181769e+000
    endloop
  endfacet
  facet normal -8.715574e-002 -8.638767e-018 -9.961947e-001
    outer loop
      vertex   7.347881e-017 0.000000e+000 -1.200000e+000
      vertex   -2.083778e-001 3.000000e+000 -1.181769e+000
      vertex   -2.204364e-016 3.000000e+000 -1.200000e+000
    endloop
  endfacet
  facet normal 8.715574e-002 -7.558921e-017 -9.961947e-001
    outer loop
      vertex   2.083778e-001 0.000000e+000 -1.181769e+000
      vertex   -2.204364e-016 3.000000e+000 -1.200000e+000
      vertex   2.083778e-001 3.000000e+000 -1.181769e+000
    endloop
  endfacet
  facet normal 2.588190e-001 -2.375661e-017 -9.659258e-001
    outer loop
      vertex   4.104242e-001 0.000000e+000 -1.127631e+000
      vertex   2.083778e-001 3.000000e+000 -1.181769e+000
      vertex   4.104242e-001 3.000000e+000 -1.127631e+000
    endloop
  endfacet
  facet normal 4.226183e-001 0.000000e+000 -9.063078e-001
    outer loop
      vertex   6.000000e-001 0.000000e+000 -1.039230e+000
      vertex   4.104242e-001 3.000000e+000 -1.127631e+000
      vertex   6.000000e-001 3.000000e+000 -1.039230e+000
    endloop
  endfacet
  facet normal 5.735764e-001 -7.342952e-017 -8.191520e-001
    outer loop
      vertex   7.713451e-001 0.000000e+000 -9.192533e-001
      vertex   6.000000e-001 3.000000e+000 -1.039230e+000
      vertex   7.713451e-001 3.000000e+000 -9.192533e-001
    endloop
  endfacet
  facet normal 7.071068e-001 0.000000e+000 -7.071068e-001
    outer loop
      vertex   9.192533e-001 0.000000e+000 -7.713451e-001
      vertex   7.713451e-001 3.000000e+000 -9.192533e-001
      vertex   9.192533e-001 3.000000e+000 -7.713451e-001
    endloop
  endfacet
  facet normal 8.191520e-001 -5.615199e-017 -5.735764e-001
    outer loop
      vertex   1.039230e+000 0.000000e+000 -6.000000e-001
      vertex   9.192533e-001 3.000000e+000 -7.713451e-001
      vertex   1.039230e+000 3.000000e+000 -6.000000e-001
    endloop
  endfacet
  facet normal 9.063078e-001 3.455507e-017 -4.226183e-001
    outer loop
      vertex   1.127631e+000 0.000000e+000 -4.104242e-001
      vertex   1.039230e+000 3.000000e+000 -6.000000e-001
      vertex   1.127631e+000 3.000000e+000 -4.104242e-001
    endloop
  endfacet
  facet normal 9.659258e-001 -6.479075e-018 -2.588190e-001
    outer loop
      vertex   1.181769e+000 0.000000e+000 -2.083778e-001
      vertex   1.127631e+000 3.000000e+000 -4.104242e-001
      vertex   1.181769e+000 3.000000e+000 -2.083778e-001
    endloop
  endfacet
  facet normal 9.961947e-001 0.000000e+000 -8.715574e-002
    outer loop
      vertex   1.200000e+000 0.000000e+000 0.000000e+000
      vertex   1.181769e+000 3.000000e+000 -2.083778e-001
      vertex   1.200000e+000 3.000000e+000 0.000000e+000
    endloop
  endfacet
  facet normal 9.961947e-001 -0.000000e+000 8.715574e-002
    outer loop
      vertex   1.181769e+000 0.000000e+000 2.083778e-001
      vertex   1.200000e+000 0.000000e+000 0.000000e+000
      vertex   1.200000e+000 3.000000e+000 0.000000e+000
    endloop
  endfacet
  facet normal 9.961947e-001 -2.015882e-018 -8.715574e-002
    outer loop
      vertex   1.200000e+000 0.000000e+000 0.000000e+000
      vertex   1.181769e+000 0.000000e+000 -2.083778e-001
      vertex   1.181769e+000 3.000000e+000 -2.083778e-001
    endloop
  endfacet
  facet normal 9.659258e-001 9.492268e-017 -2.588190e-001
    outer loop
      vertex   1.181769e+000 0.000000e+000 -2.083778e-001
      vertex   1.127631e+000 0.000000e+000 -4.104242e-001
      vertex   1.127631e+000 3.000000e+000 -4.104242e-001
    endloop
  endfacet
  facet normal 9.063078e-001 -1.389979e-017 -4.226183e-001
    outer loop
      vertex   1.127631e+000 0.000000e+000 -4.104242e-001
      vertex   1.039230e+000 0.000000e+000 -6.000000e-001
      vertex   1.039230e+000 3.000000e+000 -6.000000e-001
    endloop
  endfacet
  facet normal 8.191520e-001 2.272031e-017 -5.735764e-001
    outer loop
      vertex   1.039230e+000 0.000000e+000 -6.000000e-001
      vertex   9.192533e-001 0.000000e+000 -7.713451e-001
      vertex   9.192533e-001 3.000000e+000 -7.713451e-001
    endloop
  endfacet
  facet normal 7.071068e-001 -6.542052e-017 -7.071068e-001
    outer loop
      vertex   9.192533e-001 0.000000e+000 -7.713451e-001
      vertex   7.713451e-001 0.000000e+000 -9.192533e-001
      vertex   7.713451e-001 3.000000e+000 -9.192533e-001
    endloop
  endfacet
  facet normal 5.735764e-001 0.000000e+000 -8.191520e-001
    outer loop
      vertex   7.713451e-001 0.000000e+000 -9.192533e-001
      vertex   6.000000e-001 0.000000e+000 -1.039230e+000
      vertex   6.000000e-001 3.000000e+000 -1.039230e+000
    endloop
  endfacet
  facet normal 4.226183e-001 2.367481e-017 -9.063078e-001
    outer loop
      vertex   6.000000e-001 0.000000e+000 -1.039230e+000
      vertex   4.104242e-001 0.000000e+000 -1.127631e+000
      vertex   4.104242e-001 3.000000e+000 -1.127631e+000
    endloop
  endfacet
  facet normal 2.588190e-001 -4.147495e-017 -9.659258e-001
    outer loop
      vertex   4.104242e-001 0.000000e+000 -1.127631e+000
      vertex   2.083778e-001 0.000000e+000 -1.181769e+000
      vertex   2.083778e-001 3.000000e+000 -1.181769e+000
    endloop
  endfacet
  facet normal 8.715574e-002 8.538800e-018 -9.961947e-001
    outer loop
      vertex   2.083778e-001 0.000000e+000 -1.181769e+000
      vertex   7.347881e-017 0.000000e+000 -1.200000e+000
      vertex   -2.204364e-016 3.000000e+000 -1.200000e+000
    endloop
  endfacet
  facet normal -8.715574e-002 0.000000e+000 -9.961947e-001
    outer loop
      vertex   7.347881e-017 0.000000e+000 -1.200000e+000
      vertex   -2.083778e-001 0.000000e+000 -1.181769e+000
      vertex   -2.083778e-001 3.000000e+000 -1.181769e+000
    endloop
  endfacet
  facet normal -2.588190e-001 1.752938e-017 -9.659258e-001
    outer loop
      vertex   -2.083778e-001 0.000000e+000 -1.181769e+000
      vertex   -4.104242e-001 0.000000e+000 -1.127631e+000
      vertex   -4.104242e-001 3.000000e+000 -1.127631e+000
    endloop
  endfacet
  facet normal -4.226183e-001 -3.344982e-017 -9.063078e-001
    outer loop
      vertex   -4.104242e-001 0.000000e+000 -1.127631e+000
      vertex   -6.000000e-001 0.000000e+000 -1.039230e+000
      vertex   -6.000000e-001 3.000000e+000 -1.039230e+000
    endloop
  endfacet
  facet normal -5.735764e-001 -5.306648e-017 -8.191520e-001
    outer loop
      vertex   -6.000000e-001 0.000000e+000 -1.039230e+000
      vertex   -7.713451e-001 0.000000e+000 -9.192533e-001
      vertex   -7.713451e-001 3.000000e+000 -9.192533e-001
    endloop
  endfacet
  facet normal -7.071068e-001 6.542052e-017 -7.071068e-001
    outer loop
      vertex   -7.713451e-001 0.000000e+000 -9.192533e-001
      vertex   -9.192533e-001 0.000000e+000 -7.713451e-001
      vertex   -9.192533e-001 3.000000e+000 -7.713451e-001
    endloop
  endfacet
  facet normal -8.191520e-001 -2.272031e-017 -5.735764e-001
    outer loop
      vertex   -9.192533e-001 0.000000e+000 -7.713451e-001
      vertex   -1.039230e+000 0.000000e+000 -6.000000e-001
      vertex   -1.039230e+000 3.000000e+000 -6.000000e-001
    endloop
  endfacet
  facet normal -9.063078e-001 -4.475027e-017 -4.226183e-001
    outer loop
      vertex   -1.039230e+000 0.000000e+000 -6.000000e-001
      vertex   -1.127631e+000 0.000000e+000 -4.104242e-001
      vertex   -1.127631e+000 3.000000e+000 -4.104242e-001
    endloop
  endfacet
  facet normal -9.659258e-001 -2.052257e-017 -2.588190e-001
    outer loop
      vertex   -1.127631e+000 0.000000e+000 -4.104242e-001
      vertex   -1.181769e+000 0.000000e+000 -2.083778e-001
      vertex   -1.181769e+000 3.000000e+000 -2.083778e-001
    endloop
  endfacet
  facet normal -9.961947e-001 8.538800e-018 -8.715574e-002
    outer loop
      vertex   -1.181769e+000 0.000000e+000 -2.083778e-001
      vertex   -1.200000e+000 0.000000e+000 -1.469576e-016
      vertex   -1.200000e+000 3.000000e+000 1.469576e-016
    endloop
  endfacet
  facet normal -9.961947e-001 6.898389e-017 8.715574e-002
    outer loop
      vertex   -1.200000e+000 0.000000e+000 -1.469576e-016
      vertex   -1.181769e+000 0.000000e+000 2.083778e-001
      vertex   -1.181769e+000 3.000000e+000 2.083778e-001
    endloop
  endfacet
  facet normal -9.659258e-001 6.542052e-017 2.588190e-001
    outer loop
      vertex   -1.181769e+000 0.000000e+000 2.083778e-001
      vertex   -1.127631e+000 0.000000e+000 4.104242e-001
      vertex   -1.127631e+000 3.000000e+000 4.104242e-001
    endloop
  endfacet
  facet normal -9.063078e-001 4.475027e-017 4.226183e-001
    outer loop
      vertex   -1.127631e+000 0.000000e+000 4.104242e-001
      vertex   -1.039230e+000 0.000000e+000 6.000000e-001
      vertex   -1.039230e+000 3.000000e+000 6.000000e-001
    endloop
  endfacet
  facet normal -8.191520e-001 -5.306648e-017 5.735764e-001
    outer loop
      vertex   -1.039230e+000 0.000000e+000 6.000000e-001
      vertex   -9.192533e-001 0.000000e+000 7.713451e-001
      vertex   -9.192533e-001 3.000000e+000 7.713451e-001
    endloop
  endfacet
  facet normal -7.071068e-001 6.542052e-017 7.071068e-001
    outer loop
      vertex   -9.192533e-001 0.000000e+000 7.713451e-001
      vertex   -7.713451e-001 0.000000e+000 9.192533e-001
      vertex   -7.713451e-001 3.000000e+000 9.192533e-001
    endloop
  endfacet
  facet normal -5.735764e-001 8.341265e-017 8.191520e-001
    outer loop
      vertex   -7.713451e-001 0.000000e+000 9.192533e-001
      vertex   -6.000000e-001 0.000000e+000 1.039230e+000
      vertex   -6.000000e-001 3.000000e+000 1.039230e+000
    endloop
  endfacet
  facet normal -4.226183e-001 3.344982e-017 9.063078e-001
    outer loop
      vertex   -6.000000e-001 0.000000e+000 1.039230e+000
      vertex   -4.104242e-001 0.000000e+000 1.127631e+000
      vertex   -4.104242e-001 3.000000e+000 1.127631e+000
    endloop
  endfacet
  facet normal -2.588190e-001 0.000000e+000 9.659258e-001
    outer loop
      vertex   -4.104242e-001 0.000000e+000 1.127631e+000
      vertex   -2.083778e-001 0.000000e+000 1.181769e+000
      vertex   -2.083778e-001 3.000000e+000 1.181769e+000
    endloop
  endfacet
  facet normal -8.715574e-002 8.538800e-018 9.961947e-001
    outer loop
      vertex   -2.083778e-001 0.000000e+000 1.181769e+000
      vertex   -2.204364e-016 0.000000e+000 1.200000e+000
      vertex   7.347881e-017 3.000000e+000 1.200000e+000
    endloop
  endfacet
  facet normal 8.715574e-002 7.603947e-017 9.961947e-001
    outer loop
      vertex   -2.204364e-016 0.000000e+000 1.200000e+000
      vertex   2.083778e-001 0.000000e+000 1.181769e+000
      vertex   2.083778e-001 3.000000e+000 1.181769e+000
    endloop
  endfacet
  facet normal 2.588190e-001 2.351577e-017 9.659258e-001
    outer loop
      vertex   2.083778e-001 0.000000e+000 1.181769e+000
      vertex   4.104242e-001 0.000000e+000 1.127631e+000
      vertex   4.104242e-001 3.000000e+000 1.127631e+000
    endloop
  endfacet
  facet normal 4.226183e-001 -0.000000e+000 9.063078e-001
    outer loop
      vertex   4.104242e-001 0.000000e+000 1.127631e+000
      vertex   6.000000e-001 0.000000e+000 1.039230e+000
      vertex   6.000000e-001 3.000000e+000 1.039230e+000
    endloop
  endfacet
  facet normal 5.735764e-001 7.578679e-017 8.191520e-001
    outer loop
      vertex   6.000000e-001 0.000000e+000 1.039230e+000
      vertex   7.713451e-001 0.000000e+000 9.192533e-001
      vertex   7.713451e-001 3.000000e+000 9.192533e-001
    endloop
  endfacet
  facet normal 7.071068e-001 -1.227643e-031 7.071068e-001
    outer loop
      vertex   7.713451e-001 0.000000e+000 9.192533e-001
      vertex   9.192533e-001 0.000000e+000 7.713451e-001
      vertex   9.192533e-001 3.000000e+000 7.713451e-001
    endloop
  endfacet
  facet normal 8.191520e-001 5.687941e-017 5.735764e-001
    outer loop
      vertex   9.192533e-001 0.000000e+000 7.713451e-001
      vertex   1.039230e+000 0.000000e+000 6.000000e-001
      vertex   1.039230e+000 3.000000e+000 6.000000e-001
    endloop
  endfacet
  facet normal 0.000000e+000 1.000000e+000 -0.000000e+000
    outer loop
      vertex   1.200000e+000 3.000000e+000 0.000000e+000
      vertex   1.181769e+000 3.000000e+000 -2.083778e-001
      vertex   1.181769e+000 3.000000e+000 2.083778e-001
    endloop
  endfacet
  facet normal 0.000000e+000 1.000000e+000 0.000000e+000
    outer loop
      vertex   1.181769e+000 3.000000e+000 2.083778e-001
      vertex   1.181769e+000 3.000000e+000 -2.083778e-001
      vertex   1.127631e+000 3.000000e+000 4.104242e-001
    endloop
  endfacet
  facet normal 0.000000e+000 1.000000e+000 0.000000e+000
    outer loop
      vertex   1.127631e+000 3.000000e+000 4.104242e-001
      vertex   1.181769e+000 3.000000e+000 -2.083778e-001
      vertex   1.127631e+000 3.000000e+000 -4.104242e-001
    endloop
  endfacet
  facet normal 0.000000e+000 1.000000e+000 0.000000e+000
    outer loop
      vertex   1.039230e+000 3.000000e+000 6.000000e-001
      vertex   1.127631e+000 3.000000e+000 -4.104242e-001
      vertex   1.039230e+000 3.000000e+000 -6.000000e-001
    endloop
  endfacet
  facet normal 0.000000e+000 1.000000e+000 0.000000e+000
    outer loop
      vertex   9.192533e-001 3.000000e+000 7.713451e-001
      vertex   1.039230e+000 3.000000e+000 -6.000000e-001
      vertex   9.192533e-001 3.000000e+000 -7.713451e-001
    endloop
  endfacet
  facet normal 0.000000e+000 1.000000e+000 0.000000e+000
    outer loop
      vertex   7.713451e-001 3.000000e+000 9.192533e-001
      vertex   9.192533e-001 3.000000e+000 -7.713451e-001
      vertex   7.713451e-001 3.000000e+000 -9.192533e-001
    endloop
  endfacet
  facet normal 0.000000e+000 1.000000e+000 0.000000e+000
    outer loop
      vertex   6.000000e-001 3.000000e+000 1.039230e+000
      vertex   7.713451e-001 3.000000e+000 -9.192533e-001
      vertex   6.000000e-001 3.000000e+000 -1.039230e+000
    endloop
  endfacet
  facet normal 0.000000e+000 1.000000e+000 0.000000e+000
    outer loop
      vertex   4.104242e-001 3.000000e+000 1.127631e+000
      vertex   6.000000e-001 3.000000e+000 -1.039230e+000
      vertex   4.104242e-001 3.000000e+000 -1.127631e+000
    endloop
  endfacet
  facet normal 0.000000e+000 1.000000e+000 0.000000e+000
    outer loop
      vertex   2.083778e-001 3.000000e+000 1.181769e+000
      vertex   4.104242e-001 3.000000e+000 -1.127631e+000
      vertex   2.083778e-001 3.000000e+000 -1.181769e+000
    endloop
  endfacet
  facet normal 0.000000e+000 1.000000e+000 0.000000e+000
    outer loop
      vertex   7.347881e-017 3.000000e+000 1.200000e+000
      vertex   2.083778e-001 3.000000e+000 -1.181769e+000
      vertex   -2.204364e-016 3.000000e+000 -1.200000e+000
    endloop
  endfacet
  facet normal 0.000000e+000 1.000000e+000 0.000000e+000
    outer loop
      vertex   -2.083778e-001 3.000000e+000 1.181769e+000
      vertex   -2.204364e-016 3.000000e+000 -1.200000e+000
      vertex   -2.083778e-001 3.000000e+000 -1.181769e+000
    endloop
  endfacet
  facet normal 0.000000e+000 1.000000e+000 0.000000e+000
    outer loop
      vertex   -4.104242e-001 3.000000e+000 1.127631e+000
      vertex   -2.083778e-001 3.000000e+000 -1.181769e+000
      vertex   -4.104242e-001 3.000000e+000 -1.127631e+000
    endloop
  endfacet
  facet normal 0.000000e+000 1.000000e+000 0.000000e+000
    outer loop
      vertex   -6.000000e-001 3.000000e+000 1.039230e+000
      vertex   -4.104242e-001 3.000000e+000 -1.127631e+000
      vertex   -6.000000e-001 3.000000e+000 -1.039230e+000
    endloop
  endfacet
  facet normal 0.000000e+000 1.000000e+000 0.000000e+000
    outer loop
      vertex   -7.713451e-001 3.000000e+000 9.192533e-001
      vertex   -6.000000e-001 3.000000e+000 -1.039230e+000
      vertex   -7.713451e-001 3.000000e+000 -9.192533e-001
    endloop
  endfacet
  facet normal 0.000000e+000 1.000000e+000 0.000000e+000
    outer loop
      vertex   -9.192533e-001 3.000000e+000 7.713451e-001
      vertex   -7.713451e-001 3.000000e+000 -9.192533e-001
      vertex   -9.192533e-001 3.000000e+000 -7.713451e-001
    endloop
  endfacet
  facet normal 0.000000e+000 1.000000e+000 0.000000e+000
    outer loop
      vertex   -1.039230e+000 3.000000e+000 6.000000e-001
      vertex   -9.192533e-001 3.000000e+000 -7.713451e-001
      vertex   -1.039230e+000 3.000000e+000 -6.000000e-001
    endloop
  endfacet
  facet normal 0.000000e+000 1.000000e+000 0.000000e+000
    outer loop
      vertex   -1.127631e+000 3.000000e+000 4.104242e-001
      vertex   -1.039230e+000 3.000000e+000 -6.000000e-001
      vertex   -1.127631e+000 3.000000e+000 -4.104242e-001
    endloop
  endfacet
  facet normal 0.000000e+000 1.000000e+000 0.000000e+000
    outer loop
      vertex   -1.181769e+000 3.000000e+000 2.083778e-001
      vertex   -1.127631e+000 3.000000e+000 -4.104242e-001
      vertex   -1.181769e+000 3.000000e+000 -2.083778e-001
    endloop
  endfacet
  facet normal -0.000000e+000 1.000000e+000 0.000000e+000
    outer loop
      vertex   -1.200000e+000 3.000000e+000 1.469576e-016
      vertex   -1.181769e+000 3.000000e+000 2.083778e-001
      vertex   -1.181769e+000 3.000000e+000 -2.083778e-001
    endloop
  endfacet
  facet normal -0.000000e+000 1.000000e+000 0.000000e+000
    outer loop
      vertex   -1.181769e+000 3.000000e+000 2.083778e-001
      vertex   -1.127631e+000 3.000000e+000 4.104242e-001
      vertex   -1.127631e+000 3.000000e+000 -4.104242e-001
    endloop
  endfacet
  facet normal -0.000000e+000 1.000000e+000 0.000000e+000
    outer loop
      vertex   -1.127631e+000 3.000000e+000 4.104242e-001
      vertex   -1.039230e+000 3.000000e+000 6.000000e-001
      vertex   -1.039230e+000 3.000000e+000 -6.000000e-001
    endloop
  endfacet
  facet normal -0.000000e+000 1.000000e+000 0.000000e+000
    outer loop
      vertex   -1.039230e+000 3.000000e+000 6.000000e-001
      vertex   -9.192533e-001 3.000000e+000 7.713451e-001
      vertex   -9.192533e-001 3.000000e+000 -7.713451e-001
    endloop
  endfacet
  facet normal -0.000000e+000 1.000000e+000 0.000000e+000
    outer loop
      vertex   -9.192533e-001 3.000000e+000 7.713451e-001
      vertex   -7.713451e-001 3.000000e+000 9.192533e-001
      vertex   -7.713451e-001 3.000000e+000 -9.192533e-001
    endloop
  endfacet
  facet normal -0.000000e+000 1.000000e+000 0.000000e+000
    outer loop
      vertex   -7.713451e-001 3.000000e+000 9.192533e-001
      vertex   -6.000000e-001 3.000000e+000 1.039230e+000
      vertex   -6.000000e-001 3.000000e+000 -1.039230e+000
    endloop
  endfacet
  facet normal -0.000000e+000 1.000000e+000 0.000000e+000
    outer loop
      vertex   -6.000000e-001 3.000000e+000 1.039230e+000
      vertex   -4.104242e-001 3.000000e+000 1.127631e+000
      vertex   -4.104242e-001 3.000000e+000 -1.127631e+000
    endloop
  endfacet
  facet normal -0.000000e+000 1.000000e+000 0.000000e+000
    outer loop
      vertex   -4.104242e-001 3.000000e+000 1.127631e+000
      vertex   -2.083778e-001 3.000000e+000 1.181769e+000
      vertex   -2.083778e-001 3.000000e+000 -1.181769e+000
    endloop
  endfacet
  facet normal -0.000000e+000 1.000000e+000 0.000000e+000
    outer loop
      vertex   -2.083778e-001 3.000000e+000 1.181769e+000
      vertex   7.347881e-017 3.000000e+000 1.200000e+000
      vertex   -2.204364e-016 3.000000e+000 -1.200000e+000
    endloop
  endfacet
  facet normal 0.000000e+000 1.000000e+000 0.000000e+000
    outer loop
      vertex   7.347881e-017 3.000000e+000 1.200000e+000
      vertex   2.083778e-001 3.000000e+000 1.181769e+000
      vertex   2.083778e-001 3.000000e+000 -1.181769e+000
    endloop
  endfacet
  facet normal 0.000000e+000 1.000000e+000 0.000000e+000
    outer loop
      vertex   2.083778e-001 3.000000e+000 1.181769e+000
      vertex   4.104242e-001 3.000000e+000 1.127631e+000
      vertex   4.104242e-001 3.000000e+000 -1.127631e+000
    endloop
  endfacet
  facet normal 0.000000e+000 1.000000e+000 0.000000e+000
    outer loop
      vertex   4.104242e-001 3.000000e+000 1.127631e+000
      vertex   6.000000e-001 3.000000e+000 1.039230e+000
      vertex   6.000000e-001 3.000000e+000 -1.039230e+000
    endloop
  endfacet
  facet normal 0.000000e+000 1.000000e+000 0.000000e+000
    outer loop
      vertex   6.000000e-001 3.000000e+000 1.039230e+000
      vertex   7.713451e-001 3.000000e+000 9.192533e-001
      vertex   7.713451e-001 3.000000e+000 -9.192533e-001
    endloop
  endfacet
  facet normal 0.000000e+000 1.000000e+000 0.000000e+000
    outer loop
      vertex   7.713451e-001 3.000000e+000 9.192533e-001
      vertex   9.192533e-001 3.000000e+000 7.713451e-001
      vertex   9.192533e-001 3.000000e+000 -7.713451e-001
    endloop
  endfacet
  facet normal 0.000000e+000 1.000000e+000 0.000000e+000
    outer loop
      vertex   9.192533e-001 3.000000e+000 7.713451e-001
      vertex   1.039230e+000 3.000000e+000 6.000000e-001
      vertex   1.039230e+000 3.000000e+000 -6.000000e-001
    endloop
  endfacet
  facet normal 0.000000e+000 1.000000e+000 0.000000e+000
    outer loop
      vertex   1.039230e+000 3.000000e+000 6.000000e-001
      vertex   1.127631e+000 3.000000e+000 4.104242e-001
      vertex   1.127631e+000 3.000000e+000 -4.104242e-001
    endloop
  endfacet
  facet normal -0.000000e+000 -1.000000e+000 -0.000000e+000
    outer loop
      vertex   1.200000e+000 0.000000e+000 0.000000e+000
      vertex   1.181769e+000 0.000000e+000 2.083778e-001
      vertex   1.181769e+000 0.000000e+000 -2.083778e-001
    endloop
  endfacet
  facet normal -0.000000e+000 -1.000000e+000 0.000000e+000
    outer loop
      vertex   1.181769e+000 0.000000e+000 -2.083778e-001
      vertex   1.181769e+000 0.000000e+000 2.083778e-001
      vertex   1.127631e+000 0.000000e+000 -4.104242e-001
    endloop
  endfacet
  facet normal 0.000000e+000 -1.000000e+000 0.000000e+000
    outer loop
      vertex   1.127631e+000 0.000000e+000 -4.104242e-001
      vertex   1.181769e+000 0.000000e+000 2.083778e-001
      vertex   1.127631e+000 0.000000e+000 4.104242e-001
    endloop
  endfacet
  facet normal 0.000000e+000 -1.000000e+000 0.000000e+000
    outer loop
      vertex   1.039230e+000 0.000000e+000 -6.000000e-001
      vertex   1.127631e+000 0.000000e+000 4.104242e-001
      vertex   1.039230e+000 0.000000e+000 6.000000e-001
    endloop
  endfacet
  facet normal 0.000000e+000 -1.000000e+000 0.000000e+000
    outer loop
      vertex   9.192533e-001 0.000000e+000 -7.713451e-001
      vertex   1.039230e+000 0.000000e+000 6.000000e-001
      vertex   9.192533e-001 0.000000e+000 7.713451e-001
    endloop
  endfacet
  facet normal 0.000000e+000 -1.000000e+000 0.000000e+000
    outer loop
      vertex   7.713451e-001 0.000000e+000 -9.192533e-001
      vertex   9.192533e-001 0.000000e+000 7.713451e-001
      vertex   7.713451e-001 0.000000e+000 9.192533e-001
    endloop
  endfacet
  facet normal 0.000000e+000 -1.000000e+000 0.000000e+000
    outer loop
      vertex   6.000000e-001 0.000000e+000 -1.039230e+000
      vertex   7.713451e-001 0.000000e+000 9.192533e-001
      vertex   6.000000e-001 0.000000e+000 1.039230e+000
    endloop
  endfacet
  facet normal 0.000000e+000 -1.000000e+000 0.000000e+000
    outer loop
      vertex   4.104242e-001 0.000000e+000 -1.127631e+000
      vertex   6.000000e-001 0.000000e+000 1.039230e+000
      vertex   4.104242e-001 0.000000e+000 1.127631e+000
    endloop
  endfacet
  facet normal 0.000000e+000 -1.000000e+000 0.000000e+000
    outer loop
      vertex   2.083778e-001 0.000000e+000 -1.181769e+000
      vertex   4.104242e-001 0.000000e+000 1.127631e+000
      vertex   2.083778e-001 0.000000e+000 1.181769e+000
    endloop
  endfacet
  facet normal 0.000000e+000 -1.000000e+000 0.000000e+000
    outer loop
      vertex   7.347881e-017 0.000000e+000 -1.200000e+000
      vertex   2.083778e-001 0.000000e+000 1.181769e+000
      vertex   -2.204364e-016 0.000000e+000 1.200000e+000
    endloop
  endfacet
  facet normal -0.000000e+000 -1.000000e+000 0.000000e+000
    outer loop
      vertex   -2.083778e-001 0.000000e+000 -1.181769e+000
      vertex   -2.204364e-016 0.000000e+000 1.200000e+000
      vertex   -2.083778e-001 0.000000e+000 1.181769e+000
    endloop
  endfacet
  facet normal -0.000000e+000 -1.000000e+000 0.000000e+000
    outer loop
      vertex   -4.104242e-001 0.000000e+000 -1.127631e+000
      vertex   -2.083778e-001 0.000000e+000 1.181769e+000
      vertex   -4.104242e-001 0.000000e+000 1.127631e+000
    endloop
  endfacet
  facet normal -0.000000e+000 -1.000000e+000 0.000000e+000
    outer loop
      vertex   -6.000000e-001 0.000000e+000 -1.039230e+000
      vertex   -4.104242e-001 0.000000e+000 1.127631e+000
      vertex   -6.000000e-001 0.000000e+000 1.039230e+000
    endloop
  endfacet
  facet normal -0.000000e+000 -1.000000e+000 0.000000e+000
    outer loop
      vertex   -7.713451e-001 0.000000e+000 -9.192533e-001
      vertex   -6.000000e-001 0.000000e+000 1.039230e+000
      vertex   -7.713451e-001 0.000000e+000 9.192533e-001
    endloop
  endfacet
  facet normal -0.000000e+000 -1.000000e+000 0.000000e+000
    outer loop
      vertex   -9.192533e-001 0.000000e+000 -7.713451e-001
      vertex   -7.713451e-001 0.000000e+000 9.192533e-001
      vertex   -9.192533e-001 0.000000e+000 7.713451e-001
    endloop
  endfacet
  facet normal -0.000000e+000 -1.000000e+000 0.000000e+000
    outer loop
      vertex   -1.039230e+000 0.000000e+000 -6.000000e-001
      vertex   -9.192533e-001 0.000000e+000 7.713451e-001
      vertex   -1.039230e+000 0.000000e+000 6.000000e-001
    endloop
  endfacet
  facet normal -0.000000e+000 -1.000000e+000 0.000000e+000
    outer loop
      vertex   -1.127631e+000 0.000000e+000 -4.104242e-001
      vertex   -1.039230e+000 0.000000e+000 6.000000e-001
      vertex   -1.127631e+000 0.000000e+000 4.104242e-001
    endloop
  endfacet
  facet normal -0.000000e+000 -1.000000e+000 0.000000e+000
    outer loop
      vertex   -1.181769e+000 0.000000e+000 -2.083778e-001
      vertex   -1.127631e+000 0.000000e+000 4.104242e-001
      vertex   -1.181769e+000 0.000000e+000 2.083778e-001
    endloop
  endfacet
  facet normal 0.000000e+000 -1.000000e+000 0.000000e+000
    outer loop
      vertex   -1.200000e+000 0.000000e+000 -1.469576e-016
      vertex   -1.181769e+000 0.000000e+000 -2.083778e-001
      vertex   -1.181769e+000 0.000000e+000 2.083778e-001
    endloop
  endfacet
  facet normal 0.000000e+000 -1.000000e+000 0.000000e+000
    outer loop
      vertex   -1.181769e+000 0.000000e+000 -2.083778e-001
      vertex   -1.127631e+000 0.000000e+000 -4.104242e-001
      vertex   -1.127631e+000 0.000000e+000 4.104242e-001
    endloop
  endfacet
  facet normal 0.000000e+000 -1.000000e+000 0.000000e+000
    outer loop
      vertex   -1.127631e+000 0.000000e+000 -4.104242e-001
      vertex   -1.039230e+000 0.000000e+000 -6.000000e-001
      vertex   -1.039230e+000 0.000000e+000 6.000000e-001
    endloop
  endfacet
  facet normal 0.000000e+000 -1.000000e+000 0.000000e+000
    outer loop
      vertex   -1.039230e+000 0.000000e+000 -6.000000e-001
      vertex   -9.192533e-001 0.000000e+000 -7.713451e-001
      vertex   -9.192533e-001 0.000000e+000 7.713451e-001
    endloop
  endfacet
  facet normal 0.000000e+000 -1.000000e+000 0.000000e+000
    outer loop
      vertex   -9.192533e-001 0.000000e+000 -7.713451e-001
      vertex   -7.713451e-001 0.000000e+000 -9.192533e-001
      vertex   -7.713451e-001 0.000000e+000 9.192533e-001
    endloop
  endfacet
  facet normal 0.000000e+000 -1.000000e+000 0.000000e+000
    outer loop
      vertex   -7.713451e-001 0.000000e+000 -9.192533e-001
      vertex   -6.000000e-001 0.000000e+000 -1.039230e+000
      vertex   -6.000000e-001 0.000000e+000 1.039230e+000
    endloop
  endfacet
  facet normal 0.000000e+000 -1.000000e+000 0.000000e+000
    outer loop
      vertex   -6.000000e-001 0.000000e+000 -1.039230e+000
      vertex   -4.104242e-001 0.000000e+000 -1.127631e+000
      vertex   -4.104242e-001 0.000000e+000 1.127631e+000
    endloop
  endfacet
  facet normal 0.000000e+000 -1.000000e+000 0.000000e+000
    outer loop
      vertex   -4.104242e-001 0.000000e+000 -1.127631e+000
      vertex   -2.083778e-001 0.000000e+000 -1.181769e+000
      vertex   -2.083778e-001 0.000000e+000 1.181769e+000
    endloop
  endfacet
  facet normal 0.000000e+000 -1.000000e+000 0.000000e+000
    outer loop
      vertex   -2.083778e-001 0.000000e+000 -1.181769e+000
      vertex   7.347881e-017 0.000000e+000 -1.200000e+000
      vertex   -2.204364e-016 0.000000e+000 1.200000e+000
    endloop
  endfacet
  facet normal 0.000000e+000 -1.000000e+000 0.000000e+000
    outer loop
      vertex   7.347881e-017 0.000000e+000 -1.200000e+000
      vertex   2.083778e-001 0.000000e+000 -1.181769e+000
      vertex   2.083778e-001 0.000000e+000 1.181769e+000
    endloop
  endfacet
  facet normal 0.000000e+000 -1.000000e+000 0.000000e+000
    outer loop
      vertex   2.083778e-001 0.000000e+000 -1.181769e+000
      vertex   4.104242e-001 0.000000e+000 -1.127631e+000
      vertex   4.104242e-001 0.000000e+000 1.127631e+000
    endloop
  endfacet
  facet normal 0.000000e+000 -1.000000e+000 0.000000e+000
    outer loop
      vertex   4.104242e-001 0.000000e+000 -1.127631e+000
      vertex   6.000000e-001 0.000000e+000 -1.039230e+000
      vertex   6.000000e-001 0.000000e+000 1.039230e+000
    endloop
  endfacet
  facet normal 0.000000e+000 -1.000000e+000 0.000000e+000
    outer loop
      vertex   6.000000e-001 0.000000e+000 -1.039230e+000
      vertex   7.713451e-001 0.000000e+000 -9.192533e-001
      vertex   7.713451e-001 0.000000e+000 9.192533e-001
    endloop
  endfacet
  facet normal 0.000000e+000 -1.000000e+000 0.000000e+000
    outer loop
      vertex   7.713451e-001 0.000000e+000 -9.192533e-001
      vertex   9.192533e-001 0.000000e+000 -7.713451e-001
      vertex   9.192533e-001 0.000000e+000 7.713451e-001
    endloop
  endfacet
  facet normal 0.000000e+000 -1.000000e+000 0.000000e+000
    outer loop
      vertex   9.192533e-001 0.000000e+000 -7.713451e-001
      vertex   1.039230e+000 0.000000e+000 -6.000000e-001
      vertex   1.039230e+000 0.000000e+000 6.000000e-001
    endloop
  endfacet
  facet normal 0.000000e+000 -1.000000e+000 0.000000e+000
    outer loop
      vertex   1.039230e+000 0.000000e+000 -6.000000e-001
      vertex   1.127631e+000 0.000000e+000 -4.104242e-001
      vertex   1.127631e+000 0.000000e+000 4.104242e-001
    endloop
  endfacet
endsolid
